<?xml version="1.0" encoding="UTF-8" standalone="no"?>
<svg
   xmlns:i="http://ns.adobe.com/AdobeIllustrator/10.0/"
   xmlns:dc="http://purl.org/dc/elements/1.1/"
   xmlns:cc="http://creativecommons.org/ns#"
   xmlns:rdf="http://www.w3.org/1999/02/22-rdf-syntax-ns#"
   xmlns:svg="http://www.w3.org/2000/svg"
   xmlns="http://www.w3.org/2000/svg"
   xmlns:sodipodi="http://sodipodi.sourceforge.net/DTD/sodipodi-0.dtd"
   xmlns:inkscape="http://www.inkscape.org/namespaces/inkscape"
   height="100px"
   width="100px"
   fill="#000000"
   version="1.1"
   x="0px"
   y="0px"
   viewBox="-205 -100 100 100"
   style="enable-background:new -205 -100 100 100;"
   xml:space="preserve"
   id="svg8"
   sodipodi:docname="chuteTB.svg"
   inkscape:version="0.92.4 (5da689c313, 2019-01-14)"><metadata
     id="metadata14"><rdf:RDF><cc:Work
         rdf:about=""><dc:format>image/svg+xml</dc:format><dc:type
           rdf:resource="http://purl.org/dc/dcmitype/StillImage" /><dc:title></dc:title></cc:Work></rdf:RDF></metadata><defs
     id="defs12" /><sodipodi:namedview
     pagecolor="#ffffff"
     bordercolor="#666666"
     borderopacity="1"
     objecttolerance="10"
     gridtolerance="10"
     guidetolerance="10"
     inkscape:pageopacity="0"
     inkscape:pageshadow="2"
     inkscape:window-width="919"
     inkscape:window-height="480"
     id="namedview10"
     showgrid="false"
     inkscape:zoom="2.36"
     inkscape:cx="2.7542373"
     inkscape:cy="50"
     inkscape:window-x="0"
     inkscape:window-y="27"
     inkscape:window-maximized="0"
     inkscape:current-layer="svg8" /><g
     id="g6"><g
       i:extraneous="self"
       id="g4"><path
         d="M-150.3-9.8h-32.6c-4.2,0-7.7-3.4-7.7-7.7v-57.1c0.6,0.3,1.3,0.6,2,0.8c0.2,0.1,0.5,0.2,0.8,0.2c0.1,0,0.1,0,0.2,0    c0.3,0.1,0.7,0.2,1,0.3c0.5,0.1,0.9,0.2,1.1,0.3v0c2.2,0.5,3.9,1,5.5,1.6c3.5,1.3,6.6,3.1,9.5,5.3c0,0,0,0,0.1,0l0.5,0.4l0.4,0.4    c0.2,0.1,0.3,0.3,0.5,0.4c0.2,0.1,0.3,0.3,0.5,0.4c0.2,0.2,0.4,0.3,0.6,0.5c0.5,0.4,0.9,0.8,1.2,1.2c0.1,0.1,0.1,0.1,0.2,0.2    c1,1,2,2.1,3.1,3.6c1.8,2.4,3.3,4.9,4.4,7.4c1,2.2,1.7,4.5,2.2,6.8c0,0.2,0.1,0.5,0.1,0.7c0.1,0.3,0.1,0.6,0.1,0.7l0.1,0.7h-1    c-3.6,0-6.8,2-8.3,5.3c-1.5,3.2-1.1,6.8,1,9.6l1.6,2.2C-159.2-20.1-154.9-14.8-150.3-9.8z M-120.2-31.6c1.6-2,0.2-4.9-2.3-4.9    h-7.5c0-0.1,0-0.2,0-0.3c0-0.2,0-0.3-0.1-0.6c-0.1-0.5-0.1-1-0.2-1.5c-0.1-0.5-0.1-1.1-0.2-1.7c-0.1-0.6-0.2-1.2-0.3-1.8    c-0.1-0.3-0.1-0.6-0.2-1c-0.1-0.3-0.2-0.7-0.2-1c-0.2-0.7-0.3-1.4-0.5-2.2c-0.2-0.8-0.4-1.5-0.7-2.3c-0.2-0.8-0.5-1.6-0.8-2.5    c-1.2-3.4-2.9-7.1-5.1-10.8c-2.3-3.7-5.2-7.5-8.6-11c-1.8-1.7-3.6-3.4-5.7-5c-1-0.8-2.1-1.5-3.2-2.3c-0.5-0.4-1.1-0.7-1.7-1.1    l-0.8-0.5l-0.9-0.5c-4.6-2.7-9.7-4.7-15.1-6c-2.7-0.7-5.4-1.1-8.1-1.3c-0.7-0.1-1.4-0.1-2.1-0.2c-0.2,0-0.4,0-0.7,0    c-2.9,0-5.3,2.4-5.3,5.3c0,2.5,1.7,4.5,4,5.1l0,0c0,0,0.1,0,0.2,0c0.1,0,0.1,0,0.2,0c0.6,0.2,1.9,0.5,2.2,0.5    c2.2,0.5,4.3,1.1,6.3,1.9c4.1,1.6,7.8,3.6,11,6.1l0.6,0.5l0.6,0.5c0.4,0.3,0.8,0.6,1.1,1c0.7,0.7,1.5,1.3,2.1,2    c1.4,1.4,2.6,2.8,3.7,4.2c2.2,2.9,3.9,5.9,5.2,8.7c1.3,2.9,2.1,5.6,2.6,8c0.1,0.6,0.3,1.2,0.3,1.8c0.1,0.6,0.2,1.1,0.3,1.7    c0.1,0.5,0.1,1,0.2,1.5c0,0.2,0.1,0.5,0.1,0.7c0,0.2,0,0.5,0,0.7c0,0.4,0,0.9,0.1,1.3c0,0.4,0,0.7,0,1c0,0.3,0,0.6,0,0.8    c0,0.1,0,0.1,0,0.2h-7.6c-2.5,0-3.9,3-2.3,4.9l1.7,2.4c4.5,6.3,9.5,12.3,15,17.9c1.6,2,4.6,2,6.3,0l0.1-0.1    c5.4-5.5,10.3-11.4,14.8-17.7L-120.2-31.6z"
         id="path2" /></g></g></svg>