<?xml version="1.0" encoding="UTF-8" standalone="no"?>
<svg
   xmlns:dc="http://purl.org/dc/elements/1.1/"
   xmlns:cc="http://creativecommons.org/ns#"
   xmlns:rdf="http://www.w3.org/1999/02/22-rdf-syntax-ns#"
   xmlns:svg="http://www.w3.org/2000/svg"
   xmlns="http://www.w3.org/2000/svg"
   xmlns:sodipodi="http://sodipodi.sourceforge.net/DTD/sodipodi-0.dtd"
   xmlns:inkscape="http://www.inkscape.org/namespaces/inkscape"
   height="100px"
   width="100px"
   fill="#000000"
   version="1.1"
   x="0px"
   y="0px"
   viewBox="0 0 100 100"
   enable-background="new 0 0 100 100"
   xml:space="preserve"
   id="svg16"
   sodipodi:docname="couche.svg"
   inkscape:version="0.92.4 (5da689c313, 2019-01-14)"><metadata
     id="metadata22"><rdf:RDF><cc:Work
         rdf:about=""><dc:format>image/svg+xml</dc:format><dc:type
           rdf:resource="http://purl.org/dc/dcmitype/StillImage" /><dc:title></dc:title></cc:Work></rdf:RDF></metadata><defs
     id="defs20" /><sodipodi:namedview
     pagecolor="#ffffff"
     bordercolor="#666666"
     borderopacity="1"
     objecttolerance="10"
     gridtolerance="10"
     guidetolerance="10"
     inkscape:pageopacity="0"
     inkscape:pageshadow="2"
     inkscape:window-width="919"
     inkscape:window-height="480"
     id="namedview18"
     showgrid="false"
     inkscape:zoom="2.36"
     inkscape:cx="2.7542373"
     inkscape:cy="50"
     inkscape:window-x="0"
     inkscape:window-y="27"
     inkscape:window-maximized="0"
     inkscape:current-layer="svg16" /><g
     id="g14"
     transform="matrix(-1,0,0,1,100,0)"><g
       id="g12"><g
         id="g6"><path
           d="m 21.431,23.112 c 2.961,2.947 2.967,7.721 0.012,10.685 C 18.495,36.75 13.708,36.763 10.76,33.805 7.797,30.869 7.793,26.08 10.736,23.119 13.7,20.158 18.479,20.156 21.431,23.112 Z"
           id="path2"
           inkscape:connector-curvature="0" /><path
           d="m 27.335,29.044 0.042,0.036 c 2.205,-2.362 5.864,-2.751 8.501,-0.762 l 16.25,12.265 c 0.203,0.154 15.131,11.851 15.131,11.851 l 17.688,0.517 -0.232,7.987 -18.949,-0.551 c -0.815,-0.021 -1.613,-0.299 -2.271,-0.789 0,0 -11.464,-8.768 -11.513,-8.73 L 50.888,62.788 61.674,78.811 55.04,83.276 43.5,66.129 C 43.012,65.401 42.775,64.535 42.826,63.66 l 1.175,-13.184 -12.586,-9.499 -1.7,7.692 c -0.165,0.747 -0.592,1.409 -1.204,1.868 l -11.968,8.983 -3.837,-5.117 11.02,-8.271 2.367,-10.701 -3.219,9.018 c -0.581,0.578 -1.353,0.924 -2.179,0.943 L 5.127,45.699 5,39.306 19.12,39.025 Z"
           id="path4"
           inkscape:connector-curvature="0" /></g><path
         d="m 95,32.547 c 0,0 -1.048,-1.736 -3.162,-3.936 -2.082,-2.224 -5.291,-4.804 -8.893,-6.812 -0.897,-0.505 -1.831,-0.933 -2.74,-1.398 -0.939,-0.392 -1.859,-0.777 -2.756,-1.149 -0.922,-0.311 -1.815,-0.609 -2.656,-0.892 -0.848,-0.3 -1.677,-0.444 -2.434,-0.651 -1.506,-0.42 -2.793,-0.584 -3.693,-0.746 -0.904,-0.154 -1.419,-0.24 -1.419,-0.24 l -0.272,3.491 c 0,0 0.482,0.029 1.33,0.08 0.844,0.061 2.069,0.078 3.504,0.316 0.719,0.117 1.521,0.164 2.334,0.36 0.819,0.178 1.688,0.365 2.58,0.563 0.881,0.26 1.793,0.527 2.717,0.8 0.898,0.345 1.834,0.652 2.74,1.041 3.622,1.531 7.012,3.685 9.285,5.637 2.303,1.925 3.535,3.536 3.535,3.536 z"
         id="path8"
         inkscape:connector-curvature="0" /><path
         d="m 83.172,33.149 c 0,0 -1.533,-0.955 -4.097,-1.849 -2.552,-0.925 -6.149,-1.676 -9.822,-1.804 -1.839,-0.064 -3.679,0.038 -5.409,0.22 -0.854,0.131 -1.689,0.259 -2.476,0.379 -0.79,0.109 -1.511,0.336 -2.192,0.48 -1.371,0.287 -2.461,0.688 -3.238,0.929 -0.783,0.251 -1.227,0.392 -1.227,0.392 l 1.387,3.216 c 0,0 0.389,-0.177 1.069,-0.493 0.687,-0.306 1.649,-0.804 2.873,-1.219 0.608,-0.207 1.256,-0.506 1.971,-0.692 0.716,-0.201 1.472,-0.415 2.251,-0.636 1.58,-0.363 3.295,-0.674 5.034,-0.827 3.479,-0.304 7.034,-0.017 9.627,0.581 2.609,0.562 4.249,1.323 4.249,1.323 z"
         id="path10"
         inkscape:connector-curvature="0" /></g></g></svg>