<?xml version="1.0" encoding="UTF-8" standalone="no"?>
<svg
   xmlns:dc="http://purl.org/dc/elements/1.1/"
   xmlns:cc="http://creativecommons.org/ns#"
   xmlns:rdf="http://www.w3.org/1999/02/22-rdf-syntax-ns#"
   xmlns:svg="http://www.w3.org/2000/svg"
   xmlns="http://www.w3.org/2000/svg"
   xmlns:sodipodi="http://sodipodi.sourceforge.net/DTD/sodipodi-0.dtd"
   xmlns:inkscape="http://www.inkscape.org/namespaces/inkscape"
   height="63.787998"
   width="66.813004"
   version="1.1"
   x="0px"
   y="0px"
   viewBox="0 0 66.813004 63.787998"
   enable-background="new 0 0 100 100"
   xml:space="preserve"
   id="svg34"
   sodipodi:docname="ND.svg"
   style="fill:#000000"
   inkscape:version="0.92.4 (5da689c313, 2019-01-14)"><metadata
     id="metadata40"><rdf:RDF><cc:Work
         rdf:about=""><dc:format>image/svg+xml</dc:format><dc:type
           rdf:resource="http://purl.org/dc/dcmitype/StillImage" /><dc:title></dc:title></cc:Work></rdf:RDF></metadata><defs
     id="defs38" /><sodipodi:namedview
     pagecolor="#ffffff"
     bordercolor="#666666"
     borderopacity="1"
     objecttolerance="10"
     gridtolerance="10"
     guidetolerance="10"
     inkscape:pageopacity="0"
     inkscape:pageshadow="2"
     inkscape:window-width="1600"
     inkscape:window-height="836"
     id="namedview36"
     showgrid="false"
     fit-margin-top="5"
     fit-margin-left="5"
     fit-margin-right="5"
     fit-margin-bottom="5"
     inkscape:zoom="2.36"
     inkscape:cx="-29.560763"
     inkscape:cy="18.868"
     inkscape:window-x="0"
     inkscape:window-y="27"
     inkscape:window-maximized="1"
     inkscape:current-layer="svg34" /><path
     inkscape:connector-curvature="0"
     id="path30"
     d="m 29.249311,8.2093395 h 0.221928 c 9.151012,0.055482 16.826025,1.5411674 20.596161,2.4244765 -7.650355,1.957723 -11.611595,5.168635 -11.792132,5.319229 l -0.671068,0.553059 0.736237,0.464992 c 0.149714,0.09335 14.916739,9.684696 20.082732,36.183969 -0.0088,0.0018 -0.01585,0.0053 -0.02378,0.007 -0.605898,0.152355 -1.174809,0.370761 -1.693522,0.643768 -0.05284,0.02818 -0.103919,0.059 -0.155878,0.08983 -0.19815,0.110964 -0.385733,0.230735 -0.562747,0.35667 -0.05372,0.03787 -0.108322,0.07486 -0.160281,0.113606 -0.213122,0.164685 -0.416556,0.336415 -0.598854,0.523116 -0.944075,-0.375164 -2.031699,-0.622631 -3.170401,-0.744163 -0.497577,-0.05284 -1.00308,-0.08807 -1.515628,-0.08807 -2.329365,0 -4.545123,0.562746 -6.058109,1.521793 -1.601053,-1.289297 -4.043143,-2.04579 -6.659605,-2.04579 -0.418316,0 -0.825185,0.02466 -1.225888,0.05989 -0.06077,0.0044 -0.122413,0.01057 -0.182298,0.01761 -0.413914,0.04227 -0.81814,0.09863 -1.207395,0.177894 C 32.437326,31.908091 26.474329,20.173202 26.412682,20.056073 l -0.07486,-0.14531 -0.134742,-0.08983 c -0.152356,-0.102157 -3.84059,-2.490527 -12.88504,-2.490527 -1.566707,0 -3.218839,0.0731 -4.9282135,0.219287 C 10.341389,14.910335 16.541285,8.2093395 29.249311,8.2093395 Z M 51.495842,51.523189 c 0.03082,0.324966 0.306472,0.568911 0.626155,0.568911 0.01937,0 0.03963,-8.81e-4 0.05989,-0.0026 0.346102,-0.03258 0.599734,-0.339938 0.567149,-0.685159 -0.01321,-0.133862 -1.378244,-13.526166 -10.385706,-26.513364 -0.198151,-0.286216 -0.589167,-0.35755 -0.875384,-0.1594 -0.284455,0.19815 -0.355789,0.590047 -0.15852,0.875383 8.821643,12.721236 10.154973,25.785051 10.166421,25.916271 z M 35.821729,27.606032 c 5.439881,12.007015 6.021121,23.768324 6.026405,23.885453 0.01497,0.338176 0.294143,0.601495 0.627916,0.601495 0.0097,0 0.01849,0 0.02818,0 0.346983,-0.01673 0.615587,-0.309995 0.600615,-0.656097 -0.0053,-0.120651 -0.593569,-12.112695 -6.136488,-24.348683 -0.143549,-0.31704 -0.516952,-0.457066 -0.83223,-0.313518 -0.317921,0.141788 -0.458828,0.51519 -0.314399,0.83135 z M 32.041906,11.881721 c 0.616467,0.452663 1.30603,0.959047 2.291496,0.959047 0.113606,0 0.230735,-0.007 0.353148,-0.02026 0.998676,-0.118009 1.619546,-0.502861 2.118885,-0.811975 0.482605,-0.298546 0.826065,-0.516951 1.455742,-0.494935 1.339495,0.04491 2.760011,1.162481 2.774102,1.17393 0.271245,0.216644 0.666665,0.17173 0.883309,-0.09952 0.215763,-0.271245 0.17261,-0.666665 -0.09775,-0.883309 -0.07133,-0.05724 -1.756051,-1.389693 -3.517385,-1.449578 -1.000437,-0.02994 -1.619546,0.346983 -2.160276,0.683398 -0.455305,0.280933 -0.883309,0.546894 -1.604575,0.631438 -0.651694,0.07398 -1.089386,-0.217525 -1.751647,-0.701892 -0.627035,-0.458827 -1.335972,-0.9793014 -2.368995,-0.9793014 -1.021574,0 -1.722585,0.4359304 -2.341694,0.8190204 -0.579478,0.360193 -1.08322,0.674591 -1.833548,0.648171 -0.345222,-0.01585 -0.638484,0.263319 -0.647291,0.610302 -0.01057,0.348744 0.2642,0.638484 0.612064,0.647291 1.13606,0.02994 1.87494,-0.429766 2.532798,-0.837515 0.543372,-0.338176 1.01541,-0.629677 1.677671,-0.629677 0.61999,0 1.084982,0.340818 1.62395,0.735357 z m -18.875337,4.664013 c 0.697488,0 1.28049,-0.51519 1.898718,-1.059442 0.523997,-0.46147 1.117567,-0.985467 1.613382,-0.985467 0.478202,0 0.966973,0.246587 1.532361,0.531923 0.772345,0.389255 1.65037,0.83135 2.819896,0.83135 1.16248,0 2.146185,-0.499338 3.013643,-0.938791 0.643767,-0.326728 1.251427,-0.634081 1.757811,-0.634081 1.014529,0 2.533679,0.768823 3.033018,1.065608 0.300307,0.176133 0.685158,0.0775 0.862173,-0.220167 0.177894,-0.298546 0.08014,-0.683398 -0.217525,-0.861293 -0.08807,-0.05196 -2.107437,-1.24174 -3.677666,-1.24174 -0.807572,0 -1.545571,0.373403 -2.327603,0.768822 -0.777629,0.39542 -1.583439,0.803168 -2.443851,0.803168 -0.87098,0 -1.574633,-0.354028 -2.254508,-0.696607 -0.649932,-0.327608 -1.321881,-0.664904 -2.09863,-0.664904 -0.972256,0 -1.755169,0.689563 -2.444731,1.298984 -0.356671,0.314398 -0.845441,0.744164 -1.067369,0.744164 -0.347863,0 -0.628796,0.281813 -0.628796,0.630557 8.8e-4,0.346983 0.281813,0.627916 0.629677,0.627916 z"
     style="stroke-width:0.88066709" /></svg>