<?xml version="1.0" encoding="UTF-8" standalone="no"?>
<svg
   xmlns:dc="http://purl.org/dc/elements/1.1/"
   xmlns:cc="http://creativecommons.org/ns#"
   xmlns:rdf="http://www.w3.org/1999/02/22-rdf-syntax-ns#"
   xmlns:svg="http://www.w3.org/2000/svg"
   xmlns="http://www.w3.org/2000/svg"
   xmlns:sodipodi="http://sodipodi.sourceforge.net/DTD/sodipodi-0.dtd"
   xmlns:inkscape="http://www.inkscape.org/namespaces/inkscape"
   height="100px"
   width="100px"
   fill="#000000"
   version="1.2"
   x="0px"
   y="0px"
   viewBox="0 0 100 100"
   xml:space="preserve"
   id="svg4"
   sodipodi:docname="tarissement.svg"
   inkscape:version="0.92.4 (5da689c313, 2019-01-14)"><metadata
     id="metadata10"><rdf:RDF><cc:Work
         rdf:about=""><dc:format>image/svg+xml</dc:format><dc:type
           rdf:resource="http://purl.org/dc/dcmitype/StillImage" /><dc:title></dc:title></cc:Work></rdf:RDF></metadata><defs
     id="defs8" /><sodipodi:namedview
     pagecolor="#ffffff"
     bordercolor="#666666"
     borderopacity="1"
     objecttolerance="10"
     gridtolerance="10"
     guidetolerance="10"
     inkscape:pageopacity="0"
     inkscape:pageshadow="2"
     inkscape:window-width="1600"
     inkscape:window-height="836"
     id="namedview6"
     showgrid="false"
     inkscape:zoom="2.36"
     inkscape:cx="2.7542373"
     inkscape:cy="33.050847"
     inkscape:window-x="0"
     inkscape:window-y="27"
     inkscape:window-maximized="1"
     inkscape:current-layer="svg4" /><path
     d="M71.5,62.7c9.1-7.7,14.8-20,14.8-33.2c0-5.3-0.9-10.4-2.6-15.3c-0.2-0.5-0.6-0.8-1.2-0.8h-65c-0.5,0-1,0.3-1.2,0.8  c-1.7,4.9-2.6,10-2.6,15.3c0,13.1,5.5,25.5,14.8,33.3l-5.2,14.3c-1,2.7,0.4,5.7,3.1,6.7c1.3,0.5,2.7,0.4,4-0.2  c1.3-0.6,2.2-1.6,2.7-3l0.6-1.5v2.2c0,2.9,2.4,5.2,5.2,5.2s5.2-2.4,5.2-5.2V70.3c1.9,0.3,3.8,0.5,5.8,0.5c1.9,0,3.9-0.2,5.8-0.5  v11.1c0,2.9,2.4,5.2,5.2,5.2s5.2-2.4,5.2-5.2v-2.2l0.6,1.5c0.5,1.3,1.4,2.4,2.7,3c0.7,0.3,1.5,0.5,2.2,0.5c0.6,0,1.2-0.1,1.8-0.3  c2.7-1,4.1-4,3.1-6.7L71.5,62.7z"
     id="path2"
     style="fill:#870c1f;fill-opacity:1" /><g
     id="g827"
     transform="matrix(0.53333138,0,0,0.53333138,25.706311,16.327757)"><path
       id="path4"
       d="m 53.156488,31.468077 h -8.855467 a 1.8727864,1.8727864 0 0 0 -1.872786,1.872837 v 8.74197 a 1.8728167,1.8728167 0 0 0 1.872837,1.872777 h 8.855404 a 1.8728773,1.8728773 0 0 0 1.872819,-1.872838 v -8.741979 a 1.8727763,1.8727763 0 0 0 -1.872807,-1.872767 z"
       inkscape:connector-curvature="0"
       style="fill:#ffffff;stroke-width:1.01002395" /><path
       id="path6"
       d="M 48.729674,18.644147 A 19.067717,19.067717 0 1 0 67.796532,37.712793 19.090129,19.090129 0 0 0 48.729674,18.644147 Z m 0,36.859894 A 17.791319,17.791319 0 1 1 66.520991,37.712793 17.811691,17.811691 0 0 1 48.729674,55.504041 Z"
       inkscape:connector-curvature="0"
       style="fill:#ffffff;stroke-width:1.01002395" /></g></svg>