<?xml version="1.0" encoding="UTF-8" standalone="no"?>
<svg
   xmlns:dc="http://purl.org/dc/elements/1.1/"
   xmlns:cc="http://creativecommons.org/ns#"
   xmlns:rdf="http://www.w3.org/1999/02/22-rdf-syntax-ns#"
   xmlns:svg="http://www.w3.org/2000/svg"
   xmlns="http://www.w3.org/2000/svg"
   xmlns:sodipodi="http://sodipodi.sourceforge.net/DTD/sodipodi-0.dtd"
   xmlns:inkscape="http://www.inkscape.org/namespaces/inkscape"
   version="1.1"
   x="0px"
   y="0px"
   viewBox="0 0 170 170"
   enable-background="new 0 0 100 100"
   xml:space="preserve"
   id="svg8"
   sodipodi:docname="poumon.svg"
   width="170"
   height="170"
   inkscape:version="0.92.3 (2405546, 2018-03-11)"><metadata
     id="metadata14"><rdf:RDF><cc:Work
         rdf:about=""><dc:format>image/svg+xml</dc:format><dc:type
           rdf:resource="http://purl.org/dc/dcmitype/StillImage" /><dc:title></dc:title></cc:Work></rdf:RDF></metadata><defs
     id="defs12" /><sodipodi:namedview
     pagecolor="#ffffff"
     bordercolor="#666666"
     borderopacity="1"
     objecttolerance="10"
     gridtolerance="10"
     guidetolerance="10"
     inkscape:pageopacity="0"
     inkscape:pageshadow="2"
     inkscape:window-width="1600"
     inkscape:window-height="836"
     id="namedview10"
     showgrid="false"
     inkscape:zoom="2.36"
     inkscape:cx="3.3898305"
     inkscape:cy="50"
     inkscape:window-x="0"
     inkscape:window-y="27"
     inkscape:window-maximized="1"
     inkscape:current-layer="svg8" /><rect
     style="opacity:1;fill:#b3b3b3;fill-opacity:0.91166077;fill-rule:nonzero;stroke:none;stroke-width:7.5;stroke-linecap:round;stroke-miterlimit:4;stroke-dasharray:none;stroke-dashoffset:0;stroke-opacity:1"
     id="rect826"
     width="180.08475"
     height="181.77966"
     x="-6.3559322"
     y="-7.1186442" /><g
     id="g824"
     transform="matrix(1.3389868,0,0,1.3389868,17.340098,-74.875695)"><path
       style="fill:#0000ff"
       inkscape:connector-curvature="0"
       id="path2"
       d="m 43,123.775 c 0,-0.002 0,-0.003 0,-0.005 0,-0.048 -0.02,-0.094 -0.025,-0.141 -0.329,0.245 -0.652,0.456 -0.967,0.661 -0.629,0.348 -1.223,0.728 -1.781,1.129 -0.491,0.353 -6.544,12.965 -7.095,19.011 0.75,0.785 2.514,2.33 3.654,3.07 1.203,0.781 0.397,2.979 -1.37,1.851 -0.346,-0.221 -1.367,-1.078 -2.386,-1.945 -0.059,0.855 -0.078,1.618 -0.115,2.238 -0.097,1.615 -2.367,1.643 -2.342,-0.07 0.011,-0.739 0.152,-3.644 0.527,-7.207 -1.91,1.699 -4.359,3.914 -4.394,3.949 -0.223,0.199 -0.504,0.293 -0.785,0.293 -0.316,0 -0.633,-0.129 -0.867,-0.375 -0.434,-0.48 -0.398,-1.219 0.082,-1.664 0.211,-0.188 4.957,-4.5 6.398,-5.672 0.74,-2.686 2.047,-5.428 2.75,-7.713 -2.203,1.301 -6.394,2.475 -8.996,3.189 -0.012,0 -0.012,0.012 -0.012,0.012 -0.797,0.809 -1.641,3.07 -2.016,4.535 -0.129,0.527 -0.609,0.879 -1.137,0.879 -0.094,0 -0.187,-0.012 -0.293,-0.035 -0.621,-0.164 -0.996,-0.797 -0.844,-1.43 0.105,-0.422 0.48,-1.781 1.102,-3.152 -1.16,0.258 -1.934,0.398 -2.051,0.422 -0.07,0.012 -0.141,0.023 -0.211,0.023 -0.551,0 -1.043,-0.398 -1.148,-0.961 -0.117,-0.645 0.305,-1.254 0.938,-1.371 0.059,0 8.174,-1.428 13.441,-4.723 1.052,-0.658 5.437,-5.238 5.754,-5.859 -1.024,-0.379 -5.144,0.762 -5.473,0.809 l -4.922,3.129 c -0.334,0.224 -1.14,0.389 -1.617,-0.363 -0.345,-0.543 -0.188,-1.266 0.363,-1.617 l 3.082,-1.957 -4.711,-1.652 c -0.609,-0.211 -0.926,-0.879 -0.715,-1.5 0.211,-0.609 0.879,-0.926 1.488,-0.715 l 6.68,2.344 c 3.299,-0.577 6.787,-1.778 9.167,-3.3 -0.002,-0.013 -0.004,-0.027 -0.006,-0.04 -0.516,-4.268 0.044,-6.75 0.302,-9.293 0.263,-2.648 0.267,-2.682 0,0 0.45,-4.518 0.939,-8.757 0.266,-11.475 -0.377,-1.682 -1.743,-3.289 -3.42,-3.289 -6.062,0 -22.839,10.559 -29.699,35.612 -1.082,3.941 -1.695,8.356 -1.948,12.814 -0.443,7.452 0.133,15.032 1.213,20.762 0.047,0.211 0.157,0.45 0.696,0.743 0.838,0.464 2.163,0.647 3.809,0.674 -1.644,-0.027 -2.968,-0.26 -3.805,-0.723 -0.539,-0.293 -0.645,-0.614 -0.691,-0.825 -0.857,-4.549 -1.396,-10.232 -1.358,-16.091 -0.029,5.878 0.508,11.576 1.358,16.091 0.047,0.211 0.152,0.516 0.691,0.809 0.837,0.464 2.161,0.68 3.805,0.707 7.124,0.118 20.265,-3.308 25.902,-5.488 1.816,-0.953 3.046,-3.012 3.835,-5.813 1.97,-6.977 1.211,-18.576 -0.102,-29.295 -0.002,0 -10e-4,0.002 -10e-4,0.003 z" /><path
       style="fill:#0000ff"
       inkscape:connector-curvature="0"
       id="path4"
       d="M 91.49,129.408 C 84.225,102.9 65.913,92.646 60.863,93.9 c -3.703,0.926 -2.979,7.594 -2.276,14.66 0.246,2.543 0.77,5.268 0.217,9.597 2.355,1.395 5.191,2.238 7.031,2.684 1.16,0.293 1.934,0.41 1.957,0.41 0.398,0.051 1.15,0.438 0.973,1.336 -0.225,1.142 -1.392,0.966 -1.57,0.949 -0.328,-0.059 -4.004,-0.992 -5.484,-0.82 0.469,0.914 2.168,2.906 5.766,5.859 1.875,1.535 5.484,2.754 8.496,3.586 0.07,0.012 0.141,0.023 0.211,0.047 2.59,0.691 4.676,1.09 4.723,1.09 0.633,0.117 1.055,0.727 0.938,1.371 -0.094,0.562 -0.586,0.961 -1.148,0.961 -0.07,0 -0.141,-0.012 -0.211,-0.023 -0.106,-0.023 -0.891,-0.164 -2.039,-0.422 0.609,1.371 0.984,2.73 1.09,3.152 0.164,0.633 -0.216,1.295 -0.844,1.43 -0.632,0.136 -1.289,-0.316 -1.43,-0.844 -0.375,-1.465 -1.23,-3.75 -2.027,-4.547 -2.613,-0.727 -5.672,-1.746 -7.875,-3.059 0.715,2.285 1.242,4.969 1.617,7.57 1.406,1.137 6.199,5.496 6.422,5.684 1.368,1.092 -0.024,3.077 -1.582,1.746 -0.035,-0.035 -2.473,-2.25 -4.394,-3.961 0.375,3.562 0.481,6.481 0.527,7.207 0.103,1.594 -2.15,1.813 -2.344,0.094 -0.071,-0.629 -0.059,-1.383 -0.117,-2.25 -1.008,0.867 -2.062,1.699 -2.379,1.945 -0.211,0.164 -0.469,0.246 -0.727,0.246 -0.34,0 -0.691,-0.164 -0.926,-0.457 -0.398,-0.516 -0.305,-1.242 0.211,-1.641 1.078,-0.844 2.836,-2.285 3.586,-3.07 -0.539,-5.93 -1.734,-13.804 -3.973,-16.406 -0.012,0 -0.023,-0.012 -0.035,-0.023 -1.312,-1.219 -2.215,-2.215 -2.836,-3.035 -0.082,-0.023 -1.5,-0.633 -2.367,-0.984 -1.828,14.965 -2.555,31.593 3.75,34.898 6.949,2.684 25.253,7.254 29.706,4.781 0.539,-0.293 0.656,-0.598 0.691,-0.809 1.709,-9.082 2.182,-22.945 -0.701,-33.444 z" /><path
       style="fill:#0000ff"
       inkscape:connector-curvature="0"
       id="path6"
       d="m 54.127,107.183 c -0.184,-8.482 -0.551,-23.831 -0.543,-32.187 0,-0.334 -0.27,-0.595 -0.603,-0.595 h -5.435 c -0.338,0 -0.609,0.268 -0.603,0.606 0.129,7.196 -0.224,18.92 -0.42,26.774 -0.047,1.969 -0.094,3.882 -0.129,5.475 -0.129,5.578 -1.102,7.712 -2.039,8.802 -0.012,0.047 0.246,1.961 0.375,2.863 0,0 0.415,3.099 0.506,3.86 0,0 0,0 0.001,0 1.843,-0.635 3.744,-0.922 5.458,-0.922 1.207,0 3.187,0.574 5.086,1.254 0.105,-0.785 0.504,-3.797 0.504,-3.797 0.129,-0.902 0.246,-1.816 0.387,-2.719 -1.045,-0.947 -2.392,-2.84 -2.545,-9.414 z" /></g></svg>