<?xml version="1.0" encoding="UTF-8" standalone="no"?>
<svg
   xmlns:dc="http://purl.org/dc/elements/1.1/"
   xmlns:cc="http://creativecommons.org/ns#"
   xmlns:rdf="http://www.w3.org/1999/02/22-rdf-syntax-ns#"
   xmlns:svg="http://www.w3.org/2000/svg"
   xmlns="http://www.w3.org/2000/svg"
   xmlns:sodipodi="http://sodipodi.sourceforge.net/DTD/sodipodi-0.dtd"
   xmlns:inkscape="http://www.inkscape.org/namespaces/inkscape"
   version="1.1"
   viewBox="0 0 96 96"
   overflow="hidden"
   x="0px"
   y="0px"
   id="svg8"
   sodipodi:docname="porc.svg"
   inkscape:version="0.92.3 (2405546, 2018-03-11)">
  <metadata
     id="metadata14">
    <rdf:RDF>
      <cc:Work
         rdf:about="">
        <dc:format>image/svg+xml</dc:format>
        <dc:type
           rdf:resource="http://purl.org/dc/dcmitype/StillImage" />
        <dc:title></dc:title>
      </cc:Work>
    </rdf:RDF>
  </metadata>
  <defs
     id="defs12" />
  <sodipodi:namedview
     pagecolor="#ffffff"
     bordercolor="#666666"
     borderopacity="1"
     objecttolerance="10"
     gridtolerance="10"
     guidetolerance="10"
     inkscape:pageopacity="0"
     inkscape:pageshadow="2"
     inkscape:window-width="925"
     inkscape:window-height="480"
     id="namedview10"
     showgrid="false"
     inkscape:zoom="2.4583333"
     inkscape:cx="3.2542373"
     inkscape:cy="48"
     inkscape:window-x="0"
     inkscape:window-y="27"
     inkscape:window-maximized="0"
     inkscape:current-layer="svg8" />
  <g
     id="g6"
     style="fill:#ff5555">
    <path
       d="m 31,69.5 c 0,1.7 1.3,3 3,3 1.7,0 3,-1.3 3,-3 v -8 h -6 z"
       id="path2"
       inkscape:connector-curvature="0"
       style="fill:#ff5555" />
    <path
       d="M 80.4,56.5 H 87 c 0,-4.4 -3.6,-8 -8,-8 h -3.5 c -1.1,-4.2 -2.8,-8.1 -5,-11.8 -2.4,-5.1 -7.4,-8.6 -13,-9.1 -0.5,-0.1 -1,-0.1 -1.5,-0.1 -0.6,0 -1.2,0 -1.7,0.1 L 54,27.5 H 29 l -0.1,0.1 c -3.6,0.2 -7,1.7 -9.6,4.1 -0.4,0.1 -0.7,0.4 -0.9,0.7 -0.8,1.1 -2.4,1.5 -3.6,0.9 -1.3,-0.6 -2,-2 -1.7,-3.4 0.3,-1.4 1.5,-2.4 2.9,-2.4 1.1,0 2,-0.9 2,-2 0,-1.1 -0.9,-2 -2,-2 -3.7,0 -6.7,2.9 -7,6.6 -0.3,3.7 2.5,6.9 6.2,7.4 -3,7.4 -0.1,15.9 6.8,19.9 v 12.2 c 0,1.7 1.3,3 3,3 1.7,0 3,-1.3 3,-3 v -10 h 19 v 10 c 0,1.7 1.3,3 3,3 1.7,0 3,-1.3 3,-3 v -10 h 3 v 10 c 0,1.7 1.3,3 3,3 1.7,0 3,-1.3 3,-3 V 62 l 12.1,7.4 c 1.8,1.1 4,1.4 6.1,0.9 2.1,-0.5 3.8,-1.8 4.9,-3.6 L 86,65.2 82.9,63.3 Z"
       id="path4"
       inkscape:connector-curvature="0"
       style="fill:#ff5555" />
  </g>
</svg>
