<?xml version="1.0" encoding="UTF-8" standalone="no"?>
<svg
   xmlns:dc="http://purl.org/dc/elements/1.1/"
   xmlns:cc="http://creativecommons.org/ns#"
   xmlns:rdf="http://www.w3.org/1999/02/22-rdf-syntax-ns#"
   xmlns:svg="http://www.w3.org/2000/svg"
   xmlns="http://www.w3.org/2000/svg"
   xmlns:sodipodi="http://sodipodi.sourceforge.net/DTD/sodipodi-0.dtd"
   xmlns:inkscape="http://www.inkscape.org/namespaces/inkscape"
   fill="#DD342C"
   version="1.1"
   x="0px"
   y="0px"
   viewBox="0 0 100 100"
   style="enable-background:new 0 0 100 100;"
   xml:space="preserve"
   id="svg6"
   sodipodi:docname="delete.svg"
   inkscape:version="0.92.3 (2405546, 2018-03-11)"><metadata
     id="metadata12"><rdf:RDF><cc:Work
         rdf:about=""><dc:format>image/svg+xml</dc:format><dc:type
           rdf:resource="http://purl.org/dc/dcmitype/StillImage" /><dc:title>icons saved for noun</dc:title></cc:Work></rdf:RDF></metadata><defs
     id="defs10" /><sodipodi:namedview
     pagecolor="#ffffff"
     bordercolor="#666666"
     borderopacity="1"
     objecttolerance="10"
     gridtolerance="10"
     guidetolerance="10"
     inkscape:pageopacity="0"
     inkscape:pageshadow="2"
     inkscape:window-width="925"
     inkscape:window-height="480"
     id="namedview8"
     showgrid="false"
     inkscape:zoom="2.36"
     inkscape:cx="3.3898305"
     inkscape:cy="50"
     inkscape:window-x="0"
     inkscape:window-y="27"
     inkscape:window-maximized="0"
     inkscape:current-layer="svg6" /><title
     id="title2">icons saved for noun</title><path
     d="M72.7,97.5H37.4L30.8,39h48.4L72.7,97.5z M41.1,93.3h27.8l5.6-50.2h-39L41.1,93.3z M47.5,88.9c0.8-0.1,1.4-0.9,1.3-1.7  l-4.3-38.3c-0.2-0.8-1.1-1.3-1.9-1.1c-0.6,0.2-1.1,0.7-1.1,1.4l4.3,38.4c0.1,0.8,0.7,1.4,1.5,1.4L47.5,88.9L47.5,88.9z M64.3,87.6  l4.3-38.4c0.1-0.8-0.5-1.6-1.3-1.7c-0.8-0.1-1.6,0.5-1.7,1.3l-4.3,38.4c-0.1,0.8,0.5,1.6,1.3,1.7h0.2C63.5,88.9,64.2,88.3,64.3,87.6  L64.3,87.6z M56.4,87.4V49c0-0.8-0.6-1.4-1.4-1.4c-0.8,0-1.4,0.6-1.4,1.4v38.4c0,0.8,0.6,1.4,1.4,1.4C55.8,88.8,56.4,88.2,56.4,87.4  L56.4,87.4z M88.1,28.8l-3.7-3.7l1.7-1.6l0,0c2.2-2.2,2-6.1-0.4-8.5l-8-8.1c-1.2-1.3-2.9-2-4.7-2l0,0c-1.5,0-2.8,0.5-3.9,1.6  l-1.7,1.7l-3.7-3.7c-2.6-2.6-6.8-2.6-9.5,0l-3.7,3.7L84.4,42l3.7-3.7C90.7,35.7,90.7,31.5,88.1,28.8L88.1,28.8z M72.1,9.5  c0.2-0.2,0.6-0.3,0.9-0.3c0.6,0,1.2,0.3,1.6,0.7l8,8.1c0.7,0.6,0.9,1.6,0.4,2.4L81.4,22L70.5,11.1L72.1,9.5z M85.1,35.3l-0.8,0.8  L56.5,8.2l0.8-0.8c1-0.9,2.6-0.9,3.5,0l24.4,24.4C86.1,32.8,86.1,34.4,85.1,35.3L85.1,35.3z M55,32.7l-1-12.6l-3,2.6  c-4.5-4.2-10.5-6.6-16.7-6.8c-7.2-0.1-14.1,3-18.9,8.4c-4.7,5.3-6.7,12.3-5.7,19.3c1,6.7,4.9,12.7,10.6,16.3c1,0.7,2.2,0.7,2.4,0.2  s-0.3-1.4-1.2-2l0,0c-4.8-3.5-7.9-9-8.3-15c-0.4-5.7,1.7-11.4,5.7-15.4c4-3.9,9.4-5.9,15-5.4c4.3,0.4,8.4,2.3,11.5,5.4l-2.8,2.5  L55,32.7z"
     id="path4" /></svg>