<?xml version="1.0" encoding="UTF-8" standalone="no"?>
<svg
   xmlns:dc="http://purl.org/dc/elements/1.1/"
   xmlns:cc="http://creativecommons.org/ns#"
   xmlns:rdf="http://www.w3.org/1999/02/22-rdf-syntax-ns#"
   xmlns:svg="http://www.w3.org/2000/svg"
   xmlns="http://www.w3.org/2000/svg"
   xmlns:sodipodi="http://sodipodi.sourceforge.net/DTD/sodipodi-0.dtd"
   xmlns:inkscape="http://www.inkscape.org/namespaces/inkscape"
   fill="#EC5D57"
   version="1.1"
   x="0px"
   y="0px"
   viewBox="0 0 100 100"
   enable-background="new 0 0 100 100"
   xml:space="preserve"
   id="svg4"
   sodipodi:docname="important.svg"
   inkscape:version="0.92.3 (2405546, 2018-03-11)"><metadata
     id="metadata10"><rdf:RDF><cc:Work
         rdf:about=""><dc:format>image/svg+xml</dc:format><dc:type
           rdf:resource="http://purl.org/dc/dcmitype/StillImage" /><dc:title /></cc:Work></rdf:RDF></metadata><defs
     id="defs8" /><sodipodi:namedview
     pagecolor="#ffffff"
     bordercolor="#666666"
     borderopacity="1"
     objecttolerance="10"
     gridtolerance="10"
     guidetolerance="10"
     inkscape:pageopacity="0"
     inkscape:pageshadow="2"
     inkscape:window-width="1600"
     inkscape:window-height="836"
     id="namedview6"
     showgrid="false"
     inkscape:zoom="2.36"
     inkscape:cx="3.3898305"
     inkscape:cy="50"
     inkscape:window-x="0"
     inkscape:window-y="27"
     inkscape:window-maximized="1"
     inkscape:current-layer="svg4" /><path
     d="M6.5,50c0,0.6,0.3,1.1,0.7,1.4l10.3,7.3l-5.3,11.5c-0.2,0.5-0.2,1.1,0.1,1.6c0.3,0.5,0.8,0.8,1.4,0.9l12.6,1.1l1.1,12.6  c0.1,0.6,0.4,1.1,0.9,1.4c0.5,0.3,1.1,0.3,1.6,0.1l11.5-5.3l7.3,10.3c0.3,0.5,0.9,0.7,1.4,0.7c0.6,0,1.1-0.3,1.4-0.7l7.3-10.3  l11.5,5.3c0.5,0.2,1.1,0.2,1.6-0.1c0.5-0.3,0.8-0.8,0.9-1.4l1.1-12.6l12.6-1.1c0.6-0.1,1.1-0.4,1.4-0.9c0.3-0.5,0.3-1.1,0.1-1.6  l-5.3-11.5l10.3-7.3c0.5-0.3,0.7-0.9,0.7-1.4s-0.3-1.1-0.7-1.4l-10.3-7.3l5.3-11.5c0.2-0.5,0.2-1.1-0.1-1.6s-0.8-0.8-1.4-0.9  l-12.6-1.1l-1.1-12.6c-0.1-0.6-0.4-1.1-0.9-1.4c-0.5-0.3-1.1-0.3-1.6-0.1l-11.5,5.3L51.4,7.2c-0.7-0.9-2.2-0.9-2.8,0l-7.3,10.3  l-11.5-5.3c-0.5-0.2-1.1-0.2-1.6,0.1c-0.5,0.3-0.8,0.8-0.9,1.4l-1.1,12.6l-12.6,1.1c-0.6,0.1-1.1,0.4-1.4,0.9  c-0.3,0.5-0.3,1.1-0.1,1.6l5.3,11.5L7.2,48.6C6.7,48.9,6.5,49.4,6.5,50z M53.7,69.3c-1,1-2.3,1.6-3.7,1.6c-1.4,0-2.7-0.6-3.7-1.6  c-1-1-1.5-2.4-1.5-3.9c0-1.4,0.6-2.8,1.5-3.9c1.9-1.9,5.5-1.9,7.4,0c1,1,1.5,2.4,1.5,3.9C55.2,66.9,54.7,68.3,53.7,69.3z M44.8,34.6  c0-3,2.3-5.5,5.2-5.5c2.9,0,5.2,2.4,5.2,5.5v17c0,3-2.3,5.5-5.2,5.5c-2.9,0-5.2-2.4-5.2-5.5V34.6z"
     id="path2"
     style="fill:#aa0000" /></svg>