<?xml version="1.0" encoding="UTF-8" standalone="no"?>
<svg
   xmlns:dc="http://purl.org/dc/elements/1.1/"
   xmlns:cc="http://creativecommons.org/ns#"
   xmlns:rdf="http://www.w3.org/1999/02/22-rdf-syntax-ns#"
   xmlns:svg="http://www.w3.org/2000/svg"
   xmlns="http://www.w3.org/2000/svg"
   width="26.461782mm"
   height="26.461781mm"
   viewBox="0 0 26.461782 26.461781"
   version="1.1"
   id="svg1507">
  <defs
     id="defs1501" />
  <metadata
     id="metadata1504">
    <rdf:RDF>
      <cc:Work
         rdf:about="">
        <dc:format>image/svg+xml</dc:format>
        <dc:type
           rdf:resource="http://purl.org/dc/dcmitype/StillImage" />
        <dc:title></dc:title>
      </cc:Work>
    </rdf:RDF>
  </metadata>
  <g
     id="layer1"
     transform="matrix(-1,0,0,1,-7.9357752,-211.95363)">
    <path
       d="m -21.166665,238.41541 c 7.303451,0 13.2308898,-5.92745 13.2308898,-13.23089 0,-7.30346 -5.9274388,-13.23089 -13.2308898,-13.23089 -7.303452,0 -13.230893,5.92743 -13.230893,13.23089 0,7.30344 5.916855,13.23089 13.230893,13.23089 z m -3.143658,-14.52223 4.900719,-4.9113 c 0.211695,-0.2117 0.476313,-0.30696 0.751517,-0.30696 0.2752,0 0.539818,0.10585 0.751514,0.30696 0.412802,0.41279 0.412802,1.07964 0,1.49243 l -4.900722,4.9219 4.900722,4.9113 c 0.412802,0.41281 0.412802,1.07964 0,1.49245 -0.412806,0.41281 -1.079641,0.41281 -1.492446,0 l -6.403751,-6.40375 z"
       id="path2"
       style="fill:#9775aa;fill-opacity:1;stroke-width:0.10584714"
       class="fleche_gauche" />
  </g>
</svg>
