<?xml version="1.0" encoding="UTF-8" standalone="no"?>
<svg
   xmlns:dc="http://purl.org/dc/elements/1.1/"
   xmlns:cc="http://creativecommons.org/ns#"
   xmlns:rdf="http://www.w3.org/1999/02/22-rdf-syntax-ns#"
   xmlns:svg="http://www.w3.org/2000/svg"
   xmlns="http://www.w3.org/2000/svg"
   id="svg922"
   version="1.1"
   viewBox="0 0 255.95935 234.14621"
   height="234.14621mm"
   width="255.95935mm">
  <defs
     id="defs916" />
  <metadata
     id="metadata919">
    <rdf:RDF>
      <cc:Work
         rdf:about="">
        <dc:format>image/svg+xml</dc:format>
        <dc:type
           rdf:resource="http://purl.org/dc/dcmitype/StillImage" />
        <dc:title></dc:title>
      </cc:Work>
    </rdf:RDF>
  </metadata>
  <g
     transform="translate(254.0511,-14.37332)"
     id="layer1">
    <path
       id="path6532"
       d="m -86.576653,248.2924 c -7.82683,-0.59572 -16.161547,-3.0909 -25.784317,-7.71919 -9.75708,-4.69283 -16.87014,-9.5272 -28.47019,-19.34967 -3.50833,-2.97072 -17.1503,-17.54225 -21.39057,-22.84813 -1.82566,-2.28447 -4.49052,-5.57514 -5.92191,-7.31261 -1.4314,-1.73747 -2.94217,-3.84255 -3.35733,-4.67798 -0.41513,-0.83543 -1.07743,-1.72137 -1.47174,-1.96879 -0.64109,-0.40225 -9.14121,-13.38546 -12.97598,-19.81975 -4.85297,-8.14264 -13.18538,-28.41795 -16.6593,-40.53726 -1.75244,-6.11356 -6.2699,-17.77478 -10.02393,-25.875391 -3.12942,-6.75283 -4.83117,-9.93418 -12.93839,-24.18787 -2.02364,-3.55787 -6.67546,-12.73226 -10.33737,-20.38756 -8.10514,-16.9439 -11.07876,-22.7412 -13.92328,-27.144429 -2.98405,-4.619214 -4.752,-8.156358 -4.07676,-8.156358 0.30898,0 0.83714,0.632824 1.17368,1.406254 0.33654,0.773458 0.79851,1.406282 1.02663,1.406282 0.22811,0 0.55126,0.442982 0.71813,0.984393 0.16692,0.541397 0.98197,1.743756 1.81136,2.671901 0.8294,0.928145 1.66851,2.130507 1.86466,2.671927 0.19616,0.54142 0.60598,0.9844 0.91068,0.9844 0.30474,0 0.55404,0.44622 0.55404,0.99163 0,0.54536 0.54248,1.24147 1.20549,1.54689 0.66304,0.30539 1.28036,1.06153 1.37182,1.68027 0.13419,0.90775 0.0627,0.96523 -0.37051,0.29756 -0.87521,-1.349 -1.14551,-0.38082 -0.31482,1.12757 0.42025,0.76308 2.41001,4.80466 4.4217,8.98128 2.01169,4.17663 3.9358,8.10013 4.27579,8.7189 0.33997,0.61875 1.86701,3.78286 3.39344,7.03136 1.52641,3.24849 2.97464,6.16201 3.21831,6.47445 0.24366,0.31246 1.39351,2.46406 2.55521,4.7813 1.1617,2.31728 3.3558,6.32012 4.8758,8.89522 1.51999,2.5751 2.76362,4.82937 2.76362,5.00949 0,0.18018 0.60432,1.15718 1.34292,2.1712 0.73862,1.01406 1.34293,1.9984 1.34293,2.18749 0,0.18915 1.6921,4.00929 3.76021,8.48941 2.06814,4.480121 3.76022,8.281511 3.76022,8.447521 0,0.16603 0.57802,1.61505 1.28449,3.22016 2.13501,4.85068 3.96066,10.01645 5.16636,14.61853 0.62874,2.39988 1.81256,6.06479 2.63069,8.14428 0.81814,2.07949 2.04906,5.54962 2.73535,7.71142 1.16273,3.66259 3.15209,8.45563 4.32211,10.41342 0.27733,0.46407 2.06386,4.13443 3.97007,8.15637 3.42221,7.22058 4.89313,9.74195 10.82942,18.56281 7.00563,10.4098 10.48535,15.06326 16.06419,21.48276 12.24795,14.0936 17.02553,19.11697 22.29268,23.43949 2.51128,2.06093 5.36318,4.44044 6.33754,5.28782 3.38815,2.94662 16.51921,11.17424 20.7897,13.02633 13.765617,5.97009 19.858517,7.4581 30.350297,7.41206 8.48291,-0.0372 17.23475,-1.52048 21.75941,-3.68768 1.64031,-0.78572 3.21696,-1.42854 3.50365,-1.42854 0.2867,0 0.52125,-0.25313 0.52125,-0.56251 0,-0.30939 0.28644,-0.56252 0.63655,-0.56252 1.12416,0 7.97576,-3.95372 11.37622,-6.56465 4.38065,-3.3635 10.38973,-9.39289 12.65853,-12.70127 1.00778,-1.46954 2.00119,-2.6719 2.20757,-2.6719 0.20639,0 1.75827,-2.97426 3.44866,-6.6095 1.69036,-3.6352 3.38285,-7.24229 3.76106,-8.01573 1.94435,-3.97618 2.69776,-17.3035 1.3942,-24.66273 -0.59374,-3.35187 -1.07831,-4.81514 -3.19591,-9.65029 -2.20907,-5.04409 -7.69334,-12.71387 -8.64888,-12.09548 -0.22978,0.14866 -0.74735,-0.15508 -1.15015,-0.67514 -0.62959,-0.81291 -0.6193,-0.87937 0.0735,-0.47379 1.14497,0.67034 0.18119,-0.25665 -2.54168,-2.44483 -1.25021,-1.00466 -4.15094,-2.80034 -6.44609,-3.99039 -7.3906,-3.83204 -12.71848,-5.35732 -24.58556,-7.03837 -3.54535,-0.50221 -8.74249,-1.33977 -11.54923,-1.86122 -2.8479,-0.5291 -7.8807,-0.94908 -11.38814,-0.9503 -6.61443,-0.001 -7.94851,-0.85211 -2.04028,-1.29962 5.05973,-0.38326 28.60534,2.90558 38.13839,5.32715 8.07814,2.05197 17.52781,7.02228 22.11462,11.63173 3.22414,3.24006 6.70966,8.27098 9.45305,13.64423 1.94917,3.81767 3.88484,13.32893 3.88102,19.07007 -0.005,8.305 -1.99423,17.44244 -4.95825,22.7816 -0.60115,1.08281 -1.70233,3.10784 -2.44712,4.50006 -1.29814,2.42659 -5.55797,8.11393 -9.33558,12.46394 -3.14416,3.62061 -11.11153,9.47144 -17.55491,12.89147 -11.41345,6.05805 -21.41556,8.16124 -34.18897,7.18905 z m -4.46728,-2.77282 c -4.20128,-0.57103 -6.75501,-2.02861 -6.97568,-3.98143 -0.14027,-1.24152 -0.55868,-1.52935 -3.082877,-2.12088 -1.60633,-0.37642 -3.13575,-1.08704 -3.39873,-1.57916 -0.41283,-0.77245 -0.5677,-0.71957 -1.13317,0.38684 -0.56582,1.10716 -0.95457,1.23952 -2.85598,0.97246 -2.70795,-0.38033 -11.40545,-4.9213 -13.7849,-7.19713 -1.38836,-1.32785 -1.70281,-2.01283 -1.52068,-3.31236 0.21054,-1.502 0.01,-1.73751 -2.41602,-2.83015 -2.56184,-1.15407 -5.37774,-3.61465 -5.88739,-5.14454 -0.19064,-0.57234 -0.51254,-0.5013 -1.37984,0.30459 -2.01872,1.87572 -4.12088,0.55789 -12.05222,-7.55536 -3.24851,-3.32303 -3.88278,-5.24034 -2.28654,-6.91185 0.71154,-0.74508 0.60916,-0.88446 -0.90534,-1.23281 -1.02416,-0.23554 -2.85014,-1.58918 -4.56241,-3.38224 -2.29157,-2.39963 -2.85651,-3.35749 -2.8631,-4.85435 -0.003,-1.02564 -0.18578,-1.61173 -0.40289,-1.30234 -1.09779,1.56471 -2.16479,1.99707 -3.42328,1.38717 -1.13944,-0.55216 -2.43272,-2.19126 -7.66559,-9.71536 -1.02261,-1.47038 -1.57927,-2.97617 -1.61151,-4.35923 -0.0327,-1.4088 -0.50094,-2.64611 -1.4046,-3.71288 -2.00379,-2.36547 -3.74781,-5.51855 -3.74781,-6.77582 0,-1.54168 -0.50732,-1.91183 -1.70244,-1.24205 -1.63899,0.91853 -2.85427,0.13496 -5.11914,-3.30085 -3.36523,-5.10498 -4.69516,-8.45581 -4.68224,-11.7972 0.005,-1.62424 -0.1277,-2.95317 -0.29773,-2.95317 -0.98881,0 -3.99685,-8.86928 -3.48329,-10.27068 0.26987,-0.73649 -0.0208,-0.83527 -1.74478,-0.59311 -2.3993,0.33699 -2.66,-0.0206 -4.38497,-6.01146 -0.57898,-2.01099 -1.55199,-4.79542 -2.16227,-6.18762 -1.33611,-3.04819 -1.44082,-5.38885 -0.27172,-6.07396 0.6757,-0.39598 0.73542,-0.7355 0.27707,-1.57486 -1.27559,-2.33598 -3.67984,-8.48661 -4.00369,-10.24242 -0.23718,-1.28589 -0.0615,-2.32732 0.56855,-3.37505 0.90575,-1.5056 0.90459,-1.50901 -0.18406,-0.53089 -2.42241,2.1766 -3.3422,1.28449 -7.13247,-6.91797 -2.84681,-6.160761 -3.20378,-7.694981 -2.0704,-8.898271 0.53782,-0.57098 0.49924,-0.84625 -0.19375,-1.38288 -1.39214,-1.07799 -3.89567,-6.65558 -3.19187,-7.11109 0.65297,-0.42256 0.20584,-2.26834 -0.54947,-2.26834 -0.25458,0 -0.32267,0.38257 -0.15132,0.85014 0.67034,1.82926 -1.22493,0.12417 -3.37317,-3.03469 -2.62359,-3.85781 -3.57194,-7.04584 -1.99454,-6.70497 0.677,0.1463 0.9666,0.66105 0.90878,1.61526 -0.0673,1.11075 0.16065,1.3893 1.10147,1.34616 0.65249,-0.0299 1.47352,-0.24024 1.82454,-0.4674 0.42433,-0.27465 0.53098,-0.12055 0.31828,0.45996 -0.18083,0.49351 -0.0363,0.87297 0.33222,0.87297 0.35867,0 0.51595,0.37159 0.3495,0.82574 -0.16634,0.45417 -0.0714,0.97534 0.21113,1.1582 0.28253,0.18278 0.51369,-0.1738 0.51369,-0.79254 0,-2.62517 2.46213,-1.6223 3.73461,1.52117 0.33533,0.82844 1.57491,2.1325 2.75458,2.89797 1.38826,0.90077 2.83765,2.63184 4.10882,4.90735 1.08015,1.9336 2.05509,3.42018 2.16651,3.30349 0.69474,-0.72752 -8.52507,-15.50182 -10.48964,-16.80912 -0.37726,-0.25105 -0.55769,-0.67376 -0.40094,-0.93934 0.15684,-0.26562 -0.32161,-0.98259 -1.06304,-1.5933 -0.74143,-0.6107 -1.34806,-1.5186 -1.34806,-2.01754 0,-0.49891 -0.60433,-1.45739 -1.34292,-2.1299 -0.73861,-0.67249 -1.34294,-1.54786 -1.34294,-1.94526 0,-0.39739 -0.5022,-1.00398 -1.11601,-1.34797 -0.62656,-0.35114 -0.98973,-0.97005 -0.82808,-1.41119 0.15837,-0.43215 -0.005,-0.98229 -0.36652,-1.22249 -0.35997,-0.24025 -1.13556,-1.40696 -1.72351,-2.59276 -1.29744,-2.61665 -1.87477,-3.08166 -1.87477,-1.50998 0,0.64995 0.46081,1.69969 1.02407,2.33278 0.56321,0.63306 1.14491,1.635 1.29263,2.22651 0.2169,0.86859 -0.0191,1.07546 -1.22557,1.07546 -1.15024,0 -1.68629,-0.4155 -2.32913,-1.80539 -0.45924,-0.99296 -0.70776,-2.02099 -0.5522,-2.28449 0.70752,-1.19883 0.67763,-3.74359 -0.0659,-5.60698 -1.12571,-2.82129 -1.89349,-3.15424 -1.33923,-0.58075 0.24754,1.14931 0.34256,2.20222 0.21117,2.33982 -0.13138,0.13759 -0.23892,-0.045 -0.23892,-0.40608 0,-0.36096 -0.30215,-0.59298 -0.67146,-0.51565 -0.36929,0.0773 -0.60535,-0.19374 -0.52453,-0.60226 0.081,-0.40857 -0.32851,-1.16794 -0.90962,-1.68749 -0.58113,-0.51958 -1.13071,-1.42964 -1.22128,-2.02235 -0.0905,-0.59272 -0.70861,-1.657 -1.37336,-2.3651 -0.66476,-0.70806 -1.20864,-1.67861 -1.20864,-2.15675 0,-0.47812 -0.20374,-0.86932 -0.45272,-0.86932 -0.249,0 -1.01219,-1.13908 -1.69599,-2.53129 -0.68376,-1.39221 -1.4231,-2.53129 -1.6429,-2.53129 -0.61354,0 -2.7607,-4.05648 -2.91277,-5.50288 -0.0743,-0.70623 -0.32674,-1.46561 -0.5611,-1.68753 -0.23437,-0.2219 -0.27906,0.0267 -0.0994,0.55229 0.23225,0.67919 0.10167,0.86524 -0.4516,0.64295 -0.42812,-0.172 -0.77839,-0.742 -0.77839,-1.26662 0,-0.5246 -0.91465,-1.95303 -2.03254,-3.17423 -1.11792,-1.22122 -2.72202,-3.296215 -3.56469,-4.611094 -0.84267,-1.314859 -1.86186,-2.390651 -2.26482,-2.390651 -0.40301,0 -0.73271,-0.279883 -0.73271,-0.621943 0,-0.536527 -0.71728,-1.6107 -3.23114,-4.83878 -0.29099,-0.373663 -0.52908,-0.943201 -0.52908,-1.265648 0,-0.966579 0.97913,-0.661504 1.30266,0.4059 0.16539,0.545688 0.87507,1.368355 1.5771,1.828154 0.70201,0.459799 2.56844,2.481339 4.14762,4.492317 1.57916,2.010965 3.75718,4.668823 4.84004,5.906335 8.07259,9.22552 14.48153,18.52751 35.07433,50.90706 5.19485,8.16816 8.83802,15.33041 12.01731,23.625351 0.88935,2.32034 2.22524,5.61102 2.96862,7.3126 0.74337,1.70159 1.72231,4.35945 2.17539,5.90634 0.45308,1.54689 1.83362,5.47039 3.06783,8.71888 1.23424,3.24849 2.78369,7.42511 3.4432,9.28142 3.01415,8.48357 12.41401,26.14566 18.45151,34.66998 4.88558,6.89789 15.94445,20.28012 24.27794,29.37845 11.7623,12.84182 27.44773,24.21711 40.288,29.21743 6.846747,2.66629 12.968697,3.81614 20.412577,3.83404 5.23688,0.0129 6.86835,-0.21457 10.71454,-1.49176 2.49538,-0.82865 5.03353,-1.83326 5.64034,-2.23248 0.60679,-0.39921 1.70758,-0.90834 2.44619,-1.13137 1.80114,-0.54385 7.10853,-3.90747 10.74348,-6.80878 6.33238,-5.05433 13.42261,-15.14802 15.318,-21.80676 1.56735,-5.50626 1.57663,-9.17397 0.0385,-15.26265 -2.22603,-8.81219 -4.3911,-13.06852 -8.44848,-16.60874 -3.64123,-3.17713 -8.34976,-5.7014 -12.61784,-6.76455 -4.86915,-1.2129 -11.44954,-3.3924 -11.74286,-3.88934 -0.67617,-1.14567 0.92337,-0.90691 7.78345,1.16179 3.9885,1.20276 8.89915,2.60858 10.91257,3.12401 2.03389,0.5207 3.38103,1.11817 3.03138,1.34447 -0.48079,0.31118 -0.48058,0.50354 10e-4,0.81519 0.34665,0.22434 0.76078,0.27122 0.92029,0.10417 0.15949,-0.16701 0.78437,0.17859 1.38856,0.76798 0.60416,0.58944 1.30362,0.93895 1.55433,0.77672 0.25069,-0.16225 0.45582,0.12673 0.45582,0.64212 0,0.58058 0.29163,0.81996 0.76649,0.62915 0.42155,-0.16941 1.05547,0.0567 1.40869,0.50233 0.35324,0.44568 0.9895,0.81032 1.41393,0.81032 0.42442,0 0.62258,0.25263 0.44036,0.5614 -0.18216,0.30879 0.50042,1.38459 1.51703,2.39065 1.32667,1.31298 1.943,2.4995 2.18362,4.20384 0.29691,2.10287 0.22724,2.33332 -0.60867,2.01404 -0.88803,-0.33918 -0.8869,-0.29236 0.0191,0.79009 0.52964,0.63284 1.09688,2.13125 1.26046,3.32981 0.16369,1.19853 0.7545,3.24526 1.31306,4.5483 1.1816,2.75632 1.39924,8.07667 0.50139,12.25608 -0.33231,1.54689 -0.82018,4.02717 -1.08417,5.51168 -0.53316,2.99829 -2.92847,6.41486 -8.17269,11.65722 -1.70912,1.7084 -3.10739,3.50208 -3.10739,3.98593 0,0.90468 -3.99598,5.00184 -4.87834,5.00184 -0.27136,0 -0.49339,0.21034 -0.49339,0.46746 0,0.55241 -1.23479,1.18832 -5.77461,2.97388 -1.84655,0.72628 -3.35735,1.51473 -3.35735,1.75212 0,0.23737 -0.38647,0.43162 -0.85886,0.43162 -1.61184,0 -4.51287,1.80029 -4.51287,2.80057 0,0.75597 -0.9003,1.21403 -3.87348,1.97073 -2.13041,0.54223 -3.94316,0.76629 -4.02833,0.49795 -0.21421,-0.67495 -10.18731,-0.327 -12.59655,0.43946 -2.42562,0.77168 -8.60003,-0.2792 -10.70275,-1.82159 -0.87145,-0.63924 -1.85227,-0.891 -2.63557,-0.67649 -0.79683,0.21822 -1.12264,0.12998 -0.90182,-0.2442 0.46098,-0.78104 -2.593557,-2.0703 -3.777637,-1.59451 -0.51334,0.20628 -0.76315,0.19695 -0.55517,-0.0209 0.20797,-0.21779 -0.0411,-0.72936 -0.55354,-1.13684 -1.07844,-0.85753 -1.93889,-1.01048 -1.49986,-0.2666 0.16559,0.28053 -0.20318,0.37197 -0.81946,0.20321 -0.69891,-0.19134 -0.8927,-0.45425 -0.51508,-0.69865 0.34218,-0.22143 -1.37625,-1.4106 -3.95175,-2.73465 -2.50647,-1.28854 -4.70655,-2.59587 -4.8891,-2.90519 -0.18254,-0.30933 -0.80113,-0.5624 -1.37456,-0.5624 -0.57348,0 -1.04431,-0.18974 -1.04633,-0.42185 -0.001,-0.23205 -0.90849,-1.05236 -2.01439,-1.82296 -1.1059,-0.77059 -2.1863,-1.68662 -2.40089,-2.03565 -0.21459,-0.34902 -1.12723,-0.95429 -2.02813,-1.34505 -0.9009,-0.39075 -2.78002,-1.81496 -4.17582,-3.16485 -1.39582,-1.34991 -2.84001,-2.33699 -3.2093,-2.19349 -0.36931,0.1435 -0.67147,-0.0803 -0.67147,-0.49737 0,-0.814 -6.94228,-7.64406 -7.76962,-7.64406 -0.32568,0 0.0879,3.20934 0.50465,3.91531 0.19862,0.33654 -0.005,0.434 -0.49616,0.23689 -1.19918,-0.48189 -1.02988,0.76082 0.19737,1.44861 0.74978,0.42018 1.10452,0.3872 1.3005,-0.12081 0.15895,-0.41204 0.28692,-0.29481 0.31194,0.28574 0.0232,0.54141 0.24787,0.98439 0.49897,0.98439 0.25112,0 1.49303,0.7862 2.75981,1.74712 1.58777,1.20444 2.09556,1.88149 1.63474,2.17973 -0.43975,0.28459 -0.47773,0.55601 -0.11107,0.79334 0.30658,0.19831 0.72136,0.0829 0.92175,-0.25652 0.5462,-0.92549 2.60046,-0.18157 5.96201,2.15893 1.65591,1.15296 3.66538,2.47598 4.4655,2.94005 2.50744,1.45428 4.27941,3.18102 4.83519,4.71182 0.2947,0.81167 0.84397,1.49184 1.22059,1.51143 0.3766,0.02 0.0805,0.30384 -0.65819,0.63163 -1.23867,0.54974 -1.0573,0.67145 2.3361,1.56804 2.02346,0.53465 3.83644,1.201 4.02881,1.48077 0.50022,0.72756 3.94103,1.90898 5.55974,1.90898 0.75541,0 2.22702,0.37347 3.27023,0.8299 1.04323,0.45644 3.066987,1.10328 4.497287,1.43746 3.66829,0.85698 5.18483,2.00394 4.87727,3.68869 -0.21664,1.18668 -0.0384,1.36682 1.42366,1.43834 2.2634,0.11091 5.37438,-0.1351 5.68458,-0.44922 0.13914,-0.14092 -0.0661,-0.46272 -0.45602,-0.71508 -1.12617,-0.72887 2.70852,-1.29974 9.73781,-1.44971 5.76423,-0.12287 7.25294,0.16923 5.76585,1.13166 -0.30027,0.19431 -0.42058,0.56571 -0.26738,0.82529 0.15323,0.25959 1.1845,0.0181 2.29176,-0.53534 1.10725,-0.55404 2.79879,-1.1837 3.759,-1.3993 0.96019,-0.21559 1.74581,-0.64207 1.74581,-0.94773 0,-0.31064 -0.50344,-0.38839 -1.14162,-0.17639 -0.76824,0.25533 -1.02138,0.17579 -0.77406,-0.24334 0.20216,-0.34251 0.7103,-0.62277 1.12923,-0.62277 0.41893,0 1.1381,-0.60157 1.59816,-1.33685 0.46006,-0.73525 1.91599,-2.05137 3.23544,-2.92472 1.3194,-0.87333 2.39894,-1.76953 2.39894,-1.9916 0,-0.39749 4.68352,-1.62195 6.20391,-1.62195 0.42865,0 0.77932,0.37969 0.77932,0.84376 0,1.20228 0.49831,1.04724 1.67691,-0.52179 0.56418,-0.75105 1.92849,-1.67032 3.03175,-2.04281 1.10332,-0.3725 2.4491,-0.91722 2.99063,-1.21052 0.9364,-0.5071 0.93891,-0.58613 0.051,-1.61347 -1.09986,-1.27265 -1.84141,-1.39213 -1.84141,-0.2967 0,0.65376 -1.06628,1.46645 -1.92405,1.46645 -0.66541,0 -0.0539,-1.28791 1.11829,-2.35518 0.73861,-0.6725 1.34292,-1.52265 1.34292,-1.88921 0,-1.1529 2.26031,-3.73448 3.9847,-4.55103 0.9106,-0.43119 2.01821,-1.01506 2.46139,-1.29751 0.44317,-0.28245 1.2324,-0.65189 1.75388,-0.82096 0.52145,-0.16901 1.21501,-1.01002 1.54125,-1.86874 0.36908,-0.97156 0.69324,-1.27713 0.85813,-0.80896 0.1458,0.41379 -0.003,1.03396 -0.33263,1.37813 -0.32867,0.34419 -0.59761,1.01964 -0.59761,1.50098 0,0.49261 -1.11533,1.42472 -2.55155,2.13238 -2.73088,1.34554 -4.14919,2.98683 -4.75105,5.49796 -0.37413,1.56097 -0.36936,1.56406 1.91729,1.24287 2.92197,-0.41039 3.49918,-1.05049 3.43024,-3.80393 -0.0522,-2.08124 0.0453,-2.2319 1.44202,-2.2319 0.82382,0 1.61981,-0.31642 1.76882,-0.70313 0.21398,-0.55531 0.27986,-0.55306 0.31336,0.0103 0.0281,0.47331 0.48858,0.59659 1.36658,0.36581 1.2336,-0.32419 1.309,-0.2222 1.10202,1.49043 -0.12214,1.0111 -0.49231,2.52126 -0.82246,3.35587 -0.66429,1.67939 -2.78519,3.13765 -3.70122,2.54481 -0.33583,-0.21733 -0.58837,0.0181 -0.58837,0.54998 0,1.22975 -2.04181,4.19821 -2.88767,4.19821 -0.36618,0 -1.09795,1.02571 -1.62616,2.27937 -1.01802,2.41622 -4.86579,5.99271 -7.83095,7.27885 -1.36575,0.59239 -1.96747,0.61148 -2.76827,0.0878 -0.84386,-0.55185 -1.22742,-0.4699 -2.18832,0.46754 -0.64081,0.62518 -1.30082,1.15546 -1.4667,1.17846 -2.98756,0.41405 -4.54652,1.36961 -4.12247,2.52678 0.55499,1.51451 -3.69321,4.11193 -9.11677,5.57414 -3.94991,1.06493 -6.66917,0.865 -6.66917,-0.49029 0,-0.58597 -0.8427,-0.72104 -3.6194,-0.58018 -2.97975,0.15109 -3.7026,0.37879 -4.09009,1.28817 -0.77782,1.82536 -3.77539,2.14191 -10.99288,1.1609 z m 9.57042,-2.33234 c 0,-0.71319 -0.74864,-1.91872 -1.74581,-2.81122 -1.80762,-1.61791 -3.72647,-2.09166 -3.49162,-0.8621 0.0739,0.38673 -0.34917,0.70315 -0.94007,0.70315 -0.59089,0 -1.01389,-0.31642 -0.94004,-0.70315 0.0739,-0.38671 -0.10734,-0.70313 -0.40288,-0.70313 -0.29546,0 -0.54089,0.31642 -0.54541,0.70313 -0.005,0.53041 -0.10778,0.53938 -0.41302,0.0363 -0.49929,-0.82218 -4.65399,-0.5726 -5.70737,0.34287 -2.46349,2.14094 2.60975,4.41738 10.02313,4.49753 3.95526,0.043 4.16309,-0.018 4.16309,-1.20364 z m 15.44054,-0.67503 c 3.62845,-1.01149 7.6629,-3.06049 8.03716,-4.08181 0.95859,-2.61583 -4.6951,-2.83394 -9.92006,-0.38273 -2.01623,0.94589 -3.6124,3.17697 -3.15869,4.41508 0.38365,1.04691 1.42688,1.05713 5.04159,0.0494 z m -5.94547,-2.92396 c 1.00807,-1.11932 1.74166,-2.32167 1.63016,-2.67192 -0.27413,-0.86124 -12.83634,-0.8865 -13.11013,-0.0263 -0.2343,0.73603 2.36433,3.56201 3.86501,4.20307 0.59089,0.25244 2.13359,0.47503 3.4282,0.49464 2.03025,0.0307 2.60583,-0.24413 4.18676,-1.99945 z m -22.92441,-2.09007 c 0.75423,-0.37444 1.42209,-1.25032 1.52348,-1.99803 0.16217,-1.19632 0.0133,-1.30549 -1.47722,-1.07656 -0.91178,0.14012 -1.65776,0.0854 -1.65776,-0.12107 0,-0.51513 -4.326907,-1.83574 -4.707817,-1.43688 -0.16825,0.1762 -0.0238,0.32025 0.32089,0.32025 0.34469,0 0.6267,0.23546 0.6267,0.52324 0,0.32118 -0.66367,0.32393 -1.71835,0.008 -1.23717,-0.37157 -1.83655,-0.3212 -2.14046,0.17996 -0.6734,1.11028 -0.53978,1.40262 1.30723,2.86007 2.71955,2.14593 4.718467,2.33317 7.923307,0.74211 z m -11.377557,-1.35931 c 0.0945,-0.6961 -0.0868,-1.26563 -0.40288,-1.26563 -0.31601,0 -0.57454,-0.44474 -0.57454,-0.9883 0,-2.3625 -6.16497,-6.25301 -9.9377,-6.27134 -0.88634,-0.003 -2.20518,-0.0159 -2.93073,-0.0272 -2.07384,-0.0303 -2.53125,0.88089 -1.32749,2.64454 1.30798,1.91628 11.75385,7.50828 13.65875,7.31195 0.93255,-0.0961 1.3954,-0.52523 1.51459,-1.40407 z m 54.153327,-2.54767 c 1.07504,-0.59297 1.79026,-1.49329 1.98189,-2.49482 0.16482,-0.86183 0.4629,-2.25994 0.66229,-3.10689 0.5773,-2.45253 -0.78436,-2.40573 -5.17709,0.178 -4.58011,2.6939 -5.86375,3.75393 -5.86375,4.84229 0,1.91082 5.31894,2.27915 8.39666,0.58144 z m 6.81215,-1.45608 c 2.2666,-1.56496 6.2781,-5.70641 6.2781,-6.48149 0,-1.04461 -1.16674,-2.03152 -2.3904,-2.02194 -0.9078,0.008 -0.9597,0.10429 -0.29547,0.55388 0.71624,0.48469 0.71624,0.55365 0,0.62052 -0.44315,0.0415 -0.99376,0.043 -1.22357,0.003 -0.22981,-0.0394 -0.55784,0.31022 -0.72895,0.77714 -0.17112,0.46697 -0.62636,0.84899 -1.01166,0.84899 -0.85722,0 -3.2736,2.92669 -3.77084,4.56728 -0.22827,0.75308 -0.0923,1.37796 0.36575,1.68192 0.98666,0.65466 1.05121,0.64189 2.77704,-0.54969 z m -73.263257,-7.87186 c 0.67729,-1.32517 -0.13494,-2.46206 -2.51185,-3.51588 -0.96019,-0.4257 -1.74581,-1.08708 -1.74581,-1.46974 0,-0.38263 -0.66475,-0.86035 -1.47724,-1.06154 -0.81247,-0.20117 -1.99561,-0.85786 -2.62918,-1.45926 -0.75086,-0.71275 -1.27626,-0.88292 -1.50894,-0.4887 -0.45003,0.76251 -1.90508,0.79483 -1.90508,0.0421 0,-0.30939 0.3626,-0.56253 0.80576,-0.56253 0.44317,0 0.80577,-0.22148 0.80577,-0.49218 0,-0.79525 -2.60917,-0.56363 -3.28713,0.29181 -0.47868,0.60397 -0.4281,1.00761 0.22025,1.75784 0.46289,0.53562 0.82339,1.1004 0.8011,1.2551 -0.1536,1.06588 0.9034,2.75722 2.14039,3.42471 0.80758,0.43575 1.59471,0.96773 1.74918,1.18212 1.52274,2.11373 7.62269,2.89627 8.54278,1.09594 z m 82.023097,-2.01952 c 0.16463,-0.44928 0.14923,-1.07105 -0.0341,-1.38172 -0.51904,-0.87946 -1.91051,-0.0539 -1.91051,1.13369 0,1.24761 1.50779,1.4399 1.94456,0.24803 z M -133.818,218.91728 c 0.39995,-1.66873 -0.55707,-5.33654 -1.785,-6.84107 -1.50694,-1.8464 -4.57109,-3.56551 -7.54587,-4.23358 -2.3796,-0.53442 -2.9007,-0.49197 -3.65467,0.29757 -0.81435,0.85275 -0.70981,1.07439 1.41429,2.99862 1.2615,1.14282 3.26357,3.09034 4.44901,4.32786 2.52996,2.6411 5.20932,4.71482 6.14203,4.75373 0.36368,0.0159 0.80477,-0.57123 0.98021,-1.30313 z m 103.375957,-2.29937 c 0,-1.21372 -0.60169,-2.5575 -1.14511,-2.5575 -0.69863,0 -1.57075,2.63873 -1.2034,3.64111 0.37981,1.03648 2.34851,0.12817 2.34851,-1.08361 z M -141.96736,203.80243 c 0.46299,-0.77403 0.33499,-1.23742 -0.61707,-2.23441 -0.66065,-0.6918 -1.20118,-0.94843 -1.20118,-0.57031 0,0.37814 -0.39219,0.68752 -0.87152,0.68752 -0.72172,0 -0.75418,-0.14809 -0.18884,-0.86137 0.56447,-0.71218 0.5061,-1.00128 -0.33712,-1.66964 -1.46197,-1.15879 -1.70564,-1.04046 -1.44718,0.70287 0.22014,1.4848 0.19559,1.50305 -0.61167,0.45497 -0.46256,-0.60055 -0.841,-1.38045 -0.841,-1.73309 0,-0.35265 -0.66475,-0.99998 -1.47722,-1.4385 -0.81248,-0.43852 -1.63258,-1.0218 -1.82246,-1.2962 -0.18976,-0.27439 -0.97549,-0.33326 -1.74582,-0.13081 -1.84971,0.48616 -1.79656,1.8555 0.18311,4.71731 1.20453,1.74122 1.8476,2.21711 2.68586,1.98756 0.75754,-0.20743 1.10214,-0.0321 1.10214,0.56069 0,1.96474 6.09015,2.66221 7.18999,0.82343 z m -9.33867,-4.36724 c 0,-0.30939 0.24173,-0.56251 0.53717,-0.56251 0.29542,0 0.53718,0.25312 0.53718,0.56251 0,0.30937 -0.24176,0.5625 -0.53718,0.5625 -0.29544,0 -0.53717,-0.25313 -0.53717,-0.5625 z m 11.28062,0.74732 c 0,-0.84741 -4.93046,-5.25172 -5.48056,-4.89569 -0.37368,0.24183 -0.44144,0.12558 -0.18254,-0.31311 0.26041,-0.44123 -0.38345,-1.49789 -1.7517,-2.87464 -1.18993,-1.19732 -2.84868,-3.13126 -3.68613,-4.29765 -2.10293,-2.92896 -6.90687,-7.73787 -7.92988,-7.93809 -0.46454,-0.0909 -0.8446,0.20483 -0.8446,0.65715 0,0.45233 -0.1273,1.1697 -0.28282,1.59418 -0.1555,0.42446 0.47235,1.64754 1.39532,2.71792 0.92294,1.07039 1.92094,2.57899 2.21778,3.35241 0.47772,1.24489 0.60633,1.2996 1.12059,0.4766 0.52442,-0.83931 0.7019,-0.84669 1.82523,-0.076 0.68438,0.46958 1.24433,1.1088 1.24433,1.42046 0,0.32881 -0.32837,0.2813 -0.78222,-0.1132 -0.99847,-0.86771 -2.1875,-0.21259 -1.40533,0.77428 0.38112,0.4809 0.34922,0.90531 -0.10374,1.37962 -0.87816,0.91959 0.35531,1.74295 2.62854,1.75461 2.11707,0.0103 5.2812,1.37311 6.20719,2.67234 0.38905,0.54593 1.61385,1.47541 2.72179,2.06554 1.10791,0.59013 2.01439,1.28624 2.01439,1.54689 0,0.26067 0.24172,0.47394 0.53717,0.47394 0.29545,0 0.53718,-0.17002 0.53718,-0.37769 z m -16.95859,-8.29338 c -0.47747,-2.95915 -1.332,-4.33356 -2.46113,-3.9583 -1.10417,0.36699 -1.93077,-0.82634 -0.99285,-1.43333 0.38382,-0.24842 0.49396,-0.74318 0.25541,-1.14736 -0.32147,-0.54468 -0.57637,-0.48582 -1.09161,0.25203 -0.39,0.55854 -0.81026,0.7287 -1.0011,0.40534 -0.18082,-0.30652 -0.0728,-0.72307 0.24025,-0.92566 0.99572,-0.6444 -3.3685,-2.57858 -4.98332,-2.20852 -1.82003,0.41704 -1.83894,0.80115 -0.13438,2.72722 0.73862,0.83458 1.34294,1.69607 1.34294,1.91443 0,0.46587 5.78794,7.51811 6.64359,8.09481 0.32103,0.21639 1.02521,-0.0249 1.56479,-0.53632 0.78032,-0.73948 0.90663,-1.39107 0.61733,-3.18434 z m -5.33737,-11.00589 c 0.36829,-1.21511 -2.52895,-6.19844 -3.60368,-6.19844 -0.3305,0 -0.44825,-0.15985 -0.26169,-0.35522 0.45311,-0.47446 -0.58749,-2.45732 -1.2896,-2.45732 -0.31481,0 -0.41164,0.54707 -0.22403,1.26565 0.29356,1.12445 0.26263,1.15199 -0.27733,0.24709 -0.3343,-0.56021 -0.48224,-1.36116 -0.32879,-1.77987 0.4476,-1.22151 -2.72596,-4.73092 -3.97007,-4.39025 -0.84146,0.23044 -1.05357,0.77756 -1.05357,2.71758 0,3.36497 0.78024,5.19609 3.27156,7.67779 2.11755,2.10941 5.53644,4.31425 6.76422,4.36232 0.3494,0.0139 0.78725,-0.47653 0.97298,-1.08933 z m 0.94807,-5.74704 c -1.40595,-1.8775 -3.30211,-4.45579 -4.2136,-5.72945 -0.91151,-1.27369 -2.05972,-2.66321 -2.55156,-3.08782 -0.49188,-0.42461 -0.89429,-0.97009 -0.89429,-1.21221 0,-0.2421 -2.0547,-4.06162 -4.56598,-8.48782 -2.51127,-4.42617 -4.56596,-8.2642 -4.56596,-8.52891 0,-0.80161 -3.9965,-7.69588 -4.46789,-7.70744 -0.92473,-0.0227 1.8872,6.21538 4.55924,10.11439 1.15699,1.68823 1.55176,3.87793 0.92703,5.14177 -0.57845,1.17021 1.63891,5.66189 2.60753,5.28202 0.40988,-0.16064 0.67432,0.22282 0.67881,0.98464 0.0171,2.75851 0.586,3.78596 1.90705,3.43877 1.56427,-0.41111 3.39572,1.51012 9.79163,10.27183 1.39016,1.90435 2.71133,3.34352 2.93592,3.19818 0.22463,-0.1453 -0.74194,-1.80046 -2.14793,-3.67795 z m 126.096687,-4.1077 c 0,-0.46408 -0.355,-0.84378 -0.78892,-0.84378 -0.48053,0 -0.66803,0.32982 -0.47968,0.84378 0.16998,0.46406 0.52507,0.84376 0.78889,0.84376 0.26385,0 0.47971,-0.3797 0.47971,-0.84376 z m -140.704067,-0.86357 c 1.5096,-0.84602 1.34663,-4.16539 -0.37039,-7.54289 -1.83832,-3.61617 -3.75564,-5.69175 -6.25746,-6.77407 -1.85169,-0.80107 -2.05533,-0.79809 -2.36035,0.0343 -0.43264,1.18059 1.72567,6.61506 3.82204,9.62371 0.90158,1.29388 2.07351,3.00249 2.60433,3.79693 1.09582,1.63999 1.14453,1.65638 2.56183,0.86212 z m 140.166897,-1.1052 c -1.04146,-0.70477 -1.61154,-0.70477 -1.61154,0 0,0.30935 0.54391,0.55862 1.20866,0.55388 0.97735,-0.006 1.05444,-0.11297 0.40288,-0.55388 z M -178.70187,154.71574 c 0.63911,-0.80638 0.20707,-1.97346 -1.14526,-3.09379 -0.18673,-0.15466 -0.80589,-1.29376 -1.37595,-2.53129 -0.57005,-1.23752 -1.32374,-2.18675 -1.67489,-2.10941 -0.35115,0.0773 -0.67981,-0.42891 -0.73034,-1.12502 -0.18063,-2.48716 -0.28387,-2.97178 -0.9357,-4.38976 -1.12302,-2.44298 -4.3144,-3.6964 -3.45747,-1.35794 0.16634,0.45415 0.003,0.82576 -0.36277,0.82576 -0.89447,0 -0.35295,4.25607 0.7034,5.52812 0.42967,0.51739 0.66377,1.2821 0.52027,1.69932 -0.4333,1.25979 1.06654,3.53957 3.62414,5.50873 2.67388,2.05872 3.83278,2.30927 4.83457,1.04528 z m -9.13195,-12.68965 c 0,-0.32762 0.24174,-0.43924 0.53717,-0.24804 0.29546,0.19115 0.53718,0.45929 0.53718,0.59572 0,0.13633 -0.24172,0.24804 -0.53718,0.24804 -0.29543,0 -0.53717,-0.26806 -0.53717,-0.59572 z m -2.23781,-1.39648 c 0.45283,-0.41618 0.71635,-4.81192 0.34262,-5.71547 -0.23003,-0.55618 -0.45542,-1.26434 -0.50088,-1.5737 -0.44337,-3.01869 -4.84714,-8.71891 -6.73587,-8.71891 -1.58527,0 -1.38257,1.1674 1.6115,9.28141 1.47725,4.00329 2.68588,7.36666 2.68588,7.4742 0,0.20166 2.2772,-0.45388 2.59675,-0.74753 z m -3.36796,-4.03048 c -0.29152,-0.80172 -0.22982,-0.86631 0.30069,-0.31491 0.36712,0.38156 0.53217,0.83547 0.36677,1.00863 -0.1654,0.17321 -0.46575,-0.13891 -0.66746,-0.69372 z m 8.62943,-3.07144 c -1.02987,-2.57804 -2.12281,-4.62708 -2.42875,-4.55346 -0.30593,0.0735 -0.41126,-0.26178 -0.23404,-0.74535 0.17721,-0.48358 -0.1854,-2.06261 -0.80561,-3.50892 -0.62027,-1.44635 -1.62733,-4.45471 -2.23795,-6.68526 -1.01038,-3.69109 -1.82633,-5.19175 -2.46134,-4.5268 -0.131,0.13719 0.40837,2.13108 1.19836,4.43113 1.50103,4.37033 1.46399,7.24502 -0.0935,7.24502 -0.43754,0 -0.79551,0.19671 -0.79551,0.43734 0,0.84865 1.691,2.95266 2.1397,2.66228 0.4121,-0.26672 1.92029,3.2644 2.27994,5.33801 0.0805,0.46407 0.38804,1.02587 0.68351,1.24849 0.34926,0.26313 0.30069,0.80422 -0.13876,1.54689 -0.62245,1.05165 -0.54796,1.14216 0.94006,1.14216 0.88884,0 2.03908,0.45024 2.55613,1.0005 1.59959,1.70245 1.39066,-0.0432 -0.60227,-5.03203 z m -5.88859,-6.46862 c -0.19695,-0.20624 -0.3581,-0.63659 -0.3581,-0.95626 0,-0.35247 0.25019,-0.31926 0.63563,0.0843 0.34964,0.3661 0.51076,0.79641 0.35812,0.95627 -0.15264,0.15984 -0.43868,0.12185 -0.63565,-0.0843 z m -1.96963,-4.59058 c 0,-2.44517 -4.8702,-14.72221 -5.84017,-14.72221 -0.80274,0 -2.21744,2.67893 -2.21744,4.19902 0,0.85043 0.30497,1.42608 0.75548,1.42608 0.49101,0 0.65712,0.39382 0.47453,1.12499 -0.15455,0.61876 -0.0424,1.12501 0.24907,1.12501 0.29149,0 0.82818,1.11523 1.1926,2.47829 1.02606,3.8375 2.46277,5.95935 4.0351,5.95935 1.12452,0 1.35083,-0.26648 1.35083,-1.59053 z m -1.27507,-13.70014 c -0.73731,-1.64497 -1.84651,-4.38307 -2.46484,-6.08465 -1.24063,-3.413951 -2.27602,-5.756181 -2.73526,-6.187581 -0.16466,-0.15467 -0.82964,-1.42034 -1.47766,-2.81255 -1.06752,-2.29337 -1.17832,-2.38423 -1.17869,-0.96674 -2.4e-4,0.86288 -0.35738,1.70798 -0.79636,1.8844 -0.61635,0.24768 -0.66713,0.57178 -0.22506,1.43678 0.31397,0.61433 0.70604,0.97542 0.87127,0.80239 0.16519,-0.17301 0.77884,0.62024 1.3636,1.76276 0.8606,1.681421 1.00022,2.708571 0.73266,5.389371 l -0.33062,3.31205 1.35176,-0.35529 c 1.701,-0.44703 3.29186,0.41894 3.78803,2.06202 0.56241,1.86237 2.02885,4.04515 2.25026,3.34954 0.10527,-0.33089 -0.41176,-1.94751 -1.14909,-3.5925 z m -7.79124,-2.28771 c 0.30268,-5.83758 -1.33141,-9.861271 -4.75663,-11.712431 -0.81758,-0.44186 -1.79565,-1.10905 -2.17351,-1.48263 -0.37785,-0.37357 -1.02319,-0.54414 -1.43408,-0.37904 -0.61034,0.24526 -0.62756,0.57552 -0.0943,1.80427 1.9695,4.53699 3.31922,6.847881 3.9996,6.847881 0.61484,0 0.63505,0.16343 0.10309,0.83445 -0.54851,0.69209 -0.41771,0.93143 0.76686,1.40303 0.84351,0.33582 1.65861,1.26079 1.99106,2.25936 0.66376,1.99388 1.50475,2.21766 1.59773,0.42511 z m -5.66141,-7.659021 c -0.23139,-0.39204 -0.27565,-0.86474 -0.0984,-1.05042 0.48075,-0.50343 1.00494,0.23699 0.74527,1.05271 -0.18195,0.5716 -0.30847,0.57118 -0.64693,-0.001 z m 2.43316,5.950401 c -0.4387,-0.45938 -0.5976,-0.39645 -0.5976,0.23673 0,1.11818 0.72234,1.87457 0.98928,1.03594 0.11329,-0.35577 -0.0631,-0.92847 -0.39168,-1.27267 z m 1.01393,-11.678281 c 0,-0.32444 -0.96691,-2.11423 -2.14871,-3.97734 -1.18178,-1.86314 -2.14869,-3.58578 -2.14869,-3.82808 0,-0.24234 -0.60432,-1.12344 -1.34294,-1.958 -0.7386,-0.83458 -1.34292,-1.75749 -1.34292,-2.05092 0,-0.29346 -0.24173,-0.53354 -0.53716,-0.53354 -0.29548,0 -0.54486,-0.31642 -0.55427,-0.70313 -0.01,-0.38674 -0.40222,-1.20939 -0.87289,-1.82817 -0.84633,-1.11252 -0.85273,-1.11127 -0.57712,0.11354 0.15324,0.68128 0.0443,1.32046 -0.24201,1.42043 -0.29171,0.10189 -0.35735,0.86332 -0.14924,1.7317 0.27597,1.15132 0.61539,1.46886 1.31988,1.23471 0.56263,-0.18697 1.07238,0.0231 1.25322,0.51667 0.1982,0.54081 0.0516,0.73009 -0.41921,0.54091 -0.39824,-0.16003 -0.88364,-0.0205 -1.0787,0.30993 -0.19504,0.33046 -0.0986,0.60084 0.21427,0.60084 0.31287,0 0.56886,0.50627 0.56886,1.12503 0,0.61876 0.24172,1.12501 0.53718,1.12501 0.29545,0 0.53717,0.39916 0.53717,0.88703 0,0.48787 0.74661,1.66886 1.65914,2.62443 1.33567,1.39869 1.75297,1.58216 2.14047,0.94113 0.39337,-0.65078 0.48281,-0.62154 0.48955,0.16024 0.003,0.52605 0.43126,1.21445 0.94829,1.5298 1.21941,0.74372 1.7458,0.74907 1.7458,0.0179 z m -11.96611,-13.91486 c -0.82921,-1.96304 -1.85022,-3.08014 -2.22883,-2.43862 -0.1633,0.27669 0.0631,0.8159 0.50293,1.1982 0.43991,0.38233 0.79982,1.12819 0.79982,1.65751 0,1.15047 0.51821,1.79108 1.12904,1.39576 0.2431,-0.15726 0.15169,-0.97312 -0.20296,-1.81285 z m -7.37212,-18.68333 c 0,-0.30937 -0.10647,-0.5625 -0.23691,-0.5625 -0.13032,0 -0.38628,0.25313 -0.56888,0.5625 -0.18254,0.30939 -0.0759,0.56253 0.2369,0.56253 0.31286,0 0.56889,-0.25314 0.56889,-0.56253 z m -6.4461,-13.43132 c 0,-0.27152 -0.36259,-0.80876 -0.80575,-1.1939 -0.87465,-0.76012 -0.98397,-0.57831 -0.47971,0.79776 0.34515,0.94188 1.28546,1.23166 1.28546,0.39614 z m -2.68586,-4.56898 c 0,-0.30935 -0.24173,-0.56247 -0.53717,-0.56247 -0.29544,0 -0.54368,-0.31643 -0.55163,-0.70315 -0.008,-0.38672 -0.74214,-1.58909 -1.63153,-2.67192 l -1.61711,-1.96877 1.04386,2.03234 c 1.64979,3.21205 2.44619,4.43649 2.88563,4.43649 0.22436,0 0.40795,-0.25313 0.40795,-0.56252 z M -130.62487,225.8731 c -0.18254,-0.30939 -0.076,-0.56252 0.2369,-0.56252 0.31287,0 0.56887,0.25313 0.56887,0.56252 0,0.30937 -0.10647,0.5625 -0.23689,0.5625 -0.13022,0 -0.38627,-0.25313 -0.56888,-0.5625 z m -2.41728,-2.28323 c 0,-0.32765 0.24173,-0.43927 0.53719,-0.24809 0.29543,0.19114 0.53717,0.4593 0.53717,0.59572 0,0.13634 -0.24174,0.24807 -0.53717,0.24807 -0.29546,0 -0.53719,-0.26809 -0.53719,-0.5957 z m 17.71596,-1.38667 c -1.00466,-1.26763 -0.42155,-1.41418 0.77623,-0.19513 0.56871,0.57883 0.7796,1.05244 0.46863,1.05244 -0.31095,0 -0.87116,-0.3858 -1.24486,-0.85736 z m 80.586757,-14.26152 c 0,-0.27149 0.40215,-0.84104 0.89369,-1.26564 0.81039,-0.70003 0.83366,-0.654 0.24969,0.49366 -0.66603,1.30892 -1.14338,1.63122 -1.14338,0.77198 z m 3.22304,-2.38015 c 0,-0.4668 0.3751,-1.34009 0.83357,-1.94064 0.80111,-1.04936 0.81968,-1.03712 0.47678,0.31437 -0.44031,1.73552 -1.31035,2.81535 -1.31035,1.62627 z m -122.744087,-2.18878 c -0.18254,-0.30939 -0.0759,-0.56252 0.23688,-0.56252 0.31286,0 0.56886,0.25313 0.56886,0.56252 0,0.30939 -0.10647,0.56251 -0.23689,0.56251 -0.13019,0 -0.38626,-0.25312 -0.56885,-0.56251 z m 123.032747,-2.28407 c 0.17149,-0.29066 0.66025,-0.52848 1.08599,-0.52848 0.42572,0 0.77406,-0.37971 0.77406,-0.84375 0,-0.46407 -0.25601,-0.84377 -0.5689,-0.84377 -0.3129,0 -0.42097,-0.25062 -0.24017,-0.5569 0.21532,-0.36489 0.55043,-0.35826 0.97174,0.02 0.35369,0.31684 1.10302,0.90875 1.6652,1.31533 0.60054,0.43434 0.85621,1.02032 0.61988,1.42074 -0.29432,0.4987 -0.59422,0.40844 -1.11805,-0.33654 -0.61914,-0.88057 -0.75917,-0.90114 -1.03678,-0.15227 -0.17644,0.47618 -0.80333,0.90383 -1.39291,0.95032 -0.58956,0.0466 -0.93157,-0.15326 -0.76006,-0.44389 z m 3.47154,-3.74913 c 0,-0.58543 0.33879,-1.54953 0.75284,-2.14252 0.69429,-0.99428 0.74155,-0.92802 0.60783,0.85223 -0.15094,2.00925 -1.36067,3.15642 -1.36067,1.29029 z m -1.07433,-3.97946 c 0,-0.55689 -0.26894,-1.29412 -0.59761,-1.63829 -0.32868,-0.34421 -0.49919,-0.935 -0.3789,-1.31287 0.35554,-1.11694 2.05084,1.03031 2.05084,2.59757 0,0.75137 -0.24173,1.3661 -0.53717,1.3661 -0.29543,0 -0.53716,-0.45562 -0.53716,-1.01251 z m 1.8656,-1.26207 c -0.17472,-0.29589 -0.17054,-0.78699 0.01,-1.09137 0.46214,-0.78301 0.49957,-8.95516 0.0502,-10.97801 l -0.37483,-1.68753 0.81739,1.40626 c 0.44957,0.77347 0.82594,2.59371 0.83642,4.04501 0.01,1.45129 0.27249,2.80276 0.58228,3.00324 0.39226,0.25388 0.39261,0.57985 10e-4,1.07383 -0.30918,0.39012 -0.47502,1.49292 -0.36853,2.45071 0.19058,1.71402 -0.87269,2.93101 -1.55326,1.77786 z m 2.43179,-1.66298 c 0,-0.30938 0.36259,-0.56251 0.80575,-0.56251 0.44317,0 0.80574,0.25313 0.80574,0.56251 0,0.30939 -0.36257,0.56252 -0.80574,0.56252 -0.44316,0 -0.80575,-0.25313 -0.80575,-0.56252 z m -5.37174,-1.93559 c 0,-0.44579 0.24172,-0.967 0.53719,-1.1582 0.29544,-0.19114 0.53716,0.17359 0.53716,0.81057 0,0.63701 -0.24172,1.1582 -0.53716,1.1582 -0.29547,0 -0.53719,-0.36475 -0.53719,-0.81057 z m -0.14866,-4.36459 c -0.80462,-1.29944 -1.46295,-2.9241 -1.46295,-3.61031 0,-0.68622 -0.12968,-1.71133 -0.2879,-2.27808 -0.15837,-0.5667 0.12716,-0.20771 0.63463,0.79777 0.50739,1.00551 1.12039,1.82816 1.36224,1.82816 0.24184,0 0.43973,0.89389 0.43973,1.98644 0,1.2468 0.3,2.10697 0.80574,2.3102 0.44316,0.17799 0.80576,0.54984 0.80576,0.82612 0,1.11488 -0.91259,0.37589 -2.29725,-1.8603 z m 1.02271,-9.597 c -0.53576,-2.09325 -0.38705,-2.59963 0.73736,-2.51093 1.14149,0.0901 1.41159,0.68569 0.56065,1.23643 -0.28256,0.18276 -0.38694,0.67844 -0.23196,1.10129 0.15493,0.42288 0.0509,0.9182 -0.231,1.10069 -0.28199,0.18257 -0.65777,-0.23486 -0.83505,-0.92748 z m 2.88606,-5.75939 c 0,-0.46409 0.0949,-0.84377 0.2111,-0.84377 0.11611,0 0.35027,0.37968 0.52033,0.84377 0.16997,0.46406 0.0749,0.84377 -0.21113,0.84377 -0.28616,0 -0.5203,-0.37971 -0.5203,-0.84377 z m -8.60496,-3.95045 c -0.5677,-0.71627 -0.53446,-0.79857 0.2028,-0.50234 0.48494,0.19494 0.88174,0.58037 0.88174,0.85667 0,0.72336 -0.31095,0.62175 -1.08454,-0.35433 z m -158.455927,-6.45595 c 0,-0.3094 0.256,-0.56254 0.56889,-0.56254 0.31288,0 0.41947,0.25314 0.23688,0.56254 -0.18254,0.30937 -0.43858,0.5625 -0.56888,0.5625 -0.1302,0 -0.23689,-0.25313 -0.23689,-0.5625 z m 121.132577,-5.05775 c -1.47722,-0.5624 -5.82831,-1.70445 -9.66911,-2.53794 -8.79725,-1.90906 -13.16962,-3.39099 -14.3694,-4.87019 -1.06463,-1.31257 -1.25468,-4.13937 -0.31902,-4.74492 0.44184,-0.28595 0.52668,0.0921 0.29405,1.31004 -0.39398,2.06283 0.62173,3.20759 3.38229,3.81195 1.03407,0.2264 2.4947,0.74016 3.24586,1.14171 0.75117,0.40154 2.92673,1.02312 4.83456,1.38127 1.90785,0.35814 6.18532,1.39132 9.50553,2.29594 3.32018,0.90463 6.16048,1.64478 6.31178,1.64478 0.15132,0 0.27508,0.3797 0.27508,0.84377 0,1.02076 -0.10636,1.01232 -3.49162,-0.27641 z M -215.37382,73.855139 c -0.4815,-1.16017 -1.08475,-2.10942 -1.34056,-2.10942 -0.25579,0 -0.86853,-0.88593 -1.36163,-1.96878 -0.49313,-1.08282 -0.65277,-1.96878 -0.35478,-1.96878 0.29796,0 0.77844,0.65189 1.06772,1.44863 0.28928,0.79676 0.82719,1.80049 1.19536,2.23053 1.79044,2.09135 2.0696,2.61332 1.8771,3.50976 -0.14523,0.67633 -0.4712,0.33269 -1.08321,-1.14194 z m -2.4994,-0.75001 c 0.0256,-0.6553 0.15305,-0.78859 0.32456,-0.33984 0.15512,0.40604 0.13608,0.8912 -0.0424,1.07813 -0.17854,0.18695 -0.30545,-0.14532 -0.28214,-0.73829 z m -6.12625,-2.7916 c -1.10589,-1.39412 -1.41713,-2.2459 -1.14665,-3.13827 0.2897,-0.9558 0.1904,-1.15216 -0.45207,-0.89397 -0.4606,0.18517 -0.95378,-0.0252 -1.11946,-0.47742 -0.17454,-0.47656 0.0276,-0.80825 0.4927,-0.80825 0.43389,0 0.78891,-0.39462 0.78891,-0.87697 0,-0.48232 0.21903,-0.73521 0.48674,-0.56194 0.26772,0.17321 0.36037,0.82101 0.20594,1.43947 -0.15437,0.61845 -0.0411,1.12447 0.25185,1.12447 0.29298,0 0.67773,0.75938 0.85498,1.68751 0.17721,0.92816 0.60031,1.68754 0.94007,1.68754 0.39784,0 0.5047,-0.59187 0.30021,-1.66257 -0.23929,-1.25293 -0.13934,-1.59096 0.40553,-1.37201 0.44407,0.17837 0.66702,0.98272 0.57786,2.08443 -0.0801,0.98666 -0.17168,2.23687 -0.20408,2.7783 -0.0843,1.40925 -0.65526,1.16713 -2.38253,-1.01032 z m 3.39799,0.86969 c 0,-0.30939 0.54388,-0.55864 1.20864,-0.55389 0.97734,0.006 1.05444,0.11297 0.40288,0.55389 -1.04146,0.70478 -1.61152,0.70478 -1.61152,0 z m -7.65473,-8.48449 c -1.04627,-1.2 -1.22051,-2.51776 -0.40287,-3.04693 0.29544,-0.19114 0.53716,-0.72734 0.53716,-1.1914 0,-0.46409 -0.24566,-0.68479 -0.54592,-0.49047 -0.30026,0.19434 -0.40687,0.58896 -0.23688,0.87697 0.16996,0.28799 -0.0554,0.52364 -0.501,0.52364 -0.47197,0 -1.52799,-1.58453 -2.53049,-3.79694 -0.94628,-2.08831 -1.93561,-3.88482 -2.19856,-3.99226 -0.26293,-0.10737 -0.19996,-0.54622 0.1399,-0.97506 0.49174,-0.62047 0.33171,-0.89374 -0.78335,-1.33766 -0.77071,-0.30684 -1.40132,-0.93509 -1.40132,-1.39606 0,-0.46098 -0.72519,-2.03557 -1.61152,-3.49909 -0.88633,-1.46353 -1.6115,-3.00878 -1.6115,-3.43388 0,-0.4251 -0.72519,-1.87663 -1.61153,-3.22565 -1.76624,-2.68822 -2.18379,-4.29138 -0.80576,-3.09379 0.44316,0.38515 0.80576,1.04897 0.80576,1.47514 0,0.4262 0.2371,0.77489 0.52694,0.77489 0.28981,0 0.67424,0.61451 0.85424,1.36558 0.18005,0.75107 0.66807,1.5025 1.08458,1.66986 0.4165,0.16742 0.75727,0.82479 0.75727,1.46092 0,0.72417 0.51555,1.36184 1.37901,1.70561 1.03018,0.41014 1.29628,0.82191 1.05201,1.62785 -0.22221,0.7331 -0.0451,1.13855 0.55284,1.2652 0.98163,0.20796 2.46353,4.10675 2.02047,5.31579 -0.1694,0.46228 0.0649,0.77693 0.57853,0.77693 0.47479,0 0.86322,-0.26806 0.86322,-0.59571 0,-0.32763 0.23118,-0.44608 0.51372,-0.26324 0.28253,0.18278 0.37755,0.70405 0.21113,1.15824 -0.18863,0.51486 0.0226,0.82573 0.56061,0.82573 0.4748,0 0.86323,0.25312 0.86323,0.56252 0,0.30936 -0.25776,0.56251 -0.57284,0.56251 -0.31507,0 -0.49638,0.67655 -0.40289,1.50343 0.12387,1.09693 0.49671,1.52778 1.37836,1.59351 1.68296,0.12546 1.8591,0.45611 1.20398,2.26048 -0.41282,1.13699 -0.40451,1.74618 0.0299,2.1874 0.4374,0.4443 0.55401,0.3808 0.42649,-0.23222 -0.0965,-0.46406 0.003,-0.90703 0.22369,-0.98438 0.21959,-0.0773 0.39923,-0.0139 0.39923,0.1407 0,0.15467 0,0.91408 0,1.68752 0,1.65328 -0.45535,1.71441 -1.74582,0.23441 z"
       style="fill:#9775aa;fill-opacity:1;stroke-width:0.54969501" />
  </g>
</svg>
