<?xml version="1.0" encoding="UTF-8" standalone="no"?>
<svg
   xmlns:dc="http://purl.org/dc/elements/1.1/"
   xmlns:cc="http://creativecommons.org/ns#"
   xmlns:rdf="http://www.w3.org/1999/02/22-rdf-syntax-ns#"
   xmlns:svg="http://www.w3.org/2000/svg"
   xmlns="http://www.w3.org/2000/svg"
   xmlns:sodipodi="http://sodipodi.sourceforge.net/DTD/sodipodi-0.dtd"
   xmlns:inkscape="http://www.inkscape.org/namespaces/inkscape"
   version="1.1"
   x="0px"
   y="0px"
   viewBox="0 0 100 100"
   enable-background="new 0 0 100 100"
   xml:space="preserve"
   id="svg36"
   sodipodi:docname="wip.svg"
   inkscape:version="0.92.3 (2405546, 2018-03-11)"><metadata
     id="metadata42"><rdf:RDF><cc:Work
         rdf:about=""><dc:format>image/svg+xml</dc:format><dc:type
           rdf:resource="http://purl.org/dc/dcmitype/StillImage" /><dc:title></dc:title></cc:Work></rdf:RDF></metadata><defs
     id="defs40" /><sodipodi:namedview
     pagecolor="#ffffff"
     bordercolor="#666666"
     borderopacity="1"
     objecttolerance="10"
     gridtolerance="10"
     guidetolerance="10"
     inkscape:pageopacity="0"
     inkscape:pageshadow="2"
     inkscape:window-width="1600"
     inkscape:window-height="836"
     id="namedview38"
     showgrid="false"
     inkscape:zoom="2.36"
     inkscape:cx="2.9661017"
     inkscape:cy="50"
     inkscape:window-x="0"
     inkscape:window-y="27"
     inkscape:window-maximized="1"
     inkscape:current-layer="svg36" /><g
     id="g34"
     style="fill:#d4b26a;fill-opacity:1"><g
       id="g10"
       style="fill:#d4b26a;fill-opacity:1"><path
         d="m 97.955,34.136 c -0.322,-0.314 -0.837,-0.307 -1.15,0.015 l -3.589,3.687 V 31.962 C 93.216,18.079 81.921,6.784 68.037,6.784 H 52.495 C 52.148,5.641 51.086,4.809 49.828,4.809 c -1.541,0 -2.789,1.249 -2.789,2.789 0,1.541 1.248,2.789 2.789,2.789 1.258,0 2.32,-0.832 2.667,-1.975 h 15.542 c 12.987,0 23.552,10.564 23.552,23.55 v 5.875 L 88,34.151 c -0.314,-0.322 -0.828,-0.329 -1.152,-0.015 -0.321,0.313 -0.327,0.828 -0.014,1.15 l 4.986,5.12 c 0,0 0.001,0 0.001,10e-4 0.147,0.151 0.353,0.245 0.581,0.245 v 0 0 c 0.057,0 0.109,-0.006 0.163,-0.017 0.036,-0.007 0.069,-0.02 0.104,-0.032 0.046,-0.016 0.089,-0.037 0.132,-0.06 0.018,-0.011 0.039,-0.019 0.057,-0.031 0.024,-0.016 0.046,-0.037 0.067,-0.055 0.018,-0.016 0.037,-0.029 0.055,-0.046 0.002,-0.002 0.004,-0.003 0.007,-0.006 l 4.984,-5.12 c 0.313,-0.321 0.305,-0.836 -0.016,-1.149 z"
         id="path2"
         inkscape:connector-curvature="0"
         style="fill:#d4b26a;fill-opacity:1" /><path
         d="m 7.598,52.789 c 1.541,0 2.79,-1.248 2.79,-2.789 0,-1.257 -0.833,-2.319 -1.976,-2.668 V 31.961 c 0,-12.986 10.564,-23.55 23.549,-23.55 h 5.703 L 33.979,12 c -0.321,0.313 -0.328,0.828 -0.014,1.15 0.159,0.164 0.371,0.246 0.582,0.246 0.205,0 0.41,-0.077 0.567,-0.231 l 5.12,-4.985 c 0.002,-10e-4 0.002,-0.003 0.004,-0.004 0.027,-0.028 0.052,-0.06 0.076,-0.092 0.008,-0.01 0.019,-0.02 0.025,-0.03 C 40.398,7.967 40.441,7.867 40.462,7.76 40.474,7.707 40.48,7.653 40.48,7.598 40.48,7.543 40.474,7.489 40.462,7.435 40.441,7.328 40.398,7.228 40.339,7.141 40.328,7.127 40.317,7.115 40.305,7.1 40.283,7.072 40.263,7.043 40.238,7.018 40.236,7.017 40.236,7.015 40.234,7.014 l -5.12,-4.985 c -0.321,-0.313 -0.837,-0.307 -1.149,0.016 -0.314,0.321 -0.308,0.836 0.014,1.15 l 3.686,3.588 H 31.962 C 18.08,6.783 6.786,18.077 6.786,31.961 V 47.332 C 5.641,47.68 4.809,48.743 4.809,50 c 0,1.541 1.249,2.789 2.789,2.789 z"
         id="path4"
         inkscape:connector-curvature="0"
         style="fill:#d4b26a;fill-opacity:1" /><path
         d="m 92.402,47.211 c -1.54,0 -2.789,1.249 -2.789,2.789 0,1.257 0.832,2.319 1.976,2.667 v 15.371 c 0,12.986 -10.564,23.55 -23.552,23.55 H 61.992 L 65.677,88 c 0.322,-0.313 0.329,-0.828 0.016,-1.15 -0.313,-0.322 -0.828,-0.329 -1.15,-0.015 l -5.119,4.986 c -0.002,0.001 -0.003,0.003 -0.005,0.004 -0.022,0.023 -0.043,0.05 -0.063,0.076 -0.013,0.016 -0.027,0.03 -0.04,0.046 -0.008,0.013 -0.014,0.027 -0.021,0.041 -0.073,0.125 -0.117,0.268 -0.117,0.416 0,0.22 0.088,0.43 0.247,0.583 l 5.119,4.985 c 0.157,0.154 0.363,0.23 0.567,0.23 0.213,0 0.424,-0.082 0.583,-0.246 0.313,-0.321 0.307,-0.836 -0.016,-1.15 l -3.687,-3.589 h 6.047 c 13.884,0 25.179,-11.294 25.179,-25.177 V 52.667 C 94.36,52.319 95.193,51.257 95.193,50 95.191,48.46 93.942,47.211 92.402,47.211 Z"
         id="path6"
         inkscape:connector-curvature="0"
         style="fill:#d4b26a;fill-opacity:1" /><path
         d="m 49.826,89.613 c -1.256,0 -2.317,0.832 -2.666,1.975 H 31.961 C 18.977,91.588 8.412,81.024 8.412,68.038 v -5.875 l 3.589,3.686 c 0.313,0.322 0.829,0.329 1.151,0.015 0.321,-0.313 0.327,-0.828 0.015,-1.15 L 8.18,59.594 C 8.178,59.593 8.177,59.592 8.177,59.591 8.03,59.442 7.824,59.35 7.6,59.35 c -0.171,0 -0.328,0.053 -0.459,0.142 -0.046,0.029 -0.087,0.063 -0.126,0.103 l -4.984,5.12 c -0.313,0.322 -0.307,0.837 0.015,1.15 0.158,0.154 0.364,0.231 0.568,0.231 0.212,0 0.424,-0.083 0.582,-0.246 l 3.59,-3.687 v 5.876 c 0,13.883 11.294,25.177 25.176,25.177 H 47.16 c 0.349,1.143 1.41,1.976 2.666,1.976 1.541,0 2.791,-1.249 2.791,-2.789 0,-1.542 -1.25,-2.79 -2.791,-2.79 z"
         id="path8"
         inkscape:connector-curvature="0"
         style="fill:#d4b26a;fill-opacity:1" /></g><g
       id="g32"
       style="fill:#d4b26a;fill-opacity:1"><path
         d="m 50.318,47.394 c -0.177,0 -0.354,-0.057 -0.499,-0.17 -3.988,-2.947 -8.115,-6.107 -10.911,-9.483 -0.2,-0.243 -0.244,-0.58 -0.11,-0.865 0.134,-0.286 0.422,-0.468 0.737,-0.468 v 0 h 21.566 c 0.316,0 0.604,0.182 0.736,0.468 0.134,0.285 0.093,0.622 -0.109,0.865 -2.799,3.38 -6.933,6.543 -10.926,9.493 -0.145,0.108 -0.314,0.16 -0.484,0.16 z"
         id="path12"
         inkscape:connector-curvature="0"
         style="fill:#d4b26a;fill-opacity:1" /><path
         d="M 63.127,71.84 H 37.512 c -0.316,0 -0.602,-0.182 -0.736,-0.467 -0.134,-0.285 -0.092,-0.622 0.109,-0.865 1.62,-1.957 4.234,-3.107 7.002,-4.325 2.057,-0.905 4.184,-1.841 5.949,-3.146 0.193,-0.143 0.44,-0.192 0.673,-0.137 0.116,0.028 0.223,0.081 0.313,0.152 1.761,1.296 3.881,2.229 5.932,3.131 2.766,1.217 5.38,2.368 6.998,4.323 0.201,0.243 0.245,0.58 0.109,0.865 -0.132,0.287 -0.418,0.469 -0.734,0.469 z"
         id="path14"
         inkscape:connector-curvature="0"
         style="fill:#d4b26a;fill-opacity:1" /><path
         d="m 51.693,50.14 c 8.318,-6.118 16.57,-12.517 16.57,-21.167 0,-0.45 -0.366,-0.814 -0.814,-0.814 -0.45,0 -0.814,0.364 -0.814,0.814 0,7.98 -8.188,14.188 -16.316,20.158 -8.129,-5.97 -16.316,-12.177 -16.316,-20.158 0,-0.45 -0.364,-0.814 -0.813,-0.814 -0.45,0 -0.813,0.364 -0.813,0.814 0,8.65 8.25,15.049 16.569,21.167 -8.275,6.079 -16.569,12.415 -16.569,20.887 0,0.45 0.363,0.813 0.813,0.813 0.448,0 0.813,-0.364 0.813,-0.813 0,-7.799 7.879,-13.684 16.316,-19.877 8.438,6.193 16.316,12.078 16.316,19.877 0,0.45 0.364,0.813 0.814,0.813 0.448,0 0.814,-0.364 0.814,-0.813 10e-4,-8.472 -8.296,-14.808 -16.57,-20.887 z"
         id="path16"
         inkscape:connector-curvature="0"
         style="fill:#d4b26a;fill-opacity:1" /><g
         id="g22"
         style="fill:#d4b26a;fill-opacity:1"><path
           d="M 70.821,23.943 H 29.143 c -0.448,0 -0.813,0.364 -0.813,0.813 v 1.153 c 0,0.449 0.364,0.813 0.813,0.813 h 41.679 c 0.448,0 0.813,-0.364 0.813,-0.813 v -1.153 c 0,-0.449 -0.365,-0.813 -0.814,-0.813 z"
           id="path18"
           inkscape:connector-curvature="0"
           style="fill:#d4b26a;fill-opacity:1" /><path
           d="M 70.821,73.277 H 29.143 c -0.448,0 -0.813,0.364 -0.813,0.813 v 1.153 c 0,0.449 0.364,0.813 0.813,0.813 h 41.679 c 0.448,0 0.813,-0.364 0.813,-0.813 V 74.09 c 0,-0.449 -0.365,-0.813 -0.814,-0.813 z"
           id="path20"
           inkscape:connector-curvature="0"
           style="fill:#d4b26a;fill-opacity:1" /></g><g
         id="g30"
         style="fill:#d4b26a;fill-opacity:1"><path
           d="m 50.318,52.885 c -0.449,0 -0.813,0.364 -0.813,0.813 v 0.405 c 0,0.45 0.364,0.814 0.813,0.814 0.449,0 0.813,-0.364 0.813,-0.814 v -0.405 c 10e-4,-0.449 -0.363,-0.813 -0.813,-0.813 z"
           id="path24"
           inkscape:connector-curvature="0"
           style="fill:#d4b26a;fill-opacity:1" /><path
           d="m 50.318,56.085 c -0.449,0 -0.813,0.364 -0.813,0.813 v 0.56 c 0,0.449 0.364,0.813 0.813,0.813 0.449,0 0.813,-0.365 0.813,-0.813 v -0.56 c 10e-4,-0.449 -0.363,-0.813 -0.813,-0.813 z"
           id="path26"
           inkscape:connector-curvature="0"
           style="fill:#d4b26a;fill-opacity:1" /><path
           d="m 50.318,59.439 c -0.449,0 -0.813,0.364 -0.813,0.813 v 0.405 c 0,0.449 0.364,0.813 0.813,0.813 0.449,0 0.813,-0.365 0.813,-0.813 v -0.405 c 10e-4,-0.449 -0.363,-0.813 -0.813,-0.813 z"
           id="path28"
           inkscape:connector-curvature="0"
           style="fill:#d4b26a;fill-opacity:1" /></g></g></g></svg>