<?xml version="1.0" encoding="UTF-8" standalone="no"?>
<svg
   xmlns:dc="http://purl.org/dc/elements/1.1/"
   xmlns:cc="http://creativecommons.org/ns#"
   xmlns:rdf="http://www.w3.org/1999/02/22-rdf-syntax-ns#"
   xmlns:svg="http://www.w3.org/2000/svg"
   xmlns="http://www.w3.org/2000/svg"
   xmlns:sodipodi="http://sodipodi.sourceforge.net/DTD/sodipodi-0.dtd"
   xmlns:inkscape="http://www.inkscape.org/namespaces/inkscape"
   version="1.1"
   id="svg2"
   width="42.702759"
   height="17.908855"
   viewBox="0 0 42.702759 17.908855"
   sodipodi:docname="fibl-logo.svg"
   inkscape:version="1.0.1 (3bc2e813f5, 2020-09-07)">
  <metadata
     id="metadata8">
    <rdf:RDF>
      <cc:Work
         rdf:about="">
        <dc:format>image/svg+xml</dc:format>
        <dc:type
           rdf:resource="http://purl.org/dc/dcmitype/StillImage" />
        <dc:title></dc:title>
      </cc:Work>
    </rdf:RDF>
  </metadata>
  <defs
     id="defs6" />
  <sodipodi:namedview
     pagecolor="#ffffff"
     bordercolor="#666666"
     borderopacity="1"
     objecttolerance="10"
     gridtolerance="10"
     guidetolerance="10"
     inkscape:pageopacity="0"
     inkscape:pageshadow="2"
     inkscape:window-width="1920"
     inkscape:window-height="1016"
     id="namedview4"
     showgrid="false"
     inkscape:zoom="12.187897"
     inkscape:cx="24.272501"
     inkscape:cy="6.5094293"
     inkscape:window-x="0"
     inkscape:window-y="27"
     inkscape:window-maximized="1"
     inkscape:current-layer="g817"
     fit-margin-top="0"
     fit-margin-left="0"
     fit-margin-right="0"
     fit-margin-bottom="0"
     inkscape:document-rotation="0"
     inkscape:pagecheckerboard="false" />
  <g
     id="g817"
     transform="matrix(0.0180714,0,0,0.0180714,3.8946397e-5,0)">
    <path
       style="fill:#2e6b85;fill-opacity:0.97000003"
       d="m -0.64959592,515.00974 c 0.008,-253.1375 0.34593,-459.800019 0.75,-459.250019 0.48655,0.66224 89.05781992,1 262.23468592,1 H 523.8351 v 99.499999 99.50002 l -143.4431,0.2534 c -113.23185,0.2 -143.60982,0.516 -144.23469,1.5 -1.03443,1.629 -1.03463,151.8638 -2.1e-4,153.4928 0.62388,0.9825 28.40281,1.3 131.23469,1.5 l 130.4433,0.2538 v 99.5 99.5 l -130.4433,0.2537 c -102.83188,0.2001 -130.61081,0.5176 -131.23469,1.5 -0.43526,0.6855 -0.79828,81.9088 -0.8067,180.4963 l -0.0153,179.25 -117.75,0.2439 -117.74999592,0.2438 118.99999592,0.5123 119,0.5122 -119.25,0.2439 -119.24999592,0.2439 z M 705.0851,974.50984 c 30.38749,-0.1469 80.11249,-0.1469 110.49999,0 30.3875,0.147 5.525,0.2672 -55.25,0.2672 -60.77499,0 -85.63749,-0.1202 -55.24999,-0.2672 z m 421.5,-1e-4 c 55.4125,-0.1428 146.0875,-0.1428 201.5,0 55.4125,0.1428 10.075,0.2596 -100.75,0.2596 -110.825,0 -156.1625,-0.1168 -100.75,-0.2596 z m 970.75,-0.25 262.5,-0.5057 -261.25,-0.2471 -261.25,-0.2472 V 514.75554 56.251451 l 117.25,0.25414 117.25,0.25413 0.2514,357.941819 c 0.2,284.8317 0.5064,358.1038 1.5,358.7347 0.6867,0.4361 65.2236,0.7997 143.4153,0.8082 112.8091,0.012 142.2708,-0.2429 142.671,-1.2347 0.2774,-0.6875 0.5399,44.5375 0.5834,100.5 l 0.079,101.75 -262.75,-0.2472 -262.75,-0.2472 z m -1446,-311.5 v -310.5 h 108.99999 109 v 310.5 310.5 h -109 -108.99999 z m 377,-148.0454 V 56.169031 l 190.75,0.37086 c 198.7679,0.38644 196.2919,0.33417 225.5945,4.76283 103.8923,15.7018 168.8579,73.753389 187.5878,167.623489 4.8614,24.36433 5.5711,33.07393 5.5279,67.83353 -0.042,33.4368 -0.9759,44.4045 -5.4941,64.5 -11.2847,50.1912 -37.168,86.5221 -82.147,115.305 -9.6714,6.1889 -11.6993,8.2148 -9.9621,9.9519 0.5073,0.5074 7.0349,2.1949 14.5056,3.75 51.6405,10.7495 82.8022,25.5042 109.4806,51.8378 28.5226,28.154 48.6949,70.6395 57.0501,120.1553 4.8543,28.7675 5.37,68.7395 1.235,95.7132 -18.0918,118.0182 -107.53,194.0161 -249.1283,211.6906 -26.9035,3.3581 -41.7085,3.5764 -243.25,3.5863 l -201.75,0.01 z m 351.5,273.2047 c 25.2761,-3.3289 46.4311,-8.5873 58,-14.4168 14.7712,-7.443 27.8944,-19.9823 36.8835,-35.2425 20.0342,-34.0105 16.039,-76.4274 -10.127,-107.5174 -7.3226,-8.7006 -16.9877,-16.0544 -28.6067,-21.7656 -25.1583,-12.3664 -44.5293,-14.6762 -123.2928,-14.7016 -42.9868,-0.014 -48.208,0.154 -48.75,1.5664 -0.8156,2.1252 -0.7817,190.7995 0.035,192.9267 0.5915,1.5414 4.6757,1.6353 52.25,1.2017 39.055,-0.356 54.5273,-0.8549 63.6084,-2.0509 z m -34.7569,-371.0483 c 40.5346,-7.9379 63.8537,-26.6395 73.9592,-59.3144 2.5951,-8.391 2.7206,-9.7649 2.7206,-29.7966 0,-20.1125 -0.1169,-21.3783 -2.7652,-29.9507 -11.0069,-35.628 -37.5103,-55.1218 -82.9589,-61.0183 -8.3007,-1.0769 -20.6531,-1.531 -41.643,-1.531 -26.2894,0 -29.9141,0.1883 -30.4488,1.5818 -0.8162,2.1268 -0.7813,178.8004 0.036,180.9294 0.5895,1.5361 3.6339,1.6351 36.75,1.1944 27.5634,-0.3667 38.0578,-0.8624 44.3504,-2.0946 z M 742.85524,231.14503 c -46.17808,-6.72462 -84.73135,-39.84263 -99.0139,-85.05489 -6.96897,-22.06072 -7.28478,-49.403199 -0.82964,-71.830419 8.76818,-30.46344 32.77878,-58.9245 61.98999,-73.48008997 C 719.39927,-6.394509 737.8682,-11.515619 750.69556,-11.890479 l 5.13953,-0.15019 -4.5,-0.69961 c -2.91905,-0.45383 0.24284,-0.69962 9,-0.69962 7.59363,0 11.53121,0.26952 9,0.61604 -4.08806,0.55964 -3.72189,0.67871 4,1.30069 46.1769,3.71945 88.74598,37.92546 103.42244,83.10419 8.01869,24.68404 7.6246,54.572509 -1.0405,78.912369 -15.06898,42.32807 -54.50359,74.53059 -98.81627,80.69391 -8.91063,1.23936 -25.38502,1.2189 -34.04552,-0.0423 z"
       id="path819"
       inkscape:connector-curvature="0" />
  </g>
</svg>
