<?xml version="1.0" encoding="UTF-8" standalone="no"?>
<!-- Created with Inkscape (http://www.inkscape.org/) -->

<svg
   xmlns:dc="http://purl.org/dc/elements/1.1/"
   xmlns:cc="http://creativecommons.org/ns#"
   xmlns:rdf="http://www.w3.org/1999/02/22-rdf-syntax-ns#"
   xmlns:svg="http://www.w3.org/2000/svg"
   xmlns="http://www.w3.org/2000/svg"
   xmlns:sodipodi="http://sodipodi.sourceforge.net/DTD/sodipodi-0.dtd"
   xmlns:inkscape="http://www.inkscape.org/namespaces/inkscape"
   width="100.17746"
   height="102.78835"
   viewBox="0 0 26.505286 27.196084"
   version="1.1"
   id="svg826"
   inkscape:version="0.92.4 (5da689c313, 2019-01-14)"
   sodipodi:docname="pr.svg">
  <defs
     id="defs820" />
  <sodipodi:namedview
     id="base"
     pagecolor="#ffffff"
     bordercolor="#666666"
     borderopacity="1.0"
     inkscape:pageopacity="0.0"
     inkscape:pageshadow="2"
     inkscape:zoom="2.8"
     inkscape:cx="-8.2982842"
     inkscape:cy="33.878575"
     inkscape:document-units="mm"
     inkscape:current-layer="layer1"
     showgrid="false"
     units="px"
     inkscape:window-width="1600"
     inkscape:window-height="836"
     inkscape:window-x="0"
     inkscape:window-y="27"
     inkscape:window-maximized="1"
     fit-margin-top="0"
     fit-margin-left="0"
     fit-margin-right="0"
     fit-margin-bottom="0" />
  <metadata
     id="metadata823">
    <rdf:RDF>
      <cc:Work
         rdf:about="">
        <dc:format>image/svg+xml</dc:format>
        <dc:type
           rdf:resource="http://purl.org/dc/dcmitype/StillImage" />
        <dc:title></dc:title>
      </cc:Work>
    </rdf:RDF>
  </metadata>
  <g
     inkscape:label="Calque 1"
     inkscape:groupmode="layer"
     id="layer1"
     transform="translate(2.3614089,-269.3703)">
    <rect
       style="opacity:0.57399998;fill:#cccccc;fill-opacity:1;stroke:none;stroke-width:0.63745999;stroke-linejoin:round;stroke-miterlimit:4;stroke-dasharray:none;stroke-dashoffset:0;stroke-opacity:1"
       id="rect4491"
       width="26.505285"
       height="27.196083"
       x="-2.3614089"
       y="269.3703" />
    <g
       transform="matrix(0.14494574,0,0,0.14494574,-3.5651387,269.70874)"
       id="g4501"
       style="fill:#241c1c">
      <g
         id="g8"
         style="fill:#241c1c">
        <path
           inkscape:connector-curvature="0"
           id="path2-1"
           d="m 126.676,55.16 c -0.268,-0.398 -6.676,-9.749 -14.951,-9.749 -4.107,0 -7.984,1.14 -10.807,3.118 -0.693,-1.765 -1.551,-3.427 -2.525,-5 0.16,-0.359 0.293,-0.734 0.371,-1.137 2.754,-13.979 12.049,-31.574 12.143,-31.75 0.307,-0.579 0.203,-1.291 -0.258,-1.758 -0.461,-0.467 -1.17,-0.579 -1.754,-0.28 -0.953,0.492 -18.922,9.905 -24.258,22.927 -3.898,-1.729 -8.189,-2.692 -12.678,-2.692 -4.488,0 -8.78,0.963 -12.679,2.692 C 53.944,18.51 35.977,9.097 35.022,8.604 34.437,8.305 33.729,8.417 33.268,8.884 c -0.461,0.467 -0.564,1.179 -0.257,1.758 0.093,0.176 9.389,17.771 12.142,31.75 0.079,0.402 0.212,0.777 0.371,1.137 -0.974,1.573 -1.832,3.235 -2.525,5 -2.822,-1.979 -6.698,-3.118 -10.807,-3.118 -8.274,0 -14.683,9.351 -14.951,9.749 -0.343,0.507 -0.343,1.171 0,1.678 0.269,0.398 6.677,9.749 14.951,9.749 3.28,0 6.379,-0.705 8.954,-2.014 l 3.471,25.98 c 0.04,10.755 6.555,20.229 14.064,25.797 1.115,7.173 10.052,18.071 12.133,20.526 0.283,0.334 0.697,0.527 1.135,0.53 0.004,0 0.007,0 0.01,0 0.434,0 0.846,-0.188 1.131,-0.516 2.18,-2.508 11.484,-13.582 12.336,-20.685 7.43,-5.585 13.834,-14.989 13.875,-25.653 l 3.471,-25.98 c 2.574,1.309 5.674,2.014 8.953,2.014 8.275,0 14.684,-9.351 14.951,-9.749 0.344,-0.506 0.344,-1.17 0,-1.677 z M 105.971,13.795 c -2.867,5.963 -7.656,16.769 -9.832,26.532 -2.447,-3.023 -5.436,-5.543 -8.799,-7.447 3.34,-8.408 12.965,-15.495 18.631,-19.085 z M 37.944,13.791 c 5.668,3.587 15.299,10.673 18.636,19.087 -3.364,1.904 -6.353,4.424 -8.801,7.449 -2.177,-9.766 -6.966,-20.575 -9.835,-26.536 z m 34.029,119.782 c -3.683,-4.542 -7.721,-10.463 -9.507,-14.799 3.048,1.666 6.106,2.646 8.842,2.783 0.198,0.096 0.417,0.154 0.651,0.154 0.234,0 0.453,-0.059 0.651,-0.154 2.822,-0.141 5.99,-1.178 9.135,-2.94 -1.746,4.306 -5.985,10.394 -9.772,14.956 z m 39.752,-69.986 c -3.531,0 -6.904,-0.983 -9.252,-2.699 -0.426,-0.313 -0.986,-0.375 -1.473,-0.169 -0.486,0.208 -0.828,0.657 -0.898,1.182 l -3.787,28.354 c -0.01,0.065 -0.014,0.132 -0.014,0.198 0,14.469 -13.443,26.786 -22.842,28.021 V 103.97 h 3.234 c 0.828,0 1.5,-0.672 1.5,-1.5 0,-0.828 -0.672,-1.5 -1.5,-1.5 h -9.469 c -0.828,0 -1.5,0.672 -1.5,1.5 0,0.828 0.672,1.5 1.5,1.5 h 3.234 v 14.504 C 61.06,117.239 47.616,104.921 47.616,90.453 c 0,-0.066 -0.005,-0.133 -0.014,-0.198 L 43.815,61.9 c -0.069,-0.524 -0.411,-0.974 -0.897,-1.182 -0.189,-0.08 -0.39,-0.12 -0.589,-0.12 -0.313,0 -0.624,0.098 -0.885,0.289 -2.348,1.716 -5.72,2.699 -9.252,2.699 -5.396,0 -10.178,-5.454 -11.842,-7.588 1.664,-2.134 6.445,-7.588 11.842,-7.588 4.26,0 8.158,1.385 10.428,3.705 0.368,0.377 0.912,0.532 1.421,0.41 0.514,-0.123 0.924,-0.506 1.082,-1.009 3.703,-11.771 14.487,-19.679 26.836,-19.679 12.348,0 23.133,7.908 26.836,19.679 0.158,0.503 0.568,0.886 1.082,1.009 0.51,0.12 1.051,-0.033 1.42,-0.41 2.27,-2.32 6.168,-3.705 10.428,-3.705 5.398,0 10.18,5.457 11.844,7.589 -1.658,2.135 -6.428,7.588 -11.844,7.588 z"
           style="fill:#241c1c" />
        <circle
           id="circle4"
           r="3.9170001"
           cy="70.549004"
           cx="52.244999"
           style="fill:#241c1c" />
        <circle
           id="circle6"
           r="3.9170001"
           cy="70.549004"
           cx="92.171997"
           style="fill:#241c1c" />
      </g>
    </g>
    <g
       transform="matrix(0.78515459,0,0,0.78515459,7.4989434,68.108991)"
       id="g830">
      <path
         sodipodi:nodetypes="ccsscccsccccccccscccccccsccccscccccccsccsccccccccccccccscccccccscccsccccc"
         style="color:#000000;font-style:normal;font-variant:normal;font-weight:normal;font-stretch:normal;font-size:medium;line-height:normal;font-family:sans-serif;font-variant-ligatures:normal;font-variant-position:normal;font-variant-caps:normal;font-variant-numeric:normal;font-variant-alternates:normal;font-feature-settings:normal;text-indent:0;text-align:start;text-decoration:none;text-decoration-line:none;text-decoration-style:solid;text-decoration-color:#000000;letter-spacing:normal;word-spacing:normal;text-transform:none;writing-mode:lr-tb;direction:ltr;text-orientation:mixed;dominant-baseline:auto;baseline-shift:baseline;text-anchor:start;white-space:normal;shape-padding:0;clip-rule:nonzero;display:inline;overflow:visible;visibility:visible;opacity:1;isolation:auto;mix-blend-mode:normal;color-interpolation:sRGB;color-interpolation-filters:linearRGB;solid-color:#000000;solid-opacity:1;vector-effect:none;fill:#241c1c;fill-opacity:1;fill-rule:nonzero;stroke:#000000;stroke-width:0.16999909;stroke-linecap:butt;stroke-linejoin:miter;stroke-miterlimit:4;stroke-dasharray:none;stroke-dashoffset:0;stroke-opacity:1;color-rendering:auto;image-rendering:auto;shape-rendering:auto;text-rendering:auto;enable-background:accumulate"
         d="m 11.309333,272.55214 c -1.075749,0 -2.076952,0.54276 -2.6854536,1.43105 -0.05417,-0.006 -0.1081058,-0.0113 -0.1636921,-0.0113 -0.7831637,0 -1.5364153,0.52737 -2.1193433,1.07511 -0.5829283,0.54774 -0.9956151,1.12215 -1.0817522,1.24611 l -3.4e-4,6.6e-4 -6.63e-4,6.6e-4 c -1.5634937,2.34048 -2.2093172,4.10885 -2.2093172,6.07016 0,0.12193 0.052397,0.23488 0.1391203,0.31577 l 6.63e-4,3.3e-4 3.399e-4,3.4e-4 c 0.089968,0.0814 0.2106417,0.11941 0.3293733,0.10658 1.2355832,-0.12821 2.3077168,-1.01564 3.0719367,-1.97656 -3.911e-4,0.0193 -9.351e-4,0.0385 -0.00133,0.0577 -0.054399,2.66287 -0.1233848,5.43932 1.4004995,6.99387 h 3.4e-4 c 0.7777339,0.79235 1.8712786,1.17671 3.3196307,1.17671 1.447678,0 2.54221,-0.3844 3.319962,-1.17539 1.522288,-1.55572 1.454234,-4.32918 1.399836,-6.99253 v -6.6e-4 c -3.4e-4,-0.0203 -6.8e-4,-0.0397 -0.001,-0.0597 0.7636,0.96124 1.836177,1.85034 3.071274,1.97757 0.121871,0.0151 0.242139,-0.0251 0.330369,-0.10658 l 3.39e-4,-3.4e-4 c 0.08631,-0.0805 0.139786,-0.19293 0.139786,-0.31575 0,-1.96333 -0.645072,-3.73155 -2.212646,-6.07814 l -6.79e-4,-9.4e-4 -3.4e-4,-6.7e-4 c -0.08426,-0.1201 -0.496768,-0.69351 -1.079428,-1.24045 -0.582661,-0.54696 -1.33617,-1.07445 -2.119012,-1.07445 -0.05367,0 -0.107884,0.006 -0.163028,0.0113 -0.608509,-0.88621 -1.609717,-1.43038 -2.685453,-1.43038 z m 0,0.17 c 1.035963,0 2.004505,0.52884 2.578541,1.39485 l 0.02889,0.0432 0.05179,-0.006 c 0.06914,-0.008 0.130161,-0.013 0.189257,-0.013 0.70499,0 1.433896,0.49456 2.002471,1.0283 0.567507,0.53273 0.97414,1.09661 1.055521,1.21257 1.557689,2.33179 2.18409,4.05757 2.18409,5.98384 0,0.0742 -0.03042,0.13954 -0.08533,0.19091 -8.2e-5,8e-5 -1.7e-4,-7e-5 -3.4e-4,0 -0.05291,0.0487 -0.122452,0.0725 -0.194569,0.0634 l -0.001,-3.4e-4 h -10e-4 c -1.240827,-0.12738 -2.359863,-1.08637 -3.110785,-2.09478 l -0.156717,-0.2105 0.0037,0.26264 c 0.0013,0.10007 0.004,0.19733 0.0053,0.2965 v 3.4e-4 3.4e-4 c 0.0544,2.66333 0.09781,5.38927 -1.351027,6.87035 -6.1e-5,7e-5 -3.41e-4,-6e-5 -3.41e-4,0 -6.1e-5,7e-5 6.1e-5,2.7e-4 0,3.4e-4 -0.741338,0.75375 -1.780823,1.12425 -3.198439,1.12425 -1.4185131,0 -2.4570614,-0.3706 -3.1984393,-1.12591 -1.4504195,-1.4796 -1.4064245,-4.20847 -1.3520245,-6.87134 0.00204,-0.0986 0.00394,-0.19624 0.00597,-0.29485 0.013478,-0.29677 0.018561,-0.28294 -0.1530657,-0.0528 -0.7515978,1.00841 -1.8697742,1.96539 -3.1114484,2.09412 h -3.4e-4 c -0.070058,0.008 -0.1434373,-0.0156 -0.1962294,-0.0631 -0.054499,-0.051 -0.084999,-0.11716 -0.084999,-0.19092 0,-1.92376 0.6269027,-3.6493 2.1797737,-5.9742 l 0.00101,-9.5e-4 c 0.081975,-0.1179 0.4898576,-0.68418 1.0578458,-1.21787 0.5688158,-0.53449 1.2974537,-1.0293 2.0028004,-1.0293 0.065313,0 0.1264197,0.004 0.1879288,0.013 l 0.053125,0.008 0.029882,-0.0451 c 0.5740326,-0.868 1.5421756,-1.39518 2.5782086,-1.39518 z"
         id="path2-3"
         inkscape:connector-curvature="0" />
      <path
         id="path4-6"
         d="m 9.5022629,280.43284 c -0.1995112,0 -0.3614333,-0.1612 -0.3614333,-0.36143 v -1.44574 c 0,-0.19878 0.1619221,-0.36143 0.3614333,-0.36143 0.1987883,0 0.3614333,0.16265 0.3614333,0.36143 v 1.44574 c 0,0.20023 -0.162645,0.36143 -0.3614333,0.36143 z"
         style="fill:#241c1c;stroke-width:0.18071663"
         inkscape:connector-curvature="0" />
      <path
         id="path6-7"
         d="m 13.116596,280.43284 c -0.198789,0 -0.361434,-0.1612 -0.361434,-0.36143 v -1.44574 c 0,-0.19878 0.162645,-0.36143 0.361434,-0.36143 0.198788,0 0.361433,0.16265 0.361433,0.36143 v 1.44574 c 0,0.20023 -0.162645,0.36143 -0.361433,0.36143 z"
         style="fill:#241c1c;stroke-width:0.18071663"
         inkscape:connector-curvature="0" />
      <path
         sodipodi:nodetypes="scccccccccs"
         id="path8-5"
         d="m 11.309429,287.95788 c -0.09253,0 -0.185054,-0.0354 -0.255894,-0.10554 l -1.5136831,-1.51223 c -0.1416818,-0.13952 -0.1416818,-0.36939 -7.228e-4,-0.51107 0.1409589,-0.14096 0.3235835,0.048 0.4638199,0.18899 l 1.330104,1.32721 1.23561,-1.23272 c 0.139513,-0.14096 0.370108,-0.42444 0.511066,-0.28348 0.140959,0.14096 0.140959,0.37011 -7.22e-4,0.51107 l -1.515129,1.51223 c -0.0694,0.0701 -0.161922,0.10554 -0.254449,0.10554 z"
         style="fill:#241c1c;stroke:none;stroke-width:0.18071663;stroke-opacity:1"
         inkscape:connector-curvature="0" />
    </g>
  </g>
</svg>
