<?xml version="1.0" encoding="UTF-8" standalone="no"?>
<svg
   xmlns:dc="http://purl.org/dc/elements/1.1/"
   xmlns:cc="http://creativecommons.org/ns#"
   xmlns:rdf="http://www.w3.org/1999/02/22-rdf-syntax-ns#"
   xmlns:svg="http://www.w3.org/2000/svg"
   xmlns="http://www.w3.org/2000/svg"
   xmlns:sodipodi="http://sodipodi.sourceforge.net/DTD/sodipodi-0.dtd"
   xmlns:inkscape="http://www.inkscape.org/namespaces/inkscape"
   width="100.17746"
   height="102.78835"
   viewBox="0 0 26.505286 27.196084"
   version="1.1"
   id="svg826"
   inkscape:version="1.0.1 (1.0.1+r74)"
   sodipodi:docname="pr.svg">
  <defs
     id="defs820" />
  <sodipodi:namedview
     id="base"
     pagecolor="#ffffff"
     bordercolor="#666666"
     borderopacity="1.0"
     inkscape:pageopacity="0.0"
     inkscape:pageshadow="2"
     inkscape:zoom="5.6"
     inkscape:cx="20.042937"
     inkscape:cy="76.563539"
     inkscape:document-units="mm"
     inkscape:current-layer="layer1"
     showgrid="false"
     units="px"
     inkscape:window-width="1920"
     inkscape:window-height="1016"
     inkscape:window-x="0"
     inkscape:window-y="27"
     inkscape:window-maximized="1"
     fit-margin-top="0"
     fit-margin-left="0"
     fit-margin-right="0"
     fit-margin-bottom="0"
     inkscape:document-rotation="0" />
  <metadata
     id="metadata823">
    <rdf:RDF>
      <cc:Work
         rdf:about="">
        <dc:format>image/svg+xml</dc:format>
        <dc:type
           rdf:resource="http://purl.org/dc/dcmitype/StillImage" />
        <dc:title></dc:title>
      </cc:Work>
    </rdf:RDF>
  </metadata>
  <g
     inkscape:label="Calque 1"
     inkscape:groupmode="layer"
     id="layer1"
     transform="translate(2.3614089,-269.3703)">
    <rect
       style="opacity:0.57399998;fill:#e6e6e6;fill-opacity:1;stroke:none;stroke-width:0.63745999;stroke-linejoin:round;stroke-miterlimit:4;stroke-dasharray:none;stroke-dashoffset:0;stroke-opacity:1"
       id="rect4491"
       width="26.505285"
       height="27.196083"
       x="-2.3614089"
       y="269.3703" />
    <g
       transform="matrix(0.14494574,0,0,0.14494574,-3.5651387,269.70874)"
       id="g4501"
       style="fill:#0000ff">
      <g
         id="g8"
         style="fill:#0000ff">
        <path
           inkscape:connector-curvature="0"
           id="path2-1"
           d="m 126.676,55.16 c -0.268,-0.398 -6.676,-9.749 -14.951,-9.749 -4.107,0 -7.984,1.14 -10.807,3.118 -0.693,-1.765 -1.551,-3.427 -2.525,-5 0.16,-0.359 0.293,-0.734 0.371,-1.137 2.754,-13.979 12.049,-31.574 12.143,-31.75 0.307,-0.579 0.203,-1.291 -0.258,-1.758 -0.461,-0.467 -1.17,-0.579 -1.754,-0.28 -0.953,0.492 -18.922,9.905 -24.258,22.927 -3.898,-1.729 -8.189,-2.692 -12.678,-2.692 -4.488,0 -8.78,0.963 -12.679,2.692 C 53.944,18.51 35.977,9.097 35.022,8.604 34.437,8.305 33.729,8.417 33.268,8.884 c -0.461,0.467 -0.564,1.179 -0.257,1.758 0.093,0.176 9.389,17.771 12.142,31.75 0.079,0.402 0.212,0.777 0.371,1.137 -0.974,1.573 -1.832,3.235 -2.525,5 -2.822,-1.979 -6.698,-3.118 -10.807,-3.118 -8.274,0 -14.683,9.351 -14.951,9.749 -0.343,0.507 -0.343,1.171 0,1.678 0.269,0.398 6.677,9.749 14.951,9.749 3.28,0 6.379,-0.705 8.954,-2.014 l 3.471,25.98 c 0.04,10.755 6.555,20.229 14.064,25.797 1.115,7.173 10.052,18.071 12.133,20.526 0.283,0.334 0.697,0.527 1.135,0.53 0.004,0 0.007,0 0.01,0 0.434,0 0.846,-0.188 1.131,-0.516 2.18,-2.508 11.484,-13.582 12.336,-20.685 7.43,-5.585 13.834,-14.989 13.875,-25.653 l 3.471,-25.98 c 2.574,1.309 5.674,2.014 8.953,2.014 8.275,0 14.684,-9.351 14.951,-9.749 0.344,-0.506 0.344,-1.17 0,-1.677 z M 105.971,13.795 c -2.867,5.963 -7.656,16.769 -9.832,26.532 -2.447,-3.023 -5.436,-5.543 -8.799,-7.447 3.34,-8.408 12.965,-15.495 18.631,-19.085 z M 37.944,13.791 c 5.668,3.587 15.299,10.673 18.636,19.087 -3.364,1.904 -6.353,4.424 -8.801,7.449 -2.177,-9.766 -6.966,-20.575 -9.835,-26.536 z m 34.029,119.782 c -3.683,-4.542 -7.721,-10.463 -9.507,-14.799 3.048,1.666 6.106,2.646 8.842,2.783 0.198,0.096 0.417,0.154 0.651,0.154 0.234,0 0.453,-0.059 0.651,-0.154 2.822,-0.141 5.99,-1.178 9.135,-2.94 -1.746,4.306 -5.985,10.394 -9.772,14.956 z m 39.752,-69.986 c -3.531,0 -6.904,-0.983 -9.252,-2.699 -0.426,-0.313 -0.986,-0.375 -1.473,-0.169 -0.486,0.208 -0.828,0.657 -0.898,1.182 l -3.787,28.354 c -0.01,0.065 -0.014,0.132 -0.014,0.198 0,14.469 -13.443,26.786 -22.842,28.021 V 103.97 h 3.234 c 0.828,0 1.5,-0.672 1.5,-1.5 0,-0.828 -0.672,-1.5 -1.5,-1.5 h -9.469 c -0.828,0 -1.5,0.672 -1.5,1.5 0,0.828 0.672,1.5 1.5,1.5 h 3.234 v 14.504 C 61.06,117.239 47.616,104.921 47.616,90.453 c 0,-0.066 -0.005,-0.133 -0.014,-0.198 L 43.815,61.9 c -0.069,-0.524 -0.411,-0.974 -0.897,-1.182 -0.189,-0.08 -0.39,-0.12 -0.589,-0.12 -0.313,0 -0.624,0.098 -0.885,0.289 -2.348,1.716 -5.72,2.699 -9.252,2.699 -5.396,0 -10.178,-5.454 -11.842,-7.588 1.664,-2.134 6.445,-7.588 11.842,-7.588 4.26,0 8.158,1.385 10.428,3.705 0.368,0.377 0.912,0.532 1.421,0.41 0.514,-0.123 0.924,-0.506 1.082,-1.009 3.703,-11.771 14.487,-19.679 26.836,-19.679 12.348,0 23.133,7.908 26.836,19.679 0.158,0.503 0.568,0.886 1.082,1.009 0.51,0.12 1.051,-0.033 1.42,-0.41 2.27,-2.32 6.168,-3.705 10.428,-3.705 5.398,0 10.18,5.457 11.844,7.589 -1.658,2.135 -6.428,7.588 -11.844,7.588 z"
           style="fill:#0000ff" />
        <circle
           id="circle4"
           r="3.9170001"
           cy="70.549004"
           cx="52.244999"
           style="fill:#0000ff" />
        <circle
           id="circle6"
           r="3.9170001"
           cy="70.549004"
           cx="92.171997"
           style="fill:#0000ff" />
      </g>
    </g>
    <g
       id="g849">
      <path
         sodipodi:nodetypes="ccsscccsccccccccscccccccsccccscccccccsccsccccccccccccccscccccccscccsccccc"
         style="color:#000000;font-style:normal;font-variant:normal;font-weight:normal;font-stretch:normal;font-size:medium;line-height:normal;font-family:sans-serif;font-variant-ligatures:normal;font-variant-position:normal;font-variant-caps:normal;font-variant-numeric:normal;font-variant-alternates:normal;font-feature-settings:normal;text-indent:0;text-align:start;text-decoration:none;text-decoration-line:none;text-decoration-style:solid;text-decoration-color:#000000;letter-spacing:normal;word-spacing:normal;text-transform:none;writing-mode:lr-tb;direction:ltr;text-orientation:mixed;dominant-baseline:auto;baseline-shift:baseline;text-anchor:start;white-space:normal;shape-padding:0;clip-rule:nonzero;display:inline;overflow:visible;visibility:visible;isolation:auto;mix-blend-mode:normal;color-interpolation:sRGB;color-interpolation-filters:linearRGB;solid-color:#000000;solid-opacity:1;vector-effect:none;fill:#0000ff;fill-opacity:1;fill-rule:nonzero;stroke:#0000ff;stroke-width:0.133475;stroke-linecap:butt;stroke-linejoin:miter;stroke-miterlimit:4;stroke-dasharray:none;stroke-dashoffset:0;stroke-opacity:1;color-rendering:auto;image-rendering:auto;shape-rendering:auto;text-rendering:auto;enable-background:accumulate"
         d="m 16.378518,282.10455 c -0.844629,0 -1.630728,0.42616 -2.108496,1.1236 -0.04253,-0.005 -0.08488,-0.009 -0.128524,-0.009 -0.614904,0 -1.206323,0.41406 -1.664012,0.84413 -0.457689,0.43006 -0.781712,0.88106 -0.849343,0.97838 l -2.66e-4,5.2e-4 -5.21e-4,5.2e-4 c -1.227584,1.83764 -1.7346556,3.22608 -1.7346556,4.76601 0,0.0957 0.04114,0.18442 0.1092306,0.24793 l 5.21e-4,2.6e-4 2.67e-4,2.7e-4 c 0.07064,0.0639 0.165386,0.0937 0.258609,0.0837 0.970124,-0.10066 1.811914,-0.79743 2.411945,-1.5519 -3.07e-4,0.0151 -7.34e-4,0.0302 -10e-4,0.0453 -0.04271,2.09076 -0.09688,4.27071 1.099608,5.49127 h 2.67e-4 c 0.610642,0.62212 1.469243,0.9239 2.606424,0.9239 1.136651,0 1.996027,-0.30182 2.606683,-0.92287 1.195231,-1.22148 1.141798,-3.39907 1.099088,-5.49021 v -5.2e-4 c -2.67e-4,-0.0159 -5.34e-4,-0.0312 -7.86e-4,-0.0469 0.599544,0.75472 1.441683,1.4528 2.411425,1.55269 0.09569,0.0119 0.190117,-0.0197 0.259391,-0.0837 l 2.66e-4,-2.6e-4 c 0.06777,-0.0632 0.109754,-0.15148 0.109754,-0.24792 0,-1.54151 -0.506481,-2.92984 -1.737269,-4.77228 l -5.33e-4,-7.3e-4 -2.67e-4,-5.3e-4 c -0.06616,-0.0943 -0.39004,-0.54451 -0.847518,-0.97395 -0.457479,-0.42944 -1.0491,-0.84361 -1.663752,-0.84361 -0.04214,0 -0.08471,0.005 -0.128002,0.009 -0.477774,-0.69581 -1.263877,-1.12307 -2.108496,-1.12307 z m 0,0.13348 c 0.813391,0 1.573846,0.41522 2.024553,1.09517 l 0.02268,0.0339 0.04066,-0.005 c 0.05429,-0.006 0.102196,-0.0102 0.148596,-0.0102 0.553526,0 1.12583,0.38831 1.572249,0.80738 0.445581,0.41827 0.76485,0.86101 0.828747,0.95205 1.223027,1.83082 1.714848,3.18582 1.714848,4.69824 0,0.0583 -0.02388,0.10956 -0.067,0.1499 -6.4e-5,6e-5 -1.33e-4,-6e-5 -2.67e-4,0 -0.04154,0.0382 -0.09614,0.0569 -0.152767,0.0498 l -7.85e-4,-2.7e-4 h -7.85e-4 c -0.974241,-0.10001 -1.852857,-0.85297 -2.442447,-1.64473 l -0.123047,-0.16527 0.0029,0.20621 c 10e-4,0.0786 0.0031,0.15494 0.0042,0.2328 v 2.7e-4 2.6e-4 c 0.04271,2.09113 0.0768,4.23141 -1.060765,5.39429 -4.8e-5,6e-5 -2.67e-4,-5e-5 -2.67e-4,0 -4.8e-5,6e-5 4.7e-5,2.1e-4 0,2.7e-4 -0.582065,0.59181 -1.398222,0.88271 -2.511269,0.88271 -1.113753,0 -1.929173,-0.29098 -2.51127,-0.88402 -1.138803,-1.16171 -1.10426,-3.3043 -1.061548,-5.39506 0.0016,-0.0774 0.0031,-0.15408 0.0047,-0.2315 0.01058,-0.23301 0.01457,-0.22215 -0.12018,-0.0415 -0.59012,0.79176 -1.468062,1.54314 -2.442968,1.64421 h -2.67e-4 c -0.05501,0.006 -0.11262,-0.0122 -0.15407,-0.0495 -0.04279,-0.0401 -0.06674,-0.092 -0.06674,-0.14991 0,-1.51045 0.492216,-2.86526 1.71146,-4.69067 l 7.93e-4,-7.4e-4 c 0.06436,-0.0926 0.384614,-0.53719 0.830572,-0.95622 0.446609,-0.41966 1.018702,-0.80816 1.572508,-0.80816 0.05128,0 0.09926,0.003 0.147553,0.0102 l 0.04171,0.006 0.02346,-0.0354 c 0.450704,-0.68152 1.210846,-1.09543 2.024292,-1.09543 z"
         id="path2-3"
         inkscape:connector-curvature="0" />
      <path
         id="path4-6"
         d="m 14.959689,288.29212 c -0.156647,0 -0.283781,-0.12656 -0.283781,-0.28378 v -1.13513 c 0,-0.15607 0.127134,-0.28377 0.283781,-0.28377 0.156079,0 0.283781,0.1277 0.283781,0.28377 v 1.13513 c 0,0.15722 -0.127702,0.28378 -0.283781,0.28378 z"
         style="fill:#0000ff;stroke-width:0.141891"
         inkscape:connector-curvature="0" />
      <path
         id="path6-7"
         d="m 17.797499,288.29212 c -0.15608,0 -0.283782,-0.12656 -0.283782,-0.28378 v -1.13513 c 0,-0.15607 0.127702,-0.28377 0.283782,-0.28377 0.156079,0 0.283781,0.1277 0.283781,0.28377 v 1.13513 c 0,0.15722 -0.127702,0.28378 -0.283781,0.28378 z"
         style="fill:#0000ff;stroke-width:0.141891"
         inkscape:connector-curvature="0" />
      <path
         sodipodi:nodetypes="scccccccccs"
         id="path8-5"
         d="m 16.378593,294.20044 c -0.07265,0 -0.145296,-0.0278 -0.200916,-0.0829 l -1.188475,-1.18734 c -0.111242,-0.10954 -0.111242,-0.29003 -5.68e-4,-0.40127 0.110675,-0.11067 0.254063,0.0377 0.364171,0.14839 l 1.044337,1.04207 0.970145,-0.96788 c 0.109539,-0.11068 0.290592,-0.33325 0.401266,-0.22258 0.110674,0.11068 0.110674,0.2906 -5.67e-4,0.40127 l -1.189611,1.18734 c -0.05449,0.055 -0.127134,0.0829 -0.199782,0.0829 z"
         style="fill:#0000ff;stroke:none;stroke-width:0.141891;stroke-opacity:1"
         inkscape:connector-curvature="0" />
    </g>
  </g>
</svg>
