<?xml version="1.0" encoding="UTF-8" standalone="no"?>
<svg
   xmlns:dc="http://purl.org/dc/elements/1.1/"
   xmlns:cc="http://creativecommons.org/ns#"
   xmlns:rdf="http://www.w3.org/1999/02/22-rdf-syntax-ns#"
   xmlns:svg="http://www.w3.org/2000/svg"
   xmlns="http://www.w3.org/2000/svg"
   xmlns:sodipodi="http://sodipodi.sourceforge.net/DTD/sodipodi-0.dtd"
   xmlns:inkscape="http://www.inkscape.org/namespaces/inkscape"
   version="1.0"
   x="0px"
   y="0px"
   viewBox="0 0 100 100"
   enable-background="new 0 0 100 100"
   xml:space="preserve"
   id="svg32"
   sodipodi:docname="vso_carre.svg"
   width="100"
   height="100"
   inkscape:version="0.92.1 r15371"><metadata
     id="metadata38"><rdf:RDF><cc:Work
         rdf:about=""><dc:format>image/svg+xml</dc:format><dc:type
           rdf:resource="http://purl.org/dc/dcmitype/StillImage" /><dc:title /></cc:Work></rdf:RDF></metadata><defs
     id="defs36" /><sodipodi:namedview
     pagecolor="#ffffff"
     bordercolor="#666666"
     borderopacity="1"
     objecttolerance="10"
     gridtolerance="10"
     guidetolerance="10"
     inkscape:pageopacity="0"
     inkscape:pageshadow="2"
     inkscape:window-width="1920"
     inkscape:window-height="986"
     id="namedview34"
     showgrid="false"
     inkscape:zoom="7.552"
     inkscape:cx="4.3235817"
     inkscape:cy="59.674017"
     inkscape:window-x="-11"
     inkscape:window-y="-11"
     inkscape:window-maximized="1"
     inkscape:current-layer="svg32" /><rect
     style="opacity:1;fill:#b3b3b3;fill-opacity:1;stroke:none;stroke-width:2.79398727;stroke-linejoin:round;stroke-miterlimit:4;stroke-dasharray:none;stroke-dashoffset:0;stroke-opacity:1"
     id="rect4491"
     width="116.80087"
     height="118.55932"
     x="-9.1419535"
     y="-9.0677929" /><rect
     style="fill:#0000ff;stroke-width:0.89442676"
     id="rect2"
     height="2.6832802"
     width="32.199364"
     y="54.335289"
     x="22.272774" /><rect
     style="fill:#0000ff;stroke-width:0.89442676"
     id="rect4"
     height="2.6832802"
     width="32.199364"
     y="48.074299"
     x="22.272774" /><polygon
     style="fill:#800000"
     id="polygon6"
     points="9.201,89.576 14.445,95.297 33.605,76.911 27.646,70.833 "
     transform="matrix(0.89442675,0,0,0.89442675,5.278662,5.1418152)" /><polygon
     style="fill:#800000"
     id="polygon12"
     points="76.695,80.549 76.703,16 24,16 24,25.096 30,25.292 30,20 72.103,20 72.094,76.339 65.635,76.634 65.389,80.643 "
     transform="matrix(0.89442675,0,0,0.89442675,5.278662,5.1418152)" /><polygon
     style="fill:#800000"
     id="polygon14"
     points="79.484,69.39 90.791,69.422 90.799,5 38.557,5 38.672,13.925 44,13.86 44,10 86.197,10 86.189,65.624 79.729,65.56 "
     transform="matrix(0.89442675,0,0,0.89442675,5.278662,5.1418152)" /><polygon
     style="fill:#800000"
     id="polygon16"
     points="35.108,74.662 36.933,67.373 29.708,69.437 "
     transform="matrix(0.89442675,0,0,0.89442675,5.278662,5.1418152)" /><polygon
     style="fill:#800000"
     id="polygon18"
     points="58.122,83 53,83 53,87.847 26.081,87.863 22.211,91.816 54.762,91.934 62.759,83.806 62.731,28 10.489,28 10.639,83.561 16,79.923 16,32 58.128,32 "
     transform="matrix(0.89442675,0,0,0.89442675,5.278662,5.1418152)" /><rect
     style="fill:#0000ff;stroke-width:0.89442676"
     id="rect20"
     height="1.7888535"
     width="17.888535"
     y="59.701847"
     x="22.272774" /><polygon
     style="fill:#0000ff"
     id="polygon22"
     points="37.001,67.382 29.775,69.445 35.176,74.671 "
     transform="matrix(0.89442675,0,0,0.89442675,5.278662,5.1418152)" /><polygon
     style="fill:#280b0b"
     id="polygon24"
     points="14.513,95.306 33.673,76.919 27.712,70.841 9.269,89.585 "
     transform="matrix(0.89442675,0,0,0.89442675,5.278662,5.1418152)" /><text
     xml:space="preserve"
     style="font-style:normal;font-weight:normal;font-size:10px;line-height:125%;font-family:sans-serif;letter-spacing:0px;word-spacing:0px;fill:#0000ff;fill-opacity:1;stroke:none;stroke-width:1px;stroke-linecap:butt;stroke-linejoin:miter;stroke-opacity:1;"
     x="22.643009"
     y="44.518005"
     id="text842"><tspan
       sodipodi:role="line"
       id="tspan840"
       x="22.643009"
       y="44.518005"
       style="-inkscape-font-specification:'sans-serif Bold';font-family:sans-serif;font-weight:bold;font-style:normal;font-stretch:normal;font-variant:normal">VSO</tspan></text>
</svg>