<?xml version="1.0" encoding="UTF-8" standalone="no"?>
<svg
   xmlns:dc="http://purl.org/dc/elements/1.1/"
   xmlns:cc="http://creativecommons.org/ns#"
   xmlns:rdf="http://www.w3.org/1999/02/22-rdf-syntax-ns#"
   xmlns:svg="http://www.w3.org/2000/svg"
   xmlns="http://www.w3.org/2000/svg"
   xmlns:sodipodi="http://sodipodi.sourceforge.net/DTD/sodipodi-0.dtd"
   xmlns:inkscape="http://www.inkscape.org/namespaces/inkscape"
   version="1.1"
   x="0px"
   y="0px"
   viewBox="0 0 241.00001 179.99999"
   id="svg8"
   sodipodi:docname="normalise.svg"
   width="241"
   height="180"
   inkscape:version="0.92.1 r15371">
  <metadata
     id="metadata14">
    <rdf:RDF>
      <cc:Work
         rdf:about="">
        <dc:format>image/svg+xml</dc:format>
        <dc:type
           rdf:resource="http://purl.org/dc/dcmitype/StillImage" />
        <dc:title></dc:title>
      </cc:Work>
    </rdf:RDF>
  </metadata>
  <defs
     id="defs12" />
  <sodipodi:namedview
     pagecolor="#ffffff"
     bordercolor="#666666"
     borderopacity="1"
     objecttolerance="10"
     gridtolerance="10"
     guidetolerance="10"
     inkscape:pageopacity="0"
     inkscape:pageshadow="2"
     inkscape:window-width="1920"
     inkscape:window-height="986"
     id="namedview10"
     showgrid="false"
     units="px"
     fit-margin-top="1"
     fit-margin-left="1"
     fit-margin-right="1"
     fit-margin-bottom="1"
     inkscape:zoom="1.888"
     inkscape:cx="82.795343"
     inkscape:cy="70.295594"
     inkscape:window-x="-11"
     inkscape:window-y="-11"
     inkscape:window-maximized="1"
     inkscape:current-layer="svg8" />
  <rect
     style="opacity:0.57399998;fill:#b3b3b3;fill-opacity:1;stroke:none;stroke-width:5.69138193;stroke-linejoin:round;stroke-miterlimit:4;stroke-dasharray:none;stroke-dashoffset:0;stroke-opacity:1"
     id="rect4491"
     width="285.4873"
     height="201.27118"
     x="-28.601694"
     y="-12.7966" />
  <path
     d="m 139.64044,38.43427 c -1.13797,0.0246 -2.2325,0.628928 -2.84546,1.691959 L 96.80302,109.46636 c 1.074088,0.29406 2.128085,0.72993 3.137911,1.31364 1.009469,0.58353 1.912369,1.27896 2.703879,2.06329 l 39.98963,-69.34242 c 0.64222,-1.113416 0.58644,-2.430701 -0.0395,-3.451227 -0.28443,-0.463942 -0.68728,-0.867982 -1.19295,-1.160462 -0.55606,-0.321369 -1.16569,-0.467638 -1.7616,-0.454911 z m -1.19063,1.94727 h 0.002 c 0.16123,-0.01069 0.33171,0.02436 0.48275,0.111346 0.1263,0.0732 0.22388,0.17435 0.29476,0.290127 0.15618,0.254562 0.17439,0.582822 0.0139,0.861066 l -23.52493,40.788025 c -0.2336,0.404896 -0.74647,0.542467 -1.15118,0.308689 -0.40429,-0.233695 -0.54212,-0.748508 -0.30868,-1.153499 l 23.52263,-40.785721 c 0.14562,-0.252528 0.39924,-0.401389 0.66843,-0.420081 z m -22.0442,52.462308 c -1.84773,3.200937 -3.69178,6.402107 -5.53775,9.604012 h 49.21071 l -0.22282,1.59217 h -49.9093 c -0.44563,0.77338 -0.88896,1.54744 -1.33454,2.32091 1.3304,1.64976 2.81516,3.17485 4.43299,4.54671 7.43168,6.46223 17.8702,9.14703 27.5448,7.38751 7.85276,-1.3647 15.04556,-5.78152 20.03892,-11.96206 l 0.31797,-2.29307 h -0.002 l 0.22048,-1.59217 h 0.002 l 0.53845,-3.901484 h 4.55367 c -5.14997,12.422294 -17.38132,21.159904 -31.65286,21.159904 -10.66135,0 -20.18722,-4.87584 -26.47021,-12.5214 -0.50222,0.87202 -1.00434,1.74349 -1.50629,2.61568 6.80113,7.80989 16.81337,12.74655 27.9765,12.74655 16.80578,0 31.00132,-11.18472 35.56132,-26.525901 h -1.62234 -1.3531 -5.13622 l 0.43865,-3.177361 h -46.08892 z m -17.362886,3.177361 c 0.357448,1.202418 0.776143,2.377517 1.248656,3.525499 0.67846,-1.175384 1.35726,-2.350032 2.03546,-3.525499 h -0.30868 -1.89621 z m -6.784075,14.512771 c -3.162229,0.044 -6.248525,1.22072 -8.647795,3.36533 l 21.798176,12.59801 c 0.67334,-3.23779 0.10018,-6.59493 -1.54109,-9.4044 -1.1226,-1.92233 -2.7471,-3.59056 -4.811289,-4.78342 -2.143845,-1.23901 -4.490482,-1.80751 -6.798002,-1.77552 z m 0.963178,1.33454 h 0.0024 c 0.984722,0.005 1.958618,0.14399 2.86635,0.44329 -3.021164,-0.13417 -5.714805,0.94936 -8.160395,2.75493 l -1.684998,-0.97247 c 1.85343,-1.36825 4.459194,-2.23908 6.976713,-2.22575 z m 16.429873,2.19557 2.49036,18.00347 c 2.05218,-0.2632 4.08924,-0.64659 6.12957,-1.00032 0.90925,-0.26799 2.15252,-0.47698 2.81994,0.38295 0.95642,3.1274 1.33463,6.4387 1.24634,9.7131 -0.0202,1.44848 -0.26329,3.09401 -1.2092,4.21945 h 28.31534 c 3.71854,0 6.20197,-3.03168 6.71214,-6.71908 l 3.40248,-24.58796 c -1.15186,1.00939 -2.36449,1.94997 -3.62994,2.81298 -9.62156,6.669 -22.45883,8.32667 -33.53048,4.5467 -4.70105,-1.56366 -9.03323,-4.11254 -12.74655,-7.37129 z m -26.74408,1.18138 c -0.896692,3.36551 -8.506041,18.10342 15.58504,26.97616 11.48459,4.22977 16.6879,3.34783 20.82107,2.26987 2.367,-1.60891 0.24138,-11.67428 0.24138,-11.67428 -4.13591,0.72566 -7.81755,1.39529 -10.59272,1.49932 -1.05206,-0.85682 -2.22018,-1.72396 -3.46051,-2.59015 -0.17245,0.95785 -0.0999,1.7139 0.18334,2.30468 -2.1501,-0.64637 -2.72832,-2.42521 -0.9771,-6.1876 z m -2.935986,4.71611 c -3.176727,3.45666 -9.034793,12.22271 -7.54998,17.89902 1.519738,5.80838 12.415102,8.29663 31.186346,6.82587 -1.19412,-0.31819 -4.313054,-0.9389 -5.663074,-1.3415 C 75.785897,134.02383 79.046043,123.9253 79.971634,119.96158 Z m -6.236332,7.07653 c -7.468189,3.5673 -11.39069,9.49957 -10.351354,12.55158 1.548103,4.54637 10.110125,3.30436 12.38681,3.51622 -5.049562,-0.85125 -7.797068,-9.4742 -2.035456,-16.0678 z"
     style="color:#000000;display:inline;overflow:visible;visibility:visible;fill:#ff6600;fill-opacity:1;fill-rule:nonzero;stroke:none;stroke-width:1.18832493;enable-background:accumulate"
     display="inline"
     overflow="visible"
     visibility="visible"
     marker="none"
     id="path2"
     inkscape:connector-curvature="0" />
</svg>
