<?xml version="1.0" encoding="UTF-8" standalone="no"?>
<svg
   xmlns:dc="http://purl.org/dc/elements/1.1/"
   xmlns:cc="http://creativecommons.org/ns#"
   xmlns:rdf="http://www.w3.org/1999/02/22-rdf-syntax-ns#"
   xmlns:svg="http://www.w3.org/2000/svg"
   xmlns="http://www.w3.org/2000/svg"
   xmlns:sodipodi="http://sodipodi.sourceforge.net/DTD/sodipodi-0.dtd"
   xmlns:inkscape="http://www.inkscape.org/namespaces/inkscape"
   version="1.1"
   x="0px"
   y="0px"
   viewBox="0 0 240.99999 180.00001"
   enable-background="new 0 0 64 64"
   xml:space="preserve"
   id="svg16"
   sodipodi:docname="troupeaux.svg"
   width="241"
   height="180"
   inkscape:version="0.92.1 r15371"><metadata
     id="metadata22"><rdf:RDF><cc:Work
         rdf:about=""><dc:format>image/svg+xml</dc:format><dc:type
           rdf:resource="http://purl.org/dc/dcmitype/StillImage" /><dc:title></dc:title></cc:Work></rdf:RDF></metadata><defs
     id="defs20" /><sodipodi:namedview
     pagecolor="#ffffff"
     bordercolor="#666666"
     borderopacity="1"
     objecttolerance="10"
     gridtolerance="10"
     guidetolerance="10"
     inkscape:pageopacity="0"
     inkscape:pageshadow="2"
     inkscape:window-width="1920"
     inkscape:window-height="986"
     id="namedview18"
     showgrid="false"
     units="px"
     fit-margin-top="2"
     fit-margin-left="2"
     fit-margin-right="2"
     fit-margin-bottom="2"
     inkscape:zoom="2.95"
     inkscape:cx="98.857351"
     inkscape:cy="125.42107"
     inkscape:window-x="-11"
     inkscape:window-y="-11"
     inkscape:window-maximized="1"
     inkscape:current-layer="svg16" /><rect
     style="opacity:0.93399999;fill:#cccccc;fill-opacity:1;stroke:none;stroke-width:5;stroke-linejoin:round;stroke-miterlimit:4;stroke-dasharray:none;stroke-dashoffset:0;stroke-opacity:1"
     id="rect4499"
     width="238.98305"
     height="237.62712"
     x="2"
     y="-59.627121" /><path
     inkscape:connector-curvature="0"
     d="m 175.38705,77.068493 c -0.57473,-0.718417 -1.43683,-1.149467 -2.29893,-1.149467 h -21.12146 c 0,-0.143683 0,-0.287367 -0.14368,-0.287367 0,-3.017351 -1.14947,-5.747335 -3.01735,-8.046269 2.15525,-7.61522 3.4484,-17.960423 -0.71842,-26.72511 -0.71842,-1.29315 -2.01157,-2.155251 -3.4484,-2.155251 -1.14947,0 -2.15525,0.431051 -2.87367,1.293151 -0.71842,0.718417 -1.14947,1.724201 -1.00578,2.873668 0.28736,5.603652 0.14368,15.517805 -4.74155,19.97199 H 104.69483 C 99.809592,58.389653 99.665909,48.4755 99.953276,42.871848 c 0,-1.005784 -0.287367,-2.155251 -1.005784,-2.873668 -0.718417,-0.718417 -1.724201,-1.293151 -2.873668,-1.293151 -1.436834,0 -2.873667,0.862101 -3.448401,2.155251 -4.310499,8.764687 -2.873665,19.10989 -0.718417,26.72511 -1.867881,2.298934 -2.873665,5.028918 -3.017348,8.046269 0,0.143684 0,0.287367 -0.143683,0.287367 H 67.624517 c -0.8621,0 -1.7242,0.43105 -2.298934,1.149467 -0.574734,0.718417 -0.718417,1.724201 -0.43105,2.586301 0.8621,2.442617 4.166818,10.63257 14.224655,10.63257 3.161034,0 6.753119,-0.8621 10.63257,-2.586301 l 11.207302,35.346117 c 0.43105,1.58052 0.14368,3.4484 -1.005784,5.02892 -1.293151,1.7242 -1.867884,4.02313 -1.436834,6.17838 0.574733,4.02314 4.310498,7.04049 8.620998,7.04049 h 26.8688 c 4.3105,0 8.04627,-3.01735 8.621,-7.04049 0.28737,-2.15525 -0.14368,-4.45418 -1.43683,-6.17838 -1.14947,-1.58052 -1.58052,-3.4484 -1.00579,-5.02892 l 11.20731,-35.346117 c 3.87945,1.724201 7.47153,2.586301 10.63257,2.586301 9.91415,0 13.36255,-8.189953 14.22465,-10.63257 v 0 c -0.14368,-0.8621 -0.28736,-1.867884 -0.8621,-2.586301 z"
     id="path2-3"
     style="opacity:1;stroke-width:1.43683386;fill:#666666" /><g
     id="g10"
     transform="matrix(0.60886569,0,0,0.60886569,142.37223,96.279009)"
     style="fill:#008000"><g
       id="g8"
       style="fill:#008000"><path
         d="M 34.586,32.586 34,33.172 V 26 c 0,-1.104 -0.896,-2 -2,-2 -1.104,0 -2,0.896 -2,2 v 7.172 l -0.586,-0.586 c -0.78,-0.781 -2.048,-0.781 -2.828,0 -0.781,0.781 -0.781,2.047 0,2.828 l 4,4 C 30.976,39.805 31.488,40 32,40 c 0.512,0 1.023,-0.195 1.414,-0.586 l 4,-4 c 0.781,-0.781 0.781,-2.047 0,-2.828 -0.781,-0.781 -2.047,-0.781 -2.828,0 z"
         id="path2"
         inkscape:connector-curvature="0"
         style="fill:#008000" /><path
         d="m 53.204,26.121 c -0.479,-1.726 -1.167,-3.383 -2.059,-4.951 1.543,-2.329 1.289,-5.505 -0.761,-7.556 -1.134,-1.133 -2.641,-1.757 -4.242,-1.757 -1.197,0 -2.34,0.348 -3.314,0.996 C 41.261,11.962 39.604,11.274 37.879,10.796 37.319,8.062 34.896,6 32,6 c -2.896,0 -5.32,2.062 -5.879,4.796 -1.726,0.478 -3.382,1.166 -4.949,2.057 -0.974,-0.648 -2.117,-0.996 -3.314,-0.996 -1.603,0 -3.11,0.624 -4.243,1.757 -2.05,2.05 -2.304,5.227 -0.761,7.555 -0.891,1.568 -1.58,3.225 -2.058,4.951 C 8.062,26.68 6,29.104 6,32 c 0,2.896 2.062,5.319 4.796,5.879 0.478,1.727 1.167,3.383 2.058,4.951 -1.542,2.328 -1.289,5.505 0.761,7.555 1.133,1.133 2.64,1.757 4.243,1.757 1.196,0 2.339,-0.348 3.313,-0.995 1.568,0.891 3.224,1.579 4.95,2.058 C 26.68,55.938 29.104,58 32,58 c 2.896,0 5.319,-2.062 5.879,-4.796 1.726,-0.479 3.382,-1.167 4.949,-2.058 0.975,0.647 2.117,0.995 3.314,0.995 1.602,0 3.108,-0.624 4.243,-1.757 2.048,-2.05 2.302,-5.226 0.76,-7.555 0.892,-1.568 1.58,-3.225 2.059,-4.951 C 55.938,37.319 58,34.896 58,32 58,29.104 55.938,26.68 53.204,26.121 Z M 52,34 h -0.401 c -0.951,0 -1.771,0.67 -1.96,1.602 -0.457,2.252 -1.341,4.377 -2.626,6.317 -0.524,0.793 -0.419,1.847 0.254,2.519 l 0.289,0.29 c 0.78,0.78 0.78,2.049 0.001,2.828 -0.757,0.756 -2.074,0.755 -2.829,0.001 l -0.29,-0.29 c -0.673,-0.672 -1.724,-0.777 -2.519,-0.254 -1.94,1.285 -4.065,2.169 -6.317,2.626 C 34.67,49.828 34,50.647 34,51.599 V 52 c 0,1.103 -0.897,2 -2,2 -1.103,0 -2,-0.897 -2,-2 v -0.401 c 0,-0.951 -0.67,-1.771 -1.602,-1.96 -2.251,-0.457 -4.377,-1.341 -6.317,-2.626 -0.337,-0.223 -0.721,-0.332 -1.104,-0.332 -0.516,0 -1.028,0.199 -1.415,0.586 l -0.29,0.29 c -0.755,0.754 -2.075,0.754 -2.829,0 -0.78,-0.78 -0.78,-2.049 0,-2.829 l 0.29,-0.29 c 0.673,-0.672 0.778,-1.726 0.253,-2.519 -1.285,-1.94 -2.168,-4.065 -2.625,-6.317 C 14.172,34.67 13.353,34 12.401,34 H 12 c -1.103,0 -2,-0.897 -2,-2 0,-1.103 0.897,-2 2,-2 h 0.401 c 0.951,0 1.771,-0.67 1.96,-1.602 0.458,-2.251 1.341,-4.377 2.625,-6.317 0.525,-0.793 0.419,-1.846 -0.253,-2.518 l -0.29,-0.29 c -0.78,-0.78 -0.78,-2.049 0,-2.829 0.756,-0.755 2.073,-0.755 2.829,0 l 0.29,0.29 c 0.672,0.673 1.727,0.777 2.518,0.253 1.94,-1.285 4.066,-2.168 6.317,-2.625 C 29.33,14.172 30,13.353 30,12.401 V 12 c 0,-1.103 0.897,-2 2,-2 1.103,0 2,0.897 2,2 v 0.401 c 0,0.951 0.67,1.771 1.602,1.96 2.252,0.458 4.377,1.341 6.317,2.625 0.795,0.526 1.846,0.419 2.519,-0.253 l 0.29,-0.29 c 0.754,-0.756 2.071,-0.756 2.829,0 0.779,0.78 0.779,2.049 0,2.829 l -0.29,0.29 c -0.673,0.672 -0.778,1.725 -0.254,2.518 1.285,1.94 2.169,4.066 2.626,6.317 C 49.828,29.33 50.647,30 51.599,30 H 52 c 1.103,0 2,0.897 2,2 0,1.103 -0.897,2 -2,2 z"
         id="path4"
         inkscape:connector-curvature="0"
         style="fill:#008000" /><path
         d="m 32,16 c -8.822,0 -16,7.178 -16,16 0,8.822 7.178,16 16,16 8.822,0 16,-7.178 16,-16 0,-8.822 -7.178,-16 -16,-16 z m 0,28 c -6.617,0 -12,-5.383 -12,-12 0,-6.617 5.383,-12 12,-12 6.617,0 12,5.383 12,12 0,6.617 -5.383,12 -12,12 z"
         id="path6"
         inkscape:connector-curvature="0"
         style="fill:#008000" /></g></g></svg>