<?xml version="1.0" encoding="UTF-8" standalone="no"?>
<svg
   xmlns:dc="http://purl.org/dc/elements/1.1/"
   xmlns:cc="http://creativecommons.org/ns#"
   xmlns:rdf="http://www.w3.org/1999/02/22-rdf-syntax-ns#"
   xmlns:svg="http://www.w3.org/2000/svg"
   xmlns="http://www.w3.org/2000/svg"
   xmlns:sodipodi="http://sodipodi.sourceforge.net/DTD/sodipodi-0.dtd"
   xmlns:inkscape="http://www.inkscape.org/namespaces/inkscape"
   version="1.1"
   x="0px"
   y="0px"
   viewBox="0 0 16 16"
   style="enable-background:new 0 0 16 16;"
   xml:space="preserve"
   id="svg4"
   sodipodi:docname="non.svg"
   inkscape:version="0.92.3 (2405546, 2018-03-11)"><metadata
     id="metadata10"><rdf:RDF><cc:Work
         rdf:about=""><dc:format>image/svg+xml</dc:format><dc:type
           rdf:resource="http://purl.org/dc/dcmitype/StillImage" /><dc:title></dc:title></cc:Work></rdf:RDF></metadata><defs
     id="defs8" /><sodipodi:namedview
     pagecolor="#ffffff"
     bordercolor="#666666"
     borderopacity="1"
     objecttolerance="10"
     gridtolerance="10"
     guidetolerance="10"
     inkscape:pageopacity="0"
     inkscape:pageshadow="2"
     inkscape:window-width="1311"
     inkscape:window-height="613"
     id="namedview6"
     showgrid="false"
     inkscape:zoom="14.75"
     inkscape:cx="0.47457627"
     inkscape:cy="8"
     inkscape:window-x="0"
     inkscape:window-y="27"
     inkscape:window-maximized="0"
     inkscape:current-layer="svg4" /><path
     d="M15.354,1.354l-0.707-0.707L11.87,3.423C10.824,2.537,9.475,2,8,2C4.691,2,2,4.691,2,8c0,1.475,0.537,2.824,1.423,3.87  l-2.776,2.776l0.707,0.707l2.776-2.776C5.175,13.463,6.525,14,8,14c3.309,0,6-2.691,6-6c0-1.475-0.537-2.825-1.423-3.87  L15.354,1.354z M3,8c0-2.757,2.243-5,5-5c1.198,0,2.284,0.441,3.146,1.146l-7,7C3.441,10.284,3,9.198,3,8z M13,8  c0,2.757-2.243,5-5,5c-1.198,0-2.284-0.441-3.146-1.146l7-7C12.559,5.716,13,6.802,13,8z"
     id="path2"
     style="fill:#808080" /></svg>