<?xml version="1.0" encoding="UTF-8" standalone="no"?>
<svg
   xmlns:dc="http://purl.org/dc/elements/1.1/"
   xmlns:cc="http://creativecommons.org/ns#"
   xmlns:rdf="http://www.w3.org/1999/02/22-rdf-syntax-ns#"
   xmlns:svg="http://www.w3.org/2000/svg"
   xmlns="http://www.w3.org/2000/svg"
   xmlns:sodipodi="http://sodipodi.sourceforge.net/DTD/sodipodi-0.dtd"
   xmlns:inkscape="http://www.inkscape.org/namespaces/inkscape"
   version="1.1"
   x="0px"
   y="0px"
   viewBox="0 0 241 100"
   xml:space="preserve"
   id="svg30"
   sodipodi:docname="bsa_trans.svg"
   width="241"
   height="100"
   inkscape:version="0.92.1 r15371"><metadata
     id="metadata36"><rdf:RDF><cc:Work
         rdf:about=""><dc:format>image/svg+xml</dc:format><dc:type
           rdf:resource="http://purl.org/dc/dcmitype/StillImage" /><dc:title></dc:title></cc:Work></rdf:RDF></metadata><defs
     id="defs34" /><sodipodi:namedview
     pagecolor="#ffffff"
     bordercolor="#666666"
     borderopacity="1"
     objecttolerance="10"
     gridtolerance="10"
     guidetolerance="10"
     inkscape:pageopacity="0"
     inkscape:pageshadow="2"
     inkscape:window-width="1920"
     inkscape:window-height="986"
     id="namedview32"
     showgrid="false"
     inkscape:zoom="2.6700352"
     inkscape:cx="-29.579566"
     inkscape:cy="64.078536"
     inkscape:window-x="-11"
     inkscape:window-y="-11"
     inkscape:window-maximized="1"
     inkscape:current-layer="svg30"
     showguides="true"
     inkscape:guide-bbox="true"><sodipodi:guide
       position="-4.2372881,576"
       orientation="0,1"
       id="guide3111"
       inkscape:locked="false"
       inkscape:label=""
       inkscape:color="rgb(0,0,255)" /><sodipodi:guide
       position="-37.605932,87"
       orientation="0,1"
       id="guide3113"
       inkscape:locked="false"
       inkscape:label=""
       inkscape:color="rgb(0,0,255)" /><sodipodi:guide
       position="-40.254237,5.76"
       orientation="0,1"
       id="guide3115"
       inkscape:locked="false"
       inkscape:label=""
       inkscape:color="rgb(0,0,255)" /></sodipodi:namedview><path
     style="fill:#417ebe;stroke-width:0.94408667;fill-opacity:1"
     inkscape:connector-curvature="0"
     id="path2"
     d="m 98.728049,66.950608 c -0.377635,-4.153982 -0.75527,-8.968823 -1.038496,-11.706675 0.283226,0.283226 0.660861,0.566452 0.944087,0.849678 2.36022,2.076991 6.51419,2.454626 9.34646,2.454626 1.32172,0 2.36021,-0.09441 2.83226,-0.09441 1.51054,-0.188818 2.54903,-1.510538 2.45462,-2.926669 -0.18882,-1.510538 -1.51053,-2.549033 -2.92667,-2.454625 -2.54903,0.283227 -6.79741,0 -8.02473,-1.038496 -3.021079,-2.643442 -6.136565,-4.248389 -11.234634,-4.437206 -4.437207,0 -5.286884,1.982581 -5.286884,4.342798 0,3.209894 1.038495,17.087969 1.699355,20.109046 0.660861,2.643443 7.269468,2.171399 10.479362,2.076991 3.209891,-0.0944 6.797421,0.09441 8.496781,0.472043 0.18882,2.832261 -0.0944,9.91291 -0.56645,15.860657 -0.18883,1.888173 1.32172,3.587529 3.20989,3.776346 0.0944,0 0.18882,0 0.28323,0 1.79377,0 3.39871,-1.41613 3.49312,-3.209895 0.84968,-11.234631 0.84968,-18.032055 -0.0944,-20.109046 -1.41613,-2.926669 -5.09807,-3.776347 -14.066892,-3.965164 z" /><circle
     style="fill:#417ebe;stroke-width:0.94411451;fill-opacity:1"
     r="6.8920364"
     id="ellipse4"
     cy="44.56987"
     cx="88.520111"
     transform="rotate(-3.3702185)" /><path
     style="fill:#417ebe;stroke-width:0.94408667;fill-opacity:1"
     inkscape:connector-curvature="0"
     id="path6"
     d="M 101.65472,76.01384 H 85.699652 L 83.056209,50.806725 c -0.0944,-1.227312 -1.227312,-2.171398 -2.454625,-1.982581 -1.227312,0.09441 -2.171399,1.227313 -1.982582,2.454624 l 2.926669,27.189698 c 0.0944,1.132903 1.132904,1.982581 2.265808,1.982581 h 6.986242 v 8.307964 l -5.192477,1.982581 c -0.944087,0.377635 -1.41613,1.41613 -1.132904,2.360218 0.377634,0.944086 1.41613,1.416129 2.360217,1.132903 l 5.66452,-2.076991 5.664519,2.076991 c 0.283227,0 0.472044,0 0.660861,0 0.75527,0 1.416133,-0.472043 1.699353,-1.227313 0.37764,-0.944087 -0.18881,-1.982582 -1.132901,-2.360216 l -5.098067,-1.793765 v -8.307963 h 7.363878 c 1.22731,0 2.26581,-1.038495 2.26581,-2.265808 0,-1.227313 -0.9441,-2.265808 -2.26581,-2.265808 z" /><path
     style="fill:#417ebe;stroke-width:0.94408667;fill-opacity:1"
     inkscape:connector-curvature="0"
     id="path8"
     d="m 140.36227,74.59771 c 1.79377,-0.377635 5.3813,-0.566452 8.49678,-0.472043 3.20989,0.0944 9.8185,0.566452 10.47937,-2.076991 0.75527,-3.021078 1.69935,-16.899152 1.69935,-20.109046 0,-2.360217 -0.75527,-4.342799 -5.28688,-4.342799 -5.19248,0.09441 -8.21356,1.793764 -11.23463,4.437207 -1.22732,1.038496 -5.3813,1.227313 -8.02475,1.038496 -1.51053,-0.188818 -2.83225,0.944087 -2.92667,2.454625 -0.18881,1.510538 0.9441,2.83226 2.45463,2.926669 0.47204,0 1.51054,0.09441 2.83226,0.09441 2.83226,0 6.98624,-0.377635 9.34646,-2.454626 0.37763,-0.283227 0.66086,-0.566452 0.94408,-0.849678 -0.28322,2.737851 -0.66085,7.458285 -1.03848,11.706674 -8.96883,0.188818 -12.65077,1.038496 -13.9725,3.965164 -0.94408,2.076991 -1.03848,8.874415 -0.0944,20.109047 0.18882,1.793765 1.69935,3.209895 3.49312,3.209895 0.0944,0 0.18882,0 0.28323,0 1.88817,-0.188818 3.3987,-1.888173 3.20989,-3.776347 -0.56645,-5.947746 -0.84967,-13.028396 -0.66086,-15.860656 z" /><circle
     style="fill:#417ebe;stroke-width:0.94411546;fill-opacity:1"
     r="6.8920431"
     id="ellipse10"
     cy="157.8114"
     cx="-30.070595"
     transform="rotate(-86.628861)" /><path
     style="fill:#417ebe;stroke-width:0.94408667;fill-opacity:1"
     inkscape:connector-curvature="0"
     id="path12"
     d="m 166.23025,48.824144 c -1.22731,-0.0944 -2.36022,0.755269 -2.45463,1.982581 l -2.64345,25.112707 h -16.04946 c -1.22732,0 -2.26582,1.038495 -2.26582,2.265807 0,1.227313 1.0385,2.265808 2.26582,2.265808 h 7.36388 v 8.307964 l -5.09808,1.793764 c -0.94409,0.377635 -1.41612,1.41613 -1.1329,2.360217 0.28323,0.755269 0.94408,1.227313 1.69936,1.227313 0.18882,0 0.37763,0 0.56645,-0.0944 l 5.66452,-2.076991 5.66452,2.076991 c 0.94408,0.377635 1.98258,-0.188818 2.36021,-1.132904 0.37764,-0.944087 -0.18882,-1.982582 -1.1329,-2.360217 L 155.9397,88.75902 v -8.307964 h 7.08065 c 1.1329,0 2.1714,-0.849678 2.26581,-1.982581 l 2.92667,-27.189697 c 0.0944,-1.227312 -0.75528,-2.360217 -1.98258,-2.454625 z" /><path
     style="fill:#417ebe;stroke-width:0.94408667;fill-opacity:1"
     inkscape:connector-curvature="0"
     id="path14"
     d="m 145.46034,64.307165 v -3.021077 c 0,-0.283227 -0.18882,-0.472043 -0.47205,-0.472043 h -43.23916 c -0.28323,0 -0.47205,0.188816 -0.47205,0.472043 v 3.021077 c 0,0.283226 0.18882,0.472044 0.47205,0.472044 h 15.48302 v 28.605826 c 0,0.283226 0.18881,0.472043 0.47204,0.472043 h 11.32904 c 0.28323,0 0.47205,-0.188817 0.47205,-0.472043 V 64.873617 h 15.48301 c 0.28323,0 0.47205,-0.283226 0.47205,-0.566452 z" /><path
     style="fill:#ff5599;stroke-width:0.94408667"
     inkscape:connector-curvature="0"
     id="path16"
     d="m 132.62076,26.543698 c 0,1.982582 -0.66086,3.776346 -1.88817,5.475702 1.88817,1.038496 4.53162,2.360218 7.08065,2.832261 0.66085,0.09441 1.03849,-0.660861 0.66085,-1.132904 -1.32171,-1.41613 -1.98258,-2.83226 -2.36021,-3.870756 3.11549,-1.699355 5.19248,-4.437207 5.19248,-7.458284 0,-5.192477 -5.75893,-9.346458 -12.83958,-9.346458 -3.58753,0 -6.89183,1.038495 -9.15764,2.832259 3.39871,0.188817 6.5142,1.227313 8.96882,3.021078 2.73785,1.888173 4.3428,4.720433 4.3428,7.647102 z" /><path
     style="fill:#ff9955;stroke-width:0.94408667"
     inkscape:connector-curvature="0"
     id="path18"
     d="m 110.71795,34.096392 c -0.37764,1.038495 -1.0385,2.549034 -2.36022,3.870755 -0.47205,0.472043 0,1.321722 0.66087,1.132904 2.92666,-0.566452 5.85333,-2.1714 7.83591,-3.304303 0.47205,0 1.0385,0.0944 1.51054,0.0944 7.08065,0 12.83958,-4.153982 12.83958,-9.346458 0,-5.192477 -5.75893,-9.346458 -12.83958,-9.346458 -7.08065,0 -12.83957,4.153981 -12.83957,9.346458 0,3.115486 1.98257,5.853337 5.19247,7.552694 z m 13.78366,-9.346459 c 1.0385,0 1.79377,0.849678 1.79377,1.793765 0,1.038495 -0.84968,1.793765 -1.79377,1.793765 -0.94408,0 -1.79376,-0.849678 -1.79376,-1.793765 -0.0944,-0.944087 0.75526,-1.793765 1.79376,-1.793765 z m -6.23097,0 c 1.0385,0 1.79377,0.849678 1.79377,1.793765 0,1.038495 -0.84968,1.793765 -1.79377,1.793765 -1.03849,0 -1.79376,-0.849678 -1.79376,-1.793765 0,-0.944087 0.84968,-1.793765 1.79376,-1.793765 z m -6.13656,0 c 1.0385,0 1.79377,0.849678 1.79377,1.793765 0,1.038495 -0.84969,1.793765 -1.79377,1.793765 -0.94408,0 -1.79377,-0.849678 -1.79377,-1.793765 0,-0.944087 0.84969,-1.793765 1.79377,-1.793765 z" /></svg>