<?xml version="1.0" encoding="UTF-8" standalone="no"?>
<!-- Created with Inkscape (http://www.inkscape.org/) -->

<svg
   xmlns:dc="http://purl.org/dc/elements/1.1/"
   xmlns:cc="http://creativecommons.org/ns#"
   xmlns:rdf="http://www.w3.org/1999/02/22-rdf-syntax-ns#"
   xmlns:svg="http://www.w3.org/2000/svg"
   xmlns="http://www.w3.org/2000/svg"
   xmlns:sodipodi="http://sodipodi.sourceforge.net/DTD/sodipodi-0.dtd"
   xmlns:inkscape="http://www.inkscape.org/namespaces/inkscape"
   width="100"
   height="100"
   viewBox="0 0 26.458333 26.458334"
   version="1.1"
   id="svg826"
   inkscape:version="0.92.3 (2405546, 2018-03-11)"
   sodipodi:docname="CP.svg">
  <defs
     id="defs820" />
  <sodipodi:namedview
     id="base"
     pagecolor="#ffffff"
     bordercolor="#666666"
     borderopacity="1.0"
     inkscape:pageopacity="0.0"
     inkscape:pageshadow="2"
     inkscape:zoom="3.959798"
     inkscape:cx="43.728629"
     inkscape:cy="34.075384"
     inkscape:document-units="mm"
     inkscape:current-layer="layer1"
     showgrid="false"
     units="px"
     inkscape:window-width="1600"
     inkscape:window-height="836"
     inkscape:window-x="0"
     inkscape:window-y="27"
     inkscape:window-maximized="1" />
  <metadata
     id="metadata823">
    <rdf:RDF>
      <cc:Work
         rdf:about="">
        <dc:format>image/svg+xml</dc:format>
        <dc:type
           rdf:resource="http://purl.org/dc/dcmitype/StillImage" />
        <dc:title></dc:title>
      </cc:Work>
    </rdf:RDF>
  </metadata>
  <g
     inkscape:label="Calque 1"
     inkscape:groupmode="layer"
     id="layer1"
     transform="translate(0,-270.54165)">
    <rect
       style="opacity:0.57399998;fill:#cccccc;fill-opacity:1;stroke:none;stroke-width:0.73526651;stroke-linejoin:round;stroke-miterlimit:4;stroke-dasharray:none;stroke-dashoffset:0;stroke-opacity:1"
       id="rect4491"
       width="30.572033"
       height="31.36882"
       x="-1.6629407"
       y="269.02118" />
    <path
       style="fill:#ff8080;stroke-width:0.09035086"
       id="path2-9"
       d="m 22.816773,288.13594 c 0.822192,-0.6957 1.337192,-1.80702 1.337192,-2.99965 0,-0.0632 -0.05422,-0.10836 -0.108419,-0.10836 h -6.333595 c -0.06324,0 -0.108418,0.0542 -0.108418,0.10836 0,1.1836 0.496929,2.30395 1.337192,3.00868 l -0.469824,1.29202 c -0.09035,0.24395 0.03614,0.515 0.280088,0.60535 0.11746,0.0451 0.243947,0.0361 0.361404,-0.0181 0.117461,-0.0542 0.198771,-0.14456 0.243947,-0.27106 l 0.05422,-0.13553 v 0.19878 c 0,0.26201 0.216842,0.46982 0.469824,0.46982 0.252982,0 0.469824,-0.21684 0.469824,-0.46982 v -1.00291 c 0.171668,0.0271 0.343334,0.0451 0.524036,0.0451 0.171666,0 0.352367,-0.0181 0.524035,-0.0451 v 1.00291 c 0,0.26201 0.216842,0.46982 0.469824,0.46982 0.252982,0 0.469824,-0.21684 0.469824,-0.46982 v -0.19878 l 0.05421,0.13553 c 0.04517,0.11739 0.126491,0.21684 0.243948,0.27106 0.06325,0.0271 0.135526,0.0452 0.198772,0.0452 0.05422,0 0.108419,-0.009 0.162632,-0.0271 0.243947,-0.0903 0.370438,-0.3614 0.280087,-0.60535 z"
       inkscape:connector-curvature="0" />
    <path
       style="fill:#0000ff;stroke-width:0.09035086"
       id="path4-1"
       d="m 20.783878,290.41278 c -0.03614,0.0451 -0.930613,1.21974 -0.930613,2.53886 0,0.515 0.388508,0.83123 1.011929,0.83123 0.623421,0 1.011929,-0.31623 1.011929,-0.83123 0,-1.31912 -0.885438,-2.49369 -0.930613,-2.53886 -0.0271,-0.0632 -0.117461,-0.0632 -0.162632,0 z"
       inkscape:connector-curvature="0" />
    <g
       transform="matrix(0.18460791,0,0,0.18460791,-2.3929442,269.50635)"
       id="g4501"
       style="fill:#241c1c">
      <g
         id="g8"
         style="fill:#241c1c">
        <path
           inkscape:connector-curvature="0"
           id="path2-1"
           d="m 126.676,55.16 c -0.268,-0.398 -6.676,-9.749 -14.951,-9.749 -4.107,0 -7.984,1.14 -10.807,3.118 -0.693,-1.765 -1.551,-3.427 -2.525,-5 0.16,-0.359 0.293,-0.734 0.371,-1.137 2.754,-13.979 12.049,-31.574 12.143,-31.75 0.307,-0.579 0.203,-1.291 -0.258,-1.758 -0.461,-0.467 -1.17,-0.579 -1.754,-0.28 -0.953,0.492 -18.922,9.905 -24.258,22.927 -3.898,-1.729 -8.189,-2.692 -12.678,-2.692 -4.488,0 -8.78,0.963 -12.679,2.692 C 53.944,18.51 35.977,9.097 35.022,8.604 34.437,8.305 33.729,8.417 33.268,8.884 c -0.461,0.467 -0.564,1.179 -0.257,1.758 0.093,0.176 9.389,17.771 12.142,31.75 0.079,0.402 0.212,0.777 0.371,1.137 -0.974,1.573 -1.832,3.235 -2.525,5 -2.822,-1.979 -6.698,-3.118 -10.807,-3.118 -8.274,0 -14.683,9.351 -14.951,9.749 -0.343,0.507 -0.343,1.171 0,1.678 0.269,0.398 6.677,9.749 14.951,9.749 3.28,0 6.379,-0.705 8.954,-2.014 l 3.471,25.98 c 0.04,10.755 6.555,20.229 14.064,25.797 1.115,7.173 10.052,18.071 12.133,20.526 0.283,0.334 0.697,0.527 1.135,0.53 0.004,0 0.007,0 0.01,0 0.434,0 0.846,-0.188 1.131,-0.516 2.18,-2.508 11.484,-13.582 12.336,-20.685 7.43,-5.585 13.834,-14.989 13.875,-25.653 l 3.471,-25.98 c 2.574,1.309 5.674,2.014 8.953,2.014 8.275,0 14.684,-9.351 14.951,-9.749 0.344,-0.506 0.344,-1.17 0,-1.677 z M 105.971,13.795 c -2.867,5.963 -7.656,16.769 -9.832,26.532 -2.447,-3.023 -5.436,-5.543 -8.799,-7.447 3.34,-8.408 12.965,-15.495 18.631,-19.085 z M 37.944,13.791 c 5.668,3.587 15.299,10.673 18.636,19.087 -3.364,1.904 -6.353,4.424 -8.801,7.449 -2.177,-9.766 -6.966,-20.575 -9.835,-26.536 z m 34.029,119.782 c -3.683,-4.542 -7.721,-10.463 -9.507,-14.799 3.048,1.666 6.106,2.646 8.842,2.783 0.198,0.096 0.417,0.154 0.651,0.154 0.234,0 0.453,-0.059 0.651,-0.154 2.822,-0.141 5.99,-1.178 9.135,-2.94 -1.746,4.306 -5.985,10.394 -9.772,14.956 z m 39.752,-69.986 c -3.531,0 -6.904,-0.983 -9.252,-2.699 -0.426,-0.313 -0.986,-0.375 -1.473,-0.169 -0.486,0.208 -0.828,0.657 -0.898,1.182 l -3.787,28.354 c -0.01,0.065 -0.014,0.132 -0.014,0.198 0,14.469 -13.443,26.786 -22.842,28.021 V 103.97 h 3.234 c 0.828,0 1.5,-0.672 1.5,-1.5 0,-0.828 -0.672,-1.5 -1.5,-1.5 h -9.469 c -0.828,0 -1.5,0.672 -1.5,1.5 0,0.828 0.672,1.5 1.5,1.5 h 3.234 v 14.504 C 61.06,117.239 47.616,104.921 47.616,90.453 c 0,-0.066 -0.005,-0.133 -0.014,-0.198 L 43.815,61.9 c -0.069,-0.524 -0.411,-0.974 -0.897,-1.182 -0.189,-0.08 -0.39,-0.12 -0.589,-0.12 -0.313,0 -0.624,0.098 -0.885,0.289 -2.348,1.716 -5.72,2.699 -9.252,2.699 -5.396,0 -10.178,-5.454 -11.842,-7.588 1.664,-2.134 6.445,-7.588 11.842,-7.588 4.26,0 8.158,1.385 10.428,3.705 0.368,0.377 0.912,0.532 1.421,0.41 0.514,-0.123 0.924,-0.506 1.082,-1.009 3.703,-11.771 14.487,-19.679 26.836,-19.679 12.348,0 23.133,7.908 26.836,19.679 0.158,0.503 0.568,0.886 1.082,1.009 0.51,0.12 1.051,-0.033 1.42,-0.41 2.27,-2.32 6.168,-3.705 10.428,-3.705 5.398,0 10.18,5.457 11.844,7.589 -1.658,2.135 -6.428,7.588 -11.844,7.588 z"
           style="fill:#241c1c" />
        <circle
           id="circle4"
           r="3.9170001"
           cy="70.549004"
           cx="52.244999"
           style="fill:#241c1c" />
        <circle
           id="circle6"
           r="3.9170001"
           cy="70.549004"
           cx="92.171997"
           style="fill:#241c1c" />
      </g>
    </g>
  </g>
</svg>
