<?xml version="1.0" encoding="UTF-8" standalone="no"?>
<svg
   xmlns:dc="http://purl.org/dc/elements/1.1/"
   xmlns:cc="http://creativecommons.org/ns#"
   xmlns:rdf="http://www.w3.org/1999/02/22-rdf-syntax-ns#"
   xmlns:svg="http://www.w3.org/2000/svg"
   xmlns="http://www.w3.org/2000/svg"
   xmlns:sodipodi="http://sodipodi.sourceforge.net/DTD/sodipodi-0.dtd"
   xmlns:inkscape="http://www.inkscape.org/namespaces/inkscape"
   version="1.1"
   x="0px"
   y="0px"
   viewBox="0 0 241 100"
   xml:space="preserve"
   id="svg26"
   sodipodi:docname="factures.svg"
   width="241"
   height="100"
   inkscape:version="0.92.3 (2405546, 2018-03-11)"><metadata
     id="metadata32"><rdf:RDF><cc:Work
         rdf:about=""><dc:format>image/svg+xml</dc:format><dc:type
           rdf:resource="http://purl.org/dc/dcmitype/StillImage" /><dc:title></dc:title></cc:Work></rdf:RDF></metadata><defs
     id="defs30" /><sodipodi:namedview
     pagecolor="#ffffff"
     bordercolor="#666666"
     borderopacity="1"
     objecttolerance="10"
     gridtolerance="10"
     guidetolerance="10"
     inkscape:pageopacity="0"
     inkscape:pageshadow="2"
     inkscape:window-width="1600"
     inkscape:window-height="836"
     id="namedview28"
     showgrid="false"
     inkscape:zoom="2.95"
     inkscape:cx="125.43573"
     inkscape:cy="80.719299"
     inkscape:window-x="0"
     inkscape:window-y="27"
     inkscape:window-maximized="1"
     inkscape:current-layer="svg26"
     showguides="true"
     inkscape:guide-bbox="true"><sodipodi:guide
       position="-18.983051,5.76"
       orientation="0,1"
       id="guide1419"
       inkscape:locked="false"
       inkscape:label=""
       inkscape:color="rgb(0,0,255)" /><sodipodi:guide
       position="94.576271,87"
       orientation="0,1"
       id="guide1978"
       inkscape:locked="false"
       inkscape:label=""
       inkscape:color="rgb(0,0,255)" /></sodipodi:namedview><rect
     style="opacity:0.57399998;fill:#b3b3b3;fill-opacity:1;stroke:none;stroke-width:4.15002537;stroke-linejoin:round;stroke-miterlimit:4;stroke-dasharray:none;stroke-dashoffset:0;stroke-opacity:1"
     id="rect4491"
     width="257.6907"
     height="118.55932"
     x="-7.0340266"
     y="-6.9799061" /><path
     inkscape:connector-curvature="0"
     id="path2"
     d="m 155.40115,35.693875 c -0.72374,0 -1.43909,0.03671 -2.14499,0.109085 -1.32685,0.135308 -2.61385,0.404873 -3.85679,0.776182 -8.65232,2.588671 -14.9803,10.612711 -14.9803,20.095764 0,9.483052 6.32798,17.507093 14.9803,20.095764 1.24294,0.371308 2.52889,0.640874 3.85679,0.776182 0.70486,0.07237 1.42125,0.109085 2.14499,0.109085 11.57035,0 20.98208,-9.411728 20.98208,-20.981031 0,-11.569303 -9.41278,-20.981031 -20.98208,-20.981031 z m -2.14499,16.427781 h 8.2055 l -0.71535,3.33863 h -7.49015 -1.7611 v 2.957882 h 1.7611 6.9185 l -0.71534,3.33863 h -6.20316 -1.7611 v 0.523399 c 0,2.036952 0.41956,3.499111 1.26392,4.388573 0.14265,0.15209 0.32306,0.272712 0.49718,0.39858 0.84855,0.613603 2.04324,0.937711 3.62603,0.937711 1.17685,0 2.34532,-0.08706 3.5054,-0.262223 1.16008,-0.176215 2.15338,-0.340891 2.98096,-0.501372 l 0.0954,3.577778 c -1.04995,0.190899 -2.13765,0.363967 -3.26626,0.525496 -1.12861,0.158383 -2.2331,0.23705 -3.31555,0.23705 -1.39084,0 -2.5698,-0.165725 -3.62603,-0.425851 -0.24754,-0.06084 -0.53074,-0.0944 -0.76045,-0.168872 -1.20833,-0.397531 -2.18694,-1.001694 -2.93376,-1.812489 -0.0629,-0.06818 -0.10174,-0.158383 -0.16153,-0.228659 -0.65241,-0.773035 -1.15273,-1.692915 -1.46006,-2.800547 -0.33459,-1.206229 -0.49927,-2.605454 -0.49927,-4.195577 v -0.190899 h -3.95853 l 0.71535,-3.33863 h 3.24318 v -2.957882 h -3.67323 l 0.71535,-3.33863 h 2.95788 v -0.715346 c 0,-3.06382 0.66814,-5.361947 1.95933,-6.949973 0.0755,-0.09335 0.13007,-0.210828 0.21083,-0.298935 0.85695,-0.942956 2.10094,-1.571243 3.64596,-1.955138 1.06043,-0.263273 2.24148,-0.430047 3.62602,-0.430047 1.08141,0 2.18695,0.08076 3.31556,0.239148 1.12861,0.158383 2.21631,0.334597 3.26626,0.524447 l -0.0954,3.480231 c -0.82758,-0.158383 -1.82088,-0.324108 -2.98096,-0.499274 -1.16008,-0.175165 -2.32855,-0.262223 -3.50541,-0.262223 -1.58278,0 -2.77747,0.324108 -3.62602,0.937711 -0.17412,0.125867 -0.35453,0.24649 -0.49718,0.39858 -0.84436,0.889462 -1.26392,2.369452 -1.26392,4.434725 v 1.096094 h 1.76005 z"
     style="fill:none;stroke-width:1.04889417" /><rect
     id="rect4"
     height="4.0487313"
     width="22.829182"
     y="61.239693"
     x="101.41666"
     style="stroke-width:1.04889417" /><rect
     id="rect6"
     height="3.8567841"
     width="3.409955"
     y="61.336193"
     x="94.877853"
     style="stroke-width:1.04889417" /><rect
     id="rect8"
     height="3.8567841"
     width="3.409955"
     y="70.980774"
     x="94.877853"
     style="stroke-width:1.04889417" /><rect
     id="rect10"
     height="4.0487313"
     width="22.829182"
     y="51.596161"
     x="101.41666"
     style="stroke-width:1.04889417" /><path
     inkscape:connector-curvature="0"
     id="path12"
     d="m 154.48915,46.589788 c 0.16927,-0.152089 0.38335,-0.272712 0.58996,-0.39858 1.00689,-0.613603 2.42453,-0.937711 4.30266,-0.937711 1.39647,0 2.78297,0.08706 4.15952,0.262224 1.37656,0.176214 2.55521,0.34089 3.53722,0.499273 l 0.1132,-3.480231 c -1.24587,-0.190899 -2.53654,-0.366064 -3.87575,-0.524447 -1.33922,-0.158383 -2.6498,-0.239148 -3.93425,-0.239148 -1.64415,0 -3.04435,0.166774 -4.30266,0.430047 -1.83333,0.383895 -3.30821,1.013232 -4.32631,1.955139 -0.0959,0.08811 -0.16055,0.205583 -0.25016,0.298935 -1.53213,1.588025 -2.32496,3.886153 -2.32496,6.949972 v 0.715346 h -3.50983 l -0.84884,3.338631 h 4.35867 v 2.957881 h -3.84837 l -0.84884,3.33863 h 4.69721 v 0.190899 c 0,1.590124 0.19541,2.989349 0.59243,4.195577 0.36344,1.107632 0.95712,2.027512 1.73253,2.800548 0.071,0.07132 0.11818,0.161529 0.19166,0.228658 0.88618,0.810796 2.04741,1.41391 3.48121,1.81249 0.27133,0.07552 0.60862,0.108036 0.90235,0.168872 1.25334,0.260125 2.65229,0.425851 4.30267,0.425851 1.2832,0 2.59503,-0.07867 3.93424,-0.23705 1.33921,-0.160481 2.62989,-0.334598 3.87576,-0.525496 l -0.11332,-3.577779 c -0.98201,0.160481 -2.16067,0.326207 -3.53722,0.501372 -1.37655,0.175165 -2.76306,0.262223 -4.15952,0.262223 -1.87814,0 -3.29576,-0.324108 -4.30267,-0.937711 -0.20661,-0.125867 -0.42068,-0.24649 -0.58995,-0.39858 -1.00192,-0.889462 -1.49976,-2.351621 -1.49976,-4.388573 v -0.523398 h 2.08971 7.3607 l 0.84884,-3.338631 h -8.20954 -2.08971 V 55.45714 h 2.08971 8.88785 l 0.84883,-3.33863 h -9.73668 -2.08971 v -1.096095 c 0.001,-2.064224 0.49908,-3.543165 1.501,-4.432627 z"
     style="stroke-width:1.14257467" /><rect
     id="rect14"
     height="3.8567841"
     width="3.409955"
     y="51.692657"
     x="94.877853"
     style="stroke-width:1.04889417" /><path
     inkscape:connector-curvature="0"
     id="path16"
     d="m 157.89855,31.837091 c -0.65097,0 -1.29156,0.0472 -1.92932,0.109085 V 13 h -45.12161 l -8.50129,8.10061 -7.016322,7.517425 V 94.240003 H 155.96923 V 81.403636 c 0.63681,0.06083 1.27835,0.109085 1.92932,0.109085 12.31842,0 22.34146,-11.141355 22.34146,-24.837815 0,-13.696461 -10.02304,-24.837815 -22.34146,-24.837815 z m -53.25685,-7.844679 5.11342,-4.871065 v 11.12667 H 98.807506 Z m 47.85852,66.391856 H 98.799015 V 34.103752 H 113.22412 V 16.856784 h 39.27704 v 15.744951 c -9.71548,2.694609 -16.94313,12.449325 -16.94313,24.073171 0,11.623845 7.22765,21.378562 16.94219,24.07422 z m 5.39833,-12.728331 c -0.65097,0 -1.29439,-0.03671 -1.92932,-0.109085 -1.19344,-0.135308 -2.35104,-0.404874 -3.46901,-0.776182 -7.78238,-2.588671 -13.47412,-10.612712 -13.47412,-20.095764 0,-9.483053 5.69174,-17.507093 13.47412,-20.095764 1.11797,-0.371309 2.27462,-0.640874 3.46901,-0.776182 0.63399,-0.07237 1.27835,-0.109085 1.92932,-0.109085 10.40702,0 18.87246,9.411728 18.87246,20.981031 0,11.569303 -8.46638,20.981031 -18.87246,20.981031 z"
     style="stroke-width:0.99476749" /><rect
     id="rect18"
     height="4.0487313"
     width="28.615931"
     y="70.885323"
     x="101.41666"
     style="stroke-width:1.04889417" /></svg>