<?xml version="1.0" encoding="UTF-8" standalone="no"?>
<svg
   xmlns:dc="http://purl.org/dc/elements/1.1/"
   xmlns:cc="http://creativecommons.org/ns#"
   xmlns:rdf="http://www.w3.org/1999/02/22-rdf-syntax-ns#"
   xmlns:svg="http://www.w3.org/2000/svg"
   xmlns="http://www.w3.org/2000/svg"
   xmlns:sodipodi="http://sodipodi.sourceforge.net/DTD/sodipodi-0.dtd"
   xmlns:inkscape="http://www.inkscape.org/namespaces/inkscape"
   data-name="300%"
   viewBox="0 0 81.587784 31.388227"
   x="0px"
   y="0px"
   version="1.1"
   id="svg8"
   sodipodi:docname="lien.svg"
   inkscape:version="0.92.1 r15371"
   width="81.587784"
   height="31.388227">
  <metadata
     id="metadata14">
    <rdf:RDF>
      <cc:Work
         rdf:about="">
        <dc:format>image/svg+xml</dc:format>
        <dc:type
           rdf:resource="http://purl.org/dc/dcmitype/StillImage" />
        <dc:title>essentials</dc:title>
      </cc:Work>
    </rdf:RDF>
  </metadata>
  <defs
     id="defs12" />
  <sodipodi:namedview
     pagecolor="#ffffff"
     bordercolor="#666666"
     borderopacity="1"
     objecttolerance="10"
     gridtolerance="10"
     guidetolerance="10"
     inkscape:pageopacity="0"
     inkscape:pageshadow="2"
     inkscape:window-width="1920"
     inkscape:window-height="986"
     id="namedview10"
     showgrid="false"
     inkscape:zoom="4.72"
     inkscape:cx="42.163855"
     inkscape:cy="45.048437"
     inkscape:window-x="-11"
     inkscape:window-y="-11"
     inkscape:window-maximized="1"
     inkscape:current-layer="svg8"
     fit-margin-top="0"
     fit-margin-left="50"
     fit-margin-right="0"
     fit-margin-bottom="0" />
  <title
     id="title2">essentials</title>
  <path
     d="m 81.519829,1.1844171 a 0.19740284,0.19740284 0 0 1 -0.0658,-0.1316019 c -0.0658,-0.13160194 -0.0658,-0.19740289 -0.131602,-0.26320383 V 0.65800947 L 80.796018,0.13160189 H 80.664416 L 80.401213,0 H 67.306824 a 1.9740285,1.9740285 0 0 0 0,3.9480569 h 7.567109 L 66.122407,12.50218 a 1.9082275,1.9082275 0 0 0 0,2.76364 1.9740284,1.9740284 0 0 0 1.38182,0.592208 1.7766256,1.7766256 0 0 0 1.38182,-0.592208 l 8.751526,-8.7515263 v 7.5671093 a 1.9740285,1.9740285 0 0 0 3.948057,0 V 1.7766256 a 0.85541231,0.85541231 0 0 0 -0.0658,-0.3948057 z"
     id="path4"
     style="fill:#666666;stroke-width:0.65800947"
     inkscape:connector-curvature="0" />
  <path
     d="M 74.215924,27.438995 H 53.949233 V 7.2381041 h 6.645895 V 3.2900474 H 51.975204 A 1.9082275,1.9082275 0 0 0 50.001176,5.2640757 V 29.413024 a 1.9082275,1.9082275 0 0 0 1.974028,1.974028 H 76.189952 A 1.9740284,1.9740284 0 0 0 78.16398,29.413024 V 20.7931 h -3.948056 z"
     id="path6"
     style="fill:#666666;stroke-width:0.65800947"
     inkscape:connector-curvature="0" />
</svg>
