<?xml version="1.0" encoding="UTF-8" standalone="no"?>
<svg
   xmlns:dc="http://purl.org/dc/elements/1.1/"
   xmlns:cc="http://creativecommons.org/ns#"
   xmlns:rdf="http://www.w3.org/1999/02/22-rdf-syntax-ns#"
   xmlns:svg="http://www.w3.org/2000/svg"
   xmlns="http://www.w3.org/2000/svg"
   xmlns:sodipodi="http://sodipodi.sourceforge.net/DTD/sodipodi-0.dtd"
   xmlns:inkscape="http://www.inkscape.org/namespaces/inkscape"
   version="1.1"
   x="0px"
   y="0px"
   viewBox="0 0 241 100"
   xml:space="preserve"
   id="svg26"
   sodipodi:docname="ordonnances.svg"
   width="241"
   height="100"
   inkscape:version="0.92.3 (2405546, 2018-03-11)"><metadata
     id="metadata32"><rdf:RDF><cc:Work
         rdf:about=""><dc:format>image/svg+xml</dc:format><dc:type
           rdf:resource="http://purl.org/dc/dcmitype/StillImage" /><dc:title></dc:title></cc:Work></rdf:RDF></metadata><defs
     id="defs30" /><sodipodi:namedview
     pagecolor="#ffffff"
     bordercolor="#666666"
     borderopacity="1"
     objecttolerance="10"
     gridtolerance="10"
     guidetolerance="10"
     inkscape:pageopacity="0"
     inkscape:pageshadow="2"
     inkscape:window-width="1600"
     inkscape:window-height="836"
     id="namedview28"
     showgrid="false"
     inkscape:zoom="2.085965"
     inkscape:cx="46.507243"
     inkscape:cy="-5.9809477"
     inkscape:window-x="0"
     inkscape:window-y="27"
     inkscape:window-maximized="1"
     inkscape:current-layer="svg26" /><rect
     style="opacity:0.57399998;fill:#b3b3b3;fill-opacity:1;stroke:none;stroke-width:4.15002537;stroke-linejoin:round;stroke-miterlimit:4;stroke-dasharray:none;stroke-dashoffset:0;stroke-opacity:1"
     id="rect4491"
     width="257.6907"
     height="118.55932"
     x="-7.0340266"
     y="-6.9799061" /><g
     id="g868"
     transform="translate(8)"><path
       d="m 96.166389,31.904709 h 2.981057 v 2.981057 c 0,1.086553 0.877604,1.964154 1.964154,1.964154 1.08655,0 1.96415,-0.877601 1.96415,-1.964154 v -2.981057 h 2.98106 c 1.08655,0 1.96415,-0.8776 1.96415,-1.964154 0,-1.086553 -0.8776,-1.964154 -1.96415,-1.964154 h -2.96713 v -2.994986 c 0,-1.086553 -0.8776,-1.964154 -1.96415,-1.964154 -1.08655,0 -1.964154,0.877601 -1.964154,1.964154 v 2.981056 h -2.994987 c -1.086553,0 -1.964154,0.877601 -1.964154,1.964154 0,1.086553 0.877601,1.978084 1.964154,1.978084 z"
       id="path2"
       inkscape:connector-curvature="0"
       style="fill:#ff2a2a;stroke-width:0.1393017" /><path
       d="m 95.929576,47.687592 h 28.111084 c 1.08655,0 1.96415,-0.877601 1.96415,-1.964154 0,-1.086553 -0.8776,-1.964154 -1.96415,-1.964154 H 95.929576 c -1.086553,0 -1.964154,0.877601 -1.964154,1.964154 0,1.086553 0.877601,1.964154 1.964154,1.964154 z"
       id="path4"
       inkscape:connector-curvature="0"
       style="fill:#008000;stroke-width:0.1393017" /><path
       d="m 95.929576,60.893393 h 17.524154 c 1.08655,0 1.96415,-0.877601 1.96415,-1.964154 0,-1.086553 -0.8776,-1.964154 -1.96415,-1.964154 H 95.929576 c -1.086553,0 -1.964154,0.877601 -1.964154,1.964154 0,1.086553 0.877601,1.964154 1.964154,1.964154 z"
       id="path6"
       inkscape:connector-curvature="0"
       style="fill:#008000;stroke-width:0.1393017" /><path
       d="M 126.56202,70.156956 H 95.929576 c -1.086553,0 -1.964154,0.877601 -1.964154,1.964154 0,1.086553 0.877601,1.964154 1.964154,1.964154 h 30.632444 c 1.08655,0 1.96415,-0.877601 1.96415,-1.964154 0,-1.086553 -0.8776,-1.964154 -1.96415,-1.964154 z"
       id="path8"
       inkscape:connector-curvature="0"
       style="fill:#008000;stroke-width:0.1393017" /><path
       d="m 112.49255,34.495721 h 14.06947 c 1.08655,0 1.96415,-0.877601 1.96415,-1.964154 0,-1.086553 -0.8776,-1.964154 -1.96415,-1.964154 h -14.06947 c -1.08655,0 -1.96416,0.877601 -1.96416,1.964154 0,1.086553 0.87761,1.964154 1.96416,1.964154 z"
       id="path10"
       inkscape:connector-curvature="0"
       style="fill:#008000;stroke-width:0.1393017" /><path
       d="m 154.01839,31.9465 c -2.61888,-2.869615 -6.81186,-2.563151 -9.26357,-0.111441 l -7.39692,7.229758 V 20.52376 c 0,-3.259659 -2.6328,-5.906392 -5.89246,-5.906392 H 91.012226 c -3.245729,0 -5.892462,2.646733 -5.892462,5.906392 v 58.96641 c 0,3.24573 2.646733,5.892462 5.892462,5.892462 h 40.453214 c 3.24573,0 5.89246,-2.646732 5.89246,-5.906392 V 57.38299 l 16.54904,-16.172927 c 2.59102,-2.521361 2.63281,-6.686482 0.11145,-9.263563 z m -20.5888,47.52974 c 0,1.086553 -0.8776,1.964154 -1.96415,1.964154 H 91.012226 c -1.086553,0 -1.964154,-0.877601 -1.964154,-1.964154 V 20.52376 c 0,-1.086553 0.877601,-1.964153 1.964154,-1.964153 h 40.453214 c 1.08655,0 1.96415,0.8776 1.96415,1.964153 v 22.385784 l -13.69335,13.386893 c -0.37612,0.362184 -0.58507,0.863671 -0.599,1.379087 l -0.0836,6.491459 c -0.0139,1.086553 0.86367,1.978084 1.93629,1.992014 l 6.47753,0.06965 c 0.0139,0 0.0139,0 0.0279,0 0.51542,0 1.00297,-0.195022 1.37909,-0.557207 l 4.54123,-4.443724 V 79.47624 Z m -6.71434,-17.18983 -3.70542,-0.04179 0.0418,-3.705426 20.64451,-20.170886 3.66363,3.747216 z m 24.44745,-23.890241 -0.98904,0.961181 -3.66364,-3.747215 0.98905,-0.975112 c 1.00297,-0.975112 2.71638,-0.961182 3.70542,0.04179 1.0169,1.044763 0.98904,2.702453 -0.0418,3.719356 z"
       id="path12"
       inkscape:connector-curvature="0"
       style="fill:#008000;stroke-width:0.1393017" /></g></svg>