<?xml version="1.0" encoding="UTF-8" standalone="no"?>
<svg
   xmlns:sketch="http://www.bohemiancoding.com/sketch/ns"
   xmlns:dc="http://purl.org/dc/elements/1.1/"
   xmlns:cc="http://creativecommons.org/ns#"
   xmlns:rdf="http://www.w3.org/1999/02/22-rdf-syntax-ns#"
   xmlns:svg="http://www.w3.org/2000/svg"
   xmlns="http://www.w3.org/2000/svg"
   xmlns:sodipodi="http://sodipodi.sourceforge.net/DTD/sodipodi-0.dtd"
   xmlns:inkscape="http://www.inkscape.org/namespaces/inkscape"
   viewBox="0 0 30 30"
   version="1.1"
   x="0px"
   y="0px"
   id="svg28"
   sodipodi:docname="PDF_send.svg"
   inkscape:version="0.92.3 (2405546, 2018-03-11)">
  <metadata
     id="metadata34">
    <rdf:RDF>
      <cc:Work
         rdf:about="">
        <dc:format>image/svg+xml</dc:format>
        <dc:type
           rdf:resource="http://purl.org/dc/dcmitype/StillImage" />
        <dc:title>email_040-attachment-send-file-pdf-document</dc:title>
      </cc:Work>
    </rdf:RDF>
  </metadata>
  <defs
     id="defs32" />
  <sodipodi:namedview
     pagecolor="#ffffff"
     bordercolor="#666666"
     borderopacity="1"
     objecttolerance="10"
     gridtolerance="10"
     guidetolerance="10"
     inkscape:pageopacity="0"
     inkscape:pageshadow="2"
     inkscape:window-width="1600"
     inkscape:window-height="836"
     id="namedview30"
     showgrid="false"
     inkscape:snap-global="false"
     inkscape:zoom="5.5625733"
     inkscape:cx="35.803567"
     inkscape:cy="9.3106751"
     inkscape:window-x="0"
     inkscape:window-y="27"
     inkscape:window-maximized="1"
     inkscape:current-layer="svg28" />
  <title
     id="title2">email_040-attachment-send-file-pdf-document</title>
  <desc
     id="desc4">Created with Sketch.</desc>
  <path
     style="fill:#b80000;fill-rule:evenodd;stroke:none;stroke-width:1;fill-opacity:1"
     inkscape:connector-curvature="0"
     id="path6"
     sketch:type="MSShapeGroup"
     d="m 15.112963,10.071906 c 0.09578,-0.2066465 0.191483,-0.4280991 0.281091,-0.6564563 0.09744,-0.2483238 0.181904,-0.490368 0.249622,-0.7218801 0.135052,-0.461709 0.199142,-0.8614385 0.169643,-1.1986136 -0.103584,-1.1839764 -0.759487,-1.9411931 -1.668603,-1.8616558 -0.90927,0.079551 -1.426144,0.9398481 -1.322595,2.1233541 0.02711,0.3098117 0.141421,0.6573892 0.32531,1.0465286 0.09886,0.2092084 0.216503,0.4268941 0.349085,0.6501877 0.139988,0.2357688 0.289279,0.4656687 0.438594,0.6812434 0.09001,0.129958 0.160776,0.227262 0.202871,0.282976 0.22259,0.294609 0.676755,0.254605 0.844418,-0.07438 0.02717,-0.05332 0.07272,-0.146495 0.130564,-0.271306 z M 14.051564,8.3759326 C 13.913806,8.0844116 13.833165,7.839223 13.818315,7.669494 c -0.06032,-0.6894443 0.135689,-1.0156888 0.413556,-1.0399991 0.27671,-0.024209 0.524855,0.2622658 0.585253,0.9526169 0.01645,0.1879861 -0.03004,0.4779373 -0.133231,0.8307169 -0.05867,0.2005749 -0.231623,0.6928231 -0.231623,0.6928231 0,0 -0.316381,-0.5512751 -0.400706,-0.7297192 z" />
  <path
     style="fill:#b80000;fill-rule:evenodd;stroke:none;stroke-width:1;fill-opacity:1"
     inkscape:connector-curvature="0"
     id="path8"
     sketch:type="MSShapeGroup"
     d="m 12.190532,14.418527 c -0.224211,0.04007 -0.460509,0.0887 -0.698965,0.146272 -0.259306,0.06261 -0.506022,0.132257 -0.734507,0.209575 -0.455672,0.154198 -0.8198727,0.330974 -1.0791503,0.548534 -0.9104427,0.763952 -1.1545081,1.735558 -0.5679068,2.434641 0.586699,0.699202 1.5878811,0.629154 2.4979581,-0.134499 0.238235,-0.199905 0.457386,-0.492909 0.670676,-0.866743 0.114668,-0.20098 0.22551,-0.422206 0.332376,-0.658886 0.112837,-0.249903 0.215529,-0.50406 0.306474,-0.75002 0.05483,-0.148275 0.09394,-0.262052 0.11544,-0.328491 0.113656,-0.351315 -0.179612,-0.7004 -0.545267,-0.649044 -0.05926,0.0083 -0.161711,0.02446 -0.297129,0.04866 z m -0.780467,1.842218 c -0.159785,0.280055 -0.314379,0.486746 -0.444895,0.596263 -0.53016,0.444862 -0.909831,0.471426 -1.0891233,0.257754 -0.178546,-0.212782 -0.086209,-0.580366 0.4446513,-1.02581 0.144555,-0.121297 0.408734,-0.249525 0.756902,-0.367343 0.197952,-0.06699 0.70038,-0.207653 0.70038,-0.207653 0,0 -0.270109,0.575363 -0.367915,0.746789 z" />
  <path
     style="fill:#b80000;fill-rule:evenodd;stroke:none;stroke-width:1;fill-opacity:1"
     inkscape:connector-curvature="0"
     id="path10"
     sketch:type="MSShapeGroup"
     d="m 17.122366,14.141351 c 0.149825,0.17155 0.313206,0.349052 0.485374,0.523794 0.187223,0.190019 0.373986,0.365628 0.55794,0.521656 0.366861,0.31117 0.705964,0.532304 1.025987,0.642497 1.123748,0.386938 2.08228,0.09573 2.379389,-0.767141 0.297161,-0.863016 -0.278528,-1.685118 -1.401832,-2.071897 -0.294054,-0.101245 -0.658076,-0.138189 -1.088367,-0.128476 -0.231331,0.0052 -0.478047,0.02415 -0.735962,0.05445 -0.272323,0.03199 -0.54307,0.07487 -0.800739,0.123589 -0.155332,0.02937 -0.273008,0.05444 -0.341027,0.07024 -0.359673,0.08352 -0.507854,0.514689 -0.275506,0.801667 0.03766,0.04651 0.104253,0.126019 0.194745,0.229627 z m 1.981059,-0.279821 c 0.32235,-0.0073 0.57914,0.01878 0.740235,0.07425 0.654374,0.225317 0.872688,0.537076 0.781878,0.800809 -0.09043,0.262634 -0.453069,0.372806 -1.108302,0.147191 -0.178425,-0.06143 -0.4244,-0.221838 -0.704708,-0.459596 -0.159371,-0.135179 -0.538716,-0.493394 -0.538716,-0.493394 0,0 0.632299,-0.06481 0.829613,-0.06926 z" />
  <path
     style="fill:#b80000;fill-rule:evenodd;stroke:none;stroke-width:1;fill-opacity:1"
     inkscape:connector-curvature="0"
     id="path12"
     sketch:type="MSShapeGroup"
     d="m 14.047148,10.009625 c 0.02368,0.04871 0.06768,0.135101 0.131302,0.253846 0.104539,0.195113 0.227257,0.411803 0.36749,0.64476 0.400332,0.665037 0.862286,1.330074 1.381444,1.952851 0.3588,0.430414 0.733249,0.825764 1.122975,1.178465 l 0.370725,0.335505 0.671009,-0.741448 -0.370724,-0.335505 C 17.368174,12.978458 17.025637,12.616801 16.695498,12.220769 16.211743,11.640461 15.778306,11.016478 15.402688,10.392495 15.178091,10.019392 15.02388,9.7315694 14.946504,9.5724067 L 14.727895,9.1227289 13.828539,9.5599467 Z" />
  <path
     style="fill:#b80000;fill-rule:evenodd;stroke:none;stroke-width:1;fill-opacity:1"
     inkscape:connector-curvature="0"
     id="path14"
     sketch:type="MSShapeGroup"
     d="m 14.233807,9.5539556 c -0.01746,0.046606 -0.05083,0.1351932 -0.09781,0.2590946 -0.07839,0.2067728 -0.166397,0.4372418 -0.26198,0.6854658 -0.273021,0.709018 -0.551922,1.417948 -0.820266,2.079019 -0.05709,0.140652 -0.113197,0.277851 -0.168206,0.411305 -0.306429,0.743407 -0.571678,1.353182 -0.782168,1.791362 l -0.216502,0.450696 0.901392,0.433004 0.216502,-0.450696 c 0.220327,-0.458658 0.492275,-1.083833 0.805314,-1.843275 0.05571,-0.13515 0.112487,-0.274003 0.170239,-0.416278 0.270865,-0.667278 0.551878,-1.381578 0.826899,-2.095789 0.09623,-0.249907 0.184853,-0.481987 0.263836,-0.690323 0.04745,-0.125164 0.0811,-0.21448 0.09919,-0.2627564 l 0.175415,-0.4682198 -0.93644,-0.3508289 z" />
  <path
     style="fill:#b80000;fill-rule:evenodd;stroke:none;stroke-width:1;fill-opacity:1"
     inkscape:connector-curvature="0"
     id="path16"
     sketch:type="MSShapeGroup"
     d="m 17.492813,13.128744 c -0.08039,0.01491 -0.228718,0.04386 -0.435705,0.08655 -0.34348,0.07085 -0.726951,0.15481 -1.141148,0.251603 -1.183889,0.276662 -2.37847,0.601017 -3.51035,0.971202 l -0.475229,0.155425 0.31085,0.950459 0.475229,-0.155425 c 1.101656,-0.3603 2.269296,-0.67734 3.427058,-0.947897 0.405382,-0.09473 0.780376,-0.176842 1.115594,-0.245982 0.20023,-0.0413 0.342033,-0.06898 0.416044,-0.0827 l 0.491618,-0.09117 -0.182344,-0.983235 z" />
  <path
     style="fill:#b80000;fill-rule:evenodd;stroke:none;stroke-width:1;fill-opacity:1"
     inkscape:connector-curvature="0"
     id="path20"
     sketch:type="MSShapeGroup"
     d="M 24,6.1999998 C 24,6.0673915 23.947322,5.9402146 23.853553,5.8464464 l -4.7,-4.6999998 C 19.059784,1.0526784 18.932608,1 18.799999,1 H 6.5 C 6.2238576,1 6,1.2238576 6,1.5 V 18 H 7 V 2 H 18 V 6.5 C 18,6.7761424 18.223858,7 18.5,7 H 23 v 11 h 1 z M 19,6 V 2.4099998 L 22.59,6 Z" />
  <path
     style="fill:#000000;fill-rule:evenodd;stroke:none;stroke-width:1"
     inkscape:connector-curvature="0"
     id="path18"
     sketch:type="MSShapeGroup"
     d="m 25.946816,14.271532 c 0.03711,0.07674 0.05398,0.153269 0.05321,0.230099 v 13.994593 c 0,0.276142 -0.223857,0.5 -0.5,0.5 H 4.5000253 c -0.276142,0 -0.5,-0.223858 -0.5,-0.5 V 14.501631 c -7.72e-4,-0.07683 0.016103,-0.153363 0.049771,-0.223127 0.038296,-0.07615 0.088747,-0.136123 0.150175,-0.182276 l 1.8069143,-1.343766 0,1.13333 -1.0068603,0.857077 v 1.253332 l 6.6666957,5.000023 h 6.666667 l 6.666637,-4.999978 v -1.253377 l -0.994761,-0.76219 2.9e-5,-1.257757 1.794787,1.373306 c 0.06143,0.04615 0.111879,0.106127 0.146736,0.175304 z M 10.738851,21.550321 5.0000253,27.289146 V 17.246201 Z m 0.968311,0.445903 h 6.585786 l 6,6 H 5.7071623 Z m 7.554097,-0.445903 5.738766,-4.304075 v 10.042841 z"
     sodipodi:nodetypes="ccsssscccccccccccccccccccccccccccc" />
  <path
     inkscape:connector-curvature="0"
     class="cls-1"
     d="m 29.191062,24.42039 -2.73201,-2.156423 -2.432056,-1.905111 a 0.51073181,0.51073181 0 0 0 -0.810686,0.405343 v 1.856469 H 17.602314 A 0.51073181,0.51073181 0 0 0 17.091582,23.1314 v 3.392719 a 0.51073181,0.51073181 0 0 0 0.510732,0.510731 h 5.61805 v 1.85647 a 0.51073181,0.51073181 0 0 0 0.810685,0.405343 l 2.432056,-1.905111 2.73201,-2.156423 a 0.51073181,0.51073181 0 0 0 -0.0041,-0.814739 z"
     id="path10-3"
     style="stroke-width:0.4053427;fill:#ffffff;fill-opacity:1;stroke:#000000;stroke-opacity:1" />
</svg>
