<?xml version="1.0" encoding="UTF-8" standalone="no"?>
<svg
   xmlns:dc="http://purl.org/dc/elements/1.1/"
   xmlns:cc="http://creativecommons.org/ns#"
   xmlns:rdf="http://www.w3.org/1999/02/22-rdf-syntax-ns#"
   xmlns:svg="http://www.w3.org/2000/svg"
   xmlns="http://www.w3.org/2000/svg"
   xmlns:sodipodi="http://sodipodi.sourceforge.net/DTD/sodipodi-0.dtd"
   xmlns:inkscape="http://www.inkscape.org/namespaces/inkscape"
   version="1.1"
   x="0px"
   y="0px"
   viewBox="0 0 42 42"
   xml:space="preserve"
   id="svg8"
   sodipodi:docname="plus_rond.svg"
   inkscape:version="0.92.1 r15371"
   width="42"
   height="42"><metadata
     id="metadata14"><rdf:RDF><cc:Work
         rdf:about=""><dc:format>image/svg+xml</dc:format><dc:type
           rdf:resource="http://purl.org/dc/dcmitype/StillImage" /><dc:title>Png 48px Solid - 70 Basic Icons</dc:title></cc:Work></rdf:RDF></metadata><defs
     id="defs12" /><sodipodi:namedview
     pagecolor="#ffffff"
     bordercolor="#666666"
     borderopacity="1"
     objecttolerance="10"
     gridtolerance="10"
     guidetolerance="10"
     inkscape:pageopacity="1"
     inkscape:pageshadow="2"
     inkscape:window-width="1920"
     inkscape:window-height="986"
     id="namedview10"
     showgrid="false"
     inkscape:zoom="4.9166667"
     inkscape:cx="-31.271186"
     inkscape:cy="21"
     inkscape:window-x="-11"
     inkscape:window-y="-11"
     inkscape:window-maximized="1"
     inkscape:current-layer="svg8"
     fit-margin-top="0"
     fit-margin-left="0"
     fit-margin-right="0"
     fit-margin-bottom="0" /><title
     id="title2">Png 48px Solid - 70 Basic Icons</title><g
     id="g4489"><rect
       y="6.4067798"
       x="5.0847459"
       height="29.491526"
       width="32.135593"
       id="rect4484"
       style="opacity:1;fill:#ffffff;fill-opacity:1;stroke:#000000;stroke-width:0.18897638;stroke-linejoin:round;stroke-miterlimit:4;stroke-dasharray:none;stroke-dashoffset:0;stroke-opacity:1" /><g
       transform="matrix(1.1452785,0,0,1.1452785,-6.4866828,-6.4866828)"
       style="fill:#008000"
       id="g6"><path
         inkscape:connector-curvature="0"
         style="fill:#008000"
         id="path4"
         d="M 24,3 C 12.4,3 3,12.4 3,24 3,35.6 12.4,45 24,45 35.6,45 45,35.6 45,24 45,12.4 35.6,3 24,3 Z m 8,23 h -6 v 6.1 c 0,1.1 -0.9,2 -2,2 -1.1,0 -2,-0.9 -2,-2 V 26 h -6 c -1.1,0 -2,-0.9 -2,-2 0,-1.1 0.9,-2 2,-2 h 6 v -6.1 c 0,-1.1 0.9,-2 2,-2 1.1,0 2,0.9 2,2 V 22 h 6 c 1.1,0 2,0.9 2,2 0,1.1 -0.9,2 -2,2 z" /></g></g></svg>