<?xml version="1.0" encoding="UTF-8" standalone="no"?>
<svg
   xmlns:dc="http://purl.org/dc/elements/1.1/"
   xmlns:cc="http://creativecommons.org/ns#"
   xmlns:rdf="http://www.w3.org/1999/02/22-rdf-syntax-ns#"
   xmlns:svg="http://www.w3.org/2000/svg"
   xmlns="http://www.w3.org/2000/svg"
   xmlns:sodipodi="http://sodipodi.sourceforge.net/DTD/sodipodi-0.dtd"
   xmlns:inkscape="http://www.inkscape.org/namespaces/inkscape"
   version="1.1"
   x="0px"
   y="0px"
   viewBox="0 0 42 42"
   xml:space="preserve"
   id="svg8"
   sodipodi:docname="plus_rond (copie).svg"
   inkscape:version="0.92.3 (2405546, 2018-03-11)"
   width="42"
   height="42"><metadata
     id="metadata14"><rdf:RDF><cc:Work
         rdf:about=""><dc:format>image/svg+xml</dc:format><dc:type
           rdf:resource="http://purl.org/dc/dcmitype/StillImage" /><dc:title>Png 48px Solid - 70 Basic Icons</dc:title></cc:Work></rdf:RDF></metadata><defs
     id="defs12" /><sodipodi:namedview
     pagecolor="#ffffff"
     bordercolor="#666666"
     borderopacity="1"
     objecttolerance="10"
     gridtolerance="10"
     guidetolerance="10"
     inkscape:pageopacity="1"
     inkscape:pageshadow="2"
     inkscape:window-width="1920"
     inkscape:window-height="1043"
     id="namedview10"
     showgrid="false"
     inkscape:zoom="4.9166667"
     inkscape:cx="-75.610169"
     inkscape:cy="19.372882"
     inkscape:window-x="1600"
     inkscape:window-y="0"
     inkscape:window-maximized="1"
     inkscape:current-layer="svg8"
     fit-margin-top="0"
     fit-margin-left="0"
     fit-margin-right="0"
     fit-margin-bottom="0" /><title
     id="title2">Png 48px Solid - 70 Basic Icons</title><g
     id="g6"
     style="fill:#008000"
     transform="matrix(0.74818407,0,0,0.74818407,3.0435836,3.0435836)"><path
       d="M 24,3 C 12.4,3 3,12.4 3,24 3,35.6 12.4,45 24,45 35.6,45 45,35.6 45,24 45,12.4 35.6,3 24,3 Z m 8,23 h -6 v 6.1 c 0,1.1 -0.9,2 -2,2 -1.1,0 -2,-0.9 -2,-2 V 26 h -6 c -1.1,0 -2,-0.9 -2,-2 0,-1.1 0.9,-2 2,-2 h 6 v -6.1 c 0,-1.1 0.9,-2 2,-2 1.1,0 2,0.9 2,2 V 22 h 6 c 1.1,0 2,0.9 2,2 0,1.1 -0.9,2 -2,2 z"
       id="path4"
       style="fill:#008000"
       inkscape:connector-curvature="0" /></g></svg>