<?xml version="1.0" encoding="UTF-8" standalone="no"?>
<svg
   xmlns:dc="http://purl.org/dc/elements/1.1/"
   xmlns:cc="http://creativecommons.org/ns#"
   xmlns:rdf="http://www.w3.org/1999/02/22-rdf-syntax-ns#"
   xmlns:svg="http://www.w3.org/2000/svg"
   xmlns="http://www.w3.org/2000/svg"
   xmlns:sodipodi="http://sodipodi.sourceforge.net/DTD/sodipodi-0.dtd"
   xmlns:inkscape="http://www.inkscape.org/namespaces/inkscape"
   version="1.1"
   x="0px"
   y="0px"
   viewBox="0 0 100 100"
   style="enable-background:new 0 0 100 100;"
   xml:space="preserve"
   id="svg4"
   sodipodi:docname="plus.svg"
   inkscape:version="0.92.1 r15371"><metadata
     id="metadata10"><rdf:RDF><cc:Work
         rdf:about=""><dc:format>image/svg+xml</dc:format><dc:type
           rdf:resource="http://purl.org/dc/dcmitype/StillImage" /><dc:title></dc:title></cc:Work></rdf:RDF></metadata><defs
     id="defs8" /><sodipodi:namedview
     pagecolor="#ffffff"
     bordercolor="#666666"
     borderopacity="1"
     objecttolerance="10"
     gridtolerance="10"
     guidetolerance="10"
     inkscape:pageopacity="0"
     inkscape:pageshadow="2"
     inkscape:window-width="919"
     inkscape:window-height="480"
     id="namedview6"
     showgrid="false"
     inkscape:zoom="2.36"
     inkscape:cx="50"
     inkscape:cy="50"
     inkscape:window-x="0"
     inkscape:window-y="0"
     inkscape:window-maximized="0"
     inkscape:current-layer="svg4" /><path
     d="M83.1,2.5H16.9C8.9,2.5,2.5,8.9,2.5,16.9v66.3c0,7.9,6.4,14.4,14.4,14.4h66.3c7.9,0,14.4-6.4,14.4-14.4V16.9  C97.5,8.9,91.1,2.5,83.1,2.5z M54.5,57.4v14.8c0,1.1-0.9,2-2.1,2l-4.9,0c-1.1,0-2-0.9-2-2.1V57.4c0-1.6-1.3-2.8-2.8-2.8H27.9  c-1.1,0-2-0.9-2.1-2l0-4.9c0-1.1,0.9-2.1,2-2.1h14.8c1.6,0,2.8-1.3,2.8-2.8V27.9c0-1.1,0.9-2.1,2.1-2.1l4.9,0c1.1,0,2.1,0.9,2.1,2.1  v14.8c0,1.6,1.3,2.8,2.8,2.8h14.8c1.1,0,2,0.9,2,2l0,4.9c0,1.1-0.9,2.1-2.1,2.1H57.4C55.8,54.5,54.5,55.8,54.5,57.4z"
     id="path2"
     style="fill:#00ff00" /></svg>