<?xml version="1.0" encoding="UTF-8" standalone="no"?>
<svg
   xmlns:dc="http://purl.org/dc/elements/1.1/"
   xmlns:cc="http://creativecommons.org/ns#"
   xmlns:rdf="http://www.w3.org/1999/02/22-rdf-syntax-ns#"
   xmlns:svg="http://www.w3.org/2000/svg"
   xmlns="http://www.w3.org/2000/svg"
   xmlns:sodipodi="http://sodipodi.sourceforge.net/DTD/sodipodi-0.dtd"
   xmlns:inkscape="http://www.inkscape.org/namespaces/inkscape"
   version="1.1"
   x="0px"
   y="0px"
   viewBox="0 0 100 100"
   id="svg14"
   sodipodi:docname="prophylo_carre.svg"
   width="100"
   height="100"
   inkscape:version="0.92.3 (2405546, 2018-03-11)">
  <metadata
     id="metadata20">
    <rdf:RDF>
      <cc:Work
         rdf:about="">
        <dc:format>image/svg+xml</dc:format>
        <dc:type
           rdf:resource="http://purl.org/dc/dcmitype/StillImage" />
        <dc:title></dc:title>
      </cc:Work>
    </rdf:RDF>
  </metadata>
  <defs
     id="defs18" />
  <sodipodi:namedview
     pagecolor="#ffffff"
     bordercolor="#666666"
     borderopacity="1"
     objecttolerance="10"
     gridtolerance="10"
     guidetolerance="10"
     inkscape:pageopacity="0"
     inkscape:pageshadow="2"
     inkscape:window-width="1600"
     inkscape:window-height="836"
     id="namedview16"
     showgrid="false"
     inkscape:zoom="1.888"
     inkscape:cx="1.8622881"
     inkscape:cy="62.5"
     inkscape:window-x="0"
     inkscape:window-y="27"
     inkscape:window-maximized="1"
     inkscape:current-layer="svg14" />
  <rect
     style="opacity:0.57399998;fill:#b3b3b3;fill-opacity:1;stroke:none;stroke-width:2.75571513;stroke-linejoin:round;stroke-miterlimit:4;stroke-dasharray:none;stroke-dashoffset:0;stroke-opacity:1"
     id="rect4491"
     width="113.62291"
     height="118.55932"
     x="-6.4936657"
     y="-8.5381317" />
  <g
     transform="matrix(0.81187571,0,0,0.81187571,11.849565,-763.84234)"
     id="g8"
     style="fill:#ff0000">
    <path
       style="color:#000000;text-indent:0;text-transform:none;direction:ltr;baseline-shift:baseline;display:inline;overflow:visible;visibility:visible;fill:#ff0000;fill-opacity:1;stroke:none;enable-background:accumulate"
       d="m 37.870126,975.18468 v 61.19112 c 0,4.095 1.200287,7.8308 3.266701,10.6272 2.066415,2.7964 5.102995,4.6867 8.531188,4.6867 3.428193,0 6.464775,-1.8903 8.531189,-4.6867 2.066415,-2.7964 3.266701,-6.5322 3.266701,-10.6272 v -61.16091 c -0.140563,0.0462 -0.283773,0.0854 -0.430525,0.11708 -1.093378,0.0462 -2.187425,0.0793 -3.281807,0.10196 v 60.94187 c 0,3.3586 -1.014046,6.3545 -2.541607,8.4217 -1.527561,2.0672 -3.464363,3.1799 -5.543951,3.1799 -2.079587,0 -4.012613,-1.1127 -5.540174,-3.1799 -1.527561,-2.0672 -2.545383,-5.0631 -2.545383,-8.4217 v -60.92298 c -0.354513,0.002 -0.710538,0.004 -1.064982,0.008 -0.884197,0.13889 -1.804532,0.0323 -2.64735,-0.27569 z"
       marker="none"
       visibility="visible"
       display="inline"
       overflow="visible"
       id="path2"
       inkscape:connector-curvature="0" />
    <path
       style="fill:#ff0000;fill-opacity:1;stroke:none"
       d="m 39.497538,953.15497 h 20.340731 c 2.16451,0 3.907057,1.66303 3.907057,3.72876 v 13.87928 c 0,2.06573 -1.742547,3.72876 -3.907057,3.72876 H 39.497538 c -2.164509,0 -3.907057,-1.66303 -3.907057,-3.72876 v -13.87928 c 0,-2.06573 1.742548,-3.72876 3.907057,-3.72876 z"
       id="path4"
       inkscape:connector-curvature="0" />
    <path
       style="fill:#ff0000;fill-opacity:1;fill-rule:evenodd;stroke:none"
       d="m 48.735457,1049.1927 c -2.89793,-0.5369 -6.57709,-4.8193 -7.707336,-8.8979 -0.465464,-1.6797 -0.480266,-2.2533 -0.480266,-18.61 v -16.877 h 9.115289 7.311361 l -0.0083,16.8723 c -0.0091,18.6134 0.015,19.7424 -1.478394,22.7516 -1.680546,3.3863 -4.00527,5.2701 -6.752393,4.761 z"
       id="path6"
       inkscape:connector-curvature="0" />
  </g>
</svg>
