<?xml version="1.0" encoding="UTF-8" standalone="no"?>
<svg
   xmlns:dc="http://purl.org/dc/elements/1.1/"
   xmlns:cc="http://creativecommons.org/ns#"
   xmlns:rdf="http://www.w3.org/1999/02/22-rdf-syntax-ns#"
   xmlns:svg="http://www.w3.org/2000/svg"
   xmlns="http://www.w3.org/2000/svg"
   xmlns:sodipodi="http://sodipodi.sourceforge.net/DTD/sodipodi-0.dtd"
   xmlns:inkscape="http://www.inkscape.org/namespaces/inkscape"
   version="1.1"
   x="0px"
   y="0px"
   viewBox="0 0 100 100"
   style="enable-background:new 0 0 100 100;"
   xml:space="preserve"
   id="svg10"
   sodipodi:docname="remarques.svg"
   inkscape:version="0.92.3 (2405546, 2018-03-11)"><metadata
     id="metadata16"><rdf:RDF><cc:Work
         rdf:about=""><dc:format>image/svg+xml</dc:format><dc:type
           rdf:resource="http://purl.org/dc/dcmitype/StillImage" /><dc:title></dc:title></cc:Work></rdf:RDF></metadata><defs
     id="defs14" /><sodipodi:namedview
     pagecolor="#ffffff"
     bordercolor="#666666"
     borderopacity="1"
     objecttolerance="10"
     gridtolerance="10"
     guidetolerance="10"
     inkscape:pageopacity="0"
     inkscape:pageshadow="2"
     inkscape:window-width="1600"
     inkscape:window-height="836"
     id="namedview12"
     showgrid="false"
     inkscape:zoom="2.36"
     inkscape:cx="3.3898305"
     inkscape:cy="50"
     inkscape:window-x="0"
     inkscape:window-y="27"
     inkscape:window-maximized="1"
     inkscape:current-layer="svg10" /><path
     d="M12.2,98.1l12.7-19.4C17,73,11.3,64.7,8.8,55.2c-2.9-10.9-1.3-22.3,4.4-32.1C18.9,13.3,28,6.3,39,3.4  c10.9-2.9,22.3-1.3,32.1,4.4c9.8,5.7,16.7,14.9,19.6,25.8C93.6,44.6,92,56,86.3,65.8c-5.7,9.8-14.9,16.7-25.8,19.6L12.2,98.1z   M49.7,7c-3.1,0-6.3,0.4-9.5,1.2c-9.6,2.5-17.7,8.7-22.8,17.3c-5,8.6-6.4,18.7-3.9,28.3c2.4,9.1,8.1,16.9,16,22l2.1,1.4l-8.3,12.7  l35.8-9.4c19.9-5.2,31.9-25.7,26.6-45.6C81.5,18.2,66.3,7,49.7,7z"
     id="path2"
     style="fill:#008000" /><rect
     x="31.2"
     y="39.6"
     width="39.5"
     height="6.4"
     id="rect4"
     style="fill:#008000" /><rect
     x="31.2"
     y="52.4"
     width="21.2"
     height="6.4"
     id="rect6"
     style="fill:#008000" /><rect
     x="31.2"
     y="27.5"
     width="39.5"
     height="6.4"
     id="rect8"
     style="fill:#008000" /></svg>