<?xml version="1.0" encoding="UTF-8" standalone="no"?>
<svg
   xmlns:dc="http://purl.org/dc/elements/1.1/"
   xmlns:cc="http://creativecommons.org/ns#"
   xmlns:rdf="http://www.w3.org/1999/02/22-rdf-syntax-ns#"
   xmlns:svg="http://www.w3.org/2000/svg"
   xmlns="http://www.w3.org/2000/svg"
   xmlns:sodipodi="http://sodipodi.sourceforge.net/DTD/sodipodi-0.dtd"
   xmlns:inkscape="http://www.inkscape.org/namespaces/inkscape"
   version="1.1"
   x="0px"
   y="0px"
   viewBox="0 0 100 100"
   xml:space="preserve"
   id="svg8"
   sodipodi:docname="retour.svg"
   width="100"
   height="100"
   inkscape:version="0.92.3 (2405546, 2018-03-11)"><metadata
     id="metadata14"><rdf:RDF><cc:Work
         rdf:about=""><dc:format>image/svg+xml</dc:format><dc:type
           rdf:resource="http://purl.org/dc/dcmitype/StillImage" /><dc:title></dc:title></cc:Work></rdf:RDF></metadata><defs
     id="defs12" /><sodipodi:namedview
     pagecolor="#ffffff"
     bordercolor="#666666"
     borderopacity="1"
     objecttolerance="10"
     gridtolerance="10"
     guidetolerance="10"
     inkscape:pageopacity="0"
     inkscape:pageshadow="2"
     inkscape:window-width="1600"
     inkscape:window-height="836"
     id="namedview10"
     showgrid="false"
     inkscape:zoom="1.888"
     inkscape:cx="-6.9895127"
     inkscape:cy="62.5"
     inkscape:window-x="0"
     inkscape:window-y="27"
     inkscape:window-maximized="1"
     inkscape:current-layer="svg8" /><path
     d="m 35.271345,91.383051 c 0.643856,1.2 0.643856,3.1 0,4.2 -0.321928,0.6 -0.69751,0.9 -1.126748,0.9 -0.429237,0 -0.804819,-0.3 -1.126747,-0.9 l -22.534958,-42 c -0.643856,-1.2 -0.643856,-3.1 0,-4.2 L 33.01785,7.3830508 c 0.643856,-1.2 1.663294,-1.2 2.253495,0 0.643856,1.2 0.643856,3.1000002 0,4.2000002 l -21.408209,39.9 z m -4.238718,-39.9 21.40821,-39.9 c 0.643856,-1.2 0.643856,-3.1000002 0,-4.2000002 -0.643856,-1.2 -1.663295,-1.2 -2.253496,0 L 27.652383,49.383051 c -0.643855,1.2 -0.643855,3.1 0,4.2 l 22.534958,42 c 0.321928,0.6 0.751165,0.9 1.126748,0.9 0.375583,0 0.80482,-0.3 1.126748,-0.9 0.643856,-1.2 0.643856,-3.1 0,-4.2 z"
     id="path2"
     inkscape:connector-curvature="0"
     style="fill:#cccccc;stroke-width:0.7324934" /></svg>