<?xml version="1.0" encoding="UTF-8" standalone="no"?>
<svg
   xmlns:dc="http://purl.org/dc/elements/1.1/"
   xmlns:cc="http://creativecommons.org/ns#"
   xmlns:rdf="http://www.w3.org/1999/02/22-rdf-syntax-ns#"
   xmlns:svg="http://www.w3.org/2000/svg"
   xmlns="http://www.w3.org/2000/svg"
   xmlns:sodipodi="http://sodipodi.sourceforge.net/DTD/sodipodi-0.dtd"
   xmlns:inkscape="http://www.inkscape.org/namespaces/inkscape"
   version="1.1"
   x="0px"
   y="0px"
   viewBox="0 0 241 100"
   xml:space="preserve"
   id="svg26"
   sodipodi:docname="tete_ovin_caprin.svg"
   width="241"
   height="100"
   inkscape:version="0.92.1 r15371"><metadata
     id="metadata32"><rdf:RDF><cc:Work
         rdf:about=""><dc:format>image/svg+xml</dc:format><dc:type
           rdf:resource="http://purl.org/dc/dcmitype/StillImage" /><dc:title></dc:title></cc:Work></rdf:RDF></metadata><defs
     id="defs30" /><sodipodi:namedview
     pagecolor="#ffffff"
     bordercolor="#666666"
     borderopacity="1"
     objecttolerance="10"
     gridtolerance="10"
     guidetolerance="10"
     inkscape:pageopacity="0"
     inkscape:pageshadow="2"
     inkscape:window-width="1920"
     inkscape:window-height="986"
     id="namedview28"
     showgrid="false"
     inkscape:zoom="2.95"
     inkscape:cx="114.2133"
     inkscape:cy="80.719299"
     inkscape:window-x="-11"
     inkscape:window-y="-11"
     inkscape:window-maximized="1"
     inkscape:current-layer="svg26" /><rect
     style="opacity:0.57399998;fill:#b3b3b3;fill-opacity:1;stroke:none;stroke-width:4.15002537;stroke-linejoin:round;stroke-miterlimit:4;stroke-dasharray:none;stroke-dashoffset:0;stroke-opacity:1"
     id="rect4491"
     width="257.6907"
     height="118.55932"
     x="-7.0340266"
     y="-6.9799061" /><g
     id="g4506"
     transform="matrix(0.64363994,0,0,0.64363994,-14.460526,32.431763)"
     style="fill:#0000ff"><path
       id="path2"
       d="m 124.40678,75.78861 c -8.432,0 -14.704,-2.22 -19.172,-6.772 -8.748,-8.924 -8.416,-25.116 -8.096,-40.78 0.012,-0.58 0.024,-1.156 0.036,-1.736 -4.472,6 -11.128,11.736 -18.652,12.516 -0.556,0.06 -1.128,-0.12 -1.548,-0.5 -0.416,-0.388 -0.66,-0.916 -0.66,-1.492 0,-11.428 3.744,-21.704 12.912,-35.4279998 0.984,-1.41600003 9.664,-13.4400002 18.42,-13.4400002 0.404,0 0.788,0.024 1.176,0.08 3.468,-5.244 9.32,-8.432 15.584,-8.432 6.264,0 12.116,3.196 15.584,8.428 0.416,-0.048 0.796,-0.08 1.172,-0.08 8.752,0 17.436,12.02400017 18.404,13.4040002 9.192,13.7599998 12.932,24.0359998 12.932,35.4759998 0,0.58 -0.248,1.104 -0.664,1.492 -0.416,0.384 -0.976,0.572 -1.548,0.5 -7.52,-0.772 -14.18,-6.52 -18.648,-12.52 0.008,0.584 0.024,1.156 0.032,1.744 0.32,15.668 0.648,31.844 -8.092,40.776 -4.468,4.544 -10.744,6.764 -19.172,6.764 z m -25.908,-57.008 c 0.392,0 0.768,0.116 1.096,0.332 l 0.68,0.456 c 0.604,0.36 0.976,1.024 0.968,1.732 -0.016,2.316 -0.072,4.664 -0.112,7.012 -0.304,14.836 -0.616,30.172 6.952,37.9 3.684,3.752 9.02,5.584 16.32,5.584 7.3,0 12.636,-1.828 16.316,-5.584 7.572,-7.728 7.256,-23.064 6.952,-37.9 -0.048,-2.352 -0.096,-4.696 -0.112,-7.012 -0.004,-0.708 0.364,-1.368 0.964,-1.732 l 0.364,-0.248 c 0.464,-0.32 1.18,-0.532 1.732,-0.404 0.548,0.132 1.16,0.392 1.432,0.888 3.5,6.3 9.732,12.928 16.376,14.784 -0.512,-9.656 -4.148,-18.772 -12.168,-30.7839998 -2.256,-3.22400003 -9.428,-11.66 -15.092,-11.66 -0.524,0 -1.032,0.08 -1.54,0.144 0,0 -0.404,0.06 -0.412,0.06 -0.792,0.108 -1.6,-0.284 -2,-1 -2.632,-4.6640002 -7.544,-7.5720002 -12.812,-7.5720002 -5.272,0 -10.18,2.908 -12.812,7.5720002 -0.404,0.712 -1.192,1.104 -2,1 -0.004,0 -0.408,-0.06 -0.416,-0.06 -0.504,-0.072 -1.012,-0.14 -1.532,-0.14 -5.684,0 -12.844,8.43599997 -15.124,11.692 -8,11.9759998 -11.628,21.0879998 -12.14,30.7519998 6.644,-1.844 12.876,-8.484 16.376,-14.784 0.26,-0.488 0.728,-0.836 1.26,-0.972 0.164,-0.036 0.324,-0.056 0.484,-0.056 z"
       style="fill:#0000ff"
       inkscape:connector-curvature="0" /><path
       id="path4"
       d="m 114.40678,25.78861 c -1.104,0 -2,-0.892 -2,-2 v -8 c 0,-1.1 0.896,-2 2,-2 1.1,0 2,0.9 2,2 v 8 c 0,1.108 -0.9,2 -2,2 z"
       style="fill:#0000ff"
       inkscape:connector-curvature="0" /><path
       id="path6"
       d="m 134.40678,25.78861 c -1.1,0 -2,-0.892 -2,-2 v -8 c 0,-1.1 0.9,-2 2,-2 1.1,0 2,0.9 2,2 v 8 c 0,1.108 -0.9,2 -2,2 z"
       style="fill:#0000ff"
       inkscape:connector-curvature="0" /><path
       id="path8"
       d="m 124.40678,67.42861 c -0.512,0 -1.024,-0.196 -1.416,-0.584 l -8.376,-8.368 c -0.784,-0.772 -0.784,-2.044 -0.004,-2.828 0.78,-0.78 2.052,-0.78 2.828,0 l 6.968,6.952 6.968,-6.952 c 0.772,-0.78 2.048,-0.78 2.828,0 0.78,0.78 0.78,2.048 -0.004,2.828 l -8.384,8.368 c -0.384,0.388 -0.896,0.584 -1.408,0.584 z"
       style="fill:#0000ff"
       inkscape:connector-curvature="0" /></g><g
     transform="matrix(0.69773069,0,0,0.69773069,128.09005,0.81497752)"
     id="g4501"
     style="fill:#008080"><g
       id="g8"
       style="fill:#008080"><path
         inkscape:connector-curvature="0"
         id="path2-1"
         d="m 126.676,55.16 c -0.268,-0.398 -6.676,-9.749 -14.951,-9.749 -4.107,0 -7.984,1.14 -10.807,3.118 -0.693,-1.765 -1.551,-3.427 -2.525,-5 0.16,-0.359 0.293,-0.734 0.371,-1.137 2.754,-13.979 12.049,-31.574 12.143,-31.75 0.307,-0.579 0.203,-1.291 -0.258,-1.758 -0.461,-0.467 -1.17,-0.579 -1.754,-0.28 -0.953,0.492 -18.922,9.905 -24.258,22.927 -3.898,-1.729 -8.189,-2.692 -12.678,-2.692 -4.488,0 -8.78,0.963 -12.679,2.692 C 53.944,18.51 35.977,9.097 35.022,8.604 34.437,8.305 33.729,8.417 33.268,8.884 c -0.461,0.467 -0.564,1.179 -0.257,1.758 0.093,0.176 9.389,17.771 12.142,31.75 0.079,0.402 0.212,0.777 0.371,1.137 -0.974,1.573 -1.832,3.235 -2.525,5 -2.822,-1.979 -6.698,-3.118 -10.807,-3.118 -8.274,0 -14.683,9.351 -14.951,9.749 -0.343,0.507 -0.343,1.171 0,1.678 0.269,0.398 6.677,9.749 14.951,9.749 3.28,0 6.379,-0.705 8.954,-2.014 l 3.471,25.98 c 0.04,10.755 6.555,20.229 14.064,25.797 1.115,7.173 10.052,18.071 12.133,20.526 0.283,0.334 0.697,0.527 1.135,0.53 0.004,0 0.007,0 0.01,0 0.434,0 0.846,-0.188 1.131,-0.516 2.18,-2.508 11.484,-13.582 12.336,-20.685 7.43,-5.585 13.834,-14.989 13.875,-25.653 l 3.471,-25.98 c 2.574,1.309 5.674,2.014 8.953,2.014 8.275,0 14.684,-9.351 14.951,-9.749 0.344,-0.506 0.344,-1.17 0,-1.677 z M 105.971,13.795 c -2.867,5.963 -7.656,16.769 -9.832,26.532 -2.447,-3.023 -5.436,-5.543 -8.799,-7.447 3.34,-8.408 12.965,-15.495 18.631,-19.085 z M 37.944,13.791 c 5.668,3.587 15.299,10.673 18.636,19.087 -3.364,1.904 -6.353,4.424 -8.801,7.449 -2.177,-9.766 -6.966,-20.575 -9.835,-26.536 z m 34.029,119.782 c -3.683,-4.542 -7.721,-10.463 -9.507,-14.799 3.048,1.666 6.106,2.646 8.842,2.783 0.198,0.096 0.417,0.154 0.651,0.154 0.234,0 0.453,-0.059 0.651,-0.154 2.822,-0.141 5.99,-1.178 9.135,-2.94 -1.746,4.306 -5.985,10.394 -9.772,14.956 z m 39.752,-69.986 c -3.531,0 -6.904,-0.983 -9.252,-2.699 -0.426,-0.313 -0.986,-0.375 -1.473,-0.169 -0.486,0.208 -0.828,0.657 -0.898,1.182 l -3.787,28.354 c -0.01,0.065 -0.014,0.132 -0.014,0.198 0,14.469 -13.443,26.786 -22.842,28.021 V 103.97 h 3.234 c 0.828,0 1.5,-0.672 1.5,-1.5 0,-0.828 -0.672,-1.5 -1.5,-1.5 h -9.469 c -0.828,0 -1.5,0.672 -1.5,1.5 0,0.828 0.672,1.5 1.5,1.5 h 3.234 v 14.504 C 61.06,117.239 47.616,104.921 47.616,90.453 c 0,-0.066 -0.005,-0.133 -0.014,-0.198 L 43.815,61.9 c -0.069,-0.524 -0.411,-0.974 -0.897,-1.182 -0.189,-0.08 -0.39,-0.12 -0.589,-0.12 -0.313,0 -0.624,0.098 -0.885,0.289 -2.348,1.716 -5.72,2.699 -9.252,2.699 -5.396,0 -10.178,-5.454 -11.842,-7.588 1.664,-2.134 6.445,-7.588 11.842,-7.588 4.26,0 8.158,1.385 10.428,3.705 0.368,0.377 0.912,0.532 1.421,0.41 0.514,-0.123 0.924,-0.506 1.082,-1.009 3.703,-11.771 14.487,-19.679 26.836,-19.679 12.348,0 23.133,7.908 26.836,19.679 0.158,0.503 0.568,0.886 1.082,1.009 0.51,0.12 1.051,-0.033 1.42,-0.41 2.27,-2.32 6.168,-3.705 10.428,-3.705 5.398,0 10.18,5.457 11.844,7.589 -1.658,2.135 -6.428,7.588 -11.844,7.588 z"
         style="fill:#008080" /><circle
         id="circle4"
         r="3.9170001"
         cy="70.549004"
         cx="52.244999"
         style="fill:#008080" /><circle
         id="circle6"
         r="3.9170001"
         cy="70.549004"
         cx="92.171997"
         style="fill:#008080" /></g></g></svg>