<?xml version="1.0" encoding="UTF-8" standalone="no"?>
<svg
   xmlns:dc="http://purl.org/dc/elements/1.1/"
   xmlns:cc="http://creativecommons.org/ns#"
   xmlns:rdf="http://www.w3.org/1999/02/22-rdf-syntax-ns#"
   xmlns:svg="http://www.w3.org/2000/svg"
   xmlns="http://www.w3.org/2000/svg"
   xmlns:sodipodi="http://sodipodi.sourceforge.net/DTD/sodipodi-0.dtd"
   xmlns:inkscape="http://www.inkscape.org/namespaces/inkscape"
   viewBox="0 0 241 179.99999"
   version="1.1"
   x="0px"
   y="0px"
   id="svg10"
   sodipodi:docname="troupeaux_ajoutes.svg"
   width="241"
   height="180"
   inkscape:version="0.92.1 r15371">
  <metadata
     id="metadata16">
    <rdf:RDF>
      <cc:Work
         rdf:about="">
        <dc:format>image/svg+xml</dc:format>
        <dc:type
           rdf:resource="http://purl.org/dc/dcmitype/StillImage" />
        <dc:title></dc:title>
      </cc:Work>
    </rdf:RDF>
  </metadata>
  <defs
     id="defs14" />
  <sodipodi:namedview
     pagecolor="#ffffff"
     bordercolor="#666666"
     borderopacity="1"
     objecttolerance="10"
     gridtolerance="10"
     guidetolerance="10"
     inkscape:pageopacity="0"
     inkscape:pageshadow="2"
     inkscape:window-width="1920"
     inkscape:window-height="986"
     id="namedview12"
     showgrid="false"
     inkscape:zoom="1.475"
     inkscape:cx="238.39093"
     inkscape:cy="183.78326"
     inkscape:window-x="-11"
     inkscape:window-y="-11"
     inkscape:window-maximized="1"
     inkscape:current-layer="svg10" />
  <rect
     style="opacity:0.57399998;fill:#b3b3b3;fill-opacity:1;stroke:none;stroke-width:5;stroke-linejoin:round;stroke-miterlimit:4;stroke-dasharray:none;stroke-dashoffset:0;stroke-opacity:1"
     id="rect4522"
     width="285.23969"
     height="230.10933"
     x="-28.043558"
     y="-27.936022" />
  <g
     transform="matrix(0.17108051,0,0,0.17108051,61.520116,23.73858)"
     id="g4"
     style="fill:#008000">
    <path
       style="opacity:1;fill:#008000;fill-opacity:1;fill-rule:nonzero;stroke:none;stroke-width:14;stroke-linecap:round;stroke-linejoin:round;stroke-miterlimit:4;stroke-dasharray:none;stroke-dashoffset:0;stroke-opacity:1"
       d="M 23.234375,0 C 10.363016,0 0,10.363016 0,23.234375 V 51.517578 C 0,64.388937 10.363016,74.751953 23.234375,74.751953 H 488.76562 C 501.63698,74.751953 512,64.388937 512,51.517578 V 23.234375 C 512,10.363016 501.63698,0 488.76562,0 Z m 0,145.75 C 10.363016,145.75 0,156.11106 0,168.98242 v 28.28516 C 0,210.13894 10.363016,220.5 23.234375,220.5 H 488.76562 C 501.63698,220.5 512,210.13894 512,197.26758 V 168.98242 C 512,156.11106 501.63698,145.75 488.76562,145.75 Z m 0,145.75 C 10.363016,291.5 0,301.86106 0,314.73242 v 28.28516 C 0,355.88894 10.363016,366.25 23.234375,366.25 H 292.41992 c 12.87136,0 23.23438,-10.36106 23.23438,-23.23242 V 314.73242 C 315.6543,301.86106 305.29128,291.5 292.41992,291.5 Z m 370.576175,15.55664 c -5.15214,0 -9.29883,4.14862 -9.29883,9.30078 v 68.1543 h -68.1543 c -5.15215,0 -9.30078,4.14667 -9.30078,9.29883 v 31.43554 c 0,5.15215 4.14863,9.29883 9.30078,9.29883 h 68.1543 v 68.1543 c 0,5.15215 4.14669,9.30078 9.29883,9.30078 h 31.43554 c 5.15215,0 9.29883,-4.14863 9.29883,-9.30078 v -68.1543 h 68.1543 c 5.15213,0 9.30078,-4.14668 9.30078,-9.29883 v -31.43554 c 0,-5.15216 -4.14865,-9.29883 -9.30078,-9.29883 h -68.1543 v -68.1543 c 0,-5.15216 -4.14668,-9.30078 -9.29883,-9.30078 z M 23.234375,437.24805 C 10.363016,437.24805 0,447.61106 0,460.48242 v 28.2832 C 0,501.63698 10.363016,512 23.234375,512 H 203.75977 c 12.87135,0 23.23437,-10.36302 23.23437,-23.23438 v -28.2832 c 0,-12.87136 -10.36302,-23.23437 -23.23437,-23.23437 z"
       transform="translate(88.749289,131.31133)"
       id="path2"
       inkscape:connector-curvature="0" />
  </g>
</svg>
