<?xml version="1.0" encoding="UTF-8" standalone="no"?>
<svg
   xmlns:dc="http://purl.org/dc/elements/1.1/"
   xmlns:cc="http://creativecommons.org/ns#"
   xmlns:rdf="http://www.w3.org/1999/02/22-rdf-syntax-ns#"
   xmlns:svg="http://www.w3.org/2000/svg"
   xmlns="http://www.w3.org/2000/svg"
   xmlns:sodipodi="http://sodipodi.sourceforge.net/DTD/sodipodi-0.dtd"
   xmlns:inkscape="http://www.inkscape.org/namespaces/inkscape"
   version="1.1"
   x="0px"
   y="0px"
   viewBox="0 0 241 100"
   xml:space="preserve"
   id="svg26"
   sodipodi:docname="yes.svg"
   width="241"
   height="100"
   inkscape:version="0.92.1 r15371"><metadata
     id="metadata32"><rdf:RDF><cc:Work
         rdf:about=""><dc:format>image/svg+xml</dc:format><dc:type
           rdf:resource="http://purl.org/dc/dcmitype/StillImage" /><dc:title></dc:title></cc:Work></rdf:RDF></metadata><defs
     id="defs30" /><sodipodi:namedview
     pagecolor="#ffffff"
     bordercolor="#666666"
     borderopacity="1"
     objecttolerance="10"
     gridtolerance="10"
     guidetolerance="10"
     inkscape:pageopacity="0"
     inkscape:pageshadow="2"
     inkscape:window-width="1920"
     inkscape:window-height="986"
     id="namedview28"
     showgrid="false"
     inkscape:zoom="2.95"
     inkscape:cx="141.94211"
     inkscape:cy="80.719299"
     inkscape:window-x="-11"
     inkscape:window-y="-11"
     inkscape:window-maximized="1"
     inkscape:current-layer="svg26" /><g
     id="g18"
     transform="matrix(0.11030004,0,0,0.11030004,64.018412,-6.3372058)"><g
       id="g16"><path
         inkscape:connector-curvature="0"
         id="path14"
         d="m 767.5,753.5 c -45.9,0 -91.7,0 -137.6,0 -6,0 -12.1,-0.2 -18.2,0 -11.1,0.4 -15.5,7.3 -21.7,14.7 -17.1,20.5 -34.2,41.1 -51.3,61.6 -13.6,16.4 -27.3,32.7 -40.9,49.1 9.4,0 18.9,0 28.3,0 -23.3,-28 -46.7,-56 -70,-84 C 446.5,783.3 437.3,771 427,760 c -5.3,-5.7 -12.1,-6.5 -19.3,-6.5 -7.4,0 -14.7,0 -22.1,0 -41.7,0 -83.4,0 -125,0 -1.3,0 -2.7,0 -4,0 -2.2,0 -4.3,-0.2 -6.4,-0.3 -3,-0.1 5,1 0.6,0.1 -0.9,-0.2 -1.8,-0.3 -2.7,-0.5 -2.2,-0.5 -4.4,-1.1 -6.5,-1.8 -0.8,-0.3 -1.7,-0.6 -2.5,-0.9 -4.2,-1.3 2.9,1.7 0.5,0.2 -1.7,-1 -3.6,-1.7 -5.3,-2.7 -1.7,-1 -3.3,-2.1 -5,-3.2 -3,-1.9 -0.8,0.5 0.4,0.4 -0.6,0.1 -2.6,-2.2 -3,-2.6 -1.3,-1.2 -2.5,-2.4 -3.7,-3.7 -0.8,-0.8 -1.4,-1.6 -2.2,-2.4 -2.5,-2.7 -0.8,0.3 0.3,0.4 -0.9,-0.1 -2.5,-3.5 -3,-4.4 -1.3,-2.1 -2.4,-4.2 -3.5,-6.4 -0.4,-0.7 -1.2,-3.4 -0.3,-0.6 1,3.2 -0.3,-0.9 -0.4,-1.3 -0.6,-1.7 -1.1,-3.4 -1.6,-5.1 -0.2,-0.9 -1.9,-6 -1.4,-6.7 0,0 0.5,5.2 0.2,1.2 -0.1,-1.4 -0.2,-2.8 -0.2,-4.2 0,-0.7 0,-1.5 0,-2.2 0,-2.2 0,-4.5 0,-6.7 0,-27.2 0,-54.5 0,-81.7 0,-45.3 0,-90.6 0,-135.9 0,-48.5 0,-97 0,-145.5 0,-36.5 0,-72.9 0,-109.4 0,-8.9 0,-17.9 0,-26.8 0,-1.4 0,-2.8 0,-4.2 0,-0.5 0,-0.8 0,-1.4 0,-0.9 0.1,-1.9 0.1,-2.8 0,-0.8 -0.4,-4.6 0.1,-1.5 0.4,2.9 0.1,-0.4 0.3,-1.4 0.2,-0.9 0.4,-1.8 0.6,-2.7 0.5,-2.2 1.1,-4.3 1.9,-6.5 0.1,-0.4 1.4,-4.6 0.4,-1.3 -1,3.1 0.4,-0.8 0.6,-1.2 0.8,-1.6 1.6,-3.1 2.5,-4.6 0.4,-0.7 2.9,-5.4 3.7,-5.5 0,0 -3.2,3.8 -0.7,0.9 0.9,-1 1.7,-2 2.6,-2.9 1.2,-1.3 2.5,-2.5 3.7,-3.7 0.8,-0.7 1.7,-1.4 2.5,-2.1 1.9,-2 -4,2.7 -0.4,0.3 3.5,-2.3 7.3,-4.1 10.9,-6.3 2.4,-1.4 -4.7,1.6 -0.5,0.2 0.8,-0.3 1.7,-0.6 2.5,-0.9 1.9,-0.6 3.9,-1.2 5.8,-1.6 1.1,-0.2 2.2,-0.4 3.3,-0.7 1.9,-0.4 2,0.6 -1.2,0.2 2.1,0.3 4.8,-0.3 7,-0.4 1.2,0 2.4,0 3.5,0 8.7,0 17.3,0 26,0 35.9,0 71.8,0 107.7,0 48.4,0 96.8,0 145.2,0 45.5,0 91.1,0 136.6,0 27.9,0 55.8,0 83.6,0 2.4,0 4.8,0 7.2,0 0.4,0 0.7,0 1.1,0 0.9,0 1.9,0 2.8,0.1 1.2,0 2.3,0.2 3.5,0.2 3,0.1 -5,-1 -0.6,-0.1 4.2,0.9 8.2,2 12.3,3.4 2.7,0.9 -4.4,-2.2 -0.5,-0.2 0.8,0.4 1.6,0.8 2.4,1.2 1.6,0.8 3.1,1.7 4.6,2.6 0.9,0.6 1.8,1.2 2.7,1.8 3,1.9 0.8,-0.5 -0.4,-0.4 1,-0.1 4.1,3.5 4.9,4.4 1.4,1.4 2.7,2.9 4,4.3 2.5,2.7 0.8,-0.3 -0.3,-0.4 0.2,0 1.5,2.2 1.5,2.1 1.1,1.6 2.2,3.3 3.1,5.1 0.5,1 1.1,1.9 1.5,2.9 0.2,0.4 0.4,0.8 0.6,1.2 0.9,2 0.7,1.6 -0.4,-1.1 1.6,0.6 3.1,9.9 3.4,11.6 0.2,0.8 0.2,1.9 0.5,2.7 -0.2,-0.5 -0.4,-4.8 -0.2,-1.2 0.1,1.9 0.2,3.7 0.2,5.6 0,0.3 0,0.7 0,1 0.1,20.8 0,41.6 0,62.5 0,42.4 0,84.8 0,127.2 0,49.1 0,98.3 0,147.4 0,40.6 0,81.3 0,121.9 0,17 0.2,34 0,51 0,1.4 0,2.8 -0.1,4.2 0,0.8 0.4,4.6 -0.1,1.5 -0.4,-2.9 -0.1,0.4 -0.3,1.4 -0.3,1.6 -1.8,11.1 -3.4,11.6 0,0 2.2,-4.6 0.4,-1.1 -0.4,0.8 -0.8,1.6 -1.2,2.4 -1,2 -2.1,3.9 -3.3,5.7 -0.5,0.7 -1,1.4 -1.5,2.2 -2.1,3.2 0.7,-0.9 0.7,-0.9 0.1,0.8 -3.8,4.3 -4.4,4.9 -1.2,1.3 -2.5,2.5 -3.8,3.6 -0.3,0.3 -3.7,2.9 -1,0.9 2.7,-2 -0.8,0.5 -1.2,0.8 -3.1,2.1 -6.6,3.6 -9.8,5.5 -2.4,1.4 4.7,-1.6 0.5,-0.2 -0.8,0.3 -1.7,0.6 -2.5,0.9 -1.9,0.6 -3.9,1.2 -5.8,1.6 -1.1,0.2 -2.2,0.4 -3.3,0.7 -1.9,0.4 -2,-0.6 1.2,-0.2 -1.8,-0.2 -4.5,0.5 -6.7,0.5 -10.5,0.1 -20.5,9.1 -20,20 0.5,10.7 8.8,20.1 20,20 38.3,-0.4 73.3,-26.6 83,-64.1 2.5,-9.8 2.8,-19.7 2.8,-29.7 0,-25.3 0,-50.5 0,-75.8 0,-41.8 0,-83.6 0,-125.5 0,-45.9 0,-91.9 0,-137.8 0,-37.6 0,-75.3 0,-112.9 0,-16.9 0.1,-33.8 0,-50.7 -0.2,-32 -18.6,-63.4 -48,-77.1 -13.8,-6.5 -28.2,-8.9 -43.3,-8.9 -23.6,0 -47.2,0 -70.8,0 -41,0 -82.1,0 -123.1,0 -46.1,0 -92.1,0 -138.2,0 -38.6,0 -77.3,0 -115.9,0 -18.8,0 -37.6,-0.1 -56.4,0 -28.6,0.1 -54.4,13.6 -71.2,36.7 -11.1,15.3 -15.6,33.8 -15.6,52.4 0,21.8 0,43.6 0,65.4 0,40.2 0,80.3 0,120.5 0,46.1 0,92.2 0,138.4 0,39.6 0,79.3 0,118.9 0,20.7 0,41.4 0,62.2 0,22.8 7.8,44.2 23.4,61 12,13 29.2,22.7 46.7,25.5 7.1,1.1 14.1,1.5 21.2,1.5 39.5,0 79,0 118.5,0 10.6,0 21.2,0 31.8,0 -4.7,-2 -9.4,-3.9 -14.1,-5.9 29.1,34.9 58.2,69.8 87.3,104.7 4.1,4.9 8.2,9.9 12.4,14.8 6.5,7.8 21.8,7.8 28.3,0 29.1,-34.9 58.2,-69.8 87.3,-104.7 4.1,-4.9 8.2,-9.9 12.4,-14.8 -4.7,2 -9.4,3.9 -14.1,5.9 45.5,0 91,0 136.6,0 6.4,0 12.9,0 19.3,0 10.5,0 20.5,-9.2 20,-20 -0.8,-10.8 -9.1,-20 -20.3,-20 z" /></g></g><rect
     style="opacity:0.57399998;fill:#b3b3b3;fill-opacity:1;stroke:none;stroke-width:4.53960609;stroke-linejoin:round;stroke-miterlimit:4;stroke-dasharray:none;stroke-dashoffset:0;stroke-opacity:1"
     id="rect4491"
     width="285.4873"
     height="128.05084"
     x="-22.96623"
     y="-15.454473" /><polygon
     transform="matrix(0.63619677,0,0,0.63619677,79.783407,-1.524257)"
     id="polygon4"
     points="50.706,85.133 29.825,64.252 24.259,69.818 50.706,96.268 103.741,43.23 98.175,37.666 "
     style="fill:#008000" /></svg>