<?xml version="1.0" encoding="UTF-8" standalone="no"?>
<svg
   xmlns:dc="http://purl.org/dc/elements/1.1/"
   xmlns:cc="http://creativecommons.org/ns#"
   xmlns:rdf="http://www.w3.org/1999/02/22-rdf-syntax-ns#"
   xmlns:svg="http://www.w3.org/2000/svg"
   xmlns="http://www.w3.org/2000/svg"
   xmlns:sodipodi="http://sodipodi.sourceforge.net/DTD/sodipodi-0.dtd"
   xmlns:inkscape="http://www.inkscape.org/namespaces/inkscape"
   version="1.1"
   x="0px"
   y="0px"
   viewBox="0 0 240.7161 180"
   enable-background="new 0 0 100 100"
   xml:space="preserve"
   id="svg12"
   sodipodi:docname="eleveurs_fevec.svg"
   width="240.71611"
   height="180"
   inkscape:version="0.92.1 r15371"><metadata
     id="metadata18"><rdf:RDF><cc:Work
         rdf:about=""><dc:format>image/svg+xml</dc:format><dc:type
           rdf:resource="http://purl.org/dc/dcmitype/StillImage" /><dc:title></dc:title></cc:Work></rdf:RDF></metadata><defs
     id="defs16" /><sodipodi:namedview
     pagecolor="#ffffff"
     bordercolor="#666666"
     borderopacity="1"
     objecttolerance="10"
     gridtolerance="10"
     guidetolerance="10"
     inkscape:pageopacity="0"
     inkscape:pageshadow="2"
     inkscape:window-width="1920"
     inkscape:window-height="986"
     id="namedview14"
     showgrid="false"
     fit-margin-top="2"
     fit-margin-left="2"
     fit-margin-right="2"
     fit-margin-bottom="2"
     inkscape:zoom="1.888"
     inkscape:cx="-15.824331"
     inkscape:cy="107.96655"
     inkscape:window-x="-11"
     inkscape:window-y="-11"
     inkscape:window-maximized="1"
     inkscape:current-layer="svg12"
     units="px" /><rect
     style="opacity:0.93399999;fill:#cccccc;fill-opacity:1;stroke:none;stroke-width:5;stroke-linejoin:round;stroke-miterlimit:4;stroke-dasharray:none;stroke-dashoffset:0;stroke-opacity:1"
     id="rect4485"
     width="255.82628"
     height="193.85593"
     x="-6.3559322"
     y="-5.9110169" /><g
     id="g6"
     transform="translate(70.298551,34.6245)"
     style="fill:#008000"><g
       id="g4"
       style="fill:#008000"><path
         d="m 48.069,34.105 c 3.846,0 6.963,-3.173 6.963,-7.088 0,-3.915 -3.117,-7.09 -6.963,-7.09 -3.847,0 -6.964,3.174 -6.964,7.09 0,3.916 3.118,7.088 6.964,7.088 z m 12.934,28.36 c 0,0 0,-21.477 0,-22.282 0,-2.006 -3.98,-4.051 -3.98,-4.051 H 39.115 c 0,0 -3.979,2.045 -3.979,4.051 0,0.776 0,22.282 0,22.282 0,0 1.073,2.024 1.99,2.024 2.205,0 1.989,-2.024 1.989,-2.024 V 46.259 c 0,0 0.852,-3.769 1.99,0 0.142,0.717 0,46.588 0,46.588 0,0 0.512,2.027 1.99,2.027 3.467,0 3.979,-2.027 3.979,-2.027 0,0 -0.047,-25.415 0,-26.333 0.817,-1.476 1.237,-1.471 2.023,0 -0.004,0.873 -0.032,26.333 -0.032,26.333 0,0 0.765,2.027 3.978,2.027 1.482,0 1.989,-2.027 1.989,-2.027 0,0 0.029,-45.64 -0.011,-46.588 0.914,-3.965 2.001,0 2.001,0 v 16.206 c 0,0 -0.664,2.024 1.99,2.024 1.123,0 1.991,-2.024 1.991,-2.024 z M 65.977,32.08 c 3.845,0 6.964,-3.174 6.964,-7.09 0,-3.915 -3.119,-7.088 -6.964,-7.088 -3.847,0 -6.964,3.173 -6.964,7.088 0,3.916 3.117,7.09 6.964,7.09 z m 10.942,30.385 c 1.121,0 1.987,-2.026 1.987,-2.026 0,0 0,-21.476 0,-22.281 0,-2.007 -3.978,-4.052 -3.978,-4.052 H 57.022 c 0,0 5.969,2.045 5.969,4.052 0,0.776 0,20.257 0,20.257 l -0.824,6.076 -3.154,2.024 v 26.333 c 0,0 0.512,2.027 1.99,2.027 3.467,0 3.977,-2.027 3.977,-2.027 0,0 -0.044,-27.438 0,-28.358 0.82,-1.476 1.238,-1.472 2.022,0 -10e-4,0.871 -0.033,28.358 -0.033,28.358 0,0 0.767,2.027 3.98,2.027 1.484,0 1.991,-2.027 1.991,-2.027 0,0 0.026,-47.665 -0.013,-48.614 0.916,-3.964 2.001,0 2.001,0 v 16.205 c 0.001,-10e-4 -0.666,2.026 1.991,2.026 z m 4.973,-32.41 c 3.846,0 6.965,-3.175 6.965,-7.09 0,-3.915 -3.119,-7.09 -6.965,-7.09 -3.844,0 -6.963,3.175 -6.963,7.09 0,3.915 3.119,7.09 6.963,7.09 z m 8.956,2.025 H 76.919 l 3.979,4.052 v 22.282 l -1.105,5.063 -4.863,1.012 v 28.358 c 0,0 0.511,2.027 1.99,2.027 3.467,0 3.979,-2.027 3.979,-2.027 0,0 -0.047,-27.438 0,-28.358 0.817,-1.476 1.239,-1.472 2.021,0 -0.002,0.871 -0.03,28.358 -0.03,28.358 0,0 0.766,2.027 3.978,2.027 1.484,0 1.991,-2.027 1.991,-2.027 0,0 0.027,-49.692 -0.013,-50.639 0.916,-3.966 2.004,0 2.004,0 v 18.23 c 0,0 -0.667,2.026 1.986,2.026 1.121,0 1.991,-2.026 1.991,-2.026 0,0 0,-23.502 0,-24.307 C 94.825,34.124 90.848,32.08 90.848,32.08 Z M 32.152,30.055 c 3.845,0 6.963,-3.175 6.963,-7.09 0,-3.915 -3.118,-7.09 -6.963,-7.09 -3.846,0 -6.964,3.175 -6.964,7.09 0,3.915 3.118,7.09 6.964,7.09 z m 0.996,30.383 V 38.157 l 3.008,-3.438 5.375,-1.531 -2.416,-1.107 H 23.199 c 0,0 -3.979,2.044 -3.979,4.052 0,0.776 0,24.307 0,24.307 0,0 1.072,2.026 1.989,2.026 2.205,0 1.991,-2.026 1.991,-2.026 V 42.21 c 0,0 0.851,-3.77 1.989,0 0.143,0.716 0,50.639 0,50.639 0,0 0.512,2.027 1.99,2.027 3.468,0 3.979,-2.027 3.979,-2.027 0,0 -0.046,-27.438 0,-28.358 0.818,-1.476 1.237,-1.472 2.023,0 -0.004,0.871 -0.032,28.358 -0.032,28.358 0,0 0.764,2.027 3.978,2.027 1.484,0 1.989,-2.027 1.989,-2.027 V 66.515 L 35.137,65.504 Z M 18.224,32.08 c 1.965,0 3.738,-0.828 5.004,-2.159 1.041,-0.753 1.611,-1.531 1.959,-1.893 -1.059,-2.411 -2.035,-4.768 -2.088,-8.1 -1.256,-1.254 -2.978,-2.027 -4.876,-2.027 -3.846,0 -6.964,3.173 -6.964,7.088 10e-4,3.917 3.119,7.091 6.965,7.091 z m 4.975,32.409 -3.158,-0.405 -2.813,-3.417 V 34.105 H 9.271 c 0,0 -3.979,2.045 -3.979,4.052 0,0.776 0,24.308 0,24.308 0,0 1.072,2.024 1.989,2.024 2.206,0 1.99,-2.024 1.99,-2.024 V 44.234 c 0,0 0.851,-3.771 1.989,0 0.143,0.715 0,48.614 0,48.614 0,0 0.513,2.027 1.991,2.027 3.466,0 3.978,-2.027 3.978,-2.027 0,0 -0.045,-25.415 0,-26.333 0.818,-1.476 1.239,-1.471 2.023,0 -0.003,0.873 -0.032,26.333 -0.032,26.333 0,0 0.765,2.027 3.979,2.027 0.055,-1.455 0,-2.027 0,-2.027 z"
         id="path2"
         inkscape:connector-curvature="0"
         style="clip-rule:evenodd;fill:#008000;fill-rule:evenodd" /></g></g></svg>