<?xml version="1.0" encoding="UTF-8" standalone="no"?>
<svg
   xmlns:dc="http://purl.org/dc/elements/1.1/"
   xmlns:cc="http://creativecommons.org/ns#"
   xmlns:rdf="http://www.w3.org/1999/02/22-rdf-syntax-ns#"
   xmlns:svg="http://www.w3.org/2000/svg"
   xmlns="http://www.w3.org/2000/svg"
   xmlns:sodipodi="http://sodipodi.sourceforge.net/DTD/sodipodi-0.dtd"
   xmlns:inkscape="http://www.inkscape.org/namespaces/inkscape"
   version="1.0"
   x="0px"
   y="0px"
   viewBox="0 0 400 100"
   enable-background="new 0 0 100 100"
   xml:space="preserve"
   id="svg32"
   sodipodi:docname="modifParam.svg"
   width="400"
   height="100"
   inkscape:version="0.92.3 (2405546, 2018-03-11)"><metadata
     id="metadata38"><rdf:RDF><cc:Work
         rdf:about=""><dc:format>image/svg+xml</dc:format><dc:type
           rdf:resource="http://purl.org/dc/dcmitype/StillImage" /><dc:title></dc:title></cc:Work></rdf:RDF></metadata><defs
     id="defs36" /><sodipodi:namedview
     pagecolor="#ffffff"
     bordercolor="#666666"
     borderopacity="1"
     objecttolerance="10"
     gridtolerance="10"
     guidetolerance="10"
     inkscape:pageopacity="0"
     inkscape:pageshadow="2"
     inkscape:window-width="1600"
     inkscape:window-height="836"
     id="namedview34"
     showgrid="false"
     inkscape:zoom="0.944"
     inkscape:cx="112.156"
     inkscape:cy="172.94295"
     inkscape:window-x="0"
     inkscape:window-y="27"
     inkscape:window-maximized="1"
     inkscape:current-layer="svg32" /><rect
     style="opacity:0.57399998;fill:#b3b3b3;fill-opacity:1;stroke:none;stroke-width:5.27661324;stroke-linejoin:round;stroke-miterlimit:4;stroke-dasharray:none;stroke-dashoffset:0;stroke-opacity:1"
     id="rect4491"
     width="416.58902"
     height="118.55932"
     x="-10.201282"
     y="-7.4788103" /><g
     id="g4520"
     transform="matrix(0.71410491,0,0,0.71410491,157.62447,-20.982724)"
     style="fill:#0000ff"><path
       style="fill:#0000ff;stroke-width:2.05156803"
       inkscape:connector-curvature="0"
       id="path2"
       d="m 57.289198,70.679443 c 0,0.828834 0.500583,1.577656 1.265818,1.895649 0.767286,0.315941 1.647409,0.141558 2.236209,-0.44519 L 77.203768,55.717358 c 0.802163,-0.802163 0.802163,-2.098754 0,-2.900917 L 60.791225,36.403898 c -0.5888,-0.5888 -1.468923,-0.763184 -2.236209,-0.445191 -0.767287,0.317994 -1.265818,1.066816 -1.265818,1.895649 v 8.245252 C 28.823693,47.182836 6,70.677392 6,99.401394 h 4.103136 c 0,-27.148398 22.089232,-49.23763 49.23763,-49.23763 1.134517,0 2.051568,-0.919103 2.051568,-2.051568 V 42.806841 L 72.852393,54.2669 61.392334,65.726958 v -5.305355 c 0,-1.132465 -0.917051,-2.051567 -2.051568,-2.051567 -22.624691,0 -41.031358,18.406667 -41.031358,41.031358 h 4.103135 c 0,-19.674536 15.464719,-35.803963 34.876655,-36.87283 z" /><path
       style="fill:#0000ff;stroke-width:2.05156803"
       inkscape:connector-curvature="0"
       id="path4"
       d="m 108.5784,99.401394 c 0,27.148396 -22.089235,49.237626 -49.237634,49.237626 -1.132465,0 -2.051568,0.91706 -2.051568,2.05157 v 5.30536 L 45.82914,144.53589 57.289198,133.07583 v 5.30535 c 0,1.13452 0.919103,2.05157 2.051568,2.05157 22.624691,0 41.031354,-18.40666 41.031354,-41.031356 h -4.103131 c 0,19.674536 -15.464719,35.803966 -34.876655,36.872826 v -8.15087 c 0,-0.82884 -0.498531,-1.57971 -1.265817,-1.89565 -0.769338,-0.3221 -1.649461,-0.14156 -2.236209,0.44519 l -16.412544,16.41254 c -0.802163,0.80216 -0.802163,2.09875 0,2.90092 l 16.412544,16.41254 C 58.282157,162.79074 58.807359,163 59.340766,163 c 0.264652,0 0.531356,-0.0492 0.785751,-0.15592 0.767286,-0.31594 1.265817,-1.06681 1.265817,-1.89565 v -8.24525 C 89.855788,151.61995 112.68153,128.1254 112.68153,99.401394 Z" /><rect
       style="fill:#0000ff;stroke-width:2.05156803"
       id="rect6"
       height="4.1031361"
       width="4.1031361"
       y="126.07178"
       x="12.154704" /><rect
       style="fill:#0000ff;stroke-width:2.05156803"
       id="rect8"
       height="4.1031361"
       width="4.1031361"
       y="134.27805"
       x="12.154704" /><rect
       style="fill:#0000ff;stroke-width:2.05156803"
       id="rect10"
       height="4.1031361"
       width="4.1031361"
       y="142.48431"
       x="12.154704" /><rect
       style="fill:#0000ff;stroke-width:2.05156803"
       id="rect12"
       height="4.1031361"
       width="4.1031361"
       y="52.215332"
       x="102.42369" /><rect
       style="fill:#0000ff;stroke-width:2.05156803"
       id="rect14"
       height="4.1031361"
       width="4.1031361"
       y="60.421604"
       x="102.42369" /><rect
       style="fill:#0000ff;stroke-width:2.05156803"
       id="rect16"
       height="4.1031361"
       width="4.1031361"
       y="68.627876"
       x="102.42369" /><path
       style="fill:#0000ff;stroke-width:2.05156803"
       inkscape:connector-curvature="0"
       id="path18"
       d="m 59.340766,107.60767 c 4.525759,0 8.206272,-3.68052 8.206272,-8.206276 0,-4.525759 -3.680513,-8.206272 -8.206272,-8.206272 -4.525759,0 -8.206272,3.680513 -8.206272,8.206272 0,4.525756 3.680513,8.206276 8.206272,8.206276 z m 0,-12.309412 c 2.26288,0 4.103136,1.840257 4.103136,4.103136 0,2.262876 -1.840256,4.103136 -4.103136,4.103136 -2.262879,0 -4.103136,-1.84026 -4.103136,-4.103136 0,-2.262879 1.840257,-4.103136 4.103136,-4.103136 z" /><path
       style="fill:#0000ff;stroke-width:2.05156803"
       inkscape:connector-curvature="0"
       id="path20"
       d="m 59.340766,121.96864 c 12.44276,0 22.567247,-10.12449 22.567247,-22.567246 0,-12.442759 -10.124487,-22.567247 -22.567247,-22.567247 -12.442759,0 -22.567247,10.124488 -22.567247,22.567247 0,12.442756 10.124488,22.567246 22.567247,22.567246 z m 0,-41.031357 c 10.181932,0 18.464112,8.284231 18.464112,18.464111 0,10.181936 -8.28218,18.464116 -18.464112,18.464116 -10.17988,0 -18.464111,-8.28218 -18.464111,-18.464116 0,-10.17988 8.284231,-18.464111 18.464111,-18.464111 z" /></g></svg>