<?xml version="1.0" encoding="UTF-8" standalone="no"?>
<!-- Created with Inkscape (http://www.inkscape.org/) -->

<svg
   xmlns:dc="http://purl.org/dc/elements/1.1/"
   xmlns:cc="http://creativecommons.org/ns#"
   xmlns:rdf="http://www.w3.org/1999/02/22-rdf-syntax-ns#"
   xmlns:svg="http://www.w3.org/2000/svg"
   xmlns="http://www.w3.org/2000/svg"
   xmlns:sodipodi="http://sodipodi.sourceforge.net/DTD/sodipodi-0.dtd"
   xmlns:inkscape="http://www.inkscape.org/namespaces/inkscape"
   width="28.520836mm"
   height="11.37709mm"
   viewBox="0 0 28.520836 11.37709"
   version="1.1"
   id="svg2092"
   inkscape:version="0.92.3 (2405546, 2018-03-11)"
   sodipodi:docname="fleche-bas-droite.svg">
  <defs
     id="defs2086" />
  <sodipodi:namedview
     id="base"
     pagecolor="#ffffff"
     bordercolor="#666666"
     borderopacity="1.0"
     inkscape:pageopacity="0.0"
     inkscape:pageshadow="2"
     inkscape:zoom="3.959798"
     inkscape:cx="41.138729"
     inkscape:cy="17.913842"
     inkscape:document-units="mm"
     inkscape:current-layer="layer1"
     showgrid="false"
     fit-margin-top="0"
     fit-margin-left="0"
     fit-margin-right="10"
     fit-margin-bottom="0"
     inkscape:window-width="1600"
     inkscape:window-height="836"
     inkscape:window-x="0"
     inkscape:window-y="27"
     inkscape:window-maximized="1" />
  <metadata
     id="metadata2089">
    <rdf:RDF>
      <cc:Work
         rdf:about="">
        <dc:format>image/svg+xml</dc:format>
        <dc:type
           rdf:resource="http://purl.org/dc/dcmitype/StillImage" />
        <dc:title></dc:title>
      </cc:Work>
    </rdf:RDF>
  </metadata>
  <g
     inkscape:label="Calque 1"
     inkscape:groupmode="layer"
     id="layer1"
     transform="translate(43.278275,-44.870979)">
    <path
       inkscape:connector-curvature="0"
       d="m -14.889729,44.804172 a 0.13229167,0.13229167 0 0 0 -0.13229,0.1323 v 10.79235 l -9.30011,-9.29746 a 0.13229167,0.13229167 0 0 0 -0.0926,-0.0397 h -1.32291 v 0.26459 h 1.26735 l 9.26041,9.26041 h -10.79235 a 0.13229511,0.13229511 0 0 0 0,0.26459 h 11.1125 a 0.13229167,0.13229167 0 0 0 0.13229,-0.13229 v -11.1125 a 0.13229167,0.13229167 0 0 0 -0.13229,-0.1323 z m -18.25625,1.85209 a 0.132295,0.132295 0 0 1 0,-0.26459 h 1.05833 v 0.26459 z m 3.175,0 v -0.26459 h 2.11666 v 0.26459 z"
       id="path4"
       style="fill:#cca763;fill-opacity:1;stroke-width:0.26458332" />
  </g>
</svg>
