<?xml version="1.0" encoding="UTF-8" standalone="no"?>
<svg
   xmlns:dc="http://purl.org/dc/elements/1.1/"
   xmlns:cc="http://creativecommons.org/ns#"
   xmlns:rdf="http://www.w3.org/1999/02/22-rdf-syntax-ns#"
   xmlns:svg="http://www.w3.org/2000/svg"
   xmlns="http://www.w3.org/2000/svg"
   xmlns:sodipodi="http://sodipodi.sourceforge.net/DTD/sodipodi-0.dtd"
   xmlns:inkscape="http://www.inkscape.org/namespaces/inkscape"
   version="1.1"
   x="0px"
   y="0px"
   viewBox="0 0 399.99998 100.00001"
   enable-background="new 0 0 64 64"
   xml:space="preserve"
   id="svg16"
   sodipodi:docname="ecritBdd.svg"
   width="400"
   height="100"
   inkscape:version="0.92.3 (2405546, 2018-03-11)"><metadata
     id="metadata22"><rdf:RDF><cc:Work
         rdf:about=""><dc:format>image/svg+xml</dc:format><dc:type
           rdf:resource="http://purl.org/dc/dcmitype/StillImage" /><dc:title></dc:title></cc:Work></rdf:RDF></metadata><defs
     id="defs20" /><sodipodi:namedview
     pagecolor="#ffffff"
     bordercolor="#666666"
     borderopacity="1"
     objecttolerance="10"
     gridtolerance="10"
     guidetolerance="10"
     inkscape:pageopacity="0"
     inkscape:pageshadow="2"
     inkscape:window-width="1600"
     inkscape:window-height="836"
     id="namedview18"
     showgrid="false"
     units="px"
     fit-margin-top="2"
     fit-margin-left="2"
     fit-margin-right="2"
     fit-margin-bottom="2"
     inkscape:zoom="1.475"
     inkscape:cx="181.36735"
     inkscape:cy="152.25114"
     inkscape:window-x="0"
     inkscape:window-y="27"
     inkscape:window-maximized="1"
     inkscape:current-layer="svg16" /><rect
     style="opacity:0.93399999;fill:#cccccc;fill-opacity:1;stroke:none;stroke-width:4.4831996;stroke-linejoin:round;stroke-miterlimit:4;stroke-dasharray:none;stroke-dashoffset:0;stroke-opacity:1"
     id="rect4499"
     width="417.96609"
     height="109.23409"
     x="-3.4237287"
     y="-4.454422" /><path
     inkscape:connector-curvature="0"
     d="m 109.10332,29.432028 v 0 c -3.5725,-3.57251 -9.36429,-3.57251 -12.9368,0 l -38.197643,38.21917 -6.400236,17.952234 c -0.281984,0.845233 0.521633,1.644545 1.363996,1.363996 L 70.884154,80.566474 109.10332,42.368829 c 3.57251,-3.572509 3.57251,-9.364292 0,-12.936801 z m -39.741016,46.568896 -6.827878,-6.827876 31.38771,-31.405645 6.845814,6.845814 z m -8.824005,-2.736603 4.732731,4.732731 -7.355967,2.623236 z m 45.521321,-33.93991 -2.24725,2.245823 -6.84725,-6.847248 2.2451,-2.246541 c 1.89281,-1.892805 4.95588,-1.892805 6.84869,0 1.8885,1.887783 1.8885,4.960184 7.1e-4,6.847966 z"
     id="path2"
     style="stroke-width:0.71751529;fill:#008000;opacity:0.307" /><path
     inkscape:connector-curvature="0"
     d="m 218.20215,29.432029 v 0 c -3.5725,-3.57251 -9.36429,-3.57251 -12.9368,0 l -38.19764,38.219169 -6.40023,17.952234 c -0.28199,0.845233 0.52163,1.644545 1.36399,1.363996 l 17.95152,-6.400954 38.21916,-38.197645 c 3.57251,-3.572509 3.57251,-9.364291 0,-12.9368 z m -39.74101,46.568895 -6.82788,-6.827876 31.38771,-31.405645 6.84581,6.845814 z m -8.82401,-2.736603 4.73273,4.732731 -7.35596,2.623237 z m 45.52132,-33.93991 -2.24725,2.245823 -6.84725,-6.847247 2.2451,-2.246541 c 1.89281,-1.892805 4.95588,-1.892805 6.84869,0 1.8885,1.887783 1.8885,4.960183 7.1e-4,6.847965 z"
     id="path2-3"
     style="stroke-width:0.71751529;fill:#008000;opacity:0.669" /><path
     inkscape:connector-curvature="0"
     d="m 336.3233,29.432028 v 0 c -3.5725,-3.57251 -9.36429,-3.57251 -12.9368,0 l -38.19764,38.21917 -6.40024,17.952234 c -0.28198,0.845233 0.52164,1.644545 1.364,1.363996 l 17.95152,-6.400954 38.21916,-38.197645 c 3.57251,-3.572509 3.57251,-9.364292 0,-12.936801 z m -39.74101,46.568896 -6.82788,-6.827876 31.38771,-31.405645 6.84581,6.845814 z m -8.82401,-2.736603 4.73273,4.732731 -7.35596,2.623237 z m 45.52132,-33.93991 -2.24725,2.245823 -6.84725,-6.847248 2.2451,-2.246541 c 1.89281,-1.892805 4.95588,-1.892805 6.84869,0 1.8885,1.887783 1.8885,4.960184 7.1e-4,6.847966 z"
     id="path2-6"
     style="stroke-width:0.71751529;fill:#008000" /></svg>