<?xml version="1.0" encoding="UTF-8" standalone="no"?>
<svg
   xmlns:dc="http://purl.org/dc/elements/1.1/"
   xmlns:cc="http://creativecommons.org/ns#"
   xmlns:rdf="http://www.w3.org/1999/02/22-rdf-syntax-ns#"
   xmlns:svg="http://www.w3.org/2000/svg"
   xmlns="http://www.w3.org/2000/svg"
   xmlns:sodipodi="http://sodipodi.sourceforge.net/DTD/sodipodi-0.dtd"
   xmlns:inkscape="http://www.inkscape.org/namespaces/inkscape"
   version="1.1"
   x="0px"
   y="0px"
   viewBox="0 0 399.99998 100.00001"
   enable-background="new 0 0 64 64"
   xml:space="preserve"
   id="svg16"
   sodipodi:docname="finImport.svg"
   width="400"
   height="100"
   inkscape:version="0.92.3 (2405546, 2018-03-11)"><metadata
     id="metadata22"><rdf:RDF><cc:Work
         rdf:about=""><dc:format>image/svg+xml</dc:format><dc:type
           rdf:resource="http://purl.org/dc/dcmitype/StillImage" /><dc:title /></cc:Work></rdf:RDF></metadata><defs
     id="defs20" /><sodipodi:namedview
     pagecolor="#ffffff"
     bordercolor="#666666"
     borderopacity="1"
     objecttolerance="10"
     gridtolerance="10"
     guidetolerance="10"
     inkscape:pageopacity="0"
     inkscape:pageshadow="2"
     inkscape:window-width="1600"
     inkscape:window-height="836"
     id="namedview18"
     showgrid="false"
     units="px"
     fit-margin-top="2"
     fit-margin-left="2"
     fit-margin-right="2"
     fit-margin-bottom="2"
     inkscape:zoom="2.085965"
     inkscape:cx="200"
     inkscape:cy="25.896695"
     inkscape:window-x="0"
     inkscape:window-y="27"
     inkscape:window-maximized="1"
     inkscape:current-layer="svg16"
     inkscape:snap-global="false"
     inkscape:snap-grids="false"
     inkscape:snap-to-guides="false" /><rect
     style="opacity:0.93399999;fill:#cccccc;fill-opacity:1;stroke:none;stroke-width:4.4831996;stroke-linejoin:round;stroke-miterlimit:4;stroke-dasharray:none;stroke-dashoffset:0;stroke-opacity:1"
     id="rect4499"
     width="417.96609"
     height="109.23409"
     x="-3.4237287"
     y="-4.454422" /><path
     inkscape:connector-curvature="0"
     d="m 164.33361,85.468106 h -26.01783 l -4.8645,-43.117326 h 35.67314 z m -23.29074,-3.095603 h 20.48995 l 4.12747,-36.999825 H 136.9154 Z m 4.71711,-3.243012 c 0.58964,-0.07371 1.03186,-0.663344 0.95816,-1.252982 l -3.16931,-28.228951 c -0.1474,-0.589638 -0.81074,-0.958163 -1.40039,-0.810752 -0.44222,0.147408 -0.81075,0.515933 -0.81075,1.031866 l 3.16931,28.302656 c 0.0737,0.589638 0.51593,1.031868 1.10557,1.031868 z m 12.38242,-0.958163 3.1693,-28.302656 c 0.0737,-0.589638 -0.36853,-1.179277 -0.95816,-1.252981 -0.58965,-0.07371 -1.17928,0.368523 -1.25299,0.958162 l -3.16931,28.302656 c -0.0737,0.589638 0.36852,1.179277 0.95817,1.252982 h 0.14741 c 0.51593,0 1.03187,-0.442229 1.10558,-0.958163 z m -5.82269,-0.147409 V 49.721264 c 0,-0.589639 -0.44223,-1.031869 -1.03187,-1.031869 -0.58964,0 -1.03187,0.44223 -1.03187,1.031869 v 28.302655 c 0,0.589639 0.44223,1.031867 1.03187,1.031867 0.58964,0 1.03187,-0.442228 1.03187,-1.031867 z m 23.36444,-43.19103 -2.72708,-2.72708 1.25297,-1.179276 v 0 c 1.62152,-1.621507 1.47411,-4.495995 -0.29482,-6.264912 l -5.89638,-5.970091 c -0.88445,-0.958163 -2.13743,-1.474096 -3.46413,-1.474096 v 0 c -1.10557,0 -2.06374,0.368524 -2.87449,1.179277 l -1.25298,1.252983 -2.72708,-2.72708 c -1.91633,-1.916326 -5.01193,-1.916326 -7.00196,0 l -2.72708,2.72708 24.98595,24.912231 2.72708,-2.727078 c 1.91632,-1.916326 1.91632,-5.011929 0,-7.001958 z M 163.89137,20.607856 c 0.14741,-0.147409 0.44224,-0.221114 0.66334,-0.221114 0.44223,0 0.88446,0.221114 1.17929,0.515934 l 5.89638,5.97009 c 0.51593,0.44223 0.66335,1.179278 0.29482,1.768916 l -1.17928,1.179278 -8.03383,-8.033826 z m 9.58164,19.015846 -0.58965,0.589638 -20.48994,-20.563646 0.58962,-0.589639 c 0.73706,-0.663344 1.91634,-0.663344 2.57968,0 l 17.98399,17.983979 c 0.66333,0.737047 0.66333,1.916325 -0.0737,2.579668 z m -22.18517,-1.916326 -0.73705,-9.286808 -2.21114,1.916326 c -3.31672,-3.095603 -7.73901,-4.864519 -12.3087,-5.011929 -5.30676,-0.07371 -10.39239,2.211145 -13.93022,6.191206 -3.46413,3.906355 -4.93823,9.065694 -4.20117,14.225032 0.73704,4.938223 3.61153,9.360512 7.8127,12.013886 0.73705,0.515935 1.62151,0.515935 1.76892,0.14741 0.14741,-0.368525 -0.22112,-1.031868 -0.88446,-1.474097 v 0 c -3.53783,-2.579668 -5.82268,-6.633434 -6.1175,-11.055724 -0.29482,-4.201174 1.25298,-8.40235 4.20117,-11.350542 2.9482,-2.874489 6.92826,-4.348586 11.05573,-3.980061 3.16931,0.294819 6.1912,1.69521 8.47605,3.980061 l -2.06373,1.84262 z"
     id="path4-3"
     style="opacity:0.47;fill:#aa0000;stroke-width:0.73704827" /><g
     transform="matrix(-0.59873952,0,0,0.83405587,71.41502,-775.25429)"
     id="g4"
     style="opacity:0.3;fill:#008000"><path
       style="color:#000000;text-indent:0;text-transform:none;direction:ltr;baseline-shift:baseline;display:inline;overflow:visible;visibility:visible;fill:#008000;fill-opacity:1;stroke:none;enable-background:accumulate"
       d="m 41.984376,963.36217 c -9.085313,0 -17.31701,1.12206 -23.519405,3.05916 -3.101198,0.96856 -5.707714,2.11591 -7.746099,3.62105 -1.8905239,1.39597 -3.4662314,3.33716 -3.6856441,5.74374 a 2.9987897,2.9970301 0 0 0 -0.031235,0.34337 c -0.00262,0.0743 0,0.14333 0,0.21851 v 13.76623 a 2.9987897,2.9970301 0 0 0 0,0.21852 v 13.76625 a 2.9987897,2.9970301 0 0 0 0,0.2185 v 13.9848 c 0,2.6748 1.6784945,4.7693 3.7168781,6.2743 2.038383,1.5052 4.644902,2.6525 7.746099,3.6211 6.202394,1.9371 14.434089,3.0904 23.519405,3.0904 6.01181,0 11.425102,-0.1065 16.554161,-1.0614 a 3.0047304,3.0029673 0 1 0 -1.124433,-5.8998 c -4.441421,0.8269 -9.490273,0.9677 -15.429728,0.9677 -8.578903,0 -16.33432,-1.1311 -21.707818,-2.8094 -2.686749,-0.8391 -4.767183,-1.8309 -5.965745,-2.7158 -1.198562,-0.8851 -1.31184,-1.3836 -1.31184,-1.4671 v -6.3994 c 1.618376,0.8727 3.373258,1.6564 5.465998,2.31 6.202394,1.9372 14.43409,3.0904 23.519405,3.0904 9.085313,0 17.31701,-1.1532 23.519403,-3.0904 3.101198,-0.9685 5.707716,-2.1159 7.746099,-3.621 2.038384,-1.5051 3.716878,-3.5995 3.716878,-6.2744 V 976.348 a 2.9987897,2.9970301 0 0 0 -0.03123,-0.4058 c -0.163434,-2.47974 -1.754195,-4.47363 -3.685645,-5.89982 -2.038385,-1.50514 -4.6449,-2.65249 -7.746099,-3.62105 -6.202394,-1.9371 -14.434093,-3.05916 -23.519403,-3.05916 z m 0,5.99346 c 8.578904,0 16.334321,1.09999 21.707816,2.77822 2.686748,0.83912 4.767185,1.83077 5.965745,2.71579 1.198561,0.88501 1.31184,1.4148 1.31184,1.49836 0,0.0836 -0.113279,0.58214 -1.31184,1.46715 -1.19856,0.88502 -3.278997,1.87668 -5.965745,2.71579 -5.373496,1.67823 -13.128913,2.80943 -21.707816,2.80943 -8.578905,0 -16.334322,-1.1312 -21.707818,-2.80943 -2.686748,-0.83911 -4.767185,-1.83077 -5.965745,-2.71579 -1.19856,-0.88501 -1.31184,-1.38359 -1.31184,-1.46715 0,-0.0836 0.113281,-0.61335 1.31184,-1.49836 1.198559,-0.88502 3.278997,-1.87667 5.965745,-2.71579 5.373496,-1.67823 13.128912,-2.77822 21.707818,-2.77822 z m -28.985403,14.70271 c 1.595499,0.84726 3.417763,1.54543 5.465998,2.18512 6.202395,1.93711 14.434092,3.09038 23.519405,3.09038 9.08531,0 17.317009,-1.15327 23.519403,-3.09038 2.048235,-0.63969 3.8705,-1.33786 5.465998,-2.18512 v 6.27441 c 0,0.0835 -0.113275,0.58212 -1.31184,1.46715 -1.198564,0.88502 -3.278996,1.87666 -5.965745,2.71578 -5.373497,1.67825 -13.128918,2.80944 -21.707816,2.80944 -8.5789,0 -16.33432,-1.13119 -21.707818,-2.80944 -2.686749,-0.83912 -4.767182,-1.83076 -5.965745,-2.71578 -1.198563,-0.88503 -1.31184,-1.38362 -1.31184,-1.46715 a 2.9987897,2.9970301 0 0 0 0,-0.28095 z m 0,13.98474 c 1.595499,0.84725 3.417763,1.54545 5.465998,2.18512 6.202394,1.9372 14.434087,3.0904 23.519405,3.0904 9.085315,0 17.31701,-1.1532 23.519403,-3.0904 2.048235,-0.63967 3.8705,-1.33787 5.465998,-2.18512 v 6.27442 c 0,0.084 -0.113277,0.5821 -1.31184,1.4671 -1.198562,0.885 -3.278996,1.8768 -5.965745,2.7159 -5.373497,1.6782 -13.128916,2.8094 -21.707816,2.8094 -8.578903,0 -16.33432,-1.1312 -21.707818,-2.8094 -2.686749,-0.8391 -4.767183,-1.8309 -5.965745,-2.7159 -1.198562,-0.885 -1.31184,-1.3836 -1.31184,-1.4671 a 2.9987897,2.9970301 0 0 0 0,-0.3121 z m 63.749143,15.23332 a 2.9987897,2.9970301 0 0 0 -1.811587,0.8117 l -11.993959,10.988 a 2.9987897,2.9970301 0 0 0 0,4.4015 l 11.993959,10.988 a 2.9987897,2.9970301 0 1 0 4.060455,-4.4015 l -6.309322,-5.7749 h 17.272551 a 2.9987897,2.9970301 0 1 0 0,-5.9935 H 72.687662 l 6.309322,-5.8061 a 2.9987897,2.9970301 0 0 0 -2.248868,-5.2132 z"
       marker="none"
       visibility="visible"
       display="inline"
       overflow="visible"
       id="path2"
       inkscape:connector-curvature="0" /></g><path
     inkscape:connector-curvature="0"
     d="m 278.84851,31.292364 v 0 c -3.31676,-3.316771 -8.69394,-3.316771 -12.01071,0 l -35.46326,35.483243 -5.94207,16.66712 c -0.2618,0.784727 0.48429,1.52682 1.26635,1.266354 l 16.66646,-5.942741 35.48323,-35.463259 c 3.31678,-3.31677 3.31678,-8.693947 0,-12.010717 z m -36.89614,43.235252 -6.3391,-6.339101 29.14081,-29.157466 6.35575,6.355755 z m -8.19234,-2.540703 4.39394,4.393938 -6.82938,2.435452 z m 42.26267,-31.510314 -2.08638,2.085055 -6.35709,-6.357086 2.08438,-2.085722 c 1.75732,-1.757309 4.60112,-1.757309 6.35843,0 1.75331,1.752645 1.75331,4.605108 6.6e-4,6.357753 z"
     id="path2-6"
     style="fill:#0000ff;stroke-width:0.66615182;opacity:0.68" /><g
     id="g22"
     transform="matrix(1.793997,0,0,1.793997,330.5934,26.810716)"
     style="fill:#008000"><g
       id="g20"
       style="fill:#008000"><path
         d="m 13.244,17.144 -3.644,-3.43 -3.811,4 7.899,7.435 12.519,-14.719 -4.23,-3.556 z m 10.137,-6.478 -9.852,11.584 -4.903,-4.614 1.051,-1.104 3.729,3.51 8.809,-10.357 z"
         id="path16"
         inkscape:connector-curvature="0"
         style="fill:#008000" /><path
         d="M 16,0 C 7.163,0 0,7.163 0,16 0,24.837 7.163,32 16,32 24.837,32 32,24.837 32,16 32,7.163 24.837,0 16,0 Z m 0,30 C 8.28,30 2,23.72 2,16 2,8.28 8.28,2 16,2 c 7.72,0 14,6.28 14,14 0,7.72 -6.28,14 -14,14 z"
         id="path18"
         inkscape:connector-curvature="0"
         style="fill:#008000" /></g></g></svg>