<?xml version="1.0" encoding="UTF-8" standalone="no"?>
<svg
   xmlns:dc="http://purl.org/dc/elements/1.1/"
   xmlns:cc="http://creativecommons.org/ns#"
   xmlns:rdf="http://www.w3.org/1999/02/22-rdf-syntax-ns#"
   xmlns:svg="http://www.w3.org/2000/svg"
   xmlns="http://www.w3.org/2000/svg"
   xmlns:sodipodi="http://sodipodi.sourceforge.net/DTD/sodipodi-0.dtd"
   xmlns:inkscape="http://www.inkscape.org/namespaces/inkscape"
   version="1.1"
   x="0px"
   y="0px"
   viewBox="0 0 100 100"
   enable-background="new 0 0 100 100"
   xml:space="preserve"
   id="svg22"
   sodipodi:docname="fleche.svg"
   inkscape:version="0.92.3 (2405546, 2018-03-11)"><metadata
     id="metadata28"><rdf:RDF><cc:Work
         rdf:about=""><dc:format>image/svg+xml</dc:format><dc:type
           rdf:resource="http://purl.org/dc/dcmitype/StillImage" /><dc:title></dc:title></cc:Work></rdf:RDF></metadata><defs
     id="defs26" /><sodipodi:namedview
     pagecolor="#ffffff"
     bordercolor="#666666"
     borderopacity="1"
     objecttolerance="10"
     gridtolerance="10"
     guidetolerance="10"
     inkscape:pageopacity="0"
     inkscape:pageshadow="2"
     inkscape:window-width="925"
     inkscape:window-height="480"
     id="namedview24"
     showgrid="false"
     inkscape:zoom="2.36"
     inkscape:cx="3.3898305"
     inkscape:cy="50"
     inkscape:window-x="0"
     inkscape:window-y="27"
     inkscape:window-maximized="0"
     inkscape:current-layer="svg22" /><g
     display="none"
     id="g4"><path
       display="inline"
       d="M60.267,14.063L14.065,60.27l25.668,25.667l46.201-46.204V14.063H60.267z M72.624,32.219   c-2.671,0-4.84-2.174-4.84-4.841c0-2.678,2.169-4.844,4.84-4.844s4.836,2.166,4.836,4.844   C77.46,30.045,75.295,32.219,72.624,32.219z"
       id="path2" /></g><g
     display="none"
     id="g8"><path
       display="inline"
       d="M71.686,85.706L69,60l16.982-17.541L62,39L50.001,13.98L38,39l-23.982,3.284L31,60l-2.692,25.676   L49.98,72c0.017,0,0.028,0,0.049,0L71.686,85.706z"
       id="path6" /></g><g
     display="none"
     id="g12"><path
       display="inline"
       d="M50,17.06c-18.194,0-32.941,14.747-32.941,32.945C17.06,68.192,31.806,82.94,50,82.94   c18.192,0,32.94-14.748,32.94-32.936C82.94,31.807,68.192,17.06,50,17.06z M53.117,73.733V61.981H47.13v11.789   C36.2,72.458,27.52,63.769,26.225,52.831h11.755v-5.993H26.275c1.429-10.777,10.036-19.306,20.855-20.605v11.456h5.987V26.27   c10.701,1.403,19.188,9.875,20.609,20.568H62.274v5.993h11.5C72.488,63.684,63.932,72.317,53.117,73.733z"
       id="path10" /></g><g
     display="none"
     id="g16"><rect
       x="14"
       y="36"
       display="inline"
       width="72"
       height="27"
       id="rect14" /></g><g
     id="g20"
     style="fill:#999999"><polygon
       points="80,50.018 44.019,86 14.033,86 50.016,50.018 14.033,14.036 44.019,14.036 "
       id="polygon18"
       style="fill:#999999" /></g></svg>