<?xml version="1.0" encoding="UTF-8" standalone="no"?>
<svg
   xmlns:dc="http://purl.org/dc/elements/1.1/"
   xmlns:cc="http://creativecommons.org/ns#"
   xmlns:rdf="http://www.w3.org/1999/02/22-rdf-syntax-ns#"
   xmlns:svg="http://www.w3.org/2000/svg"
   xmlns="http://www.w3.org/2000/svg"
   xmlns:sodipodi="http://sodipodi.sourceforge.net/DTD/sodipodi-0.dtd"
   xmlns:inkscape="http://www.inkscape.org/namespaces/inkscape"
   version="1.1"
   x="0px"
   y="0px"
   viewBox="0 0 240.99999 180.00001"
   enable-background="new 0 0 64 64"
   xml:space="preserve"
   id="svg16"
   sodipodi:docname="importDB_videDB.svg"
   width="241"
   height="180"
   inkscape:version="0.92.3 (2405546, 2018-03-11)"><metadata
     id="metadata22"><rdf:RDF><cc:Work
         rdf:about=""><dc:format>image/svg+xml</dc:format><dc:type
           rdf:resource="http://purl.org/dc/dcmitype/StillImage" /><dc:title></dc:title></cc:Work></rdf:RDF></metadata><defs
     id="defs20" /><sodipodi:namedview
     pagecolor="#ffffff"
     bordercolor="#666666"
     borderopacity="1"
     objecttolerance="10"
     gridtolerance="10"
     guidetolerance="10"
     inkscape:pageopacity="0"
     inkscape:pageshadow="2"
     inkscape:window-width="1600"
     inkscape:window-height="836"
     id="namedview18"
     showgrid="false"
     units="px"
     fit-margin-top="2"
     fit-margin-left="2"
     fit-margin-right="2"
     fit-margin-bottom="2"
     inkscape:zoom="2.085965"
     inkscape:cx="47.42895"
     inkscape:cy="135.5323"
     inkscape:window-x="0"
     inkscape:window-y="27"
     inkscape:window-maximized="1"
     inkscape:current-layer="svg16" /><rect
     style="opacity:0.93399999;fill:#cccccc;fill-opacity:1;stroke:none;stroke-width:4.55698681;stroke-linejoin:round;stroke-miterlimit:4;stroke-dasharray:none;stroke-dashoffset:0;stroke-opacity:1"
     id="rect4499"
     width="249.83051"
     height="188.81357"
     x="-3.4237287"
     y="-4.0339007" /><g
     id="g827"
     transform="translate(-4.630344)"><path
       style="fill:#d40000"
       id="path4"
       d="m 97.4507,148.15297 h -35.3 l -6.6,-58.500005 h 48.4 z m -31.6,-4.2 h 27.8 l 5.6,-50.200005 h -39 z m 6.4,-4.4 c 0.8,-0.1 1.4,-0.9 1.3,-1.7 l -4.3,-38.300005 c -0.2,-0.8 -1.1,-1.3 -1.9,-1.1 -0.6,0.2 -1.1,0.7 -1.1,1.4 l 4.3,38.400005 c 0.1,0.8 0.7,1.4 1.5,1.4 z m 16.8,-1.3 4.3,-38.400005 c 0.1,-0.8 -0.5,-1.6 -1.3,-1.7 -0.8,-0.1 -1.6,0.5 -1.7,1.3 l -4.3,38.400005 c -0.1,0.8 0.5,1.6 1.3,1.7 h 0.2 c 0.7,0 1.4,-0.6 1.5,-1.3 z m -7.9,-0.2 V 99.652965 c 0,-0.8 -0.6,-1.4 -1.4,-1.4 -0.8,0 -1.4,0.6 -1.4,1.4 v 38.400005 c 0,0.8 0.6,1.4 1.4,1.4 0.8,0 1.4,-0.6 1.4,-1.4 z m 31.7,-58.600005 -3.7,-3.7 1.7,-1.6 v 0 c 2.2,-2.2 2,-6.1 -0.4,-8.499999 l -8,-8.1 c -1.2,-1.3 -2.9,-2 -4.7,-2 v 0 c -1.5,0 -2.8,0.5 -3.9,1.6 l -1.7,1.7 -3.7,-3.7 c -2.6,-2.6 -6.8,-2.6 -9.5,0 l -3.7,3.7 33.9,33.799999 3.7,-3.7 c 2.6,-2.6 2.6,-6.8 0,-9.5 z m -16,-19.299999 c 0.2,-0.2 0.6,-0.3 0.9,-0.3 0.6,0 1.2,0.3 1.6,0.7 l 8,8.099999 c 0.7,0.6 0.9,1.6 0.4,2.4 l -1.6,1.6 -10.9,-10.899999 z m 13,25.799999 -0.8,0.8 -27.8,-27.899999 0.8,-0.8 c 1,-0.9 2.6,-0.9 3.5,0 l 24.4,24.399999 c 0.9,1 0.9,2.6 -0.1,3.5 z m -30.1,-2.6 -1,-12.6 -3,2.6 c -4.5,-4.2 -10.5,-6.6 -16.7,-6.8 -7.199993,-0.1 -14.099996,3 -18.899996,8.4 -4.7,5.3 -6.7,12.3 -5.7,19.3 1,6.700005 4.9,12.700005 10.6,16.300005 1,0.7 2.2,0.7 2.4,0.2 0.2,-0.5 -0.3,-1.4 -1.2,-2 v 0 c -4.8,-3.5 -7.9,-9.000005 -8.3,-15.000005 -0.4,-5.7 1.7,-11.4 5.7,-15.4 4,-3.9 9.400003,-5.9 14.999996,-5.4 4.3,0.4 8.4,2.3 11.5,5.4 l -2.8,2.5 z"
       inkscape:connector-curvature="0" /><g
       style="fill:#008000"
       id="g4"
       transform="matrix(-1,0,0,1,223.06139,-883.72467)"><path
         inkscape:connector-curvature="0"
         id="path2"
         overflow="visible"
         display="inline"
         visibility="visible"
         marker="none"
         d="m 41.984376,963.36217 c -9.085313,0 -17.31701,1.12206 -23.519405,3.05916 -3.101198,0.96856 -5.707714,2.11591 -7.746099,3.62105 -1.8905239,1.39597 -3.4662314,3.33716 -3.6856441,5.74374 a 2.9987897,2.9970301 0 0 0 -0.031235,0.34337 c -0.00262,0.0743 0,0.14333 0,0.21851 v 13.76623 a 2.9987897,2.9970301 0 0 0 0,0.21852 v 13.76625 a 2.9987897,2.9970301 0 0 0 0,0.2185 v 13.9848 c 0,2.6748 1.6784945,4.7693 3.7168781,6.2743 2.038383,1.5052 4.644902,2.6525 7.746099,3.6211 6.202394,1.9371 14.434089,3.0904 23.519405,3.0904 6.01181,0 11.425102,-0.1065 16.554161,-1.0614 a 3.0047304,3.0029673 0 1 0 -1.124433,-5.8998 c -4.441421,0.8269 -9.490273,0.9677 -15.429728,0.9677 -8.578903,0 -16.33432,-1.1311 -21.707818,-2.8094 -2.686749,-0.8391 -4.767183,-1.8309 -5.965745,-2.7158 -1.198562,-0.8851 -1.31184,-1.3836 -1.31184,-1.4671 v -6.3994 c 1.618376,0.8727 3.373258,1.6564 5.465998,2.31 6.202394,1.9372 14.43409,3.0904 23.519405,3.0904 9.085313,0 17.31701,-1.1532 23.519403,-3.0904 3.101198,-0.9685 5.707716,-2.1159 7.746099,-3.621 2.038384,-1.5051 3.716878,-3.5995 3.716878,-6.2744 V 976.348 a 2.9987897,2.9970301 0 0 0 -0.03123,-0.4058 c -0.163434,-2.47974 -1.754195,-4.47363 -3.685645,-5.89982 -2.038385,-1.50514 -4.6449,-2.65249 -7.746099,-3.62105 -6.202394,-1.9371 -14.434093,-3.05916 -23.519403,-3.05916 z m 0,5.99346 c 8.578904,0 16.334321,1.09999 21.707816,2.77822 2.686748,0.83912 4.767185,1.83077 5.965745,2.71579 1.198561,0.88501 1.31184,1.4148 1.31184,1.49836 0,0.0836 -0.113279,0.58214 -1.31184,1.46715 -1.19856,0.88502 -3.278997,1.87668 -5.965745,2.71579 -5.373496,1.67823 -13.128913,2.80943 -21.707816,2.80943 -8.578905,0 -16.334322,-1.1312 -21.707818,-2.80943 -2.686748,-0.83911 -4.767185,-1.83077 -5.965745,-2.71579 -1.19856,-0.88501 -1.31184,-1.38359 -1.31184,-1.46715 0,-0.0836 0.113281,-0.61335 1.31184,-1.49836 1.198559,-0.88502 3.278997,-1.87667 5.965745,-2.71579 5.373496,-1.67823 13.128912,-2.77822 21.707818,-2.77822 z m -28.985403,14.70271 c 1.595499,0.84726 3.417763,1.54543 5.465998,2.18512 6.202395,1.93711 14.434092,3.09038 23.519405,3.09038 9.08531,0 17.317009,-1.15327 23.519403,-3.09038 2.048235,-0.63969 3.8705,-1.33786 5.465998,-2.18512 v 6.27441 c 0,0.0835 -0.113275,0.58212 -1.31184,1.46715 -1.198564,0.88502 -3.278996,1.87666 -5.965745,2.71578 -5.373497,1.67825 -13.128918,2.80944 -21.707816,2.80944 -8.5789,0 -16.33432,-1.13119 -21.707818,-2.80944 -2.686749,-0.83912 -4.767182,-1.83076 -5.965745,-2.71578 -1.198563,-0.88503 -1.31184,-1.38362 -1.31184,-1.46715 a 2.9987897,2.9970301 0 0 0 0,-0.28095 z m 0,13.98474 c 1.595499,0.84725 3.417763,1.54545 5.465998,2.18512 6.202394,1.9372 14.434087,3.0904 23.519405,3.0904 9.085315,0 17.31701,-1.1532 23.519403,-3.0904 2.048235,-0.63967 3.8705,-1.33787 5.465998,-2.18512 v 6.27442 c 0,0.084 -0.113277,0.5821 -1.31184,1.4671 -1.198562,0.885 -3.278996,1.8768 -5.965745,2.7159 -5.373497,1.6782 -13.128916,2.8094 -21.707816,2.8094 -8.578903,0 -16.33432,-1.1312 -21.707818,-2.8094 -2.686749,-0.8391 -4.767183,-1.8309 -5.965745,-2.7159 -1.198562,-0.885 -1.31184,-1.3836 -1.31184,-1.4671 a 2.9987897,2.9970301 0 0 0 0,-0.3121 z m 63.749143,15.23332 a 2.9987897,2.9970301 0 0 0 -1.811587,0.8117 l -11.993959,10.988 a 2.9987897,2.9970301 0 0 0 0,4.4015 l 11.993959,10.988 a 2.9987897,2.9970301 0 1 0 4.060455,-4.4015 l -6.309322,-5.7749 h 17.272551 a 2.9987897,2.9970301 0 1 0 0,-5.9935 H 72.687662 l 6.309322,-5.8061 a 2.9987897,2.9970301 0 0 0 -2.248868,-5.2132 z"
         style="color:#000000;text-indent:0;text-transform:none;direction:ltr;baseline-shift:baseline;display:inline;overflow:visible;visibility:visible;fill:#008000;fill-opacity:1;stroke:none;enable-background:accumulate" /></g></g></svg>