<?xml version="1.0" encoding="UTF-8" standalone="no"?>
<svg
   xmlns:dc="http://purl.org/dc/elements/1.1/"
   xmlns:cc="http://creativecommons.org/ns#"
   xmlns:rdf="http://www.w3.org/1999/02/22-rdf-syntax-ns#"
   xmlns:svg="http://www.w3.org/2000/svg"
   xmlns="http://www.w3.org/2000/svg"
   xmlns:sodipodi="http://sodipodi.sourceforge.net/DTD/sodipodi-0.dtd"
   xmlns:inkscape="http://www.inkscape.org/namespaces/inkscape"
   data-name="Layer 1"
   viewBox="0 0 241 180"
   x="0px"
   y="0px"
   version="1.1"
   id="svg16"
   sodipodi:docname="troupeaux_supprimes.svg"
   width="241"
   height="180"
   inkscape:version="0.92.1 r15371">
  <metadata
     id="metadata22">
    <rdf:RDF>
      <cc:Work
         rdf:about="">
        <dc:format>image/svg+xml</dc:format>
        <dc:type
           rdf:resource="http://purl.org/dc/dcmitype/StillImage" />
        <dc:title>10</dc:title>
      </cc:Work>
    </rdf:RDF>
  </metadata>
  <defs
     id="defs20" />
  <sodipodi:namedview
     pagecolor="#ffffff"
     bordercolor="#666666"
     borderopacity="1"
     objecttolerance="10"
     gridtolerance="10"
     guidetolerance="10"
     inkscape:pageopacity="0"
     inkscape:pageshadow="2"
     inkscape:window-width="1920"
     inkscape:window-height="986"
     id="namedview18"
     showgrid="false"
     inkscape:zoom="1.888"
     inkscape:cx="50"
     inkscape:cy="62.5"
     inkscape:window-x="-11"
     inkscape:window-y="-11"
     inkscape:window-maximized="1"
     inkscape:current-layer="svg16" />
  <title
     id="title2">10</title>
  <rect
     style="opacity:0.57399998;fill:#b3b3b3;fill-opacity:1;stroke:none;stroke-width:5;stroke-linejoin:round;stroke-miterlimit:4;stroke-dasharray:none;stroke-dashoffset:0;stroke-opacity:1"
     id="rect4522"
     width="285.23969"
     height="230.10933"
     x="-25.035095"
     y="-22.448732" />
  <g
     id="g4503"
     transform="matrix(1.0840541,0,0,1.0840541,69.559434,-27.533309)"
     style="fill:#d40000">
    <path
       inkscape:connector-curvature="0"
       id="path4"
       d="M 84.81,71.49 H 67.3 l -4.17,-8.38 a 4,4 0 0 0 -3.58,-2.22 h -19.1 a 4,4 0 0 0 -3.58,2.22 L 32.7,71.49 H 15.19 a 4,4 0 0 0 0,8 h 3.27 v 56.62 a 13,13 0 0 0 13,13 h 37.08 a 13,13 0 0 0 13,-13 V 79.49 h 3.27 a 4,4 0 0 0 0,-8 z m -41.88,-2.6 h 14.14 l 1.3,2.6 H 41.63 Z m 30.61,67.22 a 5,5 0 0 1 -5,5 H 31.46 a 5,5 0 0 1 -5,-5 V 79.49 h 47.08 z"
       style="fill:#d40000" />
    <path
       inkscape:connector-curvature="0"
       id="path6"
       d="m 50,137.51 a 4,4 0 0 0 4,-4 V 87.2 a 4,4 0 0 0 -8,0 v 46.3 a 4,4 0 0 0 4,4.01 z"
       style="fill:#d40000" />
    <path
       inkscape:connector-curvature="0"
       id="path8"
       d="m 62.77,137.51 a 4,4 0 0 0 4,-4 V 87.2 a 4,4 0 0 0 -8,0 v 46.3 a 4,4 0 0 0 4,4.01 z"
       style="fill:#d40000" />
    <path
       inkscape:connector-curvature="0"
       id="path10"
       d="m 37.23,137.51 a 4,4 0 0 0 4,-4 V 87.2 a 4,4 0 0 0 -8,0 v 46.3 a 4,4 0 0 0 4,4.01 z"
       style="fill:#d40000" />
  </g>
</svg>
