<?xml version="1.0" encoding="UTF-8" standalone="no"?>
<svg
   xmlns:dc="http://purl.org/dc/elements/1.1/"
   xmlns:cc="http://creativecommons.org/ns#"
   xmlns:rdf="http://www.w3.org/1999/02/22-rdf-syntax-ns#"
   xmlns:svg="http://www.w3.org/2000/svg"
   xmlns="http://www.w3.org/2000/svg"
   xmlns:sodipodi="http://sodipodi.sourceforge.net/DTD/sodipodi-0.dtd"
   xmlns:inkscape="http://www.inkscape.org/namespaces/inkscape"
   viewBox="0 0 181.48648 172.24218"
   version="1.1"
   x="0px"
   y="0px"
   id="svg6"
   sodipodi:docname="parasitisme.svg"
   inkscape:version="0.92.3 (2405546, 2018-03-11)"
   width="181.48648"
   height="172.24219">
  <metadata
     id="metadata12">
    <rdf:RDF>
      <cc:Work
         rdf:about="">
        <dc:format>image/svg+xml</dc:format>
        <dc:type
           rdf:resource="http://purl.org/dc/dcmitype/StillImage" />
        <dc:title></dc:title>
      </cc:Work>
    </rdf:RDF>
  </metadata>
  <defs
     id="defs10" />
  <sodipodi:namedview
     pagecolor="#ffffff"
     bordercolor="#666666"
     borderopacity="1"
     objecttolerance="10"
     gridtolerance="10"
     guidetolerance="10"
     inkscape:pageopacity="0"
     inkscape:pageshadow="2"
     inkscape:window-width="1600"
     inkscape:window-height="836"
     id="namedview8"
     showgrid="false"
     inkscape:zoom="3.1533121"
     inkscape:cx="61.726154"
     inkscape:cy="88.340873"
     inkscape:window-x="0"
     inkscape:window-y="27"
     inkscape:window-maximized="1"
     inkscape:current-layer="svg6"
     fit-margin-top="30"
     fit-margin-left="30"
     fit-margin-right="30"
     fit-margin-bottom="30" />
  <g
     transform="matrix(1.2148647,0,0,1.4997232,1175.6404,-1281.2448)"
     id="g4"
     style="fill:#ff5555">
    <path
       style="opacity:1;fill:#ff5555;fill-opacity:1;fill-rule:evenodd;stroke:none;stroke-width:0.36113143;stroke-linecap:round;stroke-linejoin:round;stroke-miterlimit:6.5999999;stroke-dasharray:none;stroke-dashoffset:0;stroke-opacity:1"
       d="m -910.21004,874.34646 c -2.29008,0.0868 -4.5626,0.4303 -6.72065,0.9932 -7.11847,1.8567 -14.01165,6.04124 -18.69201,11.69989 -4.348,5.25699 -7.42315,12.25002 -7.39603,19.06281 0.0213,5.90054 3.42073,11.44091 6.52201,16.46724 2.74214,4.44459 6.51044,8.24685 10.43522,11.69989 4.21873,3.71188 8.79965,7.18264 13.91141,9.5281 6.13083,2.81295 12.83505,4.70873 19.56603,5.20436 6.39994,0.47113 13.08491,-0.0153 19.12902,-2.16517 7.30663,-2.59901 14.1374,-7.04322 19.56603,-12.56729 4.64335,-4.72522 9.09602,-10.41969 10.43522,-16.89763 1.21156,-5.86172 -0.25281,-12.26008 -2.60881,-17.76503 -1.94481,-4.54422 -5.29712,-8.56775 -9.13081,-11.69989 -5.76351,-4.70932 -12.68441,-8.5604 -20.00304,-9.9651 -1.71357,-0.32911 -4.61745,-1.2027 -5.21761,0.43039 -1.40981,3.83592 5.64604,5.94285 8.70043,8.66732 3.45711,3.08389 8.07055,4.9766 10.8656,8.66732 2.93493,3.87525 6.21419,8.605 5.65462,13.42806 -0.82217,7.08871 -6.84486,13.09926 -12.60701,17.33464 -6.52839,4.79834 -14.93089,7.86298 -23.04223,7.79992 -10.77139,-0.0839 -22.11859,-4.01316 -30.43825,-10.83249 -6.1232,-5.01914 -12.61255,-12.47789 -12.17001,-20.36721 0.2945,-5.2492 5.29563,-9.48295 9.56783,-12.56729 3.6,-2.59917 8.16497,-4.50053 12.60701,-4.33035 4.73467,0.18141 10.50576,1.64306 13.0374,5.63476 2.24693,3.54257 2.12902,9.23536 -0.43039,12.56066 -3.32025,4.31403 -10.1991,4.88805 -15.65282,4.76736 -4.76573,-0.1055 -10.40096,-8.3991 -13.47441,-4.76736 -2.67698,3.16356 2.98074,8.08402 6.085,10.83249 3.40043,3.01046 8.07222,4.85637 12.60701,5.20437 5.502,0.42238 11.59968,-0.69355 16.08321,-3.89996 4.18111,-2.99009 7.16478,-7.98698 8.26342,-12.99767 1.15485,-5.26825 0.31893,-11.24961 -2.17179,-16.03686 -2.54907,-4.89927 -7.07358,-9.12108 -12.17663,-11.26289 -3.42665,-1.43806 -7.28717,-2.00528 -11.10397,-1.86059 z m 3.64173,3.84037 a 0.61220079,0.61220079 0 0 1 0.0662,0 0.61220079,0.61220079 0 0 1 0.57605,0.39066 c 0.30145,0.73088 0.62251,1.53396 0.47674,2.41679 -0.14564,0.88282 -0.82549,1.69021 -2.09234,2.27111 a 0.61220079,0.61220079 0 1 1 -0.50984,-1.11238 c 1.05521,-0.48384 1.31725,-0.9134 1.39047,-1.35737 0.0732,-0.44401 -0.10979,-1.05812 -0.39728,-1.75466 a 0.61220079,0.61220079 0 0 1 0.48998,-0.85415 z m -9.99821,0.8674 a 0.61220079,0.61220079 0 0 1 0.0662,0 0.61220079,0.61220079 0 0 1 0.61578,0.62902 c -0.006,0.70332 0.20801,1.42102 0.20526,2.33733 -0.003,0.91628 -0.27718,1.98634 -1.19184,3.21797 a 0.61315484,0.61315484 0 1 1 -0.98657,-0.72835 c 0.79176,-1.06626 0.95137,-1.78641 0.95347,-2.48962 0.002,-0.70325 -0.20542,-1.43086 -0.19864,-2.35057 a 0.61220079,0.61220079 0 0 1 0.53632,-0.61578 z m 19.55279,1.73478 a 0.61220079,0.61220079 0 0 1 0.0662,0 0.61220079,0.61220079 0 0 1 0.62903,0.66876 c -0.0805,1.01019 -0.37358,1.91813 -0.96671,2.62867 -0.59314,0.71053 -1.46984,1.18673 -2.5757,1.39048 a 0.61296929,0.61296929 0 1 1 -0.22513,-1.20509 c 0.89513,-0.16496 1.46917,-0.49782 1.8606,-0.96671 0.39129,-0.46889 0.62217,-1.11063 0.68862,-1.94667 a 0.61220079,0.61220079 0 0 1 0.52308,-0.56944 z m -29.47816,1.72817 a 0.61220079,0.61220079 0 0 1 0.39066,0.15891 c 0.58802,0.49442 1.26568,1.03834 1.70168,1.8937 0.43597,0.85533 0.58163,1.97671 0.24499,3.46958 a 0.61368864,0.61368864 0 0 1 -1.19846,-0.26485 c 0.29345,-1.30157 0.15725,-2.0672 -0.13905,-2.64854 -0.29633,-0.58133 -0.80596,-1.01922 -1.3971,-1.51628 a 0.61220079,0.61220079 0 0 1 0.33769,-1.0859 0.61220079,0.61220079 0 0 1 0.0596,-0.007 z m 59.14172,0 a 0.61220079,0.61220079 0 0 1 0.56281,0.82767 c -0.16398,0.46563 -0.18091,1.05537 -0.45687,1.75465 -0.27599,0.69925 -0.85341,1.42038 -1.99964,2.04599 a 0.61220079,0.61220079 0 1 1 -0.5893,-1.07265 c 0.97069,-0.52985 1.27006,-0.96742 1.45007,-1.42359 0.18005,-0.45621 0.19428,-1.01845 0.43701,-1.7083 a 0.61220079,0.61220079 0 0 1 0.53633,-0.41715 0.61220079,0.61220079 0 0 1 0.0596,-0.007 z m 7.78006,4.33697 a 0.61220079,0.61220079 0 0 1 0.63565,0.54295 c 0.13984,1.05907 -0.18225,1.96868 -0.76146,2.62867 -0.5792,0.65999 -1.36967,1.10103 -2.2049,1.47656 a 0.61220079,0.61220079 0 1 1 -0.4966,-1.11901 c 0.76403,-0.34352 1.39592,-0.7264 1.78114,-1.16535 0.38535,-0.43896 0.57046,-0.90301 0.47011,-1.66196 a 0.61220079,0.61220079 0 0 1 0.57606,-0.70186 z m -31.27254,0.43039 a 0.61220079,0.61220079 0 0 1 0.50322,0.97333 c -0.74928,1.07776 -1.66325,1.67594 -2.60218,1.92681 -0.93889,0.25087 -1.8721,0.18148 -2.76109,0.0662 a 0.61433626,0.61433626 0 0 1 0.15891,-1.21832 c 0.83926,0.10781 1.61149,0.1486 2.29098,-0.0331 0.67948,-0.18157 1.29329,-0.56083 1.90694,-1.44345 a 0.61220079,0.61220079 0 0 1 0.44363,-0.26485 0.61220079,0.61220079 0 0 1 0.0596,-0.007 z m -41.74748,0.43701 a 0.61220079,0.61220079 0 0 1 0.1258,0.0199 c 1.41338,0.26704 2.20238,1.07921 2.53597,1.94667 0.33376,0.8675 0.34836,1.73799 0.54295,2.37706 a 0.61220079,0.61220079 0 1 1 -1.17197,0.35093 c -0.26355,-0.8658 -0.29069,-1.70398 -0.51647,-2.29098 -0.22578,-0.587 -0.5142,-0.97571 -1.62222,-1.18522 a 0.61220079,0.61220079 0 0 1 0.0463,-1.2117 0.61220079,0.61220079 0 0 1 0.0596,-0.007 z m -4.86006,4.76735 a 0.61220079,0.61220079 0 0 1 0.0662,0 0.61220079,0.61220079 0 0 1 0.35093,0.0993 c 0.56883,0.35909 1.36567,0.67043 1.9864,1.29116 0.31037,0.31037 0.56602,0.72932 0.65552,1.23157 0.0895,0.50228 0.0156,1.05841 -0.22513,1.68182 a 0.61301089,0.61301089 0 0 1 -1.14549,-0.43701 c 0.18578,-0.47736 0.20655,-0.80342 0.16553,-1.03293 -0.0407,-0.22947 -0.13645,-0.39468 -0.31782,-0.57605 -0.36274,-0.36275 -1.07995,-0.68056 -1.77452,-1.11901 a 0.61220079,0.61220079 0 0 1 0.23837,-1.13887 z m 43.56835,3.02595 a 0.61220079,0.61220079 0 0 1 0.43701,0.20526 c 0.90513,0.95117 1.58308,1.14746 2.26449,1.10576 0.68145,-0.0418 1.42231,-0.39968 2.23801,-0.80118 a 0.61296964,0.61296964 0 0 1 0.54295,1.09914 c -0.80515,0.39628 -1.6818,0.86393 -2.70812,0.92699 -1.02636,0.063 -2.14758,-0.35791 -3.22459,-1.4898 a 0.61220079,0.61220079 0 0 1 0.39066,-1.03955 0.61220079,0.61220079 0 0 1 0.0596,-0.007 z m 42.09841,0.007 a 0.61220079,0.61220079 0 0 1 0.0596,0 0.61220079,0.61220079 0 0 1 0.34431,1.13225 c -0.48964,0.32148 -0.92428,0.95373 -1.64872,1.47656 -0.7244,0.52275 -1.79612,0.79343 -3.22458,0.32444 a 0.61350099,0.61350099 0 1 1 0.38403,-1.16535 c 1.16885,0.38379 1.63866,0.19902 2.12545,-0.15229 0.48679,-0.35132 0.93201,-1.00871 1.69506,-1.50967 a 0.61220079,0.61220079 0 0 1 0.26485,-0.10594 z m -86.32227,5.42287 c 0.2612,-0.0456 0.51005,-0.0403 0.74821,0.0199 0.47635,0.12038 0.81408,0.46115 1.02631,0.80118 0.42485,0.68009 0.57693,1.46495 0.8078,1.87383 a 0.61227364,0.61227364 0 0 1 -1.06604,0.60254 c -0.38813,-0.68755 -0.55282,-1.46193 -0.78131,-1.82748 -0.11425,-0.18273 -0.18268,-0.23774 -0.28472,-0.26486 -0.10214,-0.0258 -0.32824,-0.0212 -0.74821,0.17878 a 0.61220079,0.61220079 0 1 1 -0.52309,-1.10576 c 0.2863,-0.13595 0.55985,-0.23246 0.82105,-0.2781 z m 42.91946,3.23783 a 0.61220079,0.61220079 0 0 1 0.54295,0.34431 c 0.60503,1.19339 1.23981,1.95833 1.80762,2.30422 0.56785,0.34647 1.04263,0.36598 1.71492,0.0265 a 0.61297602,0.61297602 0 0 1 0.5562,1.09252 c -0.96571,0.4876 -2.02703,0.46307 -2.90677,-0.0728 -0.87973,-0.53591 -1.60233,-1.48815 -2.26449,-2.7942 a 0.61220079,0.61220079 0 0 1 0.48998,-0.89388 0.61220079,0.61220079 0 0 1 0.0596,-0.007 z m 43.03202,2.16518 a 0.61220079,0.61220079 0 0 1 0.51646,0.29133 c 0.34061,0.52215 0.71708,0.73097 1.29116,0.7747 0.57405,0.0436 1.35972,-0.13884 2.29098,-0.56281 a 0.61220079,0.61220079 0 1 1 0.50985,1.11238 c -1.04084,0.47381 -2.00189,0.73656 -2.89353,0.66875 -0.8916,-0.0677 -1.70533,-0.52799 -2.22476,-1.32426 a 0.61220079,0.61220079 0 0 1 0.45025,-0.95347 0.61220079,0.61220079 0 0 1 0.0596,-0.007 z m -83.61415,2.71474 c 0.49686,-0.0393 1.05248,0.0903 1.7083,0.39066 a 0.61220079,0.61220079 0 1 1 -0.50984,1.11238 c -0.53639,-0.24578 -0.88726,-0.30167 -1.09914,-0.28472 -0.21178,0.017 -0.31892,0.0826 -0.47012,0.21851 -0.3026,0.27178 -0.5955,0.95153 -1.37723,1.35075 a 0.61220079,0.61220079 0 1 1 -0.55619,-1.0859 c 0.28721,-0.14666 0.53925,-0.66377 1.11238,-1.17859 0.28657,-0.25728 0.69498,-0.48376 1.19184,-0.52309 z m 37.07282,0.75483 a 0.61220079,0.61220079 0 0 1 0.61579,0.78794 c -0.27521,0.99259 -0.14041,1.3841 0.0728,1.64209 0.2131,0.25796 0.67381,0.45378 1.26468,0.64227 a 0.61220079,0.61220079 0 1 1 -0.3708,1.16536 c -0.61659,-0.19677 -1.33404,-0.41959 -1.84073,-1.03293 -0.50648,-0.61334 -0.63817,-1.54474 -0.30458,-2.74786 a 0.61220079,0.61220079 0 0 1 0.56281,-0.45687 z m -6.5816,0.8674 a 0.61220079,0.61220079 0 0 1 0.0662,0 0.61220079,0.61220079 0 0 1 0.5893,0.84753 c -0.96679,2.44122 -0.67941,4.08427 0.72173,5.39638 a 0.61362749,0.61362749 0 0 1 -0.84091,0.89388 c -1.74625,-1.63532 -2.09859,-4.01621 -1.01968,-6.74051 a 0.61220079,0.61220079 0 0 1 0.48335,-0.39728 z m -7.34967,1.29778 a 0.61220079,0.61220079 0 0 1 0.46349,1.07265 c -0.82214,0.76149 -0.99368,1.30328 -0.97334,1.82749 0.0206,0.52425 0.29762,1.1084 0.65552,1.76127 a 0.61220079,0.61220079 0 1 1 -1.07266,0.5893 c -0.36607,-0.66775 -0.77255,-1.40607 -0.8078,-2.2976 -0.0351,-0.89153 0.36977,-1.8601 1.36399,-2.78096 a 0.61220079,0.61220079 0 0 1 0.36417,-0.16553 0.61220079,0.61220079 0 0 0 0.007,-0.007 z m 59.1682,2.16517 a 0.61220079,0.61220079 0 0 1 0.51646,0.28472 c 0.69925,1.05918 1.4325,1.93535 2.22477,2.43665 0.79227,0.50147 1.61612,0.68147 2.74123,0.35093 a 0.61220079,0.61220079 0 1 1 0.34431,1.17198 c -1.42036,0.41715 -2.69777,0.17259 -3.73443,-0.48336 -1.03663,-0.65596 -1.85255,-1.67537 -2.59556,-2.80082 a 0.61220079,0.61220079 0 0 1 0.44363,-0.95347 0.61220079,0.61220079 0 0 1 0.0596,-0.007 z m -77.36362,1.31103 a 0.61269644,0.61269644 0 0 1 -0.0331,1.22494 c -1.06888,-0.0312 -1.58057,0.1288 -1.8606,0.29796 -0.27995,0.1692 -0.40823,0.39284 -0.67537,0.75483 a 0.61315286,0.61315286 0 0 1 -0.98658,-0.72834 c 0.21046,-0.28535 0.47117,-0.74366 1.0263,-1.07928 0.55514,-0.33552 1.32972,-0.50537 2.52935,-0.47011 z m 3.95294,4.77397 a 0.61220079,0.61220079 0 1 1 -0.11919,1.21833 c -1.07212,-0.10564 -1.59511,0.0971 -1.96653,0.4039 -0.37146,0.30681 -0.62538,0.79651 -0.89388,1.3971 a 0.61220079,0.61220079 0 1 1 -1.11239,-0.4966 c 0.27413,-0.61327 0.58205,-1.31632 1.22495,-1.84735 0.64287,-0.53096 1.58289,-0.80183 2.86704,-0.67538 z m 68.55062,2.15194 a 0.61220079,0.61220079 0 0 1 0.0596,0 0.61220079,0.61220079 0 0 1 0.60254,0.43038 c 0.9929,2.9948 2.71708,3.76186 4.80709,4.37008 a 0.61220079,0.61220079 0 1 1 -0.33769,1.17198 c -2.21571,-0.64477 -4.51213,-1.79194 -5.62813,-5.15802 a 0.61220079,0.61220079 0 0 1 0.4966,-0.81442 z m -64.64404,3.03257 a 0.61319712,0.61319712 0 1 1 0.0596,1.22494 c -2.3403,0.43278 -2.78268,1.60858 -4.02577,2.86042 a 0.61220079,0.61220079 0 1 1 -0.86739,-0.86078 c 1.05951,-1.06697 1.93529,-2.69939 4.66804,-3.20472 a 0.61220079,0.61220079 0 0 1 0.10594,-0.0132 0.61220079,0.61220079 0 0 1 0.0596,-0.007 z m 6.02541,3.46295 a 0.61220079,0.61220079 0 0 1 0.3112,1.15873 c -0.9394,0.52788 -1.68338,1.11977 -2.15193,1.78776 -0.46845,0.66803 -0.68947,1.40254 -0.58268,2.37706 a 0.61275022,0.61275022 0 1 1 -1.21832,0.13243 c -0.13594,-1.24038 0.17454,-2.32741 0.79456,-3.21135 0.62002,-0.88394 1.51991,-1.56981 2.55583,-2.15193 a 0.61220079,0.61220079 0 0 1 0.27148,-0.0861 0.61220079,0.61220079 0 0 1 0.0199,-0.007 z m 52.16946,0 a 0.61220079,0.61220079 0 0 1 0.57605,0.39066 c 0.50276,1.19736 1.04025,2.2764 1.66858,3.05243 0.62832,0.776 1.30655,1.23683 2.18503,1.33751 a 0.6131191,0.6131191 0 1 1 -0.13904,1.21833 c -1.2454,-0.14293 -2.23427,-0.84425 -2.99284,-1.78114 -0.75854,-0.93686 -1.33336,-2.11708 -1.85398,-3.35702 a 0.61220079,0.61220079 0 0 1 0.49661,-0.85415 0.61220079,0.61220079 0 0 1 0.0596,-0.007 z m -46.54795,3.46958 a 0.61220079,0.61220079 0 0 1 0.0596,0 0.61220079,0.61220079 0 0 1 0.43039,1.03292 c -1.62679,1.78569 -2.22682,3.51044 -2.44989,5.29707 a 0.61391307,0.61391307 0 1 1 -1.21833,-0.15229 c 0.24599,-1.96868 0.97339,-3.99626 2.76772,-5.96582 a 0.61220079,0.61220079 0 0 1 0.41052,-0.21188 z m 39.53596,1.29778 a 0.61220079,0.61220079 0 0 1 0.0596,0 0.61220079,0.61220079 0 0 1 0.61578,0.6224 c -0.003,1.20143 0.0892,2.28853 0.36418,3.08554 0.275,0.79702 0.66866,1.28562 1.3971,1.53615 a 0.61247292,0.61247292 0 0 1 -0.39728,1.15873 c -1.10321,-0.37922 -1.79655,-1.26096 -2.15193,-2.29098 -0.35549,-1.03002 -0.43348,-2.22947 -0.43039,-3.48944 a 0.61220079,0.61220079 0 0 1 0.54295,-0.6224 z m -30.00787,1.31102 a 0.61220079,0.61220079 0 0 1 0.0596,0 0.61220079,0.61220079 0 0 1 0.25824,1.1786 c -2.62189,1.10891 -3.38652,2.99293 -3.99929,5.23085 a 0.61220079,0.61220079 0 1 1 -1.17859,-0.32445 c 0.63995,-2.33721 1.6724,-4.76044 4.69452,-6.03865 a 0.61220079,0.61220079 0 0 1 0.16553,-0.0463 z m 23.14155,2.15193 a 0.61220079,0.61220079 0 0 1 0.50322,0.94023 c -0.65816,1.09518 -0.76459,1.89032 -0.60254,2.55584 0.16201,0.66554 0.63087,1.27027 1.33751,1.86059 a 0.6133732,0.6133732 0 1 1 -0.78794,0.94023 c -0.81634,-0.68199 -1.49258,-1.48706 -1.74141,-2.50949 -0.24887,-1.02242 -0.0275,-2.19635 0.74159,-3.47619 a 0.61220079,0.61220079 0 0 1 0.48336,-0.30458 0.61220079,0.61220079 0 0 1 0.0662,-0.007 z m -15.72566,0.007 a 0.61220079,0.61220079 0 0 1 0.0596,0 0.61220079,0.61220079 0 0 1 0.48998,0.97333 c -0.68202,0.96045 -1.52557,1.831 -2.06585,2.6684 -0.54012,0.83736 -0.77641,1.54126 -0.4635,2.40354 a 0.6126508,0.6126508 0 0 1 -1.15211,0.41714 c -0.46783,-1.28946 -0.0488,-2.49389 0.5893,-3.48282 0.63806,-0.98893 1.48998,-1.86647 2.09234,-2.71474 a 0.61220079,0.61220079 0 0 1 0.45025,-0.26485 z m 8.28328,0 a 0.61220079,0.61220079 0 0 1 0.54958,0.94685 c -0.65019,1.04507 -1.11547,2.05154 -1.23819,2.99946 -0.12252,0.94791 0.0583,1.83627 0.77469,2.80744 a 0.61315484,0.61315484 0 0 1 -0.98658,0.72835 c -0.88183,-1.19533 -1.15746,-2.4695 -0.99982,-3.68808 0.15754,-1.21858 0.71263,-2.37461 1.41035,-3.49606 a 0.61220079,0.61220079 0 0 1 0.48997,-0.29796 z"
       id="path2"
       inkscape:connector-curvature="0" />
  </g>
</svg>
