<?xml version="1.0" encoding="UTF-8" standalone="no"?>
<svg
   xmlns:dc="http://purl.org/dc/elements/1.1/"
   xmlns:cc="http://creativecommons.org/ns#"
   xmlns:rdf="http://www.w3.org/1999/02/22-rdf-syntax-ns#"
   xmlns:svg="http://www.w3.org/2000/svg"
   xmlns="http://www.w3.org/2000/svg"
   xmlns:sodipodi="http://sodipodi.sourceforge.net/DTD/sodipodi-0.dtd"
   xmlns:inkscape="http://www.inkscape.org/namespaces/inkscape"
   version="1.1"
   x="0px"
   y="0px"
   viewBox="0 0 100 100"
   enable-background="new 0 0 100 100"
   xml:space="preserve"
   id="svg24"
   sodipodi:docname="global.svg"
   inkscape:version="0.92.3 (2405546, 2018-03-11)"><metadata
     id="metadata30"><rdf:RDF><cc:Work
         rdf:about=""><dc:format>image/svg+xml</dc:format><dc:type
           rdf:resource="http://purl.org/dc/dcmitype/StillImage" /><dc:title></dc:title></cc:Work></rdf:RDF></metadata><defs
     id="defs28" /><sodipodi:namedview
     pagecolor="#ffffff"
     bordercolor="#666666"
     borderopacity="1"
     objecttolerance="10"
     gridtolerance="10"
     guidetolerance="10"
     inkscape:pageopacity="0"
     inkscape:pageshadow="2"
     inkscape:window-width="1600"
     inkscape:window-height="836"
     id="namedview26"
     showgrid="false"
     inkscape:zoom="2.36"
     inkscape:cx="3.3898305"
     inkscape:cy="50"
     inkscape:window-x="0"
     inkscape:window-y="27"
     inkscape:window-maximized="1"
     inkscape:current-layer="svg24" /><path
     d="m 72.132232,64.819834 c -0.08246,-0.181561 -0.224375,-0.187111 -0.317931,-0.01189 l -0.498698,0.929212 c -0.09593,0.175219 -0.271946,0.4432 -0.395629,0.59939 l -0.694531,0.878471 c -0.124477,0.155397 -0.347266,0.386115 -0.498699,0.514556 -0.35123,0.297316 -0.925249,0.787293 -1.048139,0.909391 -0.133198,0.132405 -0.55737,0.427343 -0.750031,0.742102 -0.103862,0.170461 -0.06739,0.500284 -0.01744,0.693738 0.05312,0.210897 0.120512,0.4432 0.17839,0.625554 0.05708,0.191075 0.0032,0.466985 -0.127648,0.616832 -0.246575,0.28701 -0.61049,0.714352 -0.725452,0.871336 -0.180769,0.240231 -0.480463,0.719902 -0.480463,0.901463 0,0.09752 0,0.371051 0,0.601768 0,0.199004 0.160947,0.360744 0.358365,0.360744 h 0.362329 c 0.199004,0 0.479671,-0.109412 0.62714,-0.243403 l 0.455092,-0.417829 0.812665,-0.902256 0.628725,-0.696116 c 0.134783,-0.148262 0.269567,-0.42655 0.304452,-0.622383 l 0.116548,-0.673124 c 0.03409,-0.19504 0.127648,-0.501077 0.210104,-0.682638 l 0.245781,-0.544684 c 0.08246,-0.182354 0.256089,-0.449542 0.390079,-0.597011 l 0.116548,-0.127648 c 0.132405,-0.147469 0.308416,-0.413072 0.392458,-0.594633 l 0.210896,-0.453507 0.347266,-0.868956 c 0.07294,-0.184733 0.13399,-0.49632 0.13399,-0.694531 0,-0.199797 -0.0666,-0.509799 -0.146676,-0.69136 z"
     id="path2"
     style="fill:#afc6e9;stroke-width:0.7928437"
     inkscape:connector-curvature="0" /><path
     d="m 50.182354,40.566746 c 0.07136,0 0.169669,-0.07928 0.220411,-0.177597 0.04995,-0.09752 0.05233,-0.285424 0.0071,-0.420207 l -0.01506,-0.03885 c -0.04678,-0.13399 -0.154604,-0.171254 -0.239439,-0.08246 -0.08642,0.0888 -0.14509,0.275116 -0.130026,0.417035 l 0.0032,0.0444 c 0.01427,0.143504 0.08325,0.257674 0.153812,0.257674 z"
     id="path4"
     style="fill:#afc6e9;stroke-width:0.7928437"
     inkscape:connector-curvature="0" /><path
     d="m 44.546028,32.003241 c -0.08325,0.07373 -0.165704,0.149055 -0.179975,0.169669 -0.0333,0.04281 -0.386115,0.149847 -0.420207,0.182354 -0.03171,0.03251 -0.256089,0.375015 -0.256089,0.450335 0,0.03092 0,0.07532 0,0.118134 0,0.06581 -0.09593,0.157775 -0.208518,0.217239 -0.09356,0.04995 -0.182354,0.105448 -0.17839,0.136369 0.0055,0.03409 0.02934,0.204554 0.04995,0.35678 0.01982,0.140333 0.133991,0.221996 0.256089,0.179975 l 0.219618,-0.07532 c 0,0 0.100691,-0.04361 0.225167,-0.09593 0.126062,-0.05391 0.302867,-0.08721 0.397215,-0.07532 0.09514,0.01189 0.220411,-0.07611 0.279874,-0.198211 l 0.107034,-0.219618 c 0,0 0.03409,-0.08721 0.07453,-0.193454 0.04123,-0.107034 0.147469,-0.246574 0.23706,-0.310795 0.0888,-0.06581 0.149055,-0.21486 0.133198,-0.333787 -0.01427,-0.118133 -0.130819,-0.26481 -0.258467,-0.328237 l -0.06343,-0.03171 c -0.126854,-0.06026 -0.314758,-0.03885 -0.414657,0.05154 z"
     id="path6"
     style="fill:#afc6e9;stroke-width:0.7928437"
     inkscape:connector-curvature="0" /><path
     d="m 45.578311,31.786795 c 0.0111,0.09752 -0.0111,0.451128 0.05312,0.515348 0.06501,0.06422 0.462228,0.225961 0.462228,0.290181 0,0.06422 -0.269567,0.353608 -0.269567,0.385322 0,0.0333 -0.278288,-0.138748 -0.342508,0.0111 -0.06581,0.15064 -0.05391,0.375808 0.03171,0.429721 0.08483,0.05391 -0.505042,0.300488 -0.516142,0.353608 -0.0048,0.02934 0.166497,0.06105 0.325859,0.08483 0.140333,0.02061 0.179976,0.103069 0.08801,0.189489 l -0.166497,0.154605 -0.193454,0.215653 c -0.09514,0.106241 -0.05709,0.179976 0.08404,0.163326 l 0.602561,-0.0666 0.837243,-0.05391 0.485221,-0.0555 c 0.141126,-0.01665 0.279873,-0.137955 0.309209,-0.271946 0.02933,-0.132405 0.08483,-0.298109 0.124476,-0.369465 0.03726,-0.07056 0.0095,-0.228339 -0.06264,-0.349644 l -0.101484,-0.169668 c -0.07294,-0.122098 -0.168875,-0.329823 -0.21486,-0.464607 l -0.06026,-0.177597 c -0.04599,-0.134783 -0.179976,-0.308416 -0.29811,-0.3877 l -0.08563,-0.05708 c -0.118133,-0.07928 -0.233096,-0.25371 -0.256881,-0.390079 -0.02378,-0.136369 0.01189,-0.32348 0.08008,-0.417829 0.06818,-0.09435 0.164119,-0.246574 0.214861,-0.338544 0.05154,-0.09276 -0.01189,-0.218825 -0.137955,-0.283045 l -0.0666,-0.03488 c -0.126855,-0.06422 -0.281459,-0.180769 -0.347265,-0.262432 -0.06581,-0.07928 -0.21169,-0.07611 -0.327445,0.0063 l -0.23706,0.170461 c -0.114962,0.08325 -0.216446,0.265603 -0.225168,0.408315 l -7.93e-4,0.0222 c -0.0087,0.141126 0.04043,0.358365 0.10307,0.48522 0.05312,0.107034 0.10307,0.219618 0.10862,0.26481 z"
     id="path8"
     style="fill:#afc6e9;stroke-width:0.7928437"
     inkscape:connector-curvature="0" /><path
     d="m 43.211672,27.746463 h 0.176804 c 0.142712,0 0.364709,-0.04361 0.495528,-0.09593 l 0.324273,-0.130026 0.462228,-0.23706 c 0.126855,-0.06422 0.171254,-0.207725 0.0999,-0.318724 -0.06977,-0.110998 -0.230718,-0.252917 -0.358365,-0.316344 l -0.05391,-0.02696 c -0.127648,-0.06422 -0.344887,-0.09831 -0.48522,-0.07691 l -0.247367,0.03647 c -0.141126,0.02061 -0.360744,-0.0087 -0.490771,-0.06581 l -0.04281,-0.01903 c -0.131612,-0.05629 -0.290181,-0.04995 -0.35678,0.01744 -0.0666,0.06739 -0.121305,0.185526 -0.121305,0.266396 v 0.14509 c 0,0 0,0.107034 0,0.241025 0,0.133197 0.07611,0.316344 0.169669,0.410693 0.09435,0.09355 0.286216,0.169668 0.428135,0.169668 z"
     id="path10"
     style="fill:#afc6e9;stroke-width:0.7928437"
     inkscape:connector-curvature="0" /><path
     d="m 50.41545,22.728556 c 0.132405,0.05471 0.287802,0.149054 0.347266,0.213275 0.05867,0.06581 0.165704,0.05153 0.240231,-0.03251 l 0.133991,-0.149848 c 0,0 0.04361,-0.05153 0.09752,-0.114962 0.05312,-0.06264 0.185525,-0.06264 0.294145,0 0.110205,0.06343 0.228339,0.02696 0.264017,-0.08325 0.03568,-0.110206 -0.0111,-0.244196 -0.102277,-0.299695 -0.09197,-0.05629 -0.115755,-0.137162 -0.05391,-0.181562 0.06264,-0.04361 0.01427,-0.137954 -0.109412,-0.210896 l -0.04995,-0.02933 c -0.122891,-0.07294 -0.308416,-0.05946 -0.41545,0.02933 -0.106241,0.08959 -0.306831,0.141126 -0.44875,0.133991 -0.176011,-0.0079 -0.380565,0.0048 -0.3988,0.112583 -0.03171,0.194247 -0.118134,0.451128 -0.08483,0.483635 0.01586,0.01665 0.155397,0.07611 0.286216,0.129234 z"
     id="path12"
     style="fill:#afc6e9;stroke-width:0.7928437"
     inkscape:connector-curvature="0" /><path
     d="m 53.411606,21.632846 c 0.100692,0.04598 0.296524,0.04519 0.433686,0.0079 l 0.179183,-0.04836 c 0.136369,-0.03726 0.355986,-0.10862 0.488391,-0.158569 l 0.24816,-0.09514 c 0.133991,-0.05074 0.136369,-0.141919 0.0079,-0.201383 l -0.198211,-0.09276 c -0.130026,-0.06105 -0.347266,-0.0888 -0.487599,-0.06343 -0.285424,0.05391 -0.711974,0.136369 -0.711974,0.156983 0,0.0333 -0.107826,0.332994 -0.118133,0.386908 -0.0048,0.02616 0.07532,0.07056 0.158568,0.107827 z"
     id="path14"
     style="fill:#afc6e9;stroke-width:0.7928437"
     inkscape:connector-curvature="0" /><path
     d="m 56.536203,23.136077 c 0.08642,0.09673 0.429722,0.407522 0.429722,0.461435 0,0.02775 0.112583,0.118927 0.221203,0.202175 0.113377,0.08642 0.322687,0.151434 0.465399,0.151434 h 0.139541 c 0.142712,0 0.30128,-0.01824 0.354401,-0.04281 0.05391,-0.02299 0,-0.10307 -0.122098,-0.179183 l -0.0777,-0.04836 c -0.121305,-0.07611 -0.308416,-0.210104 -0.416243,-0.301281 l -0.0444,-0.03568 c -0.110205,-0.09118 -0.23706,-0.272738 -0.284631,-0.407521 l -0.01903,-0.05629 c -0.04836,-0.133198 -0.119719,-0.275117 -0.162533,-0.314759 -0.04123,-0.04043 -0.06581,-0.187904 -0.05471,-0.329823 l 0.01506,-0.205347 c 0.0111,-0.141919 -0.03092,-0.361536 -0.09197,-0.489184 l -0.05629,-0.114963 c -0.06105,-0.12844 -0.191075,-0.20376 -0.287802,-0.168082 -0.09752,0.03568 -0.18949,0.172839 -0.204554,0.30683 -0.01506,0.132405 -0.137162,0.290181 -0.228339,0.399593 -0.05709,0.06818 -0.09752,0.157776 -0.0666,0.25926 0.07532,0.24816 0.354401,0.440821 0.365501,0.547855 0.0087,0.107034 0.04202,0.267981 0.126062,0.364708 z"
     id="path16"
     style="fill:#afc6e9;stroke-width:0.7928437"
     inkscape:connector-curvature="0" /><path
     d="m 58.866371,22.937073 0.236267,0.192661 c 0,0 0.0555,0.03885 0.122891,0.08642 0.06818,0.04757 0.214068,0.128441 0.325066,0.182354 0.110998,0.05312 0.241025,0.04757 0.288595,-0.01427 0.04995,-0.06026 0.06818,-0.179975 0.04361,-0.265602 -0.02458,-0.08563 -0.110206,-0.195833 -0.190283,-0.244989 l -0.14509,-0.08721 -0.354401,-0.252124 c 0,0 -0.07849,-0.06581 -0.174426,-0.145091 -0.09593,-0.08087 -0.254503,-0.125269 -0.352815,-0.09514 -0.0777,0.02537 -0.154605,0.05312 -0.169669,0.07215 -0.03171,0.04361 0.05788,0.22596 0.06422,0.275117 0.0055,0.04916 0.306038,0.29573 0.306038,0.29573 z"
     id="path18"
     style="fill:#afc6e9;stroke-width:0.7928437"
     inkscape:connector-curvature="0" /><path
     d="m 19.569866,43.822955 c -0.0222,-0.140334 -0.0222,-0.35123 0.0016,-0.469364 0.02299,-0.118133 -0.01031,-0.316344 -0.07532,-0.443199 l -0.107034,-0.207725 c -0.06581,-0.126855 -0.221203,-0.278288 -0.350437,-0.340923 l -0.114962,-0.0555 c -0.128441,-0.06184 -0.262432,-0.222789 -0.298902,-0.359951 l -0.08008,-0.297317 C 18.507456,41.511023 18.394872,41.480102 18.292595,41.58 l -0.03885,0.03806 c -0.102277,0.09911 -0.184733,0.294938 -0.184733,0.436857 0,0.201383 0,0.4543 0,0.505042 0,0.0555 0.123684,0.268774 0.214861,0.448749 0.06501,0.127648 0.125269,0.349644 0.181561,0.481256 0.03488,0.08246 0.0777,0.174426 0.114962,0.255296 0.06105,0.128441 0.174426,0.329823 0.250539,0.449542 l 0.281459,0.444786 c 0.07611,0.119719 0.126063,0.332994 0.111791,0.473327 l -0.08087,0.774609 -0.09593,0.711181 c -0.01744,0.141126 0.02696,0.157775 0.102277,0.03568 l 0.114962,-0.185526 c 0.07453,-0.120512 0.16729,-0.32903 0.207726,-0.465399 l 0.15619,-0.536755 c 0.04043,-0.136369 0.07294,-0.36233 0.07294,-0.505042 v -0.06343 c 0,-0.141919 -0.01982,-0.371844 -0.04202,-0.512177 z"
     id="path20"
     style="fill:#afc6e9;stroke-width:0.7928437"
     inkscape:connector-curvature="0" /><path
     d="M 75.228286,24.771714 C 68.489908,18.033335 59.530774,14.322034 50,14.322034 c -9.529188,0 -18.489115,3.711301 -25.227493,10.44968 C 18.034128,31.510885 14.322034,40.470019 14.322034,50 c 0,9.530774 3.712094,18.489908 10.450473,25.228286 6.738378,6.738379 15.698305,10.44968 25.227493,10.44968 9.530774,0 18.489908,-3.711301 25.228286,-10.44968 C 81.966665,68.489908 85.677966,59.530774 85.677966,50 c 0,-9.529981 -3.711301,-18.489115 -10.44968,-25.228286 z M 50,83.073475 c -9.656043,0 -18.358296,-4.160051 -24.410864,-10.782675 -0.09593,-0.104655 -0.193454,-0.304452 -0.21724,-0.444785 l -0.09038,-0.511384 c -0.02299,-0.141126 -0.119719,-0.34013 -0.216446,-0.444785 -0.130026,-0.141127 -0.306038,-0.329823 -0.444785,-0.463021 -0.10307,-0.09831 -0.193454,-0.268774 -0.110206,-0.383736 0.08325,-0.114963 0.199004,-0.250539 0.296524,-0.359952 0.09435,-0.107033 0.277495,-0.141919 0.406729,-0.08087 l 0.262431,0.124477 c 0.130026,0.05867 0.328237,0.04281 0.443992,-0.03964 l 0.309209,-0.218825 c 0.116548,-0.08246 0.202968,-0.263224 0.191869,-0.405143 L 26.31142,67.602718 26.27416,65.929025 c -0.0024,-0.142712 0.06818,-0.346473 0.158568,-0.455886 l 0.52962,-0.634274 c 0.09118,-0.110206 0.148262,-0.313174 0.126855,-0.452714 l -0.268774,-1.85129 c -0.02061,-0.141126 -0.113377,-0.340923 -0.207725,-0.447164 l -0.85945,-0.967271 -0.689774,-0.792051 c -0.09355,-0.10862 -0.265602,-0.257674 -0.384529,-0.335373 l -0.898292,-0.578776 c -0.118926,-0.0777 -0.296523,-0.223582 -0.39325,-0.326652 l -1.148831,-1.213843 c -0.09752,-0.103863 -0.23151,-0.289388 -0.298109,-0.414658 l -0.444785,-0.833278 c -0.0666,-0.12527 -0.142712,-0.34013 -0.169669,-0.479671 L 21.203124,55.497578 20.832866,53.94519 c -0.03251,-0.138747 -0.115755,-0.35123 -0.185525,-0.475706 l -0.779365,-1.396991 c -0.06818,-0.124476 -0.202968,-0.310001 -0.296524,-0.417035 -0.149847,-0.174426 -0.344094,-0.414658 -0.344094,-0.493942 0,-0.128441 -0.429721,-2.01858 -0.429721,-2.01858 L 18.226789,47.200469 C 18.186354,47.0641 18.092006,46.855582 18.016685,46.735863 l -0.645374,-1.022769 c -0.07453,-0.120512 -0.121305,-0.332201 -0.0999,-0.47412 0.313967,-2.166842 0.836451,-4.267878 1.551596,-6.279322 0.04757,-0.133198 0.0666,-0.157776 0.04123,-0.05312 l -0.0444,0.18949 -0.169668,0.97044 c -0.02458,0.139541 0.03251,0.339337 0.126855,0.445579 l 0.17284,0.195832 c 0.09514,0.105448 0.205346,0.08246 0.24816,-0.05391 l 0.147469,-0.474914 c 0.04281,-0.134783 0.07611,-0.360744 0.07611,-0.502663 v -0.536755 c 0,-0.141919 -0.03092,-0.368672 -0.07056,-0.505834 l -0.104655,-0.36788 c -0.03964,-0.136369 -0.02933,-0.355194 0.02299,-0.487598 0.470156,-1.177373 1.006911,-2.323033 1.603922,-3.429842 0.0666,-0.126062 0.233889,-0.237061 0.371051,-0.251332 0.137955,-0.01348 0.347266,-0.08325 0.468571,-0.158568 l 0.268774,-0.164119 c 0.122098,-0.07532 0.299695,-0.218825 0.397214,-0.321895 0.224375,-0.237853 0.579569,-0.622382 0.579569,-0.665988 0,-0.06501 0.611283,-0.371051 0.611283,-0.466985 0,-0.06818 0.50187,-0.36233 0.806322,-0.53517 0.124476,-0.06977 0.339337,-0.125269 0.482049,-0.125269 h 0.208518 c 0.142711,0 0.324273,-0.09514 0.40435,-0.212482 0.107827,-0.159362 0.237853,-0.359951 0.256881,-0.41545 0.01982,-0.05867 0.287802,-0.158569 0.495528,-0.227546 0.134783,-0.04598 0.260052,0.03568 0.278288,0.176804 l 0.03092,0.229924 c 0.01744,0.141919 0.147469,0.244196 0.287802,0.227547 0.396422,-0.04519 1.113152,-0.130027 1.113152,-0.164912 0,-0.02379 -0.03568,-0.125269 -0.07453,-0.226753 -0.04678,-0.124477 -0.09911,-0.338545 -0.115755,-0.478878 l -0.0222,-0.196625 c -0.01586,-0.141919 0.08246,-0.289388 0.218032,-0.329823 l 0.102277,-0.03013 c 0.135576,-0.04123 0.327445,-0.157776 0.424172,-0.260846 l 0.273531,-0.287009 c 0.09752,-0.103863 0.07373,-0.238646 -0.05312,-0.301281 l -0.05391,-0.02775 c -0.127648,-0.06343 -0.230718,-0.222789 -0.230718,-0.35678 0,-0.132405 0.113377,-0.222789 0.25371,-0.199004 l 0.280667,0.04519 c 0.141126,0.02299 0.355194,0.09831 0.478877,0.168083 l 0.402765,0.227546 0.357573,0.209311 c 0.12289,0.07136 0.155397,0.222789 0.07215,0.338544 l -0.149847,0.210104 c -0.08325,0.115755 -0.260053,0.245782 -0.394836,0.291766 l -0.462228,0.156191 c -0.134784,0.04598 -0.278288,0.193454 -0.320309,0.32903 l -0.136369,0.442407 c -0.04202,0.136369 0.0024,0.329823 0.09911,0.432892 l 0.404351,0.430514 c 0.09593,0.10307 0.289388,0.164912 0.428135,0.133991 0.28146,-0.06264 0.697703,-0.16174 0.697703,-0.204554 0,-0.03568 -0.02537,-0.224375 -0.04599,-0.388493 -0.01982,-0.141126 0.01665,-0.359158 0.08087,-0.484428 l 0.543891,-1.07351 0.382943,-0.752409 c 0.06422,-0.126855 0.202968,-0.30683 0.310002,-0.399593 l 0.402764,-0.352815 c 0.106242,-0.09276 0.244196,-0.272739 0.304452,-0.401179 0.184733,-0.377394 0.533584,-1.09016 0.581155,-1.136938 0.0444,-0.04519 0.495527,-0.465399 0.760337,-0.709595 0.103863,-0.09831 0.199004,-0.290181 0.211689,-0.4321 l 0.02061,-0.244196 c 0.01189,-0.142712 -0.09038,-0.230717 -0.229132,-0.199004 l -0.754787,0.174426 c -0.137955,0.03251 -0.168083,-0.0222 -0.06501,-0.121305 l 0.394043,-0.383736 0.692946,-0.731002 c 0.09831,-0.10307 0.218032,-0.294145 0.267188,-0.427343 l 0.126062,-0.338544 c 0.04995,-0.133198 -0.01586,-0.241025 -0.143505,-0.241025 -0.130026,0 -0.324273,0.06977 -0.438442,0.15619 l -0.61604,0.471742 -1.034661,0.77778 c -0.113376,0.08642 -0.310002,0.205347 -0.437649,0.266396 l -0.308417,0.147468 c -0.127647,0.06184 -0.327444,0.17839 -0.443199,0.260846 l -0.995812,0.700874 c -0.116548,0.08246 -0.325859,0.149054 -0.467778,0.149054 H 29.30123 c -0.141919,0 -0.182354,-0.0888 -0.09276,-0.19821 l 0.394836,-0.474121 c 0.09118,-0.109412 0.252124,-0.274324 0.358366,-0.368672 l 1.030696,-0.907806 0.86975,-0.804737 1.01484,-0.837243 0.665989,-0.517727 c 0.112583,-0.08721 0.316344,-0.181561 0.455885,-0.211689 l 0.268774,-0.0555 c 0.138747,-0.02854 0.366293,-0.0555 0.509005,-0.05867 l 0.145091,-0.0032 c 0.142712,-0.0032 0.206139,0.09673 0.142712,0.223582 l -0.171255,0.344887 c -0.06422,0.127648 -0.0071,0.233889 0.126855,0.237853 0.132405,0.0048 0.320309,-0.04123 0.417829,-0.104655 0.09673,-0.06184 0.211689,-0.0024 0.255296,0.132405 l 0.0032,0.01031 c 0.04281,0.134783 0.0111,0.337751 -0.07294,0.452714 l -0.03568,0.04995 c -0.08325,0.114962 -0.232303,0.288595 -0.33458,0.3877 l -0.24261,0.237061 c -0.102277,0.09911 -0.219618,0.289388 -0.263224,0.424964 l -0.149847,0.475706 c -0.04281,0.134783 0.02934,0.202175 0.16174,0.149055 l 0.356779,-0.144298 0.486806,-0.206139 c 0.131612,-0.05471 0.352023,-0.10862 0.494735,-0.121305 l 0.275909,-0.0222 c 0.141127,-0.0111 0.363916,-0.06105 0.497906,-0.110998 l 0.547062,-0.205347 c 0.133991,-0.04995 0.336166,-0.155397 0.453507,-0.23706 l 0.883228,-0.61049 0.759544,-0.448749 c 0.122891,-0.07294 0.294938,-0.221203 0.383737,-0.331409 l 0.194246,-0.24261 c 0.08721,-0.110998 0.05709,-0.250538 -0.07136,-0.313173 l -0.03568,-0.01744 c -0.127647,-0.06184 -0.174425,-0.195039 -0.103862,-0.296523 0.07215,-0.102277 0.179975,-0.289388 0.24261,-0.417036 l 0.241024,-0.493149 c 0,0 0.03885,-0.08642 0.0888,-0.193454 0.04995,-0.106241 0.177597,-0.120512 0.289388,-0.03171 l 0.195039,0.158568 c 0.110999,0.08959 0.299695,0.10307 0.421793,0.02934 l 0.342509,-0.204554 0.233889,-0.15064 c 0.120512,-0.07691 0.322687,-0.09514 0.454299,-0.03885 l 0.58829,0.249746 c 0.130819,0.0555 0.126062,0.130819 -0.01189,0.166497 l -0.40435,0.109413 c -0.136369,0.03568 -0.313966,0.155397 -0.39325,0.267188 -0.08008,0.111791 -0.05867,0.277495 0.04836,0.371051 0.107034,0.09356 0.08959,0.218825 -0.03964,0.280666 l -0.24261,0.115756 c -0.129234,0.06184 -0.321895,0.185525 -0.429721,0.275909 l -0.688189,0.575605 -0.558162,0.558955 c -0.100691,0.0999 -0.283838,0.23706 -0.408314,0.306037 l -0.562919,0.310002 -1.10681,0.742102 c -0.118134,0.08008 -0.292559,0.227546 -0.390872,0.330616 l -0.194247,0.205346 c -0.09673,0.103863 -0.24261,0.28146 -0.324273,0.398008 l -0.302866,0.433685 -0.413072,0.577983 c -0.08325,0.116548 -0.176804,0.321895 -0.208518,0.461435 l -0.04361,0.190283 c -0.03251,0.138747 0.04202,0.307623 0.166497,0.377393 l 0.355194,0.199004 c 0.123684,0.06898 0.307624,0.0444 0.4099,-0.05391 l 0.210104,-0.204554 c 0.101484,-0.09911 0.25371,-0.271153 0.340923,-0.385322 l 0.09038,-0.119719 c 0.08642,-0.11417 0.26481,-0.242611 0.399593,-0.28701 l 0.428929,-0.143505 c 0.135576,-0.04519 0.344094,-0.137954 0.46857,-0.208517 l 0.260846,-0.148262 c 0.123683,-0.07056 0.338544,-0.127648 0.481256,-0.127648 h 0.708009 c 0.142712,0 0.359159,-0.0555 0.483635,-0.123684 l 0.627932,-0.347265 c 0.123684,-0.06818 0.34013,-0.114963 0.481256,-0.10307 l 0.645375,0.05471 c 0.142712,0.0111 0.359158,-0.0333 0.48522,-0.0999 l 0.332995,-0.176804 c 0.126062,-0.0666 0.308416,-0.202968 0.407521,-0.305245 l 0.268774,-0.275117 c 0.09911,-0.101484 0.28146,-0.237853 0.408315,-0.303659 l 0.68581,-0.356779 c 0.126062,-0.0666 0.290973,-0.216447 0.367086,-0.335373 l 0.301281,-0.467778 c 0.07611,-0.11972 0.221203,-0.298109 0.321895,-0.3988 l 0.35993,-0.360733 c 0.101484,-0.100692 0.149847,-0.29256 0.110205,-0.429722 l -0.185526,-0.622382 -0.235474,-0.658853 c -0.04678,-0.133991 0.02141,-0.201382 0.154604,-0.152226 l 0.435272,0.166497 1.018804,0.431307 c 0.131612,0.05391 0.332994,0.164119 0.451128,0.24261 l 0.103069,0.06818 c 0.118134,0.07928 0.326652,0.168876 0.466193,0.199004 l 0.574811,0.130026 c 0.140334,0.03092 0.359951,0.01427 0.492356,-0.03806 l 0.422586,-0.165704 c 0.132405,-0.05233 0.354401,-0.0888 0.495527,-0.08166 l 0.468571,0.02299 c 0.141919,0.0063 0.356779,-0.04361 0.480463,-0.11417 l 0.51852,-0.293352 c 0.122098,-0.07056 0.332994,-0.163326 0.46857,-0.209311 l 0.379773,-0.126855 c 0.135576,-0.04519 0.359158,-0.08325 0.50187,-0.08563 l 0.466985,-0.0079 c 0.141919,-7.93e-4 0.276702,-0.117341 0.299694,-0.257674 l 0.02775,-0.168083 c 0.02379,-0.140334 0.13954,-0.317138 0.257674,-0.396422 l 0.181561,-0.118927 c 0.11972,-0.07849 0.330616,-0.130026 0.472535,-0.114962 l 0.566091,0.05946 c 0.141919,0.01506 0.34013,-0.05312 0.443199,-0.15064 l 0.28701,-0.272738 c 0.103069,-0.09831 0.08642,-0.235475 -0.03647,-0.306831 L 56.416484,18.51142 C 56.293593,18.440064 56.14216,18.279117 56.07794,18.152262 l -0.113377,-0.222789 c -0.06343,-0.127648 -0.0024,-0.205347 0.136369,-0.173633 l 1.493718,0.337751 c 0.13954,0.03092 0.355987,0.10307 0.486806,0.160948 l 0.46302,0.207725 c 0.130027,0.05867 0.320309,0.183147 0.42655,0.279081 l 0.116548,0.105448 c 0.105449,0.09514 0.16729,0.285424 0.137955,0.424964 l -0.03885,0.187904 c -0.02934,0.139541 -0.164119,0.222789 -0.302866,0.187111 l -0.176805,-0.04678 c -0.138747,-0.03568 -0.362329,-0.03964 -0.50187,-0.0079 l -0.849135,0.192661 c -0.139541,0.03171 -0.163326,0.130026 -0.05233,0.221203 l 0.343301,0.283046 c 0.110999,0.09038 0.30366,0.211689 0.434479,0.268774 l 0.286216,0.12844 c 0.129234,0.05788 0.283838,0.209311 0.344094,0.338544 l 0.233097,0.499492 c 0.05946,0.128441 0.19821,0.306038 0.308416,0.396422 l 0.310002,0.252917 c 0.110205,0.09038 0.262431,0.260053 0.340922,0.379772 l 0.296524,0.453507 c 0.07849,0.119719 0.224375,0.296523 0.325859,0.396422 l 0.405143,0.395629 c 0.101484,0.0999 0.07136,0.158568 -0.06898,0.130819 l -0.65251,-0.126855 c -0.141126,-0.02696 -0.367087,-0.02775 -0.50742,-0.0016 l -0.52407,0.09831 c -0.13954,0.02616 -0.145883,0.0888 -0.01189,0.138747 l 0.24261,0.09118 c 0.132405,0.05074 0.255296,0.170462 0.273531,0.268774 0.01665,0.09752 -0.08008,0.203761 -0.218825,0.237061 l -0.303659,0.07215 c -0.138748,0.0333 -0.341716,0.132405 -0.452714,0.220411 l -0.367879,0.292559 c -0.111791,0.08721 -0.169669,0.27036 -0.129234,0.406729 l 0.06343,0.214861 c 0.04044,0.136369 -0.04361,0.252124 -0.185526,0.257674 l -0.208518,0.01031 c -0.142711,0.0055 -0.314758,0.111791 -0.386907,0.233889 l -0.09593,0.165704 c -0.07136,0.122891 -0.149848,0.336166 -0.176012,0.476499 l -0.01824,0.0888 c -0.02537,0.13954 -0.157776,0.22041 -0.294145,0.179975 L 56.53303,27.143127 c -0.137162,-0.04043 -0.327444,-0.155397 -0.42655,-0.257674 l -0.203761,-0.210896 c -0.100691,-0.101484 -0.06581,-0.20059 0.07453,-0.220411 l 0.505041,-0.07215 c 0.141126,-0.01982 0.261638,-0.152226 0.269567,-0.294145 l 0.0032,-0.0333 c 0.0079,-0.141919 -0.08483,-0.313966 -0.20931,-0.385322 l -0.310002,-0.17839 c -0.122098,-0.07136 -0.33458,-0.156983 -0.473328,-0.192661 l -0.434507,-0.1126 c -0.137955,-0.03568 -0.365501,-0.06263 -0.508213,-0.05946 l -0.288595,0.0056 c -0.142712,0.0032 -0.370258,-0.02458 -0.506627,-0.06264 l -0.27591,-0.07373 c -0.137955,-0.03726 -0.359158,-0.0333 -0.495527,0.0071 l -0.923663,0.284631 c -0.136369,0.04202 -0.325859,0.158569 -0.423379,0.263224 l -0.482842,0.510592 c -0.09831,0.103069 -0.194246,0.30128 -0.216446,0.442406 l -0.01744,0.118134 c -0.02141,0.141126 -0.113377,0.344094 -0.203761,0.452714 l -0.314759,0.377393 c -0.09118,0.109413 -0.225961,0.295731 -0.302867,0.415451 L 50.22596,28.09135 c -0.0777,0.11972 -0.241024,0.27036 -0.367879,0.335373 l -0.233889,0.118927 c -0.126062,0.06581 -0.27591,0.222789 -0.332994,0.352022 l -0.112584,0.25371 c -0.05867,0.130027 -0.109412,0.35123 -0.113377,0.493149 l -0.01586,0.451128 c -0.004,0.142712 0.102277,0.291767 0.237061,0.333787 l 0.232303,0.07215 c 0.136369,0.04281 0.35678,0.04361 0.493149,0.0016 L 50.421,30.379497 c 0.135576,-0.04044 0.310795,0.01903 0.391665,0.134784 0.08008,0.115755 0.183147,0.317137 0.23151,0.451128 l 0.09831,0.271945 c 0.04916,0.133991 0.179975,0.31238 0.292559,0.3988 l 0.138748,0.105449 c 0.113376,0.08642 0.306037,0.103069 0.431307,0.03488 0.241024,-0.130819 0.589083,-0.330616 0.609696,-0.393251 0.02061,-0.06105 -0.04044,-0.382943 -0.0888,-0.617625 -0.02934,-0.138748 0.0016,-0.352023 0.07215,-0.475706 l 0.131612,-0.229132 c 0.07056,-0.123684 0.08325,-0.329823 0.03092,-0.462228 L 52.614793,29.23859 c -0.05233,-0.130819 -0.09038,-0.353608 -0.08404,-0.495527 0.0095,-0.218825 0.01982,-0.50187 0.01982,-0.530413 0,-0.03251 0.258467,-0.401971 0.431307,-0.644582 0.08246,-0.115755 0.256881,-0.24261 0.390079,-0.281459 0.133991,-0.04043 0.282253,0.03488 0.332995,0.168083 l 0.04361,0.113376 c 0.04995,0.133991 0.01586,0.328238 -0.07849,0.435272 l -0.09593,0.110998 c -0.09356,0.107034 -0.159361,0.309209 -0.146676,0.450335 l 7.93e-4,0.01824 c 0.01427,0.142712 0.126855,0.309209 0.25371,0.372637 l 0.18394,0.09197 c 0.126855,0.06343 0.34568,0.118133 0.486806,0.120512 l 0.09673,0.0032 c 0.141919,0.004 0.371843,-0.0079 0.512177,-0.02696 l 0.21486,-0.02854 c 0.141127,-0.01744 0.339338,0.04598 0.440822,0.145091 l 0.04836,0.04519 c 0.10307,0.09831 0.191868,0.254503 0.202175,0.348058 0.0087,0.09356 -0.0888,0.168876 -0.217239,0.168876 h -0.233096 -0.50187 c -0.142712,0 -0.222789,0.110205 -0.179976,0.245781 l 0.0071,0.02299 c 0.04202,0.136369 0.07611,0.361537 0.07611,0.504249 v 0.256881 c 0,0.142712 -0.103863,0.208518 -0.232303,0.148262 l -0.08246,-0.03885 c -0.128441,-0.05946 -0.287009,-0.05153 -0.352815,0.01982 -0.0666,0.07056 -0.09356,0.241025 -0.05946,0.37898 l 0.05391,0.223582 c 0.0333,0.138747 0.0087,0.353608 -0.05629,0.478877 l -0.198211,0.379772 c -0.06501,0.126062 -0.220411,0.173633 -0.34568,0.106241 l -0.142712,-0.07611 c -0.125269,-0.06818 -0.328237,-0.06818 -0.453506,-7.92e-4 l -0.543855,0.28857 c -0.12527,0.0666 -0.333787,0.0769 -0.466192,0.0222 l -0.50187,-0.207725 -0.382944,-0.127648 c -0.135576,-0.04519 -0.250538,-0.196625 -0.257674,-0.338544 l -0.0055,-0.09752 c -0.0063,-0.142712 -0.0063,-0.369465 0.0024,-0.50742 0.0095,-0.137162 -0.09593,-0.277495 -0.233889,-0.311587 l -0.07928,-0.01982 c -0.137955,-0.03489 -0.279874,0.04916 -0.316344,0.186318 l -0.09356,0.355194 c -0.03568,0.137162 -0.06343,0.363915 -0.06105,0.505834 l 0.0063,0.322688 c 0.0024,0.141919 -0.107034,0.283045 -0.247367,0.314759 l -0.623968,0.143504 c -0.138748,0.03171 -0.301281,0.160948 -0.36233,0.289388 l -0.180768,0.371844 c -0.06105,0.128441 -0.187904,0.319516 -0.28146,0.425757 l -0.255295,0.289388 c -0.09435,0.107034 -0.279874,0.230717 -0.415451,0.27591 l -0.849135,0.288595 -0.8531,0.29018 -0.799979,0.232304 c -0.136369,0.04123 -0.175219,0.163325 -0.08642,0.274324 l 0.709595,0.885606 c 0.08721,0.110998 0.143505,0.314759 0.122891,0.455885 l -0.102277,0.681846 c -0.02061,0.141126 -0.153019,0.249745 -0.294938,0.244988 l -0.338544,-0.01269 c -0.142712,-0.0055 -0.371844,-0.03092 -0.510592,-0.05629 l -1.05131,-0.19504 c 0,0 -0.08563,-0.0222 -0.193454,-0.04836 -0.106241,-0.02696 -0.254503,0.04836 -0.332995,0.168876 l -0.283045,0.436064 c -0.07849,0.119719 -0.113376,0.32903 -0.08008,0.466985 l 0.08801,0.368672 c 0.0333,0.138748 -0.03647,0.311587 -0.157776,0.386908 l -0.07849,0.04916 c -0.120512,0.07611 -0.282252,0.232303 -0.363122,0.350437 l -0.145883,0.216446 c -0.08087,0.118134 -0.05074,0.267188 0.06422,0.333787 0.115755,0.0666 0.202175,0.235475 0.191868,0.378187 l -0.01348,0.227546 c -0.0095,0.141126 0.0888,0.300488 0.22041,0.35678 l 0.330616,0.137954 c 0.130819,0.05471 0.336166,0.159362 0.458264,0.231511 l 0.233889,0.138747 c 0.121305,0.07215 0.332994,0.106241 0.472535,0.07453 l 0.206139,-0.04678 c 0.137955,-0.03251 0.347265,0.0055 0.466985,0.08325 l 0.03488,0.02378 c 0.119719,0.0777 0.301281,0.06422 0.406729,-0.03171 l 0.469363,-0.422586 0.352023,-0.362329 c 0.09911,-0.102277 0.133198,-0.290974 0.07928,-0.422586 -0.09435,-0.228339 -0.221203,-0.543098 -0.221203,-0.583533 0,-0.03885 0.228339,-0.195039 0.4099,-0.313173 0.119719,-0.07691 0.329823,-0.168876 0.465399,-0.206932 l 0.309209,-0.08642 c 0.136369,-0.03885 0.321895,-0.158569 0.413072,-0.266396 l 0.10307,-0.121305 c 0.09118,-0.108619 0.168875,-0.31238 0.172047,-0.455092 l 0.004,-0.14509 c 0.0032,-0.141919 0.110998,-0.29256 0.240231,-0.336959 0.128441,-0.0444 0.335373,-0.02775 0.462228,0.03647 l 0.330616,0.168875 c 0.126062,0.06422 0.327445,0.0555 0.447164,-0.01982 l 0.377394,-0.233889 0.686602,-0.336958 c 0.126855,-0.06264 0.28146,-0.01031 0.346473,0.116548 l 0.09197,0.182354 c 0.06263,0.128441 0.218825,0.28146 0.347265,0.344094 l 0.131612,0.06501 c 0.128441,0.06184 0.318724,0.187904 0.425757,0.282253 l 0.337752,0.297316 0.451921,0.330616 c 0.115755,0.08325 0.309209,0.208518 0.4321,0.279081 l 0.147469,0.08483 c 0.123683,0.06898 0.219617,0.241817 0.214067,0.383737 l -0.01031,0.258467 c -0.0071,0.141919 -0.119719,0.297316 -0.25371,0.345679 L 52.7092,40.97268 c -0.133991,0.04836 -0.344094,0.14509 -0.466985,0.21486 l -0.32348,0.182354 c -0.124477,0.06977 -0.118134,0.171255 0.01189,0.229132 L 52.1661,41.70051 c 0.130819,0.05629 0.348851,0.124477 0.489185,0.151433 l 0.153811,0.03013 c 0.140334,0.02775 0.318723,-0.04598 0.398801,-0.163325 l 0.241024,-0.35123 0.482842,-0.611283 0.293352,-0.324273 c 0.09514,-0.105448 0.115755,-0.290973 0.0444,-0.413864 l -0.09593,-0.165704 c -0.07136,-0.122891 -0.228339,-0.280667 -0.352815,-0.350437 l -0.228339,-0.13082 c -0.122891,-0.07135 -0.337752,-0.137161 -0.479671,-0.15064 l -0.01824,-0.0016 c -0.14197,-0.01267 -0.32036,-0.118119 -0.400437,-0.236253 l -0.08246,-0.120512 c -0.08008,-0.118927 -0.229925,-0.290974 -0.33458,-0.387701 l -0.344094,-0.31238 c -0.105448,-0.09593 -0.196625,-0.289388 -0.205347,-0.429721 l -0.01824,-0.307624 c -0.0079,-0.141919 0.07136,-0.221203 0.17839,-0.176804 0.107034,0.04519 0.281459,0.152226 0.394043,0.24261 l 0.812665,0.658853 0.445578,0.29256 c 0.118134,0.07849 0.321895,0.183939 0.455092,0.235474 l 0.502663,0.198211 c 0.131612,0.05233 0.232303,0.199004 0.223582,0.327445 -0.0095,0.129233 0.01506,0.344887 0.05312,0.482049 l 0.05391,0.195832 c 0.03806,0.137162 0.149055,0.332201 0.247367,0.435271 l 0.224375,0.237853 c 0.09911,0.10307 0.241817,0.283045 0.320309,0.401179 l 0.164911,0.247367 c 0.07928,0.118134 0.256089,0.233889 0.396422,0.25926 l 0.136369,0.02379 c 0.141127,0.02458 0.271946,-0.06026 0.294145,-0.18949 0.0222,-0.128441 0.155398,-0.240232 0.29811,-0.24816 l 0.04916,-0.0032 c 0.142712,-0.0079 0.16729,-0.08563 0.0555,-0.175219 l -0.07849,-0.0666 c -0.111791,-0.08959 -0.233888,-0.244196 -0.273531,-0.346473 -0.04044,-0.102276 -0.119719,-0.261638 -0.176804,-0.354401 -0.05946,-0.09356 -0.05471,-0.255295 0.0079,-0.362329 0.06184,-0.106241 0.218032,-0.237853 0.348058,-0.294145 l 0.09118,-0.03885 c 0.130026,-0.0555 0.325859,-0.101484 0.43765,-0.101484 0.111791,0 0.272738,0.09038 0.359951,0.201383 l 0.05074,0.06422 c 0.0888,0.111791 0.17839,0.310002 0.200589,0.443993 0.0222,0.132404 0.09276,0.344094 0.157776,0.469363 l 0.05312,0.106241 c 0.06581,0.126855 0.188697,0.320309 0.276702,0.433686 l 0.11972,0.154604 c 0.08563,0.112584 0.266395,0.243403 0.3988,0.291767 l 0.09514,0.03409 c 0.133991,0.04836 0.288595,0.14509 0.347266,0.215653 0.05788,0.07056 0.210103,0.08087 0.337751,0.01903 l 0.04916,-0.0222 c 0.128441,-0.06026 0.254503,-0.185525 0.28146,-0.278288 0.02616,-0.09356 0.123684,-0.155398 0.216446,-0.136369 l 0.169669,0.03171 0.346473,0.07215 c 0.191868,0.04043 0.481256,-0.03568 0.647753,-0.168083 l 0.04043,-0.03251 c 0.166497,-0.133198 0.435271,-0.24261 0.600183,-0.24261 0.164118,0 0.305244,0.08404 0.313966,0.185525 0.0095,0.102277 0.01665,0.185525 0.01665,0.185525 l 0.06343,0.676296 0.115755,0.647753 c 0.02458,0.140334 0.0111,0.363916 -0.03092,0.500285 l -0.181561,0.591461 -0.134784,0.354401 c -0.05074,0.133198 -0.20376,0.214068 -0.341715,0.180769 L 61.37886,44.148781 c -0.137955,-0.0333 -0.350437,-0.0048 -0.474121,0.06581 l -0.405143,0.229924 c -0.124476,0.06977 -0.34013,0.126855 -0.482049,0.126855 h -0.466985 l -1.303435,-0.09593 -0.758751,-0.08483 c -0.141919,-0.01506 -0.285424,-0.0888 -0.320309,-0.164119 -0.03568,-0.07611 -0.179976,-0.145883 -0.321102,-0.15619 l -0.147469,-0.0111 c -0.141919,-0.01031 -0.367086,0.01189 -0.505834,0.04916 l -0.274324,0.07532 c -0.138748,0.03647 -0.275117,0.179975 -0.306038,0.31793 l -0.01665,0.07691 c -0.03092,0.138747 0.0071,0.348058 0.08245,0.467778 l 0.01189,0.01744 c 0.0777,0.11972 0.02934,0.250539 -0.107827,0.29256 l -0.183147,0.05708 c -0.135576,0.04202 -0.343301,0.01427 -0.463813,-0.06105 l -0.04836,-0.03092 c -0.119719,-0.07691 -0.332201,-0.156983 -0.470949,-0.179975 l -0.554198,-0.09276 c -0.141126,-0.02378 -0.311587,-0.143505 -0.379772,-0.267981 l -0.0087,-0.01586 c -0.06817,-0.124456 -0.2307,-0.267168 -0.363105,-0.318703 L 52.84948,44.34306 c -0.133198,-0.05154 -0.353608,-0.111791 -0.494734,-0.132405 l -0.633482,-0.09911 c -0.141127,-0.02061 -0.347266,-0.10862 -0.461435,-0.193454 l -0.279081,-0.207725 c -0.114963,-0.08483 -0.137162,-0.245782 -0.04995,-0.358365 l 0.266396,-0.347266 c 0.08642,-0.112584 0.110205,-0.273531 0.05074,-0.357572 -0.05629,-0.08404 -0.05629,-0.243403 0,-0.354402 0.05867,-0.110998 0.0024,-0.251331 -0.126855,-0.313966 l -0.163326,-0.08008 c -0.129233,-0.06263 -0.344887,-0.0888 -0.484427,-0.05867 l -0.542305,0.116548 c -0.138748,0.03092 -0.367087,0.05391 -0.509799,0.05391 H 48.45554 47.440701 c -0.142712,0 -0.366294,0.03806 -0.501078,0.08404 l -1.109188,0.38215 -0.738137,0.255296 c -0.135577,0.04599 -0.359159,0.06818 -0.499492,0.04995 l -0.470156,-0.06184 c -0.141126,-0.01903 -0.365501,-0.06898 -0.500285,-0.114169 l -0.155397,-0.04995 c -0.134783,-0.04361 -0.321895,0.0071 -0.41545,0.113376 l -0.544684,0.612868 c -0.09355,0.106241 -0.276702,0.237854 -0.407521,0.294145 l -0.314759,0.134784 c -0.13082,0.05629 -0.313174,0.187904 -0.406729,0.295731 l -0.336959,0.385322 c -0.09356,0.107033 -0.168083,0.309209 -0.168083,0.451128 v 0.322687 c 0,0.141919 -0.09118,0.329823 -0.200589,0.420207 l -0.533584,0.4321 c -0.110205,0.0888 -0.313173,0.177597 -0.455092,0.196625 l -0.198211,0.02854 c -0.141919,0.01823 -0.319516,0.130026 -0.397215,0.24816 l -0.166497,0.24816 c -0.0777,0.118133 -0.239439,0.277495 -0.358365,0.353608 l -0.339337,0.220411 c -0.120513,0.07611 -0.250539,0.248952 -0.293353,0.385322 l -0.07215,0.23151 c -0.04281,0.136369 -0.155398,0.331409 -0.251332,0.436064 l -0.584326,0.635068 c -0.09593,0.104655 -0.224374,0.294145 -0.283838,0.423378 l -0.116548,0.257675 c -0.06026,0.12844 -0.0555,0.335372 0.0111,0.461435 l 0.11417,0.22041 c 0.0666,0.125269 0.07373,0.32903 0.01506,0.452714 -0.05709,0.125269 -0.08483,0.34013 -0.06105,0.47967 l 0.02696,0.151433 c 0.02299,0.141127 0.01269,0.366294 -0.02378,0.504249 l -0.141126,0.531998 c -0.03568,0.137162 -0.116548,0.352816 -0.17839,0.480463 l -0.25926,0.534377 c -0.06105,0.128441 -0.0555,0.333787 0.01348,0.456678 l 0.0079,0.01665 c 0.06977,0.124476 0.0888,0.336165 0.0444,0.470949 l -0.09593,0.294145 c -0.04519,0.134783 -0.0071,0.332994 0.08483,0.441614 l 1.04259,1.237629 c 0.09118,0.109412 0.22041,0.298902 0.287009,0.424171 l 0.658061,1.220979 c 0.0666,0.12527 0.206139,0.305245 0.310794,0.402765 l 0.911771,0.849136 c 0.103069,0.09831 0.285423,0.236267 0.406728,0.311587 l 0.892742,0.54627 c 0.121305,0.07373 0.332202,0.109412 0.470157,0.07611 l 1.000568,-0.227547 c 0.137955,-0.03171 0.363916,-0.03568 0.502663,-0.0071 l 1.213051,0.241817 c 0.139541,0.02854 0.353608,-0.0048 0.478085,-0.07373 l 0.708802,-0.395629 c 0.124477,-0.06898 0.337752,-0.149055 0.477292,-0.179976 l 1.083817,-0.233889 c 0.139541,-0.03092 0.340923,0.01903 0.450336,0.110206 l 0.375808,0.313966 c 0.110998,0.09118 0.275909,0.250538 0.370258,0.355194 l 0.428928,0.478084 c 0.09514,0.104656 0.285424,0.166498 0.424171,0.136369 l 0.699288,-0.149054 c 0.137955,-0.03013 0.364709,-0.03647 0.505042,-0.01427 l 0.30683,0.04916 c 0.140334,0.0222 0.341716,0.115755 0.44875,0.209311 l 0.298902,0.261638 c 0.107034,0.09435 0.171254,0.283045 0.143505,0.421793 l -0.06977,0.354401 c -0.02775,0.139541 -0.109412,0.352816 -0.178389,0.475706 l -0.260053,0.455093 c -0.07056,0.12289 -0.205347,0.280666 -0.299695,0.352022 -0.09514,0.07056 -0.09752,0.216447 -0.0048,0.324273 l 0.91177,1.068754 c 0.09118,0.107826 0.251332,0.273531 0.35678,0.369465 l 0.650132,0.596218 c 0.104655,0.09593 0.189489,0.290181 0.189489,0.4321 v 0.687395 c 0,0.142712 0.04757,0.36233 0.104656,0.492356 l 0.134783,0.302074 c 0.05709,0.130026 0.174426,0.327444 0.260846,0.440028 l 0.115755,0.149055 c 0.08563,0.113376 0.128441,0.316344 0.09435,0.454299 l -0.09038,0.357573 c -0.03409,0.138747 -0.130819,0.344094 -0.216446,0.456678 l -0.205347,0.275909 c -0.08563,0.112584 -0.199796,0.311588 -0.255295,0.4432 l -0.358366,0.855478 c -0.0555,0.131612 -0.0999,0.352816 -0.0999,0.495528 v 0.514555 c 0,0.142712 0.07136,0.348058 0.158569,0.461435 l 0.743687,0.95617 0.515348,0.578775 c 0.09435,0.107034 0.170462,0.308417 0.170462,0.450336 v 0.901463 c 0,0.142712 0.09118,0.329823 0.202175,0.417829 l 0.24261,0.194246 c 0.111791,0.0888 0.251332,0.264017 0.314759,0.390872 l 0.414657,0.826143 c 0.06264,0.129234 0.11417,0.346473 0.11417,0.489185 v 0.256881 c 0,0.143505 0.115755,0.257674 0.257674,0.257674 h 0.473328 c 0.141919,0 0.367086,-0.03251 0.504248,-0.07135 l 0.83645,-0.243403 c 0.137162,-0.03964 0.36233,-0.08246 0.505042,-0.09514 l 1.33277,-0.123683 c 0.141919,-0.01506 0.358365,-0.07928 0.482049,-0.147469 l 0.66361,-0.35678 c 0.126062,-0.0666 0.317931,-0.191075 0.432893,-0.277495 l 0.834071,-0.633482 c 0.11417,-0.08563 0.275117,-0.247368 0.361537,-0.359951 l 0.67471,-0.877678 c 0.08642,-0.11417 0.245782,-0.279874 0.353608,-0.370258 l 0.678675,-0.570848 c 0.109412,-0.09197 0.25926,-0.264017 0.33458,-0.383736 l 0.455885,-0.722281 c 0.07532,-0.120512 0.160154,-0.331408 0.189489,-0.471742 l 0.152226,-0.739723 c 0.02854,-0.13954 0.141127,-0.325066 0.251332,-0.41545 l 1.018804,-0.833279 c 0.109412,-0.09038 0.298902,-0.218825 0.422586,-0.288595 l 0.710388,-0.392457 c 0.12289,-0.06977 0.256088,-0.237061 0.294145,-0.37343 l 0.24816,-0.877678 c 0.03726,-0.137162 0.07294,-0.363122 0.07691,-0.506627 l 0.02854,-1.07351 c 0.0032,-0.142712 -0.0087,-0.371844 -0.02854,-0.51297 -0.03806,-0.279874 -0.09356,-0.704838 -0.09356,-0.816629 0,-0.172047 0.08642,-1.588859 0.08642,-1.7173 0,-0.09197 0.332994,-0.718316 0.519313,-1.063203 0.06818,-0.124476 0.198211,-0.313966 0.288595,-0.422586 0.268774,-0.322687 0.782536,-0.945069 0.908599,-1.132973 0.172047,-0.258467 1.245557,-1.7173 1.245557,-1.7173 l 0.701667,-0.913356 c 0.08563,-0.112583 0.201382,-0.310794 0.252917,-0.442406 l 0.364708,-0.896707 c 0.05312,-0.132405 0.117341,-0.352022 0.14509,-0.491563 l 0.381358,-2.064565 0.197418,-1.291542 c 0.02141,-0.140333 -0.07056,-0.218825 -0.206139,-0.174426 l -0.819801,0.267981 c -0.135576,0.04519 -0.347265,0.135577 -0.471742,0.202176 l -0.834071,0.444785 c -0.125269,0.06739 -0.336959,0.155397 -0.474121,0.198211 l -0.195039,0.06105 c -0.134784,0.04202 -0.337752,0.0079 -0.451128,-0.07849 l -0.10307,-0.0777 c -0.114962,-0.08563 -0.267981,-0.250539 -0.344887,-0.371844 l -0.324273,-0.509799 c -0.0777,-0.118926 -0.25371,-0.217239 -0.395629,-0.217239 h -0.08563 c -0.143505,0 -0.328237,-0.09118 -0.413865,-0.203761 l -0.281459,-0.364708 c -0.08642,-0.113376 -0.217239,-0.303659 -0.291767,-0.424964 l -0.252917,-0.417829 c -0.07373,-0.120512 -0.218032,-0.29573 -0.327444,-0.388493 -0.225961,-0.194247 -0.577983,-0.489184 -0.664403,-0.51852 -0.07056,-0.02299 -0.179183,-0.187111 -0.262431,-0.331408 -0.07215,-0.122098 -0.158569,-0.335373 -0.202176,-0.47095 l -0.121305,-0.3766 c -0.0444,-0.135577 -0.134783,-0.346473 -0.204553,-0.470949 l -0.199004,-0.35678 C 64.279053,48.683914 64.139509,48.503146 64.03644,48.405626 L 63.507678,47.902928 C 63.403815,47.803823 63.272996,47.619883 63.21274,47.49065 l -0.59939,-1.292335 c -0.05946,-0.130027 0.0055,-0.216447 0.146676,-0.195833 l 0.349644,0.05233 c 0.141127,0.02061 0.329031,0.126855 0.420208,0.234682 l 0.976783,1.152794 c 0.09118,0.10862 0.264017,0.256882 0.384529,0.332202 l 0.742895,0.458263 c 0.122098,0.07532 0.218825,0.250539 0.218825,0.393251 v 0.50742 c 0,0.142712 0.09197,0.328237 0.205346,0.413864 l 0.665196,0.510592 c 0.112584,0.08642 0.266395,0.25371 0.344094,0.373429 l 0.804736,1.243972 0.756373,1.239214 c 0.07373,0.121305 0.244196,0.182354 0.377394,0.137162 l 0.884021,-0.304452 1.388269,-0.47412 c 0.133991,-0.04599 0.313966,-0.175219 0.403557,-0.285424 l 0.839622,-1.055275 c 0.08801,-0.111791 0.241817,-0.283838 0.342508,-0.384529 l 0.966477,-0.974405 c 0.100691,-0.101484 0.189489,-0.298109 0.199796,-0.440821 0.04361,-0.644582 0.154605,-2.292111 0.154605,-2.395181 0,-0.09276 0.02061,-0.746066 0.0333,-1.117117 0.0055,-0.141919 -0.09752,-0.302866 -0.228339,-0.359951 L 73.56173,45.077236 c -0.130027,-0.05629 -0.28701,-0.01506 -0.350437,0.09118 -0.06422,0.107033 -0.217239,0.137954 -0.341716,0.07056 l -0.103862,-0.05629 C 72.641238,45.114506 72.462848,44.973375 72.3685,44.866341 l -0.03647,-0.04123 c -0.09435,-0.107034 -0.218032,-0.08721 -0.275909,0.04202 l -0.04916,0.109412 c -0.05629,0.13082 -0.163325,0.333788 -0.23706,0.456678 l -0.07294,0.121305 c -0.07373,0.122098 -0.245781,0.243403 -0.385322,0.271153 l -0.179182,0.03568 c -0.139541,0.02854 -0.230718,-0.06264 -0.204554,-0.202968 l 0.03171,-0.16174 c 0.02696,-0.139541 -0.06501,-0.271153 -0.20614,-0.294938 l -0.118133,-0.01982 c -0.140334,-0.02299 -0.354401,0.0071 -0.478878,0.06898 -0.123683,0.06105 -0.298109,0.0222 -0.3877,-0.08721 L 68.925969,44.144066 C 68.835589,44.033861 68.76185,43.8301 68.76185,43.687389 v -0.514556 c 0,-0.141919 0.107034,-0.214861 0.239439,-0.160154 l 0.06184,0.02458 c 0.131612,0.05471 0.306037,0.191075 0.390872,0.306037 l 0.138747,0.187904 c 0.08246,0.11417 0.246575,0.273531 0.363916,0.354401 l 0.233888,0.160155 0.254503,0.165704 c 0.11972,0.07691 0.32903,0.165705 0.468571,0.198211 l 0.221996,0.05233 c 0.138748,0.03251 0.344094,-0.0087 0.459057,-0.09356 l 0.01824,-0.01348 c 0.114962,-0.08325 0.322687,-0.159362 0.465399,-0.169669 l 1.331185,-0.09197 c 0.141919,-0.0111 0.359951,-0.07373 0.482842,-0.14192 l 0.96489,-0.525655 c 0.12527,-0.06818 0.313174,-0.04678 0.417829,0.04836 l 0.4321,0.386907 c 0.106241,0.09514 0.30683,0.156191 0.447164,0.134784 0.375015,-0.05788 1.033075,-0.171255 1.033075,-0.264017 0,-0.08721 0.324273,-0.521691 0.528034,-0.784123 0.08563,-0.111791 0.187111,-0.09038 0.222789,0.04757 l 0.257674,1.00374 c 0.03568,0.137955 0.107827,0.35678 0.160155,0.489185 l 0.495527,1.239214 c 0.05154,0.131612 0.153812,0.338545 0.225168,0.461435 l 0.941898,1.615816 c 0.07215,0.122891 0.165704,0.332994 0.208518,0.467778 l 0.487599,1.527809 c 0.04361,0.134784 0.166497,0.318724 0.275116,0.411486 l 0.421793,0.355987 c 0.109413,0.09118 0.176804,0.05154 0.151433,-0.08801 -0.137162,-0.783329 -0.534376,-3.117461 -0.427342,-3.223702 0.09355,-0.09435 -0.33458,-0.710388 -0.576398,-1.039418 -0.08246,-0.11417 -0.141126,-0.320309 -0.123683,-0.462228 0.07532,-0.662024 0.271152,-2.388045 0.271152,-2.491908 0,-0.09831 -0.321894,-1.089367 -0.477292,-1.55873 -0.04519,-0.134784 -0.04995,-0.355987 -0.0079,-0.492356 l 0.282252,-0.964891 c 0.03964,-0.136369 0.134784,-0.149848 0.210897,-0.02934 l 1.270135,2.012237 c 0.07691,0.119719 0.153812,0.213275 0.175219,0.207725 0.01903,-0.0055 0.06184,0.10307 0.09276,0.241025 0.535963,2.356331 0.818215,4.807804 0.818215,7.323497 C 83.073475,68.236991 68.236991,83.073475 50,83.073475 Z"
     id="path22"
     style="fill:#afc6e9;stroke-width:0.7928437"
     inkscape:connector-curvature="0" /></svg>