<?xml version="1.0" encoding="UTF-8" standalone="no"?>
<svg
   xmlns:dc="http://purl.org/dc/elements/1.1/"
   xmlns:cc="http://creativecommons.org/ns#"
   xmlns:rdf="http://www.w3.org/1999/02/22-rdf-syntax-ns#"
   xmlns:svg="http://www.w3.org/2000/svg"
   xmlns="http://www.w3.org/2000/svg"
   xmlns:sodipodi="http://sodipodi.sourceforge.net/DTD/sodipodi-0.dtd"
   xmlns:inkscape="http://www.inkscape.org/namespaces/inkscape"
   xml:space="preserve"
   version="1.1"
   style="clip-rule:evenodd;fill-rule:evenodd;image-rendering:optimizeQuality;shape-rendering:geometricPrecision;text-rendering:geometricPrecision"
   viewBox="0 0 218.51166 204.4135"
   x="0px"
   y="0px"
   id="svg10"
   sodipodi:docname="respiration.svg"
   inkscape:version="0.92.3 (2405546, 2018-03-11)"
   width="218.51166"
   height="204.4135"><metadata
     id="metadata14"><rdf:RDF><cc:Work
         rdf:about=""><dc:format>image/svg+xml</dc:format><dc:type
           rdf:resource="http://purl.org/dc/dcmitype/StillImage" /><dc:title></dc:title></cc:Work></rdf:RDF></metadata><sodipodi:namedview
     pagecolor="#ffffff"
     bordercolor="#666666"
     borderopacity="1"
     objecttolerance="10"
     gridtolerance="10"
     guidetolerance="10"
     inkscape:pageopacity="0"
     inkscape:pageshadow="2"
     inkscape:window-width="1600"
     inkscape:window-height="836"
     id="namedview12"
     showgrid="false"
     inkscape:zoom="2.56"
     inkscape:cx="65.32859"
     inkscape:cy="99.630746"
     inkscape:window-x="0"
     inkscape:window-y="27"
     inkscape:window-maximized="1"
     inkscape:current-layer="svg10"
     fit-margin-top="30"
     fit-margin-left="30"
     fit-margin-right="30"
     fit-margin-bottom="30" /><defs
     id="defs4"><style
       type="text/css"
       id="style2">
   
    .fil0 {fill:black;fill-rule:nonzero}
   
  </style></defs><g
     id="g8"
     style="fill:#00ffff"
     transform="matrix(0.00356872,0,0,0.00356872,20.037815,12.988733)"><path
       class="fil0"
       d="m 22436.34,17191.93 c -10.17,235.84 -209.62,418.78 -445.46,408.61 -235.84,-10.17 -418.78,-209.62 -408.6,-445.46 168.64,-3697.21 -518.43,-6032.41 -1638.62,-7244.98 -561.04,-607.31 -1235.12,-924.49 -1962.11,-983.33 -751.01,-60.78 -1566.15,147.49 -2382.04,591.58 -2084.55,1134.64 -4138.31,3764.99 -5194.55,7385.21 -1153.93,3955.03 -2653.21,6158.56 -3957.22,8075.07 -2031.29,2985.42 -3569.56,5246.29 -2379.29,12745.23 294.07,1852.68 770.91,3761.1 1474.85,5077.92 508.94,952.01 1124.39,1574.05 1852.58,1574.05 1041.97,0 2221.65,-862.69 3489.1,-1789.56 443.31,-324.17 896.79,-655.81 1365.07,-966.47 756.69,-501.98 1791.32,-881.47 2887.34,-1283.45 1232.86,-452.19 2546.84,-934.13 3541.57,-1626.63 588.39,-409.62 1067.65,-894.5 1351.79,-1494.42 282.88,-597.28 379.83,-1324.26 208.74,-2226.86 l -23.09,-121.73 c -552.15,-2911.43 -725.07,-3823.36 131.66,-6700.83 224.09,-752.66 428.95,-1298.31 602.56,-1760.74 367.77,-979.6 584.59,-1557.13 584.59,-3333.41 0,-236.76 191.95,-428.7 428.71,-428.7 236.76,0 428.7,191.94 428.7,428.7 0,1922.73 -237.94,2556.48 -641.52,3631.49 -164.45,438.05 -358.52,954.93 -582.48,1707.15 -797.89,2679.84 -634.19,3543.05 -111.55,6298.92 l 23.09,121.73 c 207.59,1095.17 81.6,1994.86 -275.73,2749.34 -356.09,751.83 -934.38,1343.93 -1636.47,1832.71 -1083.42,754.25 -2451.87,1256.17 -3735.84,1727.1 -1048.63,384.6 -2038.54,747.69 -2709.83,1193.02 -452.49,300.19 -897.02,625.26 -1331.57,943.04 -1386.03,1013.58 -2676.11,1957.01 -3994.84,1957.01 -1095.56,0 -1949.94,-802.04 -2606.15,-2029.55 -754.37,-1411.14 -1258.69,-3414.27 -1565.29,-5345.86 -1243.61,-7835.01 376.82,-10216.62 2516.6,-13361.49 1269.37,-1865.6 2728.84,-4010.61 3843.35,-7830.58 1123.04,-3849.14 3341.99,-6665.05 5606.5,-7897.64 963.94,-524.69 1941.47,-769.56 2857.64,-695.41 940.16,76.08 1807.85,481.92 2524.79,1257.98 1263.85,1368.07 2043.16,3911.73 1863.02,7861.24 z m 13709.45,3072.72 c 236.65,-121.65 471.22,-331.28 611.19,-591.06 113.22,-210.16 162.61,-453.42 95.44,-707.56 -22.54,-85.66 28.63,-173.4 114.29,-195.93 85.67,-22.54 173.4,28.62 195.94,114.29 90.27,341.49 25.98,664.51 -123.07,941.17 -27.39,50.85 -57.73,100.12 -90.54,147.63 445.45,-119.25 963.03,-185.45 1597.98,-145.82 88.44,5.19 155.91,81.12 150.72,169.55 -5.2,88.43 -81.13,155.91 -169.56,150.71 -1302.52,-81.27 -2088.93,316.99 -2790.91,672.51 -536.16,271.53 -1026.29,519.63 -1646.28,538.96 146.25,80.23 292.27,165.04 437.86,254.97 647.46,331.61 1309.39,555.86 1942.91,738.57 1.9,0.25 3.8,0.54 5.71,0.87 468.52,82.65 934.83,72.52 1369.69,-8.6 467.28,-87.16 898.74,-256.39 1257.82,-480.53 75.26,-46.81 174.24,-23.76 221.05,51.5 46.82,75.26 23.76,174.24 -51.5,221.05 -390.99,244.05 -860.79,428.32 -1369.6,523.23 -61.41,11.45 -123.38,21.59 -185.84,30.39 1248.86,340.18 2242.53,698.14 2607.48,1734.97 29.13,83.57 -15.01,174.96 -98.59,204.09 -83.57,29.13 -174.96,-15.01 -204.09,-98.59 -349.2,-992.04 -1459.06,-1285.86 -2816.36,-1645.14 -490.43,-129.82 -1011.81,-267.87 -1543.54,-449.69 1168.42,984.81 2277.46,2394.94 3230.72,4487.36 837.32,1266.78 1693.42,1347.84 2523.27,1426.4 l 71.85,6.83 c 9.23,-0.89 18.67,-1 28.23,-0.25 122.35,9.88 262.94,-2.3 406.59,-35.14 226.46,-51.76 457.33,-153.16 634.72,-298.63 166,-136.12 284,-311.13 300.76,-518.58 5.53,-68.57 0.52,-141.02 -16.87,-217.11 -19.76,-86.35 34.22,-172.4 120.57,-192.17 86.35,-19.76 172.41,34.23 192.17,120.58 25.14,110 32.4,214.72 24.39,313.82 -24.56,303.98 -188.18,552.78 -417.56,740.89 -112.8,92.51 -241.77,170.17 -377.4,232.16 581.65,166.36 1143.68,534.8 1672.96,1478.09 43.34,77.33 15.8,175.19 -61.54,218.53 -77.34,43.34 -175.19,15.8 -218.53,-61.54 -736.07,-1311.83 -1549.75,-1388.87 -2390.48,-1468.46 -101.99,-9.66 -204.34,-19.36 -306.98,-30.95 369.12,394.43 462.96,893.68 556.92,1394.16 128.65,685.35 257.84,1373.35 1256.08,1706.22 83.93,27.75 129.48,118.29 101.73,202.22 -27.75,83.93 -118.29,129.48 -202.22,101.73 -1178.29,-392.9 -1324.87,-1173.52 -1470.84,-1951.14 -119.95,-638.88 -239.6,-1275.49 -1060.2,-1618.53 -315.48,-104.73 -631.97,-272.02 -947.51,-553.86 702.35,1789.86 1302.2,4013.68 1753.86,6794.02 137.06,-7.36 271.25,-4.42 402.26,7.85 318.93,29.9 617.58,114.96 892.19,240.98 328.71,98.15 718.42,107.46 1087.2,12.4 329.86,-85.05 642.25,-254.05 877.05,-518.18 58.96,-66.23 160.46,-72.14 226.7,-13.18 66.23,58.96 72.14,160.46 13.18,226.7 -279.24,314.11 -648.7,514.57 -1037.82,614.89 -173.05,44.61 -350.15,69.31 -524.96,75.34 151.69,121.41 291.63,255.31 418.75,397.74 482.87,541.05 782.61,1208.71 838.83,1781.66 v 0.64 c 12.02,122.6 13.01,241.58 2.39,354.88 -7.98,88.09 -85.87,153.03 -173.96,145.06 -88.09,-7.97 -153.04,-85.87 -145.06,-173.96 8.7,-92.85 7.75,-191.88 -2.33,-295.22 -50.14,-510.29 -321.1,-1109.43 -758.51,-1599.54 -257.1,-288.08 -571.15,-537.25 -930.71,-706.79 -7.94,-2.97 -15.52,-6.5 -22.7,-10.55 -243.63,-112.01 -507.82,-187.48 -789.14,-213.85 -104.91,-9.83 -212.41,-12.87 -322.33,-8.47 175.83,1126.19 328.03,2340.78 453.22,3653.34 22.2,234.92 -150.25,443.36 -385.16,465.56 -234.92,22.19 -443.36,-150.25 -465.56,-385.17 -294.62,-3088.82 -738.5,-5617.42 -1291.52,-7697.53 -110.87,1202.32 -544.29,2633.05 -1208.59,3873.52 -32.87,61.37 -66.36,122.24 -100.36,182.66 -108.84,432.93 -108.55,867.16 -54.44,1246.81 76.54,536.91 254.47,952.33 381.85,1096.59 58.6,66.24 52.42,167.46 -13.81,226.07 -66.24,58.6 -167.47,52.42 -226.07,-13.82 -157.91,-178.83 -374.11,-662.98 -459.72,-1263.63 -28.23,-198.08 -42.94,-410.19 -37.51,-629.87 -738.4,1084.24 -1672.24,1910.32 -2723.73,2117.3 -87.05,16.99 -171.41,-39.81 -188.39,-126.86 -16.99,-87.04 39.8,-171.4 126.85,-188.39 1147.45,-225.87 2158.05,-1282.65 2902.22,-2596.94 1.98,-3.87 4.11,-7.63 6.37,-11.28 35.32,-62.57 70.04,-125.69 104.14,-189.35 130.76,-244.18 252.25,-495.72 363.86,-751.17 -1022.92,-104.59 -1570.62,366.91 -2046.2,776.4 -513.69,442.29 -953.71,821.13 -1751.95,504.52 -82.19,-32.59 -122.39,-125.68 -89.8,-207.87 32.59,-82.19 125.68,-122.39 207.87,-89.8 617.75,245.02 989.8,-75.3 1424.13,-449.26 540.7,-465.55 1165.83,-1003.58 2385.13,-842.36 546.11,-1361.26 807,-2794.35 672.02,-3801.38 -639.18,-2061.31 -1397.08,-3622.97 -2224.5,-4820.93 43.61,177.59 78.03,357.76 103.22,539.29 68.31,492.13 68.8,994.62 0.65,1483.22 -27.61,389.49 32.09,722.14 139.7,996.98 132.49,338.39 337.14,589.14 539.57,749.99 69.36,55.15 80.89,156.09 25.75,225.45 -55.14,69.36 -156.08,80.9 -225.44,25.75 -240.8,-191.33 -483.39,-487.49 -638.79,-884.39 -22.77,-58.14 -43.67,-118.45 -62.42,-180.9 -28.44,82.73 -59.08,164.5 -91.99,245.16 -54.54,133.68 -115.28,264.35 -182.12,391.41 -244.71,502.06 -411.89,1003.82 -454.57,1505.44 -42.56,500.13 39.06,1001.75 292.13,1505.64 39.54,79.06 7.48,175.23 -71.58,214.77 -79.07,39.53 -175.24,7.48 -214.77,-71.59 -282.18,-561.84 -373.31,-1119.83 -326.04,-1675.19 15.02,-176.63 44.11,-352.82 85.5,-528.65 -247.95,251.98 -533.55,471.53 -857.17,649.24 -403.11,221.38 -864.65,377.35 -1385.11,449.58 -87.75,12.13 -168.73,-49.16 -180.86,-136.9 -12.13,-87.75 49.15,-168.73 136.89,-180.86 479.84,-66.59 904.49,-209.91 1274.59,-413.15 746.79,-410.1 1273.78,-1066.51 1585.44,-1830.31 141.54,-346.91 238.81,-715.75 292.28,-1093.79 l 0.64,-4.48 c 64.67,-460.33 64.41,-934.16 -0.03,-1398.46 -68.54,-493.9 -209.72,-976.67 -422.53,-1420.41 -850.26,-1012.45 -1756.58,-1701.63 -2671.5,-2198.25 -751.31,1087.73 -640.28,2070.34 -454.78,2965.08 132.16,557.16 393.73,627.44 692.03,707.48 404.68,108.57 862.23,231.35 1228.97,1121.83 33.64,81.84 -5.45,175.48 -87.29,209.12 -81.84,33.65 -175.48,-5.44 -209.12,-87.28 -306.03,-743.1 -682.49,-844.11 -1015.45,-933.44 -151.92,-40.77 -296.68,-79.65 -427.4,-153.7 169.73,931.25 139.24,1773.35 -1018.1,2565.22 -73.17,49.95 -172.99,31.11 -222.94,-42.06 -49.94,-73.17 -31.1,-173 42.07,-222.94 1201.67,-822.19 999.95,-1740.15 770.9,-2782.44 -47.15,-214.59 -95.33,-434.05 -134.19,-658.77 -106.72,227.18 -246.78,438.71 -418.68,630.18 -392.72,437.45 -950.88,768.78 -1654.99,941.22 -86.01,20.8 -172.62,-32.05 -193.42,-118.06 -20.81,-86.01 32.04,-172.62 118.05,-193.42 637.64,-156.15 1140.56,-453.36 1491.72,-844.52 333.56,-371.56 530.66,-829.4 576.24,-1332.21 9.64,-601.06 164.6,-1238.97 629.72,-1920.6 -1104.42,-551.92 -2214.17,-843.85 -3246,-1104.49 137.85,147.38 256.9,315.9 352.78,502.38 260.55,506.75 349.74,1145.18 179.3,1848.26 -20.8,86.01 -107.41,138.86 -193.42,118.05 -86.01,-20.8 -138.86,-107.41 -118.05,-193.42 151,-622.89 74.28,-1184.03 -152.94,-1625.95 -211.6,-411.54 -554.18,-720.35 -964.05,-878.61 -1894.37,-502.55 -3447.54,-1110.49 -4164.31,-3163.47 -711.57,2038.29 -2247.6,2652.02 -4123.41,3152.46 -422.81,154.68 -776.68,468.33 -993.28,889.62 -227.23,441.92 -303.94,1003.06 -152.94,1625.95 20.8,86.01 -32.05,172.62 -118.06,193.42 -86.01,20.81 -172.61,-32.04 -193.42,-118.05 -170.44,-703.08 -81.25,-1341.51 179.31,-1848.26 96.76,-188.19 217.1,-358.1 356.56,-506.43 -1033.51,260.95 -2145.63,552.35 -3252.69,1104.32 467.3,683.11 622.89,1322.32 632.6,1924.54 45.53,502.92 242.64,960.86 576.27,1332.49 351.16,391.16 854.07,688.37 1491.72,844.52 86,20.8 138.85,107.41 118.05,193.42 -20.8,86.01 -107.41,138.86 -193.42,118.06 -704.11,-172.44 -1262.28,-503.77 -1654.99,-941.22 -171.89,-191.47 -311.97,-402.98 -418.68,-630.18 -38.86,224.73 -87.04,444.18 -134.2,658.77 -229.04,1042.29 -430.76,1960.25 770.91,2782.44 73.17,49.94 92.01,149.77 42.06,222.94 -49.94,73.17 -149.76,92.01 -222.93,42.06 -1157.34,-791.87 -1187.83,-1633.97 -1018.1,-2565.22 -130.72,74.05 -275.49,112.93 -427.41,153.7 -332.95,89.33 -709.42,190.34 -1015.45,933.44 -33.64,81.84 -127.28,120.93 -209.12,87.28 -81.84,-33.64 -120.93,-127.28 -87.28,-209.12 366.73,-890.48 824.29,-1013.26 1228.96,-1121.83 298.32,-80.04 559.9,-150.31 692.05,-707.52 185.76,-895.97 296.84,-1880.05 -457.89,-2969.57 -908.1,491.77 -1807.9,1172.91 -2652.98,2170.99 -221.43,452.43 -367.77,946.48 -437.95,1452.2 -64.44,464.29 -64.71,938.13 -0.04,1398.46 l 0.65,4.48 c 53.47,378.02 150.73,746.89 292.28,1093.79 311.65,763.8 838.65,1420.21 1585.43,1830.31 370.1,203.24 794.75,346.56 1274.59,413.15 87.75,12.13 149.03,93.11 136.9,180.86 -12.14,87.74 -93.12,149.03 -180.86,136.9 -520.46,-72.23 -982,-228.2 -1385.11,-449.58 -323.62,-177.71 -609.2,-397.28 -857.18,-649.24 41.4,175.83 70.48,352.02 85.51,528.65 47.26,555.36 -43.87,1113.35 -326.04,1675.19 -39.54,79.07 -135.71,111.12 -214.77,71.59 -79.06,-39.54 -111.12,-135.71 -71.58,-214.77 253.06,-503.89 334.69,-1005.51 292.13,-1505.64 -42.68,-501.62 -209.86,-1003.38 -454.58,-1505.44 -66.85,-127.06 -127.56,-257.73 -182.11,-391.41 -32.92,-80.66 -63.56,-162.43 -91.99,-245.16 -18.76,62.45 -39.66,122.76 -62.42,180.9 -155.41,396.9 -398,693.06 -638.79,884.39 -69.37,55.15 -170.3,43.61 -225.45,-25.75 -55.14,-69.36 -43.61,-170.3 25.76,-225.45 202.42,-160.85 407.07,-411.6 539.56,-749.99 107.62,-274.84 167.32,-607.49 139.71,-996.98 -68.14,-488.61 -67.66,-991.08 0.64,-1483.22 26.42,-190.34 62.98,-379.15 109.63,-565.09 -825.04,1187.56 -1581.47,2735.13 -2220.76,4776.48 -157.25,1009.91 102.91,2478.39 661.84,3871.63 1219.32,-161.24 1844.46,376.81 2385.16,842.36 434.33,373.96 806.38,694.28 1424.14,449.26 82.19,-32.59 175.27,7.61 207.86,89.8 32.6,82.19 -7.61,175.28 -89.8,207.87 -798.23,316.61 -1238.26,-62.23 -1751.94,-504.52 -475.58,-409.49 -1023.3,-880.99 -2046.2,-776.4 111.59,255.46 233.09,506.99 363.86,751.17 34.09,63.66 68.82,126.78 104.13,189.35 2.26,3.65 4.39,7.41 6.38,11.28 744.15,1314.29 1754.77,2371.07 2902.22,2596.94 87.04,16.99 143.84,101.35 126.85,188.39 -16.99,87.05 -101.35,143.85 -188.39,126.86 -1051.5,-206.98 -1985.33,-1033.05 -2723.73,-2117.3 5.42,219.68 -9.28,431.79 -37.51,629.87 -85.62,600.65 -301.81,1084.8 -459.72,1263.63 -58.61,66.24 -159.84,72.42 -226.07,13.82 -66.24,-58.61 -72.42,-159.83 -13.82,-226.07 127.38,-144.26 305.32,-559.68 381.85,-1096.59 54.11,-379.65 54.4,-813.88 -54.43,-1246.81 -34,-60.43 -67.49,-121.29 -100.36,-182.66 -670.7,-1252.42 -1106.07,-2698.8 -1211.71,-3908.23 -557.38,2086.31 -1004.41,4626.34 -1300.66,7732.24 -22.2,234.92 -230.63,407.36 -465.55,385.17 -234.92,-22.2 -407.37,-230.64 -385.17,-465.56 125.21,-1312.74 277.53,-2527.16 453.3,-3653.8 -105.69,-3.7 -209.12,-0.53 -310.16,8.93 -281.31,26.38 -545.5,101.84 -789.13,213.85 -7.19,4.05 -14.77,7.59 -22.7,10.55 -359.57,169.53 -673.6,418.71 -930.72,706.79 -437.41,490.11 -708.37,1089.25 -758.44,1599.55 -10.15,103.33 -11.09,202.36 -2.39,295.21 7.97,88.09 -56.98,165.99 -145.06,173.96 -88.09,7.97 -165.99,-56.97 -173.96,-145.06 -10.62,-113.3 -9.64,-232.28 2.39,-354.88 v -0.64 c 56.21,-572.95 355.95,-1240.61 838.82,-1781.66 127.12,-142.43 267.09,-276.33 418.75,-397.74 -174.8,-6.03 -351.9,-30.73 -524.96,-75.34 -389.11,-100.32 -758.58,-300.78 -1037.82,-614.89 -58.95,-66.24 -53.05,-167.74 13.19,-226.7 66.23,-58.96 167.74,-53.05 226.7,13.18 234.8,264.13 547.18,433.13 877.05,518.18 368.77,95.06 758.48,85.75 1087.19,-12.4 274.61,-126.02 573.27,-211.08 892.2,-240.98 127.12,-11.91 257.25,-15.04 390.1,-8.49 450.2,-2771.11 1047.57,-4989.5 1746.95,-6776.29 -309.67,272.06 -620.21,434.79 -929.78,537.33 -819.4,343.17 -938.98,979.44 -1058.86,1617.97 -145.98,777.62 -292.55,1558.24 -1470.84,1951.14 -83.93,27.75 -174.48,-17.8 -202.22,-101.73 -27.75,-83.93 17.8,-174.47 101.73,-202.22 998.23,-332.87 1127.42,-1020.87 1256.08,-1706.22 93.96,-500.48 187.79,-999.72 556.91,-1394.14 -102.65,11.56 -204.99,21.27 -306.98,30.93 -840.73,79.59 -1654.41,156.63 -2390.47,1468.46 -43.34,77.34 -141.2,104.88 -218.53,61.54 -77.34,-43.34 -104.89,-141.2 -61.54,-218.53 529.27,-943.29 1091.31,-1311.73 1672.96,-1478.09 -135.63,-61.99 -264.61,-139.65 -377.41,-232.16 -229.38,-188.11 -392.99,-436.91 -417.56,-740.89 -8,-99.1 -0.75,-203.82 24.4,-313.82 19.76,-86.35 105.81,-140.34 192.16,-120.58 86.35,19.77 140.34,105.82 120.58,192.17 -17.4,76.09 -22.4,148.54 -16.87,217.11 16.76,207.45 134.76,382.46 300.75,518.58 177.39,145.47 408.27,246.87 634.72,298.63 143.66,32.84 284.24,45.02 406.59,35.14 9.56,-0.75 19.01,-0.64 28.23,0.25 l 71.86,-6.83 c 817.9,-77.43 1661.32,-157.4 2487.11,-1372.54 956.6,-2117.2 2071.71,-3541.62 3247.19,-4534.5 -524.92,178.51 -1039.48,314.75 -1523.85,442.97 -1357.3,359.28 -2467.16,653.1 -2816.36,1645.14 -29.13,83.58 -120.52,127.72 -204.1,98.59 -83.57,-29.13 -127.72,-120.52 -98.59,-204.09 364.96,-1036.83 1358.63,-1394.79 2607.49,-1734.97 -62.47,-8.8 -124.44,-18.94 -185.85,-30.39 -508.81,-94.91 -978.6,-279.18 -1369.6,-523.23 -75.26,-46.81 -98.31,-145.79 -51.5,-221.05 46.82,-75.26 145.79,-98.31 221.05,-51.5 359.09,224.14 790.54,393.37 1257.82,480.53 434.87,81.12 901.18,91.25 1369.7,8.6 1.94,-0.34 3.88,-0.63 5.82,-0.9 613.62,-176.97 1253.9,-392.9 1881.86,-707.63 162.25,-101.59 325.06,-196.75 488.17,-286.21 -614.97,-21.81 -1102.56,-268.65 -1635.65,-538.63 -701.98,-355.52 -1488.4,-753.78 -2790.92,-672.51 -88.43,5.2 -164.35,-62.28 -169.55,-150.71 -5.2,-88.43 62.28,-164.36 150.71,-169.55 634.95,-39.62 1152.53,26.56 1597.98,145.82 -32.8,-47.51 -63.14,-96.78 -90.54,-147.63 -149.05,-276.66 -213.33,-599.68 -123.07,-941.17 22.54,-85.67 110.28,-136.83 195.94,-114.29 85.67,22.53 136.83,110.27 114.29,195.93 -67.16,254.14 -17.78,497.4 95.44,707.56 139.98,259.78 374.54,469.41 611.2,591.06 193.76,87.23 375.92,179.47 552.95,269.13 761.4,385.61 1421.86,720.1 2547.19,319.21 3.89,-1.38 7.8,-2.59 11.72,-3.65 580.54,-239.86 1158.38,-424.8 1722.73,-583.54 -478.46,-158.88 -773.2,-496.15 -1083.4,-851.28 l -14.19,-16.24 c -10.93,-7.25 -21.14,-15.95 -30.34,-26.12 -73.83,-81.47 -145.25,-162.89 -214.37,-244.3 -505.43,-524.83 -1204.34,-971.97 -2956.99,-661.81 -87.4,15.25 -170.64,-43.23 -185.89,-130.63 -15.25,-87.4 43.23,-170.63 130.63,-185.88 1118.68,-197.97 1844.61,-108.53 2366.24,116.56 -72.08,-110.56 -140.03,-221.11 -203.93,-331.67 -3.23,-4.94 -6.19,-10.09 -8.9,-15.44 -87.41,-152.07 -167.19,-304.14 -239.55,-456.25 -258.84,-461.91 -604.62,-829.06 -984.75,-1080.47 -311.48,-206.01 -645.39,-333.72 -972.02,-371.18 -319.85,-36.7 -632.71,13.51 -909.5,162.09 -218.36,117.23 -416.09,296.38 -579.33,543.21 -48.89,73.86 -148.44,94.1 -222.3,45.21 -73.87,-48.9 -94.11,-148.44 -45.21,-222.31 193.8,-293.04 431.1,-507.11 694.86,-648.71 337.08,-180.95 714.58,-242.49 1097.9,-198.51 376.57,43.2 758.78,188.62 1112.69,422.69 151.68,100.31 298.29,217.04 437.1,349.06 -79.09,-294.64 -132.09,-589.6 -160.58,-885.12 -98.2,-729.26 -280.03,-1196.46 -507.02,-1503.79 -239.63,-324.45 -535.61,-472.09 -835.87,-566.67 -84.62,-26.36 -131.85,-116.33 -105.5,-200.96 26.36,-84.62 116.33,-131.86 200.96,-105.5 355.42,111.96 707.29,288.78 997.89,682.23 97.58,132.11 187.54,288.49 267.45,474.92 110.17,-902.15 428.57,-1809.08 912.39,-2727.42 41.27,-78.38 138.27,-108.46 216.65,-67.19 78.38,41.27 108.46,138.28 67.19,216.66 -663.94,1260.24 -1003.76,2492.83 -899.13,3714.12 1.92,22.38 4.04,44.74 6.26,67.12 8.19,62.27 15.74,126.27 22.7,191.97 45.86,332.63 125.46,665.01 241.23,997.52 10.21,-419.89 101.76,-822.18 259.85,-1182.68 297.51,-678.49 830.61,-1210.33 1501.65,-1437.72 l 22.65,-7.53 c 84.27,-27.39 174.81,18.71 202.21,102.99 27.39,84.27 -18.72,174.81 -102.99,202.2 l -18.87,6.3 c -583.39,197.68 -1048.84,664.57 -1310.75,1261.88 -264.78,603.84 -321.46,1339.73 -83.3,2067.37 l 5.23,15.7 c 215.4,372.08 479.02,744.79 794.34,1118.64 95.92,100.44 185.81,203.28 274.35,304.65 414.8,474.87 798.21,913.55 1789.56,811.67 82.48,-20.9 164.53,-41.59 246.08,-62.15 2762.91,-696.45 4910.11,-1237.71 4683.1,-6390.84 -2.38,-55.15 5.82,-108.32 22.76,-157.54 V 5195.47 c 0,-236.76 191.94,-428.7 428.71,-428.7 236.76,0 428.7,191.94 428.7,428.7 v 8258.5 c 7.45,34.77 10.65,71.04 9.05,108.22 -3.64,82.57 -6.63,163.86 -9.05,244.08 v 826.41 c 0,13.41 -0.64,26.67 -1.85,39.76 118.3,4126.96 2143.81,4637.76 4693.99,5280.59 78.68,19.84 157.84,39.78 237.4,59.94 1006.94,110.25 1392.79,-331.26 1810.49,-809.46 88.55,-101.37 178.43,-204.2 274.35,-304.65 315.32,-373.87 578.94,-746.58 794.35,-1118.66 l 5.23,-15.68 c 238.15,-727.64 181.48,-1463.53 -83.3,-2067.37 -261.92,-597.31 -727.36,-1064.2 -1310.75,-1261.88 l -18.88,-6.3 c -84.27,-27.39 -130.38,-117.93 -102.98,-202.2 27.39,-84.28 117.93,-130.38 202.21,-102.99 l 22.64,7.53 c 671.04,227.39 1204.15,759.23 1501.66,1437.72 158.07,360.49 249.62,762.77 259.84,1182.64 115.77,-332.49 195.38,-664.85 241.24,-997.48 6.95,-65.7 14.52,-129.7 22.7,-191.97 2.22,-22.38 4.34,-44.74 6.26,-67.12 104.62,-1221.29 -235.19,-2453.88 -899.14,-3714.12 -41.27,-78.38 -11.19,-175.39 67.19,-216.66 78.38,-41.27 175.39,-11.19 216.66,67.19 483.81,918.34 802.21,1825.27 912.39,2727.42 79.9,-186.44 169.86,-342.81 267.45,-474.92 290.59,-393.45 642.46,-570.27 997.89,-682.23 84.63,-26.36 174.6,20.88 200.95,105.5 26.36,84.63 -20.87,174.6 -105.5,200.96 -300.25,94.58 -596.23,242.22 -835.87,566.67 -226.98,307.33 -408.82,774.53 -507.01,1503.79 -28.49,295.52 -81.51,590.48 -160.58,885.12 138.8,-132.02 285.42,-248.75 437.09,-349.06 353.92,-234.07 736.13,-379.49 1112.69,-422.69 383.33,-43.98 760.82,17.56 1097.9,198.51 263.76,141.6 501.06,355.67 694.87,648.71 48.89,73.87 28.66,173.41 -45.21,222.31 -73.87,48.89 -173.41,28.65 -222.3,-45.21 -163.24,-246.83 -360.97,-425.98 -579.33,-543.21 -276.8,-148.58 -589.65,-198.79 -909.51,-162.09 -326.63,37.46 -660.54,165.17 -972.01,371.18 -380.13,251.41 -725.91,618.57 -984.76,1080.48 -72.36,152.1 -152.14,304.16 -239.54,456.24 -2.71,5.35 -5.67,10.51 -8.9,15.44 -63.91,110.56 -131.86,221.11 -203.93,331.67 521.61,-225.09 1247.57,-314.53 2366.24,-116.56 87.4,15.25 145.87,98.48 130.62,185.88 -15.25,87.4 -98.48,145.88 -185.88,130.63 -1752.65,-310.16 -2451.57,136.98 -2957,661.81 -69.11,81.41 -140.54,162.84 -214.36,244.3 -9.21,10.17 -19.41,18.87 -30.34,26.12 l -14.19,16.24 c -311.37,356.46 -607.11,695 -1088.76,853.12 559.1,157.38 1131.41,340.53 1706.43,577.44 11.16,1.41 22.34,4.02 33.38,7.91 1125.32,400.89 1785.79,66.4 2547.19,-319.21 177.03,-89.65 359.21,-181.88 552.95,-269.13 z m -7691.56,-3109.57 c 10.17,235.84 -172.77,435.29 -408.61,445.46 -235.84,10.17 -435.28,-172.77 -445.46,-408.61 -175.25,-3842.22 516.66,-6340.03 1673.88,-7717.29 689.9,-821.1 1540.31,-1253.18 2474.6,-1341.57 910.56,-86.16 1889.16,159.35 2863.18,692.75 2247.01,1230.53 4514.14,4030.49 5833.59,7818.17 1526.03,4380.63 2742.51,6023.9 3743.57,7376.16 1260.7,1703.01 2195.64,2965.95 2958.71,8154.65 39.64,269.58 60.79,658.21 60.79,1131.58 0,1657.4 -253.61,4463.05 -874.2,6909.15 -649.77,2561.17 -1723.42,4750.59 -3382.37,4994.55 -104.19,15.33 -208,23.16 -311.29,23.16 -1318.72,0 -2608.8,-943.43 -3994.83,-1957.01 -434.56,-317.78 -879.08,-642.85 -1331.58,-943.04 -671.29,-445.33 -1661.19,-808.42 -2709.83,-1193.02 -1283.96,-470.93 -2652.42,-972.85 -3735.84,-1727.1 -702.09,-488.78 -1280.38,-1080.88 -1636.47,-1832.71 -357.33,-754.48 -483.31,-1654.17 -275.72,-2749.34 l 23.08,-121.73 c 522.65,-2755.87 686.35,-3619.08 -111.54,-6298.92 -223.97,-752.22 -418.03,-1269.1 -582.48,-1707.15 -403.59,-1075.01 -641.53,-1708.76 -641.53,-3631.49 0,-236.76 191.94,-428.7 428.71,-428.7 236.76,0 428.7,191.94 428.7,428.7 0,1776.28 216.83,2353.81 584.59,3333.41 173.62,462.43 378.47,1008.08 602.57,1760.74 856.73,2877.47 683.8,3789.4 131.65,6700.83 l -23.08,121.73 c -171.1,902.6 -74.15,1629.58 208.73,2226.86 284.15,599.92 763.41,1084.8 1351.79,1494.42 994.73,692.5 2308.71,1174.44 3541.58,1626.63 1096.01,401.98 2130.65,781.47 2887.33,1283.45 468.28,310.66 921.77,642.3 1365.08,966.47 1267.44,926.87 2447.13,1789.56 3489.09,1789.56 65.98,0 128.41,-4.43 187.38,-13.1 1231.98,-181.17 2103.31,-2098.81 2675.67,-4354.86 601.57,-2371.13 847.41,-5092.93 847.41,-6701.49 0,-436.76 -17.66,-782.66 -50.74,-1007.66 -732.24,-4979.06 -1611.85,-6167.25 -2797.95,-7769.48 -1036.23,-1399.76 -2295.43,-3100.75 -3864.14,-7603.91 -1247.93,-3582.35 -3357.97,-6211.8 -5435.05,-7349.27 -825.69,-452.17 -1637.68,-661.95 -2374.18,-592.27 -712.79,67.44 -1366,402.36 -1901.87,1040.12 -1027.17,1222.47 -1637.55,3521.81 -1472.92,7131.17 z"
       id="path6"
       inkscape:connector-curvature="0"
       style="fill:#00ffff;fill-rule:nonzero" /></g></svg>