<?xml version="1.0" encoding="UTF-8" standalone="no"?>
<svg
   xmlns:dc="http://purl.org/dc/elements/1.1/"
   xmlns:cc="http://creativecommons.org/ns#"
   xmlns:rdf="http://www.w3.org/1999/02/22-rdf-syntax-ns#"
   xmlns:svg="http://www.w3.org/2000/svg"
   xmlns="http://www.w3.org/2000/svg"
   xmlns:sodipodi="http://sodipodi.sourceforge.net/DTD/sodipodi-0.dtd"
   xmlns:inkscape="http://www.inkscape.org/namespaces/inkscape"
   version="1.1"
   x="0px"
   y="0px"
   viewBox="0 0 143.584 158.64301"
   enable-background="new 0 0 100 100"
   xml:space="preserve"
   id="svg4"
   sodipodi:docname="toutes_les_fiches.svg"
   inkscape:version="0.92.3 (2405546, 2018-03-11)"
   width="143.584"
   height="158.64301"><metadata
     id="metadata10"><rdf:RDF><cc:Work
         rdf:about=""><dc:format>image/svg+xml</dc:format><dc:type
           rdf:resource="http://purl.org/dc/dcmitype/StillImage" /><dc:title></dc:title></cc:Work></rdf:RDF></metadata><defs
     id="defs8" /><sodipodi:namedview
     pagecolor="#ffffff"
     bordercolor="#666666"
     borderopacity="1"
     objecttolerance="10"
     gridtolerance="10"
     guidetolerance="10"
     inkscape:pageopacity="0"
     inkscape:pageshadow="2"
     inkscape:window-width="1600"
     inkscape:window-height="836"
     id="namedview6"
     showgrid="false"
     inkscape:zoom="1.18"
     inkscape:cx="-192.03114"
     inkscape:cy="121.7452"
     inkscape:window-x="0"
     inkscape:window-y="27"
     inkscape:window-maximized="1"
     inkscape:current-layer="svg4"
     fit-margin-top="30"
     fit-margin-left="30"
     fit-margin-right="30"
     fit-margin-bottom="30" /><path
     d="m 112.26118,111.42246 -6.15477,-34.388411 4.66281,-34.608934 -11.126112,-1.499213 -1.424796,-7.9598 -24.761504,4.429573 -24.926673,-3.359615 -0.519098,3.856933 -5.10204,0.0036 0.0027,4.965006 -6.504149,1.16434 6.150219,34.374795 -4.661897,34.630716 5.061203,0.68245 0.0027,3.88324 6.610328,-0.004 0.87575,4.89241 24.739725,-4.42958 24.941194,3.36053 0.51819,-3.85512 5.11202,-0.004 -0.004,-4.97227 z m -71.974897,-64.694824 2.628159,-0.470999 0.0091,15.212648 z m 1.368531,63.437914 1.294113,-9.61057 0.0063,9.78572 z m 65.354586,-64.8736 -0.96379,7.162096 -5.28445,-5.289896 -0.49913,-2.781528 z m -6.99603,5.886132 -7.592255,0.0046 -0.0044,-7.604964 z m -4.496727,-14.333267 0.646145,3.611903 -2.433038,-0.327612 -2.512904,-2.51472 z m -42.369079,81.761515 -0.181503,-1.0155 5.87615,-0.004 z m -6.848097,-4.35334 -0.04538,-73.01581 42.818298,-0.02723 0.0091,13.316853 13.293265,-0.0091 0.0372,59.698957 z m 59.441223,-20.279294 2.64086,14.745284 -2.62997,0.4719 z m -9.947254,-35.127125 -42.410826,0.02723 0.0018,3.34328 42.40992,-0.02632 z m 0.0037,9.122325 -42.409005,0.02541 0.0018,3.34328 42.409918,-0.02632 z m 0.0052,9.122326 -42.409919,0.02632 0.0018,3.34328 42.410824,-0.02632 z m 0.0066,9.121421 -42.409916,0.0263 0.0018,3.343276 42.409916,-0.0263 z m -42.404471,9.149548 0.0027,3.343276 42.409009,-0.0263 -0.0015,-3.343283 z"
     id="path2"
     style="fill:#00ffff;stroke-width:0.90751344"
     inkscape:connector-curvature="0" /></svg>