<?xml version="1.0" encoding="UTF-8" standalone="no"?>
<svg
   xmlns:dc="http://purl.org/dc/elements/1.1/"
   xmlns:cc="http://creativecommons.org/ns#"
   xmlns:rdf="http://www.w3.org/1999/02/22-rdf-syntax-ns#"
   xmlns:svg="http://www.w3.org/2000/svg"
   xmlns="http://www.w3.org/2000/svg"
   xmlns:sodipodi="http://sodipodi.sourceforge.net/DTD/sodipodi-0.dtd"
   xmlns:inkscape="http://www.inkscape.org/namespaces/inkscape"
   version="1.1"
   x="0px"
   y="0px"
   viewBox="0 0 143.584 158.64301"
   enable-background="new 0 0 100 100"
   xml:space="preserve"
   id="svg4"
   sodipodi:docname="toutes_les_fiches.svg"
   inkscape:version="0.92.3 (2405546, 2018-03-11)"
   width="143.584"
   height="158.64301"><metadata
     id="metadata10"><rdf:RDF><cc:Work
         rdf:about=""><dc:format>image/svg+xml</dc:format><dc:type
           rdf:resource="http://purl.org/dc/dcmitype/StillImage" /><dc:title></dc:title></cc:Work></rdf:RDF></metadata><defs
     id="defs8" /><sodipodi:namedview
     pagecolor="#ffffff"
     bordercolor="#666666"
     borderopacity="1"
     objecttolerance="10"
     gridtolerance="10"
     guidetolerance="10"
     inkscape:pageopacity="0"
     inkscape:pageshadow="2"
     inkscape:window-width="1600"
     inkscape:window-height="836"
     id="namedview6"
     showgrid="false"
     inkscape:zoom="2.36"
     inkscape:cx="24.758102"
     inkscape:cy="79.322"
     inkscape:window-x="0"
     inkscape:window-y="27"
     inkscape:window-maximized="1"
     inkscape:current-layer="svg4"
     fit-margin-top="30"
     fit-margin-left="30"
     fit-margin-right="30"
     fit-margin-bottom="30" /><path
     d="m 139.37982,139.47162 -8.35517,-46.68271 6.32982,-46.982076 -15.10384,-2.0352 -1.93418,-10.805532 -33.614062,6.013203 -33.83828,-4.560721 -0.704682,5.235836 -6.926086,0.0049 0.0037,6.74006 -8.829467,1.580606 8.349002,46.664229 -6.328585,47.011645 6.870648,0.92643 0.0037,5.27156 8.973606,-0.005 1.188842,6.64151 33.584497,-6.01321 33.857987,4.56196 0.70345,-5.23337 6.93964,-0.005 -0.005,-6.74992 z m -97.706848,-87.824057 3.56776,-0.639388 0.01232,20.651367 z m 1.857798,86.117787 1.756776,-13.04647 0.0086,13.28424 z m 88.71969,-88.06675 -1.30835,9.722638 -7.17371,-7.181102 -0.67758,-3.775961 z m -9.49719,7.990501 -10.30659,0.0062 -0.006,-10.323836 z m -6.10437,-19.457596 0.87715,4.903205 -3.30288,-0.444738 -3.4113,-3.413764 z m -57.516573,110.992315 -0.246392,-1.37856 7.976949,-0.005 z m -9.29638,-5.90971 -0.0616,-99.119913 58.126393,-0.03696 0.0123,18.0778 18.04577,-0.01232 0.0505,81.042113 z m 80.692223,-27.52941 3.58501,20.01691 -3.57022,0.64062 z m -13.50352,-47.685526 -57.573245,0.03696 0.0025,4.538546 57.572015,-0.03573 z m 0.005,12.383674 -57.570773,0.03449 0.0025,4.538546 57.572013,-0.03573 z m 0.007,12.383675 -57.572013,0.03573 0.0025,4.538545 57.573243,-0.03573 z m 0.009,12.382447 -57.57201,0.0357 0.0025,4.53854 57.57201,-0.0357 z m -57.564618,12.42063 0.0037,4.53854 57.570778,-0.0357 -0.002,-4.53855 z"
     id="path2"
     style="fill:#00ffff;stroke-width:1.23196125"
     inkscape:connector-curvature="0" /></svg>