<?xml version="1.0" encoding="UTF-8" standalone="no"?>
<svg
   xmlns:dc="http://purl.org/dc/elements/1.1/"
   xmlns:cc="http://creativecommons.org/ns#"
   xmlns:rdf="http://www.w3.org/1999/02/22-rdf-syntax-ns#"
   xmlns:svg="http://www.w3.org/2000/svg"
   xmlns="http://www.w3.org/2000/svg"
   xmlns:sodipodi="http://sodipodi.sourceforge.net/DTD/sodipodi-0.dtd"
   xmlns:inkscape="http://www.inkscape.org/namespaces/inkscape"
   viewBox="0 0 28 10"
   x="0px"
   y="0px"
   version="1.1"
   id="svg16"
   sodipodi:docname="disconnect.svg"
   inkscape:version="0.92.3 (2405546, 2018-03-11)">
  <metadata
     id="metadata22">
    <rdf:RDF>
      <cc:Work
         rdf:about="">
        <dc:format>image/svg+xml</dc:format>
        <dc:type
           rdf:resource="http://purl.org/dc/dcmitype/StillImage" />
        <dc:title>Ресурс 84</dc:title>
      </cc:Work>
    </rdf:RDF>
  </metadata>
  <defs
     id="defs20" />
  <sodipodi:namedview
     pagecolor="#ffffff"
     bordercolor="#666666"
     borderopacity="1"
     objecttolerance="10"
     gridtolerance="10"
     guidetolerance="10"
     inkscape:pageopacity="0"
     inkscape:pageshadow="2"
     inkscape:window-width="1600"
     inkscape:window-height="836"
     id="namedview18"
     showgrid="false"
     inkscape:zoom="16.035714"
     inkscape:cx="7.077951"
     inkscape:cy="5"
     inkscape:window-x="0"
     inkscape:window-y="27"
     inkscape:window-maximized="1"
     inkscape:current-layer="svg16" />
  <title
     id="title2">Ресурс 84</title>
  <g
     data-name="Слой 2"
     id="g14">
    <g
       data-name="Слой 1"
       id="g12">
      <path
         d="M23,10H21a5,5,0,0,1-2.5-.67,1,1,0,1,1,1-1.73A3,3,0,0,0,21,8h2a3,3,0,0,0,0-6H21a3,3,0,0,0-1.5.4,1,1,0,1,1-1-1.73A5,5,0,0,1,21,0h2a5,5,0,0,1,0,10Z"
         id="path4" />
      <path
         d="M7,10H5A5,5,0,0,1,5,0H7A5,5,0,0,1,9.5.67a1,1,0,0,1-1,1.73A3,3,0,0,0,7,2H5A3,3,0,0,0,5,8H7a3,3,0,0,0,1.5-.4,1,1,0,0,1,1,1.73A5,5,0,0,1,7,10Z"
         id="path6" />
      <path
         d="M21,6H17a1,1,0,0,1,0-2h4a1,1,0,0,1,0,2Z"
         id="path8" />
      <path
         d="M11,6H7A1,1,0,0,1,7,4h4a1,1,0,0,1,0,2Z"
         id="path10" />
    </g>
  </g>
</svg>
