<?xml version="1.0" encoding="UTF-8" standalone="no"?>
<!-- Created with Inkscape (http://www.inkscape.org/) -->

<svg
   xmlns:dc="http://purl.org/dc/elements/1.1/"
   xmlns:cc="http://creativecommons.org/ns#"
   xmlns:rdf="http://www.w3.org/1999/02/22-rdf-syntax-ns#"
   xmlns:svg="http://www.w3.org/2000/svg"
   xmlns="http://www.w3.org/2000/svg"
   xmlns:sodipodi="http://sodipodi.sourceforge.net/DTD/sodipodi-0.dtd"
   xmlns:inkscape="http://www.inkscape.org/namespaces/inkscape"
   width="11mm"
   height="5mm"
   viewBox="0 0 11 5"
   version="1.1"
   id="svg4520"
   inkscape:version="0.92.3 (2405546, 2018-03-11)"
   sodipodi:docname="oeil_ouvert.svg">
  <defs
     id="defs4514" />
  <sodipodi:namedview
     id="base"
     pagecolor="#ffffff"
     bordercolor="#666666"
     borderopacity="1.0"
     inkscape:pageopacity="0.0"
     inkscape:pageshadow="2"
     inkscape:zoom="30.334264"
     inkscape:cx="12.180945"
     inkscape:cy="8.9500491"
     inkscape:document-units="mm"
     inkscape:current-layer="layer1"
     showgrid="false"
     fit-margin-top="0"
     fit-margin-left="0"
     fit-margin-right="0"
     fit-margin-bottom="0"
     inkscape:window-width="1600"
     inkscape:window-height="836"
     inkscape:window-x="0"
     inkscape:window-y="27"
     inkscape:window-maximized="1" />
  <metadata
     id="metadata4517">
    <rdf:RDF>
      <cc:Work
         rdf:about="">
        <dc:format>image/svg+xml</dc:format>
        <dc:type
           rdf:resource="http://purl.org/dc/dcmitype/StillImage" />
        <dc:title />
      </cc:Work>
    </rdf:RDF>
  </metadata>
  <g
     inkscape:label="Calque 1"
     inkscape:groupmode="layer"
     id="layer1"
     transform="translate(-42.986237,-19.992209)">
    <g
       transform="matrix(0.26458333,0,0,0.26458333,42.14464,9.328875)"
       id="g4498"
       style="fill:#cccccc">
      <path
         d="M 43.9,51.1 C 44,50.7 44,50.3 43.7,50 c -0.1,-0.1 -0.1,-0.1 -0.2,-0.1 -5,-5 -10.5,-7.6 -16.4,-7.6 0,0 0,0 -0.1,0 -4.7,0 -8.9,1.8 -11.7,3.4 l -4.7,-4.4 c -0.4,-0.4 -1,-0.3 -1.4,0 -0.4,0.4 -0.3,1 0,1.4 l 4.3,4.1 c -0.3,0.2 -0.6,0.4 -0.9,0.7 l -6,-3.4 C 6.1,43.8 5.6,44 5.3,44.5 5,45 5.2,45.5 5.7,45.8 l 5.3,3 c -0.3,0.3 -0.6,0.5 -0.8,0.7 L 4.4,48 c -0.5,-0.1 -1,0.2 -1.2,0.7 -0.1,0.5 0.2,1 0.7,1.2 l 5.4,1.3 c 0,0.1 0.1,0.2 0.2,0.3 0,0 0.1,0.1 0.2,0.1 0.5,0.5 2.2,2.1 4.8,3.7 2.8,1.8 7.3,3.9 12.6,3.9 0,0 0,0 0.1,0 5.9,0 11.4,-2.6 16.4,-7.6 0,0 0.1,0 0.1,-0.1 0.1,-0.1 0.1,-0.2 0.2,-0.4 0,0.1 0,0.1 0,0 0,0.1 0,0 0,0 z m -16.8,-6 c 3.1,0 5.6,2.5 5.6,5.6 0,3.1 -2.5,5.6 -5.6,5.6 -3.1,0 -5.6,-2.5 -5.6,-5.6 0,-3.1 2.5,-5.6 5.6,-5.6 z m 7.5,5.6 c 0,-2.4 -1.1,-4.5 -2.8,-5.9 3.4,0.9 6.7,2.9 9.9,5.9 -3.1,3 -6.5,5 -9.9,5.9 1.7,-1.3 2.8,-3.5 2.8,-5.9 z m -22.9,0.1 c 1.6,-1.4 5.5,-4.5 10.7,-5.8 -1.7,1.4 -2.8,3.5 -2.8,5.8 0,2.4 1.1,4.5 2.8,5.9 -5.2,-1.4 -9.2,-4.6 -10.7,-5.9 z"
         id="path2"
         inkscape:connector-curvature="0"
         style="fill:#cccccc" />
      <circle
         cx="27.1"
         cy="50.700001"
         r="3.4000001"
         id="circle4"
         style="fill:#cccccc" />
    </g>
  </g>
</svg>
