<?xml version="1.0" encoding="UTF-8" standalone="no"?>
<!-- Created with Inkscape (http://www.inkscape.org/) -->

<svg
   xmlns:dc="http://purl.org/dc/elements/1.1/"
   xmlns:cc="http://creativecommons.org/ns#"
   xmlns:rdf="http://www.w3.org/1999/02/22-rdf-syntax-ns#"
   xmlns:svg="http://www.w3.org/2000/svg"
   xmlns="http://www.w3.org/2000/svg"
   xmlns:sodipodi="http://sodipodi.sourceforge.net/DTD/sodipodi-0.dtd"
   xmlns:inkscape="http://www.inkscape.org/namespaces/inkscape"
   width="11mm"
   height="5mm"
   viewBox="0 0 11 5"
   version="1.1"
   id="svg4520"
   inkscape:version="0.92.3 (2405546, 2018-03-11)"
   sodipodi:docname="oeil_ferme.svg">
  <defs
     id="defs4514" />
  <sodipodi:namedview
     id="base"
     pagecolor="#ffffff"
     bordercolor="#666666"
     borderopacity="1.0"
     inkscape:pageopacity="0.0"
     inkscape:pageshadow="2"
     inkscape:zoom="30.334264"
     inkscape:cx="12.180945"
     inkscape:cy="8.9500491"
     inkscape:document-units="mm"
     inkscape:current-layer="layer1"
     showgrid="false"
     fit-margin-top="0"
     fit-margin-left="0"
     fit-margin-right="0"
     fit-margin-bottom="0"
     inkscape:window-width="1600"
     inkscape:window-height="836"
     inkscape:window-x="0"
     inkscape:window-y="27"
     inkscape:window-maximized="1" />
  <metadata
     id="metadata4517">
    <rdf:RDF>
      <cc:Work
         rdf:about="">
        <dc:format>image/svg+xml</dc:format>
        <dc:type
           rdf:resource="http://purl.org/dc/dcmitype/StillImage" />
        <dc:title />
      </cc:Work>
    </rdf:RDF>
  </metadata>
  <g
     inkscape:label="Calque 1"
     inkscape:groupmode="layer"
     id="layer1"
     transform="translate(-42.986237,-19.992209)">
    <g
       id="g4501"
       transform="matrix(-0.26458333,0,0,0.26458333,68.576515,9.3817917)"
       style="fill:#e6e6e6">
      <path
         d="m 96.7,48.4 c -0.1,-0.5 -0.6,-0.8 -1.2,-0.7 l -5.8,1.5 C 89.5,49 89.2,48.8 88.9,48.5 l 5.3,-3 c 0.5,-0.3 0.6,-0.8 0.4,-1.3 -0.3,-0.5 -0.9,-0.6 -1.3,-0.4 l -6,3.4 C 87,47 86.7,46.8 86.4,46.6 l 4.3,-4.1 c 0.4,-0.4 0.4,-1 0,-1.4 -0.4,-0.4 -1,-0.4 -1.4,0 l -4.7,4.4 c -2.9,-1.6 -7,-3.4 -11.8,-3.4 0,0 0,0 -0.1,0 -5.9,0 -11.5,2.6 -16.5,7.7 -0.4,0.4 -0.4,1 0,1.4 0.4,0.4 1,0.4 1.4,0 4.7,-4.7 9.8,-7.2 15.2,-7.2 0,0 0,0 0,0 9.1,0 16.1,7.1 16.2,7.2 0.2,0.2 0.4,0.3 0.7,0.3 0.2,0 0.5,-0.1 0.7,-0.3 0.1,-0.1 0.2,-0.2 0.2,-0.3 L 96,49.6 c 0.5,-0.1 0.9,-0.7 0.7,-1.2 z"
         id="path6"
         inkscape:connector-curvature="0"
         style="fill:#e6e6e6" />
    </g>
  </g>
</svg>
