<?xml version="1.0" encoding="UTF-8" standalone="no"?>
<svg
   xmlns:dc="http://purl.org/dc/elements/1.1/"
   xmlns:cc="http://creativecommons.org/ns#"
   xmlns:rdf="http://www.w3.org/1999/02/22-rdf-syntax-ns#"
   xmlns:svg="http://www.w3.org/2000/svg"
   xmlns="http://www.w3.org/2000/svg"
   xmlns:sodipodi="http://sodipodi.sourceforge.net/DTD/sodipodi-0.dtd"
   xmlns:inkscape="http://www.inkscape.org/namespaces/inkscape"
   fill="#DD342C"
   version="1.1"
   x="0px"
   y="0px"
   viewBox="0 0 100 100"
   style="enable-background:new 0 0 100 100;"
   xml:space="preserve"
   id="svg4"
   sodipodi:docname="PDF_download.svg"
   inkscape:version="0.92.3 (2405546, 2018-03-11)"><metadata
     id="metadata10"><rdf:RDF><cc:Work
         rdf:about=""><dc:format>image/svg+xml</dc:format><dc:type
           rdf:resource="http://purl.org/dc/dcmitype/StillImage" /><dc:title></dc:title></cc:Work></rdf:RDF></metadata><defs
     id="defs8" /><sodipodi:namedview
     pagecolor="#ffffff"
     bordercolor="#666666"
     borderopacity="1"
     objecttolerance="10"
     gridtolerance="10"
     guidetolerance="10"
     inkscape:pageopacity="0"
     inkscape:pageshadow="2"
     inkscape:window-width="925"
     inkscape:window-height="480"
     id="namedview6"
     showgrid="false"
     inkscape:zoom="2.36"
     inkscape:cx="3.3898305"
     inkscape:cy="50"
     inkscape:window-x="0"
     inkscape:window-y="27"
     inkscape:window-maximized="0"
     inkscape:current-layer="svg4" /><path
     d="M35.2,53.4c-0.3,0.9-0.3,0.9-0.9,2.4l-0.1,0.2c-0.7,1.9-1.9,4.2-2.7,5.7c-1.2,0.6-2.4,1.2-4.1,2.2c-3.6,2.1-6.1,3.6-7,6  c-0.5,1.3-1.7,4.5,0.9,6.6c0.9,0.8,2.1,1.2,3.2,1.2c1.2,0,2.3-0.4,3.2-1.2c1.2-1.1,1.7-2.1,2.7-4c0.3-0.5,0.6-1.1,1-1.9  c1.6-3.1,2.6-5.2,2.8-5.5c0-0.1,0.1-0.2,0.2-0.3c0.7-0.3,1.5-0.6,2.4-1c3.3-1.4,4.7-1.8,7.7-2.8l1.4-0.5c1.1-0.4,1.9-0.6,2.7-0.9  c1-0.4,1.8-0.6,2.6-0.9c0.7,0.6,1.4,1.3,2.3,2c1.9,1.6,3.2,2.4,4.6,2.8c1.2,0.3,2.9,0.2,4-0.1c3.5-0.9,3.6-3.5,3.7-4.6  c0.1-1.5-0.8-4.1-4.7-4.8c-1.8-0.3-3-0.3-4.1-0.3c-1.1,0-2,0.1-3.4,0.3c-0.4,0.1-0.9,0.2-1.2,0.2c-1-1-1.7-2-2.8-3.5  c-2.1-3-3.4-5.1-5.5-8.8c-0.3-0.5-0.6-1.1-0.9-1.6c0.2-0.9,0.4-1.9,0.6-3.1l0.3-1.4c0.8-3.8,1-5.1,0.4-8.2c-0.7-3.4-3-4.2-4.2-4.1v0  c-0.6,0-3,0.4-4,3.9c-0.7,2.4-0.6,4.2,0,6.7c0.4,1.8,1.3,4,2.8,6.7c-0.5,2.1-1.1,4-2.2,7.2C35.9,51.3,35.4,52.6,35.2,53.4z   M27.9,68.6c-0.4,0.7-0.7,1.4-1,1.9c-1,1.9-1.2,2.3-1.8,2.9c-0.4,0.3-0.9,0.1-1.2-0.1c-0.1-0.1-0.4-0.3,0.3-2.1c0.4-1,2.3-2.2,4-3.3  C28.2,68.2,28,68.4,27.9,68.6z M57.2,57.6c1,0,2,0,3.4,0.3c1,0.2,1.3,0.6,1.3,0.7c0,0.2,0,0.6,0,0.7c0,0-0.1,0.1-0.6,0.2  c-0.7,0.2-1.7,0.2-2,0.1c-0.5-0.2-1.3-0.5-3-1.9C56.6,57.6,56.9,57.6,57.2,57.6z M40.3,28.4c0.1-0.3,0.2-0.6,0.3-0.7  c0.1,0.1,0.1,0.3,0.2,0.6c0.4,2.2,0.4,2.9-0.2,5.8c-0.1-0.3-0.2-0.6-0.2-0.8C39.9,31.1,39.8,30,40.3,28.4z M38,57.4l0.1-0.2  c0.6-1.6,0.6-1.6,1-2.6c0.2-0.7,0.7-2.1,1.8-5.3c0.5-1.3,0.8-2.5,1.1-3.5c1.5,2.6,2.7,4.6,4.5,7.1c0.7,0.9,1.2,1.7,1.8,2.4  c-0.3,0.1-0.6,0.2-0.9,0.3c-0.7,0.3-1.5,0.5-2.6,0.9L43.4,57c-2.5,0.8-3.9,1.3-6.2,2.2C37.5,58.6,37.7,58,38,57.4z M72.5,57.2v9.6  H59.6c-3.8,0-7,3.2-7,7V87H22.4c-4.4,0-7.9-3.6-7.9-8.1V21.1c0-4.4,3.6-8.1,7.9-8.1h42.2c3.8,0,7,2.8,7.8,6.5  c0.7-0.1,1.5-0.1,2.2-0.1c0.6,0,1.2,0,1.8,0.1C75.6,13.6,70.6,9,64.5,9H22.4c-6.6,0-11.9,5.4-11.9,12.1v57.9  c0,6.7,5.3,12.1,11.9,12.1h32.2c0.1,0,0.3,0,0.4,0c0.1,0,0.1,0,0.2-0.1c0.1,0,0.1,0,0.2-0.1c0.1,0,0.1-0.1,0.2-0.1  c0,0,0.1,0,0.1-0.1c0.1-0.1,0.2-0.2,0.3-0.3c0,0,0,0,0,0l19.8-20.1c0,0,0,0,0,0l0,0c0,0,0-0.1,0.1-0.1c0.1-0.1,0.1-0.1,0.2-0.2  c0-0.1,0.1-0.1,0.1-0.2c0-0.1,0.1-0.1,0.1-0.2c0-0.1,0-0.1,0.1-0.2c0-0.1,0-0.1,0-0.2c0-0.1,0-0.3,0-0.4v0v0V57.2  c-0.6,0.1-1.3,0.1-1.9,0.1C73.8,57.3,73.1,57.3,72.5,57.2z M56.6,84.1V73.9c0-1.7,1.3-3,3-3h10.1L56.6,84.1z M74.5,21.8  c-9.1,0-16.5,7.4-16.5,16.5s7.4,16.5,16.5,16.5S91,47.4,91,38.3S83.6,21.8,74.5,21.8z M74.5,51.8c-7.4,0-13.5-6.1-13.5-13.5  s6.1-13.5,13.5-13.5S88,30.9,88,38.3S82,51.8,74.5,51.8z M80.6,39.8c0.3,0.3,0.4,0.7,0.4,1.1s-0.1,0.8-0.4,1.1l-5,5  c-0.3,0.3-0.6,0.4-1,0.4c0,0-0.1,0-0.1,0c-0.1,0-0.1,0-0.2,0c-0.3,0-0.6-0.2-0.8-0.4c0,0-0.1-0.1-0.1-0.1l-5-5  c-0.6-0.6-0.6-1.5,0-2.1c0.6-0.6,1.5-0.6,2.1,0l2.4,2.4V30.8c0-0.8,0.7-1.5,1.5-1.5S76,30,76,30.8v11.4l2.4-2.4  C79.1,39.2,80,39.2,80.6,39.8z"
     id="path2" /></svg>