<?xml version="1.0" encoding="UTF-8" standalone="no"?>
<svg
   xmlns:dc="http://purl.org/dc/elements/1.1/"
   xmlns:cc="http://creativecommons.org/ns#"
   xmlns:rdf="http://www.w3.org/1999/02/22-rdf-syntax-ns#"
   xmlns:svg="http://www.w3.org/2000/svg"
   xmlns="http://www.w3.org/2000/svg"
   xmlns:sodipodi="http://sodipodi.sourceforge.net/DTD/sodipodi-0.dtd"
   xmlns:inkscape="http://www.inkscape.org/namespaces/inkscape"
   version="1.1"
   x="0px"
   y="0px"
   viewBox="0 0 240.99999 180.00001"
   enable-background="new 0 0 64 64"
   xml:space="preserve"
   id="svg16"
   sodipodi:docname="vider.svg"
   width="241"
   height="180"
   inkscape:version="0.92.3 (2405546, 2018-03-11)"><metadata
     id="metadata22"><rdf:RDF><cc:Work
         rdf:about=""><dc:format>image/svg+xml</dc:format><dc:type
           rdf:resource="http://purl.org/dc/dcmitype/StillImage" /><dc:title></dc:title></cc:Work></rdf:RDF></metadata><defs
     id="defs20" /><sodipodi:namedview
     pagecolor="#ffffff"
     bordercolor="#666666"
     borderopacity="1"
     objecttolerance="10"
     gridtolerance="10"
     guidetolerance="10"
     inkscape:pageopacity="0"
     inkscape:pageshadow="2"
     inkscape:window-width="1600"
     inkscape:window-height="836"
     id="namedview18"
     showgrid="false"
     units="px"
     fit-margin-top="2"
     fit-margin-left="2"
     fit-margin-right="2"
     fit-margin-bottom="2"
     inkscape:zoom="1.475"
     inkscape:cx="57.651324"
     inkscape:cy="163.07346"
     inkscape:window-x="0"
     inkscape:window-y="27"
     inkscape:window-maximized="1"
     inkscape:current-layer="svg16" /><rect
     style="opacity:0.93399999;fill:#cccccc;fill-opacity:1;stroke:none;stroke-width:4.55698681;stroke-linejoin:round;stroke-miterlimit:4;stroke-dasharray:none;stroke-dashoffset:0;stroke-opacity:1"
     id="rect4499"
     width="249.83051"
     height="188.81357"
     x="-3.4237287"
     y="-4.0339007" /><path
     inkscape:connector-curvature="0"
     d="m 143.4507,148.15297 h -35.3 l -6.6,-58.500005 h 48.4 z m -31.6,-4.2 h 27.8 l 5.6,-50.200005 h -39 z m 6.4,-4.4 c 0.8,-0.1 1.4,-0.9 1.3,-1.7 l -4.3,-38.300005 c -0.2,-0.8 -1.1,-1.3 -1.9,-1.1 -0.6,0.2 -1.1,0.7 -1.1,1.4 l 4.3,38.400005 c 0.1,0.8 0.7,1.4 1.5,1.4 z m 16.8,-1.3 4.3,-38.400005 c 0.1,-0.8 -0.5,-1.6 -1.3,-1.7 -0.8,-0.1 -1.6,0.5 -1.7,1.3 l -4.3,38.400005 c -0.1,0.8 0.5,1.6 1.3,1.7 h 0.2 c 0.7,0 1.4,-0.6 1.5,-1.3 z m -7.9,-0.2 V 99.652965 c 0,-0.8 -0.6,-1.4 -1.4,-1.4 -0.8,0 -1.4,0.6 -1.4,1.4 v 38.400005 c 0,0.8 0.6,1.4 1.4,1.4 0.8,0 1.4,-0.6 1.4,-1.4 z m 31.7,-58.600005 -3.7,-3.7 1.7,-1.6 v 0 c 2.2,-2.2 2,-6.1 -0.4,-8.499999 l -8,-8.1 c -1.2,-1.3 -2.9,-2 -4.7,-2 v 0 c -1.5,0 -2.8,0.5 -3.9,1.6 l -1.7,1.7 -3.7,-3.7 c -2.6,-2.6 -6.8,-2.6 -9.5,0 l -3.7,3.7 33.9,33.799999 3.7,-3.7 c 2.6,-2.6 2.6,-6.8 0,-9.5 z m -16,-19.299999 c 0.2,-0.2 0.6,-0.3 0.9,-0.3 0.6,0 1.2,0.3 1.6,0.7 l 8,8.099999 c 0.7,0.6 0.9,1.6 0.4,2.4 l -1.6,1.6 -10.9,-10.899999 z m 13,25.799999 -0.8,0.8 -27.8,-27.899999 0.8,-0.8 c 1,-0.9 2.6,-0.9 3.5,0 l 24.4,24.399999 c 0.9,1 0.9,2.6 -0.1,3.5 z m -30.1,-2.6 -1,-12.6 -3,2.6 c -4.5,-4.2 -10.5,-6.6 -16.7,-6.8 -7.199993,-0.1 -14.099996,3 -18.899996,8.4 -4.7,5.3 -6.7,12.3 -5.7,19.3 1,6.700005 4.9,12.700005 10.6,16.300005 1,0.7 2.2,0.7 2.4,0.2 0.2,-0.5 -0.3,-1.4 -1.2,-2 v 0 c -4.8,-3.5 -7.9,-9.000005 -8.3,-15.000005 -0.4,-5.7 1.7,-11.4 5.7,-15.4 4,-3.9 9.400003,-5.9 14.999996,-5.4 4.3,0.4 8.4,2.3 11.5,5.4 l -2.8,2.5 z"
     id="path4"
     style="fill:#d40000" /></svg>