<?xml version="1.0" encoding="UTF-8" standalone="no"?>
<svg
   xmlns:dc="http://purl.org/dc/elements/1.1/"
   xmlns:cc="http://creativecommons.org/ns#"
   xmlns:rdf="http://www.w3.org/1999/02/22-rdf-syntax-ns#"
   xmlns:svg="http://www.w3.org/2000/svg"
   xmlns="http://www.w3.org/2000/svg"
   xmlns:sodipodi="http://sodipodi.sourceforge.net/DTD/sodipodi-0.dtd"
   xmlns:inkscape="http://www.inkscape.org/namespaces/inkscape"
   xml:space="preserve"
   version="1.1"
   style="clip-rule:evenodd;fill-rule:evenodd;image-rendering:optimizeQuality;shape-rendering:geometricPrecision;text-rendering:geometricPrecision"
   viewBox="0 0 170 170"
   x="0px"
   y="0px"
   id="svg18"
   sodipodi:docname="enterotoxemies.svg"
   width="170"
   height="170"
   inkscape:version="0.92.3 (2405546, 2018-03-11)"><metadata
     id="metadata22"><rdf:RDF><cc:Work
         rdf:about=""><dc:format>image/svg+xml</dc:format><dc:type
           rdf:resource="http://purl.org/dc/dcmitype/StillImage" /><dc:title></dc:title></cc:Work></rdf:RDF></metadata><sodipodi:namedview
     pagecolor="#ffffff"
     bordercolor="#666666"
     borderopacity="1"
     objecttolerance="10"
     gridtolerance="10"
     guidetolerance="10"
     inkscape:pageopacity="0"
     inkscape:pageshadow="2"
     inkscape:window-width="1600"
     inkscape:window-height="836"
     id="namedview20"
     showgrid="false"
     inkscape:zoom="0.88721805"
     inkscape:cx="5.0169492"
     inkscape:cy="133"
     inkscape:window-x="0"
     inkscape:window-y="27"
     inkscape:window-maximized="1"
     inkscape:current-layer="svg18" /><defs
     id="defs4"><style
       type="text/css"
       id="style2">
   
    .fil0 {fill:black}
    .fil1 {fill:black;fill-rule:nonzero}
   
  </style></defs><rect
     style="opacity:1;fill:#b3b3b3;fill-opacity:0.91166077;fill-rule:nonzero;stroke:none;stroke-width:7.5;stroke-linecap:round;stroke-miterlimit:4;stroke-dasharray:none;stroke-dashoffset:0;stroke-opacity:1"
     id="rect843"
     width="177.51772"
     height="177.99364"
     x="-3.7588577"
     y="-3.9968185" /><g
     id="g16"
     transform="matrix(0.52818682,0,0,0.52818682,23.228307,20.533013)"><path
       class="fil0"
       d="m 248,106 c 6,0 10,-2 10,-5 0,-3 -4,-5 -10,-5 -6,0 -11,2 -11,5 0,3 5,5 11,5 z"
       id="path6"
       inkscape:connector-curvature="0"
       style="fill:#000000" /><path
       class="fil0"
       d="m 233,122 c 3,5 7,8 9,6 3,-1 3,-6 0,-11 -3,-5 -8,-8 -10,-7 -3,2 -2,7 1,12 z"
       id="path8"
       inkscape:connector-curvature="0"
       style="fill:#000000" /><path
       class="fil0"
       d="m 242,86 c 3,-5 3,-11 1,-12 -3,-1 -7,2 -10,7 -3,5 -3,10 -1,11 3,2 7,-1 10,-6 z"
       id="path10"
       inkscape:connector-curvature="0"
       style="fill:#000000" /><path
       class="fil0"
       d="m 133,91 c 30,15 52,47 52,83 0,51 -42,92 -93,92 C 41,266 0,225 0,174 0,138 21,106 52,91 V 73 c 0,-6 5,-10 11,-10 h 59 c 6,0 11,4 11,10 z M 87,255 C 24,255 -8,172 29,129 6,174 33,243 87,255 Z"
       id="path12"
       inkscape:connector-curvature="0"
       style="fill:#000000" /><path
       class="fil1"
       d="m 98,52 c 0,5 -12,14 -10,-9 4,-49 57,-51 76,-31 27,28 -3,84 58,84 7,0 7,10 0,10 C 153,106 179,44 156,20 141,3 95,4 98,52 Z"
       id="path14"
       inkscape:connector-curvature="0"
       style="fill:#000000;fill-rule:nonzero" /></g></svg>