<?xml version="1.0" encoding="UTF-8" standalone="no"?>
<svg
   xmlns:dc="http://purl.org/dc/elements/1.1/"
   xmlns:cc="http://creativecommons.org/ns#"
   xmlns:rdf="http://www.w3.org/1999/02/22-rdf-syntax-ns#"
   xmlns:svg="http://www.w3.org/2000/svg"
   xmlns="http://www.w3.org/2000/svg"
   xmlns:sodipodi="http://sodipodi.sourceforge.net/DTD/sodipodi-0.dtd"
   xmlns:inkscape="http://www.inkscape.org/namespaces/inkscape"
   viewBox="0 0 170 170"
   x="0px"
   y="0px"
   version="1.1"
   id="svg12"
   sodipodi:docname="gravelle.svg"
   width="170"
   height="170"
   inkscape:version="0.92.3 (2405546, 2018-03-11)">
  <metadata
     id="metadata18">
    <rdf:RDF>
      <cc:Work
         rdf:about="">
        <dc:format>image/svg+xml</dc:format>
        <dc:type
           rdf:resource="http://purl.org/dc/dcmitype/StillImage" />
        <dc:title>AQUARIUM_ICONS_100_2</dc:title>
      </cc:Work>
    </rdf:RDF>
  </metadata>
  <defs
     id="defs16" />
  <sodipodi:namedview
     pagecolor="#ffffff"
     bordercolor="#666666"
     borderopacity="1"
     objecttolerance="10"
     gridtolerance="10"
     guidetolerance="10"
     inkscape:pageopacity="0"
     inkscape:pageshadow="2"
     inkscape:window-width="1600"
     inkscape:window-height="836"
     id="namedview14"
     showgrid="false"
     inkscape:zoom="2.36"
     inkscape:cx="156.65159"
     inkscape:cy="50"
     inkscape:window-x="0"
     inkscape:window-y="27"
     inkscape:window-maximized="1"
     inkscape:current-layer="svg12" />
  <title
     id="title2">AQUARIUM_ICONS_100_2</title>
  <rect
     style="opacity:1;fill:#b3b3b3;fill-opacity:0.91166077;fill-rule:nonzero;stroke:none;stroke-width:7.5;stroke-linecap:round;stroke-miterlimit:4;stroke-dasharray:none;stroke-dashoffset:0;stroke-opacity:1"
     id="rect843"
     width="177.51772"
     height="177.99364"
     x="-3.7588577"
     y="-3.9968185" />
  <g
     id="g832"
     transform="matrix(1.4920967,0,0,1.4920967,10.393009,-76.206094)">
    <path
       inkscape:connector-curvature="0"
       id="path4"
       d="m 94,141.41 a 5.5,5.5 0 0 0 -2.55,-1.71 3.94,3.94 0 0 0 1.36,-0.86 2.86,2.86 0 0 0 0.78,-2.64 4.81,4.81 0 0 0 -2.32,-3.33 4.59,4.59 0 0 0 -3.91,-0.34 3.32,3.32 0 0 0 -0.82,0.43 3.49,3.49 0 0 0 -1,1.26 v 0 a 1,1 0 0 0 -0.1,-0.19 17.8,17.8 0 0 0 -4.75,-4.55 l -0.09,-0.05 a 5.85,5.85 0 0 0 -1.1,-0.39 c 2,-0.52 3.14,-1.32 3.62,-2.48 0.67,-1.6 -0.24,-3.33 -1.2,-4.81 a 3.68,3.68 0 0 0 -2.28,-1.81 c -1.27,-0.21 -2.33,0.6 -3.68,1.63 -0.38,0.29 -0.79,0.61 -1.25,0.93 l -0.18,0.15 a 6.93,6.93 0 0 0 0.18,-2.47 c -0.21,-2.52 -0.88,-4.14 -2.12,-5.09 a 4.57,4.57 0 0 0 -1.9,-0.82 8,8 0 0 0 2.19,-0.49 5.7,5.7 0 0 0 3.63,-4.27 6.66,6.66 0 0 0 -2.5,-6.19 5.4,5.4 0 0 0 -6.2,-0.78 5.11,5.11 0 0 0 -2.64,2.69 5,5 0 0 0 -0.31,1.36 4.19,4.19 0 0 0 -0.71,-0.59 32,32 0 0 0 -3.52,-1.53 h 0.14 c 2.12,-0.64 6.9,-3 7.27,-5.83 A 3.06,3.06 0 0 0 66.25,95.57 C 63.64,94 60,92.36 57.24,93.3 c -0.14,0 -0.26,0.13 -0.39,0.18 a 8.66,8.66 0 0 0 0,-4.55 c -0.37,-1.8 -1.12,-3 -2.23,-3.51 -1.56,-0.74 -3.34,0 -4.71,0.74 v 0 c -0.36,0.19 -3.53,1.93 -4.52,4.38 a 2.5,2.5 0 0 0 -0.05,2.14 3.41,3.41 0 0 0 2.25,1.5 c -1.91,0.2 -4.48,0.77 -6,2.38 a 4.76,4.76 0 0 0 -1.24,4 c 0.37,3.33 1.86,4.86 3.12,5.57 a 10.68,10.68 0 0 0 -3.12,2.36 c -0.24,0.25 -0.45,0.5 -0.67,0.74 0,0 0,-0.07 0,-0.1 0.07,-1.81 -1.26,-3.7 -4.08,-5.78 a 4.39,4.39 0 0 0 -5.17,-0.38 c -2.32,1.43 -3.78,4.95 -3.44,6.9 a 4.71,4.71 0 0 0 2.69,3.27 3.89,3.89 0 0 0 -1.78,0.54 2.73,2.73 0 0 0 -1.25,2.13 V 116 c -0.19,2 -0.38,4.06 0.92,5.54 a 4,4 0 0 0 1,0.81 h -0.1 c -2,0.06 -3.72,1.5 -5,4.26 -0.58,1.25 -0.9,3.68 3.52,5.85 a 14,14 0 0 0 1.37,0.6 3.6,3.6 0 0 0 -1.94,1.39 3.4,3.4 0 0 0 0,-0.55 4.82,4.82 0 0 0 -2.33,-3.33 4.58,4.58 0 0 0 -3.9,-0.34 3.31,3.31 0 0 0 -0.83,0.43 5.18,5.18 0 0 0 -1.69,3.16 l -0.08,0.3 a 4,4 0 0 0 -0.13,1.3 6.55,6.55 0 0 0 -4.28,0.57 4,4 0 0 0 -2.66,2.46 c -0.4,1.46 0.5,2.86 1.32,3.91 0.16,0.22 2.16,2.64 4.34,3.09 a 3.36,3.36 0 0 0 0.69,0.08 2,2 0 0 0 1.21,-0.38 c 0.88,-0.66 1,-1.85 1.12,-3.67 0,-0.55 0.09,-1.17 0.17,-1.85 a 6.25,6.25 0 0 0 -0.08,-2 l 0.2,0.06 a 11.4,11.4 0 0 0 2,0.18 5.86,5.86 0 0 0 4.13,-1.32 2.93,2.93 0 0 0 0.19,-0.24 8.32,8.32 0 0 0 0.69,3.69 l 0.13,0.48 a 4.61,4.61 0 0 0 -3.72,-0.72 c -1.55,0.42 -2.75,2.06 -3.36,3.45 v 0 c -1,2.37 -0.71,4.5 0.83,5.58 a 3.55,3.55 0 0 0 2.06,0.56 11.79,11.79 0 0 0 3.22,-0.61 l 0.21,-0.06 c 2.32,-0.68 3.67,-1.71 4,-3.08 a 2.75,2.75 0 0 0 0.07,-0.72 6.69,6.69 0 0 0 1.87,0.34 h 0.31 a 5.47,5.47 0 0 0 2.15,-0.43 4.92,4.92 0 0 0 0,1.13 8.7,8.7 0 0 0 0.14,1.31 3,3 0 0 0 1.73,2.18 6.33,6.33 0 0 0 2.86,0.66 6.73,6.73 0 0 0 0.67,0 3.74,3.74 0 0 0 2,-0.85 5.34,5.34 0 0 0 0.33,0.78 1,1 0 0 0 0.1,0.15 c 2.34,3 4.73,4.6 7.12,4.71 h 0.27 a 5.41,5.41 0 0 0 3.75,-1.5 l 0.1,-0.12 c 0.36,-0.54 3,-4.58 2.81,-7.84 a 2.22,2.22 0 0 0 0.82,0.16 14,14 0 0 1 2.38,0.3 14.27,14.27 0 0 0 2.49,0.3 3.71,3.71 0 0 0 2.73,-1 l 0.38,-0.39 a 4.13,4.13 0 0 0 0,0.71 5.68,5.68 0 0 0 3.54,4 9,9 0 0 0 3.67,0.78 8.82,8.82 0 0 0 4.69,-1.26 c 2,-1.26 3.07,-2.72 3.14,-4.36 a 6.26,6.26 0 0 0 -2.05,-4.38 v 0 a 9.81,9.81 0 0 0 2.35,-0.32 8.37,8.37 0 0 0 4.32,-2.24 2.57,2.57 0 0 0 0.39,1.24 2.31,2.31 0 0 0 0.78,0.72 3.37,3.37 0 0 0 -2.13,2 5,5 0 0 0 0.79,4.08 v 0 a 6.1,6.1 0 0 0 5,2.43 6.85,6.85 0 0 0 0.79,0 4.79,4.79 0 0 0 4.14,-3 3.69,3.69 0 0 0 -0.37,-3.76 z m -76.6,-2 c -0.08,0.71 -0.13,1.35 -0.17,1.92 a 11.9,11.9 0 0 1 -0.27,2.2 0.91,0.91 0 0 1 -0.34,0 7.32,7.32 0 0 1 -3.2,-2.41 c -0.29,-0.36 -1.15,-1.47 -1,-2.15 0.11,-0.39 0.63,-0.79 1.46,-1.12 2.2,-0.87 2.93,-0.58 3.14,-0.42 0.21,0.16 0.47,0.95 0.36,1.98 z m 6.8,-4.33 c -0.67,0.67 -2.5,0.92 -4.35,0.59 a 0.49,0.49 0 0 1 -0.34,-0.16 1.32,1.32 0 0 1 0,-0.92 l 0.08,-0.32 a 3.59,3.59 0 0 1 0.92,-2 v 0 a 1.28,1.28 0 0 1 0.33,-0.17 2.74,2.74 0 0 1 0.92,-0.16 2.59,2.59 0 0 1 1.3,0.35 2.82,2.82 0 0 1 1.36,2 0.88,0.88 0 0 1 -0.24,0.79 z m 49.88,-3 a 9.35,9.35 0 0 0 -0.48,4.87 4.84,4.84 0 0 0 -3.56,0 c 1.31,-1.11 2.29,-3.27 2.66,-6.11 a 4.59,4.59 0 0 0 -1.27,-4.28 4.33,4.33 0 0 0 -1.69,-0.92 6.81,6.81 0 0 0 2.91,-0.64 5.19,5.19 0 0 0 -0.36,1.19 1.05,1.05 0 0 0 0,0.16 3.16,3.16 0 0 0 1.21,2.26 4.45,4.45 0 0 0 2.55,0.86 4.67,4.67 0 0 0 -1.99,2.6 z m -19.2,10.57 c -1.08,-1 -2.8,-1.36 -5.14,-1.16 a 18.92,18.92 0 0 0 -2.91,0.46 5,5 0 0 0 1,-1.28 3.53,3.53 0 0 0 0.4,-2.14 9.75,9.75 0 0 0 5.1,1.47 8.56,8.56 0 0 0 1.5,-0.13 c 0.29,-0.05 0.57,-0.11 0.84,-0.18 a 11.53,11.53 0 0 0 -0.79,2.96 z m -13.3,1.59 a 6.19,6.19 0 0 0 -3.64,-1.54 5.34,5.34 0 0 0 -1.21,0 6.61,6.61 0 0 0 0.87,-3.08 10.72,10.72 0 0 0 0.52,1.26 c 1,2 2.49,3.07 4.25,3.07 a 4.55,4.55 0 0 0 0.58,0 5,5 0 0 0 -0.84,1 3.82,3.82 0 0 0 -0.53,-0.71 z M 35,129.46 a 16.57,16.57 0 0 0 1.35,2.87 l 0.11,0.14 a 8.63,8.63 0 0 0 2.84,2 3.44,3.44 0 0 0 -1.52,1.18 3.11,3.11 0 0 0 -0.48,1.09 c -0.52,-2.37 -1.75,-3.68 -5.07,-4 a 5,5 0 0 0 1,-0.83 13.38,13.38 0 0 0 1.77,-2.45 z M 54.2,96.38 c -0.06,0.16 -0.1,0.31 -0.15,0.46 a 5.78,5.78 0 0 0 -0.84,-1.28 c 0.14,0 0.28,0 0.41,0 a 4.22,4.22 0 0 0 1,-0.13 6.44,6.44 0 0 0 -0.4,0.95 z m -6,10.18 a 10.92,10.92 0 0 0 1.59,-0.5 6,6 0 0 0 -0.33,1.88 6.69,6.69 0 0 0 -1.26,-1.38 z m 9.8,29.37 c -0.52,1 -1.69,1.63 -3.47,1.95 -2.84,0.5 -6.6,-1 -7.39,-3.8 -0.64,-2.23 0.29,-3.12 0.49,-3.28 1.45,-0.71 5.5,-2.24 8,-1.34 a 3.12,3.12 0 0 1 1.88,1.77 c 0.86,2.04 1.02,3.62 0.49,4.7 z m -13.1,-2.69 a 7.76,7.76 0 0 0 0.27,1.4 c 0,0.12 0.08,0.23 0.12,0.35 a 10.63,10.63 0 0 0 -2.05,-0.72 c 0.54,-0.27 1.11,-0.65 1.66,-1.03 z M 41.73,136 h 0.41 c 1.33,0.26 3.57,0.92 4.06,2.45 a 1.51,1.51 0 0 1 -0.12,1.22 5.13,5.13 0 0 1 -2.89,2 c -1.37,0.41 -2.47,-0.21 -3.28,-1.83 -0.71,-1.45 -0.89,-2.57 -0.49,-3.14 a 3,3 0 0 1 2.31,-0.7 z m 12.13,-10.21 a 5.11,5.11 0 0 1 -3.56,-2.37 2.35,2.35 0 0 1 -0.19,-2.13 7.38,7.38 0 0 1 4.55,-2.15 7.6,7.6 0 0 1 5.45,2.32 c 1.24,1.13 1.83,2.12 1.6,2.64 -0.61,1.38 -5.45,1.9 -7.85,1.69 z m -2.18,-8 A 5.86,5.86 0 0 0 52.15,116 c 0,0 0,0 0,0 a 5.57,5.57 0 0 0 1.65,1.24 8.41,8.41 0 0 0 -2.12,0.59 z m -3.12,6.61 a 7.22,7.22 0 0 0 3.44,2.94 18.84,18.84 0 0 0 -3.73,1 7.86,7.86 0 0 0 0.07,-1.42 6.29,6.29 0 0 0 -2,-4.9 c -0.11,-0.09 -0.23,-0.16 -0.35,-0.23 a 9.12,9.12 0 0 0 2,-0.55 4.43,4.43 0 0 0 0.57,3.16 z m -3.46,-0.81 c 0.79,0.63 1.19,1.71 1.25,3.41 0.11,2.86 -1.51,4 -4.18,5.58 -1.7,1 -3.77,-1 -4.14,-1.38 -0.73,-1.23 -2.28,-4.56 -1.42,-6.5 a 3.05,3.05 0 0 1 2.47,-1.6 c 2.92,-0.54 4.92,-0.38 6.02,0.49 z m 14.2,6.84 a 5.08,5.08 0 0 0 -2.68,-2.68 c 2.56,-0.16 6,-0.78 6.91,-2.84 a 2.62,2.62 0 0 0 0.19,-0.69 4.29,4.29 0 0 0 2.22,1.27 c -0.33,0.06 -0.68,0.13 -1,0.21 a 4.5,4.5 0 0 0 -3.18,2.3 c -1.23,2.43 0,5.7 0.19,6.26 a 4.42,4.42 0 0 0 0.74,1.57 5.84,5.84 0 0 0 -2.68,0.32 c 0.53,-1.52 0.3,-3.45 -0.71,-5.72 z m 4.57,3.32 a 1,1 0 0 0 0,-0.15 c -0.33,-0.8 -1,-3.19 -0.28,-4.66 a 2.56,2.56 0 0 1 1.83,-1.29 10.67,10.67 0 0 1 2.44,-0.33 3.37,3.37 0 0 1 2.28,0.66 2.76,2.76 0 0 1 0.62,2.53 c -0.42,3.21 -1.64,5 -2.62,5.2 -0.42,0.06 -3.67,0.51 -4.27,-1.96 z m 11.92,-9.64 v 0 c 0.48,-0.34 0.91,-0.67 1.31,-1 0.88,-0.68 1.71,-1.33 2.13,-1.25 0.14,0 0.45,0.18 0.94,0.93 0.49,0.75 1.34,2.19 1,2.94 -0.34,0.75 -1.34,1.14 -3.05,1.49 -1.56,0.31 -2.75,0.23 -3.38,-0.24 a 1.24,1.24 0 0 1 -0.47,-0.71 3.79,3.79 0 0 1 1.52,-2.16 z m -3.14,-3.78 a 3.39,3.39 0 0 1 -0.49,2.51 c -0.59,0.67 -1.8,0.71 -2.86,0.75 h -0.73 c -2,0.1 -3.31,0.06 -4.1,-2 a 6.2,6.2 0 0 1 0.53,-4.01 3,3 0 0 1 2.07,-1.26 c 2.09,-0.38 3.43,-0.27 4.23,0.34 0.8,0.61 1.18,1.75 1.34,3.67 z M 67,105.95 a 3.15,3.15 0 0 1 1.67,-1.63 3.84,3.84 0 0 1 1.71,-0.42 3.43,3.43 0 0 1 2.29,0.91 4.66,4.66 0 0 1 1.86,4.32 3.69,3.69 0 0 1 -2.35,2.76 4.29,4.29 0 0 1 -3.24,0.13 2.78,2.78 0 0 1 -1.4,-1.62 C 66.72,108.33 66.56,107 67,105.95 Z m -1.31,5.24 a 4.44,4.44 0 0 0 3.27,2.93 14.06,14.06 0 0 0 -2.2,0.24 4.93,4.93 0 0 0 -3.38,2.13 7.29,7.29 0 0 0 -1,4.43 11.68,11.68 0 0 0 -0.91,-0.93 11.25,11.25 0 0 0 -3.84,-2.38 9.6,9.6 0 0 0 3.06,-1.26 v 0 c 2.61,-1.76 4.31,-3.48 4.95,-5.16 z M 64,109.44 c 0,1.46 -1.56,3.32 -4.44,5.23 -0.11,0.07 -2.66,1.74 -4.78,0.82 -1.59,-0.69 -2.67,-2.67 -3.21,-5.89 -0.33,-1.94 -0.06,-3.24 0.79,-3.86 a 3.69,3.69 0 0 1 2.18,-0.55 c 2.6,0 6.3,1.38 8.53,2.52 a 2.24,2.24 0 0 1 0.93,1.73 z m -10.26,-6.19 a 5.79,5.79 0 0 0 0.72,-1.47 5.56,5.56 0 0 0 0.72,1 5.72,5.72 0 0 0 0.51,0.48 9.85,9.85 0 0 0 -1.95,-0.01 z m 4.14,-8.05 a 3.65,3.65 0 0 1 1.18,-0.2 12.78,12.78 0 0 1 6.08,2.23 c 0.91,0.55 0.86,1 0.84,1.1 -0.17,1.33 -3.42,3.44 -5.86,4.17 a 3.56,3.56 0 0 1 -3.46,-1.1 4,4 0 0 1 -0.57,-4.32 3,3 0 0 1 1.79,-1.89 z M 47.26,91.28 c 0.61,-1.5 2.81,-2.93 3.61,-3.36 1.39,-0.74 2.34,-1 2.91,-0.69 0.57,0.31 1,1.31 1.12,2.1 0.56,2.76 0.1,3.68 -0.23,4 -0.54,0.5 -1.74,0.29 -2.64,0 -0.9,-0.29 -1.56,-0.43 -2.21,-0.61 a 8.16,8.16 0 0 1 -2.68,-0.94 1,1 0 0 1 0.12,-0.5 z m -4.2,6.64 c 1.44,-1.53 4.73,-1.85 6.37,-1.85 H 50 c 1.19,-0.09 2.16,1.14 2.52,2.33 a 4.22,4.22 0 0 1 -1.94,5 c -2.36,1.36 -4.56,1.72 -6,1 -1.44,-0.72 -2.07,-2.67 -2.24,-4.12 a 2.81,2.81 0 0 1 0.71,-2.36 z m -1.25,11.91 c 1.74,-1.83 3.19,-2.53 4.38,-2.15 2.44,0.81 3.68,6.31 4,8.32 a 4.14,4.14 0 0 1 -1.54,2.68 c -1.6,1.27 -4.33,1.58 -7.9,0.91 a 4.24,4.24 0 0 1 -2.36,-2.71 C 38,115 39.15,112.59 41.81,109.83 Z M 29,109.49 a 6.27,6.27 0 0 1 2.52,-4.86 2.3,2.3 0 0 1 1.22,-0.37 2.88,2.88 0 0 1 1.71,0.65 c 2.75,2 3.3,3.35 3.27,4.1 -0.03,0.75 -0.62,1.41 -1.72,2.11 a 5.56,5.56 0 0 1 -5.14,0.32 3,3 0 0 1 -1.86,-1.95 z m 8.23,3.21 a 7.26,7.26 0 0 0 -0.89,4 5.11,5.11 0 0 0 -2.34,-2.85 7.35,7.35 0 0 0 3,-1 z m -8.56,3.45 v -0.19 a 0.74,0.74 0 0 1 0.33,-0.64 2.34,2.34 0 0 1 1.22,-0.25 9.43,9.43 0 0 1 2.8,0.51 h 0.07 a 3.37,3.37 0 0 1 1.51,2.5 5.07,5.07 0 0 0 0.12,0.91 c 0.11,0.6 0.24,1.27 0,1.61 -0.15,0.18 -0.7,0.57 -2.53,0.51 a 4.27,4.27 0 0 1 -3.07,-1 c -0.77,-0.76 -0.62,-2.32 -0.47,-3.96 z m 3.43,7 h 0.44 c 1.77,0 3,-0.4 3.68,-1.22 a 3.7,3.7 0 0 0 0.49,-3.28 4.3,4.3 0 0 1 -0.08,-0.54 c 0,0 0,-0.09 0,-0.13 a 6.14,6.14 0 0 0 2.63,3.07 l -0.51,0.08 a 4.66,4.66 0 0 0 -4.3,4.13 11.21,11.21 0 0 0 -3.15,-2.18 z m -6.81,4.25 c 0.94,-2 2,-3.07 3.26,-3.1 v 0 c 1.43,0 5,2.23 5.07,3.4 a 1.51,1.51 0 0 1 -0.18,0.46 11.35,11.35 0 0 1 -1.7,2.42 2,2 0 0 1 -2,0.76 7.91,7.91 0 0 1 -1.87,-0.72 c -1.51,-0.75 -3.19,-1.91 -2.58,-3.22 z m 2.65,17.77 c -0.15,0.6 -1.11,1.19 -2.62,1.63 l -0.22,0.06 c -0.92,0.27 -2.83,0.83 -3.57,0.32 -0.74,-0.51 -0.61,-2.06 -0.14,-3.14 a 4.12,4.12 0 0 1 2.05,-2.33 c 1.11,-0.3 2.38,0.38 4,2.11 a 1.71,1.71 0 0 1 0.49,1.35 z m 4,-1.91 c -2.22,-0.11 -2.8,-1 -3.5,-3.8 a 1,1 0 0 0 -0.06,-0.18 c -0.29,-0.63 -1,-2.66 -0.32,-3.73 a 2.48,2.48 0 0 1 2.19,-0.85 h 0.5 c 4.47,0 4.59,1.28 4.86,4 a 4.54,4.54 0 0 1 -1.05,3.6 3.25,3.25 0 0 1 -2.64,0.96 z m 8.67,4.23 a 1.56,1.56 0 0 1 -1.15,0.6 4.47,4.47 0 0 1 -2.46,-0.42 1.06,1.06 0 0 1 -0.69,-0.82 v 0 a 7.52,7.52 0 0 1 -0.1,-1 c 0,-0.53 0,-0.83 0.17,-1 0.17,-0.17 0.27,-0.2 0.74,-0.2 a 4.25,4.25 0 0 1 0.54,0 4.32,4.32 0 0 1 2.51,1 1.59,1.59 0 0 1 0.42,1.84 z m 11.13,4.57 a 3.48,3.48 0 0 1 -2.46,0.82 c -1.72,-0.1 -3.63,-1.43 -5.53,-3.85 a 3.54,3.54 0 0 1 0,-3 c 0.77,-1.4 2.91,-2.29 6.18,-2.57 1.46,-0.12 3.33,0 4,1 0.92,1.73 -0.84,5.54 -2.21,7.59 z m 11.44,-8.28 c -0.66,0.65 -2,0.41 -3.46,0.14 a 14.34,14.34 0 0 0 -2.57,-0.3 h -0.21 c -0.26,-0.4 0.16,-2.21 0.87,-3.81 0.69,-0.59 3.79,-3.07 5.91,-1.4 a 2.77,2.77 0 0 1 1.24,2 c 0.04,1.4 -1.24,2.82 -1.8,3.36 z m 2.64,-6.11 a 7.23,7.23 0 0 0 1.34,0.13 8,8 0 0 0 1.26,-0.1 3,3 0 0 0 0.32,-0.1 8.35,8.35 0 0 0 -1.91,2 4.43,4.43 0 0 0 -1.03,-1.94 z m 10,9.65 a 7,7 0 0 1 -6.45,0.4 3.8,3.8 0 0 1 -2.37,-2.54 c -0.25,-1.46 1.1,-4.85 3.17,-6.13 a 3.13,3.13 0 0 1 3.8,0.35 c 2.71,2 4.12,3.79 4.06,5.16 -0.03,0.94 -0.82,1.86 -2.24,2.75 z m 7.66,-11.37 c -0.32,0.61 -1.2,1.47 -3.63,2.07 -1.26,0.32 -2.93,0.5 -3.76,-0.4 -0.83,-0.9 -0.83,-2.73 -0.1,-4.9 a 2.6,2.6 0 0 1 1.31,-1.72 2.16,2.16 0 0 1 0.83,-0.15 3.79,3.79 0 0 1 1.45,0.33 16.27,16.27 0 0 1 4,3.83 1.49,1.49 0 0 1 -0.13,0.92 z m 3.24,1 0.08,-0.32 a 3.59,3.59 0 0 1 0.92,-2 v 0 a 1.31,1.31 0 0 1 0.33,-0.17 2.72,2.72 0 0 1 0.92,-0.17 2.59,2.59 0 0 1 1.3,0.35 2.81,2.81 0 0 1 1.35,2 0.89,0.89 0 0 1 -0.23,0.87 c -0.67,0.67 -2.5,0.92 -4.35,0.59 a 0.49,0.49 0 0 1 -0.34,-0.16 1.32,1.32 0 0 1 -0.01,-1.01 z m 5.85,7.52 a 3,3 0 0 1 -2.57,1.67 4.32,4.32 0 0 1 -3.94,-1.52 v 0 c -0.25,-0.38 -0.88,-1.62 -0.52,-2.39 0.36,-0.77 1.44,-0.93 2.32,-1 1.52,-0.16 3.67,0.34 4.49,1.41 a 1.71,1.71 0 0 1 0.19,1.81 z" />
    <path
       inkscape:connector-curvature="0"
       id="path6"
       d="m 12.15,143.6 a 5.17,5.17 0 0 0 -4.67,0 5.12,5.12 0 0 0 -2.19,3.5 1,1 0 0 0 0.78,1.1 l 4.31,0.93 h 0.21 a 1,1 0 0 0 0.26,0 c 1.12,-0.31 3.74,-1.2 3.83,-2.92 0.1,-1.56 -1.88,-2.35 -2.53,-2.61 z m -1.6,3.53 -3,-0.65 a 2.47,2.47 0 0 1 1,-1.16 3.32,3.32 0 0 1 2.91,0.14 4,4 0 0 1 1.22,0.67 6.16,6.16 0 0 1 -2.13,1 z" />
    <path
       inkscape:connector-curvature="0"
       id="path8"
       d="m 84.44,147.75 a 5.17,5.17 0 0 0 -4.67,0 5.12,5.12 0 0 0 -2.19,3.51 1,1 0 0 0 0.78,1.1 l 4.31,0.93 h 0.21 a 1,1 0 0 0 0.26,0 c 1.12,-0.31 3.74,-1.2 3.83,-2.92 0.09,-1.57 -1.88,-2.37 -2.53,-2.62 z m -1.6,3.53 -3,-0.65 a 2.46,2.46 0 0 1 1,-1.17 3.34,3.34 0 0 1 2.91,0.14 4,4 0 0 1 1.22,0.67 6.16,6.16 0 0 1 -2.13,1.01 z" />
    <path
       inkscape:connector-curvature="0"
       id="path10"
       d="m 62.15,146.61 a 6.2,6.2 0 0 0 -3.86,0.84 3.44,3.44 0 0 0 -2,2.36 3.24,3.24 0 0 0 0.86,2.44 8.59,8.59 0 0 0 0.86,1 v 0 a 2.94,2.94 0 0 0 2.09,0.83 4.19,4.19 0 0 0 0.57,0 6.46,6.46 0 0 0 3.25,-1.53 3.29,3.29 0 0 0 -1.77,-5.89 z m 0.46,4.39 a 4.48,4.48 0 0 1 -2.21,1 1.07,1.07 0 0 1 -1,-0.27 7.57,7.57 0 0 1 -0.67,-0.79 c -0.33,-0.42 -0.46,-0.69 -0.43,-0.9 0.03,-0.21 0.17,-0.45 1,-0.86 a 4.33,4.33 0 0 1 2.62,-0.64 c 0.64,0.1 1.35,0.63 1.38,1.25 A 1.56,1.56 0 0 1 62.61,151 Z" />
  </g>
</svg>
