<?xml version="1.0" encoding="UTF-8" standalone="no"?>
<svg
   xmlns:dc="http://purl.org/dc/elements/1.1/"
   xmlns:cc="http://creativecommons.org/ns#"
   xmlns:rdf="http://www.w3.org/1999/02/22-rdf-syntax-ns#"
   xmlns:svg="http://www.w3.org/2000/svg"
   xmlns="http://www.w3.org/2000/svg"
   xmlns:sodipodi="http://sodipodi.sourceforge.net/DTD/sodipodi-0.dtd"
   xmlns:inkscape="http://www.inkscape.org/namespaces/inkscape"
   version="1.2"
   x="0px"
   y="0px"
   viewBox="0 0 170 170"
   xml:space="preserve"
   id="svg4"
   sodipodi:docname="mammite.svg"
   width="170"
   height="170"
   inkscape:version="0.92.3 (2405546, 2018-03-11)"><metadata
     id="metadata10"><rdf:RDF><cc:Work
         rdf:about=""><dc:format>image/svg+xml</dc:format><dc:type
           rdf:resource="http://purl.org/dc/dcmitype/StillImage" /><dc:title></dc:title></cc:Work></rdf:RDF></metadata><defs
     id="defs8" /><sodipodi:namedview
     pagecolor="#ffffff"
     bordercolor="#666666"
     borderopacity="1"
     objecttolerance="10"
     gridtolerance="10"
     guidetolerance="10"
     inkscape:pageopacity="0"
     inkscape:pageshadow="2"
     inkscape:window-width="1600"
     inkscape:window-height="836"
     id="namedview6"
     showgrid="false"
     inkscape:zoom="2.36"
     inkscape:cx="3.3898305"
     inkscape:cy="50"
     inkscape:window-x="0"
     inkscape:window-y="27"
     inkscape:window-maximized="1"
     inkscape:current-layer="svg4" /><rect
     style="opacity:1;fill:#b3b3b3;fill-opacity:0.91166077;fill-rule:nonzero;stroke:none;stroke-width:7.5;stroke-linecap:round;stroke-miterlimit:4;stroke-dasharray:none;stroke-dashoffset:0;stroke-opacity:1"
     id="rect843"
     width="177.51772"
     height="177.99364"
     x="-3.7588577"
     y="-3.9968185" /><path
     d="m 115.70973,111.14017 c 12.99808,-10.99837 21.13973,-28.567196 21.13973,-47.421544 0,-7.570307 -1.28553,-14.854942 -3.71374,-21.853904 -0.28567,-0.71418 -0.85701,-1.142688 -1.71403,-1.142688 H 38.578309 c -0.71418,0 -1.42836,0.428508 -1.714032,1.142688 -2.428211,6.998962 -3.713735,14.283597 -3.713735,21.853904 0,18.711512 7.855978,36.423174 21.139724,47.564374 l -7.427471,20.42555 c -1.42836,3.85657 0.571344,8.14165 4.427915,9.57001 1.856868,0.71418 3.856572,0.57134 5.713439,-0.28567 1.856868,-0.85702 3.142392,-2.28538 3.856572,-4.28508 l 0.857015,-2.14254 v 3.14239 c 0,4.14224 3.428064,7.42747 7.427471,7.42747 3.999407,0 7.427471,-3.42806 7.427471,-7.42747 V 121.9957 c 2.713883,0.42851 5.427767,0.71418 8.284486,0.71418 2.713884,0 5.570603,-0.28567 8.284486,-0.71418 v 15.8548 c 0,4.14224 3.428064,7.42747 7.42747,7.42747 3.99941,0 7.42747,-3.42807 7.42747,-7.42747 v -3.1424 l 0.85702,2.14254 c 0.71418,1.85687 1.9997,3.42807 3.85657,4.28508 0.99985,0.42851 2.14254,0.71418 3.14239,0.71418 0.85702,0 1.71403,-0.14283 2.57105,-0.42851 3.85657,-1.42835 5.85627,-5.71343 4.42791,-9.57001 z"
     id="path2"
     style="fill:#ff0000;stroke-width:1.42835975"
     inkscape:connector-curvature="0" /></svg>