<?xml version="1.0" encoding="UTF-8" standalone="no"?>
<svg
   xmlns:dc="http://purl.org/dc/elements/1.1/"
   xmlns:cc="http://creativecommons.org/ns#"
   xmlns:rdf="http://www.w3.org/1999/02/22-rdf-syntax-ns#"
   xmlns:svg="http://www.w3.org/2000/svg"
   xmlns="http://www.w3.org/2000/svg"
   xmlns:sodipodi="http://sodipodi.sourceforge.net/DTD/sodipodi-0.dtd"
   xmlns:inkscape="http://www.inkscape.org/namespaces/inkscape"
   version="1.1"
   x="0px"
   y="0px"
   viewBox="0 0 170 170"
   xml:space="preserve"
   id="svg4"
   sodipodi:docname="myopathie.svg"
   width="170"
   height="170"
   inkscape:version="0.92.3 (2405546, 2018-03-11)"><metadata
     id="metadata10"><rdf:RDF><cc:Work
         rdf:about=""><dc:format>image/svg+xml</dc:format><dc:type
           rdf:resource="http://purl.org/dc/dcmitype/StillImage" /><dc:title></dc:title></cc:Work></rdf:RDF></metadata><defs
     id="defs8" /><sodipodi:namedview
     pagecolor="#ffffff"
     bordercolor="#666666"
     borderopacity="1"
     objecttolerance="10"
     gridtolerance="10"
     guidetolerance="10"
     inkscape:pageopacity="0"
     inkscape:pageshadow="2"
     inkscape:window-width="1600"
     inkscape:window-height="836"
     id="namedview6"
     showgrid="false"
     inkscape:zoom="2.36"
     inkscape:cx="3.3898305"
     inkscape:cy="50"
     inkscape:window-x="0"
     inkscape:window-y="27"
     inkscape:window-maximized="1"
     inkscape:current-layer="svg4" /><rect
     style="opacity:1;fill:#b3b3b3;fill-opacity:0.91166077;fill-rule:nonzero;stroke:none;stroke-width:7.5;stroke-linecap:round;stroke-miterlimit:4;stroke-dasharray:none;stroke-dashoffset:0;stroke-opacity:1"
     id="rect843"
     width="177.51772"
     height="177.99364"
     x="-3.7588577"
     y="-3.9968185" /><path
     style="fill:#ff0000;stroke-width:1.70242548"
     d="m 17.733765,82.185886 c 0,-0.778 0.629897,-1.4079 1.407906,-1.4079 h 4.691885 c 11.113433,-1.035079 19.429782,-7.277871 28.233025,-13.884985 9.52507,-7.150187 19.375304,-14.542118 32.933421,-14.542118 13.558117,0 23.408358,7.391931 32.933418,14.542118 8.80324,6.607114 17.11959,12.848206 28.23302,13.884985 h 4.69189 c 0.77801,0 1.4079,0.629901 1.4079,1.4079 0,0.77801 -0.62989,1.40791 -1.4079,1.40791 h -4.75657 c -0.0426,0 -0.0851,-0.002 -0.12768,-0.007 -11.94081,-1.08955 -20.9841,-7.877123 -29.72946,-14.441676 -9.57785,-7.189343 -18.62624,-13.978616 -31.244618,-13.978616 -12.618378,0 -21.666769,6.789273 -31.244615,13.978616 -8.74536,6.564553 -17.790347,13.352126 -29.729457,14.441676 -0.04256,0.003 -0.08512,0.007 -0.127682,0.007 h -4.756577 c -0.778009,-0.002 -1.407906,-0.6316 -1.407906,-1.40791 z m 29.785637,-0.55669 c -0.286008,0.16514 -0.50562,0.31835 -0.653731,0.41029 -0.148111,0.0953 -0.224721,0.1447 -0.224721,0.1447 l -0.26728,0.17365 c -0.136194,0.0902 -0.228125,0.24174 -0.233233,0.41709 -0.0085,0.28601 0.214506,0.52605 0.502216,0.53627 0,0 1.220639,0.0392 3.357183,0.10895 2.136544,0.046 5.188993,0.15663 8.85091,0.2077 3.661918,0.046 7.935006,0.15322 12.51453,0.17194 4.577823,0.0238 9.462081,0.0494 14.344638,0.0732 4.884259,-0.0255 9.766815,-0.0511 14.344636,-0.0749 4.57782,-0.0221 8.85091,-0.12598 12.51453,-0.17194 3.66191,-0.0511 6.71436,-0.16173 8.85091,-0.206 2.13654,-0.0698 3.35718,-0.10895 3.35718,-0.10895 0.16343,-0.007 0.32516,-0.0902 0.4205,-0.23834 0.15492,-0.241749 0.0851,-0.5618 -0.15662,-0.718429 l -0.26388,-0.170241 c 0,0 -0.0766,-0.0494 -0.22472,-0.1447 -0.14811,-0.0919 -0.36772,-0.24345 -0.65373,-0.40859 -0.28601,-0.17194 -0.63841,-0.38134 -1.0538,-0.60606 -0.4154,-0.23664 -0.89207,-0.48519 -1.42664,-0.75417 -1.06912,-0.54819 -2.36466,-1.14574 -3.85258,-1.76542 -1.48792,-0.619683 -3.16652,-1.239366 -4.99833,-1.842024 -1.83181,-0.578825 -3.81513,-1.172972 -5.91422,-1.66327 -2.09909,-0.500513 -4.31054,-0.938037 -6.6003,-1.293844 -4.577823,-0.725233 -9.462082,-1.072528 -14.344639,-1.091254 -2.441278,0.0051 -4.884259,0.08853 -7.286381,0.263876 -2.403825,0.170242 -4.768494,0.452845 -7.058256,0.803544 -2.289762,0.354105 -4.501213,0.789926 -6.600304,1.288737 -2.099091,0.488596 -4.082416,1.087849 -5.914226,1.664972 -0.915905,0.320056 -1.792654,0.595849 -2.628545,0.915905 -0.834189,0.33027 -1.625817,0.607766 -2.369777,0.932928 -1.487919,0.62479 -2.785168,1.22404 -3.852588,1.77563 -1.067421,0.539671 -1.906717,1.023161 -2.478732,1.36875 z m 2.613223,-5.806973 c -0.05448,0.03575 -0.07831,0.107253 -0.05277,0.170243 0.02894,0.0715 0.110658,0.10555 0.182159,0.07491 l 0.02213,-0.0085 c 0,0 0.279198,-0.115764 0.801842,-0.333675 0.522645,-0.212802 1.290439,-0.522645 2.267631,-0.919309 0.97549,-0.391559 2.16889,-0.840998 3.524021,-1.363643 0.679268,-0.257066 1.406204,-0.522644 2.173997,-0.788223 0.766092,-0.27409 1.56453,-0.570312 2.405528,-0.854618 0.839296,-0.28771 1.717747,-0.573718 2.63195,-0.852914 0.907392,-0.291116 1.843726,-0.592444 2.812407,-0.873345 0.966977,-0.284306 1.966301,-0.554991 2.989459,-0.808652 1.023158,-0.253661 2.058232,-0.529454 3.122248,-0.764389 2.122925,-0.483489 4.334376,-0.837593 6.567958,-1.125303 2.255714,-0.260471 4.45695,-0.422202 6.755224,-0.377939 2.2455,0.02724 4.509726,0.255364 6.736498,0.595849 2.22507,0.3507 4.426306,0.781414 6.533909,1.338107 2.100794,0.56861 4.150514,1.127005 6.067444,1.763713 1.91182,0.646921 3.73171,1.263199 5.39668,1.889691 1.65646,0.640113 3.18864,1.222341 4.53526,1.773927 1.33981,0.563503 2.5247,1.038481 3.48657,1.458979 0.96698,0.4205 1.72456,0.752472 2.2421,0.977193 0.51753,0.229827 0.79333,0.354105 0.79333,0.354105 l 0.0204,0.0085 c 0.0596,0.02724 0.13279,0.0085 0.17195,-0.04937 0.0443,-0.06299 0.0272,-0.151516 -0.0357,-0.194077 0,0 -0.99422,-0.682673 -2.80049,-1.763713 -1.80798,-1.075933 -4.4229,-2.56896 -7.68475,-4.116465 -3.26014,-1.545802 -7.15869,-3.173321 -11.48456,-4.477379 -4.320751,-1.29895 -9.090947,-2.27444 -13.932645,-2.368074 -4.838294,-0.07491 -9.647646,0.728638 -14.005855,1.889693 -4.368424,1.162756 -8.314646,2.671105 -11.617352,4.124977 -3.30611,1.452169 -5.955084,2.883908 -7.788597,3.917281 -1.828405,1.040182 -2.837943,1.702425 -2.837943,1.702425 z m 6.985052,-6.608816 c 0.367724,-0.258768 0.936334,-0.604361 1.639436,-1.053801 0.708209,-0.444333 1.590065,-0.944846 2.596199,-1.506647 1.012943,-0.55499 2.179104,-1.125303 3.450816,-1.722854 1.278522,-0.589039 2.693237,-1.145733 4.187967,-1.700723 1.499837,-0.549884 3.118844,-1.001025 4.787221,-1.441954 1.673484,-0.432416 3.430387,-0.733745 5.216231,-0.978894 0.447738,-0.05448 0.897179,-0.108956 1.348321,-0.163433 0.452846,-0.03916 0.905691,-0.07831 1.360238,-0.117468 0.898881,-0.05448 1.758606,-0.09874 2.75112,-0.09534 1.792654,-0.02383 3.60063,0.06469 5.36945,0.328568 1.765415,0.27409 3.512104,0.595849 5.180481,1.046991 0.415392,0.117468 0.829081,0.234935 1.237663,0.3507 0.40688,0.12598 0.805248,0.260471 1.208723,0.374534 0.80014,0.248554 1.578148,0.509025 2.332323,0.781413 0.752474,0.275793 1.479404,0.563503 2.182504,0.851213 0.70651,0.277495 1.38578,0.560098 2.0344,0.844403 1.29044,0.578824 2.47192,1.132113 3.5138,1.64284 1.03338,0.524348 1.94247,0.985705 2.67962,1.384072 0.73886,0.405178 1.31938,0.721829 1.71605,0.939739 0.38985,0.228125 0.59925,0.3507 0.59925,0.3507 l 0.0153,0.0085 c 0.046,0.02724 0.10555,0.01873 0.1413,-0.02383 0.0409,-0.04596 0.0358,-0.117467 -0.0119,-0.158325 0,0 -0.73205,-0.633303 -2.09739,-1.622412 -1.36535,-0.989109 -3.36569,-2.33743 -5.9006,-3.730014 -2.53321,-1.387477 -5.60609,-2.824324 -9.065419,-3.90196 -3.450816,-1.075933 -7.303405,-1.779034 -11.18153,-1.707532 -1.922039,0.03064 -3.864506,0.194076 -5.738877,0.485191 -1.879478,0.294519 -3.70618,0.711614 -5.442654,1.224044 -3.474651,1.023158 -6.566255,2.432766 -9.08244,3.859398 -2.51959,1.426633 -4.467165,2.860075 -5.774628,3.925794 -1.307463,1.067421 -1.979921,1.770522 -1.979921,1.770522 -0.03745,0.03916 -0.04256,0.100443 -0.0085,0.146409 0.03745,0.04937 0.107253,0.05788 0.156623,0.02043 l 0.01362,-0.01022 c 0.0034,0 0.192374,-0.144706 0.565205,-0.40007 z m 93.742353,17.194499 h -4.75658 c -0.0426,0 -0.0851,0.002 -0.12768,0.007 -11.94081,1.089551 -20.98409,7.877121 -29.72945,14.441674 -9.57955,7.18765 -18.62794,13.97692 -31.246318,13.97692 -12.618378,0 -21.666769,-6.78927 -31.244615,-13.97862 C 45.010027,94.290326 35.96504,87.502756 24.02593,86.413206 c -0.04256,-0.003 -0.08512,-0.007 -0.127682,-0.007 h -4.756577 c -0.778009,0 -1.407906,0.62989 -1.407906,1.4079 0,0.77801 0.629897,1.40791 1.407906,1.40791 h 4.691885 c 11.113433,1.03507 19.429782,7.27617 28.233025,13.884984 9.52507,7.15019 19.375304,14.54212 32.933421,14.54212 13.558117,0 23.408348,-7.39193 32.933418,-14.54212 8.80324,-6.607114 17.11959,-12.848204 28.23302,-13.884984 h 4.69189 c 0.77801,0 1.4079,-0.6299 1.4079,-1.40791 0,-0.7763 -0.62989,-1.4062 -1.4062,-1.4062 z m -26.30588,2.114411 c 0.14811,-0.0953 0.22472,-0.1447 0.22472,-0.1447 l 0.26728,-0.17365 c 0.1362,-0.0902 0.22813,-0.24175 0.23324,-0.4171 0.009,-0.286001 -0.21451,-0.52605 -0.50222,-0.53626 0,0 -1.22064,-0.0392 -3.35718,-0.10896 -2.13655,-0.046 -5.189,-0.15662 -8.85091,-0.20769 -3.66192,-0.046 -7.935,-0.15322 -12.51453,-0.17195 -4.577821,-0.0238 -9.46208,-0.0494 -14.344636,-0.0732 -4.884259,0.0255 -9.766815,0.0511 -14.344638,0.0749 -4.577822,0.0221 -8.85091,0.12598 -12.51453,0.17194 -3.661917,0.0511 -6.714366,0.16173 -8.85091,0.20599 -2.136544,0.0698 -3.357183,0.10896 -3.357183,0.10896 -0.163433,0.007 -0.325163,0.0902 -0.420499,0.23834 -0.154921,0.24174 -0.08512,0.5635 0.15492,0.71842 l 0.263876,0.170249 c 0,0 0.07661,0.0494 0.224721,0.1447 0.148111,0.0919 0.367723,0.24345 0.653731,0.40858 0.286007,0.17195 0.63841,0.38135 1.053801,0.606071 0.415392,0.23663 0.892071,0.48519 1.426633,0.75417 1.069123,0.54818 2.364669,1.14573 3.852589,1.76712 1.48792,0.61968 3.166511,1.23937 4.998321,1.84202 1.83181,0.57883 3.815136,1.17298 5.914227,1.66327 2.09909,0.50052 4.310541,0.93804 6.600303,1.29385 4.577823,0.72523 9.462081,1.07253 14.344638,1.09125 2.441278,-0.005 4.884259,-0.0885 7.286381,-0.26387 2.403825,-0.17025 4.768494,-0.45285 7.058255,-0.80355 2.28976,-0.3541 4.50121,-0.78992 6.6003,-1.28874 2.09909,-0.48859 4.08242,-1.08784 5.91423,-1.66497 0.9159,-0.32005 1.79265,-0.59585 2.62854,-0.9159 0.83419,-0.33027 1.62582,-0.60777 2.36978,-0.93293 1.48792,-0.62479 2.78517,-1.22405 3.85259,-1.77563 1.06912,-0.53797 1.90842,-1.02146 2.48043,-1.36705 0.28601,-0.16854 0.50562,-0.32005 0.65373,-0.41369 z m -2.26763,4.5642 c 0.0545,-0.0374 0.0766,-0.10895 0.0494,-0.171941 -0.0306,-0.0698 -0.11406,-0.10215 -0.18386,-0.0715 l -0.0204,0.009 c 0,0 -0.27579,0.12257 -0.79333,0.3524 -0.51754,0.226421 -1.27682,0.556701 -2.24209,0.97719 -0.96187,0.4205 -2.14676,0.89548 -3.48657,1.45898 -1.34662,0.55159 -2.8788,1.13382 -4.53526,1.77393 -1.66498,0.62649 -3.48487,1.24277 -5.39669,1.88969 -1.91693,0.63671 -3.96665,1.195114 -6.067442,1.763724 -2.107603,0.55669 -4.307136,0.9857 -6.533909,1.3381 -2.226773,0.34049 -4.490999,0.56691 -6.736498,0.59585 -2.299977,0.0443 -4.501213,-0.11747 -6.755224,-0.37794 -2.233583,-0.28771 -4.445033,-0.64181 -6.567958,-1.1253 -1.064016,-0.23494 -2.099091,-0.51073 -3.122248,-0.76439 -1.023158,-0.25366 -2.020779,-0.52435 -2.98946,-0.808654 -0.96868,-0.2809 -1.905014,-0.58223 -2.812407,-0.87335 -0.9125,-0.27919 -1.790951,-0.5652 -2.631949,-0.85291 -0.842701,-0.28431 -1.641139,-0.58053 -2.405528,-0.85462 -0.767794,-0.26728 -1.494729,-0.53116 -2.173997,-0.78822 -1.355131,-0.52435 -2.548531,-0.972089 -3.524021,-1.36365 -0.977192,-0.39666 -1.744986,-0.7065 -2.267631,-0.9193 -0.522644,-0.21792 -0.801842,-0.33368 -0.801842,-0.33368 l -0.02213,-0.009 c -0.06129,-0.0255 -0.132789,-0.005 -0.170242,0.0528 -0.04256,0.0647 -0.02383,0.15152 0.03916,0.19408 0,0 1.007835,0.66395 2.839645,1.70242 1.83181,1.03338 4.482487,2.46512 7.788597,3.91729 3.302706,1.453874 7.248928,2.962224 11.617352,4.124974 4.358209,1.16106 9.167561,1.9646 14.005855,1.8897 4.841698,-0.0936 9.611894,-1.06913 13.932647,-2.36808 4.32757,-1.30406 8.22442,-2.93328 11.48456,-4.477384 3.26185,-1.5458 5.87678,-3.04053 7.68475,-4.11646 1.80287,-1.08104 2.79879,-1.76372 2.79879,-1.76372 z m -10.37628,7.940123 c -0.39667,0.21621 -0.97719,0.53456 -1.71605,0.93974 -0.73885,0.39836 -1.64624,0.85972 -2.67962,1.38407 -1.04188,0.51073 -2.22336,1.06401 -3.5138,1.64284 -0.64692,0.2843 -1.32619,0.56691 -2.0344,0.8444 -0.70139,0.28771 -1.42833,0.57542 -2.182504,0.85121 -0.754175,0.27409 -1.533886,0.53286 -2.332323,0.78142 -0.403475,0.11406 -0.801843,0.24855 -1.208723,0.37453 -0.408582,0.11577 -0.820569,0.23153 -1.237663,0.3507 -1.668377,0.45114 -3.415066,0.7729 -5.180481,1.04699 -1.76882,0.26218 -3.576796,0.3524 -5.36945,0.32687 -0.992514,0.003 -1.852239,-0.0409 -2.75112,-0.0953 -0.454547,-0.0392 -0.907392,-0.0783 -1.360238,-0.11746 -0.451142,-0.0545 -0.900583,-0.10896 -1.348321,-0.16344 -1.785844,-0.24515 -3.542747,-0.54648 -5.216231,-0.97889 -1.668377,-0.44093 -3.287384,-0.89207 -4.787221,-1.44196 -1.496432,-0.55499 -2.909445,-1.11168 -4.187967,-1.70072 -1.271712,-0.59755 -2.439575,-1.16957 -3.450816,-1.72285 -1.006134,-0.5618 -1.889693,-1.06232 -2.596199,-1.50665 -0.703102,-0.44944 -1.27001,-0.79503 -1.639436,-1.0538 -0.372831,-0.25537 -0.5618,-0.40007 -0.5618,-0.40007 l -0.01362,-0.0102 c -0.04256,-0.0323 -0.10555,-0.0306 -0.146408,0.009 -0.04426,0.0426 -0.04597,0.11406 -0.0034,0.15832 0,0 0.672458,0.7014 1.979921,1.77052 1.30576,1.06572 3.255037,2.50087 5.774627,3.9258 2.514483,1.42663 5.60779,2.83624 9.08244,3.8594 1.734772,0.51243 3.563177,0.93122 5.442655,1.22404 1.87437,0.29282 3.816838,0.45455 5.738876,0.48689 3.878125,0.0715 7.729012,-0.6316 11.181531,-1.70753 3.459329,-1.07764 6.532211,-2.51278 9.065411,-3.90196 2.53492,-1.39088 4.53526,-2.7409 5.9006,-3.73001 1.36536,-0.98911 2.0974,-1.62242 2.0974,-1.62242 0.0392,-0.034 0.0511,-0.0936 0.0238,-0.1413 -0.0306,-0.0528 -0.10044,-0.0715 -0.15321,-0.0392 l -0.0153,0.009 c -0.002,-0.002 -0.20939,0.11917 -0.60094,0.349 z"
     id="path2"
     inkscape:connector-curvature="0" /></svg>