<?xml version="1.0" encoding="UTF-8" standalone="no"?>
<svg
   xmlns:dc="http://purl.org/dc/elements/1.1/"
   xmlns:cc="http://creativecommons.org/ns#"
   xmlns:rdf="http://www.w3.org/1999/02/22-rdf-syntax-ns#"
   xmlns:svg="http://www.w3.org/2000/svg"
   xmlns="http://www.w3.org/2000/svg"
   xmlns:sodipodi="http://sodipodi.sourceforge.net/DTD/sodipodi-0.dtd"
   xmlns:inkscape="http://www.inkscape.org/namespaces/inkscape"
   version="1.1"
   x="0px"
   y="0px"
   viewBox="0 0 399.99998 100.00001"
   enable-background="new 0 0 64 64"
   xml:space="preserve"
   id="svg16"
   sodipodi:docname="videBdd.svg"
   width="400"
   height="100"
   inkscape:version="0.92.3 (2405546, 2018-03-11)"><metadata
     id="metadata22"><rdf:RDF><cc:Work
         rdf:about=""><dc:format>image/svg+xml</dc:format><dc:type
           rdf:resource="http://purl.org/dc/dcmitype/StillImage" /><dc:title /></cc:Work></rdf:RDF></metadata><defs
     id="defs20" /><sodipodi:namedview
     pagecolor="#ffffff"
     bordercolor="#666666"
     borderopacity="1"
     objecttolerance="10"
     gridtolerance="10"
     guidetolerance="10"
     inkscape:pageopacity="0"
     inkscape:pageshadow="2"
     inkscape:window-width="1600"
     inkscape:window-height="836"
     id="namedview18"
     showgrid="false"
     units="px"
     fit-margin-top="2"
     fit-margin-left="2"
     fit-margin-right="2"
     fit-margin-bottom="2"
     inkscape:zoom="1.475"
     inkscape:cx="72.247709"
     inkscape:cy="113.69282"
     inkscape:window-x="0"
     inkscape:window-y="27"
     inkscape:window-maximized="1"
     inkscape:current-layer="svg16" /><rect
     style="opacity:0.93399999;fill:#cccccc;fill-opacity:1;stroke:none;stroke-width:4.4831996;stroke-linejoin:round;stroke-miterlimit:4;stroke-dasharray:none;stroke-dashoffset:0;stroke-opacity:1"
     id="rect4499"
     width="417.96609"
     height="109.23409"
     x="-3.4237287"
     y="-4.454422" /><path
     inkscape:connector-curvature="0"
     d="M 94.525163,85.468106 H 68.507347 L 63.642834,42.35078 H 99.315979 Z M 71.23443,82.372503 h 20.489946 l 4.127476,-36.999825 h -28.74489 z m 4.717111,-3.243012 c 0.589635,-0.07371 1.031867,-0.663344 0.958161,-1.252982 L 73.740396,49.647558 c -0.147411,-0.589638 -0.81075,-0.958163 -1.400394,-0.810752 -0.442224,0.147408 -0.81075,0.515933 -0.81075,1.031866 l 3.169305,28.302656 c 0.07371,0.589638 0.515938,1.031868 1.105573,1.031868 z m 12.382412,-0.958163 3.169306,-28.302656 c 0.07371,-0.589638 -0.368527,-1.179277 -0.958161,-1.252981 -0.589644,-0.07371 -1.179278,0.368523 -1.252984,0.958162 l -3.169306,28.302656 c -0.07371,0.589638 0.368519,1.179277 0.958161,1.252982 h 0.147412 c 0.515929,0 1.031867,-0.442229 1.105572,-0.958163 z M 82.51127,78.023919 V 49.721264 c 0,-0.589639 -0.442233,-1.031869 -1.031867,-1.031869 -0.589644,0 -1.031868,0.44223 -1.031868,1.031869 v 28.302655 c 0,0.589639 0.442224,1.031867 1.031868,1.031867 0.589634,0 1.031867,-0.442228 1.031867,-1.031867 z m 23.36444,-43.19103 -2.72708,-2.72708 1.25298,-1.179276 v 0 c 1.62151,-1.621507 1.4741,-4.495995 -0.29482,-6.264912 L 98.210407,18.69153 c -0.884456,-0.958163 -2.137439,-1.474096 -3.464128,-1.474096 v 0 c -1.10558,0 -2.063742,0.368524 -2.874493,1.179277 l -1.252982,1.252983 -2.727083,-2.72708 c -1.916324,-1.916325 -5.011924,-1.916325 -7.001962,0 l -2.727073,2.72708 24.985944,24.912231 2.72708,-2.727078 c 1.91632,-1.916326 1.91632,-5.011929 0,-7.001958 z M 94.082931,20.607856 c 0.147411,-0.147409 0.442232,-0.221114 0.663348,-0.221114 0.442224,0 0.884457,0.221114 1.179279,0.515934 l 5.896392,5.97009 c 0.51593,0.44223 0.66334,1.179278 0.29481,1.768916 l -1.17928,1.179278 -8.033827,-8.033826 z m 9.581629,19.015846 -0.58964,0.589638 -20.489945,-20.563646 0.589635,-0.589639 c 0.737054,-0.663344 1.916332,-0.663344 2.579671,0 l 17.983989,17.983979 c 0.66334,0.737047 0.66334,1.916325 -0.0737,2.579668 z m -22.185157,-1.916326 -0.737046,-9.286808 -2.211145,1.916326 c -3.316717,-3.095603 -7.739006,-4.864519 -12.308706,-5.011929 -5.306754,-0.07371 -10.392384,2.211145 -13.930215,6.191206 -3.464127,3.906355 -4.938224,9.065694 -4.201176,14.225032 0.737049,4.938223 3.611537,9.360512 7.812712,12.013886 0.737048,0.515935 1.621507,0.515935 1.768915,0.14741 0.147409,-0.368525 -0.221114,-1.031868 -0.884458,-1.474097 v 0 c -3.537831,-2.579668 -5.822681,-6.633434 -6.1175,-11.055724 -0.294819,-4.201174 1.252982,-8.40235 4.201175,-11.350542 2.948192,-2.874489 6.928257,-4.348586 11.055725,-3.980061 3.169307,0.294819 6.191202,1.69521 8.476052,3.980061 l -2.063734,1.84262 z"
     id="path4"
     style="opacity:0.3;fill:#aa0000;stroke-width:0.73704827" /><path
     inkscape:connector-curvature="0"
     d="m 204.28774,85.468106 h -26.01783 l -4.8645,-43.117326 h 35.67314 z M 180.997,82.372503 h 20.48995 l 4.12747,-36.999825 h -28.74489 z m 4.71711,-3.243012 c 0.58964,-0.07371 1.03186,-0.663344 0.95816,-1.252982 l -3.16931,-28.228951 c -0.1474,-0.589638 -0.81074,-0.958163 -1.40039,-0.810752 -0.44222,0.147408 -0.81075,0.515933 -0.81075,1.031866 l 3.16931,28.302656 c 0.0737,0.589638 0.51593,1.031868 1.10557,1.031868 z m 12.38242,-0.958163 3.1693,-28.302656 c 0.0737,-0.589638 -0.36853,-1.179277 -0.95816,-1.252981 -0.58965,-0.07371 -1.17928,0.368523 -1.25299,0.958162 l -3.16931,28.302656 c -0.0737,0.589638 0.36852,1.179277 0.95817,1.252982 h 0.14741 c 0.51593,0 1.03187,-0.442229 1.10558,-0.958163 z m -5.82269,-0.147409 V 49.721264 c 0,-0.589639 -0.44223,-1.031869 -1.03187,-1.031869 -0.58964,0 -1.03187,0.44223 -1.03187,1.031869 v 28.302655 c 0,0.589639 0.44223,1.031867 1.03187,1.031867 0.58964,0 1.03187,-0.442228 1.03187,-1.031867 z m 23.36444,-43.19103 -2.72708,-2.72708 1.25297,-1.179276 v 0 c 1.62152,-1.621507 1.47411,-4.495995 -0.29482,-6.264912 l -5.89638,-5.970091 c -0.88445,-0.958163 -2.13743,-1.474096 -3.46413,-1.474096 v 0 c -1.10557,0 -2.06374,0.368524 -2.87449,1.179277 l -1.25298,1.252983 -2.72708,-2.72708 c -1.91633,-1.916326 -5.01193,-1.916326 -7.00196,0 l -2.72708,2.72708 24.98595,24.912231 2.72708,-2.727078 c 1.91632,-1.916326 1.91632,-5.011929 0,-7.001958 z M 203.8455,20.607856 c 0.14741,-0.147409 0.44224,-0.221114 0.66334,-0.221114 0.44223,0 0.88446,0.221114 1.17929,0.515934 l 5.89638,5.97009 c 0.51593,0.44223 0.66335,1.179278 0.29482,1.768916 l -1.17928,1.179278 -8.03383,-8.033826 z m 9.58164,19.015846 -0.58965,0.589638 -20.48994,-20.563646 0.58962,-0.589639 c 0.73706,-0.663344 1.91634,-0.663344 2.57968,0 l 17.98399,17.983979 c 0.66333,0.737047 0.66333,1.916325 -0.0737,2.579668 z m -22.18517,-1.916326 -0.73705,-9.286808 -2.21114,1.916326 c -3.31672,-3.095603 -7.73901,-4.864519 -12.3087,-5.011929 -5.30676,-0.07371 -10.39239,2.211145 -13.93022,6.191206 -3.46413,3.906355 -4.93823,9.065694 -4.20117,14.225032 0.73704,4.938223 3.61153,9.360512 7.8127,12.013886 0.73705,0.515935 1.62151,0.515935 1.76892,0.14741 0.14741,-0.368525 -0.22112,-1.031868 -0.88446,-1.474097 v 0 c -3.53783,-2.579668 -5.82268,-6.633434 -6.1175,-11.055724 -0.29482,-4.201174 1.25298,-8.40235 4.20117,-11.350542 2.9482,-2.874489 6.92826,-4.348586 11.05573,-3.980061 3.16931,0.294819 6.1912,1.69521 8.47605,3.980061 l -2.06373,1.84262 z"
     id="path4-3"
     style="opacity:0.66000001;fill:#aa0000;stroke-width:0.73704827" /><path
     inkscape:connector-curvature="0"
     d="m 322.40889,85.468106 h -26.01782 l -4.86452,-43.117329 h 35.67315 z m -23.29074,-3.095609 h 20.48995 l 4.12747,-36.999822 h -28.74489 z m 4.71711,-3.24301 c 0.58964,-0.07371 1.03187,-0.663343 0.95817,-1.252982 l -3.16931,-28.22895 c -0.14741,-0.589639 -0.81075,-0.958162 -1.4004,-0.810753 -0.44222,0.14741 -0.81075,0.515933 -0.81075,1.031868 l 3.1693,28.302655 c 0.0737,0.589638 0.51594,1.031867 1.10558,1.031867 z m 12.38241,-0.958162 3.16931,-28.302655 c 0.0737,-0.589638 -0.36853,-1.179277 -0.95816,-1.252982 -0.58965,-0.07371 -1.17928,0.368524 -1.25298,0.958163 l -3.16931,28.302654 c -0.0737,0.589639 0.36852,1.179278 0.95816,1.252982 h 0.14741 c 0.51593,0 1.03187,-0.442228 1.10557,-0.958162 z m -5.82268,-0.14741 V 49.72126 c 0,-0.589639 -0.44223,-1.031867 -1.03187,-1.031867 -0.58964,0 -1.03186,0.442228 -1.03186,1.031867 v 28.302655 c 0,0.589639 0.44222,1.031868 1.03186,1.031868 0.58964,0 1.03187,-0.442229 1.03187,-1.031868 z m 23.36444,-43.19103 -2.72708,-2.727079 1.25298,-1.179277 v 0 c 1.62151,-1.621507 1.4741,-4.495995 -0.29482,-6.26491 l -5.89638,-5.970092 c -0.88446,-0.958162 -2.13744,-1.474096 -3.46413,-1.474096 v 0 c -1.10558,0 -2.06375,0.368523 -2.87449,1.179277 l -1.25299,1.252982 -2.72708,-2.727079 c -1.91632,-1.916325 -5.01192,-1.916325 -7.00196,0 l -2.72708,2.727079 24.98595,24.912232 2.72708,-2.727078 c 1.91632,-1.916326 1.91632,-5.011928 0,-7.001959 z M 321.96665,20.607853 c 0.14741,-0.147409 0.44224,-0.221115 0.66335,-0.221115 0.44223,0 0.88445,0.221115 1.17927,0.515934 l 5.89639,5.970091 c 0.51593,0.442229 0.66334,1.179278 0.29482,1.768916 l -1.17928,1.179278 -8.03383,-8.033827 z m 9.58164,19.015846 -0.58965,0.589638 -20.48994,-20.563647 0.58963,-0.589639 c 0.73705,-0.663343 1.91633,-0.663343 2.57967,0 l 17.98399,17.983979 c 0.66334,0.737048 0.66334,1.916326 -0.0737,2.579669 z m -22.18517,-1.916325 -0.73705,-9.28681 -2.21114,1.916326 c -3.31672,-3.095603 -7.739,-4.864518 -12.30871,-5.011928 -5.30675,-0.07371 -10.39237,2.211144 -13.93021,6.191205 -3.46413,3.906356 -4.93822,9.065694 -4.20118,14.225032 0.73705,4.938224 3.61155,9.360513 7.81272,12.013887 0.73704,0.515934 1.6215,0.515934 1.76891,0.147409 0.14741,-0.368524 -0.22112,-1.031867 -0.88446,-1.474096 v 0 c -3.53783,-2.579668 -5.82268,-6.633434 -6.1175,-11.055724 -0.29482,-4.201175 1.25298,-8.402351 4.20118,-11.350543 2.94819,-2.874489 6.92826,-4.348585 11.05572,-3.980061 3.16931,0.294819 6.1912,1.69521 8.47606,3.980061 l -2.06374,1.84262 z"
     id="path4-6"
     style="fill:#aa0000;stroke-width:0.73704827" /></svg>