<?xml version="1.0" encoding="UTF-8" standalone="no"?>
<svg
   xmlns:dc="http://purl.org/dc/elements/1.1/"
   xmlns:cc="http://creativecommons.org/ns#"
   xmlns:rdf="http://www.w3.org/1999/02/22-rdf-syntax-ns#"
   xmlns:svg="http://www.w3.org/2000/svg"
   xmlns="http://www.w3.org/2000/svg"
   xmlns:sodipodi="http://sodipodi.sourceforge.net/DTD/sodipodi-0.dtd"
   xmlns:inkscape="http://www.inkscape.org/namespaces/inkscape"
   version="1.1"
   x="0px"
   y="0px"
   viewBox="0 0 100 100"
   xml:space="preserve"
   id="svg26"
   sodipodi:docname="analyses_carre.svg"
   width="100"
   height="100"
   inkscape:version="0.92.1 r15371"><metadata
     id="metadata32"><rdf:RDF><cc:Work
         rdf:about=""><dc:format>image/svg+xml</dc:format><dc:type
           rdf:resource="http://purl.org/dc/dcmitype/StillImage" /><dc:title /></cc:Work></rdf:RDF></metadata><defs
     id="defs30" /><sodipodi:namedview
     pagecolor="#ffffff"
     bordercolor="#666666"
     borderopacity="1"
     objecttolerance="10"
     gridtolerance="10"
     guidetolerance="10"
     inkscape:pageopacity="0"
     inkscape:pageshadow="2"
     inkscape:window-width="1920"
     inkscape:window-height="986"
     id="namedview28"
     showgrid="false"
     inkscape:zoom="1.475"
     inkscape:cx="-132.41171"
     inkscape:cy="128.60147"
     inkscape:window-x="-11"
     inkscape:window-y="-11"
     inkscape:window-maximized="1"
     inkscape:current-layer="svg26"
     showguides="true"
     inkscape:guide-bbox="true" /><rect
     style="opacity:1;fill:#b3b3b3;fill-opacity:1;stroke:none;stroke-width:2.76801991;stroke-linejoin:round;stroke-miterlimit:4;stroke-dasharray:none;stroke-dashoffset:0;stroke-opacity:1"
     id="rect4491"
     width="114.63985"
     height="118.55932"
     x="-7.0340266"
     y="-6.9799061" /><g
     transform="matrix(1.3531368,0,0,1.3531368,9.3119351,12.994765)"
     id="g12"
     style="fill:#aa0000;fill-rule:evenodd;stroke:none;stroke-width:1"><g
       transform="translate(-363,-704)"
       id="g10"
       style="fill:#aa0000"><g
         transform="translate(363,704)"
         id="g8"
         style="fill:#aa0000"><path
           d="M 58,58.008 H 2.931 c 3.023,-3.788 7.574,-6 12.503,-6 H 20 h 20 9 6 3 z m -25,-22 h 2 v -4 h -2 z m -8,2 h 2 v -6 h -2 z m 1,-32 h 8 v -4 h -8 z m 15.792,10.787 c 0.002,0.009 10e-4,0.018 0.004,0.026 0.064,0.206 0.109,0.394 0.142,0.575 0.031,0.201 0.062,0.403 0.062,0.612 0,0.248 -0.03,0.487 -0.073,0.723 -0.016,0.087 -0.041,0.172 -0.063,0.257 -0.035,0.14 -0.078,0.277 -0.128,0.411 -0.039,0.103 -0.08,0.205 -0.127,0.305 -0.046,0.098 -0.102,0.192 -0.156,0.286 -0.066,0.114 -0.129,0.23 -0.206,0.336 -0.004,0.005 -0.008,0.009 -0.011,0.014 -0.479,0.655 -1.158,1.167 -1.971,1.44 -0.006,0.002 -0.011,0.007 -0.017,0.009 -0.395,0.131 -0.81,0.219 -1.248,0.219 -2.206,0 -4,-1.794 -4,-4 0,-2.206 1.794,-4 4,-4 1.78,0 3.274,1.177 3.792,2.787 z M 58,43.008 c 0,1.103 -0.897,2 -2,2 -0.229,0 -0.444,-0.046 -0.649,-0.117 -0.006,-0.003 -0.01,-0.007 -0.016,-0.009 -0.584,-0.207 -1.023,-0.669 -1.219,-1.228 -0.01,-0.03 -0.019,-0.06 -0.028,-0.09 C 54.035,43.385 54,43.2 54,43.008 c 0,-0.192 0.035,-0.377 0.088,-0.556 0.009,-0.03 0.018,-0.06 0.028,-0.09 0.196,-0.559 0.635,-1.021 1.219,-1.228 0.006,-0.002 0.01,-0.006 0.016,-0.009 0.205,-0.071 0.42,-0.117 0.649,-0.117 1.103,0 2,0.897 2,2 z m 1,7 h -3 v -3 c 2.206,0 4,-1.794 4,-4 0,-2.206 -1.794,-4 -4,-4 V 26.62 c 0,-2.599 -1.427,-4.97 -3.725,-6.186 l -8.689,-4.6 C 42.83,13.899 41.101,12.453 39,12.098 v -3.09 c 0,-1.654 -1.346,-3 -3,-3 v -5 c 0,-0.552 -0.448,-1 -1,-1 H 25 c -0.552,0 -1,0.448 -1,1 v 5 c -1.654,0 -3,1.346 -3,3 v 3 h 4 c 0.552,0 1,0.448 1,1 0,0.552 -0.448,1 -1,1 h -4 v 4 h 5 c 0.552,0 1,0.448 1,1 0,0.552 -0.448,1 -1,1 h -5 v 4 h 4 c 0.552,0 1,0.448 1,1 0,0.552 -0.448,1 -1,1 h -4 v 3 c 0,1.302 0.838,2.401 2,2.815 v 7.185 c 0,0.552 0.448,1 1,1 h 4 c 0.552,0 1,-0.448 1,-1 v -7 h 2 v 5 c 0,0.552 0.448,1 1,1 h 4 c 0.552,0 1,-0.448 1,-1 v -5.184 c 1.162,-0.415 2,-1.514 2,-2.816 v -5.09 c 0.18,-0.031 0.357,-0.069 0.532,-0.116 l 5.537,2.518 C 46.85,27.129 48,28.916 48,30.871 v 19.137 h -7 v -3 c 0,-0.552 -0.448,-1 -1,-1 H 20 c -0.552,0 -1,0.448 -1,1 v 3 h -3.566 c -6.254,0 -11.967,3.167 -15.282,8.47 -0.193,0.308 -0.203,0.697 -0.027,1.015 0.177,0.318 0.511,0.515 0.875,0.515 h 58 c 0.552,0 1,-0.448 1,-1 v -8 c 0,-0.552 -0.448,-1 -1,-1 z"
           id="path6"
           inkscape:connector-curvature="0"
           style="fill:#aa0000" /></g></g></g></svg>