<?xml version="1.0" encoding="UTF-8" standalone="no"?>
<svg
   xmlns:dc="http://purl.org/dc/elements/1.1/"
   xmlns:cc="http://creativecommons.org/ns#"
   xmlns:rdf="http://www.w3.org/1999/02/22-rdf-syntax-ns#"
   xmlns:svg="http://www.w3.org/2000/svg"
   xmlns="http://www.w3.org/2000/svg"
   xmlns:sodipodi="http://sodipodi.sourceforge.net/DTD/sodipodi-0.dtd"
   xmlns:inkscape="http://www.inkscape.org/namespaces/inkscape"
   version="1.1"
   x="0px"
   y="0px"
   viewBox="0 0 241 100"
   xml:space="preserve"
   id="svg26"
   sodipodi:docname="antibioresistance.svg"
   width="241"
   height="100"
   inkscape:version="0.92.3 (2405546, 2018-03-11)"><metadata
     id="metadata32"><rdf:RDF><cc:Work
         rdf:about=""><dc:format>image/svg+xml</dc:format><dc:type
           rdf:resource="http://purl.org/dc/dcmitype/StillImage" /><dc:title></dc:title></cc:Work></rdf:RDF></metadata><defs
     id="defs30" /><sodipodi:namedview
     pagecolor="#ffffff"
     bordercolor="#666666"
     borderopacity="1"
     objecttolerance="10"
     gridtolerance="10"
     guidetolerance="10"
     inkscape:pageopacity="0"
     inkscape:pageshadow="2"
     inkscape:window-width="1600"
     inkscape:window-height="836"
     id="namedview28"
     showgrid="false"
     inkscape:zoom="1.475"
     inkscape:cx="50.446958"
     inkscape:cy="-42.129741"
     inkscape:window-x="0"
     inkscape:window-y="27"
     inkscape:window-maximized="1"
     inkscape:current-layer="svg26"
     showguides="true"
     inkscape:guide-bbox="true"><sodipodi:guide
       position="1.0169492,87"
       orientation="0,1"
       id="guide1976"
       inkscape:locked="false"
       inkscape:label=""
       inkscape:color="rgb(0,0,255)" /></sodipodi:namedview><rect
     style="opacity:0.57399998;fill:#b3b3b3;fill-opacity:1;stroke:none;stroke-width:4.15002537;stroke-linejoin:round;stroke-miterlimit:4;stroke-dasharray:none;stroke-dashoffset:0;stroke-opacity:1"
     id="rect4491"
     width="257.6907"
     height="118.55932"
     x="-7.0340266"
     y="-6.9799061" /><g
     transform="translate(65.931064,0.831)"
     id="g6"><path
       d="m 94.4,50.65 c -0.96,0.04 -1.891,0.149 -2.61,0.26 -0.26,-1.35 -0.771,-2.6 -1.54,-3.71 -0.73,-1.06 -1.64,-1.95 -2.73,-2.65 1.11,-1.96 2.141,-4.31 2.141,-6.28 0,-0.74 -0.15,-1.42 -0.49,-2.01 -0.17,-0.3 -0.55,-0.4 -0.84,-0.23 -0.3,0.17 -0.4,0.55 -0.23,0.85 0.75,1.3 0.15,3.85 -1.659,7.05 -1.801,-0.89 -3.971,-1.37 -6.391,-1.37 -0.25,0 -0.5,0.01 -0.76,0.02 0.34,-1.66 0.52,-3.06 0.52,-4.2 0,-1.37 -0.26,-2.36 -0.76,-2.96 -0.22,-0.26 -0.609,-0.29 -0.87,-0.07 -0.26,0.22 -0.3,0.61 -0.069,0.87 0.31,0.38 0.92,1.74 -0.101,6.45 -3.26,0.35 -6.609,1.49 -9.74,3.32 l -4.46,-6.47 c -0.199,-0.28 -0.579,-0.36 -0.869,-0.16 -0.28,0.19 -0.351,0.58 -0.15,0.86 l 4.42,6.42 c -0.24,0.16 -0.479,0.31 -0.71,0.47 l -6.64,4.581 c 0,0 0,0 0,-0.011 -1.391,-1.3 -1.83,-2.83 -1.311,-4.55 0.101,-0.33 -0.09,-0.67 -0.42,-0.77 -0.33,-0.1 -0.67,0.08 -0.77,0.41 -0.63,2.1 -0.13,4.04 1.46,5.63 L 54.02,55.71 50.53,49.2 c -0.16,-0.3 -0.54,-0.42 -0.84,-0.25 -0.3,0.16 -0.42,0.53 -0.25,0.84 l 3.55,6.63 -4.86,3.34 c -0.39,0.28 -0.78,0.561 -1.16,0.851 -1.2,-1.521 -1.98,-2.9 -2.3,-4.051 -0.1,-0.35 -0.15,-0.68 -0.17,-0.989 -0.01,-0.34 -0.3,-0.61 -0.64,-0.601 -0.34,0.021 -0.61,0.311 -0.6,0.65 0.02,0.6 0.17,1.24 0.42,1.92 0.44,1.17 1.22,2.45 2.32,3.84 v 0.01 c -2.01,1.681 -3.68,3.57 -4.96,5.54 -1.87,-0.96 -3.67,-1.42 -5.37,-1.37 -0.53,0.011 -1.06,0.08 -1.57,0.19 -0.34,0.08 -0.55,0.41 -0.48,0.74 0.07,0.3 0.34,0.5 0.63,0.479 0.04,0 0.08,0 0.11,-0.01 1.85,-0.41 3.87,-0.06 6.03,1.021 -0.01,0 -0.01,0.01 -0.01,0.01 -2.82,4.899 -3.27,10.18 -0.64,13.99 2.05,2.979 5.68,4.63 10.19,4.63 1.06,0 2.129,-0.091 3.22,-0.271 0.06,0.53 0.09,1.05 0.09,1.54 0,1.83 -0.42,3.4 -1.26,4.67 -0.19,0.28 -0.11,0.67 0.18,0.86 0.1,0.07 0.22,0.1 0.34,0.1 0.2,0 0.39,-0.1 0.52,-0.279 1.24,-1.891 1.69,-4.29 1.351,-7.12 2.31,-0.511 4.63,-1.41 6.85,-2.65 0.86,1.48 1.74,2.66 2.63,3.5 0.881,0.85 1.771,1.38 2.66,1.57 0.04,0.01 0.09,0.01 0.13,0.01 0.29,0 0.54,-0.19 0.61,-0.48 0.07,-0.34 -0.14,-0.67 -0.48,-0.739 -1.399,-0.311 -2.949,-1.86 -4.479,-4.48 0.4,-0.25 0.8,-0.51 1.19,-0.78 l 4.84,-3.329 5.33,6.159 c 0.13,0.141 0.3,0.21 0.47,0.21 0.149,0 0.29,-0.05 0.41,-0.149 0.26,-0.22 0.279,-0.62 0.06,-0.87 l -5.24,-6.061 4.86,-3.34 c 0.45,1.09 1.1,1.95 1.91,2.551 0.81,0.609 1.79,0.96 2.92,1.039 h 0.05 c 0.32,0 0.601,-0.25 0.62,-0.569 0.021,-0.351 -0.229,-0.641 -0.58,-0.67 -1.86,-0.13 -3.16,-1.17 -3.87,-3.07 l 6.59,-4.55 c 0.24,-0.16 0.471,-0.32 0.7,-0.49 l 3.05,4.44 c 0.12,0.17 0.32,0.27 0.511,0.27 0.12,0 0.25,-0.04 0.35,-0.11 0.29,-0.189 0.36,-0.579 0.16,-0.859 l -3.09,-4.49 c 2.779,-2.24 5.01,-4.9 6.489,-7.75 0.841,0.12 1.61,0.26 2.29,0.41 0.04,0.01 0.091,0.02 0.131,0.02 0.29,0 0.54,-0.199 0.609,-0.489 0.07,-0.33 -0.14,-0.66 -0.47,-0.74 -0.61,-0.13 -1.28,-0.26 -2,-0.37 0.12,-0.27 0.229,-0.54 0.34,-0.82 0.85,-2.189 1.19,-4.319 1.04,-6.29 0.69,-0.1 1.57,-0.21 2.5,-0.25 0.34,-0.01 0.6,-0.3 0.59,-0.64 C 95.03,50.9 94.75,50.64 94.4,50.65 Z m -11.24,9.52 c -0.061,0.29 -0.32,0.49 -0.601,0.49 -0.05,0 -0.09,-0.01 -0.13,-0.021 -0.18,-0.04 -4.439,-0.979 -6.27,-4.39 -1.08,-2.02 -1.08,-4.43 0.01,-7.18 0.12,-0.32 0.48,-0.48 0.8,-0.35 0.32,0.12 0.48,0.48 0.351,0.8 -0.94,2.4 -0.971,4.46 -0.07,6.14 1.56,2.91 5.4,3.76 5.44,3.77 0.33,0.071 0.55,0.401 0.47,0.741 z m -36.44,6.54 c 0.07,-0.34 0.4,-0.55 0.74,-0.47 0.33,0.08 0.54,0.41 0.46,0.74 -2.21,9.689 7.55,13.539 7.97,13.699 0.311,0.13 0.48,0.48 0.36,0.801 -0.1,0.25 -0.33,0.399 -0.58,0.399 -0.08,0 -0.15,-0.01 -0.22,-0.04 C 55.33,81.8 44.27,77.46 46.72,66.71 Z m 14.22,11.54 c -0.101,0.25 -0.33,0.4 -0.58,0.4 -0.07,0 -0.15,-0.011 -0.221,-0.04 -0.109,-0.04 -11.18,-4.38 -8.729,-15.13 0.08,-0.341 0.41,-0.551 0.74,-0.471 0.34,0.08 0.55,0.41 0.47,0.74 -2.21,9.7 7.54,13.54 7.96,13.7 0.32,0.121 0.48,0.481 0.36,0.801 z M 56.71,60.87 c 0.1,-0.33 0.44,-0.51 0.771,-0.41 0.319,0.1 0.51,0.45 0.409,0.771 -2.73,8.969 6.35,12.139 6.74,12.279 0.32,0.11 0.5,0.46 0.39,0.78 -0.079,0.26 -0.329,0.42 -0.59,0.42 -0.06,0 -0.13,0 -0.189,-0.03 C 64.13,74.65 53.62,71 56.71,60.87 Z m 10.88,-5.69 c 0.311,0.13 0.47,0.48 0.34,0.801 -0.939,2.399 -0.97,4.47 -0.06,6.14 1.56,2.92 5.39,3.76 5.43,3.77 0.34,0.08 0.55,0.41 0.48,0.74 -0.07,0.29 -0.32,0.49 -0.61,0.49 -0.04,0 -0.08,0 -0.13,-0.021 -0.18,-0.029 -4.44,-0.979 -6.271,-4.39 -1.079,-2.01 -1.079,-4.43 0.011,-7.18 0.13,-0.32 0.49,-0.48 0.81,-0.35 z m -6.14,2.53 c 0.1,-0.33 0.439,-0.51 0.77,-0.42 0.33,0.11 0.511,0.45 0.41,0.78 -2.729,8.97 6.351,12.14 6.74,12.27 0.33,0.11 0.5,0.46 0.39,0.79 -0.08,0.26 -0.33,0.42 -0.59,0.42 -0.06,0 -0.13,-0.01 -0.189,-0.03 C 68.87,71.48 58.36,67.84 61.45,57.71 Z m 17.02,5.69 c -0.06,0.29 -0.319,0.489 -0.6,0.489 -0.05,0 -0.09,-0.01 -0.14,-0.01 -0.181,-0.05 -4.44,-0.99 -6.271,-4.399 -1.08,-2.021 -1.07,-4.431 0.021,-7.181 0.119,-0.319 0.479,-0.479 0.8,-0.35 0.319,0.12 0.47,0.479 0.35,0.8 -0.95,2.4 -0.97,4.46 -0.07,6.14 1.561,2.92 5.4,3.761 5.431,3.771 0.339,0.08 0.549,0.4 0.479,0.74 z"
       id="path2"
       inkscape:connector-curvature="0" /><path
       d="m 27.71,46.11 c 2.29,-0.12 4.46,-0.75 6.37,-1.79 l 2.03,2.77 c -0.06,0.11 -0.12,0.22 -0.18,0.34 -0.02,0.04 -0.04,0.09 -0.06,0.13 -0.03,0.06 -0.05,0.11 -0.07,0.17 -0.04,0.1 -0.08,0.2 -0.11,0.3 -0.01,0.04 -0.03,0.07 -0.04,0.1 -0.05,0.18 -0.1,0.36 -0.13,0.54 -0.01,0.04 -0.01,0.08 -0.02,0.12 -0.01,0.06 -0.02,0.13 -0.02,0.19 -0.01,0.08 -0.02,0.16 -0.02,0.24 -0.01,0.08 -0.01,0.15 -0.02,0.22 v 0.11 c 0,0.11 0,0.22 0.01,0.32 0,0.01 0,0.01 0.01,0.02 0.17,2.54 2.29,4.55 4.87,4.55 2.69,0 4.88,-2.19 4.88,-4.891 0,-2.69 -2.19,-4.88 -4.88,-4.88 -0.28,0 -0.56,0.02 -0.83,0.07 l -0.02,-0.03 -2.08,-2.84 c 2.01,-1.95 3.47,-4.45 4.14,-7.26 l 2.82,0.33 c 0.54,1.09 1.58,1.88 2.82,2.07 0.19,0.03 0.38,0.04 0.57,0.04 2.09,0 3.78,-1.69 3.78,-3.78 0,-0.19 -0.011,-0.38 -0.04,-0.57 -0.28,-1.81 -1.85,-3.21 -3.74,-3.21 -1.16,0 -2.2,0.53 -2.89,1.35 l -2.92,-0.34 c -0.05,-1.19 -0.23,-2.33 -0.54,-3.43 -0.31,-1.1 -0.74,-2.15 -1.28,-3.13 l 2.37,-1.71 c 0.63,0.29 1.33,0.46 2.08,0.46 2.68,0 4.86,-2.18 4.86,-4.86 0,-2.67 -2.18,-4.85 -4.86,-4.85 -2.68,0 -4.86,2.18 -4.86,4.85 0,0.42 0.05,0.82 0.15,1.2 l -2.19,1.59 c -2.73,-2.79 -6.53,-4.52 -10.73,-4.52 -0.94,0 -1.87,0.09 -2.77,0.26 l -0.43,-1.37 c 0.99,-0.89 1.61,-2.18 1.61,-3.62 0,-2.69 -2.19,-4.88 -4.89,-4.88 -2.69,0 -4.88,2.19 -4.88,4.88 0,0.28 0.02,0.54 0.06,0.8 v 0.03 c 0.01,0.03 0.02,0.06 0.03,0.09 0.01,0.08 0.03,0.15 0.05,0.23 0,0.03 0.01,0.06 0.02,0.09 0.03,0.11 0.06,0.23 0.1,0.33 0,0.01 0.01,0.02 0.01,0.03 0.59,1.71 2.11,2.99 3.95,3.24 l 0.46,1.46 c -3.44,1.72 -6.14,4.73 -7.45,8.38 l -2.69,-0.56 c -0.53,-0.67 -1.35,-1.1 -2.27,-1.1 -0.64,0 -1.22,0.2 -1.7,0.55 -0.63,0.46 -1.07,1.16 -1.18,1.97 -0.01,0.12 -0.02,0.25 -0.02,0.38 0,1.59 1.3,2.89 2.9,2.89 0.65,0 1.26,-0.22 1.74,-0.58 l 2.38,0.49 c -0.02,0.34 -0.03,0.68 -0.03,1.02 0,2 0.39,3.91 1.1,5.66 l -1.21,0.7 c -0.14,-0.02 -0.28,-0.04 -0.43,-0.04 -1.6,0 -2.9,1.3 -2.9,2.9 0,1.6 1.3,2.9 2.9,2.9 1.43,0 2.61,-1.04 2.85,-2.39 v -0.01 l 0.86,-0.49 c 2.1,2.67 5.07,4.62 8.49,5.41 l -0.14,1.59 c -0.63,0.53 -1.03,1.32 -1.03,2.21 0,1.601 1.3,2.9 2.9,2.9 1.6,0 2.9,-1.3 2.9,-2.9 0,-0.7 -0.25,-1.34 -0.66,-1.84 z M 41.82,33.15 v -0.01 l 0.06,-0.54 0.1,-0.9 2.23,0.26 c -0.15,0.41 -0.24,0.85 -0.24,1.31 0,0.15 0.01,0.3 0.03,0.44 l -2.22,-0.26 z m -29.58,-5.06 -0.17,0.82 -1.63,-0.34 c 0.2,-0.39 0.3,-0.82 0.3,-1.28 0,-0.16 -0.01,-0.31 -0.04,-0.46 l 1.73,0.36 z m 14.21,18.8 c -0.35,-0.15 -0.73,-0.23 -1.12,-0.23 -0.22,0 -0.43,0.02 -0.63,0.07 l 0.07,-0.74 0.72,0.07 0.3,0.02 0.72,0.07 z m 9.6,-20.86 c 0,0.97 -0.79,1.75 -1.76,1.75 -0.97,0 -1.76,-0.78 -1.76,-1.75 0,-0.97 0.79,-1.76 1.76,-1.76 0.97,0 1.76,0.79 1.76,1.76 z m -3.24,11.03 c 0,1.33 -1.08,2.41 -2.41,2.41 -1.33,0 -2.41,-1.08 -2.41,-2.41 0,-1.33 1.08,-2.41 2.41,-2.41 1.33,0 2.41,1.08 2.41,2.41 z M 26.73,26.03 c 0,1.64 -1.34,2.97 -2.98,2.97 -1.64,0 -2.97,-1.33 -2.97,-2.97 0,-1.64 1.33,-2.98 2.97,-2.98 1.64,0 2.98,1.34 2.98,2.98 z m -4.55,9.75 c 0.01,0.97 -0.78,1.76 -1.75,1.76 -0.97,0 -1.76,-0.79 -1.76,-1.76 0,-0.97 0.79,-1.76 1.76,-1.76 0.97,0 1.75,0.79 1.75,1.76 z m 0.54,-20.07 0.29,0.9 -0.49,0.16 -0.14,0.05 -1.05,0.33 -0.29,-0.92 c 0.6,-0.08 1.17,-0.26 1.68,-0.52 z m 15.58,29.4 c -0.54,0.25 -1.02,0.59 -1.44,1 l -1.74,-2.37 1.41,-1.04 z m 2.01,-24.94 c 0.28,0.52 0.66,0.98 1.11,1.37 L 39.53,22.9 38.5,21.48 Z M 14.18,39.51 c -0.18,-0.58 -0.53,-1.09 -1,-1.45 l 0.33,-0.19 0.88,1.52 z"
       id="path4"
       inkscape:connector-curvature="0" /></g></svg>