<?xml version="1.0" encoding="UTF-8" standalone="no"?>
<svg
   xmlns:dc="http://purl.org/dc/elements/1.1/"
   xmlns:cc="http://creativecommons.org/ns#"
   xmlns:rdf="http://www.w3.org/1999/02/22-rdf-syntax-ns#"
   xmlns:svg="http://www.w3.org/2000/svg"
   xmlns="http://www.w3.org/2000/svg"
   xmlns:sodipodi="http://sodipodi.sourceforge.net/DTD/sodipodi-0.dtd"
   xmlns:inkscape="http://www.inkscape.org/namespaces/inkscape"
   version="1.1"
   x="0px"
   y="0px"
   viewBox="0 0 241 100"
   xml:space="preserve"
   id="svg26"
   sodipodi:docname="coproscopies.svg"
   width="241"
   height="100"
   inkscape:version="0.92.3 (2405546, 2018-03-11)"><metadata
     id="metadata32"><rdf:RDF><cc:Work
         rdf:about=""><dc:format>image/svg+xml</dc:format><dc:type
           rdf:resource="http://purl.org/dc/dcmitype/StillImage" /><dc:title /></cc:Work></rdf:RDF></metadata><defs
     id="defs30" /><sodipodi:namedview
     pagecolor="#ffffff"
     bordercolor="#666666"
     borderopacity="1"
     objecttolerance="10"
     gridtolerance="10"
     guidetolerance="10"
     inkscape:pageopacity="0"
     inkscape:pageshadow="2"
     inkscape:window-width="1600"
     inkscape:window-height="836"
     id="namedview28"
     showgrid="false"
     inkscape:zoom="2.95"
     inkscape:cx="70.456421"
     inkscape:cy="31.182104"
     inkscape:window-x="0"
     inkscape:window-y="27"
     inkscape:window-maximized="1"
     inkscape:current-layer="svg26"
     showguides="true"
     inkscape:guide-bbox="true"><sodipodi:guide
       position="1.0169492,87"
       orientation="0,1"
       id="guide1976"
       inkscape:locked="false"
       inkscape:label=""
       inkscape:color="rgb(0,0,255)" /></sodipodi:namedview><rect
     style="opacity:0.57399998;fill:#b3b3b3;fill-opacity:1;stroke:none;stroke-width:4.15002537;stroke-linejoin:round;stroke-miterlimit:4;stroke-dasharray:none;stroke-dashoffset:0;stroke-opacity:1"
     id="rect4491"
     width="257.6907"
     height="118.55932"
     x="-7.0340266"
     y="-6.9799061" /><g
     id="g852"
     transform="translate(46.047154,-76.337458)"><path
       id="path2"
       d="m 80.360402,87.20339 c -24.767348,0 -45.021419,20.11368 -45.021419,45.02338 0,24.9097 20.254071,44.97662 45.021419,44.97662 24.767348,0 44.978578,-20.06692 44.978578,-44.97662 0,-24.9097 -20.21123,-45.02338 -44.978578,-45.02338 z m 0,3.132467 c 23.350778,0 42.108518,18.834623 42.108518,41.890913 0,23.05628 -18.75774,41.84415 -42.108518,41.84415 -23.350784,0 -42.151357,-18.78787 -42.151357,-41.84415 0,-23.05629 18.800573,-41.890913 42.151357,-41.890913 z"
       style="color:#000000;fill:#6c5353"
       inkscape:connector-curvature="0" /><path
       id="path4"
       d="m 89.941109,105.77157 c -0.210886,0.0152 -0.398498,0.0624 -0.601953,0.0947 -1.627654,0.25901 -2.984626,1.16437 -3.801813,2.33704 -0.817183,1.17268 -1.146585,2.56582 -1.172227,3.97928 -0.04472,2.46516 -0.759492,3.69521 -1.837543,4.42143 -1.078055,0.72622 -2.847263,1.02149 -5.290857,0.63163 -2.570006,-0.41004 -5.755733,-1.57149 -9.314442,-3.25291 1.335117,-1.45403 4.538843,-3.11713 10.708441,-3.97928 0.710482,-0.0993 1.294043,-0.78096 1.254247,-1.49502 -0.0398,-0.71406 -0.695363,-1.33339 -1.412656,-1.34732 -0.08459,-0.002 -0.169694,-0.0118 -0.253454,0 -7.045795,0.99415 -11.048487,2.92118 -12.926165,5.52678 -2.463117,-1.28368 -5.038535,-2.79291 -7.698672,-4.48459 -0.638199,-0.40585 -1.589532,-0.1945 -1.995951,0.44214 -0.406421,0.63664 -0.19465,1.58378 0.443543,1.98964 2.817993,1.79212 5.551818,3.40526 8.173899,4.76883 -0.08034,0.66688 -0.05461,1.33546 0.09505,1.95805 0.333784,1.38855 1.145057,2.57708 2.186042,3.53714 1.815544,1.67441 2.296762,3.00975 2.12268,4.2951 -0.174082,1.28536 -1.154498,2.8002 -3.073133,4.35826 -1.837438,1.49213 -4.473456,2.95205 -7.66699,4.35826 -0.216457,-2.06219 0.260432,-5.31424 2.217725,-10.04295 0.26771,-0.64677 -0.05472,-1.47184 -0.679352,-1.79095 -0.624631,-0.31911 -1.472388,-0.0903 -1.85519,0.49611 -0.0465,0.0712 -0.09398,0.1426 -0.126727,0.22107 -2.275868,5.4541 -2.90453,9.4163 -2.31277,12.28524 -2.834693,1.10428 -6.019216,2.14083 -9.409489,3.095 -0.722555,0.20336 -1.189491,1.04925 -0.982133,1.76857 0.207356,0.71932 1.051617,1.18237 1.774178,0.97903 3.496664,-0.98402 6.76951,-2.04282 9.726306,-3.18974 0.751767,1.06516 1.788954,1.80075 2.914723,2.14755 1.368527,0.42156 2.822766,0.34018 4.181995,-0.0632 2.370575,-0.70347 3.763363,-0.42554 4.783948,0.37897 1.020579,0.80452 1.819395,2.42392 2.186044,4.86357 0.120461,0.80156 0.164091,1.70278 0.19009,2.65286 -3.604461,-1.34769 -7.630514,-3.2463 -11.848984,-5.55837 -0.660122,-0.36179 -1.591777,-0.0772 -1.948429,0.58426 -0.356654,0.66145 -0.07395,1.58039 0.586112,1.94227 4.683623,2.56779 9.111907,4.66625 13.147937,6.09525 -0.263002,4.41491 -1.224897,9.81095 -2.787996,15.66448 -0.194061,0.72672 0.299763,1.56261 1.029657,1.75277 0.729896,0.19017 1.564291,-0.29967 1.758339,-1.0264 1.514125,-5.67049 2.517829,-10.92608 2.85136,-15.47498 1.873579,0.53269 3.667319,0.88836 5.290857,1.04219 2.867833,0.27174 5.4154,-0.0734 7.286809,-1.51592 1.54544,-1.19126 2.416093,-3.07085 2.597906,-5.40045 0.476777,0.0913 0.969029,0.18534 1.489043,0.22107 0.959961,0.066 1.828709,0.34349 2.407816,0.78954 0.579104,0.44606 0.914434,1.00895 1.013816,1.92648 0.198777,1.83505 -1.017028,5.38289 -5.797765,10.48509 -0.480758,0.51309 -0.485081,1.39701 -0.01522,1.92003 0.469862,0.52302 1.352151,0.61649 1.916126,0.19594 0.07186,-0.0536 0.128847,-0.1241 0.190091,-0.18949 5.048756,-5.39046 6.912024,-9.46029 6.558127,-12.72739 -0.176949,-1.63355 -1.020925,-3.0115 -2.154361,-3.88453 -1.133443,-0.87303 -2.513719,-1.29239 -3.92854,-1.38959 -0.591874,-0.0407 -1.095275,-0.1163 -1.552407,-0.22108 0.08857,-0.41929 0.222727,-0.82467 0.411863,-1.13693 0.378271,-0.62452 0.90285,-1.02828 1.805861,-1.23169 1.806037,-0.40682 5.490235,0.39491 11.120299,4.54775 0.56617,0.41762 1.44627,0.32709 1.91613,-0.19593 0.46986,-0.52302 0.46374,-1.40528 -0.0152,-1.92003 -0.0663,-0.0713 -0.14335,-0.13168 -0.22177,-0.18949 -5.948311,-4.38486 -10.217633,-5.74577 -13.433076,-5.02148 -1.607723,0.36215 -2.871361,1.33578 -3.611722,2.55811 -0.213394,0.35232 -0.369243,0.72505 -0.506909,1.10536 -0.08488,-0.11003 -0.181676,-0.19741 -0.253454,-0.31582 -0.672918,-1.11009 -0.863023,-2.89274 -0.348499,-5.30571 0.23141,-1.08523 0.617424,-2.28983 1.108862,-3.56872 1.191545,1.33792 2.606011,2.15735 4.181995,2.36862 2.344529,0.31431 4.750978,-0.63854 7.096718,-2.30545 4.691475,-3.33383 9.604245,-9.69432 14.351845,-17.62254 0.36952,-0.61707 0.0967,-1.51274 -0.51864,-1.88715 -0.61536,-0.37442 -1.54593,-0.211 -1.92086,0.40282 -4.71377,7.71724 -9.56129,13.90591 -13.591483,16.76983 -2.015092,1.43196 -3.716196,1.97302 -5.005721,1.80015 -1.162155,-0.1558 -2.229249,-0.82535 -3.263223,-2.55811 1.803559,-3.7676 4.416456,-8.03394 7.571945,-12.50631 0.414733,-0.58782 0.217591,-1.5002 -0.365791,-1.92241 -0.58338,-0.42221 -1.52362,-0.33309 -1.946979,0.24858 -2.908574,3.99625 -5.314846,7.89835 -7.160082,11.4957 -0.3901,-0.36969 -0.818278,-0.68377 -1.298953,-0.94744 -1.254922,-0.68839 -2.830252,-0.93132 -4.403767,-0.44215 -3.147026,0.97835 -6.17783,4.32062 -9.124352,11.08514 -0.03599,0.0826 -0.06754,0.16685 -0.09504,0.25266 -0.228349,0.7123 0.205465,1.56864 0.918771,1.80015 0.713307,0.2315 1.513742,-0.2271 1.805862,-0.91587 2.727342,-6.43056 5.550881,-8.92497 7.31849,-9.47448 0.883802,-0.27475 1.544867,-0.1938 2.186043,0.15791 0.480882,0.26379 0.942856,0.72982 1.330634,1.29485 -0.906549,2.07003 -1.578475,4.06492 -1.964269,5.87417 -0.598959,2.80889 -0.526454,5.37181 0.696998,7.3901 0.546056,0.90081 1.295489,1.62603 2.249407,2.17913 0.03187,2.20484 -0.548535,3.38781 -1.520726,4.13719 -1.0293,0.7934 -2.7639,1.18088 -5.227493,0.94745 -1.582533,-0.14995 -3.430232,-0.57975 -5.449266,-1.2001 5.11e-4,-1.44851 -0.06637,-2.79764 -0.253453,-4.04245 -0.426802,-2.83996 -1.407668,-5.23259 -3.263224,-6.6953 -1.855556,-1.46271 -4.456972,-1.75223 -7.381854,-0.88428 -0.922241,0.27367 -1.835329,0.31013 -2.534542,0.0948 -0.377531,-0.1163 -0.696048,-0.30574 -0.982136,-0.56847 3.368062,-1.47616 6.212835,-3.0851 8.36399,-4.83199 2.233449,-1.81371 3.802126,-3.85304 4.118631,-6.18999 0.316504,-2.33695 -0.769707,-4.69254 -3.009769,-6.75846 -0.653615,-0.6028 -1.097473,-1.32675 -1.298953,-1.98964 3.518802,1.63399 6.769862,2.76479 9.631261,3.22132 2.844544,0.45384 5.421812,0.2466 7.381854,-1.07378 1.960036,-1.32037 2.986286,-3.68529 3.04145,-6.72688 0.0174,-0.95904 0.279476,-1.83263 0.697,-2.43178 0.417523,-0.59915 0.955011,-0.99147 1.869224,-1.13694 1.82842,-0.29096 5.444748,0.74712 10.803486,5.24255 0.53356,0.4476 1.41166,0.39899 1.90863,-0.0887 0.49698,-0.48767 0.55272,-1.35662 0.119,-1.90097 -0.0558,-0.0701 -0.1215,-0.13179 -0.19009,-0.18949 -5.300416,-4.45905 -9.319331,-6.19711 -12.482617,-5.96892 z"
       style="color:#000000;fill:#aa0000"
       inkscape:connector-curvature="0" /></g></svg>