<?xml version="1.0" encoding="UTF-8" standalone="no"?>
<svg
   xmlns:dc="http://purl.org/dc/elements/1.1/"
   xmlns:cc="http://creativecommons.org/ns#"
   xmlns:rdf="http://www.w3.org/1999/02/22-rdf-syntax-ns#"
   xmlns:svg="http://www.w3.org/2000/svg"
   xmlns="http://www.w3.org/2000/svg"
   xmlns:sodipodi="http://sodipodi.sourceforge.net/DTD/sodipodi-0.dtd"
   xmlns:inkscape="http://www.inkscape.org/namespaces/inkscape"
   version="1.1"
   x="0px"
   y="0px"
   viewBox="0 0 241 100"
   xml:space="preserve"
   id="svg26"
   sodipodi:docname="salmonelle.svg"
   width="241"
   height="100"
   inkscape:version="0.92.3 (2405546, 2018-03-11)"><metadata
     id="metadata32"><rdf:RDF><cc:Work
         rdf:about=""><dc:format>image/svg+xml</dc:format><dc:type
           rdf:resource="http://purl.org/dc/dcmitype/StillImage" /><dc:title></dc:title></cc:Work></rdf:RDF></metadata><defs
     id="defs30" /><sodipodi:namedview
     pagecolor="#ffffff"
     bordercolor="#666666"
     borderopacity="1"
     objecttolerance="10"
     gridtolerance="10"
     guidetolerance="10"
     inkscape:pageopacity="0"
     inkscape:pageshadow="2"
     inkscape:window-width="1600"
     inkscape:window-height="836"
     id="namedview28"
     showgrid="false"
     inkscape:zoom="1.475"
     inkscape:cx="50.446958"
     inkscape:cy="-42.129741"
     inkscape:window-x="0"
     inkscape:window-y="27"
     inkscape:window-maximized="1"
     inkscape:current-layer="svg26"
     showguides="true"
     inkscape:guide-bbox="true"><sodipodi:guide
       position="1.0169492,87"
       orientation="0,1"
       id="guide1976"
       inkscape:locked="false"
       inkscape:label=""
       inkscape:color="rgb(0,0,255)" /></sodipodi:namedview><rect
     style="opacity:0.57399998;fill:#b3b3b3;fill-opacity:1;stroke:none;stroke-width:4.15002537;stroke-linejoin:round;stroke-miterlimit:4;stroke-dasharray:none;stroke-dashoffset:0;stroke-opacity:1"
     id="rect4491"
     width="257.6907"
     height="118.55932"
     x="-7.0340266"
     y="-6.9799061" /><g
     transform="translate(67.965601,2.5423765)"
     id="g54"><path
       d="m 65.352,32.853 0.295,-0.675 c -0.016,-0.007 -1.593,-0.713 -1.91,-1.963 -0.166,-0.655 0.046,-1.37 0.63,-2.125 0.41,-0.53 0.715,-1.021 0.923,-1.478 -0.271,-0.06 -0.535,-0.107 -0.768,-0.14 -0.181,0.361 -0.41,0.743 -0.738,1.167 -0.731,0.945 -0.986,1.874 -0.759,2.761 0.408,1.599 2.248,2.419 2.327,2.453 z"
       id="path2"
       inkscape:connector-curvature="0" /><path
       d="m 55.647,35.132 c -0.219,1.27 -1.732,2.097 -1.748,2.106 l 0.347,0.649 c 0.075,-0.04 1.843,-1.001 2.125,-2.625 0.157,-0.903 -0.171,-1.81 -0.973,-2.695 -0.675,-0.743 -1.065,-1.391 -1.206,-1.951 -10e-4,0.001 -0.007,0.007 -0.007,0.007 l -0.588,0.58 c 0.231,0.571 0.645,1.186 1.255,1.858 0.643,0.708 0.91,1.405 0.795,2.071 z"
       id="path4"
       inkscape:connector-curvature="0" /><path
       d="m 44.505,41.791 c 0.24,-0.531 0.221,-1.11 0.074,-1.682 l -0.652,0.643 c 0.019,0.273 0.002,0.525 -0.093,0.734 -0.235,0.518 -0.872,0.914 -1.861,1.195 l -1.04,1.027 c 0.142,-0.043 0.281,-0.089 0.441,-0.12 1.707,-0.328 2.73,-0.916 3.131,-1.797 z"
       id="path6"
       inkscape:connector-curvature="0" /><path
       d="M 39.631,47.5 C 39.625,47.487 39.11,46.35 39.32,45.301 l -0.287,0.284 -0.493,0.487 c 0.056,0.927 0.402,1.691 0.425,1.74 z"
       id="path8"
       inkscape:connector-curvature="0" /><path
       d="m 50.567,42.257 0.419,-0.606 c -0.014,-0.01 -1.424,-1.005 -1.495,-2.291 -0.037,-0.675 0.308,-1.336 1.027,-1.966 1.308,-1.145 1.895,-2.17 1.795,-3.133 -0.049,-0.468 -0.259,-0.879 -0.556,-1.241 l -0.528,0.522 c 0.207,0.266 0.325,0.529 0.352,0.795 0.072,0.699 -0.449,1.541 -1.548,2.504 -0.9,0.788 -1.329,1.651 -1.277,2.565 0.095,1.646 1.741,2.802 1.811,2.851 z"
       id="path10"
       inkscape:connector-curvature="0" /><path
       d="m 50.467,53.613 0.232,-0.7 c -1.808,-0.599 -2.94,-0.168 -3.572,0.3 -0.922,0.68 -1.414,1.872 -1.385,3.355 0.029,1.502 -0.215,2.391 -0.768,2.799 -0.564,0.418 -1.554,0.396 -2.943,-0.065 -1.135,-0.376 -2.096,-0.307 -2.857,0.201 -1.372,0.917 -1.534,2.923 -1.54,3.009 l 0.734,0.054 c 10e-4,-0.017 0.138,-1.731 1.215,-2.45 0.562,-0.376 1.306,-0.416 2.217,-0.114 1.651,0.545 2.831,0.532 3.611,-0.042 0.99,-0.729 1.09,-2.203 1.067,-3.406 -0.025,-1.237 0.361,-2.214 1.085,-2.748 0.708,-0.523 1.712,-0.588 2.904,-0.193 z"
       id="path12"
       inkscape:connector-curvature="0" /><path
       d="m 54.52,58.279 c -0.57,0.364 -1.317,0.39 -2.22,0.074 -1.639,-0.575 -2.82,-0.585 -3.611,-0.025 -1.003,0.711 -1.13,2.182 -1.13,3.386 0.002,1.22 -0.413,2.215 -1.137,2.729 -0.716,0.507 -1.722,0.556 -2.907,0.138 l -0.244,0.694 c 0.661,0.233 1.233,0.325 1.724,0.325 0.842,0 1.447,-0.269 1.852,-0.557 0.935,-0.663 1.45,-1.846 1.447,-3.33 -10e-4,-1.503 0.259,-2.388 0.82,-2.785 0.572,-0.404 1.562,-0.365 2.941,0.119 1.128,0.398 2.091,0.347 2.862,-0.149 1.387,-0.892 1.585,-2.895 1.593,-2.979 l -0.733,-0.067 c -10e-4,0.017 -0.169,1.727 -1.257,2.427 z"
       id="path14"
       inkscape:connector-curvature="0" /><path
       d="m 64.25,43.414 c -0.429,-0.792 -0.365,-1.838 0.182,-2.949 0.531,-1.077 1.066,-2.454 0.48,-3.536 -0.461,-0.851 -1.525,-1.365 -3.251,-1.57 -0.95,-0.113 -1.609,-0.464 -1.96,-1.042 -0.668,-1.1 -0.067,-2.717 -0.061,-2.734 L 58.952,31.32 c -0.031,0.08 -0.736,1.964 0.117,3.375 0.474,0.784 1.316,1.253 2.505,1.394 1.451,0.173 2.356,0.574 2.691,1.191 0.328,0.604 0.171,1.512 -0.493,2.859 -0.655,1.33 -0.714,2.619 -0.168,3.625 0.375,0.691 1.219,1.562 3.108,1.789 l 0.087,-0.73 c -1.249,-0.15 -2.13,-0.638 -2.549,-1.409 z"
       id="path16"
       inkscape:connector-curvature="0" /><path
       d="m 38.107,48.997 c 0.669,0.156 1.244,0.878 1.81,2.269 0.557,1.374 1.479,2.275 2.594,2.537 0.194,0.046 0.416,0.077 0.664,0.077 0.729,0 1.674,-0.267 2.738,-1.21 l -0.488,-0.55 c -0.942,0.833 -1.892,1.166 -2.747,0.967 -0.877,-0.206 -1.615,-0.951 -2.08,-2.098 -0.452,-1.114 -1.126,-2.428 -2.324,-2.709 -0.938,-0.223 -2.033,0.232 -3.335,1.385 -0.058,0.051 -0.114,0.084 -0.172,0.131 l -1.414,1.396 c 0.693,-0.044 1.387,-0.368 2.073,-0.975 1.096,-0.97 1.993,-1.383 2.681,-1.22 z"
       id="path18"
       inkscape:connector-curvature="0" /><path
       d="m 71.597,30.68 c -0.777,0.255 -1.345,0.689 -1.685,1.303 -0.799,1.443 -0.024,3.299 0.01,3.378 l 0.677,-0.289 c -0.007,-0.016 -0.667,-1.609 -0.042,-2.736 0.275,-0.494 0.785,-0.828 1.494,-1.015 C 72.05,31.32 72.05,31.319 72.049,31.318 71.93,31.134 71.767,30.912 71.597,30.68 Z"
       id="path20"
       inkscape:connector-curvature="0" /><path
       d="m 58.186,54.297 c -0.382,-0.589 -0.301,-1.576 0.241,-2.934 0.442,-1.11 0.432,-2.074 -0.03,-2.864 -0.833,-1.424 -2.828,-1.706 -2.912,-1.718 l -0.098,0.73 c 0.017,0.002 1.727,0.248 2.376,1.361 0.341,0.585 0.334,1.33 -0.019,2.218 -0.645,1.614 -0.702,2.794 -0.175,3.606 0.401,0.619 1.09,0.931 1.834,1.095 l 0.645,-0.637 c -0.965,-0.129 -1.569,-0.406 -1.862,-0.857 z"
       id="path22"
       inkscape:connector-curvature="0" /><path
       d="m 43.785,48.653 c -1.202,-0.465 -1.715,-2.113 -1.72,-2.13 l -0.705,0.212 c 0.025,0.082 0.618,2.005 2.156,2.603 0.853,0.331 1.806,0.188 2.833,-0.424 1.254,-0.75 2.218,-0.983 2.857,-0.703 0.628,0.278 1.06,1.094 1.357,2.567 0.293,1.454 1.031,2.51 2.08,2.974 0.314,0.14 0.721,0.251 1.216,0.251 0.635,0 1.416,-0.184 2.334,-0.732 l -0.378,-0.633 c -1.077,0.644 -2.071,0.798 -2.874,0.441 -0.812,-0.359 -1.416,-1.251 -1.656,-2.447 -0.239,-1.179 -0.657,-2.596 -1.781,-3.094 -0.884,-0.39 -2.04,-0.148 -3.532,0.744 -0.82,0.49 -1.557,0.614 -2.187,0.371 z"
       id="path24"
       inkscape:connector-curvature="0" /><path
       d="m 40.182,69.356 c -0.812,-0.359 -1.416,-1.251 -1.656,-2.447 -0.239,-1.179 -0.657,-2.596 -1.781,-3.094 -0.884,-0.39 -2.04,-0.148 -3.532,0.744 -0.819,0.491 -1.557,0.614 -2.186,0.371 -1.202,-0.465 -1.715,-2.113 -1.72,-2.13 l -0.705,0.212 c 0.025,0.082 0.618,2.005 2.156,2.603 0.851,0.331 1.806,0.189 2.833,-0.424 1.255,-0.75 2.217,-0.983 2.857,-0.704 0.628,0.278 1.06,1.094 1.357,2.567 0.293,1.454 1.032,2.51 2.08,2.974 0.314,0.139 0.721,0.251 1.215,0.251 0.636,0 1.417,-0.185 2.335,-0.733 l -0.378,-0.633 c -1.078,0.646 -2.072,0.798 -2.875,0.443 z"
       id="path26"
       inkscape:connector-curvature="0" /><path
       d="m 69.918,39.863 c 0.357,-1.141 0.275,-2.101 -0.246,-2.854 -0.938,-1.356 -2.946,-1.487 -3.031,-1.491 l -0.042,0.734 c 0.017,10e-4 1.732,0.112 2.467,1.176 0.385,0.557 0.435,1.303 0.149,2.215 -0.521,1.656 -0.489,2.836 0.096,3.607 0.421,0.553 1.079,0.814 1.786,0.932 0.065,-0.071 0.123,-0.134 0.194,-0.211 0.109,-0.148 0.226,-0.306 0.342,-0.464 -0.869,-0.075 -1.432,-0.303 -1.736,-0.703 -0.424,-0.559 -0.417,-1.548 0.021,-2.941 z"
       id="path28"
       inkscape:connector-curvature="0" /><path
       d="m 61.607,46.8 c -0.942,0.149 -1.672,-0.014 -2.166,-0.477 -0.94,-0.882 -0.797,-2.602 -0.795,-2.62 l -0.733,-0.068 c -0.008,0.085 -0.18,2.09 1.022,3.221 0.667,0.629 1.601,0.855 2.785,0.671 1.443,-0.223 2.423,-0.081 2.911,0.424 0.41,0.423 0.52,1.182 0.373,2.31 L 65.815,49.46 C 65.821,48.702 65.67,47.966 65.16,47.439 64.487,46.743 63.324,46.535 61.607,46.8 Z"
       id="path30"
       inkscape:connector-curvature="0" /><path
       d="m 48.309,43.832 c 0.623,-0.264 1.362,-0.165 2.198,0.297 1.521,0.842 2.684,1.044 3.556,0.623 1.108,-0.536 1.477,-1.966 1.675,-3.152 0.203,-1.22 0.762,-2.109 1.572,-2.501 0.789,-0.383 1.789,-0.265 2.89,0.344 l 0.356,-0.644 c -1.666,-0.921 -2.859,-0.705 -3.567,-0.362 -1.031,0.498 -1.733,1.579 -1.978,3.042 -0.247,1.482 -0.65,2.311 -1.269,2.611 -0.63,0.306 -1.6,0.104 -2.88,-0.605 -1.047,-0.578 -2.005,-0.689 -2.845,-0.329 -1.517,0.649 -2.045,2.591 -2.067,2.673 l 0.712,0.189 c 0.005,-0.017 0.462,-1.682 1.647,-2.186 z"
       id="path32"
       inkscape:connector-curvature="0" /><path
       d="m 47.786,67.262 1.136,-1.121 c 0.273,-0.545 0.638,-0.959 1.11,-1.186 0.041,-0.02 0.09,-0.023 0.132,-0.04 l 0.93,-0.918 c -0.491,-0.003 -0.957,0.091 -1.381,0.295 -0.703,0.337 -1.602,1.13 -1.927,2.97 z"
       id="path34"
       inkscape:connector-curvature="0" /><path
       d="m 41.926,72.749 c 0.113,-0.087 0.226,-0.165 0.339,-0.246 -0.57,0.184 -1.005,0.45 -1.306,0.802 0.281,-0.149 0.619,-0.354 0.967,-0.556 z"
       id="path36"
       inkscape:connector-curvature="0" /><polygon
       points="46.444,68.587 46.445,68.586 46.444,68.586 "
       id="polygon38" /><path
       d="m 30.925,55.711 c 0.918,0.3 2.045,-0.055 3.443,-1.089 0.768,-0.569 1.487,-0.766 2.14,-0.586 1.241,0.343 1.914,1.932 1.921,1.949 l 0.681,-0.281 c -0.033,-0.079 -0.812,-1.934 -2.401,-2.376 -0.883,-0.244 -1.817,-0.009 -2.778,0.702 -1.175,0.87 -2.108,1.203 -2.775,0.982 -0.331,-0.109 -0.624,-0.361 -0.891,-0.768 l -0.323,0.319 c 0,0 -0.081,0.08 -0.206,0.204 0.306,0.43 0.689,0.78 1.189,0.944 z"
       id="path40"
       inkscape:connector-curvature="0" /><path
       d="m 30.1,57.945 c 0.744,1.285 1.782,2.05 2.923,2.155 0.082,0.008 0.17,0.013 0.262,0.013 0.773,0 1.843,-0.311 2.948,-1.602 l -0.56,-0.479 c -0.815,0.955 -1.702,1.419 -2.583,1.336 -0.897,-0.082 -1.732,-0.719 -2.353,-1.79 -0.44,-0.762 -1.014,-1.609 -1.769,-2.055 -0.174,0.172 -0.358,0.354 -0.543,0.536 -0.002,0.003 -0.005,0.005 -0.007,0.008 0.541,0.24 1.085,0.846 1.682,1.878 z"
       id="path42"
       inkscape:connector-curvature="0" /><path
       d="m 25.593,61.009 c -0.005,0.02 -0.009,0.035 -0.014,0.056 -0.04,0.16 -0.088,0.347 -0.138,0.548 -0.007,0.049 -0.015,0.103 -0.022,0.153 0.474,0.275 0.923,0.701 1.322,1.308 l 0.615,-0.404 c -0.581,-0.885 -1.195,-1.382 -1.763,-1.661 z"
       id="path44"
       inkscape:connector-curvature="0" /><path
       d="m 76.241,38.18 c 0,0 0.065,-0.308 0.076,-0.622 0.017,-0.313 0.033,-0.626 0.033,-0.626 l 0.558,0.022 1.423,0.055 c 0.471,0.024 0.909,-0.411 0.871,-0.973 -0.022,-0.562 -0.429,-0.978 -0.907,-0.929 l -1.418,0.127 -0.557,0.05 -0.174,-1.242 c 0,0 -0.072,-0.305 -0.145,-0.61 -0.073,-0.305 -0.15,-0.609 -0.15,-0.609 l 0.536,-0.157 1.366,-0.401 c 0.46,-0.129 0.689,-0.667 0.506,-1.2 -0.166,-0.539 -0.747,-0.78 -1.171,-0.586 l -1.303,0.575 -0.511,0.226 c 0,0 -0.129,-0.285 -0.259,-0.57 -0.133,-0.283 -0.303,-0.548 -0.303,-0.548 0,0 -0.157,-0.271 -0.314,-0.542 -0.16,-0.269 -0.356,-0.515 -0.356,-0.515 l 0.457,-0.322 1.163,-0.821 c 0.392,-0.27 0.449,-0.865 0.108,-1.313 -0.372,-0.423 -0.958,-0.497 -1.306,-0.168 l -1.047,0.965 -0.411,0.379 c 0,0 -0.052,-0.059 -0.13,-0.146 -0.077,-0.089 -0.18,-0.207 -0.301,-0.308 -0.231,-0.211 -0.463,-0.423 -0.463,-0.423 0,0 -0.221,-0.224 -0.472,-0.412 -0.252,-0.187 -0.503,-0.374 -0.503,-0.374 l 0.328,-0.452 0.837,-1.152 c 0.277,-0.371 0.168,-0.994 -0.326,-1.269 -0.483,-0.291 -1.058,-0.18 -1.281,0.243 l -0.679,1.252 -0.266,0.491 c 0,0 -0.278,-0.144 -0.562,-0.275 -0.283,-0.133 -0.567,-0.267 -0.567,-0.267 0,0 -0.291,-0.115 -0.587,-0.218 -0.295,-0.105 -0.591,-0.21 -0.591,-0.21 l 0.164,-0.534 0.419,-1.361 c 0.15,-0.467 -0.175,-0.944 -0.721,-1.081 -0.543,-0.15 -1.057,0.176 -1.133,0.648 l -0.241,1.403 -0.094,0.551 c 0,0 -0.31,-0.047 -0.62,-0.093 -0.309,-0.061 -0.624,-0.058 -0.624,-0.058 0,0 -0.313,-0.017 -0.626,-0.034 -0.157,-0.014 -0.313,-0.013 -0.431,-0.003 -0.118,0.005 -0.196,0.008 -0.196,0.008 L 63.33,23.19 63.294,21.767 c -0.006,-0.478 -0.467,-0.849 -1.028,-0.82 -0.557,0.072 -0.945,0.518 -0.867,0.99 l 0.217,1.407 0.085,0.552 c 0,0 -0.078,0.011 -0.194,0.026 -0.117,0.011 -0.271,0.04 -0.423,0.081 -0.305,0.072 -0.61,0.144 -0.61,0.144 -0.01,-0.034 -1.197,0.371 -1.197,0.371 l -0.192,-0.525 -0.488,-1.337 c -0.159,-0.451 -0.724,-0.681 -1.232,-0.434 -0.512,0.235 -0.747,0.761 -0.516,1.193 l 0.658,1.263 0.258,0.496 -1.081,0.633 -1.013,0.738 L 55.32,26.11 54.425,25.003 C 54.129,24.628 53.546,24.624 53.126,25 c -0.442,0.387 -0.407,0.914 -0.078,1.258 l 1,1.013 0.393,0.398 -0.931,0.919 -0.931,0.92 -0.393,-0.398 -1,-1.013 c -0.336,-0.34 -0.882,-0.345 -1.22,-0.011 -0.338,0.334 -0.341,0.88 -0.005,1.22 l 1,1.013 0.393,0.398 -0.931,0.919 -0.931,0.92 -0.393,-0.398 -1,-1.013 c -0.336,-0.34 -0.882,-0.345 -1.22,-0.011 -0.338,0.334 -0.341,0.88 -0.005,1.22 l 1,1.013 0.393,0.398 -0.931,0.919 -0.931,0.92 -0.393,-0.398 -1,-1.013 c -0.336,-0.34 -0.882,-0.345 -1.22,-0.011 -0.338,0.334 -0.341,0.88 -0.005,1.22 l 1,1.013 0.393,0.398 -0.931,0.919 -0.931,0.92 -0.393,-0.398 -1,-1.013 c -0.336,-0.34 -0.882,-0.345 -1.22,-0.011 -0.338,0.334 -0.341,0.88 -0.005,1.22 l 1,1.013 0.393,0.398 -0.931,0.919 -0.931,0.92 -0.393,-0.398 -1,-1.013 c -0.336,-0.34 -0.882,-0.345 -1.22,-0.011 -0.338,0.334 -0.341,0.88 -0.005,1.22 l 1,1.013 0.393,0.398 -0.931,0.919 -0.931,0.92 -0.393,-0.398 -1,-1.013 c -0.336,-0.34 -0.882,-0.345 -1.22,-0.011 -0.338,0.334 -0.341,0.88 -0.005,1.22 l 1,1.013 0.393,0.398 -0.931,0.919 -0.931,0.92 -0.393,-0.398 -1,-1.013 c -0.336,-0.34 -0.882,-0.345 -1.22,-0.011 -0.338,0.334 -0.341,0.88 -0.005,1.22 l 1,1.013 0.393,0.398 -0.931,0.919 -0.931,0.92 -0.393,-0.398 -1,-1.013 c -0.336,-0.34 -0.882,-0.345 -1.22,-0.011 -0.338,0.334 -0.341,0.88 -0.005,1.22 l 1,1.013 0.393,0.398 -0.931,0.919 -0.931,0.92 -0.397,-0.392 -1,-1.013 c -0.336,-0.34 -0.882,-0.345 -1.22,-0.011 -0.383,0.412 -0.398,1.004 -0.037,1.318 l 1.064,0.946 0.418,0.371 c 0,0 -0.224,0.221 -0.411,0.472 -0.187,0.252 -0.373,0.503 -0.373,0.503 0,0 -0.199,0.244 -0.363,0.51 -0.161,0.269 -0.321,0.538 -0.321,0.538 L 24.76,56.852 23.53,56.135 c -0.398,-0.239 -1.005,-0.067 -1.23,0.451 -0.242,0.509 -0.074,1.07 0.369,1.25 l 1.313,0.551 0.515,0.216 c 0,0 -0.114,0.292 -0.218,0.587 -0.105,0.295 -0.21,0.59 -0.21,0.59 0,0 -0.081,0.303 -0.158,0.607 -0.076,0.304 -0.152,0.608 -0.152,0.608 l -0.548,-0.111 -1.395,-0.283 c -0.476,-0.102 -0.92,0.268 -1.005,0.823 -0.098,0.555 0.283,1.035 0.757,1.063 l 1.42,0.102 0.557,0.04 c 0,0 -0.017,0.313 -0.034,0.626 -0.014,0.156 -0.012,0.313 -0.003,0.431 0.005,0.117 0.008,0.196 0.008,0.196 0,0 0.013,0.313 0.026,0.627 0.007,0.314 0.068,0.623 0.068,0.623 l -0.555,0.068 -1.413,0.174 c -0.473,0.053 -0.803,0.549 -0.715,1.103 0.126,0.548 0.606,0.891 1.068,0.767 l 1.379,-0.355 0.541,-0.139 c -0.034,0.01 0.371,1.196 0.371,1.196 -0.033,0.013 0.487,1.154 0.487,1.154 l -0.503,0.243 -1.282,0.619 c -0.434,0.203 -0.604,0.788 -0.308,1.269 0.285,0.487 0.832,0.669 1.239,0.395 l 1.19,-0.781 0.467,-0.307 0.738,1.013 0.834,0.936 -0.398,0.392 -1.013,1 c -0.345,0.332 -0.289,0.912 0.127,1.291 0.406,0.391 1.016,0.346 1.305,-0.034 l 0.875,-1.123 0.344,-0.441 c 0,0 1.003,0.751 1.024,0.72 0,0 1.074,0.647 1.091,0.615 l -0.25,0.5 -0.636,1.274 c -0.219,0.425 0.017,0.966 0.529,1.203 0.522,0.211 1.08,-0.018 1.229,-0.467 l 0.465,-1.346 0.182,-0.528 c 0,0 0.292,0.117 0.594,0.199 0.304,0.076 0.608,0.151 0.608,0.151 0,0 0.301,0.09 0.611,0.138 0.31,0.046 0.62,0.093 0.62,0.093 l -0.075,0.556 -0.194,1.411 c -0.07,0.463 0.321,0.948 0.883,0.963 0.561,0.032 1.015,-0.335 1.013,-0.813 l 0.012,-1.424 0.005,-0.559 1.253,-0.05 1.242,-0.174 0.104,0.549 0.264,1.399 c 0.083,0.471 0.595,0.751 1.143,0.62 0.552,-0.114 0.85,-0.663 0.699,-1.106 l -0.443,-1.353 -0.174,-0.531 c 0,0 0.297,-0.101 0.593,-0.202 0.296,-0.102 0.576,-0.246 0.576,-0.246 0,0 0.285,-0.13 0.571,-0.259 0.284,-0.132 0.548,-0.303 0.548,-0.303 l 0.275,0.486 0.701,1.239 c 0.229,0.417 0.816,0.534 1.295,0.238 0.459,-0.327 0.592,-0.904 0.299,-1.282 L 44.188,74.146 43.852,73.7 c 0,0 0.064,-0.046 0.159,-0.115 0.099,-0.065 0.221,-0.162 0.334,-0.271 0.234,-0.209 0.468,-0.417 0.468,-0.417 0,0 0.235,-0.195 0.468,-0.43 0.233,-0.23 0.466,-0.46 0.466,-0.46 l 0.393,0.398 1,1.013 c 0.336,0.34 0.882,0.345 1.22,0.011 0.338,-0.334 0.341,-0.88 0.005,-1.22 l -1,-1.013 -0.393,-0.398 0.931,-0.919 0.931,-0.92 0.393,0.398 1,1.013 c 0.336,0.34 0.882,0.345 1.22,0.011 0.338,-0.334 0.341,-0.88 0.005,-1.22 l -1,-1.013 -0.392,-0.398 0.931,-0.919 0.931,-0.92 0.393,0.398 1,1.013 c 0.336,0.34 0.882,0.345 1.22,0.011 0.338,-0.334 0.341,-0.88 0.005,-1.22 l -1,-1.013 -0.393,-0.398 0.931,-0.919 0.931,-0.92 0.393,0.398 1,1.013 c 0.336,0.34 0.882,0.345 1.22,0.011 0.338,-0.334 0.341,-0.88 0.005,-1.22 l -1,-1.013 -0.393,-0.398 0.931,-0.919 0.931,-0.92 0.393,0.398 1,1.013 c 0.336,0.34 0.882,0.345 1.22,0.011 0.338,-0.334 0.341,-0.88 0.005,-1.22 l -1,-1.013 -0.393,-0.398 0.931,-0.919 0.931,-0.92 0.393,0.398 1,1.013 c 0.336,0.34 0.882,0.345 1.22,0.011 0.338,-0.334 0.341,-0.88 0.005,-1.22 l -1,-1.013 -0.393,-0.398 0.931,-0.919 0.931,-0.92 0.393,0.398 1,1.013 c 0.336,0.34 0.882,0.345 1.22,0.011 0.338,-0.334 0.341,-0.88 0.005,-1.22 l -1,-1.013 -0.388,-0.402 0.931,-0.919 0.931,-0.92 0.393,0.398 1,1.013 c 0.336,0.34 0.882,0.345 1.22,0.011 0.338,-0.334 0.341,-0.88 0.005,-1.22 l -1,-1.013 -0.393,-0.398 0.931,-0.919 0.931,-0.92 0.393,0.398 1,1.013 c 0.336,0.34 0.882,0.345 1.22,0.011 0.338,-0.334 0.341,-0.88 0.005,-1.22 l -1,-1.013 -0.393,-0.398 0.931,-0.919 0.846,-0.925 0.43,0.357 1.095,0.91 c 0.371,0.316 0.937,0.198 1.274,-0.254 0.348,-0.445 0.245,-1.045 -0.163,-1.295 l -1.205,-0.759 -0.473,-0.298 c 0,0 0.646,-1.073 0.614,-1.091 0,0 0.536,-1.133 0.503,-1.147 l 0.522,0.199 1.331,0.506 c 0.445,0.175 0.96,-0.113 1.145,-0.644 0.154,-0.541 -0.124,-1.072 -0.587,-1.176 l -1.385,-0.33 -0.544,-0.129 c 0,0 0.091,-0.301 0.138,-0.611 0.048,-0.314 0.095,-0.624 0.095,-0.624 z m -1.647,-0.792 c -10e-4,0.169 -0.03,0.308 -0.044,0.405 -0.015,0.097 -0.024,0.153 -0.024,0.153 0,0 -0.033,0.222 -0.082,0.556 -0.064,0.331 -0.182,0.765 -0.294,1.199 -0.272,0.858 -0.673,1.66 -0.673,1.66 0,0 -0.077,0.213 -0.262,0.494 -0.181,0.283 -0.379,0.688 -0.668,1.033 -0.133,0.18 -0.266,0.361 -0.39,0.53 -0.142,0.155 -0.275,0.3 -0.389,0.424 -0.226,0.25 -0.377,0.416 -0.377,0.416 l -3.088,3.049 -3.088,3.049 -3.088,3.049 -3.088,3.049 -3.088,3.049 -3.088,3.049 -3.087,3.048 -3.088,3.049 c 0,0 -0.772,0.762 -1.544,1.524 -0.386,0.381 -0.772,0.762 -1.061,1.048 -0.293,0.291 -0.433,0.389 -0.441,0.405 0,0 -0.167,0.15 -0.418,0.374 -0.248,0.228 -0.632,0.464 -0.986,0.738 -0.387,0.225 -0.769,0.46 -1.068,0.613 -0.306,0.138 -0.511,0.23 -0.511,0.23 0,0 -0.197,0.109 -0.515,0.219 -0.324,0.09 -0.733,0.287 -1.177,0.368 -0.436,0.11 -0.874,0.21 -1.212,0.237 -0.334,0.047 -0.557,0.079 -0.557,0.079 0,0 -0.225,0.008 -0.562,0.021 -0.337,0.032 -0.787,0.013 -1.236,-0.018 -0.452,0 -0.891,-0.121 -1.227,-0.152 -0.333,-0.053 -0.548,-0.124 -0.548,-0.124 0,0 -0.218,-0.054 -0.545,-0.134 -0.32,-0.102 -0.743,-0.254 -1.162,-0.413 -0.827,-0.353 -1.584,-0.834 -1.584,-0.834 0,0 -0.204,-0.097 -0.465,-0.31 -0.071,-0.056 -0.164,-0.123 -0.249,-0.184 0.034,-0.092 0.065,-0.188 0.12,-0.263 0.414,-0.567 1.365,-0.841 2.825,-0.82 1.206,0.017 2.094,-0.334 2.667,-1.049 1.034,-1.285 0.586,-3.247 0.567,-3.33 l -0.716,0.169 c 0.004,0.017 0.387,1.692 -0.424,2.7 -0.424,0.527 -1.117,0.779 -2.082,0.773 -1.742,-0.029 -2.859,0.339 -3.43,1.121 -0.049,0.067 -0.085,0.14 -0.122,0.213 -0.038,-0.036 -0.08,-0.062 -0.117,-0.1 -0.339,-0.295 -0.662,-0.607 -0.873,-0.871 -0.225,-0.25 -0.375,-0.417 -0.375,-0.417 0,0 -0.131,-0.182 -0.329,-0.453 -0.099,-0.136 -0.215,-0.294 -0.339,-0.463 -0.105,-0.182 -0.216,-0.376 -0.328,-0.57 -0.247,-0.375 -0.399,-0.8 -0.548,-1.102 0.849,-0.898 1.109,-2.169 1.121,-2.235 l -0.724,-0.134 c -0.002,0.012 -0.178,0.877 -0.692,1.588 -0.027,-0.078 -0.057,-0.166 -0.092,-0.27 -0.12,-0.315 -0.187,-0.763 -0.305,-1.196 -0.057,-0.446 -0.137,-0.89 -0.157,-1.226 -0.013,-0.337 -0.022,-0.562 -0.022,-0.562 0,0 -0.032,-0.903 0.1,-1.794 0.033,-0.223 0.065,-0.445 0.096,-0.654 0.051,-0.204 0.099,-0.395 0.141,-0.558 0.081,-0.327 0.14,-0.544 0.14,-0.544 0,0 0.076,-0.211 0.19,-0.528 0.094,-0.325 0.292,-0.727 0.484,-1.132 0.176,-0.413 0.45,-0.774 0.606,-1.071 0.177,-0.285 0.324,-0.456 0.324,-0.456 0,0 0.133,-0.18 0.333,-0.45 0.209,-0.263 0.529,-0.58 0.823,-0.919 0.772,-0.762 1.544,-1.524 1.544,-1.524 l 3.088,-3.049 3.088,-3.049 3.088,-3.049 3.088,-3.049 3.088,-3.049 3.088,-3.049 3.088,-3.049 3.088,-3.049 c 0,0 0.193,-0.191 0.482,-0.476 0.277,-0.265 0.706,-0.72 1.02,-0.977 0.33,-0.305 0.668,-0.6 0.952,-0.782 0.271,-0.198 0.452,-0.33 0.452,-0.33 0,0 0.193,-0.113 0.483,-0.283 0.145,-0.085 0.314,-0.184 0.495,-0.29 0.192,-0.086 0.396,-0.178 0.6,-0.27 0.816,-0.372 1.692,-0.587 1.692,-0.587 0,0 0.219,-0.052 0.546,-0.13 0.327,-0.083 0.779,-0.112 1.222,-0.187 0.45,-0.006 0.9,-0.054 1.237,-0.034 0.337,0.019 0.562,0.031 0.562,0.031 0,0 0.902,0.056 1.774,0.276 0.218,0.054 0.436,0.108 0.641,0.159 0.198,0.071 0.383,0.138 0.541,0.195 0.318,0.11 0.526,0.193 0.526,0.193 0,0 0.203,0.096 0.506,0.24 0.314,0.124 0.693,0.364 1.078,0.594 0.393,0.216 0.725,0.525 1.005,0.711 0.268,0.202 0.422,0.368 0.422,0.368 0,0 0.166,0.151 0.415,0.378 0.247,0.229 0.525,0.584 0.833,0.91 0.26,0.364 0.534,0.72 0.716,1.002 0.168,0.291 0.279,0.485 0.279,0.485 0,0 0.127,0.186 0.27,0.49 0.122,0.313 0.355,0.701 0.482,1.133 0.148,0.424 0.296,0.847 0.355,1.181 0.079,0.328 0.131,0.546 0.131,0.546 0,0 0.03,0.223 0.077,0.557 0.063,0.333 0.094,0.781 0.102,1.232 0.045,0.449 -0.031,0.898 -0.032,1.236 z"
       id="path46"
       inkscape:connector-curvature="0" /><path
       d="M 87.628,25.346 C 81.043,15.295 70.937,8.41 59.174,5.96 56.135,5.326 53.033,5.006 49.956,5.006 28.787,5.006 10.284,20.071 5.961,40.826 3.51,52.59 5.788,64.603 12.373,74.654 c 6.585,10.051 16.69,16.936 28.454,19.386 3.039,0.634 6.141,0.954 9.218,0.954 21.169,0 39.672,-15.065 43.995,-35.82 2.451,-11.764 0.173,-23.777 -6.412,-33.828 z m 3.57,33.236 c -4.045,19.417 -21.353,33.509 -41.154,33.509 -2.879,0 -5.782,-0.3 -8.627,-0.893 C 30.413,88.906 20.96,82.465 14.8,73.063 8.64,63.661 6.509,52.422 8.802,41.418 12.846,22.001 30.154,7.909 49.956,7.909 c 2.879,0 5.782,0.3 8.627,0.893 11.004,2.292 20.457,8.732 26.617,18.135 6.16,9.402 8.291,20.641 5.998,31.645 z"
       id="path48"
       inkscape:connector-curvature="0" /><path
       d="m 14.3,46.288 1.498,-1.299 c 0,0 0.203,0.21 0.404,0.421 0.223,0.187 0.447,0.375 0.447,0.375 0,0 0.243,0.161 0.487,0.321 0.256,0.14 0.518,0.267 0.518,0.267 l -0.819,1.806 c -0.205,0.42 0.104,1.017 0.738,1.192 0.631,0.182 1.206,-0.126 1.263,-0.604 l 0.287,-1.962 c 0,0 0.29,0.043 0.582,0.052 0.146,0.002 0.292,0.004 0.402,0.006 0.109,-0.009 0.182,-0.015 0.182,-0.015 0.005,0.033 1.157,-0.162 1.148,-0.2 l 0.546,1.906 c 0.122,0.47 0.732,0.697 1.34,0.437 0.599,-0.279 0.838,-0.886 0.568,-1.291 l -1.058,-1.677 c 0.019,0.029 0.932,-0.692 0.945,-0.732 l 0.965,-0.853 1.314,1.485 c 0.317,0.358 0.857,0.397 1.207,0.087 0.35,-0.31 0.378,-0.851 0.061,-1.209 l -1.314,-1.485 0.964,-0.853 0.965,-0.853 1.314,1.485 c 0.317,0.358 0.857,0.397 1.208,0.087 0.35,-0.31 0.378,-0.851 0.061,-1.209 l -1.314,-1.485 0.964,-0.853 0.965,-0.853 1.314,1.485 c 0.317,0.358 0.857,0.397 1.208,0.087 0.351,-0.31 0.378,-0.851 0.061,-1.209 l -1.314,-1.485 0.964,-0.853 0.965,-0.853 1.314,1.485 c 0.317,0.358 0.857,0.397 1.207,0.087 0.35,-0.31 0.378,-0.851 0.061,-1.209 l -1.314,-1.485 0.964,-0.853 c 0,0 0.208,-0.205 0.415,-0.411 0.185,-0.226 0.368,-0.452 0.368,-0.452 l 1.6,1.17 c 0.366,0.285 1.02,0.106 1.317,-0.484 0.317,-0.579 0.111,-1.214 -0.332,-1.36 l -1.864,-0.676 c 0,0 0.084,-0.28 0.167,-0.56 0.061,-0.286 0.107,-0.574 0.107,-0.574 0.025,0.002 0.079,-1.167 0.033,-1.166 l 1.977,-0.15 c 0.48,-0.024 0.834,-0.576 0.698,-1.22 -0.148,-0.641 -0.694,-0.999 -1.144,-0.818 l -1.858,0.693 c 0.03,-0.014 -0.486,-1.06 -0.522,-1.04 0.034,-0.025 -0.708,-0.927 -0.733,-0.905 l 1.399,-1.405 c 0.352,-0.336 0.252,-0.979 -0.271,-1.383 -0.536,-0.388 -1.182,-0.3 -1.404,0.132 l -0.949,1.74 c 0.017,-0.036 -1.064,-0.477 -1.076,-0.446 0,0 -0.07,-0.022 -0.174,-0.054 -0.107,-0.022 -0.251,-0.052 -0.394,-0.081 -0.287,-0.055 -0.579,-0.075 -0.579,-0.075 l 0.145,-1.977 c 0.048,-0.48 -0.446,-0.904 -1.101,-0.864 -0.656,0.034 -1.087,0.547 -0.979,1.003 l 0.405,1.941 c 0,0 -0.284,0.067 -0.564,0.148 -0.273,0.103 -0.545,0.207 -0.545,0.207 0,0 -0.259,0.134 -0.518,0.268 -0.245,0.159 -0.486,0.322 -0.486,0.322 l -1.179,-1.594 c -0.141,-0.193 -0.365,-0.293 -0.624,-0.286 -0.129,0.003 -0.266,0.033 -0.403,0.088 -0.111,0.038 -0.206,0.091 -0.295,0.17 -0.35,0.31 -0.378,0.851 -0.061,1.209 l 1.314,1.485 -0.964,0.853 -0.965,0.853 -1.314,-1.485 c -0.317,-0.358 -0.857,-0.397 -1.208,-0.087 -0.35,0.31 -0.378,0.851 -0.061,1.209 l 1.314,1.485 -0.964,0.853 -0.965,0.853 -1.314,-1.485 C 21.7,29.265 21.16,29.226 20.81,29.536 c -0.35,0.31 -0.378,0.851 -0.061,1.209 l 1.314,1.485 -0.963,0.853 -0.965,0.853 -1.314,-1.485 c -0.317,-0.358 -0.857,-0.397 -1.208,-0.087 -0.35,0.31 -0.378,0.851 -0.061,1.209 l 1.314,1.485 -0.964,0.853 -0.965,0.853 -1.314,-1.485 c -0.317,-0.358 -0.857,-0.397 -1.208,-0.087 -0.485,0.445 -0.534,1.093 -0.155,1.4 l 1.509,1.285 c -0.028,-0.021 -0.688,0.941 -0.654,0.962 -0.042,-0.019 -0.461,1.071 -0.436,1.08 l -1.908,-0.538 c -0.462,-0.143 -0.977,0.256 -1.07,0.905 -0.091,0.65 0.315,1.172 0.789,1.158 l 1.983,-0.007 c 0,0 -0.001,0.073 -0.002,0.183 0.009,0.109 0.021,0.255 0.033,0.401 0.031,0.29 0.092,0.576 0.092,0.576 0,0 0.077,0.281 0.153,0.563 0.11,0.27 0.217,0.542 0.217,0.542 l -1.802,0.828 c -0.427,0.181 -0.588,0.838 -0.218,1.386 0.351,0.563 1.012,0.687 1.354,0.372 z m 1.938,-5.382 c 0.08,-0.668 0.406,-1.253 0.406,-1.253 0,0 0.308,-0.588 0.806,-1.032 0.799,-0.707 1.599,-1.414 1.599,-1.414 l 3.198,-2.829 3.198,-2.829 3.198,-2.829 c 0,0 0.799,-0.707 1.599,-1.414 0.091,-0.078 0.22,-0.199 0.278,-0.241 0.064,-0.051 0.127,-0.1 0.187,-0.148 0.117,-0.103 0.25,-0.162 0.349,-0.237 0.218,-0.114 0.363,-0.191 0.363,-0.191 0,0 0.154,-0.057 0.385,-0.144 0.238,-0.064 0.559,-0.159 0.893,-0.166 0.332,-0.028 0.667,0.003 0.912,0.048 0.246,0.045 0.404,0.096 0.404,0.096 0,0 0.646,0.184 1.176,0.58 0.528,0.399 0.89,0.964 0.89,0.964 0,0 0.368,0.554 0.507,1.207 0.148,0.653 0.05,1.323 0.05,1.323 0,0 -0.076,0.676 -0.406,1.253 -0.143,0.298 -0.358,0.55 -0.514,0.74 -0.175,0.175 -0.292,0.292 -0.292,0.292 l -3.198,2.829 -3.198,2.829 -3.198,2.829 -3.198,2.829 c 0.015,-0.015 -0.248,0.227 -0.41,0.344 -0.186,0.166 -0.476,0.324 -0.768,0.473 -0.605,0.27 -1.279,0.31 -1.279,0.31 0,0 -0.166,0.016 -0.416,0.007 -0.249,-0.01 -0.583,-0.051 -0.9,-0.151 -0.324,-0.08 -0.615,-0.241 -0.832,-0.355 -0.206,-0.135 -0.344,-0.224 -0.344,-0.224 0,0 -0.125,-0.106 -0.314,-0.266 -0.172,-0.177 -0.408,-0.415 -0.576,-0.698 -0.378,-0.546 -0.507,-1.207 -0.507,-1.207 0,0 -0.15,-0.658 -0.048,-1.325 z"
       id="path50"
       inkscape:connector-curvature="0" /><path
       d="m 82.94,51.471 -0.863,1.785 c 0.015,-0.037 -1.086,-0.424 -1.096,-0.392 0,0 -0.071,-0.018 -0.177,-0.046 -0.108,-0.017 -0.253,-0.039 -0.397,-0.062 -0.289,-0.041 -0.582,-0.047 -0.582,-0.047 l 0.048,-1.982 c 0.025,-0.481 -0.49,-0.881 -1.141,-0.809 -0.654,0.066 -1.059,0.6 -0.928,1.049 l 0.499,1.919 c 0,0 -0.28,0.081 -0.557,0.175 -0.267,0.117 -0.535,0.233 -0.535,0.233 0,0 -0.252,0.147 -0.504,0.293 -0.237,0.171 -0.47,0.346 -0.47,0.346 l -1.255,-1.535 c -0.151,-0.185 -0.379,-0.274 -0.637,-0.255 -0.129,0.009 -0.264,0.045 -0.398,0.107 -0.109,0.044 -0.201,0.101 -0.286,0.184 -0.335,0.327 -0.336,0.868 -0.002,1.211 l 1.385,1.419 -0.921,0.899 -0.922,0.899 -1.385,-1.419 c -0.334,-0.342 -0.876,-0.354 -1.21,-0.028 -0.335,0.327 -0.336,0.868 -0.002,1.211 l 1.385,1.419 -0.921,0.899 -0.922,0.899 -1.385,-1.419 c -0.334,-0.342 -0.875,-0.354 -1.21,-0.028 -0.335,0.327 -0.336,0.868 -0.002,1.211 l 1.385,1.419 -0.921,0.899 -0.922,0.899 -1.385,-1.419 c -0.334,-0.342 -0.876,-0.354 -1.21,-0.028 -0.335,0.327 -0.336,0.868 -0.002,1.211 l 1.385,1.419 -0.921,0.899 -0.922,0.899 -1.385,-1.419 c -0.334,-0.342 -0.875,-0.354 -1.21,-0.028 -0.463,0.469 -0.48,1.118 -0.087,1.406 l 1.57,1.21 c -0.029,-0.019 -0.641,0.973 -0.607,0.993 -0.043,-0.017 -0.409,1.093 -0.383,1.1 L 60,68.624 c -0.468,-0.121 -0.963,0.304 -1.025,0.956 -0.059,0.654 0.372,1.156 0.845,1.119 l 1.98,-0.104 c 0,0 0.003,0.073 0.007,0.182 0.014,0.109 0.033,0.254 0.053,0.398 0.045,0.288 0.12,0.571 0.12,0.571 0,0 0.091,0.277 0.18,0.555 0.123,0.265 0.243,0.53 0.243,0.53 l -1.759,0.915 c -0.418,0.202 -0.546,0.866 -0.15,1.395 0.375,0.544 1.041,0.635 1.368,0.305 l 1.433,-1.37 c 0,0 0.213,0.2 0.424,0.401 0.232,0.176 0.465,0.352 0.465,0.352 0,0 0.251,0.149 0.502,0.297 0.263,0.127 0.531,0.242 0.531,0.242 l -0.73,1.843 c -0.185,0.43 0.154,1.011 0.796,1.155 0.639,0.151 1.198,-0.184 1.232,-0.665 l 0.191,-1.973 c 0,0 0.292,0.028 0.584,0.024 0.146,-0.005 0.292,-0.01 0.402,-0.014 0.109,-0.014 0.181,-0.024 0.181,-0.024 0.006,0.032 1.148,-0.218 1.137,-0.256 l 0.638,1.877 c 0.145,0.464 0.766,0.661 1.359,0.371 0.585,-0.308 0.793,-0.926 0.504,-1.317 l -1.139,-1.623 c 0.02,0.028 0.897,-0.737 0.908,-0.777 l 0.922,-0.899 1.385,1.419 c 0.334,0.342 0.875,0.354 1.21,0.028 0.335,-0.326 0.336,-0.868 0.002,-1.211 l -1.385,-1.419 0.921,-0.899 0.922,-0.899 1.385,1.419 c 0.334,0.342 0.875,0.354 1.21,0.028 0.335,-0.327 0.336,-0.868 0.002,-1.211 l -1.385,-1.419 0.921,-0.899 0.922,-0.899 1.385,1.419 c 0.334,0.342 0.876,0.354 1.21,0.028 0.335,-0.327 0.336,-0.868 0.002,-1.211 l -1.385,-1.419 0.921,-0.899 0.922,-0.899 1.385,1.419 c 0.334,0.342 0.875,0.354 1.21,0.028 0.335,-0.327 0.336,-0.868 0.002,-1.211 L 82.579,62.964 83.5,62.065 c 0,0 0.197,-0.215 0.395,-0.431 0.173,-0.235 0.345,-0.47 0.345,-0.47 l 1.656,1.091 c 0.379,0.267 1.024,0.056 1.292,-0.547 0.288,-0.594 0.052,-1.218 -0.398,-1.343 l -1.895,-0.584 c 0,0 0.07,-0.284 0.14,-0.567 0.047,-0.289 0.079,-0.579 0.079,-0.579 0.025,0.001 0.022,-1.169 -0.024,-1.167 l 1.967,-0.246 c 0.478,-0.048 0.805,-0.616 0.637,-1.252 -0.179,-0.633 -0.742,-0.964 -1.183,-0.761 l -1.822,0.782 c 0.029,-0.015 -0.537,-1.035 -0.573,-1.013 0.033,-0.027 -0.753,-0.891 -0.776,-0.869 l 1.329,-1.471 c 0.335,-0.353 0.204,-0.99 -0.338,-1.368 -0.549,-0.361 -1.19,-0.242 -1.391,0.201 z m 0.34,5.695 c 0.179,0.645 0.115,1.319 0.115,1.319 0,0 -0.043,0.679 -0.344,1.271 -0.129,0.305 -0.331,0.567 -0.477,0.764 -0.166,0.184 -0.277,0.306 -0.277,0.306 l -3.056,2.981 -3.056,2.981 -3.056,2.981 -3.056,2.981 c 0.014,-0.016 -0.237,0.239 -0.392,0.363 -0.178,0.175 -0.46,0.347 -0.744,0.51 -0.591,0.299 -1.262,0.372 -1.262,0.372 0,0 -0.165,0.024 -0.415,0.027 -0.25,0.002 -0.585,-0.022 -0.906,-0.107 -0.328,-0.064 -0.626,-0.211 -0.849,-0.314 -0.212,-0.124 -0.354,-0.207 -0.354,-0.207 0,0 -0.13,-0.1 -0.326,-0.25 -0.181,-0.168 -0.428,-0.394 -0.61,-0.669 -0.404,-0.527 -0.565,-1.18 -0.565,-1.18 0,0 -0.184,-0.648 -0.115,-1.319 0.047,-0.671 0.344,-1.271 0.344,-1.271 0,0 0.278,-0.602 0.755,-1.07 0.764,-0.745 1.528,-1.491 1.528,-1.491 l 3.056,-2.981 3.056,-2.981 3.056,-2.981 c 0,0 0.764,-0.745 1.528,-1.491 0.087,-0.083 0.21,-0.21 0.266,-0.254 0.061,-0.054 0.122,-0.106 0.18,-0.157 0.112,-0.108 0.242,-0.174 0.337,-0.253 0.212,-0.125 0.353,-0.208 0.353,-0.208 0,0 0.151,-0.065 0.378,-0.162 0.234,-0.076 0.55,-0.186 0.884,-0.209 0.33,-0.044 0.666,-0.029 0.913,0.004 0.248,0.033 0.408,0.077 0.408,0.077 0,0 0.654,0.152 1.203,0.522 0.547,0.372 0.936,0.919 0.936,0.919 0,0 0.393,0.532 0.564,1.177 z"
       id="path52"
       inkscape:connector-curvature="0" /></g></svg>