<?xml version="1.0" encoding="UTF-8" standalone="no"?>
<svg
   xmlns:dc="http://purl.org/dc/elements/1.1/"
   xmlns:cc="http://creativecommons.org/ns#"
   xmlns:rdf="http://www.w3.org/1999/02/22-rdf-syntax-ns#"
   xmlns:svg="http://www.w3.org/2000/svg"
   xmlns="http://www.w3.org/2000/svg"
   xmlns:sodipodi="http://sodipodi.sourceforge.net/DTD/sodipodi-0.dtd"
   xmlns:inkscape="http://www.inkscape.org/namespaces/inkscape"
   version="1.1"
   x="0px"
   y="0px"
   viewBox="0 0 150 150"
   style="enable-background:new 0 0 150 150;"
   xml:space="preserve"
   id="svg22"
   sodipodi:docname="nuage.svg"
   inkscape:version="0.92.3 (2405546, 2018-03-11)"><metadata
     id="metadata28"><rdf:RDF><cc:Work
         rdf:about=""><dc:format>image/svg+xml</dc:format><dc:type
           rdf:resource="http://purl.org/dc/dcmitype/StillImage" /><dc:title></dc:title></cc:Work></rdf:RDF></metadata><defs
     id="defs26" /><sodipodi:namedview
     pagecolor="#ffffff"
     bordercolor="#666666"
     borderopacity="1"
     objecttolerance="10"
     gridtolerance="10"
     guidetolerance="10"
     inkscape:pageopacity="0"
     inkscape:pageshadow="2"
     inkscape:window-width="1600"
     inkscape:window-height="836"
     id="namedview24"
     showgrid="false"
     inkscape:zoom="1.5733333"
     inkscape:cx="4.4491525"
     inkscape:cy="75"
     inkscape:window-x="0"
     inkscape:window-y="27"
     inkscape:window-maximized="1"
     inkscape:current-layer="svg22" /><style
     type="text/css"
     id="style2">
	.st0{opacity:0.99;}
	.st1{fill:none;}
	.st2{fill:none;stroke:#000000;stroke-width:2;stroke-linecap:round;stroke-linejoin:round;stroke-miterlimit:10;}
</style><g
     id="g20"
     style="fill:#870c1f;fill-opacity:1"><g
       id="g6"
       style="fill:#870c1f;fill-opacity:1"><path
         d="m 77.973633,114.8992 c 0.233398,0 0.467773,-0.081 0.657226,-0.24609 0.416016,-0.3628 0.459961,-0.99463 0.09668,-1.41065 l -6.53418,-7.49853 c -0.0068,-0.008 -0.01758,-0.0101 -0.02466,-0.0176 -0.182617,-0.19763 -0.438721,-0.32562 -0.729248,-0.32562 -0.290527,0 -0.546631,0.12799 -0.729248,0.32562 -0.0071,0.008 -0.01782,0.01 -0.02466,0.0176 l -6.53418,7.49853 c -0.363281,0.41602 -0.319336,1.04785 0.09668,1.41065 0.415039,0.36181 1.048828,0.3208 1.411133,-0.0972 l 4.780273,-5.48572 v 21.62195 c 0,0.55225 0.447266,1 1,1 0.552735,0 1,-0.44775 1,-1 v -21.62195 l 4.780274,5.48572 c 0.197265,0.22705 0.475585,0.34326 0.753906,0.34326 z"
         id="path4"
         inkscape:connector-curvature="0"
         style="fill:#870c1f;fill-opacity:1" /></g><g
       id="g10"
       style="fill:#870c1f;fill-opacity:1"><path
         d="m 47.219727,80.877716 h 61.390263 v -8.049927 c 0,-0.549987 -0.45008,-1 -1,-1 H 66.560059 L 55.449951,59.967804 C 55.270019,59.767792 55,59.647797 54.719971,59.647797 H 35.270019 c -0.550048,0 -1,0.450012 -1,1 V 115.35318 L 44.350586,82.983185 c 0.426758,-1.275391 1.574219,-2.105469 2.869141,-2.105469 z"
         id="path8"
         inkscape:connector-curvature="0"
         style="fill:#870c1f;fill-opacity:1" /></g><g
       id="g14"
       style="fill:#870c1f;fill-opacity:1"><path
         d="m 111.31006,40.237823 c -4.09009,0 -8.04004,0.849976 -11.760011,2.539978 -5.27002,-14.690002 -19.120117,-24.46997 -34.810059,-24.46997 -20.399902,0 -37,16.589966 -37,36.98999 0,0.51001 0.01001,1.02002 0.04004,1.48999 C 17.72998,58.137848 10,66.877838 10,77.107819 c 0,11.309997 9.199951,20.510009 20.520019,20.510009 h 1.749512 V 60.647736 c 0,-1.654297 1.345703,-3 3,-3 h 19.450196 c 0.844726,0 1.651367,0.356445 2.213867,0.978027 l 10.49414,11.202148 h 40.182616 c 1.6543,0 3,1.345703 3,3 v 8.049805 h 8.25 c 0.95703,0 1.86426,0.460937 2.42676,1.23291 0.54101,0.709961 0.7207,1.704102 0.4541,2.624024 l -3.76965,12.101013 C 130.70947,93.812592 140,82.291779 140,68.927826 140,53.107819 127.13,40.237823 111.31006,40.237823 Z m -16.948732,6.473389 c -0.103516,0.0332 -0.207031,0.04932 -0.30957,0.04932 -0.421875,0 -0.813477,-0.268555 -0.951172,-0.691407 -4.004883,-12.3208 -15.404297,-20.599121 -28.364258,-20.599121 -0.552734,0 -1,-0.447754 -1,-1 0,-0.552246 0.447266,-1 1,-1 13.829102,0 25.992188,8.833496 30.266602,21.980957 0.170898,0.525391 -0.117188,1.089356 -0.641602,1.260254 z"
         id="path12"
         inkscape:connector-curvature="0"
         style="fill:#870c1f;fill-opacity:1" /></g><g
       id="g18"
       style="fill:#870c1f;fill-opacity:1"><path
         d="m 119.66992,83.287811 c -0.18994,-0.26001 -0.48999,-0.409973 -0.80993,-0.409973 H 47.219971 c -0.439942,0 -0.819947,0.279968 -0.959961,0.699951 L 34.320068,121.91782 c -0.100097,0.29998 -0.04004,0.63 0.139893,0.89001 0.190063,0.26001 0.48999,0.40997 0.810059,0.40997 h 33.169433 v -8.80835 l -1.272461,1.46045 c -0.565429,0.65284 -1.391601,1.0293 -2.261718,1.0293 -0.72461,0 -1.424805,-0.26221 -1.97168,-0.73828 -0.603516,-0.52686 -0.966797,-1.25684 -1.021485,-2.05566 -0.05469,-0.80079 0.205079,-1.57422 0.732422,-2.17823 l 6.756836,-7.75342 0.107422,-0.062 c 0.535156,-0.45312 1.222656,-0.71093 1.930664,-0.71093 0.702149,0 1.383789,0.25341 1.921875,0.70459 l 0.102539,0.0581 0.235352,0.26367 6.536133,7.50147 c 0.526367,0.60254 0.786133,1.37597 0.731445,2.17676 -0.05469,0.79882 -0.417969,1.5288 -1.021484,2.05517 -0.546875,0.47656 -1.247071,0.73877 -1.97168,0.73877 -0.869141,0 -1.694336,-0.37598 -2.263672,-1.03174 l -1.270508,-1.45801 v 8.80835 h 32.480467 c 0.44007,0 0.83008,-0.28997 0.96009,-0.70996 l 11.94006,-38.330014 c 0.0898,-0.309998 0.0399,-0.640015 -0.15015,-0.890015 z"
         id="path16"
         inkscape:connector-curvature="0"
         style="fill:#870c1f;fill-opacity:1" /></g></g></svg>