<?xml version="1.0" encoding="UTF-8" standalone="no"?>
<svg
   xmlns:dc="http://purl.org/dc/elements/1.1/"
   xmlns:cc="http://creativecommons.org/ns#"
   xmlns:rdf="http://www.w3.org/1999/02/22-rdf-syntax-ns#"
   xmlns:svg="http://www.w3.org/2000/svg"
   xmlns="http://www.w3.org/2000/svg"
   xmlns:sodipodi="http://sodipodi.sourceforge.net/DTD/sodipodi-0.dtd"
   xmlns:inkscape="http://www.inkscape.org/namespaces/inkscape"
   version="1.1"
   x="0px"
   y="0px"
   viewBox="0 0 241 100"
   xml:space="preserve"
   id="svg26"
   sodipodi:docname="residus_chimiques.svg"
   width="241"
   height="100"
   inkscape:version="0.92.3 (2405546, 2018-03-11)"><metadata
     id="metadata32"><rdf:RDF><cc:Work
         rdf:about=""><dc:format>image/svg+xml</dc:format><dc:type
           rdf:resource="http://purl.org/dc/dcmitype/StillImage" /><dc:title></dc:title></cc:Work></rdf:RDF></metadata><defs
     id="defs30" /><sodipodi:namedview
     pagecolor="#ffffff"
     bordercolor="#666666"
     borderopacity="1"
     objecttolerance="10"
     gridtolerance="10"
     guidetolerance="10"
     inkscape:pageopacity="0"
     inkscape:pageshadow="2"
     inkscape:window-width="1600"
     inkscape:window-height="836"
     id="namedview28"
     showgrid="false"
     inkscape:zoom="1.475"
     inkscape:cx="50.446958"
     inkscape:cy="-42.129741"
     inkscape:window-x="0"
     inkscape:window-y="27"
     inkscape:window-maximized="1"
     inkscape:current-layer="svg26"
     showguides="true"
     inkscape:guide-bbox="true"><sodipodi:guide
       position="1.0169492,87"
       orientation="0,1"
       id="guide1976"
       inkscape:locked="false"
       inkscape:label=""
       inkscape:color="rgb(0,0,255)" /></sodipodi:namedview><rect
     style="opacity:0.57399998;fill:#b3b3b3;fill-opacity:1;stroke:none;stroke-width:4.15002537;stroke-linejoin:round;stroke-miterlimit:4;stroke-dasharray:none;stroke-dashoffset:0;stroke-opacity:1"
     id="rect4491"
     width="257.6907"
     height="118.55932"
     x="-7.0340266"
     y="-6.9799061" /><path
     style="fill:#483737;fill-rule:nonzero;stroke-width:0.01716226;image-rendering:optimizeQuality;shape-rendering:geometricPrecision;text-rendering:geometricPrecision"
     inkscape:connector-curvature="0"
     id="path6"
     d="m 129.68182,16.621241 c 0,-0.377569 0.30892,-0.68649 0.68649,-0.68649 0.37757,0 0.68649,0.308921 0.68649,0.68649 v 13.97008 c 0,4.668135 1.66474,4.874082 4.03313,5.16584 0.78947,0.102974 1.64758,0.205947 2.59151,0.446219 3.00339,0.789464 5.818,2.866097 7.87747,5.509086 2.05947,2.66015 3.36381,5.886655 3.34664,8.993024 0,2.231094 -0.0172,9.353431 -0.0343,16.819015 0,7.465583 0,15.308736 0.0343,18.998621 0.0686,8.701266 -8.78707,8.632617 -9.09599,8.632617 v 0 h -19.30755 -19.30754 c -0.0172,0 -0.0343,0 -0.0515,0 -0.80662,0 -9.113156,-0.205947 -9.044507,-8.632617 0.03432,-3.672723 0.03432,-11.447227 0.03432,-18.895648 0,-7.448421 -0.01716,-14.553596 -0.01716,-16.853339 0,-3.243667 1.355819,-6.590308 3.535426,-9.284783 2.162445,-2.677312 5.114351,-4.736784 8.306531,-5.423274 0.72082,-0.15446 1.42447,-0.240272 2.05948,-0.326083 2.38555,-0.308921 3.94732,-0.514868 3.94732,-5.148678 v -13.97008 c 0,-0.377569 0.30892,-0.68649 0.68649,-0.68649 0.37757,0 0.68649,0.308921 0.68649,0.68649 v 13.97008 c 0,5.835168 -2.04231,6.092602 -5.14868,6.504497 -0.60068,0.08581 -1.25285,0.15446 -1.9565,0.30892 -2.8661,0.617842 -5.560573,2.488528 -7.534233,4.942731 -1.990822,2.471366 -3.243667,5.509086 -3.226505,8.42667 0,2.316905 0.01716,9.422081 0.01716,16.853339 0,7.448421 0,15.240087 -0.03432,18.912811 -0.05149,7.070851 6.950718,7.259636 7.654368,7.259636 0.0172,0 0.0515,0 0.0686,0 h 19.30754 19.30754 v 0 0 c 0.0172,0 7.77451,0.188784 7.72302,-7.259636 -0.0343,-3.689886 -0.0343,-11.533039 -0.0343,-18.998622 0,-7.482746 0.0172,-14.587921 0.0343,-16.819015 0,-2.780286 -1.1842,-5.732195 -3.07204,-8.152073 -1.87069,-2.419879 -4.42787,-4.32489 -7.1395,-5.028543 -0.82379,-0.205947 -1.64758,-0.30892 -2.40272,-0.411894 -3.08921,-0.37757 -5.25165,-0.652166 -5.25165,-6.538821 v -13.97008 z"
     class="fil0" /><path
     style="fill:#483737;fill-rule:nonzero;stroke-width:0.01716226;image-rendering:optimizeQuality;shape-rendering:geometricPrecision;text-rendering:geometricPrecision"
     inkscape:connector-curvature="0"
     id="path8"
     d="m 131.4667,17.307732 h -21.93337 c -1.1842,0 -2.26542,-0.480543 -3.05488,-1.270007 -0.78947,-0.789464 -1.27001,-1.870687 -1.27001,-3.054883 v 0 c 0,-1.184196 0.48054,-2.265418 1.27001,-3.054882 0.78946,-0.7894639 1.87068,-1.2700072 3.05488,-1.2700072 h 21.93337 c 1.18419,0 2.26542,0.4805433 3.05488,1.2700072 0.78946,0.789464 1.27001,1.870686 1.27001,3.054882 v 0 c 0,1.184196 -0.48055,2.265419 -1.27001,3.054883 -0.78946,0.789464 -1.87069,1.270007 -3.05488,1.270007 z m -21.93337,-1.372981 h 21.93337 c 0.80662,0 1.5446,-0.326083 2.07663,-0.858113 0.53203,-0.53203 0.85811,-1.270007 0.85811,-2.076633 v 0 c 0,-0.806627 -0.32608,-1.544604 -0.85811,-2.076634 -0.53203,-0.53203 -1.27001,-0.858113 -2.07663,-0.858113 h -21.93337 c -0.80663,0 -1.5446,0.326083 -2.07663,0.858113 -0.53203,0.53203 -0.85812,1.270007 -0.85812,2.076634 v 0 c 0,0.806626 0.32609,1.544603 0.85812,2.076633 0.53203,0.53203 1.27,0.858113 2.07663,0.858113 z"
     class="fil0" /><path
     style="fill:#aa0000;fill-rule:nonzero;stroke-width:0.01716226;image-rendering:optimizeQuality;shape-rendering:geometricPrecision;text-rendering:geometricPrecision"
     inkscape:connector-curvature="0"
     id="path10"
     d="m 110.71753,62.32434 c -0.25744,-1.304332 -0.77231,-2.763124 -1.30434,-4.256241 -1.04689,-3.003395 -2.16244,-6.161251 -1.63041,-9.078835 0.46338,-2.50569 2.00798,-4.410701 4.15327,-5.697871 1.63041,-0.978248 3.58691,-1.613252 5.64638,-1.90501 2.04231,-0.291759 4.20475,-0.240272 6.2299,0.120135 3.58691,0.652166 6.81342,2.35123 8.44383,5.028543 2.11096,3.483938 0.66933,7.637205 -0.70365,11.533038 -0.51487,1.493117 -1.02974,2.934747 -1.30433,4.256241 -0.73798,3.638399 -2.64299,6.161251 -4.99422,7.568556 -1.47595,0.875276 -3.12353,1.321494 -4.78827,1.321494 -1.64758,0 -3.29516,-0.446218 -4.78827,-1.321494 -2.35123,-1.407305 -4.2734,-3.930157 -4.99422,-7.568556 z m 0,-4.702459 c 0.53203,1.527441 1.06406,3.020557 1.33865,4.427863 0.65217,3.209342 2.31691,5.440436 4.35922,6.658957 1.25284,0.755139 2.66015,1.115546 4.08461,1.115546 1.40731,0 2.81461,-0.377569 4.08462,-1.115546 2.04231,-1.218521 3.70705,-3.432452 4.35922,-6.658957 0.29175,-1.424468 0.80662,-2.900422 1.33865,-4.427863 1.25285,-3.604075 2.60867,-7.431259 0.82379,-10.366005 -1.40731,-2.316906 -4.29056,-3.79286 -7.51707,-4.393539 -1.88785,-0.343245 -3.89583,-0.394732 -5.80084,-0.120136 -1.88785,0.274596 -3.67273,0.840951 -5.13152,1.716226 -1.8192,1.098385 -3.12353,2.694475 -3.51826,4.771108 -0.46338,2.557177 0.58351,5.54341 1.57893,8.375183 z"
     class="fil0" /><circle
     style="fill:#dd342c;stroke-width:0.01716226;image-rendering:optimizeQuality;shape-rendering:geometricPrecision;text-rendering:geometricPrecision"
     id="circle12"
     r="1.9393353"
     cy="53.159695"
     cx="115.71175"
     class="fil1" /><circle
     style="fill:#dd342c;stroke-width:0.01716226;image-rendering:optimizeQuality;shape-rendering:geometricPrecision;text-rendering:geometricPrecision"
     id="circle14"
     r="1.9393353"
     cy="53.159695"
     cx="125.28828"
     class="fil1" /><line
     style="fill:#aa0000;stroke-width:0.01716226;image-rendering:optimizeQuality;shape-rendering:geometricPrecision;text-rendering:geometricPrecision"
     id="line16"
     y2="84.29203"
     x2="112.51956"
     y1="75.075897"
     x1="128.48047"
     class="fil2" /><path
     style="fill:#aa0000;fill-rule:nonzero;stroke-width:0.01716226;image-rendering:optimizeQuality;shape-rendering:geometricPrecision;text-rendering:geometricPrecision"
     inkscape:connector-curvature="0"
     id="path18"
     d="m 128.13722,74.492382 c 0.32608,-0.188785 0.73798,-0.08581 0.94392,0.257434 0.18879,0.326083 0.0858,0.737977 -0.25743,0.943924 l -15.9609,9.216134 c -0.32609,0.188785 -0.73798,0.08581 -0.94393,-0.257434 -0.18878,-0.326083 -0.0858,-0.737977 0.25744,-0.943924 z"
     class="fil0" /><line
     style="fill:#aa0000;stroke-width:0.01716226;image-rendering:optimizeQuality;shape-rendering:geometricPrecision;text-rendering:geometricPrecision"
     id="line20"
     y2="73.016426"
     x2="127.29626"
     y1="77.135368"
     x1="129.68182"
     class="fil2" /><path
     style="fill:#aa0000;fill-rule:nonzero;stroke-width:0.01716226;image-rendering:optimizeQuality;shape-rendering:geometricPrecision;text-rendering:geometricPrecision"
     inkscape:connector-curvature="0"
     id="path22"
     d="m 130.26534,76.809287 c 0.18878,0.326083 0.0686,0.737977 -0.25743,0.926762 -0.32609,0.188785 -0.73798,0.06865 -0.92677,-0.257434 l -2.38555,-4.118942 c -0.18879,-0.326083 -0.0686,-0.737977 0.25743,-0.926762 0.32609,-0.188785 0.73798,-0.06865 0.92677,0.257434 z"
     class="fil0" /><line
     style="fill:#aa0000;stroke-width:0.01716226;image-rendering:optimizeQuality;shape-rendering:geometricPrecision;text-rendering:geometricPrecision"
     id="line24"
     y2="82.232559"
     x2="111.33537"
     y1="86.368668"
     x1="113.72092"
     class="fil2" /><path
     style="fill:#aa0000;fill-rule:nonzero;stroke-width:0.01716226;image-rendering:optimizeQuality;shape-rendering:geometricPrecision;text-rendering:geometricPrecision"
     inkscape:connector-curvature="0"
     id="path26"
     d="m 114.30444,86.025421 c 0.18878,0.326083 0.0858,0.737977 -0.25744,0.943924 -0.32608,0.188785 -0.73797,0.08581 -0.94392,-0.257434 l -2.38555,-4.118942 c -0.18879,-0.326083 -0.0858,-0.737977 0.25743,-0.943924 0.32608,-0.188785 0.73798,-0.08581 0.94392,0.257433 z"
     class="fil0" /><line
     style="fill:#aa0000;stroke-width:0.01716226;image-rendering:optimizeQuality;shape-rendering:geometricPrecision;text-rendering:geometricPrecision"
     id="line28"
     y2="75.075897"
     x2="112.51956"
     y1="84.29203"
     x1="128.48047"
     class="fil2" /><path
     style="fill:#aa0000;fill-rule:nonzero;stroke-width:0.01716226;image-rendering:optimizeQuality;shape-rendering:geometricPrecision;text-rendering:geometricPrecision"
     inkscape:connector-curvature="0"
     id="path30"
     d="m 128.82371,83.708516 c 0.32608,0.188785 0.44622,0.600679 0.25743,0.943924 -0.18878,0.326083 -0.60068,0.446219 -0.94392,0.257434 l -15.9609,-9.216134 c -0.32609,-0.188785 -0.44622,-0.600679 -0.25744,-0.943924 0.18879,-0.326083 0.60068,-0.446219 0.94393,-0.257434 z"
     class="fil0" /><line
     style="fill:#aa0000;stroke-width:0.01716226;image-rendering:optimizeQuality;shape-rendering:geometricPrecision;text-rendering:geometricPrecision"
     id="line32"
     y2="82.232559"
     x2="129.68182"
     y1="86.368668"
     x1="127.29626"
     class="fil2" /><path
     style="fill:#aa0000;fill-rule:nonzero;stroke-width:0.01716226;image-rendering:optimizeQuality;shape-rendering:geometricPrecision;text-rendering:geometricPrecision"
     inkscape:connector-curvature="0"
     id="path34"
     d="m 127.89695,86.711911 c -0.18879,0.326083 -0.60068,0.446219 -0.94393,0.257434 -0.32608,-0.188785 -0.44622,-0.600679 -0.25743,-0.943924 l 2.38555,-4.118943 c 0.18879,-0.326082 0.60068,-0.446218 0.94393,-0.257433 0.32608,0.188784 0.44622,0.600679 0.25743,0.943924 z"
     class="fil0" /><line
     style="fill:#aa0000;stroke-width:0.01716226;image-rendering:optimizeQuality;shape-rendering:geometricPrecision;text-rendering:geometricPrecision"
     id="line36"
     y2="73.016426"
     x2="113.72092"
     y1="77.135368"
     x1="111.33537"
     class="fil2" /><path
     style="fill:#aa0000;fill-rule:nonzero;stroke-width:0.01716226;image-rendering:optimizeQuality;shape-rendering:geometricPrecision;text-rendering:geometricPrecision"
     inkscape:connector-curvature="0"
     id="path38"
     d="m 111.91888,77.478615 c -0.18878,0.326083 -0.60068,0.446219 -0.92676,0.257434 -0.32608,-0.188785 -0.44622,-0.600679 -0.25743,-0.926762 l 2.38555,-4.118942 c 0.18879,-0.326083 0.60068,-0.446219 0.92676,-0.257434 0.32609,0.188785 0.44622,0.600679 0.25744,0.926762 z"
     class="fil0" /></svg>