<?xml version="1.0" encoding="UTF-8" standalone="no"?>
<svg
   xmlns:dc="http://purl.org/dc/elements/1.1/"
   xmlns:cc="http://creativecommons.org/ns#"
   xmlns:rdf="http://www.w3.org/1999/02/22-rdf-syntax-ns#"
   xmlns:svg="http://www.w3.org/2000/svg"
   xmlns="http://www.w3.org/2000/svg"
   xmlns:sodipodi="http://sodipodi.sourceforge.net/DTD/sodipodi-0.dtd"
   xmlns:inkscape="http://www.inkscape.org/namespaces/inkscape"
   version="1.1"
   x="0px"
   y="0px"
   viewBox="0 0 170 170"
   enable-background="new 0 0 100 100"
   xml:space="preserve"
   id="svg10"
   sodipodi:docname="arthrites.svg"
   width="170"
   height="170"
   inkscape:version="0.92.3 (2405546, 2018-03-11)"><metadata
     id="metadata16"><rdf:RDF><cc:Work
         rdf:about=""><dc:format>image/svg+xml</dc:format><dc:type
           rdf:resource="http://purl.org/dc/dcmitype/StillImage" /><dc:title></dc:title></cc:Work></rdf:RDF></metadata><defs
     id="defs14" /><sodipodi:namedview
     pagecolor="#ffffff"
     bordercolor="#666666"
     borderopacity="1"
     objecttolerance="10"
     gridtolerance="10"
     guidetolerance="10"
     inkscape:pageopacity="0"
     inkscape:pageshadow="2"
     inkscape:window-width="1600"
     inkscape:window-height="836"
     id="namedview12"
     showgrid="false"
     inkscape:zoom="2.36"
     inkscape:cx="3.3898305"
     inkscape:cy="50"
     inkscape:window-x="0"
     inkscape:window-y="27"
     inkscape:window-maximized="1"
     inkscape:current-layer="svg10" /><rect
     style="opacity:1;fill:#b3b3b3;fill-opacity:0.91166077;fill-rule:nonzero;stroke:none;stroke-width:7.5;stroke-linecap:round;stroke-miterlimit:4;stroke-dasharray:none;stroke-dashoffset:0;stroke-opacity:1"
     id="rect829"
     width="176.27118"
     height="179.66101"
     x="-2.5423729"
     y="-2.881356" /><path
     d="m 107.53414,30.458569 c 1.91692,0.48211 3.84408,0.934806 5.75078,1.452722 2.45019,0.664978 2.59469,0.945037 2.1356,3.32617 -1.08442,5.633134 -2.09979,11.280334 -3.2456,16.900679 -0.69439,3.395226 -0.14451,6.5462 1.39517,9.578245 1.06397,2.098518 2.21617,4.153557 3.23282,6.276372 2.21489,4.626715 2.32487,9.247035 -0.2353,13.80853 -3.1497,5.613951 -11.32765,7.304531 -16.45054,3.354304 -1.413079,-1.092099 -2.704671,-2.340212 -4.062761,-3.505203 -1.753241,-1.506431 -3.705976,-1.713598 -5.799378,-0.827386 -1.473183,0.624056 -2.906723,1.346581 -4.405481,1.902861 -7.743161,2.868358 -15.614202,-3.157368 -14.648705,-11.335322 0.680324,-5.75462 3.170156,-10.602568 8.134475,-13.932574 1.328678,-0.891327 2.595973,-1.887516 3.982197,-2.677817 5.698352,-3.250721 9.213786,-8.206088 11.276497,-14.299591 1.055014,-3.116446 2.033299,-6.259747 3.020536,-9.400491 0.806926,-2.570397 1.135578,-2.780121 3.88757,-2.130488 2.01923,0.475715 4.02311,1.002583 6.03212,1.508989 z"
     id="path2"
     inkscape:connector-curvature="0"
     style="clip-rule:evenodd;fill:#4d4d4d;fill-rule:evenodd;stroke-width:1.27880442" /><path
     d="m 106.32311,111.52326 c -0.55245,1.56142 -1.15476,2.60748 -1.27497,3.70342 -0.81588,7.37742 -1.61385,14.75612 -2.23791,22.15017 -0.31714,3.76352 -0.14834,3.78398 -3.83769,3.79165 -3.483463,0.008 -6.96309,0.0256 -10.443995,-0.008 -2.703393,-0.0256 -2.780121,-0.18415 -2.987287,-2.87731 -0.537098,-7.02831 -1.159876,-14.04767 -1.672676,-21.07725 -0.30052,-4.1331 -1.835085,-7.56285 -4.928513,-10.41331 -2.291617,-2.10747 -4.133095,-4.61265 -4.789122,-7.813493 -0.828665,-4.02184 0.571625,-5.533387 4.626714,-4.708558 3.454051,0.7059 6.528297,-0.03581 9.330157,-2.078057 0.833781,-0.608711 1.643264,-1.259623 2.414383,-1.947619 2.424613,-2.158622 5.043604,-2.49239 7.730372,-0.644518 4.902937,3.374765 9.800757,3.035882 14.892957,0.433515 2.68293,-1.370878 4.48988,-0.185427 4.31213,2.861964 -0.11637,2.014117 -0.6215,4.078107 -1.35426,5.96818 -0.60615,1.558866 -1.02688,2.851736 -0.36062,4.543596 0.40794,1.03839 0.46421,2.54737 0.009,3.54228 -2.25197,4.89015 -1.70848,10.14732 -2.22,15.25486 -0.54733,5.42085 -0.82355,10.86984 -1.27753,16.30348 -0.20077,2.42461 -1.85682,3.45533 -4.08706,2.50134 -0.51408,-0.21995 -1.01792,-1.10489 -1.04222,-1.70337 -0.0716,-1.87472 0.16496,-3.7584 0.14834,-5.63825 -0.0665,-6.94646 -0.18543,-13.89165 -0.3018,-20.83811 -0.005,-0.23275 -0.21995,-0.45909 -0.64835,-1.30694 z"
     id="path4"
     inkscape:connector-curvature="0"
     style="clip-rule:evenodd;fill:#4d4d4d;fill-rule:evenodd;stroke-width:1.27880442" /><g
     id="g8"
     transform="matrix(1.2788044,0,0,1.2788044,28.960557,22.242251)"
     style="fill:#ff0000"><path
       d="m 29.241,39.19 c 0.324,-2.75 1.185,-5.229 2.685,-7.34 l -3.868,-6.309 0.168,7.925 -7.14,-3.444 4.426,6.576 -7.868,0.962 7.278,3.139 -6.1,5.065 7.821,-1.295 -2.394,7.558 5.881,-5.318 2.071,7.652 1.776,-6.558 C 30.891,46.348 28.78,43.086 29.241,39.19 Z"
       id="path6"
       inkscape:connector-curvature="0"
       style="clip-rule:evenodd;fill:#ff0000;fill-rule:evenodd" /></g></svg>