<?xml version="1.0" encoding="UTF-8" standalone="no"?>
<svg
   xmlns:dc="http://purl.org/dc/elements/1.1/"
   xmlns:cc="http://creativecommons.org/ns#"
   xmlns:rdf="http://www.w3.org/1999/02/22-rdf-syntax-ns#"
   xmlns:svg="http://www.w3.org/2000/svg"
   xmlns="http://www.w3.org/2000/svg"
   xmlns:sodipodi="http://sodipodi.sourceforge.net/DTD/sodipodi-0.dtd"
   xmlns:inkscape="http://www.inkscape.org/namespaces/inkscape"
   version="1.1"
   x="0px"
   y="0px"
   viewBox="0 0 170 170"
   enable-background="new 0 0 100 100"
   xml:space="preserve"
   id="svg46"
   sodipodi:docname="avortement.svg"
   width="170"
   height="170"
   inkscape:version="0.92.3 (2405546, 2018-03-11)"><metadata
     id="metadata52"><rdf:RDF><cc:Work
         rdf:about=""><dc:format>image/svg+xml</dc:format><dc:type
           rdf:resource="http://purl.org/dc/dcmitype/StillImage" /><dc:title></dc:title></cc:Work></rdf:RDF></metadata><defs
     id="defs50" /><sodipodi:namedview
     pagecolor="#ffffff"
     bordercolor="#666666"
     borderopacity="1"
     objecttolerance="10"
     gridtolerance="10"
     guidetolerance="10"
     inkscape:pageopacity="0"
     inkscape:pageshadow="2"
     inkscape:window-width="1600"
     inkscape:window-height="836"
     id="namedview48"
     showgrid="false"
     inkscape:zoom="2.36"
     inkscape:cx="3.3898305"
     inkscape:cy="50"
     inkscape:window-x="0"
     inkscape:window-y="27"
     inkscape:window-maximized="1"
     inkscape:current-layer="svg46" /><rect
     style="opacity:1;fill:#cccccc;fill-opacity:0.91166077;fill-rule:nonzero;stroke:none;stroke-width:7.5;stroke-linecap:round;stroke-miterlimit:4;stroke-dasharray:none;stroke-dashoffset:0;stroke-opacity:1"
     id="rect886"
     width="179.66101"
     height="181.35593"
     x="-4.6610169"
     y="-7.1186442" /><g
     id="g884"
     transform="translate(15.073579,-8.3636661)"><g
       transform="matrix(1.6030243,0,0,1.6030243,-7.8393156,15.835536)"
       id="g4"><path
         inkscape:connector-curvature="0"
         id="path2"
         d="m 36.246,71.504 c -10.983,0 -19.919,-8.936 -19.919,-19.918 0,-10.983 8.936,-19.919 19.919,-19.919 10.983,0 19.919,8.936 19.919,19.919 0,10.982 -8.936,19.918 -19.919,19.918 z m 0,-38.837 c -10.432,0 -18.919,8.487 -18.919,18.919 0,10.432 8.487,18.918 18.919,18.918 10.432,0 18.919,-8.486 18.919,-18.918 0,-10.432 -8.487,-18.919 -18.919,-18.919 z" /></g><g
       transform="matrix(1.6030243,0,0,1.6030243,-7.8393156,15.835536)"
       id="g8"><path
         inkscape:connector-curvature="0"
         id="path6"
         d="m 36.27,75 h -0.023 c -0.994,0 -1.993,-0.289 -2.972,-0.416 -0.273,-0.035 -0.467,-0.398 -0.432,-0.673 0.036,-0.273 0.279,-0.522 0.561,-0.487 0.936,0.121 1.892,0.154 2.843,0.154 0.276,0 0.512,0.435 0.512,0.711 0,0.276 -0.213,0.711 -0.489,0.711 z m 2.927,-0.643 c -0.247,0 -0.462,-0.184 -0.495,-0.435 -0.035,-0.274 0.157,-0.525 0.431,-0.562 0.947,-0.124 1.895,-0.312 2.817,-0.56 0.264,-0.066 0.54,0.088 0.612,0.354 0.071,0.267 -0.087,0.54 -0.354,0.612 -0.964,0.258 -1.955,0.455 -2.944,0.585 -0.023,0.005 -0.044,0.006 -0.067,0.006 z m -8.741,-0.56 c -0.042,0 -0.086,-0.005 -0.129,-0.017 -0.963,-0.257 -1.92,-0.58 -2.845,-0.962 -0.256,-0.105 -0.377,-0.397 -0.271,-0.652 0.104,-0.256 0.397,-0.378 0.652,-0.271 0.885,0.365 1.801,0.674 2.722,0.919 0.267,0.071 0.425,0.345 0.354,0.612 -0.059,0.223 -0.261,0.371 -0.483,0.371 z M 44.86,72.838 c -0.196,0 -0.382,-0.116 -0.462,-0.309 -0.105,-0.255 0.016,-0.548 0.271,-0.653 0.876,-0.363 1.741,-0.791 2.572,-1.271 0.234,-0.139 0.543,-0.059 0.683,0.183 0.139,0.238 0.057,0.545 -0.183,0.683 -0.868,0.503 -1.772,0.95 -2.689,1.33 -0.063,0.025 -0.127,0.037 -0.192,0.037 z m -19.825,-1.28 c -0.085,0 -0.171,-0.021 -0.25,-0.066 -0.869,-0.502 -1.71,-1.063 -2.498,-1.669 -0.219,-0.168 -0.26,-0.482 -0.092,-0.701 0.169,-0.22 0.483,-0.258 0.701,-0.092 0.754,0.579 1.558,1.115 2.389,1.595 0.239,0.139 0.321,0.444 0.184,0.684 -0.093,0.159 -0.261,0.249 -0.434,0.249 z M 49.93,69.902 c -0.149,0 -0.298,-0.067 -0.396,-0.195 -0.168,-0.219 -0.127,-0.532 0.092,-0.701 0.757,-0.583 1.482,-1.22 2.157,-1.895 0.195,-0.195 0.512,-0.195 0.707,0 0.195,0.195 0.195,0.512 0,0.707 -0.705,0.705 -1.464,1.371 -2.255,1.98 -0.091,0.07 -0.199,0.104 -0.305,0.104 z m -29.548,-1.91 c -0.128,0 -0.256,-0.049 -0.354,-0.146 -0.707,-0.705 -1.374,-1.464 -1.982,-2.253 -0.169,-0.219 -0.129,-0.533 0.09,-0.701 0.216,-0.169 0.532,-0.129 0.701,0.09 0.583,0.756 1.222,1.481 1.898,2.155 0.195,0.195 0.195,0.512 0.001,0.708 -0.097,0.098 -0.226,0.147 -0.354,0.147 z m 33.692,-2.235 c -0.106,0 -0.214,-0.033 -0.305,-0.104 -0.219,-0.168 -0.26,-0.481 -0.092,-0.701 0.581,-0.758 1.118,-1.562 1.597,-2.387 0.139,-0.241 0.448,-0.32 0.683,-0.183 0.239,0.138 0.321,0.444 0.183,0.683 -0.499,0.863 -1.061,1.703 -1.669,2.496 -0.099,0.128 -0.247,0.196 -0.397,0.196 z M 16.806,63.351 c -0.172,0 -0.34,-0.089 -0.433,-0.249 -0.502,-0.865 -0.951,-1.77 -1.333,-2.688 -0.105,-0.255 0.015,-0.548 0.27,-0.654 0.256,-0.103 0.548,0.015 0.654,0.27 0.365,0.878 0.794,1.742 1.274,2.57 0.139,0.238 0.058,0.545 -0.182,0.684 -0.078,0.045 -0.164,0.067 -0.25,0.067 z M 57.009,60.68 c -0.063,0 -0.129,-0.012 -0.191,-0.038 -0.255,-0.105 -0.376,-0.398 -0.271,-0.653 0.365,-0.883 0.676,-1.798 0.922,-2.72 0.072,-0.267 0.341,-0.422 0.612,-0.354 0.267,0.071 0.426,0.346 0.354,0.612 -0.258,0.964 -0.582,1.921 -0.965,2.845 -0.079,0.191 -0.265,0.308 -0.461,0.308 z M 14.552,57.941 c -0.221,0 -0.423,-0.147 -0.482,-0.37 -0.26,-0.965 -0.458,-1.956 -0.589,-2.944 -0.036,-0.273 0.157,-0.524 0.431,-0.562 0.269,-0.038 0.524,0.155 0.562,0.431 0.125,0.945 0.313,1.893 0.562,2.815 0.072,0.267 -0.086,0.541 -0.353,0.612 -0.045,0.013 -0.088,0.018 -0.131,0.018 z m 43.97,-2.924 c -0.021,0 -0.044,-0.001 -0.065,-0.004 -0.274,-0.036 -0.467,-0.287 -0.432,-0.561 0.123,-0.943 0.186,-1.907 0.186,-2.866 0,-0.276 0.224,-0.793 0.5,-0.793 0.275,0 0.499,0.207 0.499,0.207 h -0.5 l 0.501,0.324 c 0,1.018 -0.065,2.148 -0.193,3.134 -0.034,0.252 -0.248,0.559 -0.496,0.559 z M 13.641,52.109 C 13.365,52.109 13,51.908 13,51.631 v -0.046 c 0,-0.985 0.204,-1.978 0.328,-2.949 0.035,-0.274 0.363,-0.464 0.63,-0.433 0.274,0.035 0.503,0.286 0.468,0.56 -0.119,0.93 -0.232,1.879 -0.232,2.822 -0.001,0.277 -0.277,0.524 -0.553,0.524 z m 44.868,-3.047 c -0.246,0 -0.461,-0.182 -0.494,-0.433 -0.129,-0.948 -0.32,-1.895 -0.569,-2.814 -0.072,-0.267 0.085,-0.541 0.352,-0.613 0.271,-0.074 0.541,0.085 0.613,0.352 0.261,0.961 0.461,1.951 0.595,2.942 0.037,0.273 -0.154,0.525 -0.428,0.562 -0.024,0.003 -0.047,0.004 -0.069,0.004 z M 14.528,46.319 c -0.042,0 -0.085,-0.005 -0.128,-0.017 -0.267,-0.071 -0.426,-0.345 -0.355,-0.611 0.255,-0.961 0.577,-1.919 0.958,-2.847 0.105,-0.256 0.398,-0.377 0.653,-0.272 0.255,0.105 0.377,0.397 0.272,0.652 -0.365,0.888 -0.674,1.804 -0.917,2.723 -0.059,0.224 -0.261,0.372 -0.483,0.372 z m 42.446,-2.912 c -0.195,0 -0.381,-0.115 -0.461,-0.307 -0.369,-0.878 -0.8,-1.742 -1.281,-2.568 -0.14,-0.239 -0.059,-0.545 0.18,-0.684 0.236,-0.138 0.544,-0.059 0.684,0.18 0.504,0.863 0.954,1.767 1.34,2.685 0.107,0.254 -0.013,0.547 -0.268,0.654 -0.064,0.028 -0.13,0.04 -0.194,0.04 z M 16.762,40.896 c -0.085,0 -0.171,-0.021 -0.249,-0.067 -0.24,-0.138 -0.322,-0.443 -0.185,-0.683 0.496,-0.862 1.057,-1.703 1.665,-2.499 0.168,-0.22 0.481,-0.26 0.701,-0.094 0.22,0.168 0.261,0.481 0.094,0.701 -0.583,0.762 -1.118,1.566 -1.593,2.391 -0.092,0.161 -0.26,0.251 -0.433,0.251 z m 37.259,-2.55 c -0.149,0 -0.297,-0.066 -0.396,-0.194 C 53.04,37.397 52.4,36.673 51.724,36 c -0.195,-0.194 -0.196,-0.511 -0.002,-0.707 0.193,-0.194 0.51,-0.198 0.707,-0.002 0.707,0.703 1.376,1.459 1.987,2.249 0.169,0.218 0.129,0.532 -0.089,0.702 -0.091,0.07 -0.198,0.104 -0.306,0.104 z M 20.323,36.239 c -0.128,0 -0.255,-0.048 -0.353,-0.146 -0.196,-0.195 -0.196,-0.511 -0.002,-0.707 0.704,-0.708 1.462,-1.376 2.251,-1.985 0.217,-0.168 0.531,-0.129 0.701,0.09 0.169,0.219 0.129,0.533 -0.09,0.701 -0.755,0.583 -1.479,1.222 -2.153,1.899 -0.097,0.098 -0.226,0.148 -0.354,0.148 z m 29.538,-2.023 c -0.106,0 -0.213,-0.034 -0.304,-0.103 C 48.801,33.535 47.996,33 47.165,32.523 46.926,32.386 46.843,32.08 46.98,31.84 c 0.138,-0.241 0.444,-0.322 0.683,-0.185 0.868,0.499 1.71,1.058 2.501,1.663 0.22,0.167 0.261,0.481 0.094,0.701 -0.098,0.129 -0.246,0.197 -0.397,0.197 z m -24.9,-1.559 c -0.172,0 -0.339,-0.089 -0.432,-0.249 -0.14,-0.238 -0.059,-0.544 0.18,-0.684 0.86,-0.5 1.764,-0.95 2.687,-1.337 0.257,-0.105 0.548,0.014 0.654,0.268 0.106,0.255 -0.013,0.548 -0.268,0.655 -0.883,0.37 -1.748,0.8 -2.569,1.278 -0.079,0.047 -0.166,0.069 -0.252,0.069 z m 19.815,-1.36 c -0.063,0 -0.128,-0.012 -0.19,-0.038 -0.88,-0.362 -1.796,-0.67 -2.724,-0.915 -0.267,-0.07 -0.426,-0.344 -0.355,-0.611 0.071,-0.267 0.342,-0.426 0.611,-0.356 0.97,0.256 1.928,0.578 2.849,0.957 0.255,0.105 0.377,0.397 0.271,0.653 -0.079,0.194 -0.265,0.31 -0.462,0.31 z M 30.367,30.398 c -0.221,0 -0.422,-0.146 -0.482,-0.37 -0.072,-0.266 0.085,-0.541 0.352,-0.613 0.963,-0.261 1.954,-0.46 2.944,-0.592 0.265,-0.04 0.524,0.155 0.562,0.43 0.036,0.273 -0.156,0.525 -0.43,0.562 -0.948,0.126 -1.895,0.316 -2.815,0.565 -0.044,0.013 -0.088,0.018 -0.131,0.018 z m 8.741,-0.597 c -0.021,0 -0.043,-10e-4 -0.063,-0.004 -0.923,-0.117 -1.865,-0.176 -2.799,-0.176 -0.276,0 -0.535,-0.034 -0.535,-0.31 C 35.711,29.035 35.9,29 36.177,29 h 0.069 c 0.976,0 1.96,-0.128 2.924,-0.006 0.274,0.035 0.468,0.19 0.434,0.464 -0.033,0.253 -0.248,0.343 -0.496,0.343 z" /></g><g
       transform="matrix(1.6030243,0,0,1.6030243,-7.8393156,15.835536)"
       id="g12"><path
         inkscape:connector-curvature="0"
         id="path10"
         d="m 30.916,54.55 c -3.062,0 -5.555,-2.491 -5.555,-5.554 0,-3.062 2.492,-5.554 5.555,-5.554 3.063,0 5.554,2.492 5.554,5.554 0,3.063 -2.491,5.554 -5.554,5.554 z m 0,-10.509 c -2.732,0 -4.955,2.223 -4.955,4.955 0,2.732 2.223,4.955 4.955,4.955 2.731,0 4.954,-2.223 4.954,-4.955 0,-2.732 -2.223,-4.955 -4.954,-4.955 z" /></g><g
       transform="matrix(1.6030243,0,0,1.6030243,-7.8393156,15.835536)"
       id="g16"><path
         inkscape:connector-curvature="0"
         id="path14"
         d="m 60.628,39.27 c -1.294,0 -2.223,-0.371 -2.686,-1.074 -0.536,-0.812 -0.404,-2.031 0.371,-3.432 0.611,-1.104 1.542,-2.171 2.37,-2.718 0.602,-0.396 1.299,-0.606 2.017,-0.606 1.237,0 2.382,0.616 3.062,1.647 1.113,1.688 0.646,3.967 -1.04,5.08 -0.968,0.639 -2.69,1.103 -4.094,1.103 z M 62.7,32.439 c -0.521,0 -1.028,0.152 -1.466,0.441 -0.693,0.457 -1.516,1.409 -2.046,2.368 -0.57,1.028 -0.724,1.924 -0.412,2.397 0.266,0.403 0.924,0.625 1.852,0.625 1.21,0 2.733,-0.403 3.544,-0.938 1.227,-0.81 1.566,-2.467 0.757,-3.694 -0.495,-0.751 -1.328,-1.199 -2.229,-1.199 z" /></g><g
       transform="matrix(1.6030243,0,0,1.6030243,-7.8393156,15.835536)"
       id="g20"><path
         inkscape:connector-curvature="0"
         id="path18"
         d="m 65.554,32.917 c 0,0 0.084,-0.039 0.243,-0.112 0.079,-0.036 0.177,-0.082 0.291,-0.134 0.129,-0.051 0.37,-0.089 0.594,-0.124 0.465,-0.06 0.904,0.042 1.367,0.147 0.43,0.097 0.86,0.208 1.242,0.109 0.103,-0.004 0.193,-0.085 0.295,-0.12 l 0.154,-0.067 0.039,-0.016 0.006,-0.002 c -0.025,0.02 0.062,-0.046 -0.055,0.043 l 0.011,-0.009 0.021,-0.018 0.085,-0.073 c 0.115,-0.097 0.232,-0.196 0.351,-0.296 0.062,-0.094 0.089,-0.173 0.152,-0.253 0.236,-0.399 0.247,-1.083 0.535,-1.861 0.151,-0.375 0.41,-0.775 0.756,-1.024 l 0.25,-0.208 c -0.048,0.026 0.074,-0.043 0.064,-0.037 l 0.008,-0.003 0.016,-0.007 0.03,-0.014 0.062,-0.028 0.124,-0.057 c 0.176,-0.071 0.294,-0.167 0.566,-0.202 0.996,-0.201 1.712,0.21 2.348,0.239 0.163,0.035 0.308,0.002 0.454,-0.019 0.152,0.003 0.287,-0.079 0.426,-0.142 l 0.211,-0.093 0.168,-0.142 c 0.132,-0.118 0.315,-0.24 0.346,-0.354 0.327,-0.416 0.363,-1.178 0.6,-1.902 0.057,-0.186 0.128,-0.366 0.251,-0.53 0.107,-0.168 0.207,-0.341 0.367,-0.452 0.154,-0.125 0.271,-0.248 0.455,-0.364 0.145,-0.078 0.287,-0.154 0.428,-0.229 0.627,-0.296 1.256,-0.43 1.766,-0.58 0.262,-0.078 0.498,-0.171 0.73,-0.253 0.22,-0.107 0.428,-0.208 0.624,-0.304 0.369,-0.235 0.702,-0.429 0.95,-0.629 0.496,-0.403 0.779,-0.634 0.779,-0.634 l 0.016,-0.012 c 0.09,-0.073 0.223,-0.06 0.297,0.031 0.071,0.088 0.06,0.218 -0.025,0.292 0,0 -0.286,0.248 -0.787,0.683 -0.252,0.216 -0.598,0.436 -0.984,0.697 -0.208,0.11 -0.43,0.227 -0.663,0.35 -0.243,0.097 -0.503,0.208 -0.772,0.297 -0.555,0.18 -1.113,0.322 -1.638,0.587 -0.138,0.08 -0.278,0.161 -0.421,0.243 -0.087,0.063 -0.203,0.186 -0.307,0.273 -0.124,0.083 -0.184,0.215 -0.258,0.338 -0.086,0.113 -0.136,0.255 -0.176,0.407 -0.204,0.584 -0.126,1.37 -0.672,2.169 -0.433,0.621 -1.347,1.158 -2.212,1.078 -0.837,-0.065 -1.568,-0.342 -2.035,-0.207 -0.103,-0.023 -0.293,0.103 -0.449,0.174 l -0.121,0.061 -0.062,0.03 -0.029,0.015 -0.016,0.008 -0.008,0.004 c -0.015,0.008 0.104,-0.057 0.051,-0.027 l -0.156,0.148 c -0.234,0.178 -0.363,0.407 -0.465,0.671 -0.203,0.529 -0.167,1.256 -0.529,2.001 -0.111,0.187 -0.237,0.388 -0.359,0.54 -0.115,0.104 -0.229,0.207 -0.341,0.307 l -0.083,0.075 -0.021,0.019 -0.01,0.009 c -0.121,0.093 -0.038,0.028 -0.066,0.05 l -0.008,0.004 -0.061,0.032 -0.242,0.124 c -0.166,0.071 -0.312,0.178 -0.488,0.206 -0.717,0.194 -1.317,0.025 -1.766,-0.053 -0.417,-0.088 -0.773,-0.131 -0.952,-0.093 -0.094,0.028 -0.151,-0.004 -0.257,0.038 -0.113,0.057 -0.209,0.105 -0.287,0.144 -0.156,0.078 -0.239,0.12 -0.239,0.12 -0.295,0.147 -0.653,0.028 -0.801,-0.267 -0.147,-0.295 -0.028,-0.653 0.267,-0.801 0.005,-0.003 0.01,-0.005 0.016,-0.007 z" /></g><g
       transform="matrix(1.6030243,0,0,1.6030243,-7.8393156,15.835536)"
       id="g24"><path
         inkscape:connector-curvature="0"
         id="path22"
         d="m 67.631,26.837 c -0.814,0 -1.426,-0.243 -1.769,-0.702 -0.984,-1.321 0.68,-3.809 1.675,-4.551 1.142,-0.852 2.898,-0.593 3.748,0.548 0.882,1.184 0.637,2.865 -0.547,3.748 -0.732,0.546 -2.068,0.957 -3.107,0.957 z m 1.505,-4.783 c -0.363,0 -0.709,0.115 -1.001,0.333 -0.933,0.695 -1.905,2.568 -1.47,3.151 0.142,0.191 0.494,0.3 0.966,0.3 0.921,0 2.021,-0.394 2.51,-0.758 0.742,-0.553 0.896,-1.607 0.343,-2.349 -0.321,-0.431 -0.812,-0.677 -1.348,-0.677 z" /></g><g
       transform="matrix(1.6030243,0,0,1.6030243,-7.8393156,15.835536)"
       id="g28"><path
         inkscape:connector-curvature="0"
         id="path26"
         d="m 70.921,21.954 c 0,0 0.057,-0.03 0.163,-0.085 0.053,-0.028 0.118,-0.062 0.195,-0.102 0.09,-0.042 0.282,-0.09 0.455,-0.125 0.705,-0.119 1.38,0.224 1.786,0.092 0.093,-0.036 0.267,-0.119 0.31,-0.158 l 0.23,-0.215 c 0.03,-0.058 0.031,-0.093 0.064,-0.133 0.131,-0.229 0.119,-0.692 0.298,-1.277 0.096,-0.282 0.276,-0.594 0.521,-0.791 l 0.178,-0.163 0.065,-0.042 0.01,-0.005 0.021,-0.011 0.042,-0.021 0.083,-0.043 c 0.121,-0.056 0.188,-0.121 0.399,-0.166 0.758,-0.192 1.265,0.083 1.671,0.075 0.204,0.009 0.37,-0.021 0.539,-0.124 l 0.13,-0.062 c -0.037,0.034 0.069,-0.065 0.097,-0.092 0.085,-0.084 0.214,-0.182 0.216,-0.243 0.177,-0.237 0.19,-0.759 0.328,-1.288 0.034,-0.136 0.079,-0.268 0.162,-0.394 0.072,-0.127 0.14,-0.256 0.251,-0.344 0.108,-0.099 0.183,-0.188 0.32,-0.284 l 0.286,-0.172 c 0.435,-0.233 0.873,-0.349 1.211,-0.467 0.349,-0.119 0.641,-0.272 0.896,-0.421 0.242,-0.172 0.461,-0.314 0.623,-0.459 0.325,-0.291 0.511,-0.458 0.511,-0.458 l 0.015,-0.013 c 0.086,-0.078 0.22,-0.07 0.297,0.016 0.076,0.084 0.071,0.212 -0.009,0.291 0,0 -0.187,0.185 -0.514,0.507 -0.165,0.161 -0.396,0.329 -0.653,0.528 -0.275,0.181 -0.6,0.369 -0.974,0.516 -0.38,0.15 -0.747,0.271 -1.082,0.467 l -0.278,0.186 -0.178,0.184 c -0.076,0.058 -0.106,0.145 -0.147,0.224 -0.05,0.073 -0.075,0.167 -0.095,0.267 -0.113,0.388 -0.011,0.927 -0.385,1.559 -0.272,0.457 -0.936,0.908 -1.569,0.884 -0.609,-0.016 -1.123,-0.156 -1.357,-0.06 -0.045,-0.022 -0.183,0.077 -0.283,0.132 l -0.081,0.047 -0.04,0.024 -0.021,0.012 -0.01,0.006 -0.005,0.003 c -0.015,0.008 0.101,-0.064 0.051,-0.032 l -0.088,0.098 c -0.137,0.119 -0.198,0.254 -0.251,0.421 -0.107,0.332 -0.047,0.836 -0.283,1.417 -0.075,0.15 -0.168,0.312 -0.256,0.432 l -0.22,0.226 -0.055,0.055 -0.011,0.012 -0.007,0.007 c -0.114,0.099 -0.035,0.029 -0.062,0.052 l -0.006,0.003 -0.043,0.027 -0.175,0.104 c -0.12,0.062 -0.226,0.145 -0.356,0.176 -0.536,0.18 -0.982,0.08 -1.296,0.046 -0.283,-0.042 -0.517,-0.049 -0.593,-0.021 -0.044,0.021 -0.057,-0.011 -0.123,0.02 -0.075,0.044 -0.14,0.081 -0.191,0.111 -0.104,0.061 -0.159,0.093 -0.159,0.093 -0.284,0.167 -0.65,0.07 -0.816,-0.214 -0.166,-0.284 -0.07,-0.65 0.215,-0.816 0.008,-0.004 0.015,-0.009 0.022,-0.013 z" /></g><g
       transform="matrix(1.6030243,0,0,1.6030243,-7.8393156,15.835536)"
       id="g32"><path
         inkscape:connector-curvature="0"
         id="path30"
         d="m 49.922,29.542 c -0.453,0 -0.845,-0.113 -1.164,-0.334 -0.739,-0.514 -1.046,-1.6 -0.861,-3.057 0.145,-1.142 0.572,-2.361 1.09,-3.105 0.629,-0.905 1.664,-1.446 2.769,-1.446 0.688,0 1.352,0.208 1.918,0.603 1.525,1.06 1.904,3.164 0.845,4.688 -0.751,1.081 -2.915,2.651 -4.597,2.651 z M 51.755,22.6 c -0.777,0 -1.505,0.38 -1.948,1.017 -0.426,0.612 -0.795,1.68 -0.918,2.659 -0.132,1.039 0.033,1.828 0.439,2.111 0.148,0.104 0.349,0.156 0.594,0.156 1.202,0 3.08,-1.222 3.775,-2.222 0.744,-1.072 0.478,-2.551 -0.595,-3.297 C 52.704,22.747 52.238,22.6 51.755,22.6 Z" /></g><g
       transform="matrix(1.6030243,0,0,1.6030243,-7.8393156,15.835536)"
       id="g36"><path
         inkscape:connector-curvature="0"
         id="path34"
         d="m 53.373,22.131 c 0,0 0.059,-0.061 0.167,-0.175 0.055,-0.057 0.122,-0.128 0.201,-0.211 0.092,-0.086 0.288,-0.206 0.471,-0.313 0.753,-0.418 1.728,-0.267 2.278,-0.654 0.082,-0.037 0.129,-0.132 0.201,-0.193 l 0.104,-0.104 0.026,-0.026 0.004,-0.003 c 0.035,-0.059 -0.044,0.077 -0.035,0.061 l 0.006,-0.011 0.012,-0.022 0.049,-0.09 c 0.063,-0.12 0.129,-0.242 0.195,-0.367 0.019,-0.096 0.013,-0.165 0.039,-0.248 0.065,-0.398 -0.153,-0.976 -0.173,-1.739 0.002,-0.373 0.088,-0.805 0.299,-1.136 l 0.144,-0.263 c -0.035,0.042 0.053,-0.067 0.045,-0.058 l 0.006,-0.005 0.011,-0.011 0.021,-0.022 0.043,-0.044 0.085,-0.089 c 0.124,-0.119 0.189,-0.237 0.414,-0.363 0.792,-0.516 1.534,-0.404 2.068,-0.591 0.147,-0.025 0.255,-0.1 0.368,-0.164 0.127,-0.046 0.21,-0.159 0.304,-0.256 l 0.144,-0.145 0.092,-0.171 c 0.07,-0.143 0.186,-0.31 0.17,-0.41 0.133,-0.439 -0.087,-1.093 -0.133,-1.788 -0.014,-0.178 -0.015,-0.355 0.034,-0.538 0.035,-0.18 0.062,-0.361 0.16,-0.51 0.09,-0.16 0.146,-0.302 0.265,-0.466 l 0.284,-0.336 c 0.432,-0.462 0.919,-0.788 1.296,-1.083 0.194,-0.152 0.361,-0.31 0.528,-0.456 0.148,-0.163 0.289,-0.318 0.422,-0.463 0.231,-0.321 0.446,-0.594 0.588,-0.845 0.282,-0.504 0.443,-0.792 0.443,-0.792 l 0.01,-0.017 c 0.057,-0.102 0.185,-0.138 0.286,-0.081 0.1,0.055 0.137,0.18 0.085,0.28 0,0 -0.157,0.306 -0.432,0.841 -0.139,0.267 -0.356,0.569 -0.594,0.921 -0.139,0.163 -0.286,0.337 -0.441,0.52 -0.173,0.164 -0.354,0.345 -0.551,0.513 -0.407,0.339 -0.826,0.646 -1.175,1.042 l -0.271,0.346 c -0.049,0.079 -0.105,0.221 -0.162,0.327 -0.074,0.11 -0.08,0.239 -0.1,0.364 -0.034,0.121 -0.028,0.256 -0.011,0.395 0.023,0.554 0.358,1.187 0.165,2.064 -0.154,0.671 -0.753,1.449 -1.519,1.675 -0.736,0.229 -1.442,0.248 -1.768,0.506 -0.088,0.01 -0.208,0.182 -0.314,0.294 l -0.082,0.092 -0.04,0.046 -0.021,0.023 -0.011,0.012 -0.005,0.006 c -0.011,0.013 0.074,-0.092 0.037,-0.045 l -0.079,0.173 c -0.133,0.223 -0.162,0.45 -0.159,0.7 0.007,0.501 0.284,1.102 0.23,1.868 -0.03,0.2 -0.071,0.418 -0.125,0.591 -0.062,0.126 -0.123,0.251 -0.183,0.373 l -0.045,0.092 -0.011,0.022 -0.006,0.011 -0.042,0.07 -0.006,0.006 -0.041,0.048 -0.164,0.189 c -0.118,0.118 -0.207,0.259 -0.348,0.345 -0.551,0.415 -1.122,0.475 -1.525,0.561 -0.379,0.066 -0.688,0.15 -0.814,0.237 -0.063,0.052 -0.116,0.039 -0.189,0.108 -0.076,0.086 -0.141,0.159 -0.193,0.218 -0.104,0.119 -0.16,0.182 -0.16,0.182 -0.219,0.247 -0.596,0.27 -0.843,0.051 -0.247,-0.219 -0.27,-0.596 -0.051,-0.843 0.004,-0.004 0.009,-0.009 0.013,-0.014 z" /></g><g
       transform="matrix(1.6030243,0,0,1.6030243,-7.8393156,15.835536)"
       id="g40"><path
         inkscape:connector-curvature="0"
         id="path38"
         d="m 56.833,78.204 c -10e-4,0 -10e-4,0 0,0 -0.869,0 -1.693,-0.329 -2.321,-0.928 -0.657,-0.624 -1.321,-1.731 -1.693,-2.82 -0.474,-1.391 -0.394,-2.516 0.228,-3.168 0.395,-0.415 0.979,-0.626 1.736,-0.626 1.526,0 3.493,0.896 4.373,1.732 0.651,0.62 1.022,1.457 1.045,2.356 0.023,0.899 -0.307,1.754 -0.928,2.406 -0.641,0.676 -1.508,1.048 -2.44,1.048 z m -2.051,-6.542 c -0.325,0 -0.764,0.055 -1.012,0.315 -0.342,0.358 -0.344,1.164 -0.006,2.155 0.318,0.934 0.896,1.905 1.437,2.419 0.441,0.421 1.021,0.652 1.631,0.652 v 0 c 0.656,0 1.265,-0.261 1.716,-0.735 0.437,-0.459 0.669,-1.061 0.652,-1.692 -0.016,-0.633 -0.276,-1.222 -0.734,-1.657 -0.725,-0.689 -2.416,-1.457 -3.684,-1.457 z" /></g><g
       transform="matrix(1.6030243,0,0,1.6030243,-7.8393156,15.835536)"
       id="g44"><path
         inkscape:connector-curvature="0"
         id="path42"
         d="m 59.683,76.314 c 0,0 0.067,0.051 0.194,0.146 0.063,0.047 0.142,0.105 0.232,0.175 0.087,0.053 0.135,0.029 0.209,0.067 0.14,0.06 0.46,0.08 0.845,0.068 0.412,0.003 0.983,-0.055 1.606,0.241 0.155,0.055 0.271,0.175 0.41,0.267 l 0.2,0.152 0.05,0.039 0.012,0.01 0.059,0.065 0.016,0.02 0.062,0.081 c 0.083,0.107 0.167,0.217 0.254,0.328 0.087,0.158 0.171,0.364 0.242,0.554 0.207,0.74 0.056,1.385 0.15,1.876 0.047,0.246 0.121,0.463 0.297,0.654 l 0.112,0.153 c -0.021,-0.017 0.052,0.044 -0.046,-0.036 l 0.006,0.004 0.013,0.01 0.024,0.019 0.049,0.036 0.099,0.074 c 0.127,0.088 0.28,0.233 0.368,0.225 0.371,0.188 1.065,0.064 1.832,0.14 0.796,0.066 1.541,0.708 1.826,1.334 0.367,0.82 0.167,1.508 0.255,2.055 0.011,0.14 0.032,0.273 0.09,0.385 0.045,0.118 0.075,0.244 0.171,0.337 0.077,0.093 0.161,0.22 0.225,0.287 l 0.336,0.284 c 0.421,0.318 0.893,0.534 1.36,0.784 0.227,0.124 0.44,0.266 0.644,0.391 0.189,0.148 0.368,0.289 0.537,0.421 0.303,0.296 0.577,0.549 0.768,0.782 0.377,0.469 0.592,0.736 0.592,0.736 0.073,0.091 0.059,0.224 -0.032,0.297 -0.089,0.071 -0.217,0.059 -0.291,-0.026 l -0.013,-0.015 c 0,0 -0.217,-0.25 -0.594,-0.688 -0.189,-0.217 -0.455,-0.441 -0.747,-0.709 -0.159,-0.116 -0.328,-0.239 -0.507,-0.369 -0.193,-0.108 -0.389,-0.229 -0.608,-0.34 -0.43,-0.213 -0.973,-0.433 -1.488,-0.799 L 69.156,86.557 C 69.006,86.42 68.922,86.292 68.802,86.154 68.676,86.028 68.613,85.856 68.542,85.686 68.457,85.517 68.423,85.343 68.4,85.166 68.305,84.477 68.388,83.791 68.171,83.388 68.166,83.287 68.019,83.147 67.92,83.022 L 67.797,82.873 67.626,82.76 C 67.515,82.684 67.41,82.591 67.277,82.571 67.153,82.531 67.033,82.48 66.883,82.485 66.321,82.41 65.616,82.669 64.737,82.323 64.491,82.246 64.405,82.142 64.258,82.052 L 64.156,81.982 64.105,81.947 64.08,81.929 64.068,81.92 64.061,81.915 c -0.102,-0.083 -0.032,-0.026 -0.056,-0.047 l -0.194,-0.229 c -0.273,-0.282 -0.444,-0.688 -0.521,-1.054 -0.135,-0.751 -0.038,-1.361 -0.183,-1.737 -0.042,-0.076 -0.05,-0.145 -0.088,-0.235 -0.09,-0.108 -0.179,-0.215 -0.266,-0.319 l -0.064,-0.079 -0.017,-0.02 -0.004,-0.005 c 0.021,0.023 -0.053,-0.058 0.046,0.051 l -0.008,-0.005 -0.031,-0.02 -0.123,-0.081 c -0.083,-0.046 -0.148,-0.131 -0.237,-0.148 -0.617,-0.269 -1.542,0.076 -2.363,-0.182 -0.2,-0.067 -0.417,-0.145 -0.524,-0.211 -0.094,-0.065 -0.174,-0.121 -0.238,-0.166 -0.13,-0.09 -0.199,-0.138 -0.199,-0.138 l -0.008,-0.006 c -0.271,-0.188 -0.338,-0.56 -0.15,-0.83 0.188,-0.271 0.56,-0.339 0.831,-0.15 0.007,0.002 0.014,0.008 0.019,0.01 z" /></g></g></svg>