<?xml version="1.0" encoding="UTF-8" standalone="no"?>
<svg
   xmlns:dc="http://purl.org/dc/elements/1.1/"
   xmlns:cc="http://creativecommons.org/ns#"
   xmlns:rdf="http://www.w3.org/1999/02/22-rdf-syntax-ns#"
   xmlns:svg="http://www.w3.org/2000/svg"
   xmlns="http://www.w3.org/2000/svg"
   xmlns:sodipodi="http://sodipodi.sourceforge.net/DTD/sodipodi-0.dtd"
   xmlns:inkscape="http://www.inkscape.org/namespaces/inkscape"
   version="1.1"
   x="0px"
   y="0px"
   viewBox="0 0 170 170"
   enable-background="new 0 0 100 100"
   xml:space="preserve"
   id="svg74"
   sodipodi:docname="coccidiose.svg"
   width="170"
   height="170"
   inkscape:version="0.92.3 (2405546, 2018-03-11)"><metadata
     id="metadata80"><rdf:RDF><cc:Work
         rdf:about=""><dc:format>image/svg+xml</dc:format><dc:type
           rdf:resource="http://purl.org/dc/dcmitype/StillImage" /><dc:title></dc:title></cc:Work></rdf:RDF></metadata><defs
     id="defs78" /><sodipodi:namedview
     pagecolor="#ffffff"
     bordercolor="#666666"
     borderopacity="1"
     objecttolerance="10"
     gridtolerance="10"
     guidetolerance="10"
     inkscape:pageopacity="0"
     inkscape:pageshadow="2"
     inkscape:window-width="1600"
     inkscape:window-height="836"
     id="namedview76"
     showgrid="false"
     inkscape:zoom="2.36"
     inkscape:cx="3.3898305"
     inkscape:cy="50"
     inkscape:window-x="0"
     inkscape:window-y="27"
     inkscape:window-maximized="1"
     inkscape:current-layer="svg74" /><rect
     style="opacity:1;fill:#b3b3b3;fill-opacity:0.91166077;fill-rule:nonzero;stroke:none;stroke-width:7.5;stroke-linecap:round;stroke-miterlimit:4;stroke-dasharray:none;stroke-dashoffset:0;stroke-opacity:1"
     id="rect969"
     width="178.81355"
     height="177.11864"
     x="-2.118644"
     y="-2.4576271" /><g
     id="g967"
     transform="translate(19.730236,-24.124255)"><path
       style="stroke-width:1.27869797"
       inkscape:connector-curvature="0"
       id="path2"
       d="m 72.938405,90.23704 c 4.362917,-0.503807 9.315314,1.09968 9.934204,5.743911 v 0 c 0.04348,0.388724 0.05371,0.792793 0.03325,1.204533 v 0 c -0.350363,5.228596 -5.237547,8.626096 -9.875384,9.181056 v 0 c -2.058704,0.24167 -4.148096,-0.0755 -5.851322,-1.15339 v 0 c -1.710898,-1.08178 -2.939727,-2.97042 -3.23127,-5.517582 v 0 c -0.02046,-0.182853 -0.03453,-0.356756 -0.04348,-0.538331 v 0 l 0.980762,-0.07161 -0.984598,0.06777 c -0.324789,-5.364138 4.420459,-8.371636 8.950886,-8.907411 v 0 c 0.02685,-0.0038 0.05754,-0.0051 0.08695,-0.009 z m 8.002091,6.837198 c 0.0179,-0.309445 0.01023,-0.597152 -0.02046,-0.866958 v 0 C 80.555608,93.240701 77.089058,91.75869 73.16857,92.193447 v 0 c -4.047079,0.515316 -7.596745,2.909038 -7.301365,6.821854 v 0 0 c 0.0077,0.154723 0.02685,0.305609 0.04092,0.451381 v 0 c 0.524266,4.024058 3.406451,5.263118 6.896018,4.943448 v 0 h 0.01279 v 0 c 3.940947,-0.46417 7.945829,-3.43842 8.123568,-7.335892 z" /><path
       style="stroke-width:1.27869797"
       inkscape:connector-curvature="0"
       id="path4"
       d="m 71.847675,99.047269 c -0.501249,-0.0179 -2.469166,0.06905 -2.809299,0.420691 -0.514037,0.525545 0.131706,2.23389 0.617611,2.57402 2.160999,1.49863 5.261842,-2.905203 2.191688,-2.994711 z" /><path
       style="stroke-width:1.27869797"
       inkscape:connector-curvature="0"
       id="path6"
       d="m 58.335674,143.51655 c 0.212263,0.52682 0.364429,1.04597 0.455216,1.55106 v 0 c 1.002499,5.41784 -3.492124,9.66568 -8.057076,10.5646 v 0 c -3.149433,0.65469 -6.696541,-0.45521 -8.289799,-4.04836 v 0 l 0.897646,-0.40279 -0.897646,0.40279 c -0.297937,-0.66236 -0.502528,-1.33624 -0.634234,-1.99988 v 0 c -1.020401,-5.52142 3.26068,-10.38047 7.939436,-11.31648 v 0 c 0.03964,-0.0102 0.08439,-0.0179 0.126591,-0.0268 v 0 c 3.236384,-0.63296 6.806509,0.93729 8.459866,5.27591 z m -1.47306,1.93083 c -0.078,-0.39256 -0.191805,-0.78895 -0.359315,-1.19302 v 0 c -1.510142,-3.66603 -3.873176,-4.48695 -6.375588,-4.05475 v 0 c -3.67242,0.72118 -7.196512,4.80406 -6.388375,9.00587 v 0 c 0.09846,0.51787 0.263412,1.04597 0.494856,1.57152 v 0 h 0.0038 c 1.236501,2.66736 3.538158,3.38087 6.11857,2.91926 v 0 c 3.760651,-0.73908 7.269398,-4.26957 6.506016,-8.24888 z" /><path
       style="stroke-width:1.27869797"
       inkscape:connector-curvature="0"
       id="path8"
       d="m 50.673715,149.1441 c -0.503807,0.0205 -2.457657,0.25318 -2.774774,0.6304 -0.469282,0.55879 0.305609,2.21342 0.813252,2.51647 2.270967,1.33624 5.030397,-3.28881 1.961522,-3.14687 z" /><path
       style="stroke-width:1.27869797"
       inkscape:connector-curvature="0"
       id="path10"
       d="m 55.765491,116.55904 c -0.27492,1.55362 -1.570241,2.85149 -3.837373,4.03301 v 0 c -1.914211,0.97309 -5.196629,1.85283 -7.816681,1.46155 v 0 c -0.901482,-0.14705 -1.779947,-0.46033 -2.429526,-1.1521 v 0 c -0.662365,-0.70329 -0.92322,-1.74415 -0.732694,-2.83871 v 0 c 0.112526,-0.70712 0.382331,-1.459 0.799186,-2.30038 v 0 c 0.975647,-1.92956 2.724906,-3.04714 4.622494,-3.4819 v 0 l 0.226329,0.95391 -0.219936,-0.95391 c 1.614996,-0.37593 3.189073,-0.40918 4.581575,-0.18669 v 0 c 2.666085,0.43093 5.100726,1.90143 4.806626,4.46522 z m -4.749085,2.28631 c 2.049753,-1.03958 2.75048,-2.07405 2.808021,-2.59831 v 0 c 0.04987,-0.3964 -0.07289,-0.74421 -0.60866,-1.2007 v 0 c -0.528102,-0.43987 -1.448765,-0.83371 -2.570183,-1.00506 v 0 c -1.127812,-0.18413 -2.46533,-0.15984 -3.827143,0.15472 v 0 c -1.48329,0.35548 -2.62261,1.11375 -3.305434,2.45766 v 0 c -0.363151,0.71096 -0.557513,1.28893 -0.620169,1.71857 v 0 c -0.104853,1.25824 0.200756,1.38611 1.530602,1.73392 v 0 c 0.02174,0.0128 0.04603,0.0128 0.06905,0.0166 v 0 c 1.892473,0.29794 5.07771,-0.49486 6.523917,-1.27742 z" /><path
       style="stroke-width:1.27869797"
       inkscape:connector-curvature="0"
       id="path12"
       d="m 48.094581,116.69074 c -0.329904,-0.10613 -1.654635,-0.42197 -1.947457,-0.2519 -0.44115,0.2519 -0.332461,1.51654 -0.07416,1.83365 1.155943,1.40401 4.049636,-0.94751 2.021621,-1.58175 z" /><path
       style="stroke-width:1.27869797"
       inkscape:connector-curvature="0"
       id="path14"
       d="m 117.91405,121.21094 -0.98076,0.1023 -0.97821,0.10101 c -0.12275,-2.12519 -3.93967,-7.1671 -7.5392,-9.11328 v 0 c -1.57919,-0.89636 -3.02924,-1.17384 -3.9857,-0.79663 v 0 c -0.59204,0.23528 -1.01912,0.6368 -1.36693,1.25313 v 0 c -0.99483,1.67637 -0.87335,4.93194 -0.24295,6.79244 v 0 c 0.50764,1.68277 2.47811,3.67626 4.80534,4.95751 v 0 c 1.64313,0.93473 3.44865,1.5191 4.89998,1.56769 v 0 c 1.47817,0.0217 2.43464,-0.38873 2.99854,-1.37332 v 0 c 0.37594,-0.66109 0.5946,-1.71474 0.43604,-3.28754 v 0 l 0.97948,-0.0997 0.97437,-0.10358 c 0.18669,1.83621 -0.0345,3.31055 -0.67771,4.45243 v 0 c -2.18402,3.56629 -6.95484,2.59064 -10.58378,0.56902 v 0 c -2.5996,-1.48713 -4.89486,-3.62 -5.70683,-6.08149 v 0 c -0.71863,-2.32084 -0.989716,-5.80145 0.39895,-8.36396 v 0 c 0.50764,-0.91683 1.30299,-1.71857 2.39117,-2.1252 v 0 c 1.84516,-0.6662 3.82074,-0.0985 5.65056,0.92066 v 0 c 4.14298,2.42186 8.07242,7.23615 8.52764,10.62854 z" /><path
       style="stroke-width:1.27869797"
       inkscape:connector-curvature="0"
       id="path16"
       d="m 109.66133,118.36967 c -0.29921,-0.23272 -1.52804,-1.04853 -1.89247,-0.98587 -0.54217,0.0908 -0.9066,1.4104 -0.76083,1.83493 0.6483,1.8669 4.47417,0.56007 2.6533,-0.84906 z" /><path
       style="stroke-width:1.27869797"
       inkscape:connector-curvature="0"
       id="path18"
       d="m 33.310275,96.24692 -0.452659,0.873351 -0.460331,0.87335 C 31.494524,97.519225 28.920505,96.37479 26.508881,95.5398 v 0 c -2.040802,-0.767219 -4.255507,-1.141877 -4.463935,-0.959023 v 0 c -0.469282,0.127869 -1.121418,0.941121 -1.544667,2.19936 v 0 c -0.888695,2.369427 -0.803022,6.174833 -0.239116,7.002153 v 0 c 0.820924,1.45899 1.970473,2.32083 3.345073,2.79907 v 0 c 2.111131,0.74292 4.784888,0.45905 7.045626,-0.46673 v 0 c 2.268411,-0.91171 4.03685,-2.49602 4.48823,-3.87445 v 0 c 0.414298,-1.3388 0.122755,-2.662252 -2.744086,-4.24528 v 0 l 0.460332,-0.873351 0.453937,-0.874629 c 3.324615,1.646963 4.552165,4.29515 3.690323,6.63389 v 0 c -1.666144,4.34245 -8.581342,7.32438 -14.040104,5.56233 v 0 c -1.768439,-0.60738 -3.35914,-1.81959 -4.416623,-3.69671 v 0 c -1.010171,-1.96792 -0.866957,-5.644177 0.09718,-8.609478 v 0 c 0.526824,-1.485847 1.295321,-2.851496 2.746643,-3.416681 v 0 c 1.557455,-0.442429 3.499797,0.230166 5.76565,0.955187 v 0 c 2.536936,0.882302 5.110956,2.028015 6.156931,2.571462 z" /><path
       style="stroke-width:1.27869797"
       inkscape:connector-curvature="0"
       id="path20"
       d="M 26.400192,99.414255 C 25.9795,99.13422 24.257094,98.185426 23.783976,98.301788 c -0.713514,0.182853 -1.052369,1.978142 -0.814531,2.522872 1.062598,2.40907 6.003487,0.26469 3.430747,-1.410405 z" /><path
       style="stroke-width:1.27869797"
       inkscape:connector-curvature="0"
       id="path22"
       d="m 64.676737,71.903068 c 3.511305,1.279977 6.066143,5.10712 4.79256,8.807672 v 0 c -0.427085,1.199418 -1.288928,2.311886 -2.581691,3.206974 v 0 c -2.388608,1.680209 -5.145481,1.967916 -7.37553,1.157222 v 0 c -3.175007,-1.150828 -5.229875,-4.62633 -3.750421,-8.742458 v 0 c 0.09079,-0.259576 0.200755,-0.528103 0.320953,-0.79535 v 0 c 0.742923,-1.629062 1.877128,-2.777332 3.1814,-3.393665 v 0 l 0.424528,0.889974 -0.418134,-0.889974 c 1.827259,-0.868236 3.745306,-0.842662 5.385876,-0.249346 v 0 c 0.01151,0.0026 0.01534,0.0026 0.02046,0.009 z m 1.086893,10.397093 c 1.01145,-0.702005 1.572799,-1.471781 1.855391,-2.25818 v 0 c 0.836268,-2.336182 -0.943679,-5.325778 -3.607207,-6.288637 v 0 c -1.224993,-0.438594 -2.554839,-0.460331 -3.900029,0.173903 v 0 l -0.0013,-0.0013 c -0.870793,0.420692 -1.643126,1.159779 -2.230049,2.432084 v 0 c -0.09846,0.213542 -0.189247,0.428363 -0.265969,0.639349 v 0 c -1.113746,3.236384 0.305609,5.353908 2.565068,6.229816 v 0 c 1.612438,0.577972 3.678814,0.411741 5.584074,-0.927056 z" /><path
       style="stroke-width:1.27869797"
       inkscape:connector-curvature="0"
       id="path24"
       d="m 64.510506,77.466683 c -0.444987,-0.242953 -2.242836,-1.042139 -2.704446,-0.88358 -0.691776,0.237837 -0.879744,2.057425 -0.594595,2.580412 1.263354,2.309329 6.003487,-0.246789 3.299041,-1.696832 z" /><path
       style="stroke-width:1.27869797"
       inkscape:connector-curvature="0"
       id="path26"
       d="m 34.201528,161.10632 c -0.756989,1.41424 -2.403952,2.22237 -4.788724,2.42441 v 0 c -1.95385,0.17134 -4.23249,-0.43604 -6.179947,-1.46411 v 0 c -2.507527,-1.33624 -4.928102,-3.75554 -3.521535,-6.63261 v 0 c 0.537054,-1.0025 1.5127,-1.86306 2.951235,-2.63411 v 0 c 1.304272,-0.69434 2.68143,-0.92834 3.985702,-0.79152 v 0 l -0.09718,0.97181 0.09846,-0.97692 c 1.130369,0.12019 2.215983,0.48846 3.214646,1.01656 v 0 c 3.127696,1.73136 5.741354,5.03296 4.337343,8.08649 z m -4.962627,0.46289 c 2.085556,-0.17902 2.941005,-0.83244 3.23127,-1.38739 v 0 c 0.319674,-0.57542 0.219936,-1.50759 -0.436036,-2.58681 v 0 c -0.645743,-1.06387 -1.78762,-2.14309 -3.091892,-2.8272 v 0 c -0.804301,-0.43348 -1.657192,-0.70712 -2.490904,-0.79663 v 0 h 0.0013 c -0.947515,-0.0946 -1.887358,0.0601 -2.864283,0.58181 v 0 c -1.230108,0.64702 -1.873293,1.29788 -2.137983,1.81319 v 0 c -0.327347,0.65853 -0.258297,1.15978 0.202034,1.90526 v 0 c 0.470561,0.7148 1.395059,1.46923 2.504969,2.05999 v 0 c 0.01023,0.004 0.0179,0.009 0.0179,0.009 h 0.0077 c 1.635455,0.87591 3.676257,1.37076 5.055972,1.22883 z" /><path
       style="stroke-width:1.27869797"
       inkscape:connector-curvature="0"
       id="path28"
       d="m 28.687782,157.61419 c -0.33374,-0.2519 -1.713455,-1.11758 -2.109851,-1.0383 -0.594595,0.11253 -0.961581,1.57664 -0.790236,2.04464 0.763383,2.03313 4.943447,0.49485 2.900087,-1.00634 z" /><path
       style="stroke-width:1.27869797"
       inkscape:connector-curvature="0"
       id="path30"
       d="m 100.16572,74.235413 c 2.24539,1.260796 4.59308,3.559895 5.00994,6.497064 v 0 c 0.13043,0.997385 0,2.057425 -0.46033,3.081663 v 0 c -0.88486,2.031851 -2.74153,3.084219 -4.67109,3.310549 v 0 c -4.315601,0.468003 -9.52246,-2.108573 -11.056897,-5.768207 v 0 c -0.205871,-0.543447 -0.346527,-1.07027 -0.41302,-1.588143 v 0 c -0.464167,-3.860389 2.949957,-5.994536 6.167161,-6.420342 v 0 c 1.873292,-0.231445 3.830979,0.0179 5.424236,0.887416 z m 2.75559,8.778262 c 0.30945,-0.699448 0.39001,-1.361814 0.3005,-2.028015 v 0 c -0.21738,-1.956408 -2.13415,-4.013833 -4.007441,-5.027841 v 0 c -1.100959,-0.612496 -2.70061,-0.852891 -4.220982,-0.652136 v 0 c -2.758151,0.404069 -4.765707,1.884801 -4.46777,4.209474 v 0 c 0.03964,0.346527 0.141935,0.727579 0.296657,1.131648 v 0 c 0.814531,2.435919 5.683813,5.035512 8.968788,4.521476 v 0 c 1.473058,-0.212264 2.521588,-0.814531 3.121298,-2.154606 v 0 l 0.90021,0.395117 z" /><path
       style="stroke-width:1.27869797"
       inkscape:connector-curvature="0"
       id="path32"
       d="m 96.246511,78.328525 c -0.503807,-0.01662 -2.469166,0.09079 -2.805463,0.447545 -0.506364,0.531938 0.159837,2.231328 0.649579,2.568904 2.173786,1.478175 5.223481,-2.96658 2.155884,-3.016449 z" /><path
       style="stroke-width:1.27869797"
       inkscape:connector-curvature="0"
       id="path34"
       d="m 85.436399,60.022685 c 0.840104,1.888637 0.41174,4.283638 -1.441093,6.856379 v 0 c -1.1585,1.622667 -2.902644,3.315663 -4.997152,4.255506 v 0 c -1.103516,0.493578 -2.317,0.769777 -3.571403,0.638071 v 0 c -2.717233,-0.306888 -5.06748,-2.295263 -6.176111,-4.74397 v 0 c -0.794072,-1.753095 -0.911712,-3.85911 0.190526,-5.699157 v 0 c 0.432199,-0.70712 0.93217,-1.336239 1.507584,-1.888637 v 0 l 0.686661,0.709678 -0.678988,-0.710956 c 0.874629,-0.826039 1.868177,-1.469224 2.921825,-1.942343 v 0 c 4.318163,-1.868177 9.747514,-1.184074 11.558151,2.525429 z m -3.04458,5.711944 c 1.623946,-2.292706 1.709619,-3.864225 1.244173,-4.907643 v 0 c -0.457774,-1.065155 -1.708341,-1.891194 -3.409009,-2.215984 v 0 c -1.695554,-0.32351 -3.754257,-0.115082 -5.546992,0.685383 v 0 c -0.869514,0.38233 -1.677652,0.907875 -2.370706,1.571519 v 0 -0.0064 c -0.447544,0.436036 -0.847777,0.925777 -1.181517,1.480732 v 0 c -0.709677,1.193025 -0.668759,2.551003 -0.07928,3.883406 v 0 c 0.809416,1.859227 2.747922,3.412845 4.581575,3.58419 v 0 c 0.832432,0.08695 1.700668,-0.08695 2.568904,-0.471839 v 0 c 0.0051,-0.0077 0.01023,-0.0077 0.0179,-0.01023 v 0 c 1.635455,-0.731415 3.200581,-2.20959 4.174949,-3.593141 z" /><path
       style="stroke-width:1.27869797"
       inkscape:connector-curvature="0"
       id="path36"
       d="m 77.759096,60.910101 c -0.483348,0.1381 -2.334903,0.800465 -2.558675,1.240337 -0.33374,0.652136 0.790236,2.093229 1.357978,2.273525 2.512641,0.795351 4.157047,-4.339901 1.200697,-3.513862 z" /><path
       style="stroke-width:1.27869797"
       inkscape:connector-curvature="0"
       id="path38"
       d="m 53.439539,57.370665 c 2.35664,2.374543 3.728683,6.08916 1.242894,8.645277 v 0 c -0.210985,0.209707 -0.446265,0.404069 -0.703283,0.585644 v 0 c -3.29009,2.251787 -7.62104,0.932171 -10.140075,-1.579192 v 0 c -1.111189,-1.116303 -1.906539,-2.515199 -2.065098,-4.043243 v 0 c -0.157279,-1.529323 0.393839,-3.154548 1.779948,-4.529148 v 0 c 0.0959,-0.101017 0.194362,-0.189247 0.301773,-0.281314 v 0 l 0.501249,0.552398 -0.501249,-0.554955 c 3.052252,-2.718512 7.087823,-1.300436 9.539087,1.1585 v 0 c 0.01279,0.01279 0.02941,0.03453 0.04475,0.04603 z m -0.320953,8.00465 c 0.194362,-0.136821 0.36315,-0.27492 0.507643,-0.420692 v 0 c 1.604766,-1.611159 0.858006,-4.384655 -1.249288,-6.522638 v 0 c -2.212147,-2.18018 -5.318105,-3.176286 -7.517465,-1.158501 v 0 0 c -0.08695,0.08184 -0.168789,0.162395 -0.24551,0.239117 v 0 c -2.162279,2.207033 -1.544668,4.518919 0.287707,6.453589 v 0 c 0,0 0.0013,0 0.0038,0.0064 v 0 c 2.134147,2.135426 5.806567,3.134089 8.213077,1.402732 z" /><path
       style="stroke-width:1.27869797"
       inkscape:connector-curvature="0"
       id="path40"
       d="m 49.606003,59.589206 c -0.225051,-0.306887 -1.204534,-1.444928 -1.572799,-1.484568 -0.557512,-0.05754 -1.278698,1.134205 -1.249288,1.585586 0.118919,1.998604 4.215867,1.778668 2.822087,-0.101018 z" /><path
       style="stroke-width:1.27869797"
       inkscape:connector-curvature="0"
       id="path42"
       d="m 84.184553,121.62907 c -0.303051,0.30689 -0.624004,0.56391 -0.95263,0.77362 v 0 c -3.510026,2.29782 -7.810287,0.39128 -9.780761,-2.54845 v 0 c -1.383551,-2.01778 -1.645684,-4.83987 0.40279,-7.0111 v 0 l 0.54984,0.51404 -0.54984,-0.51404 c 0.381052,-0.40151 0.790236,-0.74164 1.223714,-1.03574 v 0 c 3.577797,-2.33874 8.242487,-0.75699 10.27306,2.2569 v 0 c 0.01918,0.0268 0.03708,0.0499 0.05754,0.0793 v 0 c 1.392502,2.08555 1.334961,5.05085 -1.223714,7.48549 z m -1.782505,-0.468 c 0.249346,-0.16751 0.494856,-0.36315 0.728858,-0.60482 v 0 c 2.132868,-2.13543 2.012671,-4.03302 0.974368,-5.66719 v 0 c -1.585586,-2.36815 -5.484336,-3.64173 -8.196454,-1.83877 v 0 c -0.337576,0.22761 -0.65853,0.49486 -0.953909,0.80942 v 0 0 c -1.512699,1.65591 -1.333682,3.47933 -0.254461,5.15443 v 0 c 1.622668,2.42569 5.127579,3.85655 7.701598,2.14693 z" /><path
       style="stroke-width:1.27869797"
       inkscape:connector-curvature="0"
       id="path44"
       d="m 80.329279,117.6779 c -0.132985,-0.28132 -0.728858,-1.33752 -1.019122,-1.42575 -0.4322,-0.13298 -1.18919,0.69945 -1.240337,1.06132 -0.219937,1.60221 3.065039,2.06893 2.259459,0.36443 z" /><path
       style="stroke-width:1.27869797"
       inkscape:connector-curvature="0"
       id="path46"
       d="m 17.850817,131.29475 c -0.980761,0.0959 -1.978146,-0.46416 -3.07399,-1.6265 v 0 c -0.905318,-0.99355 -1.984539,-2.81953 -2.19041,-4.46266 v 0 c -0.06266,-0.5639 -0.02046,-1.14827 0.28515,-1.65847 v 0 c 0.309445,-0.51276 0.89381,-0.84394 1.585585,-0.9181 v 0 c 0.443709,-0.0511 0.94368,-0.0153 1.517815,0.0959 v 0 c 1.328567,0.26085 2.291427,1.12525 2.871956,2.19552 v 0 l -0.537054,0.29666 0.537054,-0.29282 c 0.499971,0.91299 0.78512,1.85155 0.88358,2.72874 v 0 c 0.190526,1.67765 -0.28515,3.38855 -1.879686,3.64173 z m -2.173787,-2.47044 c 0.973089,1.05876 1.712177,1.30555 2.035688,1.25184 v 0 c 0.249346,-0.0294 0.439872,-0.16623 0.622725,-0.56646 v 0 c 0.176461,-0.39128 0.258297,-1.00889 0.173903,-1.71601 v 0 c -0.08056,-0.71096 -0.320953,-1.51142 -0.73653,-2.26969 v 0 c -0.464167,-0.83627 -1.10991,-1.3989 -2.033129,-1.58559 v 0 c -0.489742,-0.0946 -0.868236,-0.11508 -1.140599,-0.0831 v 0 c -0.771055,0.15088 -0.801744,0.35292 -0.786399,1.21476 v 0 c -0.0038,0.0141 0,0.0269 0.0013,0.0409 v 0 c 0.134264,1.18919 1.14955,2.97041 1.863063,3.71334 z" /><path
       style="stroke-width:1.27869797"
       inkscape:connector-curvature="0"
       id="path48"
       d="m 17.262616,127.37426 c 0.01023,-0.23016 -0.02685,-1.12653 -0.185411,-1.28253 -0.241674,-0.23656 -1.020401,0.0575 -1.175124,0.28004 -0.685382,0.98076 1.31578,2.39755 1.360535,1.00249 z" /><path
       style="stroke-width:1.27869797"
       inkscape:connector-curvature="0"
       id="path50"
       d="m 99.573683,148.28737 -0.746759,-0.0486 -0.74676,-0.0627 c 0.19692,-1.6086 -1.98326,-5.89735 -4.415344,-7.83969 v 0 c -1.068991,-0.88486 -2.11113,-1.28893 -2.882185,-1.13804 v 0 c -0.470561,0.0946 -0.849056,0.34652 -1.194304,0.75315 v 0 c -0.969253,1.12653 -1.31578,3.58419 -1.095844,5.05853 v 0 c 0.154722,1.32729 1.359256,3.08677 2.926939,4.35908 v 0 c 1.108632,0.9245 2.382215,1.60604 3.461436,1.83621 v 0 c 1.103516,0.21482 1.877128,0.0358 2.428247,-0.62401 v 0 c 0.369544,-0.44242 0.678989,-1.19941 0.771055,-2.40523 v 0 l 0.74676,0.0627 0.746759,0.0486 c -0.10741,1.40657 -0.469282,2.47812 -1.107352,3.24917 v 0 c -2.116245,2.37071 -5.5585,0.99994 -8.005928,-1.00505 v 0 c -1.744144,-1.46156 -3.17245,-3.36937 -3.449927,-5.32195 v 0 c -0.228887,-1.83365 0.04092,-4.47927 1.427027,-6.21063 v 0 c 0.503807,-0.61506 1.205812,-1.10863 2.075327,-1.26847 v 0 c 1.470502,-0.25062 2.874513,0.44115 4.103341,1.4526 v 0 c 2.77989,2.36815 5.075153,6.50857 4.957512,9.10433 z" /><path
       style="stroke-width:1.27869797"
       inkscape:connector-curvature="0"
       id="path52"
       d="m 94.483187,146.05349 c -0.258297,-0.29027 -1.340076,-1.32601 -1.714734,-1.32729 -0.557513,-0.0102 -1.159779,1.24801 -1.086893,1.69427 0.310723,1.97815 4.366753,1.36181 2.801627,-0.36698 z" /><path
       style="stroke-width:1.27869797"
       inkscape:connector-curvature="0"
       id="path54"
       d="m 28.166073,127.27836 0.309445,0.68027 0.313281,0.68282 c -0.712234,0.31968 -2.604707,1.32218 -4.241441,2.37455 v 0 c -1.41424,0.86184 -2.681429,2.00755 -2.6712,2.21982 v 0 c -0.143214,0.34269 0.03708,1.11246 0.594595,1.95768 v 0 c 1.00122,1.64313 3.320778,3.37704 4.079046,3.43459 v 0 c 1.260796,0.18796 2.315722,-0.0972 3.246614,-0.69178 v 0 c 1.438536,-0.90915 2.522872,-2.64563 3.033072,-4.43836 v 0 c 0.519151,-1.78506 0.400232,-3.58675 -0.213543,-4.50485 v 0 c -0.606102,-0.87463 -1.534437,-1.32473 -3.824585,-0.35165 v 0 l -0.313281,-0.68282 -0.312003,-0.68027 c 2.548446,-1.2186 4.712003,-0.71223 5.708108,0.9066 v 0 c 1.815751,3.03691 0.352921,8.57878 -3.265794,11.01854 v 0 c -1.195583,0.77105 -2.669922,1.15339 -4.287475,0.90915 v 0 c -1.650799,-0.32223 -3.787503,-2.13414 -5.109677,-4.10717 v 0 c -0.641906,-1.01145 -1.09968,-2.11369 -0.756989,-3.24918 v 0 c 0.469282,-1.13804 1.785062,-1.98837 3.27986,-3.00494 v 0 c 1.719849,-1.09968 3.616158,-2.1009 4.431967,-2.473 z" /><path
       style="stroke-width:1.27869797"
       inkscape:connector-curvature="0"
       id="path56"
       d="m 27.694234,136.43895 c -0.202034,0.0895 -0.964138,0.50509 -1.033188,0.71096 -0.09974,0.30305 0.484626,0.85801 0.744202,0.89765 1.146992,0.17262 1.520372,-2.16867 0.288986,-1.60861 z" /><path
       style="stroke-width:1.27869797"
       inkscape:connector-curvature="0"
       id="path58"
       d="m 77.867785,149.20164 c -1.92444,2.09706 -5.362859,2.77094 -7.59163,0.79279 v 0 c -0.717349,-0.64702 -1.24673,-1.57791 -1.498634,-2.74664 v 0 c -0.482069,-2.17507 0.121477,-4.19285 1.341354,-5.51886 v 0 c 1.737751,-1.89503 4.777216,-2.32467 7.239988,-0.0806 v 0 c 0.15728,0.13938 0.312003,0.29666 0.466725,0.4565 v 0 c 0.921941,0.99738 1.398896,2.12647 1.448765,3.22359 v 0 l -0.74676,0.0396 0.74676,-0.0332 c 0.078,1.53571 -0.499971,2.87707 -1.396338,3.85655 v 0 c -0.0013,0.006 -0.0038,0.006 -0.01023,0.0102 z m -7.623597,-2.2748 c 0.196919,0.92066 0.575414,1.53315 1.043417,1.96152 v 0 c 1.396339,1.26847 4.017669,0.89125 5.474106,-0.69306 v 0 c 0.663645,-0.73013 1.066435,-1.6623 1.016565,-2.79651 v 0 h 0.0026 c -0.0422,-0.73269 -0.337576,-1.49352 -1.058762,-2.2748 v 0 c -0.122755,-0.13299 -0.24551,-0.2583 -0.374659,-0.37082 v 0 c -1.944899,-1.73136 -3.848881,-1.35287 -5.125021,-0.0243 v 0 c -0.872072,0.96925 -1.361814,2.46405 -0.978204,4.19797 z" /><path
       style="stroke-width:1.27869797"
       inkscape:connector-curvature="0"
       id="path60"
       d="m 73.448605,147.4332 c 0.23528,-0.18413 1.084336,-0.98715 1.09968,-1.28126 0.02685,-0.43603 -0.928334,-0.95135 -1.281255,-0.9181 -1.554897,0.16751 -1.232665,3.35786 0.181575,2.19936 z" /><path
       style="stroke-width:1.27869797"
       inkscape:connector-curvature="0"
       id="path62"
       d="m 55.814081,95.878655 c 0.173903,1.205812 -0.466725,2.446149 -1.834931,3.649404 v 0 c -1.118861,0.985881 -2.787562,1.644401 -4.443476,1.902701 v 0 c -2.14054,0.31328 -4.715838,-0.0665 -5.15571,-2.462771 v 0 c -0.126591,-0.861842 0.08056,-1.82598 0.616332,-2.949956 v 0 c 0.484627,-1.012729 1.217321,-1.782505 2.077885,-2.287591 v 0 l 0.377215,0.640628 -0.377215,-0.641906 c 0.74548,-0.439872 1.575355,-0.705842 2.429526,-0.833711 v 0 c 2.691659,-0.361872 5.786108,0.48079 6.310374,2.983202 z m -2.82848,2.525429 c 1.193025,-1.05109 1.42447,-1.837489 1.350305,-2.309329 v 0 c -0.06649,-0.494856 -0.548561,-1.02168 -1.439814,-1.38483 v 0 c -0.875908,-0.360593 -2.061261,-0.506364 -3.171171,-0.335019 v 0 c -0.685382,0.101017 -1.332403,0.319675 -1.8848,0.640628 v 0 h 0.0026 c -0.624005,0.369544 -1.126533,0.887416 -1.492241,1.64952 v 0 c -0.457773,0.953909 -0.554954,1.644406 -0.485905,2.077884 v 0 c 0.09846,0.552398 0.370823,0.832433 0.987155,1.077943 v 0 c 0.611218,0.226329 1.519093,0.268529 2.464051,0.126591 v 0 c 0.0077,0 0.01534,-0.0013 0.02174,-0.0077 v 0 c 1.395059,-0.204592 2.868119,-0.818367 3.648125,-1.535716 z" /><path
       style="stroke-width:1.27869797"
       inkscape:connector-curvature="0"
       id="path64"
       d="m 50.995947,96.959155 c -0.384888,-0.0013 -1.874571,0.112525 -2.129032,0.386167 -0.377216,0.413019 0.150886,1.698111 0.533217,1.943621 1.678931,1.086897 3.930718,-2.336182 1.595815,-2.329788 z" /><path
       style="stroke-width:1.27869797"
       inkscape:connector-curvature="0"
       id="path66"
       d="m 44.709868,80.951135 c 0.2161,1.946178 -0.163673,4.417901 -1.795292,5.977913 v 0 c -0.558791,0.525545 -1.272305,0.91299 -2.106016,1.081778 v 0 c -1.652077,0.3542 -3.121301,-0.324789 -4.125079,-1.416797 v 0 c -2.204476,-2.461494 -2.921825,-6.819296 -1.343912,-9.394594 v 0 c 0.248068,-0.368265 0.508922,-0.689218 0.803022,-0.959024 v 0 c 2.178902,-2.001162 5.012497,-0.840104 6.706771,0.960303 v 0 c 0.97309,1.053647 1.690439,2.371984 1.860506,3.750421 z m -4.205638,5.594303 c 0.5703,-0.116361 1.012729,-0.36315 1.387388,-0.712234 v 0 c 1.109909,-1.0025 1.530601,-3.099564 1.328567,-4.706888 v 0 c -0.111247,-0.955187 -0.671317,-2.05231 -1.466667,-2.901365 v 0 c -1.478175,-1.524208 -3.282417,-2.107295 -4.590526,-0.896368 v 0 c -0.190526,0.184133 -0.384888,0.414299 -0.566463,0.693055 v 0 c -1.141877,1.577913 -0.586922,5.747747 1.185353,7.543039 v 0 c 0.785121,0.817088 1.627783,1.199419 2.723627,0.975647 v 0 l 0.154722,0.732694 z" /><path
       style="stroke-width:1.27869797"
       inkscape:connector-curvature="0"
       id="path68"
       d="m 41.213908,82.695279 c -0.2161,-0.319675 -1.157222,-1.487126 -1.525487,-1.538274 -0.553676,-0.07544 -1.309387,1.086893 -1.300436,1.544667 0.05498,2.001163 4.153211,1.911654 2.825923,-0.0064 z" /><path
       style="stroke-width:1.27869797"
       inkscape:connector-curvature="0"
       id="path70"
       d="m 95.892312,93.387751 c 1.570241,-0.05115 3.134089,0.941122 4.415348,2.984481 v 0 c 0.80941,1.287649 1.50119,3.002383 1.55617,4.749088 v 0 c 0.0307,0.9181 -0.12531,1.85539 -0.57413,2.69549 v 0 c -1.0025,1.82726 -3.076551,2.91415 -5.122468,2.98832 v 0 c -1.465388,0.0524 -2.981924,-0.468 -3.958849,-1.77355 v 0 c -0.377216,-0.50893 -0.676431,-1.0447 -0.896367,-1.60733 v 0 l 0.69689,-0.2762 -0.69689,0.26981 c -0.329904,-0.85289 -0.497414,-1.73775 -0.524266,-2.6175 v 0 c -0.07417,-3.576515 1.967916,-7.206738 5.104562,-7.412609 z m 3.146876,3.790061 c -1.146992,-1.804243 -2.232607,-2.318279 -3.102122,-2.292705 v 0 c -0.879744,0.02174 -1.820866,0.662365 -2.539494,1.769718 v 0 c -0.714792,1.095844 -1.159779,2.608544 -1.116303,4.100785 v 0 c 0.0243,0.71863 0.159837,1.44493 0.428364,2.12264 v 0 h -0.0038 c 0.177739,0.43603 0.404068,0.8644 0.703283,1.25824 v 0 c 0.634235,0.8401 1.60093,1.20325 2.71084,1.17512 v 0 c 1.540831,-0.0384 3.195466,-0.95519 3.843766,-2.20192 v 0 c 0.301778,-0.55751 0.425808,-1.2186 0.404068,-1.94106 v 0 -0.0153 0 c -0.0448,-1.363088 -0.634233,-2.893689 -1.328566,-3.975468 z" /><path
       style="stroke-width:1.27869797"
       inkscape:connector-curvature="0"
       id="path72"
       d="m 95.434538,100.24285 c -0.03836,0.33758 -0.0959,1.6687 0.121476,1.92188 0.318396,0.37466 1.513979,0.0409 1.770997,-0.27108 1.13932,-1.37076 -1.655914,-3.714617 -1.892473,-1.6508 z" /></g></svg>