<?xml version="1.0" encoding="UTF-8" standalone="no"?>
<svg
   xmlns:dc="http://purl.org/dc/elements/1.1/"
   xmlns:cc="http://creativecommons.org/ns#"
   xmlns:rdf="http://www.w3.org/1999/02/22-rdf-syntax-ns#"
   xmlns:svg="http://www.w3.org/2000/svg"
   xmlns="http://www.w3.org/2000/svg"
   xmlns:sodipodi="http://sodipodi.sourceforge.net/DTD/sodipodi-0.dtd"
   xmlns:inkscape="http://www.inkscape.org/namespaces/inkscape"
   version="1.1"
   x="0px"
   y="0px"
   viewBox="0 0 170 170"
   enable-background="new 0 0 100 100"
   xml:space="preserve"
   id="svg4"
   sodipodi:docname="diarrhee.svg"
   width="170"
   height="170"
   inkscape:version="0.92.3 (2405546, 2018-03-11)"><metadata
     id="metadata10"><rdf:RDF><cc:Work
         rdf:about=""><dc:format>image/svg+xml</dc:format><dc:type
           rdf:resource="http://purl.org/dc/dcmitype/StillImage" /><dc:title></dc:title></cc:Work></rdf:RDF></metadata><defs
     id="defs8" /><sodipodi:namedview
     pagecolor="#ffffff"
     bordercolor="#666666"
     borderopacity="1"
     objecttolerance="10"
     gridtolerance="10"
     guidetolerance="10"
     inkscape:pageopacity="0"
     inkscape:pageshadow="2"
     inkscape:window-width="1600"
     inkscape:window-height="836"
     id="namedview6"
     showgrid="false"
     inkscape:zoom="2.36"
     inkscape:cx="3.3898305"
     inkscape:cy="50"
     inkscape:window-x="0"
     inkscape:window-y="27"
     inkscape:window-maximized="1"
     inkscape:current-layer="svg4" /><rect
     style="opacity:1;fill:#b3b3b3;fill-opacity:0.91166077;fill-rule:nonzero;stroke:none;stroke-width:7.5;stroke-linecap:round;stroke-miterlimit:4;stroke-dasharray:none;stroke-dashoffset:0;stroke-opacity:1"
     id="rect817"
     width="177.96609"
     height="177.11864"
     x="-2.5423729"
     y="-3.3050847" /><path
     d="m 84.99876,123.89114 c 12.376633,0 22.41304,-1.95826 22.41304,-4.38308 -12.637887,0 -21.346818,-25.382793 -22.317242,-33.815523 2.320307,-0.04977 4.187755,-1.937114 4.187755,-4.268619 0,-2.362607 -1.91597,-4.282304 -4.282309,-4.282304 -2.362607,0 -4.279815,1.919697 -4.279815,4.282304 0,2.331505 1.868686,4.220098 4.187749,4.268619 -0.969179,8.43273 -9.67935,33.815523 -22.317249,33.815523 -0.0025,2.42482 10.032685,4.38308 22.408071,4.38308 z m 0,-55.049133 c 3.502233,0 6.345073,-2.841599 6.345073,-6.343832 0,-3.499745 -2.841596,-6.340099 -6.345073,-6.340099 -3.499745,0 -6.341343,2.840354 -6.341343,6.340099 0,3.503477 2.841599,6.343832 6.341343,6.343832 z m 0,66.812403 c 19.08001,0 34.5396,-4.57094 34.5396,-10.21059 0,-2.28921 -2.5654,-4.39055 -6.8589,-6.09128 0.9866,0.8597 1.54521,1.77911 1.54521,2.73088 0,4.7389 -13.08205,8.57331 -29.225911,8.57331 -16.141374,0 -29.222183,-3.83441 -29.222183,-8.57331 0,-0.95301 0.558615,-1.87118 1.545212,-2.73088 -4.293501,1.70073 -6.862635,3.80332 -6.862635,6.09128 0,5.63965 15.463323,10.21059 34.539607,10.21059 z m 35.06338,-16.30187 c 2.34892,1.75921 3.70254,3.71001 3.70254,5.78273 0,7.52078 -17.35565,13.61952 -38.764676,13.61952 -21.405299,0 -38.760947,-6.09874 -38.760947,-13.61952 0,-2.07272 1.353616,-4.02352 3.702537,-5.78273 -12.759822,3.05933 -20.927551,7.73851 -20.927551,12.99248 0,9.2016 25.064293,16.6664 55.984717,16.6664 30.92415,0 55.9872,-7.4648 55.9872,-16.6664 0,-5.25397 -8.16773,-9.93315 -20.92382,-12.99248 z"
     id="path2"
     inkscape:connector-curvature="0"
     style="fill:#0000ff;stroke-width:1.24413252" /></svg>