<?xml version="1.0" encoding="UTF-8" standalone="no"?>
<svg
   xmlns:dc="http://purl.org/dc/elements/1.1/"
   xmlns:cc="http://creativecommons.org/ns#"
   xmlns:rdf="http://www.w3.org/1999/02/22-rdf-syntax-ns#"
   xmlns:svg="http://www.w3.org/2000/svg"
   xmlns="http://www.w3.org/2000/svg"
   xmlns:sodipodi="http://sodipodi.sourceforge.net/DTD/sodipodi-0.dtd"
   xmlns:inkscape="http://www.inkscape.org/namespaces/inkscape"
   version="1.1"
   x="0px"
   y="0px"
   viewBox="0 0 170 170"
   id="svg8"
   sodipodi:docname="ectoparasites.svg"
   width="170"
   height="170"
   inkscape:version="0.92.3 (2405546, 2018-03-11)">
  <metadata
     id="metadata14">
    <rdf:RDF>
      <cc:Work
         rdf:about="">
        <dc:format>image/svg+xml</dc:format>
        <dc:type
           rdf:resource="http://purl.org/dc/dcmitype/StillImage" />
        <dc:title></dc:title>
      </cc:Work>
    </rdf:RDF>
  </metadata>
  <defs
     id="defs12" />
  <sodipodi:namedview
     pagecolor="#ffffff"
     bordercolor="#666666"
     borderopacity="1"
     objecttolerance="10"
     gridtolerance="10"
     guidetolerance="10"
     inkscape:pageopacity="0"
     inkscape:pageshadow="2"
     inkscape:window-width="1600"
     inkscape:window-height="836"
     id="namedview10"
     showgrid="false"
     inkscape:zoom="2.36"
     inkscape:cx="3.3898305"
     inkscape:cy="50"
     inkscape:window-x="0"
     inkscape:window-y="27"
     inkscape:window-maximized="1"
     inkscape:current-layer="svg8" />
  <rect
     style="opacity:1;fill:#b3b3b3;fill-opacity:0.91166077;fill-rule:nonzero;stroke:none;stroke-width:7.5;stroke-linecap:round;stroke-miterlimit:4;stroke-dasharray:none;stroke-dashoffset:0;stroke-opacity:1"
     id="rect821"
     width="174.15254"
     height="175.42372"
     x="-2.118644"
     y="-1.6101695" />
  <g
     transform="matrix(1.3068521,0,0,1.3068521,19.647569,-1224.965)"
     id="g6"
     style="fill:#550000">
    <g
       transform="matrix(0.10766339,0,0,0.10766339,11.395003,953.67348)"
       id="g4"
       style="fill:#550000">
      <path
         style="color:#000000;display:inline;overflow:visible;visibility:visible;fill:#550000;fill-opacity:1;fill-rule:nonzero;stroke:none;enable-background:accumulate"
         d="m 74.875,1 c -0.06664,0.00415 -0.121955,0.012117 -0.1875,0.03125 l 0.8125,4.25 -0.0625,0.0625 h -0.34375 l -0.75,0.21875 -0.59375,0.5 -0.40625,0.625 -0.03125,0.09375 h -0.03125 l -0.125,0.78125 0.125,0.75 0.375,0.65625 0.59375,0.5 0.71875,0.28125 0.75,0.03125 0.75,-0.25 L 77.0625,9.0625 77.46875,8.40625 77.5,8.34375 V 8.3125 L 77.65625,7.5625 77.5625,6.96875 C 77.61022,6.2815275 77.561,5.516169 77.40625,4.71875 76.980216,2.5226892 75.874662,0.93769585 74.875,1 Z m -25.5,6.375 A 1.6151122,1.6151122 0 0 0 48,8.6875 l -0.625,3.15625 A 1.6151122,1.6151122 0 0 0 47.34375,12.25 c -0.279043,0.2442 -0.549317,0.522836 -0.78125,0.8125 l -0.125,-0.03125 -0.625,-0.25 h -0.03125 l -0.3125,-0.125 -0.625,-0.09375 -0.5625,0.21875 -0.4375,0.4375 -0.1875,0.59375 0.09375,0.59375 0.34375,0.5 0.40625,0.25 0.34375,0.125 V 15.3125 L 45.375,15.5 c -0.114061,0.472517 -0.1875,0.961201 -0.1875,1.46875 0,1.527824 0.558925,2.913324 1.46875,4 -0.438075,0.292523 -0.874071,0.632674 -1.28125,1 l -0.1875,-0.09375 -0.09375,-0.03125 -4.25,-1.46875 -0.75,-0.125 -0.75,0.15625 -0.65625,0.375 -0.5,0.59375 -0.28125,0.71875 V 22.875 l 0.25,0.71875 0.5,0.59375 0.65625,0.40625 0.09375,0.03125 3.0625,1.03125 c -0.33417,0.593685 -0.627658,1.217689 -0.90625,1.875 L 38,27.5625 l -0.75,0.15625 -0.6875,0.375 -0.46875,0.59375 -0.28125,0.71875 v 0.75 l 0.15625,0.5625 -0.09375,-0.1875 -0.625,-0.4375 -0.75,-0.21875 -0.75,0.0625 -0.71875,0.3125 -0.0625,0.03125 -3.65625,2.65625 -0.53125,0.53125 -0.3125,0.71875 -0.0625,0.75 0.1875,0.75 0.4375,0.625 0.625,0.4375 0.75,0.21875 0.75,-0.0625 L 31.875,36.625 31.9375,36.5625 35.59375,33.9375 36.125,33.375 36.4375,32.6875 36.5,31.90625 36.3125,31.25 l 0.21875,0.25 0.65625,0.40625 0.75,0.15625 h 0.09375 2.1875 c -0.06193,0.329578 -0.107414,0.662764 -0.15625,1 L 36.125,34.90625 35.5,35.375 35.0625,36 34.875,36.71875 34.9375,37.5 l 0.3125,0.6875 0.53125,0.5625 0.6875,0.34375 0.75,0.09375 0.75,-0.1875 0.09375,-0.03125 1.78125,-0.84375 c 0.05896,0.956322 0.181746,1.875789 0.34375,2.78125 l -0.5625,0.125 -0.71875,0.40625 -0.15625,0.15625 -0.125,0.09375 -0.03125,0.0625 -0.3125,0.3125 -0.0625,0.0625 -0.1875,0.21875 -0.0625,0.0625 -0.21875,0.28125 -0.0625,0.03125 -0.28125,0.34375 -0.03125,0.03125 -0.3125,0.375 -0.03125,0.0625 -0.3125,0.40625 -0.0625,0.0625 -0.34375,0.46875 -0.03125,0.0625 -0.375,0.53125 L 35.875,45.125 35.5,45.6875 35.46875,45.75 35.09375,46.375 35.0625,46.4375 34.75,47.1875 34.6875,48 34.875,48.8125 35.28125,49.5 35.875,50.03125 c -0.01371,0.03006 -0.01763,0.06361 -0.03125,0.09375 L 35.28125,50 34.4375,50.09375 33.71875,50.4375 33.09375,50.96875 32.6875,51.6875 32.59375,51.90625 32.5,52.1875 v 0.03125 l -0.15625,0.46875 v 0.03125 l -0.125,0.5 V 53.25 L 32.0625,53.71875 V 53.75 l -0.125,0.5 v 0.03125 L 31.8125,54.75 v 0.03125 L 31.625,55.75 31.59375,55.8125 31.40625,56.75 v 0.03125 l -0.125,0.6875 v 0.8125 L 31.5,59.0625 l 0.4375,0.6875 0.65625,0.5 0.5625,0.25 c -0.0038,0.04136 0.0036,0.08358 0,0.125 l -0.5625,0.0625 -0.71875,0.34375 -0.625,0.5625 -0.40625,0.71875 -0.15625,0.78125 v 0.25 0.34375 0.03125 l 0.03125,0.5625 v 0.0625 l 0.03125,0.625 v 0.0625 l 0.0625,0.6875 v 0.0625 l 0.09375,0.78125 v 0.03125 L 31,67.4375 v 0.03125 l 0.125,0.875 0.03125,0.0625 0.0625,0.4375 V 68.875 L 31.25,69.09375 31.53125,69.875 32,70.53125 32.6875,71 l 0.75,0.28125 h 0.375 c 0.01835,0.0835 0.04355,0.166865 0.0625,0.25 l -0.15625,0.09375 -0.59375,0.5625 -0.40625,0.71875 -0.15625,0.8125 0.09375,0.8125 0.09375,0.21875 0.09375,0.28125 0.03125,0.0625 0.1875,0.46875 v 0.0625 l 0.1875,0.46875 0.03125,0.0625 0.21875,0.46875 0.03125,0.03125 0.28125,0.65625 0.03125,0.03125 0.28125,0.625 0.03125,0.03125 0.3125,0.625 v 0.03125 l 0.34375,0.625 v 0.03125 l 0.3125,0.625 0.03125,0.03125 0.5,0.65625 0.65625,0.46875 0.78125,0.28125 h 0.8125 l 0.125,-0.03125 c 0.05739,0.08488 0.129295,0.16622 0.1875,0.25 l -0.4375,0.59375 -0.25,0.78125 v 0.84375 l 0.25,0.78125 0.125,0.1875 0.21875,0.375 0.625,0.96875 v 0.03125 L 39.3125,87 v 0.03125 l 0.53125,0.78125 v 0.03125 l 0.46875,0.6875 0.40625,0.59375 v 0.03125 l 0.21875,0.28125 0.5625,0.59375 0.71875,0.375 0.8125,0.15625 0.8125,-0.0625 0.75,-0.34375 L 44.625,90.125 a 2.6918541,2.6918541 0 0 0 -0.03125,1.1875 l 1.09375,5.46875 A 2.6918541,2.6918541 0 1 0 50.96875,95.75 L 50.5,93.46875 h 1.875 L 51.9375,95.75 a 2.6918541,2.6918541 0 1 0 5.28125,1.03125 L 58.3125,91.3125 a 2.6918541,2.6918541 0 0 0 -0.03125,-1.21875 l 0.5625,0.3125 0.8125,0.15625 0.8125,-0.0625 0.75,-0.34375 0.625,-0.53125 0.125,-0.1875 0.1875,-0.28125 0.03125,-0.03125 0.40625,-0.59375 0.46875,-0.6875 V 87.8125 l 0.5,-0.78125 L 63.59375,87 64.15625,86.15625 V 86.125 L 64.75,85.15625 h 0.03125 L 65,84.78125 l 0.3125,-0.75 0.0625,-0.8125 -0.15625,-0.8125 -0.40625,-0.71875 -0.125,-0.125 c 0.05016,-0.0723 0.106695,-0.145633 0.15625,-0.21875 l 0.75,0.03125 0.78125,-0.1875 0.71875,-0.40625 0.53125,-0.625 0.125,-0.1875 0.03125,-0.03125 0.3125,-0.625 v -0.03125 l 0.34375,-0.625 V 78.625 L 68.75,78 v -0.03125 l 0.3125,-0.625 L 69.09375,77.3125 69.375,76.65625 69.40625,76.625 69.625,76.15625 v -0.0625 L 69.84375,75.625 v -0.0625 l 0.1875,-0.46875 0.03125,-0.0625 L 70.15625,74.75 70.3125,73.9375 70.25,73.125 69.90625,72.375 69.375,71.75 69,71.53125 c 0.01639,-0.07167 0.0153,-0.146809 0.03125,-0.21875 h 0.1875 l 0.8125,-0.21875 0.6875,-0.40625 0.53125,-0.625 0.34375,-0.75 0.03125,-0.21875 0.0625,-0.21875 v -0.03125 l 0.0625,-0.4375 v -0.0625 l 0.125,-0.875 L 71.90625,67.4375 72,66.59375 V 66.5625 l 0.09375,-0.78125 v -0.0625 l 0.0625,-0.6875 v -0.0625 l 0.03125,-0.625 v -0.0625 l 0.03125,-0.5625 V 63.6875 63.34375 L 72.125,62.53125 71.78125,61.78125 71.21875,61.1875 70.5,60.75 69.75,60.59375 c -0.0037,-0.0415 0.0038,-0.08356 0,-0.125 L 70.09375,60.375 70.78125,59.90625 71.3125,59.25 71.59375,58.5 71.65625,57.6875 71.625,57.46875 71.5,56.78125 V 56.75 L 71.3125,55.8125 71.28125,55.75 71.09375,54.78125 71.0625,54.75 70.96875,54.28125 70.9375,54.25 70.84375,53.75 70.8125,53.71875 70.6875,53.25 v -0.03125 l -0.125,-0.5 -0.03125,-0.03125 -0.125,-0.46875 V 52.1875 l -0.09375,-0.28125 -0.375,-0.75 L 69.375,50.5625 68.65625,50.15625 67.875,50 67.0625,50.09375 c -0.0018,-0.0039 -0.02947,0.0039 -0.03125,0 C 67.017593,50.063644 67.013744,50.030021 67,50 l 0.4375,-0.3125 0.5,-0.6875 0.25,-0.75 V 47.40625 L 67.96875,46.625 67.84375,46.4375 67.8125,46.375 67.4375,45.75 67.40625,45.6875 67.03125,45.125 66.96875,45.0625 66.625,44.53125 66.59375,44.46875 66.21875,44 66.1875,43.9375 65.875,43.53125 l -0.0625,-0.0625 -0.28125,-0.375 -0.0625,-0.03125 -0.25,-0.34375 -0.0625,-0.03125 -0.25,-0.28125 L 64.875,42.34375 64.65625,42.125 64.625,42.0625 64.3125,41.75 64.25,41.6875 64.15625,41.59375 63.5,41.125 62.75,40.875 c 0.139482,-0.786067 0.249692,-1.581462 0.3125,-2.40625 l 1.0625,0.5 0.71875,0.21875 0.78125,-0.0625 0.6875,-0.3125 0.5625,-0.53125 0.34375,-0.6875 0.09375,-0.75 -0.1875,-0.75 -0.40625,-0.65625 -0.59375,-0.46875 -0.09375,-0.0625 -3.125,-1.46875 c -0.06044,-0.465474 -0.133494,-0.92367 -0.21875,-1.375 h 1.46875 l 0.75,-0.125 0.65625,-0.375 0.5,-0.59375 0.28125,-0.71875 0.03125,-0.75 -0.25,-0.75 -0.46875,-0.59375 -0.625,-0.40625 -0.75,-0.1875 h -0.125 l -2.8125,-0.03125 c -0.311308,-0.731225 -0.682666,-1.410564 -1.0625,-2.0625 l 2.5,-0.84375 0.65625,-0.375 0.53125,-0.59375 0.28125,-0.6875 0.03125,-0.78125 -0.25,-0.71875 -0.46875,-0.625 -0.65625,-0.40625 -0.75,-0.1875 -0.75,0.09375 -0.09375,0.03125 -4.03125,1.40625 c -0.334579,-0.286539 -0.676808,-0.575125 -1.03125,-0.8125 0.909092,-1.086676 1.46875,-2.472176 1.46875,-4 0,-0.507549 -0.07344,-0.996233 -0.1875,-1.46875 l 0.53125,-0.1875 v -0.03125 l 0.34375,-0.125 0.5,-0.34375 0.3125,-0.53125 0.03125,-0.625 -0.28125,-0.5625 L 58.5,12.6875 l -0.59375,-0.125 -0.46875,0.09375 -0.3125,0.125 h -0.03125 l -0.65625,0.25 -0.09375,0.03125 C 56.111817,12.772836 55.841543,12.4942 55.5625,12.25 A 1.6151122,1.6151122 0 0 0 55.53125,11.84375 L 54.90625,8.6875 A 1.6151122,1.6151122 0 0 0 53.3125,7.375 1.6151122,1.6151122 0 0 0 51.75,9.3125 l 0.28125,1.40625 c -0.187658,-0.01694 -0.401681,0 -0.59375,0 -0.192069,0 -0.374842,-0.01694 -0.5625,0 L 51.15625,9.3125 a 1.6151122,1.6151122 0 0 0 -1.625,-1.9375 1.6151122,1.6151122 0 0 0 -0.15625,0 z m 15.46875,0.6875 -0.625,0.09375 -0.5,0.375 L 63.53125,8.875 63.5,8.90625 l -0.03125,0.0625 -0.1875,0.59375 0.125,0.625 0.375,0.5 0.5625,0.25 h 0.625 L 65.5,10.65625 65.8125,10.28125 65.875,10.1875 65.9375,10.09375 65.96875,10 66,9.90625 V 9.875 L 66.09375,9.25 65.875,8.6875 65.4375,8.25 Z m -26.9375,0.03125 -0.5625,0.21875 -0.40625,0.5 -0.125,0.59375 L 36.875,9.875 36.90625,9.90625 36.9375,10 l 0.03125,0.09375 0.0625,0.09375 0.0625,0.09375 L 37.5,10.75 l 0.59375,0.21875 0.59375,-0.0625 0.5,-0.3125 -0.28125,0.5 -0.03125,0.59375 0.21875,0.59375 0.34375,0.3125 0.28125,0.1875 0.03125,0.03125 0.3125,0.21875 h 0.03125 L 40.46875,13.25 40.5,13.28125 40.90625,13.5 v 0.03125 L 41.34375,13.75 41.375,13.78125 41.84375,14 H 41.875 l 0.0625,0.0625 0.59375,0.125 0.625,-0.15625 L 43.625,13.625 43.84375,13.0625 43.8125,12.4375 43.5,11.90625 43.09375,11.625 43.0625,11.59375 H 43.03125 L 42.625,11.375 H 42.59375 L 42.21875,11.15625 41.875,10.96875 41.84375,10.9375 41.53125,10.75 H 41.5 l -0.28125,-0.1875 -0.03125,-0.03125 -0.25,-0.15625 -0.5625,-0.21875 -0.625,0.0625 -0.5,0.3125 0.28125,-0.46875 0.0625,-0.625 L 39.4375,8.96875 39.40625,8.90625 39.375,8.875 39.0625,8.40625 38.53125,8.125 Z m 35.625,1.46875 -0.71875,0.25 -0.59375,0.46875 -0.4375,0.625 L 71.75,11 l -1.53125,4.21875 -0.125,0.75 0.125,0.78125 0.375,0.65625 0.5625,0.5 0.28125,0.125 -0.5,-0.15625 -0.75,0.03125 -0.09375,0.03125 -4.3125,1.1875 L 65.0625,19.46875 64.53125,20 l -0.3125,0.71875 -0.09375,0.75 0.1875,0.75 0.4375,0.625 0.625,0.46875 0.71875,0.21875 0.78125,-0.0625 h 0.09375 L 71.28125,22.25 72,21.9375 l 0.53125,-0.5625 0.3125,-0.6875 0.09375,-0.75 -0.1875,-0.75 -0.4375,-0.65625 -0.5625,-0.40625 0.125,0.0625 0.78125,0.03125 0.71875,-0.25 L 74,17.5 74.40625,16.84375 74.4375,16.75 l 1.53125,-4.21875 0.125,-0.75 -0.125,-0.75 L 75.59375,10.375 75.03125,9.84375 74.3125,9.5625 Z m -11.15625,0.625 -0.40625,0.1875 -0.25,0.15625 L 61.6875,10.5625 61.40625,10.75 H 61.375 l -0.3125,0.1875 -0.03125,0.03125 -0.34375,0.1875 -0.375,0.21875 H 60.28125 L 59.875,11.59375 H 59.84375 L 59.8125,11.625 59.3125,12 59.0625,12.59375 59.09375,13.1875 59.375,13.75 59.90625,14.09375 60.5,14.1875 60.96875,14.0625 61.03125,14 H 61.0625 L 61.53125,13.78125 61.5625,13.75 61.96875,13.53125 62,13.5 62.40625,13.28125 62.4375,13.25 l 0.375,-0.21875 0.34375,-0.21875 0.03125,-0.03125 0.28125,-0.1875 0.40625,-0.4375 0.1875,-0.59375 -0.125,-0.625 -0.375,-0.5 L 63,10.1875 Z m 21.0625,3.96875 -1,4.1875 -0.03125,-0.0625 -0.75,-0.21875 h -0.75 l -0.71875,0.28125 -0.59375,0.53125 -0.0625,0.0625 -0.09375,0.15625 -0.34375,0.6875 L 79,20.5625 l 0.15625,0.75 0.40625,0.625 0.625,0.46875 0.71875,0.25 0.78125,-0.03125 0.71875,-0.28125 0.5625,-0.5 0.0625,-0.09375 0.125,-0.15625 0.1875,-0.375 c 0.441495,-0.684819 0.827961,-1.591867 1.0625,-2.59375 0.543885,-2.323324 0.113423,-4.318941 -0.96875,-4.46875 z M 15.125,17.6875 c -0.953652,0.532999 -0.6326,2.564653 0.71875,4.53125 0.533553,0.776471 1.143336,1.404161 1.75,1.875 l 0.1875,0.21875 0.65625,0.40625 0.09375,0.03125 0.21875,0.09375 0.40625,0.0625 c 0.0413,0.0081 0.08483,-0.0052 0.125,0 l 0.21875,0.0625 0.75,-0.15625 0.65625,-0.375 0.5,-0.59375 0.28125,-0.71875 v -0.75 l -0.25,-0.75 L 20.96875,21.03125 20.3125,20.625 20.21875,20.59375 20,20.53125 l -0.75,-0.125 -0.75,0.125 -0.6875,0.375 -0.25,0.3125 z m 63.75,4.125 -0.75,0.03125 -0.71875,0.28125 -0.59375,0.5 -0.0625,0.09375 -2.65625,3.59375 -0.34375,0.71875 -0.09375,0.75 0.1875,0.75 0.21875,0.3125 -0.625,-0.21875 h -0.09375 l -4.46875,-0.5625 -0.75,0.0625 -0.71875,0.28125 -0.5625,0.5 -0.375,0.6875 -0.09375,0.78125 0.15625,0.75 0.40625,0.65625 0.59375,0.46875 0.71875,0.25 0.09375,0.03125 4.4375,0.53125 0.78125,-0.03125 0.71875,-0.28125 0.5625,-0.53125 0.34375,-0.6875 0.125,-0.75 -0.15625,-0.75 -0.21875,-0.375 0.65625,0.21875 0.78125,-0.03125 0.71875,-0.28125 0.5625,-0.5 L 77.71875,29 80.375,25.375 80.71875,24.6875 80.8125,23.9375 80.625,23.1875 80.21875,22.53125 79.625,22.0625 Z m -55.1875,0.125 -0.75,0.15625 -0.65625,0.375 -0.5,0.59375 L 21.5,23.78125 v 0.78125 l 0.25,0.71875 0.46875,0.59375 0.65625,0.40625 0.09375,0.03125 4.25,1.46875 0.75,0.15625 0.75,-0.15625 0.65625,-0.375 0.5,-0.59375 0.0625,-0.125 0.0625,0.53125 0.3125,0.6875 0.5625,0.53125 0.6875,0.3125 0.78125,0.09375 0.75,-0.21875 0.0625,-0.03125 4,-2.0625 0.625,-0.46875 0.40625,-0.625 0.1875,-0.75 -0.09375,-0.75 L 37.9375,23.21875 37.40625,22.6875 36.6875,22.375 35.9375,22.3125 35.1875,22.5 35.09375,22.5625 31.125,24.59375 30.5,25.0625 30.15625,25.59375 V 25.3125 l -0.25,-0.71875 L 29.4375,24 28.78125,23.59375 28.6875,23.5625 24.46875,22.09375 Z m 64.6875,7.96875 -1.96875,3.78125 -0.6875,-0.34375 -0.78125,-0.0625 -0.71875,0.1875 L 84.125,33.5 l -0.28125,0.125 -0.625,0.46875 -0.40625,0.625 -0.1875,0.75 L 82.6875,36.25 83,36.9375 83.5625,37.46875 84.25,37.8125 85,37.875 l 0.75,-0.1875 0.09375,-0.03125 0.28125,-0.125 0.59375,-0.46875 0.4375,-0.625 0.125,-0.5 c 0.335515,-0.427077 0.659922,-0.898288 0.9375,-1.4375 1.09213,-2.121532 1.169586,-4.185473 0.15625,-4.59375 z M 11.5625,32.75 c -0.77746,0.767527 0.08036,2.620098 1.90625,4.15625 1.825893,1.536152 3.91004,2.173777 4.6875,1.40625 l 0.09375,-0.03125 0.625,-0.46875 0.4375,-0.625 0.1875,-0.75 -0.0625,-0.75 -0.3125,-0.71875 -0.5625,-0.53125 -0.6875,-0.34375 -0.75,-0.0625 h -0.09375 l -0.34375,0.03125 -0.71875,0.21875 -0.625,0.46875 -0.4375,0.625 -0.03125,0.15625 z m 14.375,0.28125 -4.46875,0.5 L 20.75,33.75 l -0.625,0.4375 -0.4375,0.65625 -0.1875,0.75 0.0625,0.75 0.3125,0.6875 0.5625,0.5625 0.6875,0.34375 0.75,0.0625 h 0.09375 l 4.46875,-0.5 0.75,-0.21875 0.59375,-0.4375 0.4375,-0.65625 0.21875,-0.75 -0.09375,-0.75 L 28.03125,34 27.5,33.4375 26.8125,33.09375 26.03125,33.03125 Z m 54.71875,2.375 -0.75,0.1875 -0.0625,0.03125 -4.03125,2 -0.625,0.4375 -0.4375,0.65625 -0.1875,0.71875 0.09375,0.78125 0.28125,0.625 0.03125,0.0625 0.53125,0.5625 0.71875,0.3125 0.75,0.09375 0.75,-0.1875 0.09375,-0.0625 4,-1.96875 0.625,-0.46875 0.4375,-0.625 0.1875,-0.75 L 83,37.0625 82.65625,36.34375 82.125,35.8125 81.4375,35.46875 Z m -5.71875,5.4375 -0.34375,-0.6875 -0.5625,-0.5 L 73.9375,39.59375 70.125,37.28125 69.40625,37 68.625,36.96875 l -0.71875,0.25 -0.625,0.46875 -0.40625,0.65625 -0.15625,0.75 0.09375,0.75 0.34375,0.6875 0.5625,0.53125 0.0625,0.0625 3.84375,2.3125 0.71875,0.28125 H 73.125 L 73.84375,43.5 74.4375,43.03125 74.875,42.375 75.03125,41.625 Z M 33.625,37.625 32.875,37.78125 32.21875,38.1875 32.15625,38.25 28.96875,41.375 28.5,42 l -0.21875,0.75 0.0625,0.65625 -0.25,-0.375 -0.625,-0.5 L 26.75,42.3125 25.96875,42.34375 H 25.875 L 21.53125,43.4375 20.8125,43.75 20.28125,44.28125 19.9375,44.96875 19.84375,45.75 20,46.5 l 0.40625,0.625 0.625,0.46875 0.71875,0.25 0.78125,-0.03125 H 22.625 l 4.34375,-1.09375 0.71875,-0.3125 0.53125,-0.53125 0.34375,-0.6875 0.09375,-0.78125 -0.0625,-0.3125 0.0625,0.125 0.53125,0.5625 0.65625,0.34375 0.78125,0.09375 0.75,-0.15625 0.65625,-0.40625 0.0625,-0.0625 3.1875,-3.125 0.46875,-0.625 0.21875,-0.75 -0.0625,-0.78125 -0.3125,-0.6875 -0.53125,-0.5625 -0.65625,-0.34375 z M 17.28125,44.5 17.1875,44.53125 16.875,44.625 l -0.71875,0.3125 -0.5625,0.53125 -0.34375,0.6875 -0.0625,0.5 L 10.96875,45.75 c -0.329884,1.041498 1.293468,2.30495 3.625,2.8125 0.610283,0.132852 1.193218,0.177559 1.75,0.1875 L 16.375,48.78125 17.09375,49 h 0.75 L 17.9375,48.96875 18.25,48.875 l 0.71875,-0.3125 0.5625,-0.53125 0.34375,-0.6875 0.09375,-0.75 -0.1875,-0.75 L 19.375,45.1875 18.78125,44.71875 18.03125,44.5 Z M 57.125,88.15625 57.1875,88.5625 a 2.6918541,2.6918541 0 0 0 -0.4375,-0.25 c 0.123293,-0.0517 0.252809,-0.101077 0.375,-0.15625 z M 45.8125,88.1875 c 0.110341,0.04927 0.232509,0.07857 0.34375,0.125 a 2.6918541,2.6918541 0 0 0 -0.4375,0.25 z"
         transform="matrix(9.2882084,0,0,9.2882084,-105.83916,-12.179628)"
         marker="none"
         visibility="visible"
         display="inline"
         overflow="visible"
         id="path2"
         inkscape:connector-curvature="0" />
    </g>
  </g>
</svg>
