<?xml version="1.0" encoding="UTF-8" standalone="no"?>
<svg
   xmlns:dc="http://purl.org/dc/elements/1.1/"
   xmlns:cc="http://creativecommons.org/ns#"
   xmlns:rdf="http://www.w3.org/1999/02/22-rdf-syntax-ns#"
   xmlns:svg="http://www.w3.org/2000/svg"
   xmlns="http://www.w3.org/2000/svg"
   xmlns:sodipodi="http://sodipodi.sourceforge.net/DTD/sodipodi-0.dtd"
   xmlns:inkscape="http://www.inkscape.org/namespaces/inkscape"
   version="1.1"
   x="0px"
   y="0px"
   viewBox="0 0 170 170"
   enable-background="new 0 0 96 96"
   xml:space="preserve"
   id="svg30"
   sodipodi:docname="infection.svg"
   width="170"
   height="170"
   inkscape:version="0.92.3 (2405546, 2018-03-11)"><metadata
     id="metadata36"><rdf:RDF><cc:Work
         rdf:about=""><dc:format>image/svg+xml</dc:format><dc:type
           rdf:resource="http://purl.org/dc/dcmitype/StillImage" /><dc:title></dc:title></cc:Work></rdf:RDF></metadata><defs
     id="defs34" /><sodipodi:namedview
     pagecolor="#ffffff"
     bordercolor="#666666"
     borderopacity="1"
     objecttolerance="10"
     gridtolerance="10"
     guidetolerance="10"
     inkscape:pageopacity="0"
     inkscape:pageshadow="2"
     inkscape:window-width="1600"
     inkscape:window-height="836"
     id="namedview32"
     showgrid="false"
     inkscape:zoom="2.4583333"
     inkscape:cx="3.2542373"
     inkscape:cy="52.573676"
     inkscape:window-x="0"
     inkscape:window-y="27"
     inkscape:window-maximized="1"
     inkscape:current-layer="svg30" /><rect
     style="opacity:1;fill:#b3b3b3;fill-opacity:0.91166077;fill-rule:nonzero;stroke:none;stroke-width:7.5;stroke-linecap:round;stroke-miterlimit:4;stroke-dasharray:none;stroke-dashoffset:0;stroke-opacity:1"
     id="rect859"
     width="179.38983"
     height="177.76271"
     x="-4.0677967"
     y="-4.5084743" /><g
     id="g857"
     transform="matrix(1.3078796,0,0,1.3078796,22.091645,-74.561965)"><path
       inkscape:connector-curvature="0"
       id="path2"
       d="m 73.106,107.321 c 1.374,-1.182 2.177,-2.907 2.177,-4.735 0,-3.446 -2.804,-6.25 -6.25,-6.25 -1.457,0 -2.836,0.497 -3.95,1.411 -5.2,-4.052 -11.657,-6.275 -18.257,-6.275 -4.053,0 -8.002,0.822 -11.75,2.445 -1.114,-1.892 -3.152,-3.08 -5.381,-3.08 -3.446,0 -6.249,2.803 -6.249,6.249 0,1.495 0.525,2.901 1.492,4.03 -4.807,5.234 -7.56,11.966 -7.798,19.076 -1.965,1.098 -3.211,3.188 -3.211,5.447 0,3.041 2.179,5.595 5.142,6.123 2.767,7.261 8.333,13.215 15.375,16.451 0.083,3.375 2.853,6.094 6.247,6.094 2.37,0 4.497,-1.321 5.56,-3.408 0.19,0.013 0.381,0.024 0.574,0.024 7.718,0 15.003,-2.935 20.567,-8.274 0.558,0.159 1.098,0.237 1.64,0.237 3.446,0 6.25,-2.803 6.25,-6.249 0,-1.313 -0.412,-2.561 -1.195,-3.636 1.635,-3.764 2.463,-7.732 2.463,-11.804 0,-4.827 -1.189,-9.611 -3.446,-13.876 z m -0.459,26.272 c 0.743,0.881 1.136,1.933 1.136,3.044 0,2.619 -2.131,4.749 -4.75,4.749 -0.513,0 -1.032,-0.097 -1.588,-0.295 l -0.444,-0.159 -0.335,0.332 c -5.321,5.262 -12.367,8.159 -19.84,8.159 -0.186,0 -0.369,-0.013 -0.552,-0.026 -0.155,-0.011 -0.31,-0.021 -0.466,-0.026 l -0.522,-0.017 -0.196,0.485 c -0.732,1.803 -2.458,2.968 -4.396,2.968 -2.619,0 -4.749,-2.13 -4.74,-4.825 0.009,-0.065 0.018,-0.13 0.021,-0.197 l 0.031,-0.522 -0.479,-0.209 C 28.494,143.975 22.952,138.06 20.322,130.825 l -0.161,-0.442 -0.468,-0.048 c -2.432,-0.25 -4.266,-2.269 -4.266,-4.697 0,-1.835 1.085,-3.523 2.765,-4.301 l 0.426,-0.197 0.009,-0.47 c 0.131,-7.138 2.931,-13.899 7.884,-19.039 l 0.531,-0.551 -0.562,-0.52 c -0.99,-0.917 -1.536,-2.151 -1.536,-3.475 0,-2.619 2.13,-4.749 4.749,-4.749 1.887,0 3.594,1.121 4.351,2.854 l 0.306,0.702 0.695,-0.32 c 3.744,-1.726 7.708,-2.601 11.78,-2.601 6.472,0 12.799,2.252 17.816,6.342 l 0.529,0.432 0.479,-0.487 c 0.902,-0.917 2.104,-1.422 3.383,-1.422 2.619,0 4.75,2.131 4.75,4.75 0,1.562 -0.772,3.025 -2.066,3.914 l -0.563,0.387 0.333,0.597 c 2.332,4.184 3.565,8.926 3.565,13.714 0,4.008 -0.846,7.912 -2.515,11.603 l -0.195,0.431 z" /><path
       inkscape:connector-curvature="0"
       id="path4"
       d="m 54.935,99.229 c -2.628,0 -4.766,2.138 -4.766,4.765 0,2.628 2.138,4.767 4.766,4.767 2.628,0 4.766,-2.139 4.766,-4.767 0,-2.627 -2.138,-4.765 -4.766,-4.765 z m 0,8.033 c -1.801,0 -3.266,-1.466 -3.266,-3.267 0,-1.8 1.465,-3.265 3.266,-3.265 1.801,0 3.266,1.465 3.266,3.265 0,1.801 -1.466,3.267 -3.266,3.267 z" /><path
       inkscape:connector-curvature="0"
       id="path6"
       d="m 87.012,118.974 c -2.337,0 -4.239,1.901 -4.239,4.238 0,2.337 1.902,4.238 4.239,4.238 2.337,0 4.238,-1.901 4.238,-4.238 0,-2.337 -1.901,-4.238 -4.238,-4.238 z m 0,6.976 c -1.51,0 -2.739,-1.229 -2.739,-2.738 0,-1.509 1.229,-2.738 2.739,-2.738 1.51,0 2.738,1.228 2.738,2.738 0,1.51 -1.228,2.738 -2.738,2.738 z" /><path
       inkscape:connector-curvature="0"
       id="path8"
       d="m 57.381,89.883 c 2.256,0 4.091,-1.834 4.091,-4.089 0,-2.256 -1.835,-4.091 -4.091,-4.091 -2.255,0 -4.09,1.835 -4.09,4.091 0,2.255 1.835,4.089 4.09,4.089 z m 0,-6.68 c 1.429,0 2.591,1.163 2.591,2.591 0,1.428 -1.162,2.589 -2.591,2.589 -1.428,0 -2.59,-1.162 -2.59,-2.589 0,-1.429 1.162,-2.591 2.59,-2.591 z" /><path
       inkscape:connector-curvature="0"
       id="path10"
       d="m 32.042,154.116 c -2.255,0 -4.09,1.835 -4.09,4.091 0,2.256 1.835,4.091 4.09,4.091 2.256,0 4.091,-1.835 4.091,-4.091 0,-2.256 -1.836,-4.091 -4.091,-4.091 z m 0,6.682 c -1.428,0 -2.59,-1.163 -2.59,-2.591 0,-1.428 1.162,-2.591 2.59,-2.591 1.429,0 2.591,1.162 2.591,2.591 0,1.429 -1.163,2.591 -2.591,2.591 z" /><path
       inkscape:connector-curvature="0"
       id="path12"
       d="m 13.759,104.069 c 2.256,0 4.091,-1.834 4.091,-4.089 0,-2.256 -1.835,-4.091 -4.091,-4.091 -2.255,0 -4.09,1.835 -4.09,4.091 -0.001,2.254 1.834,4.089 4.09,4.089 z m 0,-6.681 c 1.429,0 2.591,1.163 2.591,2.591 0,1.428 -1.162,2.589 -2.591,2.589 -1.428,0 -2.59,-1.162 -2.59,-2.589 -0.001,-1.428 1.162,-2.591 2.59,-2.591 z" /><path
       inkscape:connector-curvature="0"
       id="path14"
       d="m 65.798,117.386 c -3.212,0 -5.826,2.613 -5.826,5.826 0,3.213 2.614,5.826 5.826,5.826 3.212,0 5.826,-2.614 5.826,-5.826 0,-3.212 -2.613,-5.826 -5.826,-5.826 z m 0,10.152 c -2.385,0 -4.326,-1.941 -4.326,-4.326 0,-2.385 1.941,-4.326 4.326,-4.326 2.385,0 4.326,1.94 4.326,4.326 0,2.386 -1.94,4.326 -4.326,4.326 z" /><path
       inkscape:connector-curvature="0"
       id="path16"
       d="m 51.445,119.4 c 0.061,-1.47 -0.456,-2.876 -1.453,-3.958 l -1.104,1.017 c 0.726,0.788 1.101,1.811 1.057,2.88 -0.044,1.069 -0.502,2.059 -1.29,2.785 -0.787,0.726 -1.811,1.101 -2.88,1.057 -1.07,-0.044 -2.059,-0.502 -2.784,-1.29 l -1.104,1.017 c 0.997,1.082 2.355,1.711 3.826,1.772 0.077,0.003 0.154,0.005 0.231,0.005 1.386,0 2.702,-0.513 3.727,-1.458 1.084,-0.998 1.714,-2.357 1.774,-3.827 z" /><path
       inkscape:connector-curvature="0"
       id="path18"
       d="m 11.949,134.102 c 1.498,1.625 1.394,4.167 -0.232,5.666 -0.788,0.726 -1.801,1.108 -2.88,1.057 -1.07,-0.044 -2.059,-0.502 -2.784,-1.29 l -1.104,1.017 c 0.997,1.083 2.356,1.712 3.826,1.772 0.078,0.003 0.155,0.005 0.231,0.005 1.386,0 2.702,-0.513 3.727,-1.458 2.234,-2.059 2.377,-5.551 0.319,-7.785 z" /><path
       inkscape:connector-curvature="0"
       id="path20"
       d="m 35.362,132.207 c -1.419,-0.548 -2.965,-0.509 -4.357,0.109 -1.39,0.617 -2.457,1.738 -3.003,3.158 l 1.399,0.539 c 0.403,-1.045 1.188,-1.872 2.213,-2.326 1.025,-0.454 2.164,-0.482 3.209,-0.081 2.158,0.832 3.238,3.263 2.408,5.42 l 1.399,0.539 c 1.128,-2.929 -0.338,-6.23 -3.268,-7.358 z" /><path
       inkscape:connector-curvature="0"
       id="path22"
       d="m 42.662,108.663 c 0.963,-2.501 -0.288,-5.321 -2.791,-6.285 -2.503,-0.962 -5.322,0.291 -6.284,2.792 l 1.399,0.539 c 0.666,-1.73 2.616,-2.595 4.346,-1.931 1.73,0.667 2.596,2.617 1.93,4.346 z" /><path
       inkscape:connector-curvature="0"
       id="path24"
       d="m 71.383,148.85 c -2.502,-0.961 -5.322,0.291 -6.284,2.792 l 1.399,0.539 c 0.667,-1.729 2.616,-2.596 4.346,-1.931 1.73,0.667 2.596,2.617 1.93,4.347 l 1.399,0.539 c 0.964,-2.502 -0.288,-5.322 -2.79,-6.286 z" /><path
       inkscape:connector-curvature="0"
       id="path26"
       d="m 53.302,132.811 c -2.633,0 -4.775,2.142 -4.775,4.775 0,2.632 2.142,4.773 4.775,4.773 2.633,0 4.774,-2.141 4.774,-4.773 10e-4,-2.633 -2.141,-4.775 -4.774,-4.775 z m 0,8.048 c -1.806,0 -3.275,-1.468 -3.275,-3.273 0,-1.806 1.469,-3.275 3.275,-3.275 1.806,0 3.274,1.469 3.274,3.275 10e-4,1.805 -1.468,3.273 -3.274,3.273 z" /><path
       inkscape:connector-curvature="0"
       id="path28"
       d="m 35.521,115.698 c 0,-3.239 -2.635,-5.874 -5.874,-5.874 -3.239,0 -5.874,2.635 -5.874,5.874 0,3.239 2.635,5.874 5.874,5.874 3.239,0 5.874,-2.635 5.874,-5.874 z m -10.248,0 c 0,-2.412 1.962,-4.374 4.374,-4.374 2.412,0 4.374,1.962 4.374,4.374 0,2.412 -1.962,4.374 -4.374,4.374 -2.412,0 -4.374,-1.962 -4.374,-4.374 z" /></g></svg>