<?xml version="1.0" encoding="UTF-8" standalone="no"?>
<svg
   xmlns:dc="http://purl.org/dc/elements/1.1/"
   xmlns:cc="http://creativecommons.org/ns#"
   xmlns:rdf="http://www.w3.org/1999/02/22-rdf-syntax-ns#"
   xmlns:svg="http://www.w3.org/2000/svg"
   xmlns="http://www.w3.org/2000/svg"
   xmlns:sodipodi="http://sodipodi.sourceforge.net/DTD/sodipodi-0.dtd"
   xmlns:inkscape="http://www.inkscape.org/namespaces/inkscape"
   data-name="Layer 1"
   viewBox="0 0 170 170"
   x="0px"
   y="0px"
   version="1.1"
   id="svg20"
   sodipodi:docname="myases.svg"
   width="170"
   height="170"
   inkscape:version="0.92.3 (2405546, 2018-03-11)">
  <metadata
     id="metadata26">
    <rdf:RDF>
      <cc:Work
         rdf:about="">
        <dc:format>image/svg+xml</dc:format>
        <dc:type
           rdf:resource="http://purl.org/dc/dcmitype/StillImage" />
        <dc:title>07</dc:title>
      </cc:Work>
    </rdf:RDF>
  </metadata>
  <defs
     id="defs24" />
  <sodipodi:namedview
     pagecolor="#ffffff"
     bordercolor="#666666"
     borderopacity="1"
     objecttolerance="10"
     gridtolerance="10"
     guidetolerance="10"
     inkscape:pageopacity="0"
     inkscape:pageshadow="2"
     inkscape:window-width="1600"
     inkscape:window-height="836"
     id="namedview22"
     showgrid="false"
     inkscape:zoom="1.0505994"
     inkscape:cx="-178.5853"
     inkscape:cy="50.70496"
     inkscape:window-x="0"
     inkscape:window-y="27"
     inkscape:window-maximized="1"
     inkscape:current-layer="svg20" />
  <title
     id="title2">07</title>
  <rect
     style="opacity:1;fill:#b3b3b3;fill-opacity:0.91166077;fill-rule:nonzero;stroke:none;stroke-width:7.5;stroke-linecap:round;stroke-miterlimit:4;stroke-dasharray:none;stroke-dashoffset:0;stroke-opacity:1"
     id="rect843"
     width="177.51772"
     height="177.99364"
     x="-2.8555129"
     y="-3.7103646" />
  <g
     id="g841"
     transform="matrix(1.0816578,0,0,1.0816578,15.658536,-41.501943)">
    <path
       style="stroke-width:1.33558249"
       inkscape:connector-curvature="0"
       id="path4"
       d="m 92.436899,113.29557 c -2.337269,6.99845 -9.255586,11.94011 -13.996904,11.94011 0,0 -1.869815,3.05848 -0.934907,5.47588 0.934907,2.41741 5.836495,3.83313 5.836495,3.83313 v 0 a 7.3323477,7.3323477 0 0 0 9.015181,-1.69619 v 0 c 0,0 5.34233,1.33558 8.988466,-2.60439 a 12.661322,12.661322 0 0 1 -3.379019,-6.13032 17.776602,17.776602 0 0 0 5.556019,5.07521 c 2.00338,-0.41403 5.34233,-1.73626 5.00844,-5.90327 a 6.7446914,6.7446914 0 0 0 3.76634,-7.41249 12.741457,12.741457 0 0 1 -6.22381,-2.67116 c -0.20034,-0.14692 4.10023,1.33558 6.95838,0.6945 a 7.4124826,7.4124826 0 0 0 0.1202,-7.6796 c 0,0 2.59103,-4.4742 -0.74792,-6.67791 -1.94995,0.60101 -4.91495,1.33558 -5.8365,0.186982 a 10.337408,10.337408 0 0 0 5.52931,-2.230423 4.9683667,4.9683667 0 0 0 -2.97835,-4.687894 v 0 c -4.18037,-6.931673 -10.684655,-10.991844 -13.649648,-9.055249 -4.006748,2.564318 -9.616194,8.227188 -7.025164,15.546179 0,-0.08013 6.384084,6.985095 3.993391,13.996905 z" />
    <path
       style="stroke-width:1.33558249"
       inkscape:connector-curvature="0"
       id="path6"
       d="m 30.946683,138.79184 c 0,0 -12.754812,5.90327 -7.465906,12.75481 5.288907,6.85154 13.355825,9.34908 18.698155,6.83818 a 22.704902,22.704902 0 0 0 2.671165,-1.53592 v 0 c 0,0 4.100238,0.25376 5.342329,-2.95163 a 24.721631,24.721631 0 0 1 -2.884858,-6.21046 22.384362,22.384362 0 0 0 4.460846,4.96836 4.9950784,4.9950784 0 0 0 4.100238,-3.04512 v 0 c 0.120202,0 2.043441,0.8147 2.671165,-0.60102 0,0 -6.677912,-12.12708 -8.013495,-19.28581 0.01336,0.0534 -14.9051,6.15704 -19.579639,9.06861 z" />
    <path
       style="stroke-width:1.33558249"
       inkscape:connector-curvature="0"
       id="path8"
       d="m 46.746624,122.47102 c 0.186981,-0.25376 0.373963,-0.46745 0.560944,-0.6945 -7.412482,-3.2054 -10.110359,-12.02024 -10.965132,-17.92352 a 51.393213,51.393213 0 0 0 -7.185433,8.0135 24.37438,24.37438 0 0 1 -14.384223,9.10867 c 0,0 7.77309,-4.58105 8.707997,-9.10867 0,0 -3.726275,2.93828 -8.707997,-4.52763 -4.9817228,-7.465904 -13.98354851,-7.1053 -14.61127226,-2.7513 -0.62772375,4.354 0.62772375,4.00675 2.17699936,10.57781 1.5492757,6.57107 2.4841834,13.67637 13.9969039,17.36258 11.512721,3.6862 20.835087,3.13862 30.411213,-10.05694 z" />
    <path
       style="stroke-width:1.33558249"
       inkscape:connector-curvature="0"
       id="path10"
       d="M 65.992367,96.146691 C 61.785282,92.834446 56.296038,95.57239 56.296038,95.57239 a 9.4559238,9.4559238 0 0 0 -9.88331,1.923239 v 0 a 26.017146,26.017146 0 0 0 -5.5026,2.671161 c 0,0 -0.667791,0.44075 -1.736257,1.33559 a 28.942072,28.942072 0 0 0 4.12695,12.91508 12.127089,12.127089 0 0 0 6.39744,4.99508 c 9.776463,-7.87994 24.040484,2.35062 31.626592,-0.18698 8.400814,-2.80473 9.015182,-14.05033 3.726275,-17.13553 a 32.614924,32.614924 0 0 0 -3.886544,-1.82975 v 0 A 6.4775749,6.4775749 0 0 0 73.899015,97.816169 C 70.33301,93.996403 66.700226,95.879574 66.165993,96.186758 Z" />
    <path
       style="stroke-width:1.33558249"
       inkscape:connector-curvature="0"
       id="path12"
       d="m 89.712311,139.99386 c -6.864894,-1.69619 -12.88837,-4.16701 -16.026989,-8.01349 a 24.855189,24.855189 0 0 1 0,-6.67791 c 0,0 -11.913396,-6.67792 -20.995356,-2.77802 0,0 4.126949,15.53283 6.424151,19.35259 2.297202,3.81977 5.729649,11.84662 17.856738,16.49445 l 0.507521,0.20033 c 2.043441,-5.54266 6.036833,-14.18388 12.233935,-18.57795 z" />
    <path
       style="stroke-width:1.33558249"
       inkscape:connector-curvature="0"
       id="path14"
       d="m 124.5443,146.23103 c -2.81808,-2.23042 -17.25572,-2.67116 -30.371143,-5.26219 -7.03852,2.77801 -11.659635,12.68803 -13.876702,18.76493 12.541119,5.34233 32.053975,15.4794 40.828755,6.9851 9.62955,-9.26894 8.08027,-16.77492 3.41909,-20.48784 z" />
    <path
       style="stroke-width:1.33558249"
       inkscape:connector-curvature="0"
       id="path16"
       d="m 25.377304,82.830934 c 5.783072,2.778011 10.68466,8.34739 12.79488,11.005199 0.948264,-2.884858 4.006748,-10.577813 10.804862,-14.42429 a 16.828339,16.828339 0 0 1 6.891606,-2.136932 24.454515,24.454515 0 0 0 -5.115281,-3.779696 C 41.150533,68.152885 23.85474,59.56509 20.221956,66.523475 c -3.632784,6.958384 -2.644453,12.567828 5.155348,16.307459 z" />
    <path
       style="stroke-width:1.33558249"
       inkscape:connector-curvature="0"
       id="path18"
       d="m 41.284091,94.063182 c 3.659496,-1.990018 12.22058,-5.248839 24.801767,-1.602699 A 53.743838,53.743838 0 0 0 58.660019,80.293327 14.250665,14.250665 0 0 0 50.446187,82.04294 c -5.34233,3.031772 -8.09363,9.095317 -9.162096,12.020242 z" />
  </g>
</svg>
