<?xml version="1.0" encoding="UTF-8" standalone="no"?>
<svg
   xmlns:dc="http://purl.org/dc/elements/1.1/"
   xmlns:cc="http://creativecommons.org/ns#"
   xmlns:rdf="http://www.w3.org/1999/02/22-rdf-syntax-ns#"
   xmlns:svg="http://www.w3.org/2000/svg"
   xmlns="http://www.w3.org/2000/svg"
   xmlns:sodipodi="http://sodipodi.sourceforge.net/DTD/sodipodi-0.dtd"
   xmlns:inkscape="http://www.inkscape.org/namespaces/inkscape"
   version="1.1"
   x="0px"
   y="0px"
   viewBox="0 0 170 170"
   xml:space="preserve"
   id="svg8"
   sodipodi:docname="pietain.svg"
   width="170"
   height="170"
   inkscape:version="0.92.3 (2405546, 2018-03-11)"><metadata
     id="metadata14"><rdf:RDF><cc:Work
         rdf:about=""><dc:format>image/svg+xml</dc:format><dc:type
           rdf:resource="http://purl.org/dc/dcmitype/StillImage" /><dc:title></dc:title></cc:Work></rdf:RDF></metadata><defs
     id="defs12" /><sodipodi:namedview
     pagecolor="#ffffff"
     bordercolor="#666666"
     borderopacity="1"
     objecttolerance="10"
     gridtolerance="10"
     guidetolerance="10"
     inkscape:pageopacity="0"
     inkscape:pageshadow="2"
     inkscape:window-width="1600"
     inkscape:window-height="836"
     id="namedview10"
     showgrid="false"
     inkscape:zoom="1.8906772"
     inkscape:cx="26.904788"
     inkscape:cy="62.411499"
     inkscape:window-x="0"
     inkscape:window-y="27"
     inkscape:window-maximized="1"
     inkscape:current-layer="svg8" /><rect
     style="opacity:1;fill:#b3b3b3;fill-opacity:0.91166077;fill-rule:nonzero;stroke:none;stroke-width:7.5;stroke-linecap:round;stroke-miterlimit:4;stroke-dasharray:none;stroke-dashoffset:0;stroke-opacity:1"
     id="rect821"
     width="183.0032"
     height="186.17668"
     x="-5.8180213"
     y="-7.1851878" /><g
     id="g6"
     transform="matrix(0.88499952,0,0,0.88499952,9.6998158,29.765855)"><path
       d="M 67.79,87.926 C 67.036,113.819 38.323,129.6 23.271,123.522 12.607,119.217 -4.192,101.209 0.957,71.458 6.106,41.706 34.253,33.622 34.253,33.622 c 0,0 2.385,0.141 3.228,2.246 0.842,2.103 -7.367,17.539 -9.633,30.82 -1.54,9.027 -2.759,24.223 -0.471,24.605 2.288,0.383 5.549,-15.217 9.261,-25.117 4.21,-11.225 14.126,-32.26 19.083,-31.852 8.561,0.701 13.332,10.242 12.069,53.602 z"
       id="path2"
       inkscape:connector-curvature="0" /><path
       d="m 102.38,54.303 c 0.754,25.895 29.467,41.676 44.519,35.598 10.664,-4.307 27.463,-22.314 22.314,-52.064 C 164.063,8.084 135.917,0 135.917,0 c 0,0 -2.385,0.141 -3.227,2.244 -0.842,2.105 7.367,17.541 9.633,30.822 1.539,9.027 2.759,24.223 0.471,24.605 -2.289,0.381 -5.549,-15.219 -9.261,-25.117 -4.21,-11.227 -14.126,-32.26 -19.083,-31.853 -8.561,0.703 -13.332,10.244 -12.07,53.602 z"
       id="path4"
       inkscape:connector-curvature="0" /></g></svg>