<?xml version="1.0" encoding="UTF-8" standalone="no"?>
<svg
   xmlns:dc="http://purl.org/dc/elements/1.1/"
   xmlns:cc="http://creativecommons.org/ns#"
   xmlns:rdf="http://www.w3.org/1999/02/22-rdf-syntax-ns#"
   xmlns:svg="http://www.w3.org/2000/svg"
   xmlns="http://www.w3.org/2000/svg"
   xmlns:sodipodi="http://sodipodi.sourceforge.net/DTD/sodipodi-0.dtd"
   xmlns:inkscape="http://www.inkscape.org/namespaces/inkscape"
   data-name="Layer 1"
   viewBox="0 0 170 170"
   x="0px"
   y="0px"
   version="1.1"
   id="svg12"
   sodipodi:docname="synchronisation.svg"
   width="170"
   height="170"
   inkscape:version="0.92.3 (2405546, 2018-03-11)">
  <metadata
     id="metadata18">
    <rdf:RDF>
      <cc:Work
         rdf:about="">
        <dc:format>image/svg+xml</dc:format>
        <dc:type
           rdf:resource="http://purl.org/dc/dcmitype/StillImage" />
        <dc:title>Artboard 1 copy 4</dc:title>
      </cc:Work>
    </rdf:RDF>
  </metadata>
  <defs
     id="defs16" />
  <sodipodi:namedview
     pagecolor="#ffffff"
     bordercolor="#666666"
     borderopacity="1"
     objecttolerance="10"
     gridtolerance="10"
     guidetolerance="10"
     inkscape:pageopacity="0"
     inkscape:pageshadow="2"
     inkscape:window-width="1600"
     inkscape:window-height="836"
     id="namedview14"
     showgrid="false"
     inkscape:zoom="1.7383042"
     inkscape:cx="-38.760001"
     inkscape:cy="61.647986"
     inkscape:window-x="0"
     inkscape:window-y="27"
     inkscape:window-maximized="1"
     inkscape:current-layer="svg12" />
  <title
     id="title2">Artboard 1 copy 4</title>
  <rect
     style="opacity:1;fill:#b3b3b3;fill-opacity:0.91166077;fill-rule:nonzero;stroke:none;stroke-width:7.5;stroke-linecap:round;stroke-miterlimit:4;stroke-dasharray:none;stroke-dashoffset:0;stroke-opacity:1"
     id="rect843"
     width="177.51772"
     height="177.99364"
     x="-3.7588577"
     y="-3.9968185" />
  <g
     id="g10"
     transform="matrix(6.1933,0,0,6.1933,10.157438,18.932189)"
     style="fill:#008000">
    <path
       d="M 13.5884,11.13856 A 6.31492,6.31492 0 0 0 17.16945,5.46424 V 2.93446 h 1.915 v -1 h -14 v 1 h 1.915 V 5.494 a 6.32715,6.32715 0 0 0 3.54688,5.6582 0.94847,0.94847 0 0 1 -10e-4,1.70117 6.32073,6.32073 0 0 0 -3.5459,5.65723 v 2.47363 h -1.915 v 1 h 14 v -1 h -1.915 v -2.45309 a 6.32941,6.32941 0 0 0 -3.60645,-5.686 0.94418,0.94418 0 0 1 -0.5332,-0.84717 0.95481,0.95481 0 0 1 0.55862,-0.85941 z M 7.99953,5.494 V 3.016 h 8.16992 v 2.44824 a 5.2217,5.2217 0 0 1 -0.25409,1.587 h -8.5e-4 c -0.01556,0.04657 -0.0368,0.10059 -0.05548,0.15137 -0.01666,0.04724 -0.03442,0.094 -0.05243,0.14075 A 5.67038,5.67038 0 0 1 13.80129,9.86021 L 13.22317,9.04478 A 4.71672,4.71672 0 0 0 14.84066,7.05125 H 8.24343 A 5.22353,5.22353 0 0 1 7.99953,5.494 Z m 5.16406,8.26855 a 5.30979,5.30979 0 0 1 3.00586,4.76855 v 0.82349 c -1.948,-0.09564 -2.99957,-0.73315 -3.54059,-1.60236 a 0.5898,0.5898 0 0 0 -1.0108,-0.0055 4.22368,4.22368 0 0 1 -3.61853,1.7926 v -1.0287 A 5.3135,5.3135 0 0 1 10.982,13.7538 1.94969,1.94969 0 0 0 12.03437,12.35536 l 0.03015,-0.02173 a 1.97424,1.97424 0 0 0 1.09908,1.42895 z"
       id="path4"
       inkscape:connector-curvature="0"
       style="fill:#008000" />
    <circle
       cx="12.08449"
       cy="16.31727"
       r="0.48607999"
       id="circle6"
       style="fill:#008000" />
    <circle
       cx="12.08449"
       cy="14.56001"
       r="0.48607999"
       id="circle8"
       style="fill:#008000" />
  </g>
</svg>
