<?xml version="1.0" encoding="UTF-8" standalone="no"?>
<svg
   xmlns:dc="http://purl.org/dc/elements/1.1/"
   xmlns:cc="http://creativecommons.org/ns#"
   xmlns:rdf="http://www.w3.org/1999/02/22-rdf-syntax-ns#"
   xmlns:svg="http://www.w3.org/2000/svg"
   xmlns="http://www.w3.org/2000/svg"
   xmlns:sodipodi="http://sodipodi.sourceforge.net/DTD/sodipodi-0.dtd"
   xmlns:inkscape="http://www.inkscape.org/namespaces/inkscape"
   version="1.2"
   x="0px"
   y="0px"
   viewBox="0 0 170 170"
   xml:space="preserve"
   id="svg4"
   sodipodi:docname="tarissement.svg"
   width="170"
   height="170"
   inkscape:version="0.92.3 (2405546, 2018-03-11)"><metadata
     id="metadata10"><rdf:RDF><cc:Work
         rdf:about=""><dc:format>image/svg+xml</dc:format><dc:type
           rdf:resource="http://purl.org/dc/dcmitype/StillImage" /><dc:title></dc:title></cc:Work></rdf:RDF></metadata><defs
     id="defs8" /><sodipodi:namedview
     pagecolor="#ffffff"
     bordercolor="#666666"
     borderopacity="1"
     objecttolerance="10"
     gridtolerance="10"
     guidetolerance="10"
     inkscape:pageopacity="0"
     inkscape:pageshadow="2"
     inkscape:window-width="1600"
     inkscape:window-height="836"
     id="namedview6"
     showgrid="false"
     inkscape:zoom="2.36"
     inkscape:cx="3.3898305"
     inkscape:cy="50"
     inkscape:window-x="0"
     inkscape:window-y="27"
     inkscape:window-maximized="1"
     inkscape:current-layer="svg4" /><rect
     style="opacity:1;fill:#b3b3b3;fill-opacity:0.91166077;fill-rule:nonzero;stroke:none;stroke-width:7.5;stroke-linecap:round;stroke-miterlimit:4;stroke-dasharray:none;stroke-dashoffset:0;stroke-opacity:1"
     id="rect843"
     width="177.51772"
     height="177.99364"
     x="-3.7588577"
     y="-3.9968185" /><path
     d="m 120.31461,111.86025 c 14.9471,-12.647551 24.30957,-32.850789 24.30957,-54.532312 0,-8.70546 -1.47828,-17.082412 -4.2706,-25.130856 -0.3285,-0.821269 -0.98552,-1.314031 -1.97104,-1.314031 H 31.617465 c -0.821269,0 -1.642539,0.492762 -1.971047,1.314031 -2.792317,8.048444 -4.270603,16.425396 -4.270603,25.130856 0,21.517269 9.033968,41.884761 24.309586,54.696572 l -8.541206,23.48831 c -1.642539,4.43486 0.657016,9.36248 5.091873,11.00502 2.135301,0.82127 4.434857,0.65701 6.570158,-0.32851 2.135302,-0.98552 3.613587,-2.62806 4.434857,-4.92762 l 0.985524,-2.46381 v 3.61359 c 0,4.76336 3.942095,8.54121 8.541206,8.54121 4.599111,0 8.541206,-3.9421 8.541206,-8.54121 v -18.06794 c 3.120825,0.49277 6.24165,0.82127 9.526729,0.82127 3.120826,0 6.405905,-0.3285 9.52673,-0.82127 v 18.23219 c 0,4.76337 3.942095,8.54121 8.541202,8.54121 4.59911,0 8.54121,-3.9421 8.54121,-8.54121 v -3.61358 l 0.98552,2.46381 c 0.82127,2.1353 2.29955,3.94209 4.43486,4.92762 1.14978,0.49276 2.46381,0.82126 3.61358,0.82126 0.98553,0 1.97106,-0.16425 2.95657,-0.49276 4.43486,-1.64254 6.73442,-6.57016 5.09188,-11.00501 z m -48.783432,30.55124 c 0,2.46381 -1.971048,4.59911 -4.599111,4.59911 -2.628064,0 -4.599111,-1.97105 -4.599111,-4.59911 v -14.94711 l 2.299555,-6.4059 c 2.135302,0.98552 4.434857,1.64254 6.734413,2.29955 z m 36.135872,0 c 0,2.46381 -1.97105,4.59911 -4.59911,4.59911 -2.62807,0 -4.599113,-1.97105 -4.599113,-4.59911 v -20.696 c 0,-0.65701 -0.328508,-1.14978 -0.82127,-1.64254 -0.328508,-0.32851 -0.82127,-0.49276 -1.314032,-0.49276 -0.164253,0 -0.328507,0 -0.492761,0 -3.613588,0.82127 -7.391429,1.31403 -11.005016,1.31403 -7.06292,0 -13.961586,-1.47828 -20.531745,-4.59911 -0.492761,-0.16425 -1.149777,-0.32851 -1.642539,0 -0.492762,0.16425 -0.985524,0.65702 -1.149778,1.14978 l -8.048444,22.33854 c -0.328508,1.14977 -1.314032,1.97104 -2.299555,2.46381 -1.149778,0.49276 -2.299556,0.49276 -3.449334,0.16425 -2.299555,-0.82127 -3.613587,-3.44933 -2.628063,-5.74889 l 9.033968,-24.63809 c 0,0 0,-0.16426 0.164254,-0.16426 0.328508,-0.82127 0,-1.80679 -0.657016,-2.29955 C 38.680386,97.570159 29.810672,78.023937 29.810672,57.163684 c 0,-7.719936 1.149778,-15.111364 3.449333,-22.338538 H 137.06851 c 2.29955,7.227174 3.44934,14.618602 3.44934,22.338538 0,24.47384 -12.48332,47.140886 -31.70102,57.653136 -0.65702,0.32851 -1.14978,0.98553 -1.14978,1.8068 z m 14.6186,0.16425 c -1.14978,0.32851 -2.29956,0.32851 -3.44934,-0.16425 -1.14977,-0.49276 -1.97104,-1.47829 -2.29955,-2.46381 l -4.76337,-13.14032 v -8.86971 c 1.8068,-0.98552 3.44935,-2.1353 5.09188,-3.44933 l 8.04844,22.33854 c 0.82127,2.4638 -0.3285,4.92761 -2.62806,5.74888 z"
     id="path2"
     inkscape:connector-curvature="0"
     style="stroke-width:1.64253962" /></svg>