<?xml version="1.0" encoding="UTF-8" standalone="no"?>
<svg
   xmlns:dc="http://purl.org/dc/elements/1.1/"
   xmlns:cc="http://creativecommons.org/ns#"
   xmlns:rdf="http://www.w3.org/1999/02/22-rdf-syntax-ns#"
   xmlns:svg="http://www.w3.org/2000/svg"
   xmlns="http://www.w3.org/2000/svg"
   xmlns:sodipodi="http://sodipodi.sourceforge.net/DTD/sodipodi-0.dtd"
   xmlns:inkscape="http://www.inkscape.org/namespaces/inkscape"
   version="1.1"
   x="0px"
   y="0px"
   viewBox="0 0 241 100"
   xml:space="preserve"
   id="svg26"
   sodipodi:docname="tete_bovin.svg"
   width="241"
   height="100"
   inkscape:version="0.92.1 r15371"><metadata
     id="metadata32"><rdf:RDF><cc:Work
         rdf:about=""><dc:format>image/svg+xml</dc:format><dc:type
           rdf:resource="http://purl.org/dc/dcmitype/StillImage" /><dc:title></dc:title></cc:Work></rdf:RDF></metadata><defs
     id="defs30" /><sodipodi:namedview
     pagecolor="#ffffff"
     bordercolor="#666666"
     borderopacity="1"
     objecttolerance="10"
     gridtolerance="10"
     guidetolerance="10"
     inkscape:pageopacity="0"
     inkscape:pageshadow="2"
     inkscape:window-width="1920"
     inkscape:window-height="986"
     id="namedview28"
     showgrid="false"
     inkscape:zoom="2.95"
     inkscape:cx="114.2133"
     inkscape:cy="80.719299"
     inkscape:window-x="-11"
     inkscape:window-y="-11"
     inkscape:window-maximized="1"
     inkscape:current-layer="svg26" /><rect
     style="opacity:0.57399998;fill:#b3b3b3;fill-opacity:1;stroke:none;stroke-width:4.15002537;stroke-linejoin:round;stroke-miterlimit:4;stroke-dasharray:none;stroke-dashoffset:0;stroke-opacity:1"
     id="rect4491"
     width="257.6907"
     height="118.55932"
     x="-7.0340266"
     y="-6.9799061" /><g
     transform="matrix(0.52665639,0,0,0.52665639,78.28849,7.841156)"
     id="g16"><path
       inkscape:connector-curvature="0"
       d="m 154.9,59.4 c -3.4,-11.4 -13.8,-19.5 -25.6,-20 5.8,-6.5 9.1,-14.8 9.1,-23.5 v -3.4 l -8.6,4.9 c -3,1.7 -6.2,3 -9.5,4 -3,0.9 -6.1,1.4 -9.3,1.7 -1.5,-1.4 -3.2,-2.6 -4.8,-3.8 -7.7,-5.3 -16.7,-8 -26,-8 -9.4,0 -18.4,2.8 -26,8 -1.6,1.1 -3.2,2.4 -4.8,3.8 -3.2,-0.3 -6.3,-0.8 -9.3,-1.7 -3.3,-1 -6.5,-2.3 -9.5,-4 L 22,12.6 V 16 c 0,8.7 3.2,17 9,23.5 C 25.4,39.7 20,41.7 15.5,45 10.6,48.6 7.1,53.7 5.4,59.5 L 5,60.9 17.5,69.8 C 24.7,74.9 34,77 43,75.3 l 8.9,33.4 c 0,0.1 -0.1,0.1 -0.1,0.2 -1.6,3.8 -2.4,7.9 -2.4,12.1 v 0.1 c 0,5.8 3.9,10.8 9.2,12.5 3.2,8.9 11.5,15.2 21.4,15.2 9.8,0 18.2,-6.4 21.4,-15.2 5.3,-1.8 9.2,-6.7 9.2,-12.5 V 121 c 0,-4.2 -0.8,-8.3 -2.4,-12.1 0,-0.1 0,-0.1 -0.1,-0.2 L 117,75.3 c 2.1,0.4 4.2,0.6 6.3,0.6 6.9,0 13.8,-2.1 19.5,-6.2 l 12.5,-8.9 z M 80,15.2 c 7.9,0 15.6,2.2 22.3,6.4 -3.9,6.6 -12.6,11 -22.3,11 -9.7,0 -18.4,-4.3 -22.3,-11 6.7,-4.2 14.4,-6.4 22.3,-6.4 z m 0,129.6 c -7.3,0 -13.6,-4.3 -16.7,-10.5 h 33.4 c -3.1,6.2 -9.4,10.5 -16.7,10.5 z M 106.6,121 c 0,5.1 -4.3,9.2 -9.5,9.2 H 62.9 c -5.2,0 -9.5,-4.1 -9.5,-9.2 v -0.1 c 0,-3.7 0.7,-7.2 2.1,-10.6 1.3,-3.2 3.3,-6.1 5.7,-8.6 2.5,-2.5 5.3,-4.4 8.5,-5.8 3.3,-1.4 6.7,-2.1 10.3,-2.1 3.6,0 7.1,0.7 10.3,2.1 3.2,1.4 6,3.3 8.4,5.8 2.4,2.5 4.4,5.4 5.7,8.6 1.4,3.4 2.1,6.9 2.1,10.6 v 0.1 z m 33.9,-54.6 c -6.5,4.6 -14.6,6.4 -22.5,5 l 0.8,-2.9 -3.9,-1 -9.6,36 c -1.1,-1.6 -2.3,-3.1 -3.7,-4.6 C 98.8,96 95.5,93.8 91.9,92.2 88.1,90.6 84.1,89.7 80,89.7 c -4.1,0 -8.1,0.8 -11.9,2.5 -3.6,1.6 -6.9,3.8 -9.7,6.7 -1.4,1.4 -2.6,2.9 -3.7,4.6 l -9.6,-36 -3.9,1 0.8,2.9 C 34.2,72.8 26.1,71 19.5,66.4 L 9.4,59.2 C 11,54.8 13.8,51 17.6,48.1 21.8,45 26.8,43.3 32,43.3 h 9.1 L 36.9,39.8 C 30.6,34.5 26.7,27.3 25.8,19.4 l 2.5,1.4 c 3.3,1.8 6.8,3.3 10.4,4.4 3.6,1 7.3,1.7 11.1,1.9 h 0.8 l 0.6,-0.6 c 1,-1 2.1,-1.8 3.2,-2.6 4.7,7.7 14.6,12.7 25.6,12.7 11,0 20.9,-5 25.6,-12.7 1.1,0.8 2.1,1.7 3.2,2.6 l 0.6,0.6 h 0.8 c 3.8,-0.2 7.5,-0.9 11.1,-1.9 3.6,-1.1 7.1,-2.5 10.4,-4.4 l 2.5,-1.4 c -0.9,7.8 -4.8,15.1 -11,20.4 l -4.2,3.5 h 9.1 c 10.1,0 19.2,6.4 22.6,15.8 z"
       id="path2" /><path
       inkscape:connector-curvature="0"
       d="m 121.4,54.8 -2.5,0.9 1.3,3.8 2.5,-0.9 c 5.6,-2 11.7,-2.2 17.5,-0.7 l 1.9,0.5 1,-3.9 -1.9,-0.5 c -6.6,-1.7 -13.4,-1.5 -19.8,0.8 z"
       id="path4" /><path
       inkscape:connector-curvature="0"
       d="m 18.3,53.9 -1.9,0.5 1,3.9 1.9,-0.5 c 5.8,-1.5 11.9,-1.2 17.5,0.7 l 2.5,0.9 1.3,-3.8 -2.5,-0.9 C 31.8,52.5 24.9,52.3 18.3,53.9 Z"
       id="path6" /><path
       inkscape:connector-curvature="0"
       d="m 68,104.1 c -3.8,0 -6.8,3.8 -6.8,8.6 0,4.8 3,8.6 6.8,8.6 3.8,0 6.8,-3.8 6.8,-8.6 0,-4.8 -3,-8.6 -6.8,-8.6 z m 0,13.2 c -1.3,0 -2.8,-1.9 -2.8,-4.6 0,-2.7 1.5,-4.6 2.8,-4.6 1.3,0 2.8,1.9 2.8,4.6 0,2.7 -1.5,4.6 -2.8,4.6 z"
       id="path8" /><path
       inkscape:connector-curvature="0"
       d="m 92,104.1 c -3.8,0 -6.8,3.8 -6.8,8.6 0,4.8 3,8.6 6.8,8.6 3.8,0 6.8,-3.8 6.8,-8.6 0,-4.8 -3.1,-8.6 -6.8,-8.6 z m 0,13.2 c -1.3,0 -2.8,-1.9 -2.8,-4.6 0,-2.7 1.5,-4.6 2.8,-4.6 1.3,0 2.8,1.9 2.8,4.6 0,2.7 -1.5,4.6 -2.8,4.6 z"
       id="path10" /><circle
       cx="54.5"
       cy="59"
       r="4.6999998"
       id="circle12" /><circle
       cx="105.5"
       cy="59"
       r="4.6999998"
       id="circle14" /></g></svg>