<?xml version="1.0" encoding="UTF-8" standalone="no"?>
<svg
   xmlns:dc="http://purl.org/dc/elements/1.1/"
   xmlns:cc="http://creativecommons.org/ns#"
   xmlns:rdf="http://www.w3.org/1999/02/22-rdf-syntax-ns#"
   xmlns:svg="http://www.w3.org/2000/svg"
   xmlns="http://www.w3.org/2000/svg"
   xmlns:sodipodi="http://sodipodi.sourceforge.net/DTD/sodipodi-0.dtd"
   xmlns:inkscape="http://www.inkscape.org/namespaces/inkscape"
   id="svg1507"
   version="1.1"
   viewBox="0 0 26.461782 26.461781"
   height="26.461781mm"
   width="26.461782mm"
   sodipodi:docname="retour.svg"
   inkscape:version="0.92.3 (2405546, 2018-03-11)">
  <sodipodi:namedview
     pagecolor="#ffffff"
     bordercolor="#666666"
     borderopacity="1"
     objecttolerance="10"
     gridtolerance="10"
     guidetolerance="10"
     inkscape:pageopacity="0"
     inkscape:pageshadow="2"
     inkscape:window-width="1229"
     inkscape:window-height="606"
     id="namedview7"
     showgrid="false"
     inkscape:zoom="2.3596926"
     inkscape:cx="41.411702"
     inkscape:cy="50.006515"
     inkscape:window-x="0"
     inkscape:window-y="27"
     inkscape:window-maximized="0"
     inkscape:current-layer="svg1507" />
  <defs
     id="defs1501" />
  <metadata
     id="metadata1504">
    <rdf:RDF>
      <cc:Work
         rdf:about="">
        <dc:format>image/svg+xml</dc:format>
        <dc:type
           rdf:resource="http://purl.org/dc/dcmitype/StillImage" />
        <dc:title></dc:title>
      </cc:Work>
    </rdf:RDF>
  </metadata>
  <g
     transform="translate(34.397558,-211.95363)"
     id="layer1"
     style="fill:#cccccc">
    <path
       class="fleche_gauche"
       style="fill:#cccccc;fill-opacity:1;stroke-width:0.10584714"
       id="path2"
       d="m -21.166665,238.41541 c 7.303451,0 13.2308898,-5.92745 13.2308898,-13.23089 0,-7.30346 -5.9274388,-13.23089 -13.2308898,-13.23089 -7.303452,0 -13.230893,5.92743 -13.230893,13.23089 0,7.30344 5.916855,13.23089 13.230893,13.23089 z m -3.143658,-14.52223 4.900719,-4.9113 c 0.211695,-0.2117 0.476313,-0.30696 0.751517,-0.30696 0.2752,0 0.539818,0.10585 0.751514,0.30696 0.412802,0.41279 0.412802,1.07964 0,1.49243 l -4.900722,4.9219 4.900722,4.9113 c 0.412802,0.41281 0.412802,1.07964 0,1.49245 -0.412806,0.41281 -1.079641,0.41281 -1.492446,0 l -6.403751,-6.40375 z"
       inkscape:connector-curvature="0" />
  </g>
</svg>
