<?xml version="1.0" encoding="UTF-8" standalone="no"?>
<svg
   xmlns:dc="http://purl.org/dc/elements/1.1/"
   xmlns:cc="http://creativecommons.org/ns#"
   xmlns:rdf="http://www.w3.org/1999/02/22-rdf-syntax-ns#"
   xmlns:svg="http://www.w3.org/2000/svg"
   xmlns="http://www.w3.org/2000/svg"
   xmlns:sodipodi="http://sodipodi.sourceforge.net/DTD/sodipodi-0.dtd"
   xmlns:inkscape="http://www.inkscape.org/namespaces/inkscape"
   version="1.1"
   x="0px"
   y="0px"
   viewBox="0 0 100 100"
   enable-background="new 0 0 100.297 100"
   xml:space="preserve"
   id="svg12"
   sodipodi:docname="parametres.svg"
   width="100"
   height="100"
   inkscape:version="0.92.3 (2405546, 2018-03-11)"><metadata
     id="metadata18"><rdf:RDF><cc:Work
         rdf:about=""><dc:format>image/svg+xml</dc:format><dc:type
           rdf:resource="http://purl.org/dc/dcmitype/StillImage" /><dc:title></dc:title></cc:Work></rdf:RDF></metadata><defs
     id="defs16" /><sodipodi:namedview
     pagecolor="#ffffff"
     bordercolor="#666666"
     borderopacity="1"
     objecttolerance="10"
     gridtolerance="10"
     guidetolerance="10"
     inkscape:pageopacity="0"
     inkscape:pageshadow="2"
     inkscape:window-width="1600"
     inkscape:window-height="836"
     id="namedview14"
     showgrid="false"
     inkscape:zoom="1.888"
     inkscape:cx="-8.1142133"
     inkscape:cy="62.5"
     inkscape:window-x="0"
     inkscape:window-y="27"
     inkscape:window-maximized="1"
     inkscape:current-layer="svg12" /><g
     id="g831"
     transform="matrix(0.77698953,0,0,0.77698953,11.150524,30.575262)"
     style="fill:#e6e6e6"><path
       style="fill:#e6e6e6"
       inkscape:connector-curvature="0"
       id="path2"
       d="m 17.692,44.129 -7.871,7.868 13.182,13.185 7.871,-7.872 c 3.054,1.812 6.336,3.167 9.803,4.047 V 72.5 H 59.323 V 61.356 c 3.462,-0.88 6.744,-2.235 9.803,-4.047 l 7.869,7.872 13.184,-13.185 -7.872,-7.871 c 1.814,-3.058 3.171,-6.341 4.052,-9.804 H 97.501 V 15.68 H 86.358 C 85.476,12.218 84.121,8.935 82.306,5.878 l 7.872,-7.872 -13.183,-13.182 -7.869,7.869 c -3.055,-1.811 -6.339,-3.167 -9.803,-4.048 V -22.5 H 40.677 v 11.143 c -3.465,0.88 -6.747,2.236 -9.803,4.048 l -7.871,-7.871 -13.182,13.185 7.868,7.87 c -1.811,3.057 -3.167,6.339 -4.046,9.804 H 2.499 v 18.642 h 11.143 c 0.882,3.466 2.238,6.75 4.05,9.808 z M 7.826,21.007 h 10.147 l 0.417,-2.158 c 0.83,-4.286 2.476,-8.276 4.896,-11.859 l 1.23,-1.821 -7.162,-7.162 5.649,-5.65 7.166,7.165 1.82,-1.231 c 3.581,-2.42 7.57,-4.069 11.857,-4.898 l 2.157,-0.417 v -10.148 h 7.99 v 10.146 l 2.157,0.418 c 4.285,0.832 8.277,2.479 11.857,4.898 l 1.82,1.231 7.165,-7.164 5.649,5.649 -7.164,7.164 1.229,1.821 c 2.425,3.585 4.07,7.575 4.9,11.856 l 0.418,2.158 h 10.147 v 7.989 H 82.026 l -0.418,2.157 c -0.83,4.283 -2.476,8.271 -4.9,11.859 l -1.229,1.82 7.164,7.163 -5.648,5.649 -7.165,-7.164 -1.819,1.229 c -3.585,2.421 -7.575,4.069 -11.859,4.897 l -2.156,0.417 v 10.146 h -7.99 V 57.025 L 43.848,56.608 C 39.557,55.777 35.57,54.131 31.991,51.712 l -1.821,-1.231 -7.165,7.165 -5.649,-5.649 7.167,-7.164 -1.233,-1.82 C 20.871,39.432 19.222,35.444 18.392,31.155 L 17.975,28.998 H 7.828 V 21.009 H 7.826 Z" /><path
       style="fill:#e6e6e6"
       inkscape:connector-curvature="0"
       id="path4"
       d="m 50.147,35.495 c 5.788,0 10.499,-4.707 10.499,-10.494 0,-5.787 -4.711,-10.495 -10.499,-10.495 -5.787,0 -10.494,4.708 -10.494,10.495 0,5.787 4.707,10.494 10.494,10.494 z m 0,-15.663 c 2.85,0 5.17,2.319 5.17,5.169 0,2.848 -2.32,5.169 -5.17,5.169 -2.849,0 -5.166,-2.321 -5.166,-5.169 0,-2.85 2.317,-5.169 5.166,-5.169 z" /><path
       style="fill:#e6e6e6"
       inkscape:connector-curvature="0"
       id="path6"
       d="m 71.174,26.824 3.55,-0.096 C 74.099,3.564 52.634,1.037 52.419,1.013 l -0.375,3.531 c 0.758,0.084 18.59,2.271 19.13,22.28 z" /></g></svg>