<?xml version="1.0" encoding="UTF-8" standalone="no"?>
<svg
   xmlns:dc="http://purl.org/dc/elements/1.1/"
   xmlns:cc="http://creativecommons.org/ns#"
   xmlns:rdf="http://www.w3.org/1999/02/22-rdf-syntax-ns#"
   xmlns:svg="http://www.w3.org/2000/svg"
   xmlns="http://www.w3.org/2000/svg"
   xmlns:sodipodi="http://sodipodi.sourceforge.net/DTD/sodipodi-0.dtd"
   xmlns:inkscape="http://www.inkscape.org/namespaces/inkscape"
   version="1.1"
   x="0px"
   y="0px"
   viewBox="0 0 100 100"
   id="svg6"
   sodipodi:docname="hy.svg"
   inkscape:version="0.92.3 (2405546, 2018-03-11)">
  <metadata
     id="metadata12">
    <rdf:RDF>
      <cc:Work
         rdf:about="">
        <dc:format>image/svg+xml</dc:format>
        <dc:type
           rdf:resource="http://purl.org/dc/dcmitype/StillImage" />
        <dc:title></dc:title>
      </cc:Work>
    </rdf:RDF>
  </metadata>
  <defs
     id="defs10" />
  <sodipodi:namedview
     pagecolor="#ffffff"
     bordercolor="#666666"
     borderopacity="1"
     objecttolerance="10"
     gridtolerance="10"
     guidetolerance="10"
     inkscape:pageopacity="0"
     inkscape:pageshadow="2"
     inkscape:window-width="925"
     inkscape:window-height="480"
     id="namedview8"
     showgrid="false"
     inkscape:zoom="2.36"
     inkscape:cx="3.3898305"
     inkscape:cy="50"
     inkscape:window-x="0"
     inkscape:window-y="27"
     inkscape:window-maximized="0"
     inkscape:current-layer="svg6" />
  <g
     transform="translate(0,-952.36218)"
     id="g4"
     style="fill:#0000ff">
    <path
       style="color:#000000;text-indent:0;text-transform:none;direction:ltr;baseline-shift:baseline;display:inline;overflow:visible;visibility:visible;fill:#0000ff;fill-opacity:1;fill-rule:evenodd;stroke:none;enable-background:accumulate"
       d="m 54.4218,958.36216 c -6.7732,0 -11.2839,2.65141 -13.7187,6.375 -2.1182,3.23945 -2.7733,7.03623 -2.9063,10.5 -0.9893,0.27535 -1.9737,0.55654 -2.875,0.8125 l -1.8437,-5.65625 a 2.000005,2.000005 0 0 0 -2.5,-1.28125 l -14.0937,4.59375 a 2.000005,2.000005 0 0 0 -1.2813,2.53125 l 1.7813,5.4375 c -0.881,0.29611 -1.7435,0.60725 -2.7188,0.9375 a 2.000005,2.000005 0 0 0 -1.375,1.875 v 49.78124 c 0,6.6406 5.4531,12.0938 12.0938,12.0938 h 50.0312 c 6.6486,0 12.0938,-5.4532 12.0938,-12.0938 v -63.81249 c 0,-6.64059 -5.4452,-12.09375 -12.0938,-12.09375 z m 0.031,8.0625 h 17.8437 c 2.1074,0 3.9622,0.86017 5.125,2.1875 1.163,1.32732 1.6876,3.03198 1.6876,4.6875 0,1.65551 -0.5246,3.32893 -1.6876,4.65625 -1.1628,1.32733 -3.0176,2.1875 -5.125,2.1875 H 54.4528 c -2.1073,0 -3.9309,-0.86017 -5.0937,-2.1875 -1.1631,-1.32732 -1.6876,-3.00074 -1.6876,-4.65625 0,-1.65552 0.5245,-3.36018 1.6876,-4.6875 1.1628,-1.32733 2.9864,-2.1875 5.0937,-2.1875 z m -24.5313,7.125 1.1563,3.625 c -3.2408,0.96021 -6.3455,1.9389 -10.3125,3.25 l -1.1562,-3.53125 10.3127,-3.34375 z m 1.375,19.875 a 2.000005,2.000005 0 0 1 0.1876,0 h 37.0312 a 2.00002,2.00002 0 0 1 0,4.00004 H 31.4841 a 2.0022184,2.0022184 0 1 1 -0.1876,-4.00004 z"
       marker="none"
       visibility="visible"
       display="inline"
       overflow="visible"
       id="path2"
       inkscape:connector-curvature="0" />
  </g>
</svg>
