<?xml version="1.0" encoding="UTF-8" standalone="no"?>
<svg
   xmlns:dc="http://purl.org/dc/elements/1.1/"
   xmlns:cc="http://creativecommons.org/ns#"
   xmlns:rdf="http://www.w3.org/1999/02/22-rdf-syntax-ns#"
   xmlns:svg="http://www.w3.org/2000/svg"
   xmlns="http://www.w3.org/2000/svg"
   xmlns:sodipodi="http://sodipodi.sourceforge.net/DTD/sodipodi-0.dtd"
   xmlns:inkscape="http://www.inkscape.org/namespaces/inkscape"
   version="1.1"
   x="0px"
   y="0px"
   viewBox="0 0 100 100"
   style="enable-background:new 0 0 100 100;"
   xml:space="preserve"
   id="svg6"
   sodipodi:docname="ma.svg"
   inkscape:version="0.92.3 (2405546, 2018-03-11)"><metadata
     id="metadata12"><rdf:RDF><cc:Work
         rdf:about=""><dc:format>image/svg+xml</dc:format><dc:type
           rdf:resource="http://purl.org/dc/dcmitype/StillImage" /><dc:title></dc:title></cc:Work></rdf:RDF></metadata><defs
     id="defs10" /><sodipodi:namedview
     pagecolor="#ffffff"
     bordercolor="#666666"
     borderopacity="1"
     objecttolerance="10"
     gridtolerance="10"
     guidetolerance="10"
     inkscape:pageopacity="0"
     inkscape:pageshadow="2"
     inkscape:window-width="925"
     inkscape:window-height="480"
     id="namedview8"
     showgrid="false"
     inkscape:zoom="2.36"
     inkscape:cx="3.3898305"
     inkscape:cy="50"
     inkscape:window-x="0"
     inkscape:window-y="27"
     inkscape:window-maximized="0"
     inkscape:current-layer="svg6" /><path
     d="M86.4638672,30.4951172l-3.4375-1.3759766c-3.1982422-1.2792969-4.7529297-4.3388672-4.7529297-9.3505859V18.644104  c1.0888672-0.2781372,1.8994141-1.258728,1.8994141-2.4331665v-3.6914062C80.1728516,11.1298828,79.0429688,10,77.6533203,10  h-9.2431641c-1.3896484,0-2.5195312,1.1298828-2.5195312,2.5195312v3.6914062c0,1.1744385,0.8105469,2.1550293,1.8994141,2.4331665  v1.1244507c0,5.0117188-1.5546875,8.0712891-4.7519531,9.3505859l-3.4384766,1.3759766  c-2.2695312,0.9082031-3.6855469,3.1630859-3.5253906,5.5703125l1.2285156,50.4892578  C57.4296875,88.4863281,59.0400391,90,60.96875,90h24.1269531c1.9277344,0,3.5380859-1.5136719,3.6669922-3.4863281  l1.2255859-50.4072266C90.1484375,33.6582031,88.7324219,31.4033203,86.4638672,30.4951172z M69.7900391,18.7304688h6.4833984  v1.0380859c0,1.6234131,0.1724854,3.0697632,0.4836426,4.3710938h-7.4506836  c0.3111572-1.3013306,0.4836426-2.7476807,0.4836426-4.3710938V18.7304688z M67.890625,12.5195312  C67.890625,12.2333984,68.1240234,12,68.4101562,12h9.2431641c0.2861328,0,0.5195312,0.2333984,0.5195312,0.5195312v3.6914062  c0,0.2861328-0.2333984,0.5195312-0.5195312,0.5195312h-9.2431641c-0.2861328,0-0.5195312-0.2333984-0.5195312-0.5195312V12.5195312  z M86.7646484,86.4238281C86.7070312,87.3076172,85.9736328,88,85.0957031,88H60.96875  c-0.8789062,0-1.6123047-0.6923828-1.6679688-1.5351562l-1.2285156-50.4902344  c-0.1044922-1.5810547,0.8076172-3.0371094,2.2695312-3.6220703l3.4394531-1.3759766  c2.2669678-0.9077759,3.8753052-2.5427856,4.861145-4.8369141h8.7787476  c0.9859619,2.2941284,2.5945435,3.9291382,4.8620605,4.8369141l3.4384766,1.3759766  c1.4619141,0.5849609,2.375,2.0410156,2.2685547,3.6640625L86.7646484,86.4238281z"
     id="path2" /><path
     d="M49.1425781,64.3505859l-11.5615234-4.6025391V50.177063c1.2531128-0.1445312,2.2324219-1.1992188,2.2324219-2.4905396  v-5.1269531c0-1.2913208-0.9793091-2.3460083-2.2324219-2.4905396v-4.0280151c0-0.5527344-0.4472656-1-1-1H26.609375  c-0.5527344,0-1,0.4472656-1,1v4.0280151c-1.2531128,0.1445312-2.2324219,1.1992188-2.2324219,2.4905396v5.1269531  c0,1.2913208,0.9793091,2.3460083,2.2324219,2.4905396v9.5709839l-11.5625,4.6025391  c-2.5966797,1.0332031-4.2177734,3.6025391-4.0234375,6.4765625l2.3457031,15.3046875  C12.5126953,88.3007812,14.328125,90,16.5019531,90H46.6875c2.1738281,0,3.9902344-1.6992188,4.1240234-3.7832031  l2.3642578-15.4746094C53.3613281,67.953125,51.7402344,65.3847656,49.1425781,64.3505859z M35.5810547,54.7880859H27.609375  v-4.5820312h7.9716797V54.7880859z M35.5810547,37.0410156v2.9990234H27.609375v-2.9990234H35.5810547z M25.3769531,47.6865234  v-5.1269531c0-0.2861328,0.2333984-0.5195312,0.5195312-0.5195312h11.3974609c0.2861328,0,0.5195312,0.2333984,0.5195312,0.5195312  v5.1269531c0,0.2861328-0.2333984,0.5195312-0.5195312,0.5195312H25.8964844  C25.6103516,48.2060547,25.3769531,47.9726562,25.3769531,47.6865234z M48.8251953,85.9990234  C48.7509766,87.1210938,47.8125,88,46.6875,88H16.5019531c-1.1240234,0-2.0625-0.8789062-2.1464844-2.0859375L12.0097656,70.609375  c-0.1269531-1.9199219,0.9892578-3.6894531,2.7773438-4.4013672l12.1923828-4.8525391  c0.3798828-0.1513672,0.6298828-0.5195312,0.6298828-0.9287109v-3.6386719h7.9716797v3.6386719  c0,0.4091797,0.25,0.7773438,0.6298828,0.9287109l12.1914062,4.8525391  c1.7890625,0.7128906,2.9052734,2.4814453,2.7871094,4.3164062L48.8251953,85.9990234z"
     id="path4" /></svg>