<?xml version="1.0" encoding="UTF-8" standalone="no"?>
<svg
   xmlns:dc="http://purl.org/dc/elements/1.1/"
   xmlns:cc="http://creativecommons.org/ns#"
   xmlns:rdf="http://www.w3.org/1999/02/22-rdf-syntax-ns#"
   xmlns:svg="http://www.w3.org/2000/svg"
   xmlns="http://www.w3.org/2000/svg"
   xmlns:sodipodi="http://sodipodi.sourceforge.net/DTD/sodipodi-0.dtd"
   xmlns:inkscape="http://www.inkscape.org/namespaces/inkscape"
   version="1.1"
   x="0px"
   y="0px"
   viewBox="0 0 100 100"
   enable-background="new 0 0 100 100"
   xml:space="preserve"
   id="svg8"
   sodipodi:docname="pp.svg"
   inkscape:version="0.92.3 (2405546, 2018-03-11)"><metadata
     id="metadata14"><rdf:RDF><cc:Work
         rdf:about=""><dc:format>image/svg+xml</dc:format><dc:type
           rdf:resource="http://purl.org/dc/dcmitype/StillImage" /><dc:title></dc:title></cc:Work></rdf:RDF></metadata><defs
     id="defs12" /><sodipodi:namedview
     pagecolor="#ffffff"
     bordercolor="#666666"
     borderopacity="1"
     objecttolerance="10"
     gridtolerance="10"
     guidetolerance="10"
     inkscape:pageopacity="0"
     inkscape:pageshadow="2"
     inkscape:window-width="925"
     inkscape:window-height="480"
     id="namedview10"
     showgrid="false"
     inkscape:zoom="2.36"
     inkscape:cx="3.3898305"
     inkscape:cy="50"
     inkscape:window-x="0"
     inkscape:window-y="27"
     inkscape:window-maximized="0"
     inkscape:current-layer="svg8" /><g
     id="g6"
     style="fill:#668000"><path
       d="m 31.423,20.466 c -1.35,-2.024 -4.274,-2.873 -6.496,-1.885 l -1.896,0.843 c -2.222,0.988 -3.464,-0.109 -2.76,-2.438 L 23.25,7.157 c 0.706,-2.329 3.224,-3.792 5.596,-3.253 l 37.672,8.573 c 2.372,0.539 3.41,2.755 2.306,4.923 l -3.47,6.809 c -1.104,2.168 -3.417,2.534 -5.137,0.814 l -1.228,-1.228 c -1.721,-1.72 -4.785,-2.024 -6.809,-0.674 l -0.124,0.082 c -2.024,1.35 -4.99,0.957 -6.592,-0.873 -1.6,-1.829 -4.608,-2.286 -6.683,-1.015 l -1.052,0.645 c -2.074,1.271 -4.876,0.654 -6.227,-1.37 z"
       id="path2"
       inkscape:connector-curvature="0"
       style="fill:#668000" /><path
       d="M 82.446,60.198 C 82.292,57.769 81.316,53.981 80.278,51.78 L 77.946,46.831 C 76.908,44.63 75.7,40.872 75.259,38.478 L 73.203,27.255 c -0.44,-2.393 -0.99,-2.37 -1.225,0.052 l -1.486,15.399 c -0.233,2.422 -0.458,4.52 -0.498,4.663 -0.04,0.144 -0.932,2.056 -1.981,4.252 l -0.492,1.025 c -1.05,2.195 -1.88,5.981 -1.842,8.414 l 0.296,19.449 c 0.038,2.432 1.45,2.988 3.138,1.235 0,0 1.188,-1.231 4.738,-1.264 1.776,-0.004 3.683,0.62 5.589,1.97 0.7,0.494 0.866,1.465 0.37,2.163 -0.494,0.699 -1.465,0.865 -2.162,0.371 -1.509,-1.06 -1.509,-1.06 -1.509,-1.06 -1.258,-0.188 -3.962,0.736 -6.006,2.056 0,0 -2.446,1.576 -3.562,3.86 -0.378,0.732 -0.378,0.732 -0.378,0.732 -0.1,0.246 -0.544,0.886 -0.99,1.422 0,0 0,0 -0.624,0 -0.096,0 -0.192,-0.01 -0.288,-0.025 -0.728,-0.133 -0.728,-0.133 -0.728,-0.133 -0.299,-0.754 -0.572,-3.359 -0.608,-5.794 l -0.384,-25.3 c -0.036,-2.432 -0.055,-4.532 -0.042,-4.664 0.014,-0.132 0.985,-2.25 2.036,-4.444 L 65.09,50.53 c 1.051,-2.194 2.103,-5.972 2.337,-8.394 l 1.554,-16.072 c 0.234,-2.422 -0.402,-2.593 -1.414,-0.381 l -1.826,3.987 c -1.012,2.212 -3.248,2.614 -4.969,0.894 l -2.616,-2.616 c -1.72,-1.72 -4.784,-2.024 -6.808,-0.674 l -0.126,0.083 c -2.024,1.35 -4.99,0.957 -6.59,-0.873 -1.6,-1.83 -4.632,-2.323 -6.736,-1.102 l -0.944,0.549 c -2.104,1.221 -4.948,0.661 -6.32,-1.245 -1.372,-1.906 -2.898,-1.517 -3.39,0.866 l -1.61,7.788 c -0.492,2.383 -2.206,5.831 -3.808,7.662 l -1.418,1.62 c -1.602,1.831 -3.002,5.318 -3.11,7.749 l -1.158,25.761 c -0.108,2.429 1.676,5.089 3.968,5.906 l 38.242,13.659 c 2.292,0.818 5.965,0.636 8.163,-0.408 l 13.633,-6.464 c 2.198,-1.044 3.87,-3.885 3.716,-6.312 z"
       id="path4"
       inkscape:connector-curvature="0"
       style="fill:#668000" /></g></svg>