<?xml version="1.0" encoding="UTF-8" standalone="no"?>
<svg
   xmlns:dc="http://purl.org/dc/elements/1.1/"
   xmlns:cc="http://creativecommons.org/ns#"
   xmlns:rdf="http://www.w3.org/1999/02/22-rdf-syntax-ns#"
   xmlns:svg="http://www.w3.org/2000/svg"
   xmlns="http://www.w3.org/2000/svg"
   xmlns:sodipodi="http://sodipodi.sourceforge.net/DTD/sodipodi-0.dtd"
   xmlns:inkscape="http://www.inkscape.org/namespaces/inkscape"
   version="1.1"
   x="0px"
   y="0px"
   viewBox="0 0 100 100"
   xml:space="preserve"
   id="svg30"
   sodipodi:docname="bsa_carre.svg"
   width="100"
   height="100"
   inkscape:version="0.92.3 (2405546, 2018-03-11)"><metadata
     id="metadata36"><rdf:RDF><cc:Work
         rdf:about=""><dc:format>image/svg+xml</dc:format><dc:type
           rdf:resource="http://purl.org/dc/dcmitype/StillImage" /><dc:title></dc:title></cc:Work></rdf:RDF></metadata><defs
     id="defs34" /><sodipodi:namedview
     pagecolor="#ffffff"
     bordercolor="#666666"
     borderopacity="1"
     objecttolerance="10"
     gridtolerance="10"
     guidetolerance="10"
     inkscape:pageopacity="0"
     inkscape:pageshadow="2"
     inkscape:window-width="1600"
     inkscape:window-height="836"
     id="namedview32"
     showgrid="false"
     inkscape:zoom="2.6700352"
     inkscape:cx="98.678256"
     inkscape:cy="124.00284"
     inkscape:window-x="0"
     inkscape:window-y="27"
     inkscape:window-maximized="1"
     inkscape:current-layer="svg30"
     showguides="true"
     inkscape:guide-bbox="true"><sodipodi:guide
       position="-4.2372881,576"
       orientation="0,1"
       id="guide3111"
       inkscape:locked="false"
       inkscape:label=""
       inkscape:color="rgb(0,0,255)" /><sodipodi:guide
       position="-37.605932,87"
       orientation="0,1"
       id="guide3113"
       inkscape:locked="false"
       inkscape:label=""
       inkscape:color="rgb(0,0,255)" /><sodipodi:guide
       position="-40.254237,5.76"
       orientation="0,1"
       id="guide3115"
       inkscape:locked="false"
       inkscape:label=""
       inkscape:color="rgb(0,0,255)" /></sodipodi:namedview><rect
     style="opacity:0.57399998;fill:#b3b3b3;fill-opacity:1;stroke:none;stroke-width:2.81265283;stroke-linejoin:round;stroke-miterlimit:4;stroke-dasharray:none;stroke-dashoffset:0;stroke-opacity:1"
     id="rect4491"
     width="118.3667"
     height="118.55932"
     x="-11.790269"
     y="-5.8898301" /><g
     id="g3126"
     transform="matrix(1.0693812,0,0,1.0693812,-79.453002,0.21074091)"><path
       d="m 97.421809,62.4098 c -0.353134,-3.884472 -0.706268,-8.386928 -0.971118,-10.947148 0.26485,0.26485 0.617984,0.5297 0.882835,0.794551 2.207086,1.942236 6.091554,2.29537 8.740064,2.29537 1.23597,0 2.20708,-0.08828 2.6485,-0.08828 1.41254,-0.176567 2.38365,-1.412535 2.29537,-2.736787 -0.17657,-1.412535 -1.41253,-2.383653 -2.73679,-2.29537 -2.38365,0.264851 -6.3564,0 -7.50409,-0.971118 -2.82507,-2.471937 -5.738424,-3.972755 -10.505731,-4.149322 -4.149322,0 -4.943873,1.853952 -4.943873,4.061039 0,3.001637 0.971118,15.979305 1.589102,18.804376 0.617984,2.471937 6.797826,2.030519 9.799463,1.942236 3.001638,-0.08828 6.356409,0.08828 7.945509,0.441417 0.17657,2.648504 -0.0883,9.269763 -0.5297,14.831621 -0.17657,1.765669 1.23597,3.354771 3.00164,3.531338 0.0883,0 0.17657,0 0.26485,0 1.67739,0 3.1782,-1.324252 3.26649,-3.001638 0.79455,-10.505731 0.79455,-16.86214 -0.0883,-18.804376 -1.32425,-2.736787 -4.7673,-3.531338 -13.154231,-3.707905 z"
       id="path2"
       inkscape:connector-curvature="0"
       style="fill:#0000ff;stroke-width:0.88283455" /><circle
       transform="rotate(-3.3702182)"
       cx="87.878929"
       cy="41.781231"
       id="ellipse4"
       r="6.4448829"
       style="fill:#0000ff;stroke-width:0.8828606" /><path
       d="M 100.1586,70.885012 H 85.238692 L 82.766755,47.313329 c -0.08828,-1.147685 -1.147685,-2.030519 -2.29537,-1.853952 -1.147684,0.08828 -2.030519,1.147685 -1.853952,2.295369 l 2.736787,25.425636 c 0.08828,1.059401 1.059401,1.853952 2.118803,1.853952 h 6.532976 v 7.768945 l -4.85559,1.853952 c -0.882835,0.353134 -1.324252,1.324252 -1.059402,2.207087 0.353134,0.882834 1.324252,1.324251 2.207087,1.059401 l 5.297007,-1.942236 5.297007,1.942236 c 0.264851,0 0.441418,0 0.617984,0 0.706268,0 1.324252,-0.441417 1.589103,-1.147685 0.353133,-0.882835 -0.176567,-1.853953 -1.059402,-2.207086 l -4.767306,-1.677386 v -7.768944 h 6.886113 c 1.14768,0 2.1188,-0.971118 2.1188,-2.118803 0,-1.147685 -0.88284,-2.118803 -2.1188,-2.118803 z"
       id="path6"
       inkscape:connector-curvature="0"
       style="fill:#0000ff;stroke-width:0.88283455" /><path
       d="m 136.35481,69.56076 c 1.67739,-0.353134 5.03216,-0.529701 7.94551,-0.441417 3.00164,0.08828 9.18148,0.529701 9.79947,-1.942236 0.70627,-2.825071 1.5891,-15.802739 1.5891,-18.804376 0,-2.207087 -0.70627,-4.061039 -4.94387,-4.061039 -4.85559,0.08828 -7.68066,1.677385 -10.50573,4.149322 -1.14769,0.971118 -5.03216,1.147685 -7.5041,0.971118 -1.41253,-0.176567 -2.6485,0.882835 -2.73679,2.29537 -0.17656,1.412535 0.88284,2.648504 2.29537,2.736787 0.44142,0 1.41254,0.08828 2.64851,0.08828 2.6485,0 6.53297,-0.353134 8.74006,-2.29537 0.35313,-0.264851 0.61798,-0.529701 0.88283,-0.794551 -0.26485,2.56022 -0.61798,6.974393 -0.97111,10.947148 -8.38693,0.176567 -11.82999,0.971118 -13.06596,3.707905 -0.88283,1.942236 -0.97111,8.298645 -0.0883,18.804376 0.17657,1.677386 1.5891,3.001638 3.26649,3.001638 0.0883,0 0.17657,0 0.26485,0 1.76567,-0.176567 3.1782,-1.765669 3.00164,-3.531338 -0.5297,-5.561858 -0.79455,-12.183117 -0.61799,-14.831621 z"
       id="path8"
       inkscape:connector-curvature="0"
       style="fill:#0000ff;stroke-width:0.88283455" /><circle
       transform="rotate(-86.628861)"
       cx="-27.623043"
       cy="152.65144"
       id="ellipse10"
       r="6.4448891"
       style="fill:#0000ff;stroke-width:0.8828615" /><path
       d="m 160.54448,45.459377 c -1.14768,-0.08828 -2.20709,0.706267 -2.29537,1.853952 l -2.47194,23.4834 h -15.00818 c -1.14769,0 -2.11881,0.971118 -2.11881,2.118802 0,1.147685 0.97112,2.118803 2.11881,2.118803 h 6.88611 v 7.768945 l -4.76731,1.677385 c -0.88284,0.353134 -1.32425,1.324252 -1.0594,2.207087 0.26485,0.706267 0.88283,1.147685 1.5891,1.147685 0.17657,0 0.35313,0 0.5297,-0.08828 l 5.29701,-1.942236 5.29701,1.942236 c 0.88283,0.353134 1.85395,-0.176567 2.20708,-1.059401 0.35314,-0.882835 -0.17657,-1.853953 -1.0594,-2.207087 l -4.76731,-1.677385 v -7.768945 h 6.62126 c 1.0594,0 2.03052,-0.794551 2.11881,-1.853952 l 2.73678,-25.425636 c 0.0883,-1.147684 -0.70627,-2.207086 -1.85395,-2.295369 z"
       id="path12"
       inkscape:connector-curvature="0"
       style="fill:#0000ff;stroke-width:0.88283455" /><path
       d="m 141.12212,59.937863 v -2.82507 c 0,-0.264851 -0.17657,-0.441417 -0.44142,-0.441417 h -40.43382 c -0.264851,0 -0.441418,0.176566 -0.441418,0.441417 v 2.82507 c 0,0.264851 0.176567,0.441418 0.441418,0.441418 h 14.47849 v 26.749887 c 0,0.26485 0.17656,0.441417 0.44141,0.441417 h 10.59402 c 0.26485,0 0.44142,-0.176567 0.44142,-0.441417 V 60.467564 h 14.47848 c 0.26485,0 0.44142,-0.26485 0.44142,-0.529701 z"
       id="path14"
       inkscape:connector-curvature="0"
       style="fill:#0000ff;stroke-width:0.88283455" /><path
       d="m 129.11557,24.624481 c 0,1.853953 -0.61798,3.531338 -1.76567,5.12044 1.76567,0.971118 4.23761,2.207087 6.62126,2.648504 0.61798,0.08828 0.97112,-0.617984 0.61798,-1.059401 -1.23596,-1.324252 -1.85395,-2.648504 -2.20708,-3.619622 2.91335,-1.589102 4.85559,-4.149322 4.85559,-6.974393 0,-4.85559 -5.38529,-8.740062 -12.00655,-8.740062 -3.35477,0 -6.44469,0.971118 -8.5635,2.648503 3.17821,0.176567 6.09156,1.147685 8.38693,2.825071 2.56022,1.765669 4.06104,4.414173 4.06104,7.15096 z"
       id="path16"
       inkscape:connector-curvature="0"
       style="fill:#ff5599;stroke-width:0.88283455" /><path
       d="m 108.63381,31.687158 c -0.35314,0.971118 -0.97112,2.383653 -2.20709,3.619621 -0.44142,0.441417 0,1.235969 0.61799,1.059402 2.73678,-0.529701 5.47357,-2.03052 7.32752,-3.089921 0.44142,0 0.97112,0.08828 1.41254,0.08828 6.62126,0 12.00655,-3.884472 12.00655,-8.740062 0,-4.85559 -5.38529,-8.740062 -12.00655,-8.740062 -6.62126,0 -12.00655,3.884472 -12.00655,8.740062 0,2.913354 1.85395,5.473574 4.85559,7.062677 z m 12.88938,-8.740063 c 0.97112,0 1.67739,0.794551 1.67739,1.677386 0,0.971118 -0.79455,1.677386 -1.67739,1.677386 -0.88283,0 -1.67738,-0.794551 -1.67738,-1.677386 -0.0883,-0.882835 0.70626,-1.677386 1.67738,-1.677386 z m -5.82671,0 c 0.97112,0 1.67739,0.794551 1.67739,1.677386 0,0.971118 -0.79455,1.677386 -1.67739,1.677386 -0.97111,0 -1.67738,-0.794551 -1.67738,-1.677386 0,-0.882835 0.79455,-1.677386 1.67738,-1.677386 z m -5.73842,0 c 0.97112,0 1.67739,0.794551 1.67739,1.677386 0,0.971118 -0.79456,1.677386 -1.67739,1.677386 -0.88283,0 -1.67739,-0.794551 -1.67739,-1.677386 0,-0.882835 0.79456,-1.677386 1.67739,-1.677386 z"
       id="path18"
       inkscape:connector-curvature="0"
       style="fill:#ff9955;stroke-width:0.88283455" /></g></svg>