<?xml version="1.0" encoding="UTF-8" standalone="no"?>
<svg
   xmlns:dc="http://purl.org/dc/elements/1.1/"
   xmlns:cc="http://creativecommons.org/ns#"
   xmlns:rdf="http://www.w3.org/1999/02/22-rdf-syntax-ns#"
   xmlns:svg="http://www.w3.org/2000/svg"
   xmlns="http://www.w3.org/2000/svg"
   xmlns:sodipodi="http://sodipodi.sourceforge.net/DTD/sodipodi-0.dtd"
   xmlns:inkscape="http://www.inkscape.org/namespaces/inkscape"
   version="1.1"
   x="0px"
   y="0px"
   viewBox="0 0 100 100"
   xml:space="preserve"
   id="svg30"
   sodipodi:docname="bsa_carre.svg"
   width="100"
   height="100"
   inkscape:version="0.92.1 r15371"><metadata
     id="metadata36"><rdf:RDF><cc:Work
         rdf:about=""><dc:format>image/svg+xml</dc:format><dc:type
           rdf:resource="http://purl.org/dc/dcmitype/StillImage" /><dc:title /></cc:Work></rdf:RDF></metadata><defs
     id="defs34" /><sodipodi:namedview
     pagecolor="#ffffff"
     bordercolor="#666666"
     borderopacity="1"
     objecttolerance="10"
     gridtolerance="10"
     guidetolerance="10"
     inkscape:pageopacity="0"
     inkscape:pageshadow="2"
     inkscape:window-width="1920"
     inkscape:window-height="986"
     id="namedview32"
     showgrid="false"
     inkscape:zoom="2.6700352"
     inkscape:cx="2.4248433"
     inkscape:cy="124.00284"
     inkscape:window-x="-11"
     inkscape:window-y="-11"
     inkscape:window-maximized="1"
     inkscape:current-layer="svg30"
     showguides="true"
     inkscape:guide-bbox="true"><sodipodi:guide
       position="-4.2372881,576"
       orientation="0,1"
       id="guide3111"
       inkscape:locked="false"
       inkscape:label=""
       inkscape:color="rgb(0,0,255)" /><sodipodi:guide
       position="-37.605932,87"
       orientation="0,1"
       id="guide3113"
       inkscape:locked="false"
       inkscape:label=""
       inkscape:color="rgb(0,0,255)" /><sodipodi:guide
       position="-40.254237,5.76"
       orientation="0,1"
       id="guide3115"
       inkscape:locked="false"
       inkscape:label=""
       inkscape:color="rgb(0,0,255)" /></sodipodi:namedview><rect
     style="opacity:0.57399998;fill:#b3b3b3;fill-opacity:1;stroke:none;stroke-width:2.81265283;stroke-linejoin:round;stroke-miterlimit:4;stroke-dasharray:none;stroke-dashoffset:0;stroke-opacity:1"
     id="rect4491"
     width="118.3667"
     height="118.55932"
     x="-11.790269"
     y="-5.8898301" /><path
     style="fill:#417ebe;stroke-width:0.94408667;fill-opacity:1"
     inkscape:connector-curvature="0"
     id="path2"
     d="m 24.728049,66.950608 c -0.377635,-4.153982 -0.75527,-8.968823 -1.038495,-11.706675 0.283225,0.283226 0.66086,0.566452 0.944087,0.849678 2.360216,2.076991 6.514193,2.454626 9.34646,2.454626 1.321723,0 2.36021,-0.09441 2.832256,-0.09441 1.510544,-0.188818 2.549031,-1.510538 2.454626,-2.926669 -0.188821,-1.510538 -1.510533,-2.549033 -2.926672,-2.454625 -2.549031,0.283227 -6.797415,0 -8.024733,-1.038496 -3.021077,-2.643442 -6.136563,-4.248389 -11.234631,-4.437206 -4.437207,0 -5.286885,1.982581 -5.286885,4.342798 0,3.209894 1.038495,17.087969 1.699356,20.109046 0.66086,2.643443 7.269467,2.171399 10.479361,2.076991 3.209896,-0.0944 6.797425,0.09441 8.496778,0.472043 0.188821,2.832261 -0.09443,9.91291 -0.566451,15.860657 -0.188821,1.888173 1.321723,3.587529 3.209897,3.776346 0.09443,0 0.188821,0 0.283226,0 1.793769,0 3.398707,-1.41613 3.493123,-3.209895 0.849677,-11.234631 0.849677,-18.032055 -0.09443,-20.109046 -1.416128,-2.926669 -5.098061,-3.776347 -14.066888,-3.965164 z" /><circle
     style="fill:#417ebe;stroke-width:0.94411451;fill-opacity:1"
     r="6.8920364"
     id="ellipse4"
     cy="40.219597"
     cx="14.648094"
     transform="rotate(-3.3702185)" /><path
     style="fill:#417ebe;stroke-width:0.94408667;fill-opacity:1"
     inkscape:connector-curvature="0"
     id="path6"
     d="M 27.654722,76.01384 H 11.699653 L 9.0562098,50.806725 C 8.9618048,49.579413 7.828897,48.635327 6.6015843,48.824144 5.3742726,48.918549 4.4301854,50.051457 4.6190028,51.278768 l 2.9266686,27.189698 c 0.094405,1.132903 1.1329035,1.982581 2.2658081,1.982581 h 6.9862415 v 8.307964 l -5.192476,1.982581 c -0.944088,0.377635 -1.416131,1.41613 -1.132905,2.360218 0.377635,0.944086 1.41613,1.416129 2.360217,1.132903 l 5.66452,-2.076991 5.66452,2.076991 c 0.283226,0 0.472044,0 0.66086,0 0.75527,0 1.41613,-0.472043 1.699357,-1.227313 0.377634,-0.944087 -0.188817,-1.982582 -1.132905,-2.360216 l -5.098067,-1.793765 v -8.307963 h 7.36388 c 1.227307,0 2.265805,-1.038495 2.265805,-2.265808 0,-1.227313 -0.944093,-2.265808 -2.265805,-2.265808 z" /><path
     style="fill:#417ebe;stroke-width:0.94408667;fill-opacity:1"
     inkscape:connector-curvature="0"
     id="path8"
     d="m 66.362268,74.59771 c 1.79377,-0.377635 5.381298,-0.566452 8.496779,-0.472043 3.209898,0.0944 9.818502,0.566452 10.479369,-2.076991 0.755272,-3.021078 1.699354,-16.899152 1.699354,-20.109046 0,-2.360217 -0.755272,-4.342799 -5.286882,-4.342799 -5.192476,0.09441 -8.213553,1.793764 -11.23463,4.437207 -1.227318,1.038496 -5.381297,1.227313 -8.024743,1.038496 -1.510533,-0.188818 -2.832256,0.944087 -2.926672,2.454625 -0.18881,1.510538 0.944092,2.83226 2.454626,2.926669 0.472046,0 1.510543,0.09441 2.832266,0.09441 2.832256,0 6.986236,-0.377635 9.346456,-2.454626 0.377631,-0.283227 0.660856,-0.566452 0.944082,-0.849678 -0.283226,2.737851 -0.660856,7.458285 -1.038487,11.706674 -8.968825,0.188818 -12.650769,1.038496 -13.972492,3.965164 -0.944082,2.076991 -1.038487,8.874415 -0.09443,20.109047 0.18882,1.793765 1.699354,3.209895 3.493123,3.209895 0.09443,0 0.18882,0 0.283225,0 1.888175,-0.188818 3.398708,-1.888173 3.209898,-3.776347 -0.566451,-5.947746 -0.849677,-13.028396 -0.660867,-15.860656 z" /><circle
     style="fill:#417ebe;stroke-width:0.94411546;fill-opacity:1"
     r="6.8920431"
     id="ellipse10"
     cy="83.939461"
     cx="-34.422054"
     transform="rotate(-86.628861)" /><path
     style="fill:#417ebe;stroke-width:0.94408667;fill-opacity:1"
     inkscape:connector-curvature="0"
     id="path12"
     d="m 92.230247,48.824144 c -1.227308,-0.0944 -2.360221,0.755269 -2.454626,1.982581 L 87.132175,75.919432 H 71.082709 c -1.227318,0 -2.265815,1.038495 -2.265815,2.265807 0,1.227313 1.038497,2.265808 2.265815,2.265808 h 7.363877 v 8.307964 l -5.098072,1.793764 c -0.944092,0.377635 -1.416128,1.41613 -1.132902,2.360217 0.283226,0.755269 0.944082,1.227313 1.699354,1.227313 0.18882,0 0.37763,0 0.566451,-0.0944 l 5.664523,-2.076991 5.664523,2.076991 c 0.944081,0.377635 1.982579,-0.188818 2.360209,-1.132904 0.377642,-0.944087 -0.18882,-1.982582 -1.132902,-2.360217 L 81.939698,88.75902 v -8.307964 h 7.080651 c 1.132903,0 2.1714,-0.849678 2.265816,-1.982581 l 2.926661,-27.189697 c 0.09443,-1.227312 -0.755272,-2.360217 -1.982579,-2.454625 z" /><path
     style="fill:#417ebe;stroke-width:0.94408667;fill-opacity:1"
     inkscape:connector-curvature="0"
     id="path14"
     d="m 71.46034,64.307165 v -3.021077 c 0,-0.283227 -0.188821,-0.472043 -0.472046,-0.472043 H 27.749127 c -0.283227,0 -0.472044,0.188816 -0.472044,0.472043 v 3.021077 c 0,0.283226 0.188817,0.472044 0.472044,0.472044 h 15.483025 v 28.605826 c 0,0.283226 0.18881,0.472043 0.472035,0.472043 h 11.329046 c 0.283226,0 0.472046,-0.188817 0.472046,-0.472043 V 64.873617 h 15.483015 c 0.283225,0 0.472046,-0.283226 0.472046,-0.566452 z" /><path
     style="fill:#ff5599;stroke-width:0.94408667"
     inkscape:connector-curvature="0"
     id="path16"
     d="m 58.620761,26.543698 c 0,1.982582 -0.660856,3.776346 -1.888174,5.475702 1.888174,1.038496 4.53162,2.360218 7.080651,2.832261 0.660856,0.09441 1.038497,-0.660861 0.660856,-1.132904 -1.321712,-1.41613 -1.982579,-2.83226 -2.36021,-3.870756 3.115482,-1.699355 5.192477,-4.437207 5.192477,-7.458284 0,-5.192477 -5.758928,-9.346458 -12.839579,-9.346458 -3.587528,0 -6.89183,1.038495 -9.157646,2.832259 3.398718,0.188817 6.5142,1.227313 8.968825,3.021078 2.737851,1.888173 4.3428,4.720433 4.3428,7.647102 z" /><path
     style="fill:#ff9955;stroke-width:0.94408667"
     inkscape:connector-curvature="0"
     id="path18"
     d="m 36.717952,34.096392 c -0.377641,1.038495 -1.038497,2.549034 -2.36022,3.870755 -0.472047,0.472043 0,1.321722 0.660866,1.132904 2.926662,-0.566452 5.853333,-2.1714 7.835913,-3.304303 0.472046,0 1.038497,0.0944 1.510543,0.0944 7.080651,0 12.839579,-4.153982 12.839579,-9.346458 0,-5.192477 -5.758928,-9.346458 -12.839579,-9.346458 -7.080651,0 -12.839579,4.153981 -12.839579,9.346458 0,3.115486 1.98258,5.853337 5.192477,7.552694 z m 13.783661,-9.346459 c 1.038497,0 1.793769,0.849678 1.793769,1.793765 0,1.038495 -0.849677,1.793765 -1.793769,1.793765 -0.944082,0 -1.793759,-0.849678 -1.793759,-1.793765 -0.09443,-0.944087 0.755261,-1.793765 1.793759,-1.793765 z m -6.230974,0 c 1.038497,0 1.793769,0.849678 1.793769,1.793765 0,1.038495 -0.849677,1.793765 -1.793769,1.793765 -1.038487,0 -1.793759,-0.849678 -1.793759,-1.793765 0,-0.944087 0.849677,-1.793765 1.793759,-1.793765 z m -6.136559,0 c 1.038498,0 1.793769,0.849678 1.793769,1.793765 0,1.038495 -0.849687,1.793765 -1.793769,1.793765 -0.944082,0 -1.793769,-0.849678 -1.793769,-1.793765 0,-0.944087 0.849687,-1.793765 1.793769,-1.793765 z" /></svg>