<?xml version="1.0" encoding="UTF-8" standalone="no"?>
<svg
   xmlns:dc="http://purl.org/dc/elements/1.1/"
   xmlns:cc="http://creativecommons.org/ns#"
   xmlns:rdf="http://www.w3.org/1999/02/22-rdf-syntax-ns#"
   xmlns:svg="http://www.w3.org/2000/svg"
   xmlns="http://www.w3.org/2000/svg"
   xmlns:sodipodi="http://sodipodi.sourceforge.net/DTD/sodipodi-0.dtd"
   xmlns:inkscape="http://www.inkscape.org/namespaces/inkscape"
   version="1.1"
   x="0px"
   y="0px"
   viewBox="0 0 96 96"
   enable-background="new 0 0 96 96"
   xml:space="preserve"
   id="svg18"
   sodipodi:docname="no_ps.svg"
   inkscape:version="0.92.3 (2405546, 2018-03-11)"><metadata
     id="metadata24"><rdf:RDF><cc:Work
         rdf:about=""><dc:format>image/svg+xml</dc:format><dc:type
           rdf:resource="http://purl.org/dc/dcmitype/StillImage" /><dc:title></dc:title></cc:Work></rdf:RDF></metadata><defs
     id="defs22" /><sodipodi:namedview
     pagecolor="#ffffff"
     bordercolor="#666666"
     borderopacity="1"
     objecttolerance="10"
     gridtolerance="10"
     guidetolerance="10"
     inkscape:pageopacity="0"
     inkscape:pageshadow="2"
     inkscape:window-width="1600"
     inkscape:window-height="836"
     id="namedview20"
     showgrid="false"
     inkscape:zoom="2.4583333"
     inkscape:cx="3.2542373"
     inkscape:cy="48"
     inkscape:window-x="0"
     inkscape:window-y="27"
     inkscape:window-maximized="1"
     inkscape:current-layer="svg18" /><rect
     style="opacity:1;fill:#d3d3d3;fill-opacity:1;stroke:none;stroke-width:2.44324946;stroke-linejoin:round;stroke-miterlimit:4;stroke-dasharray:none;stroke-dashoffset:0;stroke-opacity:1"
     id="rect4491"
     width="102.70766"
     height="103.10169"
     x="-2.3368802"
     y="-2.7372868" /><g
     id="g16"
     style="fill:#b3b3b3"><path
       d="m 15.964,69.922 c -0.644,0 -1.164,-0.521 -1.164,-1.164 0,-0.643 0.521,-1.164 1.164,-1.164 h 4.076 c 0.276,-0.538 0.478,-1.121 0.592,-1.736 h -4.465 -0.203 c -0.518,0 -0.94,-0.342 -1.092,-0.809 -0.042,-0.112 -0.072,-0.23 -0.072,-0.354 0,-0.125 0.029,-0.242 0.072,-0.355 0.151,-0.466 0.574,-0.809 1.092,-0.809 h 0.203 4.465 c -0.114,-0.614 -0.316,-1.197 -0.593,-1.736 h -4.075 c -0.644,0 -1.164,-0.521 -1.164,-1.164 0,-0.643 0.521,-1.164 1.164,-1.164 h 2.043 c -1.031,-0.719 -2.283,-1.143 -3.636,-1.143 -3.52,0 -6.371,2.853 -6.371,6.373 0,3.517 2.852,6.369 6.371,6.369 1.354,0 2.604,-0.426 3.637,-1.145 h -2.044 z"
       id="path2"
       inkscape:connector-curvature="0"
       style="fill:#b3b3b3" /><path
       d="m 73.271,64.697 c 0,-3.893 3.059,-7.059 6.9,-7.25 V 40.906 L 65.57,44.914 c 0.092,-0.701 0.146,-1.412 0.146,-2.137 0,-9.769 -7.947,-17.716 -17.716,-17.716 0,0 0,0 -10e-4,0 -0.001,0 0,0 -0.001,0 -9.77,0 -17.715,7.948 -17.715,17.716 0,0.067 0.006,0.132 0.007,0.199 0.009,0.655 0.055,1.302 0.136,1.938 l -14.6,-4.008 v 16.542 c 2.642,0.133 4.914,1.67 6.074,3.883 0.528,1.006 0.826,2.15 0.826,3.367 0,1.215 -0.298,2.358 -0.826,3.364 -1.162,2.212 -3.433,3.748 -6.074,3.88 v 7.987 l 31.152,5.613 V 49.459 L 33.549,45.772 c -0.206,-0.968 -0.327,-1.966 -0.327,-2.995 0.002,-8.147 6.631,-14.775 14.777,-14.776 8.146,0 14.774,6.628 14.774,14.775 0,0.642 -0.061,1.269 -0.145,1.887 -0.053,0.372 -0.105,0.745 -0.182,1.108 l -13.43,3.688 v 36.083 h 0.002 L 80.17,79.929 v -7.987 c -3.84,-0.193 -6.899,-3.357 -6.899,-7.245 z"
       id="path4"
       inkscape:connector-curvature="0"
       style="fill:#b3b3b3" /><path
       d="m 81.629,58.322 c -1.354,0 -2.604,0.424 -3.635,1.144 h 2.043 c 0.643,0 1.164,0.521 1.164,1.164 0,0.643 -0.521,1.164 -1.164,1.164 h -4.076 c -0.275,0.539 -0.479,1.122 -0.592,1.735 h 4.465 0.203 c 0.518,0 0.939,0.344 1.092,0.81 0.043,0.112 0.072,0.229 0.072,0.354 0,0.125 -0.029,0.242 -0.072,0.354 -0.152,0.467 -0.574,0.81 -1.092,0.81 h -0.203 -4.465 c 0.111,0.614 0.314,1.197 0.592,1.735 h 4.076 c 0.643,0 1.164,0.521 1.164,1.164 0,0.643 -0.521,1.164 -1.164,1.164 h -2.045 c 1.031,0.719 2.283,1.144 3.637,1.144 3.52,0 6.371,-2.853 6.371,-6.369 0,-3.519 -2.854,-6.373 -6.371,-6.373 z"
       id="path6"
       inkscape:connector-curvature="0"
       style="fill:#b3b3b3" /><path
       d="m 69.059,26.25 c -1.268,0 -2.191,0.956 -2.191,2.271 0,1.28 0.93,2.245 2.166,2.245 1.266,0 2.189,-0.943 2.189,-2.245 0,-1.318 -0.909,-2.271 -2.164,-2.271 z"
       id="path8"
       inkscape:connector-curvature="0"
       style="fill:#b3b3b3" /><path
       d="m 66.506,14.257 c 0.586,-0.447 1.58,-0.748 2.463,-0.748 0.957,0.015 2.105,0.349 2.105,1.847 0,1.1 -0.664,2.095 -1.813,3.45 -1.389,1.668 -2.025,3.46 -1.836,5.164 l 0.092,1.212 h 3.201 l -0.049,-1.284 c -0.076,-1.311 0.342,-2.38 1.451,-3.691 1.42,-1.685 2.506,-3.134 2.506,-5.156 -0.002,-2.286 -1.594,-4.593 -5.154,-4.593 -1.582,0 -3.258,0.472 -4.268,1.207 l -0.326,0.237 1.061,2.786 z"
       id="path10"
       inkscape:connector-curvature="0"
       style="fill:#b3b3b3" /><path
       d="m 80.293,26.25 c -1.271,0 -2.189,0.956 -2.189,2.271 0,1.28 0.93,2.245 2.158,2.245 1.271,0 2.197,-0.943 2.197,-2.245 0,-1.318 -0.912,-2.271 -2.166,-2.271 z"
       id="path12"
       inkscape:connector-curvature="0"
       style="fill:#b3b3b3" /><path
       d="m 77.74,14.257 c 0.586,-0.447 1.58,-0.748 2.463,-0.748 0.959,0.015 2.105,0.349 2.105,1.847 0,1.101 -0.666,2.097 -1.811,3.45 -1.389,1.668 -2.025,3.46 -1.838,5.164 l 0.096,1.212 h 3.195 l -0.043,-1.284 c -0.08,-1.311 0.338,-2.381 1.447,-3.691 1.422,-1.685 2.504,-3.133 2.504,-5.156 -0.004,-2.286 -1.596,-4.593 -5.15,-4.593 -1.582,0 -3.258,0.472 -4.268,1.207 l -0.328,0.237 1.061,2.786 z"
       id="path14"
       inkscape:connector-curvature="0"
       style="fill:#b3b3b3" /></g></svg>