<?xml version="1.0" encoding="UTF-8" standalone="no"?>
<svg
   xmlns:dc="http://purl.org/dc/elements/1.1/"
   xmlns:cc="http://creativecommons.org/ns#"
   xmlns:rdf="http://www.w3.org/1999/02/22-rdf-syntax-ns#"
   xmlns:svg="http://www.w3.org/2000/svg"
   xmlns="http://www.w3.org/2000/svg"
   xmlns:sodipodi="http://sodipodi.sourceforge.net/DTD/sodipodi-0.dtd"
   xmlns:inkscape="http://www.inkscape.org/namespaces/inkscape"
   version="1.1"
   x="0px"
   y="0px"
   viewBox="0 0 241 100"
   enable-background="new 0 0 91 91"
   xml:space="preserve"
   id="svg10"
   sodipodi:docname="vetsan.svg"
   width="241"
   height="100"
   inkscape:version="0.92.1 r15371"><metadata
     id="metadata16"><rdf:RDF><cc:Work
         rdf:about=""><dc:format>image/svg+xml</dc:format><dc:type
           rdf:resource="http://purl.org/dc/dcmitype/StillImage" /><dc:title></dc:title></cc:Work></rdf:RDF></metadata><defs
     id="defs14" /><sodipodi:namedview
     pagecolor="#ffffff"
     bordercolor="#666666"
     borderopacity="1"
     objecttolerance="10"
     gridtolerance="10"
     guidetolerance="10"
     inkscape:pageopacity="0"
     inkscape:pageshadow="2"
     inkscape:window-width="1920"
     inkscape:window-height="986"
     id="namedview12"
     showgrid="false"
     inkscape:zoom="2.0747253"
     inkscape:cx="45.5"
     inkscape:cy="56.875"
     inkscape:window-x="-11"
     inkscape:window-y="-11"
     inkscape:window-maximized="1"
     inkscape:current-layer="svg10" /><rect
     style="opacity:0.57399998;fill:#b3b3b3;fill-opacity:1;stroke:none;stroke-width:4.15002537;stroke-linejoin:round;stroke-miterlimit:4;stroke-dasharray:none;stroke-dashoffset:0;stroke-opacity:1"
     id="rect4491"
     width="257.6907"
     height="118.55932"
     x="-10.757429"
     y="-8.9247847" /><g
     id="g4"
     transform="matrix(0.87303181,0,0,0.87303181,80.756975,10.174471)"
     style="fill:#008000"><path
       d="M 23.195,11.053 C 19.371,9.463 16.492,10.856 15.238,12.061 14.201,12.848 7.785,17.743 3.107,21.633 0.891,23.475 0,25.395 0.463,27.34 c 0.717,3.016 4.377,4.004 5.104,4.172 0.186,0.043 0.375,0.064 0.564,0.064 h 18.326 c 1.387,0 2.512,-1.125 2.512,-2.514 0,-1.387 -1.125,-2.512 -2.512,-2.512 H 6.465 C 6.182,26.46 5.852,26.323 5.602,26.185 c 0.146,-0.17 0.371,-0.4 0.719,-0.689 4.988,-4.15 12.025,-9.486 12.096,-9.539 0.123,-0.094 0.236,-0.199 0.342,-0.313 0.006,-0.008 0.793,-0.664 2.504,0.047 2.568,1.072 14.01,7.855 19.172,10.961 l 0.088,3.477 c -2.404,0.086 -6.148,0.65 -8.84,3.082 -1.988,1.795 -3.039,4.324 -3.039,7.313 0,6.564 5.688,8.918 5.93,9.016 0.307,0.123 0.623,0.182 0.934,0.182 0.996,0 1.939,-0.598 2.332,-1.58 0.518,-1.287 -0.109,-2.75 -1.396,-3.266 -0.029,-0.012 -2.773,-1.148 -2.773,-4.352 0,-1.566 0.447,-2.734 1.371,-3.574 1.443,-1.311 3.861,-1.715 5.607,-1.793 l 0.352,14.014 c -0.342,0.08 -0.664,0.154 -0.936,0.217 -2.969,0.457 -8.377,3.006 -8.377,9.588 0,6.662 4.785,8.914 7.086,9.996 1.066,0.502 1.975,0.824 2.75,1.037 l 0.258,10.342 c -0.848,0.359 -1.492,1.158 -1.555,2.143 -0.074,1.148 0.639,2.156 1.672,2.521 l 0.066,2.656 c 0.035,1.363 1.148,2.449 2.512,2.449 h 3.006 c 1.363,0 2.477,-1.086 2.512,-2.449 l 0.096,-3.859 c 3.459,-1.748 5.105,-4.756 5.533,-6.703 1.375,-6.094 -2.213,-9.641 -5.086,-11.104 l 0.354,-14.023 c 1.059,-0.264 1.926,-0.488 2.377,-0.625 4.428,-1.348 9.16,-5.059 9.16,-11.436 0,-6.4 -6.326,-8.908 -10.994,-9.564 l 0.107,-4.266 c 4.174,-2.52 15.529,-9.266 18.234,-10.396 1.541,-0.641 2.316,-0.184 2.533,-0.012 0.113,0.145 0.145,0.145 0.314,0.275 0.072,0.053 7.109,5.391 12.102,9.541 0.348,0.287 0.574,0.518 0.719,0.689 -0.242,0.133 -0.563,0.27 -0.863,0.363 h -17.99 c -1.389,0 -2.514,1.125 -2.514,2.512 0,1.389 1.125,2.514 2.514,2.514 h 18.324 c 0.191,0 0.379,-0.021 0.564,-0.064 0.727,-0.168 4.387,-1.156 5.104,-4.172 0.463,-1.945 -0.428,-3.865 -2.645,-5.707 -4.68,-3.889 -11.094,-8.781 -12.135,-9.572 -1.252,-1.205 -4.129,-2.6 -7.959,-1.006 -2.73,1.141 -11.525,6.324 -16.152,9.086 l 0.037,-1.527 c 2.393,-1.77 3.953,-4.602 3.953,-7.799 0,-5.35 -4.352,-9.701 -9.701,-9.701 -5.352,0 -9.707,4.352 -9.707,9.701 0,3.199 1.564,6.035 3.961,7.803 l 0.053,2.088 C 35.041,17.578 25.844,12.16 23.195,11.053 Z m 27.53,64.926 c -0.033,0.133 -0.162,0.563 -0.467,1.096 l 0.115,-4.613 c 0.463,0.854 0.695,1.999 0.352,3.517 z M 41.387,64.633 c -0.154,-0.066 -0.307,-0.129 -0.477,-0.209 -2.904,-1.367 -4.199,-2.479 -4.199,-5.449 0,-3.789 3.482,-4.521 4.158,-4.627 0.076,-0.01 0.15,-0.023 0.223,-0.041 0.006,-0.002 0.027,-0.006 0.035,-0.008 z M 57.4,39.92 c 0,4.57 -4.283,6.229 -5.594,6.627 -0.182,0.055 -0.451,0.129 -0.787,0.217 l 0.285,-11.326 c 2.44,0.417 6.096,1.533 6.096,4.482 z M 45.979,6.139 c 2.578,0 4.676,2.098 4.676,4.676 0,2.58 -2.098,4.678 -4.676,4.678 -2.582,0 -4.682,-2.098 -4.682,-4.678 0,-2.579 2.099,-4.676 4.682,-4.676 z m 0.673,14.379 -0.674,26.807 -0.672,-26.807 z"
       id="path2"
       inkscape:connector-curvature="0"
       style="fill:#008000" /></g></svg>