<?xml version="1.0" encoding="UTF-8" standalone="no"?>
<svg
   xmlns:dc="http://purl.org/dc/elements/1.1/"
   xmlns:cc="http://creativecommons.org/ns#"
   xmlns:rdf="http://www.w3.org/1999/02/22-rdf-syntax-ns#"
   xmlns:svg="http://www.w3.org/2000/svg"
   xmlns="http://www.w3.org/2000/svg"
   xmlns:sodipodi="http://sodipodi.sourceforge.net/DTD/sodipodi-0.dtd"
   xmlns:inkscape="http://www.inkscape.org/namespaces/inkscape"
   version="1.1"
   x="0px"
   y="0px"
   viewBox="0 0 100 100"
   xml:space="preserve"
   id="svg30"
   sodipodi:docname="bsaimportant_carre.svg"
   width="100"
   height="100"
   inkscape:version="0.92.1 r15371"><metadata
     id="metadata36"><rdf:RDF><cc:Work
         rdf:about=""><dc:format>image/svg+xml</dc:format><dc:type
           rdf:resource="http://purl.org/dc/dcmitype/StillImage" /><dc:title /></cc:Work></rdf:RDF></metadata><defs
     id="defs34" /><sodipodi:namedview
     pagecolor="#ffffff"
     bordercolor="#666666"
     borderopacity="1"
     objecttolerance="10"
     gridtolerance="10"
     guidetolerance="10"
     inkscape:pageopacity="0"
     inkscape:pageshadow="2"
     inkscape:window-width="1920"
     inkscape:window-height="986"
     id="namedview32"
     showgrid="false"
     inkscape:zoom="1.888"
     inkscape:cx="-61.987502"
     inkscape:cy="67.010108"
     inkscape:window-x="-11"
     inkscape:window-y="-11"
     inkscape:window-maximized="1"
     inkscape:current-layer="svg30" /><rect
     style="opacity:1;fill:#b3b3b3;fill-opacity:1;stroke:none;stroke-width:2.78128839;stroke-linejoin:round;stroke-miterlimit:4;stroke-dasharray:none;stroke-dashoffset:0;stroke-opacity:1"
     id="rect4491"
     width="115.74155"
     height="118.55932"
     x="-7.8707733"
     y="-9.2796593" /><path
     style="fill:#417ebe;stroke-width:0.68755883;fill-opacity:1"
     inkscape:connector-curvature="0"
     id="path2"
     d="m 22.757447,68.070153 c -0.275024,-3.025259 -0.550047,-6.531809 -0.756315,-8.525729 0.206268,0.206267 0.481291,0.412535 0.68756,0.618803 1.718896,1.512629 4.744152,1.787653 6.806833,1.787653 0.962584,0 1.718892,-0.06875 2.062674,-0.06875 1.100098,-0.137512 1.856406,-1.100094 1.787653,-2.131433 -0.137514,-1.100093 -1.10009,-1.856408 -2.131435,-1.787653 -1.856406,0.206268 -4.950416,0 -5.844247,-0.756314 -2.200187,-1.925165 -4.469131,-3.094015 -8.181949,-3.231526 -3.231527,0 -3.850329,1.443873 -3.850329,3.16277 0,2.3377 0.756314,12.444814 1.237605,14.645003 0.481291,1.925165 5.294203,1.581385 7.631903,1.512629 2.3377,-0.06875 4.950423,0.06875 6.188028,0.343779 0.137514,2.062677 -0.06877,7.219368 -0.412535,11.550989 -0.137514,1.375118 0.962583,2.612723 2.337702,2.750235 0.06877,0 0.137514,0 0.206267,0 1.306365,0 2.475208,-1.031338 2.543969,-2.3377 0.618803,-8.18195 0.618803,-13.132374 -0.06877,-14.645003 -1.031337,-2.131432 -3.712813,-2.750235 -10.244624,-2.887747 z" /><circle
     style="fill:#417ebe;stroke-width:0.6875791;fill-opacity:1"
     r="5.0193276"
     id="ellipse4"
     cy="48.848263"
     cx="14.272944"
     transform="rotate(-3.3702181)" /><path
     style="fill:#417ebe;stroke-width:0.68755883;fill-opacity:1"
     inkscape:connector-curvature="0"
     id="path6"
     d="M 24.888882,74.670718 H 13.269135 L 11.34397,56.312897 C 11.275217,55.41907 10.450144,54.731512 9.5563174,54.869024 8.6624917,54.937777 7.9749325,55.76285 8.1124443,56.656676 l 2.1314327,19.801695 c 0.06875,0.82507 0.82507,1.443873 1.650141,1.443873 h 5.087935 v 6.050518 l -3.781573,1.443873 c -0.687559,0.275024 -1.031339,1.031339 -0.825071,1.718898 0.275023,0.687558 1.031338,1.031337 1.718897,0.82507 l 4.125353,-1.512629 4.125353,1.512629 c 0.206268,0 0.34378,0 0.481291,0 0.550047,0 1.031338,-0.343779 1.237606,-0.893827 0.275023,-0.687559 -0.137512,-1.443873 -0.825071,-1.718896 L 19.525921,84.021518 V 77.971 h 5.362961 c 0.893823,0 1.650139,-0.756315 1.650139,-1.650141 0,-0.893827 -0.687563,-1.650141 -1.650139,-1.650141 z" /><path
     style="fill:#417ebe;stroke-width:0.68755883;fill-opacity:1"
     inkscape:connector-curvature="0"
     id="path8"
     d="m 53.078789,73.639379 c 1.306365,-0.275023 3.919087,-0.412535 6.188028,-0.343779 2.337702,0.06875 7.150612,0.412536 7.631908,-1.512629 0.550049,-2.200189 1.237604,-12.307303 1.237604,-14.645003 0,-1.718898 -0.550049,-3.162771 -3.850326,-3.162771 -3.781574,0.06875 -5.981762,1.306362 -8.181949,3.231527 -0.893831,0.756314 -3.919088,0.893826 -5.844255,0.756314 -1.10009,-0.137512 -2.062674,0.687559 -2.131435,1.787653 -0.137506,1.100094 0.687563,2.062677 1.787653,2.131433 0.343782,0 1.100098,0.06875 2.062682,0.06875 2.062673,0 5.087931,-0.275024 6.80683,-1.787653 0.275021,-0.206268 0.481288,-0.412536 0.687556,-0.618803 -0.206268,1.99392 -0.481288,5.431714 -0.756309,8.525729 -6.53181,0.137512 -9.213293,0.756314 -10.175877,2.887747 -0.687555,1.512629 -0.756308,6.463053 -0.06877,14.645002 0.137514,1.306362 1.237604,2.337701 2.54397,2.337701 0.06877,0 0.137514,0 0.206267,0 1.375118,-0.137512 2.475208,-1.375118 2.337702,-2.750235 -0.412535,-4.331621 -0.618802,-9.488312 -0.481296,-11.550989 z" /><circle
     style="fill:#417ebe;stroke-width:0.68757981;fill-opacity:1"
     r="5.0193324"
     id="ellipse10"
     cy="67.007256"
     cx="-44.067635"
     transform="rotate(-86.628861)" /><path
     style="fill:#417ebe;stroke-width:0.68755883;fill-opacity:1"
     inkscape:connector-curvature="0"
     id="path12"
     d="m 71.917903,54.869024 c -0.893823,-0.06875 -1.7189,0.550046 -1.787653,1.443873 L 68.205083,74.601962 H 56.516588 c -0.89383,0 -1.650146,0.756315 -1.650146,1.650141 0,0.893826 0.756316,1.650141 1.650146,1.650141 h 5.36296 v 6.050518 l -3.712821,1.306361 c -0.687563,0.275024 -1.031336,1.031339 -0.825069,1.718898 0.206267,0.550046 0.687555,0.893826 1.237604,0.893826 0.137514,0 0.275021,0 0.412535,-0.06875 l 4.125355,-1.512629 4.125355,1.512629 c 0.687555,0.275024 1.443871,-0.137512 1.718892,-0.82507 0.275028,-0.687559 -0.137514,-1.443874 -0.82507,-1.718897 l -3.71282,-1.306362 V 77.90225 h 5.156692 c 0.825069,0 1.581386,-0.618803 1.650147,-1.443873 l 2.131426,-19.801695 c 0.06877,-0.893825 -0.550049,-1.718896 -1.443871,-1.787652 z" /><path
     style="fill:#417ebe;stroke-width:0.68755883;fill-opacity:1"
     inkscape:connector-curvature="0"
     id="path14"
     d="M 56.791609,66.144988 V 63.9448 c 0,-0.206268 -0.137514,-0.343779 -0.343782,-0.343779 H 24.957636 c -0.206268,0 -0.34378,0.137511 -0.34378,0.343779 v 2.200188 c 0,0.206268 0.137512,0.34378 0.34378,0.34378 H 36.233603 V 87.3218 c 0,0.206267 0.137506,0.343779 0.343774,0.343779 h 8.25071 c 0.206267,0 0.343781,-0.137512 0.343781,-0.343779 V 66.557523 h 11.275959 c 0.206268,0 0.343782,-0.206267 0.343782,-0.412535 z" /><path
     style="fill:#ff5599;stroke-width:0.68755883"
     inkscape:connector-curvature="0"
     id="path16"
     d="m 47.440809,38.642635 c 0,1.443874 -0.481288,2.750236 -1.375118,3.987841 1.375118,0.756315 3.300285,1.718898 5.156691,2.062677 0.481288,0.06875 0.756317,-0.481291 0.481288,-0.82507 -0.962575,-1.031339 -1.443871,-2.062677 -1.718892,-2.818992 2.268941,-1.237605 3.781574,-3.231526 3.781574,-5.431714 0,-3.781574 -4.194108,-6.806833 -9.3508,-6.806833 -2.612723,0 -5.019178,0.756315 -6.669324,2.062676 2.475216,0.137512 4.744157,0.893827 6.53181,2.200189 1.99392,1.375118 3.162771,3.437794 3.162771,5.569226 z" /><path
     style="fill:#ff9955;stroke-width:0.68755883"
     inkscape:connector-curvature="0"
     id="path18"
     d="m 31.489446,44.143106 c -0.275029,0.756315 -0.756316,1.856409 -1.7189,2.818991 -0.343782,0.343779 0,0.962583 0.481296,0.825071 2.131426,-0.412535 4.262861,-1.581386 5.706732,-2.406456 0.343782,0 0.756317,0.06875 1.100098,0.06875 5.156692,0 9.3508,-3.025258 9.3508,-6.806832 0,-3.781573 -4.194108,-6.806832 -9.3508,-6.806832 -5.156692,0 -9.3508,3.025259 -9.3508,6.806832 0,2.268944 1.443872,4.262865 3.781574,5.500471 z m 10.038355,-6.806833 c 0.756316,0 1.306365,0.618803 1.306365,1.306362 0,0.756315 -0.618802,1.306362 -1.306365,1.306362 -0.687555,0 -1.306357,-0.618802 -1.306357,-1.306362 -0.06877,-0.687559 0.550041,-1.306362 1.306357,-1.306362 z m -4.53789,0 c 0.756317,0 1.306365,0.618803 1.306365,1.306362 0,0.756315 -0.618802,1.306362 -1.306365,1.306362 -0.756308,0 -1.306357,-0.618802 -1.306357,-1.306362 0,-0.687559 0.618802,-1.306362 1.306357,-1.306362 z m -4.469128,0 c 0.756316,0 1.306365,0.618803 1.306365,1.306362 0,0.756315 -0.61881,1.306362 -1.306365,1.306362 -0.687556,0 -1.306366,-0.618802 -1.306366,-1.306362 0,-0.687559 0.61881,-1.306362 1.306366,-1.306362 z" /><text
     xml:space="preserve"
     style="font-style:normal;font-weight:normal;font-size:10px;line-height:125%;font-family:sans-serif;letter-spacing:0px;word-spacing:0px;fill:#000000;fill-opacity:1;stroke:none;stroke-width:1px;stroke-linecap:butt;stroke-linejoin:miter;stroke-opacity:1"
     x="71.504242"
     y="85.69915"
     id="text873"><tspan
       sodipodi:role="line"
       id="tspan871"
       x="71.504242"
       y="85.69915"
       style="font-size:85.33333333px;fill:#d40000">!</tspan></text>
</svg>