<?xml version="1.0" encoding="UTF-8" standalone="no"?>
<svg
   xmlns:dc="http://purl.org/dc/elements/1.1/"
   xmlns:cc="http://creativecommons.org/ns#"
   xmlns:rdf="http://www.w3.org/1999/02/22-rdf-syntax-ns#"
   xmlns:svg="http://www.w3.org/2000/svg"
   xmlns="http://www.w3.org/2000/svg"
   xmlns:sodipodi="http://sodipodi.sourceforge.net/DTD/sodipodi-0.dtd"
   xmlns:inkscape="http://www.inkscape.org/namespaces/inkscape"
   version="1.1"
   x="0px"
   y="0px"
   viewBox="0 0 100 99.999999"
   xml:space="preserve"
   id="svg10"
   sodipodi:docname="commentaire_carre.svg"
   inkscape:version="0.92.1 r15371"
   width="100"
   height="100"><metadata
     id="metadata16"><rdf:RDF><cc:Work
         rdf:about=""><dc:format>image/svg+xml</dc:format><dc:type
           rdf:resource="http://purl.org/dc/dcmitype/StillImage" /><dc:title /></cc:Work></rdf:RDF></metadata><defs
     id="defs14" /><sodipodi:namedview
     pagecolor="#b3b3b3"
     bordercolor="#666666"
     borderopacity="1"
     objecttolerance="10"
     gridtolerance="10"
     guidetolerance="10"
     inkscape:pageopacity="1"
     inkscape:pageshadow="2"
     inkscape:window-width="1920"
     inkscape:window-height="986"
     id="namedview12"
     showgrid="false"
     inkscape:zoom="3.4596231"
     inkscape:cx="54.65348"
     inkscape:cy="46.786485"
     inkscape:window-x="-11"
     inkscape:window-y="-11"
     inkscape:window-maximized="1"
     inkscape:current-layer="svg10"
     fit-margin-top="0"
     fit-margin-left="0"
     fit-margin-right="0"
     fit-margin-bottom="0" /><g
     id="g819"
     transform="matrix(0.95399569,0,0,0.95399569,12.213782,4.7652658)"><path
       inkscape:connector-curvature="0"
       style="fill:#008000"
       id="path2"
       d="m 4.815345,96.11534 12.7,-19.4 c -7.9,-5.699995 -13.6,-13.999995 -16.1,-23.499995 -2.9000003,-10.9 -1.30000008,-22.3 4.4,-32.1 5.7,-9.8 14.8,-16.8000002 25.8,-19.7000002 10.9,-2.9 22.3,-1.29999998 32.1,4.4 9.8,5.7000002 16.7,14.9000002 19.6,25.8000002 2.9,11 1.3,22.4 -4.4,32.2 -5.7,9.8 -14.9,16.700005 -25.8,19.600005 z m 37.5,-91.0999952 c -3.1,0 -6.3,0.4 -9.5,1.2000004 -9.6,2.5 -17.7,8.6999998 -22.8,17.2999998 -5,8.6 -6.4,18.7 -3.9,28.3 2.4,9.1 8.1,16.9 16,22 l 2.1,1.399995 -8.3,12.70001 35.8,-9.40001 c 19.9,-5.199995 31.9,-25.699995 26.6,-45.599995 -4.2,-16.7 -19.4,-27.9000002 -36,-27.9000002 z" /><rect
       style="fill:#008000"
       id="rect4"
       height="6.4000001"
       width="39.5"
       y="37.615345"
       x="23.815346" /><rect
       style="fill:#008000"
       id="rect6"
       height="6.4000001"
       width="21.200001"
       y="50.415352"
       x="23.815346" /><rect
       style="fill:#008000"
       id="rect8"
       height="6.4000001"
       width="39.5"
       y="25.515347"
       x="23.815346" /></g></svg>