<?xml version="1.0" encoding="UTF-8" standalone="no"?>
<!-- Created with Inkscape (http://www.inkscape.org/) -->

<svg
   xmlns:dc="http://purl.org/dc/elements/1.1/"
   xmlns:cc="http://creativecommons.org/ns#"
   xmlns:rdf="http://www.w3.org/1999/02/22-rdf-syntax-ns#"
   xmlns:svg="http://www.w3.org/2000/svg"
   xmlns="http://www.w3.org/2000/svg"
   xmlns:sodipodi="http://sodipodi.sourceforge.net/DTD/sodipodi-0.dtd"
   xmlns:inkscape="http://www.inkscape.org/namespaces/inkscape"
   width="100"
   height="100"
   viewBox="0 0 26.458333 26.458334"
   version="1.1"
   id="svg826"
   inkscape:version="0.92.3 (2405546, 2018-03-11)"
   sodipodi:docname="OL.svg">
  <defs
     id="defs820" />
  <sodipodi:namedview
     id="base"
     pagecolor="#ffffff"
     bordercolor="#666666"
     borderopacity="1.0"
     inkscape:pageopacity="0.0"
     inkscape:pageshadow="2"
     inkscape:zoom="3.959798"
     inkscape:cx="43.728629"
     inkscape:cy="34.075384"
     inkscape:document-units="mm"
     inkscape:current-layer="layer1"
     showgrid="false"
     units="px"
     inkscape:window-width="1600"
     inkscape:window-height="836"
     inkscape:window-x="0"
     inkscape:window-y="27"
     inkscape:window-maximized="1" />
  <metadata
     id="metadata823">
    <rdf:RDF>
      <cc:Work
         rdf:about="">
        <dc:format>image/svg+xml</dc:format>
        <dc:type
           rdf:resource="http://purl.org/dc/dcmitype/StillImage" />
        <dc:title></dc:title>
      </cc:Work>
    </rdf:RDF>
  </metadata>
  <g
     inkscape:label="Calque 1"
     inkscape:groupmode="layer"
     id="layer1"
     transform="translate(0,-270.54165)">
    <rect
       style="opacity:0.57399998;fill:#cccccc;fill-opacity:1;stroke:none;stroke-width:0.73526651;stroke-linejoin:round;stroke-miterlimit:4;stroke-dasharray:none;stroke-dashoffset:0;stroke-opacity:1"
       id="rect4491"
       width="30.572033"
       height="31.36882"
       x="-1.6629407"
       y="269.02118" />
    <path
       style="fill:#ff8080;stroke-width:0.09035086"
       id="path2-9"
       d="m 22.816773,288.13594 c 0.822192,-0.6957 1.337192,-1.80702 1.337192,-2.99965 0,-0.0632 -0.05422,-0.10836 -0.108419,-0.10836 h -6.333595 c -0.06324,0 -0.108418,0.0542 -0.108418,0.10836 0,1.1836 0.496929,2.30395 1.337192,3.00868 l -0.469824,1.29202 c -0.09035,0.24395 0.03614,0.515 0.280088,0.60535 0.11746,0.0451 0.243947,0.0361 0.361404,-0.0181 0.117461,-0.0542 0.198771,-0.14456 0.243947,-0.27106 l 0.05422,-0.13553 v 0.19878 c 0,0.26201 0.216842,0.46982 0.469824,0.46982 0.252982,0 0.469824,-0.21684 0.469824,-0.46982 v -1.00291 c 0.171668,0.0271 0.343334,0.0451 0.524036,0.0451 0.171666,0 0.352367,-0.0181 0.524035,-0.0451 v 1.00291 c 0,0.26201 0.216842,0.46982 0.469824,0.46982 0.252982,0 0.469824,-0.21684 0.469824,-0.46982 v -0.19878 l 0.05421,0.13553 c 0.04517,0.11739 0.126491,0.21684 0.243948,0.27106 0.06325,0.0271 0.135526,0.0452 0.198772,0.0452 0.05422,0 0.108419,-0.009 0.162632,-0.0271 0.243947,-0.0903 0.370438,-0.3614 0.280087,-0.60535 z"
       inkscape:connector-curvature="0" />
    <path
       style="fill:#0000ff;stroke-width:0.09035086"
       id="path4-1"
       d="m 20.783878,290.41278 c -0.03614,0.0451 -0.930613,1.21974 -0.930613,2.53886 0,0.515 0.388508,0.83123 1.011929,0.83123 0.623421,0 1.011929,-0.31623 1.011929,-0.83123 0,-1.31912 -0.885438,-2.49369 -0.930613,-2.53886 -0.0271,-0.0632 -0.117461,-0.0632 -0.162632,0 z"
       inkscape:connector-curvature="0" />
    <g
       id="g4506"
       transform="matrix(0.18071664,0,0,0.18071664,-12.760447,275.77241)"
       style="fill:#241c1c">
      <path
         id="path2"
         d="m 124.40678,75.78861 c -8.432,0 -14.704,-2.22 -19.172,-6.772 -8.748,-8.924 -8.416,-25.116 -8.096,-40.78 0.012,-0.58 0.024,-1.156 0.036,-1.736 -4.472,6 -11.128,11.736 -18.652,12.516 -0.556,0.06 -1.128,-0.12 -1.548,-0.5 -0.416,-0.388 -0.66,-0.916 -0.66,-1.492 0,-11.428 3.744,-21.704 12.912,-35.4279998 0.984,-1.41600003 9.664,-13.4400002 18.42,-13.4400002 0.404,0 0.788,0.024 1.176,0.08 3.468,-5.244 9.32,-8.432 15.584,-8.432 6.264,0 12.116,3.196 15.584,8.428 0.416,-0.048 0.796,-0.08 1.172,-0.08 8.752,0 17.436,12.02400017 18.404,13.4040002 9.192,13.7599998 12.932,24.0359998 12.932,35.4759998 0,0.58 -0.248,1.104 -0.664,1.492 -0.416,0.384 -0.976,0.572 -1.548,0.5 -7.52,-0.772 -14.18,-6.52 -18.648,-12.52 0.008,0.584 0.024,1.156 0.032,1.744 0.32,15.668 0.648,31.844 -8.092,40.776 -4.468,4.544 -10.744,6.764 -19.172,6.764 z m -25.908,-57.008 c 0.392,0 0.768,0.116 1.096,0.332 l 0.68,0.456 c 0.604,0.36 0.976,1.024 0.968,1.732 -0.016,2.316 -0.072,4.664 -0.112,7.012 -0.304,14.836 -0.616,30.172 6.952,37.9 3.684,3.752 9.02,5.584 16.32,5.584 7.3,0 12.636,-1.828 16.316,-5.584 7.572,-7.728 7.256,-23.064 6.952,-37.9 -0.048,-2.352 -0.096,-4.696 -0.112,-7.012 -0.004,-0.708 0.364,-1.368 0.964,-1.732 l 0.364,-0.248 c 0.464,-0.32 1.18,-0.532 1.732,-0.404 0.548,0.132 1.16,0.392 1.432,0.888 3.5,6.3 9.732,12.928 16.376,14.784 -0.512,-9.656 -4.148,-18.772 -12.168,-30.7839998 -2.256,-3.22400003 -9.428,-11.66 -15.092,-11.66 -0.524,0 -1.032,0.08 -1.54,0.144 0,0 -0.404,0.06 -0.412,0.06 -0.792,0.108 -1.6,-0.284 -2,-1 -2.632,-4.6640002 -7.544,-7.5720002 -12.812,-7.5720002 -5.272,0 -10.18,2.908 -12.812,7.5720002 -0.404,0.712 -1.192,1.104 -2,1 -0.004,0 -0.408,-0.06 -0.416,-0.06 -0.504,-0.072 -1.012,-0.14 -1.532,-0.14 -5.684,0 -12.844,8.43599997 -15.124,11.692 -8,11.9759998 -11.628,21.0879998 -12.14,30.7519998 6.644,-1.844 12.876,-8.484 16.376,-14.784 0.26,-0.488 0.728,-0.836 1.26,-0.972 0.164,-0.036 0.324,-0.056 0.484,-0.056 z"
         style="fill:#241c1c"
         inkscape:connector-curvature="0" />
      <path
         id="path4"
         d="m 114.40678,25.78861 c -1.104,0 -2,-0.892 -2,-2 v -8 c 0,-1.1 0.896,-2 2,-2 1.1,0 2,0.9 2,2 v 8 c 0,1.108 -0.9,2 -2,2 z"
         style="fill:#241c1c"
         inkscape:connector-curvature="0" />
      <path
         id="path6"
         d="m 134.40678,25.78861 c -1.1,0 -2,-0.892 -2,-2 v -8 c 0,-1.1 0.9,-2 2,-2 1.1,0 2,0.9 2,2 v 8 c 0,1.108 -0.9,2 -2,2 z"
         style="fill:#241c1c"
         inkscape:connector-curvature="0" />
      <path
         id="path8"
         d="m 124.40678,67.42861 c -0.512,0 -1.024,-0.196 -1.416,-0.584 l -8.376,-8.368 c -0.784,-0.772 -0.784,-2.044 -0.004,-2.828 0.78,-0.78 2.052,-0.78 2.828,0 l 6.968,6.952 6.968,-6.952 c 0.772,-0.78 2.048,-0.78 2.828,0 0.78,0.78 0.78,2.048 -0.004,2.828 l -8.384,8.368 c -0.384,0.388 -0.896,0.584 -1.408,0.584 z"
         style="fill:#241c1c"
         inkscape:connector-curvature="0" />
    </g>
  </g>
</svg>
